<svg id="グループ_1569" data-name="グループ 1569" xmlns="http://www.w3.org/2000/svg" width="980" height="281" viewBox="0 0 980 281">
  <rect id="長方形_196" data-name="長方形 196" width="977.716" height="281" transform="translate(0.984)" fill="#fff"/>
  <path id="パス_3777" data-name="パス 3777" d="M6.8,4.96c-.576.512-1.28,1.12-1.632,1.44a.6.6,0,0,0-.176.256.245.245,0,0,0,.176.176.855.855,0,0,0,.352-.144A11.579,11.579,0,0,1,8.16,5.1a10.6,10.6,0,0,1,2.224-.384c.544-.048.736-.208.736-.512,0-.288-.128-.5-.528-.624a2.058,2.058,0,0,0-.576-.08,1.939,1.939,0,0,0-.464.112,9.293,9.293,0,0,1-1.424.32,10.771,10.771,0,0,1-1.52.144,6.321,6.321,0,0,1-1.184-.1,3.058,3.058,0,0,1-1.072-.416.377.377,0,0,0-.208-.08.174.174,0,0,0-.16.176.279.279,0,0,0,.064.192,2.464,2.464,0,0,0,1.008.784A4.242,4.242,0,0,0,6.8,4.96ZM3.824,8.592a.267.267,0,0,0-.208.16,2.609,2.609,0,0,0-.432,1.536A2.573,2.573,0,0,0,4.928,12.72a7.738,7.738,0,0,0,3.024.512,24.194,24.194,0,0,0,3.568-.256c.576-.08.912-.24.912-.656s-.432-.688-1.024-.688a3.055,3.055,0,0,0-.976.144,9.531,9.531,0,0,1-2.736.336,6.041,6.041,0,0,1-2.9-.528,1.613,1.613,0,0,1-1.024-1.568A2.819,2.819,0,0,1,3.968,8.96a.628.628,0,0,0,.048-.224C4.016,8.656,3.92,8.592,3.824,8.592ZM11.376,1.9a.165.165,0,0,0-.176.16.248.248,0,0,0,.112.16A5.537,5.537,0,0,1,12.656,3.76q.216.432.528.432a.445.445,0,0,0,.448-.48c0-.336-.224-.624-.608-.96a3.6,3.6,0,0,0-1.392-.8A.91.91,0,0,0,11.376,1.9Zm1.3-1.088a.16.16,0,0,0-.16.16.193.193,0,0,0,.112.16A4.879,4.879,0,0,1,14.1,2.64c.176.3.3.384.512.384a.454.454,0,0,0,.432-.512c0-.368-.352-.736-.736-1.008A3.778,3.778,0,0,0,13.024.88,2.089,2.089,0,0,0,12.672.816ZM31.488,6.544c.144,0,.208-.064.208-.16s-.08-.208-.432-.5c-.8-.656-.912-.736-1.008-.736-.112,0-.224.08-.96.992H23.264c.16-.272.3-.56.448-.864.448-.08.608-.16.608-.32,0-.192-.416-.368-1.6-.656a9.72,9.72,0,0,1-.4,1.136,7.028,7.028,0,0,1-.336.7H18.672a10.215,10.215,0,0,1-1.488-.112l.16.608a7.8,7.8,0,0,1,1.312-.1h3.12a14.418,14.418,0,0,1-4.752,4.88c-.1.064.032.3.128.256a13.373,13.373,0,0,0,3.2-1.952v1.36c0,1.7-.048,2.288-.048,2.672,0,.352.128.48.5.48.48,0,.688-.176.688-.592s-.016-1.024-.016-2.624V9.536h2.816v.5c0,3.136-.08,4.48-.08,4.88,0,.352.16.464.528.464.464,0,.7-.144.7-.528,0-.464-.064-1.952-.064-4.976V9.536H28.5v3.056c0,.208-.064.272-.272.272-.384,0-.768-.016-1.5-.08-.1-.016-.1.224,0,.24,1.088.272,1.248.416,1.28.88.016.208.08.272.272.272a1.625,1.625,0,0,0,.928-.32,1.014,1.014,0,0,0,.448-.864c0-.48-.016-.848-.016-2.336V9.9c.352-.224.416-.32.416-.464,0-.1-.064-.176-.3-.416-.528-.448-.64-.5-.736-.5-.112,0-.192.048-.7.608H25.376V8.08c.416-.192.512-.288.512-.416,0-.208-.112-.256-1.68-.432.048.528.064.912.08,1.9h-2.64c-.16-.1-.288-.176-.416-.24a14.059,14.059,0,0,0,1.792-2.352ZM25.984,2.9c.7-.368,1.408-.784,2.144-1.264.56.064.752-.016.752-.16,0-.16-.4-.464-1.312-1.024A11.267,11.267,0,0,1,26,1.744a12.22,12.22,0,0,1-1.12.688,27.2,27.2,0,0,0-4.5-1.312c-.112-.016-.176.208-.064.256C21.7,1.92,22.848,2.4,23.9,2.928a27.173,27.173,0,0,1-5.472,1.9c-.112.032-.048.272.064.256A20.122,20.122,0,0,0,24.848,3.44c.576.336,1.136.688,1.712,1.1.864.624,1.056.736,1.312.736a.512.512,0,0,0,.464-.56C28.336,4.256,27.456,3.584,25.984,2.9Zm19.84,2.9c-.064.256-.112.464-.16.624-.224.8-.368.944-.848.944a14.183,14.183,0,0,1-1.632-.144c-.1-.016-.112.176-.016.208.976.288,1.312.464,1.408.928.048.176.112.256.288.256a1.691,1.691,0,0,0,.88-.272,1.821,1.821,0,0,0,.8-.992,18.124,18.124,0,0,0,.848-4.88c.368-.224.48-.352.48-.5,0-.1-.048-.176-.3-.416-.528-.464-.624-.528-.72-.528s-.192.064-.7.624H43.312A8.352,8.352,0,0,0,41.952.96c0,.416,0,.752-.016,1.088a13.808,13.808,0,0,1-.624,3.776A7.184,7.184,0,0,1,39.456,8.64c-.064.064.048.224.128.176a5.918,5.918,0,0,0,2.608-2.592c.08-.144.144-.288.208-.432Zm.288-1.872c-.064.5-.128.976-.224,1.472H42.544a7.928,7.928,0,0,0,.368-1.472Zm-3.136-.4c.064-.464.128-1.2.144-1.472H46.3c-.048.544-.1,1.04-.144,1.472ZM41.408,14.144V12.1H46c.16,0,.208-.048.208-.176,0-.1-.048-.192-.368-.432-.656-.544-.784-.624-.9-.624-.1,0-.208.08-.864.832H41.408V9.856h5.456c.16,0,.208-.048.208-.144s-.064-.192-.368-.432c-.672-.528-.784-.624-.912-.624-.1,0-.208.1-.848.8H36.256a7.345,7.345,0,0,1-1.408-.112l.16.608a8.826,8.826,0,0,1,1.232-.1h4V11.7H37.264a7.379,7.379,0,0,1-1.392-.128l.16.624a6.968,6.968,0,0,1,1.216-.1H40.24v2.048H35.152a5.6,5.6,0,0,1-1.232-.112l.16.608a6.532,6.532,0,0,1,1.088-.1H47.856c.144,0,.208-.048.208-.144s-.064-.224-.4-.5c-.768-.624-.9-.688-1.008-.688-.1,0-.208.08-.912.928ZM37.968,2.736v-1.2c.4-.16.512-.288.512-.416,0-.16-.176-.288-1.712-.432a8.079,8.079,0,0,1,.064,1.168v.88H34.976a5.461,5.461,0,0,1-1.216-.112l.16.608a7.22,7.22,0,0,1,1.12-.1h.08v1.9c0,.736-.032.928-.032,1.136,0,1.136.512,1.568,2.144,1.568a13.555,13.555,0,0,0,2.336-.128c.352-.08.512-.224.512-.432,0-.368-.224-.672-.48-.672a3.231,3.231,0,0,0-.56.048,11.674,11.674,0,0,1-1.5.112c-1.12-.016-1.3-.144-1.3-.64v-2.9h4.848c.16,0,.208-.048.208-.144,0-.112-.064-.208-.384-.464-.64-.528-.752-.592-.864-.592-.1,0-.224.064-.816.8Zm19.1.928a6.965,6.965,0,0,1,.848-.032A4.634,4.634,0,0,1,60.9,4.672,4.037,4.037,0,0,1,62.24,7.728,4.52,4.52,0,0,1,60.8,11.04a8.893,8.893,0,0,1-4.352,2.032c-.208.048-.288.1-.288.224a.226.226,0,0,0,.224.192A9.549,9.549,0,0,0,61.712,11.7,4.524,4.524,0,0,0,63.44,7.952,4.568,4.568,0,0,0,61.664,4.32a5.885,5.885,0,0,0-3.712-1.232,6.838,6.838,0,0,0-5.12,2.1,5.822,5.822,0,0,0-1.5,3.776,3.514,3.514,0,0,0,.736,2.368,1.476,1.476,0,0,0,1.2.64,2.142,2.142,0,0,0,1.616-1.04,16.111,16.111,0,0,0,2.288-4.144,6.391,6.391,0,0,0,.416-1.872A1.87,1.87,0,0,0,57.072,3.664Zm-.432.048a.992.992,0,0,1,.256.736,3.5,3.5,0,0,1-.224,1.264,17,17,0,0,1-2.288,4.16c-.464.624-.784.912-1.12.912a.9.9,0,0,1-.752-.544,2.762,2.762,0,0,1-.352-1.488A4.987,4.987,0,0,1,53.552,5.3,5.646,5.646,0,0,1,56.64,3.712Zm24.256.56c.16,0,.208-.048.208-.144s-.08-.208-.432-.512c-.752-.624-.864-.688-.976-.688-.1,0-.224.064-1.024.944H74.336V1.664c.432-.192.544-.32.544-.432,0-.192-.192-.32-1.872-.48a10.3,10.3,0,0,1,.1,1.3V3.872H68.016a7.741,7.741,0,0,1-1.3-.112l.176.608a7.062,7.062,0,0,1,1.12-.1h3.792a18.133,18.133,0,0,1-.864,5.552,10.526,10.526,0,0,1-4.3,5.088c-.1.064.048.272.144.224a9.189,9.189,0,0,0,5.12-4.768,11.571,11.571,0,0,0,.864-3.024h4.7a24.057,24.057,0,0,1-.768,5.248c-.272.816-.512,1.04-1.008,1.04a13.317,13.317,0,0,1-2.336-.352c-.112-.016-.176.224-.064.256,1.5.5,1.84.768,1.936,1.3.032.208.1.272.272.272A2.277,2.277,0,0,0,77.68,13.44a21.314,21.314,0,0,0,.976-5.7c.416-.256.5-.336.5-.432s-.048-.192-.3-.432c-.576-.528-.688-.544-.8-.544-.1,0-.176.064-.72.608h-4.5c.128-.88.176-1.776.224-2.672ZM92.032,4.8a13.1,13.1,0,0,0-1.216,1.344.3.3,0,0,0-.1.208.188.188,0,0,0,.16.144.244.244,0,0,0,.192-.1,6.358,6.358,0,0,1,1.7-1.28,2.734,2.734,0,0,1,1.024-.176c.256,0,.688.048.912.048.416,0,.64-.08.64-.48,0-.352-.224-.7-1.328-.7a9.173,9.173,0,0,0-2.416.3,8.493,8.493,0,0,0-2.16.96c-.128.08-.192.144-.192.256a.181.181,0,0,0,.192.176.686.686,0,0,0,.24-.08,10.926,10.926,0,0,1,2.24-.7C92.064,4.688,92.08,4.752,92.032,4.8Zm-3.056,5.264a2.442,2.442,0,0,0,.8,1.872c.96.864,2.528.96,3.856.96a8.917,8.917,0,0,0,2.224-.208.478.478,0,0,0,.4-.48.628.628,0,0,0-.432-.544,2.342,2.342,0,0,0-.656-.128,2.532,2.532,0,0,0-.608.08,4.634,4.634,0,0,1-.592.128,7.511,7.511,0,0,1-1.136.064,4.449,4.449,0,0,1-2.736-.656,1.809,1.809,0,0,1-.592-1.5,5.361,5.361,0,0,1,.16-1.056c0-.1-.08-.144-.176-.144-.08,0-.128.048-.192.16A3.584,3.584,0,0,0,88.976,10.064Zm-1.712-1.92c-.384.992-.768,2.032-1.136,2.976-.032.08-.08.112-.112.112-.048,0-.1-.032-.112-.112a5.364,5.364,0,0,1-.112-1.3,13.118,13.118,0,0,1,.8-4.128,2.492,2.492,0,0,1,.368-.7.706.706,0,0,0,.224-.528,2.049,2.049,0,0,0-.432-1.1,1.81,1.81,0,0,0-1.168-.848.129.129,0,0,0-.144.112.216.216,0,0,0,.08.16A1.629,1.629,0,0,1,86,3.92a6.812,6.812,0,0,1-.24,1.312,21.235,21.235,0,0,0-.72,4.7,8.748,8.748,0,0,0,.528,3.024c.24.576.448.752.736.752.208,0,.384-.128.384-.448,0-.224-.048-.752-.048-1.04A4.841,4.841,0,0,1,86.8,11.2c.144-.624.448-1.632.832-2.912a.7.7,0,0,0,.032-.16.2.2,0,0,0-.192-.176C87.392,7.952,87.312,8,87.264,8.144Zm23.248,3.008c-.08-1.408-.144-3.04-.144-4.768a12.472,12.472,0,0,0,2.16-.544c.32-.112.464-.272.464-.512,0-.272-.192-.448-.72-.448a1.156,1.156,0,0,0-.7.192,2.149,2.149,0,0,1-.432.208c-.224.064-.448.128-.752.192,0-.592.048-.976.08-1.456a.964.964,0,0,1,.224-.64.455.455,0,0,0,.176-.368c0-.336-.352-.544-.688-.72A2.274,2.274,0,0,0,109.12,2a1.534,1.534,0,0,0-.608.176c-.112.064-.256.176-.256.256,0,.048.032.08.112.08a1.723,1.723,0,0,1,.352.032,1.967,1.967,0,0,1,.464.128c.224.112.256.3.288.736.016.624.048,1.264.048,2.256a13.915,13.915,0,0,1-2.464.24,1.649,1.649,0,0,1-1.392-.608c-.08-.1-.144-.144-.208-.144a.174.174,0,0,0-.128.128.718.718,0,0,0,.064.272,1.735,1.735,0,0,0,1.84,1.12,18.19,18.19,0,0,0,2.288-.144c.016,1.472.048,2.912.064,4.368a7.192,7.192,0,0,0-1.5-.16c-1.44,0-2.272.736-2.272,1.616,0,.9.912,1.584,2.192,1.584,1.552,0,2.5-.656,2.5-1.824a8.132,8.132,0,0,1,1.616,1.168.91.91,0,0,0,.608.288.51.51,0,0,0,.528-.576.732.732,0,0,0-.3-.528A9.264,9.264,0,0,0,110.512,11.152Zm-.992.576a.932.932,0,0,1,0,.3,1.059,1.059,0,0,1-.368.736,2.053,2.053,0,0,1-1.328.384c-1.056,0-1.5-.384-1.5-.832,0-.672.752-.96,1.408-.96A4.472,4.472,0,0,1,109.52,11.728Zm-7.344-1.84a14.575,14.575,0,0,1,.992-4.656,1.819,1.819,0,0,1,.352-.688.682.682,0,0,0,.176-.512,1.911,1.911,0,0,0-.544-1.248,3.392,3.392,0,0,0-.816-.736A.365.365,0,0,0,102.16,2c-.1,0-.16.048-.16.128a.46.46,0,0,0,.112.24,2.05,2.05,0,0,1,.352,1.152,5.085,5.085,0,0,1-.24,1.376,23.5,23.5,0,0,0-.8,5.328,8.86,8.86,0,0,0,.592,3.536.814.814,0,0,0,.688.544.4.4,0,0,0,.416-.448,2.568,2.568,0,0,0-.048-.48,3.8,3.8,0,0,1-.048-.624,3.061,3.061,0,0,1,.128-.768c.24-.864.544-1.936.928-3.184a1.117,1.117,0,0,0,.048-.192.189.189,0,0,0-.176-.176c-.08,0-.16.064-.208.192-.384.912-.816,1.984-1.184,2.8-.064.144-.1.208-.16.208s-.112-.064-.144-.24A8.779,8.779,0,0,1,102.176,9.888ZM120.864,6.4c-.576.064-1.1.128-1.68.192a7.792,7.792,0,0,1-1.008.048,1.812,1.812,0,0,1-1.024-.48c-.112-.1-.176-.144-.24-.144s-.144.064-.144.192c0,.32.128.56.528.944a1.6,1.6,0,0,0,1.056.592.769.769,0,0,0,.464-.16,3.462,3.462,0,0,1,.9-.288c.368-.08.736-.128,1.136-.192-.016,1.024-.1,2.08-.1,2.56s.176.768.576.768c.24,0,.48-.272.48-.832,0-.608.016-1.488.032-2.624,1.1-.112,2-.192,3.04-.224a8.826,8.826,0,0,1-.976,4.16,7.832,7.832,0,0,1-3.792,3.1c-.144.064-.208.112-.208.24a.181.181,0,0,0,.192.176,1.173,1.173,0,0,0,.352-.064,7.551,7.551,0,0,0,4.24-2.96,8.636,8.636,0,0,0,1.2-4.688c.448,0,.928,0,1.456.016.368.016.768.032,1.168.08a5.866,5.866,0,0,0,.96.1c.256,0,.416-.128.416-.32a.585.585,0,0,0-.3-.56,2.876,2.876,0,0,0-1.28-.384.852.852,0,0,0-.5.128,1.281,1.281,0,0,1-.576.144c-.56.032-.96.048-1.328.064.016-.8.048-1.5.064-2.144a.9.9,0,0,1,.144-.56.653.653,0,0,0,.176-.368c0-.272-.192-.5-.736-.7a3.434,3.434,0,0,0-1.056-.256.926.926,0,0,0-.528.128c-.112.08-.224.176-.224.24s.048.128.176.144a2.18,2.18,0,0,1,.512.128.618.618,0,0,1,.368.288,3.082,3.082,0,0,1,.112,1.232c0,.624,0,1.248-.016,1.936-1.1.064-1.936.144-3.056.256,0-.432,0-.816.016-1.136A1.591,1.591,0,0,1,122,4.544a.559.559,0,0,0,.128-.352c0-.24-.128-.416-.512-.608a2.934,2.934,0,0,0-1.2-.368.969.969,0,0,0-.512.128c-.1.048-.192.128-.192.192,0,.08.064.112.192.144a2.267,2.267,0,0,1,.784.352c.144.128.176.3.176.7Zm14.752,2.592a3.35,3.35,0,0,1,1.1-.24c2.1-.176,4.928-.272,6.352-.272.784,0,1.648.064,2.256.064.352,0,.56-.16.56-.48,0-.288-.1-.464-.848-.752a2.124,2.124,0,0,0-.656-.144,1.192,1.192,0,0,0-.5.112,2.088,2.088,0,0,1-.976.192c-1.36.048-3.52.128-5.7.256-1.088.064-1.7.1-2.032.1-.368,0-.592-.112-1.152-.656-.112-.112-.176-.192-.256-.192-.112,0-.144.192-.144.4a1.63,1.63,0,0,0,.368.832c.416.576.8.928,1.12.928A.831.831,0,0,0,135.616,8.992Zm18.048-.384a23.791,23.791,0,0,0,2.88-.672c.768-.24,1.552-.544,2.352-.864a2.964,2.964,0,0,1,.544-.176c.352-.064.432-.208.432-.384.016-.256-.224-.56-.624-.9a1.894,1.894,0,0,0-1.088-.528c-.256,0-.4.1-.4.16s.08.128.192.224c.192.16.352.352.352.432,0,.128-.048.176-.192.272a14.645,14.645,0,0,1-1.92.992,17.948,17.948,0,0,1-2.528.912c.016-.912.064-1.744.1-2.24.048-.5.08-.608.24-.768a.6.6,0,0,0,.208-.448c0-.272-.224-.56-.752-.864a2.429,2.429,0,0,0-1.12-.416c-.224,0-.688.192-.688.3,0,.08.064.128.16.16a1.823,1.823,0,0,1,.576.256c.256.144.3.384.3.816,0,1.808-.032,3.6-.032,5.408a5.173,5.173,0,0,0,.128,1.328,1.738,1.738,0,0,0,.512.816c.4.368,1.152.576,2.7.576.832.016,1.744-.032,2.576-.1a9.1,9.1,0,0,0,1.312-.16c.3-.08.528-.24.528-.5,0-.432-.352-.688-1.04-.688a3.293,3.293,0,0,0-.848.16,15.127,15.127,0,0,1-3.1.288A3.182,3.182,0,0,1,154,11.824a.675.675,0,0,1-.336-.512,10.438,10.438,0,0,1-.048-1.056C153.616,9.744,153.648,9.168,153.664,8.608Zm5.744-5.5a.165.165,0,0,0-.176.16.248.248,0,0,0,.112.16,5.536,5.536,0,0,1,1.344,1.536q.216.432.528.432a.445.445,0,0,0,.448-.48c0-.336-.224-.624-.608-.96a3.6,3.6,0,0,0-1.392-.8A.91.91,0,0,0,159.408,3.1Zm1.3-1.088a.16.16,0,0,0-.16.16.193.193,0,0,0,.112.16,4.879,4.879,0,0,1,1.472,1.5c.176.3.3.384.512.384a.454.454,0,0,0,.432-.512c0-.368-.352-.736-.736-1.008a3.779,3.779,0,0,0-1.28-.624A2.089,2.089,0,0,0,160.7,2.016Zm12.88,6.336a26.031,26.031,0,0,0,2.048-2.784,1.434,1.434,0,0,1,.672-.592c.32-.128.4-.192.4-.352,0-.192-.128-.368-.56-.768-.336-.3-.512-.384-.752-.384a.511.511,0,0,0-.384.176.863.863,0,0,1-.544.24c-1.168.16-2.5.288-3.744.416-.464.048-1.008.1-1.264.1-.352,0-.64-.208-1.056-.608-.1-.1-.208-.192-.272-.192-.08,0-.16.176-.16.336a1.576,1.576,0,0,0,.432.912,1.528,1.528,0,0,0,.992.736.8.8,0,0,0,.464-.16,2.088,2.088,0,0,1,.656-.208,40.631,40.631,0,0,1,4.176-.608c.1,0,.128,0,.128.032s-.016.064-.064.144a20.045,20.045,0,0,1-3.024,4.064,20.142,20.142,0,0,1-5.184,3.92.278.278,0,0,0-.16.224.2.2,0,0,0,.176.192,1.325,1.325,0,0,0,.432-.112,15.1,15.1,0,0,0,3.12-1.632,16.454,16.454,0,0,0,3.12-2.7,11.653,11.653,0,0,1,3.792,3.552c.256.352.464.5.688.5a.618.618,0,0,0,.656-.672,2.672,2.672,0,0,0-.992-1.5A12.285,12.285,0,0,0,173.584,8.352Zm16.8-3.84A6.851,6.851,0,0,0,188.16,6.8a5.107,5.107,0,0,0-.72,2.736,3.86,3.86,0,0,0,1.712,3.168,7.123,7.123,0,0,0,3.744,1.184c.672,0,.848-.192.848-.464a.728.728,0,0,0-.432-.688,2.132,2.132,0,0,0-1.1-.272,5.448,5.448,0,0,1-2.928-.976,3.016,3.016,0,0,1-1.1-2.4,4.612,4.612,0,0,1,1.264-3.1,5.145,5.145,0,0,1,2.3-1.488,10.279,10.279,0,0,1,2.816-.352c.4-.016.576-.16.56-.5,0-.24-.208-.4-.432-.5a2.58,2.58,0,0,0-1.04-.272,1.092,1.092,0,0,0-.544.16,1.916,1.916,0,0,1-.624.24c-2.352.608-4.752,1.232-7.072,1.824a5.691,5.691,0,0,1-.96.176,1.418,1.418,0,0,1-1.2-.56.327.327,0,0,0-.208-.128c-.08,0-.144.176-.144.4a1.712,1.712,0,0,0,.48.9c.416.48.8.688,1.072.672a.592.592,0,0,0,.432-.16,2.216,2.216,0,0,1,.688-.368c1.232-.432,3.04-1.04,4.8-1.584Zm2.384,2.016a.165.165,0,0,0-.176.16.248.248,0,0,0,.112.16,5.537,5.537,0,0,1,1.344,1.536q.216.432.528.432a.445.445,0,0,0,.448-.48c0-.336-.224-.624-.608-.96a3.6,3.6,0,0,0-1.392-.8A.91.91,0,0,0,192.768,6.528Zm1.3-1.088a.16.16,0,0,0-.16.16.193.193,0,0,0,.112.16,4.879,4.879,0,0,1,1.472,1.5c.176.3.3.384.512.384a.454.454,0,0,0,.432-.512c0-.368-.352-.736-.736-1.008a3.778,3.778,0,0,0-1.28-.624A2.089,2.089,0,0,0,194.064,5.44Zm7.872,2.512c.4-.16.48-.256.48-.384,0-.144-.112-.224-.656-.32a19.237,19.237,0,0,0,1.472-1.824c.528,0,.7-.08.7-.288,0-.16-.24-.3-1.552-.928a9.2,9.2,0,0,1-.752,1.584,15.717,15.717,0,0,1-3.12,3.664c-.08.08.064.256.16.208a12.549,12.549,0,0,0,2.144-1.52c0,.672-.016,1.344-.016,2-.048,3.184-.1,4.336-.1,4.656,0,.352.208.5.544.5.464,0,.7-.192.7-.56,0-.464-.016-1.984-.016-4.992Zm7.9-1.632h3.12c.144,0,.208-.048.208-.144s-.08-.208-.416-.5c-.72-.592-.848-.672-.944-.672s-.224.08-.928.912h-5.936a6.006,6.006,0,0,1-1.248-.128l.16.624a6.837,6.837,0,0,1,1.088-.1h3.68v7.088c0,.256-.08.336-.32.336-.464,0-1.232-.048-2.208-.128-.112-.016-.128.224-.016.24,1.536.3,1.856.5,1.936.976.048.288.08.3.32.3a1.819,1.819,0,0,0,1.072-.336,1.248,1.248,0,0,0,.5-1.024c0-.864-.064-1.712-.064-3.632Zm-5.28-3.76a6.313,6.313,0,0,1,1.056-.1h6.512c.176,0,.224-.048.224-.16s-.064-.192-.4-.464c-.736-.592-.848-.672-.96-.672-.1,0-.208.08-.928.9h-4.448a7.037,7.037,0,0,1-1.232-.112Zm-5.84,2.9a11.964,11.964,0,0,0,4.288-3.664c.608.016.736-.064.736-.224,0-.176-.416-.464-1.568-1.008a6.3,6.3,0,0,1-.816,1.6,14.121,14.121,0,0,1-2.784,3.088C198.5,5.312,198.624,5.5,198.72,5.456Zm24.992,1.168a6.39,6.39,0,0,0-2.592.656c-.848.368-1.712.832-2.592,1.264a1.212,1.212,0,0,1-.528.128c-.208,0-.4-.176-.688-.432-.1-.1-.16-.16-.224-.16-.08,0-.144.1-.144.32a1.392,1.392,0,0,0,.4.848,1.738,1.738,0,0,0,1.1.7.549.549,0,0,0,.448-.24,3.5,3.5,0,0,1,.688-.64,21.043,21.043,0,0,1,1.968-1.264,4.662,4.662,0,0,1,2.128-.592,2.065,2.065,0,0,1,2.288,2.144A2.975,2.975,0,0,1,224.24,11.9a11.146,11.146,0,0,1-3.664,1.248.282.282,0,0,0-.256.272c0,.1.1.192.272.192a3.758,3.758,0,0,0,.416-.016,11.363,11.363,0,0,0,4.256-1.216,3.232,3.232,0,0,0,1.888-2.832C227.152,7.712,225.632,6.624,223.712,6.624ZM239.04,4.416A6.851,6.851,0,0,0,236.816,6.7a5.107,5.107,0,0,0-.72,2.736,3.86,3.86,0,0,0,1.712,3.168,7.123,7.123,0,0,0,3.744,1.184c.672,0,.848-.192.848-.464a.728.728,0,0,0-.432-.688,2.132,2.132,0,0,0-1.1-.272,5.448,5.448,0,0,1-2.928-.976,3.016,3.016,0,0,1-1.1-2.4,4.612,4.612,0,0,1,1.264-3.1A5.145,5.145,0,0,1,240.4,4.4a10.279,10.279,0,0,1,2.816-.352c.4-.016.576-.16.56-.5,0-.24-.208-.4-.432-.5a2.58,2.58,0,0,0-1.04-.272,1.092,1.092,0,0,0-.544.16,1.916,1.916,0,0,1-.624.24c-2.352.608-4.752,1.232-7.072,1.824a5.691,5.691,0,0,1-.96.176,1.418,1.418,0,0,1-1.2-.56A.327.327,0,0,0,231.7,4.5c-.08,0-.144.176-.144.4a1.712,1.712,0,0,0,.48.9c.416.48.8.688,1.072.672a.592.592,0,0,0,.432-.16,2.216,2.216,0,0,1,.688-.368c1.232-.432,3.04-1.04,4.8-1.584Zm19.648.368a2.742,2.742,0,0,0-1.616.528.255.255,0,0,0-.128.224.16.16,0,0,0,.16.16.685.685,0,0,0,.208-.08,2.305,2.305,0,0,1,.96-.256,2.013,2.013,0,0,1,1.5.7.292.292,0,0,1,.08.176.205.205,0,0,1-.064.16,9.347,9.347,0,0,1-1.024.8c-.1.064-.128.112-.128.176a.138.138,0,0,0,.128.128.7.7,0,0,0,.16-.032c.256-.08.48-.176.8-.288a1.939,1.939,0,0,1,.464-.112.573.573,0,0,1,.368.128.489.489,0,0,0,.32.112.462.462,0,0,0,.48-.48,1.7,1.7,0,0,0-.768-1.328A3.363,3.363,0,0,0,258.688,4.784Zm-6.48.624a8.394,8.394,0,0,1-1.872.272,1.462,1.462,0,0,1-1.152-.624.275.275,0,0,0-.208-.128.158.158,0,0,0-.144.16,1.356,1.356,0,0,0,.24.592,1.627,1.627,0,0,0,1.376.784,9.039,9.039,0,0,0,1.76-.208c-.016,1.008-.048,1.984-.048,3.2-.976.592-1.824,1.168-2.928,1.792a1.144,1.144,0,0,1-.512.176.373.373,0,0,1-.24-.112.956.956,0,0,1-.24-.336.231.231,0,0,0-.16-.112c-.1,0-.144.16-.144.368a1.418,1.418,0,0,0,.608,1.1,1.136,1.136,0,0,0,.656.32.368.368,0,0,0,.352-.224,1.81,1.81,0,0,1,.512-.528,18.668,18.668,0,0,1,1.456,1.184,1.177,1.177,0,0,1,.416.56c.08.32.208.416.432.416.256,0,.432-.192.624-.768a2.232,2.232,0,0,0,.112-.7c0-.08-.016-.416-.032-.608-.032-.56-.064-1.36-.08-2.16.4-.24.832-.48,1.248-.72a5.035,5.035,0,0,1,2.256-.736,2.139,2.139,0,0,1,1.456.432,1.651,1.651,0,0,1,.608,1.28,1.691,1.691,0,0,1-.544,1.392A2.212,2.212,0,0,1,256.48,12a3.291,3.291,0,0,1-2.256-.9.244.244,0,0,0-.192-.1.137.137,0,0,0-.128.128.491.491,0,0,0,.064.24,3.367,3.367,0,0,0,2.944,1.424,3.021,3.021,0,0,0,1.936-.624,2.271,2.271,0,0,0,.88-1.792,2.312,2.312,0,0,0-.944-1.84,3.39,3.39,0,0,0-2.128-.688,7.283,7.283,0,0,0-3.68,1.168c-.016-1.008.016-2.016.048-2.976a13.36,13.36,0,0,0,2.528-.912.469.469,0,0,0,.3-.432c0-.272-.272-.464-.624-.464a1.371,1.371,0,0,0-.928.3,4.617,4.617,0,0,1-1.264.608,6.564,6.564,0,0,1,.112-1.216.859.859,0,0,1,.3-.48.383.383,0,0,0,.16-.336c0-.24-.256-.512-.656-.752a2.1,2.1,0,0,0-1.04-.352,1.135,1.135,0,0,0-.688.208c-.128.1-.16.16-.16.224,0,.048.08.08.208.1a2.349,2.349,0,0,1,.464.08.543.543,0,0,1,.368.288,2.8,2.8,0,0,1,.1,1.088ZM252.16,12.1c0,.24-.032.3-.16.3a1.54,1.54,0,0,1-.5-.16,7.283,7.283,0,0,1-1.1-.608c.512-.4,1.152-.912,1.76-1.36Zm16.48-3.712c-.032-.432-.048-.736-.048-.88a11.013,11.013,0,0,1,.592-3.424,1.231,1.231,0,0,1,.24-.464.753.753,0,0,0,.16-.448,1.928,1.928,0,0,0-.368-1.04,1.772,1.772,0,0,0-1.024-.88c-.112,0-.288.048-.288.128,0,.064.064.1.112.16a1.877,1.877,0,0,1,.432,1.1,7.161,7.161,0,0,1-.176,1.312,19.3,19.3,0,0,0-.464,3.552,7.268,7.268,0,0,0,.224,1.92c.176.672.512,1.1.9,1.1.256,0,.448-.16.448-.528,0-.112-.016-.256-.032-.416a2.408,2.408,0,0,1-.048-.464,6.889,6.889,0,0,1,.288-1.584,12.2,12.2,0,0,1,1.328-3.472c.272-.352.544-.592.848-.592.4,0,.656.288.944,1.04a8.238,8.238,0,0,1,.32,2.72,7.153,7.153,0,0,1-1.232,4.384,7.593,7.593,0,0,1-3.328,2.656c-.16.064-.208.144-.208.208,0,.112.064.16.192.16a1.544,1.544,0,0,0,.384-.064,7.567,7.567,0,0,0,3.872-2.544,7.1,7.1,0,0,0,1.472-4.768,7.358,7.358,0,0,0-.688-3.152A1.934,1.934,0,0,0,271.9,2.9a1.537,1.537,0,0,0-1.216.688,10.91,10.91,0,0,0-1.248,2.528c-.224.672-.464,1.3-.7,2.272Zm19.5,4.048a10.916,10.916,0,0,1,3.056,1.84.818.818,0,0,0,.56.208.563.563,0,0,0,.5-.608.935.935,0,0,0-.528-.784,12.561,12.561,0,0,0-3.664-1.584c-.048-.88-.112-2.048-.128-2.96a13.191,13.191,0,0,0,2.816-.688c.368-.144.544-.3.544-.544,0-.256-.272-.416-.752-.416a1.173,1.173,0,0,0-.688.192,1.879,1.879,0,0,1-.512.288,9.164,9.164,0,0,1-1.424.32c0-.864,0-1.616.016-2.448a33.182,33.182,0,0,0,3.344-.608c.7-.16.88-.288.88-.576,0-.368-.592-.544-.992-.544a1.291,1.291,0,0,0-.72.176,2.751,2.751,0,0,1-.768.3,16.679,16.679,0,0,1-1.744.368c0-.3.016-.624.064-1.136a.736.736,0,0,1,.256-.544.473.473,0,0,0,.192-.384c0-.176-.16-.464-.64-.736a2.241,2.241,0,0,0-1.072-.352,1.125,1.125,0,0,0-.592.176c-.144.1-.224.16-.224.256a.114.114,0,0,0,.112.128,3.48,3.48,0,0,1,.4.016.758.758,0,0,1,.432.192c.128.128.144.288.16.672.016.5.016,1.3.016,1.856a24.829,24.829,0,0,1-3.1.288,2.88,2.88,0,0,1-1.856-.544.277.277,0,0,0-.192-.08.137.137,0,0,0-.128.112.387.387,0,0,0,.064.208,2.369,2.369,0,0,0,2.224,1.088,23.6,23.6,0,0,0,3.024-.208c.016.864.032,1.584.032,2.448-.512.048-1.184.08-1.7.08-.976,0-1.28-.192-1.28-.592a.986.986,0,0,1,.08-.432.61.61,0,0,0,.064-.208c0-.064-.08-.112-.144-.112-.08,0-.16.064-.24.176a1.426,1.426,0,0,0-.272.864c0,.688.592,1.1,2.1,1.1.432,0,1.04-.016,1.408-.048.016.8.016,1.76.032,2.672a12.657,12.657,0,0,0-1.632-.112c-1.152,0-2.592.432-2.592,1.648,0,1.152,1.328,1.68,2.672,1.68a2.846,2.846,0,0,0,1.92-.512,1.735,1.735,0,0,0,.624-1.456Zm-.992-.272a1.483,1.483,0,0,1-.352,1.168,1.988,1.988,0,0,1-1.44.4c-.928,0-1.872-.24-1.872-.928s.928-.928,1.68-.928A7.917,7.917,0,0,1,287.152,12.16Zm17.984-7.744c.016-.5.032-.88.048-1.184a.7.7,0,0,1,.176-.464.622.622,0,0,0,.208-.448c0-.192-.128-.336-.448-.576a2.037,2.037,0,0,0-1.168-.48,1.375,1.375,0,0,0-.8.32c-.112.1-.144.144-.144.24,0,.064.064.1.16.1a4.4,4.4,0,0,1,.464.048.5.5,0,0,1,.448.256,2.218,2.218,0,0,1,.1.7c.016.56.016.976.016,1.568-1.472.176-3.088.416-4.624.672a5.859,5.859,0,0,1-1.024.128c-.464,0-.7-.128-1.2-.608a.173.173,0,0,0-.112-.048c-.08,0-.128.112-.128.3a1.65,1.65,0,0,0,.656,1.04,1.456,1.456,0,0,0,.944.464.812.812,0,0,0,.464-.16,3.461,3.461,0,0,1,1.088-.384,31.862,31.862,0,0,1,3.952-.7c.016.688.032,1.328.032,2.016a1.91,1.91,0,0,0-1.024-.256,1.882,1.882,0,0,0-1.808,1.952,1.73,1.73,0,0,0,1.744,1.968,1.644,1.644,0,0,0,1.1-.368,4.337,4.337,0,0,1-1.52,2.336,8.752,8.752,0,0,1-2.56,1.488c-.16.064-.208.144-.208.224,0,.1.08.176.224.176a1.988,1.988,0,0,0,.5-.1,8.971,8.971,0,0,0,2.736-1.28,4.463,4.463,0,0,0,1.92-3.584,4.788,4.788,0,0,0-.272-1.76c0-.912.016-1.744.032-2.912.88-.064,1.648-.064,2.5-.064a10.89,10.89,0,0,1,1.936.176,5.209,5.209,0,0,0,.848.144.38.38,0,0,0,.368-.4.687.687,0,0,0-.4-.592,2.888,2.888,0,0,0-1.248-.416,1.135,1.135,0,0,0-.5.112,1.984,1.984,0,0,1-.816.16C306.992,4.272,306.112,4.32,305.136,4.416ZM303.168,7.44c.752,0,1.1.608,1.152,1.312-.016.768-.432,1.232-1.1,1.232A1.084,1.084,0,0,1,302.1,8.8C302.1,7.888,302.608,7.44,303.168,7.44Zm16.784-3.776a6.965,6.965,0,0,1,.848-.032,4.634,4.634,0,0,1,2.976,1.04,4.037,4.037,0,0,1,1.344,3.056,4.52,4.52,0,0,1-1.44,3.312,8.893,8.893,0,0,1-4.352,2.032c-.208.048-.288.1-.288.224a.226.226,0,0,0,.224.192,9.549,9.549,0,0,0,5.328-1.792,4.524,4.524,0,0,0,1.728-3.744,4.568,4.568,0,0,0-1.776-3.632,5.885,5.885,0,0,0-3.712-1.232,6.838,6.838,0,0,0-5.12,2.1,5.822,5.822,0,0,0-1.5,3.776,3.514,3.514,0,0,0,.736,2.368,1.476,1.476,0,0,0,1.2.64,2.142,2.142,0,0,0,1.616-1.04,16.111,16.111,0,0,0,2.288-4.144,6.391,6.391,0,0,0,.416-1.872A1.87,1.87,0,0,0,319.952,3.664Zm-.432.048a.992.992,0,0,1,.256.736,3.5,3.5,0,0,1-.224,1.264,17,17,0,0,1-2.288,4.16c-.464.624-.784.912-1.12.912a.9.9,0,0,1-.752-.544,2.762,2.762,0,0,1-.352-1.488A4.987,4.987,0,0,1,316.432,5.3,5.646,5.646,0,0,1,319.52,3.712Zm18.384.8A6.851,6.851,0,0,0,335.68,6.8a5.107,5.107,0,0,0-.72,2.736,3.86,3.86,0,0,0,1.712,3.168,7.123,7.123,0,0,0,3.744,1.184c.672,0,.848-.192.848-.464a.728.728,0,0,0-.432-.688,2.132,2.132,0,0,0-1.1-.272,5.448,5.448,0,0,1-2.928-.976,3.016,3.016,0,0,1-1.1-2.4,4.612,4.612,0,0,1,1.264-3.1,5.145,5.145,0,0,1,2.3-1.488,10.279,10.279,0,0,1,2.816-.352c.4-.016.576-.16.56-.5,0-.24-.208-.4-.432-.5a2.58,2.58,0,0,0-1.04-.272,1.092,1.092,0,0,0-.544.16,1.916,1.916,0,0,1-.624.24c-2.352.608-4.752,1.232-7.072,1.824a5.691,5.691,0,0,1-.96.176,1.418,1.418,0,0,1-1.2-.56.327.327,0,0,0-.208-.128c-.08,0-.144.176-.144.4a1.712,1.712,0,0,0,.48.9c.416.48.8.688,1.072.672a.592.592,0,0,0,.432-.16,2.216,2.216,0,0,1,.688-.368c1.232-.432,3.04-1.04,4.8-1.584Zm2.384,2.016a.165.165,0,0,0-.176.16.248.248,0,0,0,.112.16,5.537,5.537,0,0,1,1.344,1.536q.216.432.528.432a.445.445,0,0,0,.448-.48c0-.336-.224-.624-.608-.96a3.6,3.6,0,0,0-1.392-.8A.91.91,0,0,0,340.288,6.528Zm1.3-1.088a.16.16,0,0,0-.16.16.193.193,0,0,0,.112.16,4.879,4.879,0,0,1,1.472,1.5c.176.3.3.384.512.384a.454.454,0,0,0,.432-.512c0-.368-.352-.736-.736-1.008a3.779,3.779,0,0,0-1.28-.624A2.089,2.089,0,0,0,341.584,5.44Zm4.816,5.792a.156.156,0,0,0-.176.16.215.215,0,0,0,.08.192,5.367,5.367,0,0,1,2.368,2.848c.176.384.352.688.784.688a.829.829,0,0,0,.832-.88,2.331,2.331,0,0,0-1.04-1.792A6.247,6.247,0,0,0,346.4,11.232Zm16.288-7.968a6.871,6.871,0,0,1,1.248-.1h5.456c-.1.656-.208,1.28-.336,1.856h-.864a5.748,5.748,0,0,0-1.28-.56c.064.768.08,1.5.08,2.992,0,3.424-.08,4.464-.08,5.04,0,.272.128.4.464.4.5,0,.72-.144.72-.48V12h5.136v.32c0,.288.144.4.5.4.448,0,.688-.144.688-.5,0-.448-.08-1.6-.08-4.56V5.792c.352-.224.464-.336.464-.464,0-.1-.064-.208-.32-.384-.5-.4-.592-.448-.7-.448-.1,0-.176.048-.64.528h-3.184c.224-.624.416-1.2.592-1.856h6.24c.16,0,.208-.064.208-.16s-.08-.192-.432-.464c-.768-.624-.9-.7-.992-.7s-.224.08-.944.928H370.64c.112-.384.208-.8.32-1.28.48-.1.576-.192.576-.368,0-.16-.272-.288-1.856-.544a11.222,11.222,0,0,1-.1,1.232l-.128.96H363.9a8.524,8.524,0,0,1-1.376-.112ZM368.1,11.6V9.728h5.136V11.6Zm5.136-6.176V7.2H368.1V5.424Zm0,2.176V9.328H368.1V7.6Zm-8.368-1.824c.464-.192.544-.3.544-.432,0-.224-.16-.272-1.808-.464a31.054,31.054,0,0,1,.1,3.536c0,4.48-.08,6-.08,6.512,0,.32.144.448.5.448.512,0,.752-.16.752-.528v-.576h12.208c.16,0,.208-.048.208-.16,0-.1-.08-.192-.432-.48-.768-.608-.9-.688-.992-.688s-.224.08-.976.928H364.864Zm28.448,3.856c.16,0,.208-.064.208-.16s-.064-.208-.352-.464c-.656-.544-.768-.608-.88-.608-.1,0-.208.064-.816.832H387.3c.176-.3.336-.624.512-.96.48-.064.576-.16.576-.3,0-.16-.352-.32-1.456-.608a8.1,8.1,0,0,1-.48,1.216c-.1.208-.224.432-.352.656h-1.744A6.082,6.082,0,0,1,383.2,9.12l.16.608a4.6,4.6,0,0,1,.992-.1h1.52a16.684,16.684,0,0,1-1.488,2.224c-.144.176-.208.288-.208.368,0,.144.352.288.72.288a.584.584,0,0,0,.48-.192l.48-.672c.688.256,1.344.544,2,.864a10.418,10.418,0,0,1-5.024,2.432c-.112.032-.048.256.064.24a10.115,10.115,0,0,0,5.872-2.192,13.258,13.258,0,0,1,2.3,1.712c.384.368.56.48.752.48a.565.565,0,0,0,.528-.608c0-.736-1.072-1.536-2.944-2.224a8.786,8.786,0,0,0,1.584-2.72Zm-3.6,0A7.607,7.607,0,0,1,388.352,12a23.774,23.774,0,0,0-2.336-.592c.384-.576.736-1.168,1.072-1.776Zm-1.12-6.72V1.456c.4-.16.512-.272.512-.4,0-.16-.176-.272-1.712-.432a8.086,8.086,0,0,1,.08,1.2V2.912H385.2a6.948,6.948,0,0,1-1.248-.112l.16.608a5.72,5.72,0,0,1,1.1-.1h7.68c.16,0,.224-.048.224-.16,0-.1-.08-.208-.352-.448-.64-.528-.752-.592-.864-.592-.1,0-.208.064-.816.8Zm-6.544,5.744q.84-.408,1.68-.912c.064-.048.016-.224-.064-.192-.544.176-1.088.336-1.616.464V4.56H384.1c.16,0,.208-.064.208-.16s-.08-.224-.288-.416c-.528-.464-.64-.544-.752-.544-.1,0-.208.08-.72.72h-.5V1.488c.432-.176.528-.288.528-.416,0-.192-.16-.256-1.744-.448a21.37,21.37,0,0,1,.1,3.056v.48h-.992a4.8,4.8,0,0,1-1.04-.112l.16.608a3.8,3.8,0,0,1,.9-.1h.976V8.288c-.416.1-.832.16-1.216.224-.32.048-.592.08-.9.112.448,1.44.528,1.552.688,1.552s.24-.128.3-.56c.384-.144.752-.288,1.12-.448V13.7c0,.192-.064.256-.272.256-.256,0-.72-.016-1.488-.064-.08,0-.08.192,0,.208,1.1.256,1.264.416,1.328.928.032.208.08.272.256.272a1.35,1.35,0,0,0,.928-.352,1.231,1.231,0,0,0,.4-1.008c0-.608-.032-1.216-.032-4.864Zm7.136-1.984A16.1,16.1,0,0,0,390.8,4.64c.48-.016.592-.1.592-.24,0-.16-.176-.272-1.568-.752a5.9,5.9,0,0,1-.288,1.168,16.2,16.2,0,0,1-.8,1.856H384.56A5.971,5.971,0,0,1,383.3,6.56l.16.624a6.206,6.206,0,0,1,1.152-.112h8.832c.16,0,.224-.048.224-.144s-.08-.208-.368-.464c-.656-.512-.784-.576-.88-.576-.112,0-.224.064-.816.784ZM386.448,6.3a.716.716,0,0,0,.656-.784c0-.672-.64-1.36-1.728-1.824-.064-.032-.16.048-.128.1a5.121,5.121,0,0,1,.7,1.84C386.032,6.128,386.16,6.3,386.448,6.3Zm16.144,4.736h4.736v.736c0,.288.144.416.5.416.464,0,.72-.176.72-.512,0-.592-.08-2.48-.08-6.544V2.72c.368-.224.448-.32.448-.48,0-.112-.048-.208-.3-.4-.528-.448-.624-.512-.736-.512-.1,0-.176.064-.688.624h-4.448a9.037,9.037,0,0,0-1.36-.688c.08,1.28.1,2,.1,4.448,0,4.32-.08,5.6-.08,6.112,0,.288.16.416.5.416.448,0,.7-.16.7-.5Zm0-4.432h4.736V10.64h-4.736Zm4.736-.4h-4.736V2.352h4.736Zm-8.48,2.416c.592-.32,1.232-.7,1.968-1.2.1-.064,0-.272-.1-.224-.672.272-1.28.512-1.872.7V4.768h1.936c.16,0,.208-.048.208-.16,0-.1-.08-.208-.272-.384-.528-.5-.64-.576-.736-.576s-.224.08-.736.72h-.4V1.552c.416-.16.528-.272.528-.416,0-.24-.32-.336-1.76-.5a21.662,21.662,0,0,1,.1,3.072v.656h-1.1a5.089,5.089,0,0,1-1.072-.112l.16.608a4.017,4.017,0,0,1,.912-.1h1.1v3.5c-.384.112-.768.208-1.136.3a8.684,8.684,0,0,1-1.088.208c.464,1.376.56,1.52.72,1.52.144,0,.224-.144.288-.576.432-.192.832-.352,1.216-.544v4.5c0,.192-.064.256-.256.256-.416,0-.9-.032-1.728-.08-.08,0-.08.192,0,.208,1.2.256,1.392.416,1.44.88.032.208.1.3.224.3a1.762,1.762,0,0,0,.976-.272,1.164,1.164,0,0,0,.512-1.056c0-.592-.032-1.232-.032-4.96Zm.976,5.712a5.779,5.779,0,0,1,1.008-.1h9.152c.16,0,.208-.048.208-.144s-.08-.208-.416-.48c-.752-.64-.88-.7-.976-.7s-.224.064-.944.928h-7.024a5.136,5.136,0,0,1-1.168-.112Zm19.648-7.088V1.7c.432-.176.56-.288.56-.416,0-.176-.192-.3-1.824-.464a16.189,16.189,0,0,1,.08,1.92V7.248H414.56a7.345,7.345,0,0,1-1.408-.112l.176.64a5.651,5.651,0,0,1,1.264-.128h8.784V10.4H414.9a6.657,6.657,0,0,1-1.328-.112l.192.624a5.623,5.623,0,0,1,1.152-.112h8.464v3.056h-9.12a7.83,7.83,0,0,1-1.328-.112l.16.624a5.825,5.825,0,0,1,1.184-.112h9.1v.464c0,.3.16.432.5.432.512,0,.752-.176.752-.528,0-.464-.08-1.936-.08-4.928V7.984c.416-.272.448-.336.448-.432s-.048-.208-.3-.4c-.528-.448-.64-.512-.736-.512s-.192.064-.7.608ZM415.632,6.1c.4,0,.672-.368.672-.9,0-.928-1.04-2.272-2.656-3.184-.048-.032-.144.08-.112.128A8.045,8.045,0,0,1,415.008,5.3C415.12,5.92,415.264,6.1,415.632,6.1Zm5.648.592a15.644,15.644,0,0,0,3.056-3.632c.56-.08.608-.144.608-.32,0-.192-.352-.4-1.632-.928a7.22,7.22,0,0,1-.4,1.328A17.746,17.746,0,0,1,421.1,6.544C421.056,6.624,421.2,6.752,421.28,6.688Zm19.984,2.56c-.88-.4-1.936-.9-3.088-1.552-1.216-.688-2.448-1.456-3.408-2.032a1.734,1.734,0,0,0-.96-.352,1.389,1.389,0,0,0-.768.32Q431.6,6.76,430.592,7.5a.785.785,0,0,1-.448.192,1.328,1.328,0,0,1-.784-.448.287.287,0,0,0-.16-.1c-.064,0-.144.1-.144.352a1.38,1.38,0,0,0,.512.816,2.091,2.091,0,0,0,1.168.72c.24,0,.368-.112.5-.352a6.133,6.133,0,0,1,.384-.5A22.353,22.353,0,0,1,433.28,6.48a1.008,1.008,0,0,1,.56-.32,2.818,2.818,0,0,1,1.04.544c.736.528,1.68,1.168,2.624,1.792,1.12.768,2.16,1.456,3.088,2a1.86,1.86,0,0,0,.992.368c.432,0,.7-.208.7-.608a.669.669,0,0,0-.24-.576A4.3,4.3,0,0,0,441.264,9.248Zm11.808-2.4a34.093,34.093,0,0,0,3.728-2.24,1.912,1.912,0,0,1,.9-.352c.3-.048.464-.144.464-.368,0-.3-.256-.576-.624-.9-.416-.368-.688-.528-.928-.528a.753.753,0,0,0-.416.176,1.772,1.772,0,0,1-.736.144c-2.032.176-4.08.352-6.112.544a13.671,13.671,0,0,1-1.616.1,1.287,1.287,0,0,1-1.04-.544c-.08-.1-.16-.176-.256-.176-.064,0-.112.176-.112.368a1.375,1.375,0,0,0,.416.864,1.8,1.8,0,0,0,1.088.736.772.772,0,0,0,.48-.176,4.917,4.917,0,0,1,1.3-.32c1.008-.176,2.16-.336,3.264-.448,1.264-.144,2.72-.24,3.184-.272.128,0,.192.016.192.064a.206.206,0,0,1-.08.176,18.826,18.826,0,0,1-3.008,2.528,2.457,2.457,0,0,1,.08-.48,1.024,1.024,0,0,0,.08-.272c0-.208-.1-.336-.336-.432a3.377,3.377,0,0,0-1.248-.208,1.073,1.073,0,0,0-.56.128c-.144.1-.256.224-.256.3,0,.1.064.1.16.1a1.319,1.319,0,0,1,.752.208.979.979,0,0,1,.128.624,10.6,10.6,0,0,1-.8,3.776,9.428,9.428,0,0,1-3.056,3.984c-.16.128-.224.208-.224.3a.189.189,0,0,0,.176.176,1.107,1.107,0,0,0,.48-.176,8.489,8.489,0,0,0,3.52-3.824A11.221,11.221,0,0,0,453.072,6.848Zm14.72-.032A12.576,12.576,0,0,0,465.2,5.632a2.109,2.109,0,0,0-.4-.08c-.144,0-.256.08-.256.208,0,.1.032.16.16.224a14.257,14.257,0,0,1,2.592,1.68,22.059,22.059,0,0,1-2.656,3.312,19.882,19.882,0,0,1-3.3,2.688c-.144.1-.192.176-.192.272a.209.209,0,0,0,.192.208,1.236,1.236,0,0,0,.448-.16,15.27,15.27,0,0,0,3.28-2.176,18.354,18.354,0,0,0,3.04-3.408,9.083,9.083,0,0,1,1.312,1.6c.224.336.416.464.64.464a.569.569,0,0,0,.56-.608A1.784,1.784,0,0,0,470.1,8.72a8.845,8.845,0,0,0-1.376-1.3c.624-1.072,1.04-1.888,1.5-2.864a1.331,1.331,0,0,1,.48-.656.558.558,0,0,0,.336-.48c0-.368-.352-.672-.768-.944a2.616,2.616,0,0,0-1.36-.56c-.24,0-.624.112-.64.208a.133.133,0,0,0,.1.176,2.891,2.891,0,0,1,.624.352.653.653,0,0,1,.32.512,2.66,2.66,0,0,1-.192.864A25.308,25.308,0,0,1,467.792,6.816Zm17.2.848a1.056,1.056,0,0,1,.048-.384.475.475,0,0,0,.064-.288c0-.272-.176-.48-.912-1.024.768-.784,1.392-1.52,2.064-2.336a1.044,1.044,0,0,1,.464-.368c.224-.112.368-.224.368-.464,0-.288-.16-.448-.624-.768a3.363,3.363,0,0,0-1.408-.56c-.24,0-.528.1-.528.224,0,.1.112.16.32.288.352.208.48.4.48.528a.972.972,0,0,1-.208.528A27.66,27.66,0,0,1,482.7,6.1a34.438,34.438,0,0,1-4.72,4.352c-.176.128-.256.208-.256.3a.211.211,0,0,0,.208.24.821.821,0,0,0,.384-.144,25.783,25.783,0,0,0,5.44-4.432c.144.176.176.352.176.832,0,1.68-.016,3.12-.032,4.464a3.929,3.929,0,0,1-.128,1.04,1.086,1.086,0,0,0-.08.4,1.824,1.824,0,0,0,.24.88.8.8,0,0,0,.64.448c.272,0,.448-.272.448-.624,0-1.1-.032-2.608-.032-3.792Zm14.56-2.752a2.339,2.339,0,0,0,.832.208,5.726,5.726,0,0,0,.944-.128c.624-.128,1.5-.288,1.744-.3a.073.073,0,0,1,.08.064.5.5,0,0,1-.032.128A22.23,22.23,0,0,1,500.1,9.568a20.766,20.766,0,0,1-4.96,4.288c-.144.1-.208.16-.208.256a.222.222,0,0,0,.192.208.782.782,0,0,0,.3-.08,16.692,16.692,0,0,0,5.408-4.016A24.617,24.617,0,0,0,504.064,5.7a.9.9,0,0,1,.512-.464c.208-.1.368-.208.368-.416,0-.256-.24-.48-.608-.768a1.68,1.68,0,0,0-.816-.432.522.522,0,0,0-.368.192.7.7,0,0,1-.368.208c-.544.1-1.04.176-1.76.288a6.07,6.07,0,0,1-.912.1.913.913,0,0,1-.208-.016c.448-.608.528-.72.688-.816a.553.553,0,0,0,.32-.464c0-.24-.16-.432-.544-.688a2.965,2.965,0,0,0-1.216-.56c-.288,0-.576.112-.576.192s.1.112.208.176c.416.24.576.448.576.624a2.553,2.553,0,0,1-.368.928,19,19,0,0,1-1.44,2.112,20.341,20.341,0,0,1-2.3,2.512c-.224.208-.368.368-.368.48a.2.2,0,0,0,.208.224.539.539,0,0,0,.3-.112,14.522,14.522,0,0,0,2.3-1.9A20.094,20.094,0,0,0,499.552,4.912Zm18.56-.112A13.1,13.1,0,0,0,516.9,6.144a.3.3,0,0,0-.1.208.188.188,0,0,0,.16.144.244.244,0,0,0,.192-.1,6.357,6.357,0,0,1,1.7-1.28,2.734,2.734,0,0,1,1.024-.176c.256,0,.688.048.912.048.416,0,.64-.08.64-.48,0-.352-.224-.7-1.328-.7a9.173,9.173,0,0,0-2.416.3,8.492,8.492,0,0,0-2.16.96c-.128.08-.192.144-.192.256a.181.181,0,0,0,.192.176.686.686,0,0,0,.24-.08,10.926,10.926,0,0,1,2.24-.7C518.144,4.688,518.16,4.752,518.112,4.8Zm-3.056,5.264a2.442,2.442,0,0,0,.8,1.872c.96.864,2.528.96,3.856.96a8.917,8.917,0,0,0,2.224-.208.478.478,0,0,0,.4-.48.628.628,0,0,0-.432-.544,2.342,2.342,0,0,0-.656-.128,2.532,2.532,0,0,0-.608.08,4.636,4.636,0,0,1-.592.128,7.511,7.511,0,0,1-1.136.064,4.449,4.449,0,0,1-2.736-.656,1.81,1.81,0,0,1-.592-1.5,5.361,5.361,0,0,1,.16-1.056c0-.1-.08-.144-.176-.144-.08,0-.128.048-.192.16A3.585,3.585,0,0,0,515.056,10.064Zm-1.712-1.92c-.384.992-.768,2.032-1.136,2.976-.032.08-.08.112-.112.112-.048,0-.1-.032-.112-.112a5.364,5.364,0,0,1-.112-1.3,13.118,13.118,0,0,1,.8-4.128,2.492,2.492,0,0,1,.368-.7.706.706,0,0,0,.224-.528,2.049,2.049,0,0,0-.432-1.1,1.81,1.81,0,0,0-1.168-.848.129.129,0,0,0-.144.112.216.216,0,0,0,.08.16,1.629,1.629,0,0,1,.48,1.136,6.811,6.811,0,0,1-.24,1.312,21.237,21.237,0,0,0-.72,4.7,8.748,8.748,0,0,0,.528,3.024c.24.576.448.752.736.752.208,0,.384-.128.384-.448,0-.224-.048-.752-.048-1.04a4.84,4.84,0,0,1,.16-1.024c.144-.624.448-1.632.832-2.912a.7.7,0,0,0,.032-.16.2.2,0,0,0-.192-.176C513.472,7.952,513.392,8,513.344,8.144Zm23.9-3.36a2.742,2.742,0,0,0-1.616.528.255.255,0,0,0-.128.224.16.16,0,0,0,.16.16.685.685,0,0,0,.208-.08,2.305,2.305,0,0,1,.96-.256,2.013,2.013,0,0,1,1.5.7.292.292,0,0,1,.08.176.205.205,0,0,1-.064.16,9.347,9.347,0,0,1-1.024.8c-.1.064-.128.112-.128.176a.138.138,0,0,0,.128.128.7.7,0,0,0,.16-.032c.256-.08.48-.176.8-.288a1.938,1.938,0,0,1,.464-.112.573.573,0,0,1,.368.128.489.489,0,0,0,.32.112.462.462,0,0,0,.48-.48,1.7,1.7,0,0,0-.768-1.328A3.363,3.363,0,0,0,537.248,4.784Zm-6.48.624a8.394,8.394,0,0,1-1.872.272,1.462,1.462,0,0,1-1.152-.624.275.275,0,0,0-.208-.128.158.158,0,0,0-.144.16,1.356,1.356,0,0,0,.24.592,1.627,1.627,0,0,0,1.376.784,9.039,9.039,0,0,0,1.76-.208c-.016,1.008-.048,1.984-.048,3.2-.976.592-1.824,1.168-2.928,1.792a1.144,1.144,0,0,1-.512.176.373.373,0,0,1-.24-.112.956.956,0,0,1-.24-.336.231.231,0,0,0-.16-.112c-.1,0-.144.16-.144.368a1.418,1.418,0,0,0,.608,1.1,1.136,1.136,0,0,0,.656.32.368.368,0,0,0,.352-.224,1.81,1.81,0,0,1,.512-.528,18.668,18.668,0,0,1,1.456,1.184,1.177,1.177,0,0,1,.416.56c.08.32.208.416.432.416.256,0,.432-.192.624-.768a2.232,2.232,0,0,0,.112-.7c0-.08-.016-.416-.032-.608-.032-.56-.064-1.36-.08-2.16.4-.24.832-.48,1.248-.72a5.035,5.035,0,0,1,2.256-.736,2.139,2.139,0,0,1,1.456.432,1.651,1.651,0,0,1,.608,1.28,1.691,1.691,0,0,1-.544,1.392A2.212,2.212,0,0,1,535.04,12a3.292,3.292,0,0,1-2.256-.9.244.244,0,0,0-.192-.1.137.137,0,0,0-.128.128.491.491,0,0,0,.064.24,3.367,3.367,0,0,0,2.944,1.424,3.021,3.021,0,0,0,1.936-.624,2.271,2.271,0,0,0,.88-1.792,2.312,2.312,0,0,0-.944-1.84,3.39,3.39,0,0,0-2.128-.688,7.283,7.283,0,0,0-3.68,1.168c-.016-1.008.016-2.016.048-2.976a13.359,13.359,0,0,0,2.528-.912.469.469,0,0,0,.3-.432c0-.272-.272-.464-.624-.464a1.371,1.371,0,0,0-.928.3,4.617,4.617,0,0,1-1.264.608,6.562,6.562,0,0,1,.112-1.216.859.859,0,0,1,.3-.48.383.383,0,0,0,.16-.336c0-.24-.256-.512-.656-.752a2.1,2.1,0,0,0-1.04-.352,1.135,1.135,0,0,0-.688.208c-.128.1-.16.16-.16.224,0,.048.08.08.208.1a2.349,2.349,0,0,1,.464.08.542.542,0,0,1,.368.288,2.8,2.8,0,0,1,.1,1.088ZM530.72,12.1c0,.24-.032.3-.16.3a1.539,1.539,0,0,1-.5-.16,7.284,7.284,0,0,1-1.1-.608c.512-.4,1.152-.912,1.76-1.36Zm14.24-8.56a8.145,8.145,0,0,0-1.456-.7c.08.96.08,1.84.08,3.52,0,3.1-.064,4.08-.064,4.64,0,.272.144.416.512.416.528,0,.768-.144.768-.528v-.56h3.952c-.032,2.9-.08,4.16-.08,4.528,0,.336.16.48.576.48.544,0,.768-.176.768-.576,0-.512-.032-1.536-.064-4.432H554.1v.624c0,.288.16.416.512.416.5,0,.736-.16.736-.512,0-.448-.064-1.9-.064-4.864V4.352c.432-.256.5-.368.5-.5,0-.1-.064-.192-.336-.416-.56-.5-.656-.544-.752-.544-.112,0-.192.048-.736.64h-4.016V1.52c.48-.192.56-.288.56-.416,0-.24-.192-.3-1.856-.464a22.864,22.864,0,0,1,.128,2.9Zm9.136,3.52V9.92h-4.144c0-.96-.016-1.9-.016-2.864Zm-5.328,0c0,.96,0,2.032-.016,2.864H544.8V7.056Zm1.168-3.12h4.16v2.72h-4.16Zm-1.168,0v2.72H544.8V3.936Zm16.464,10.176A7.564,7.564,0,0,0,568.88,13.1a9.61,9.61,0,0,0,2.928-2.624.458.458,0,0,0,.128-.32.174.174,0,0,0-.176-.144c-.064,0-.128.048-.208.128a11,11,0,0,1-2.512,1.888,8.763,8.763,0,0,1-3.584,1.04,2.237,2.237,0,0,1-1.392-.336,2.036,2.036,0,0,1-.4-1.52c0-.832.064-2.4.16-3.888.08-1.28.176-2.256.272-3.024a.764.764,0,0,1,.224-.512.64.64,0,0,0,.224-.448,1.292,1.292,0,0,0-.576-.864,2.606,2.606,0,0,0-1.3-.608,1.61,1.61,0,0,0-.576.1c-.128.048-.192.128-.192.208s.064.1.192.144a2.613,2.613,0,0,1,.56.256c.24.16.32.4.3.992-.032,1.28-.064,2.528-.112,3.792-.064,1.552-.128,3.072-.128,4.08C562.72,13.36,563.7,14.112,565.232,14.112Zm13.28-7.824c.416-.16.48-.256.48-.384,0-.176-.128-.224-.88-.368a18.81,18.81,0,0,0,1.744-3.792c.448-.064.608-.16.608-.336,0-.192-.592-.432-1.792-.736a12.094,12.094,0,0,1-.448,2.1,17.5,17.5,0,0,1-3.12,5.9c-.08.08.112.272.192.192a14.994,14.994,0,0,0,2.112-2.288c0,.992-.016,1.984-.016,2.976-.032,3.712-.1,4.848-.1,5.168,0,.4.128.512.56.512q.672,0,.672-.576c0-.528-.016-2.288-.016-6.08Zm6.912-.9v8.032c0,.208-.08.272-.272.272-.56,0-1.232-.048-2.208-.112-.112,0-.112.24,0,.256,1.488.288,1.744.464,1.84,1.024.048.256.1.3.3.3a1.791,1.791,0,0,0,1.024-.288,1.138,1.138,0,0,0,.56-1.152c0-.688-.064-2.08-.064-5.712V5.392h2.944c.16,0,.208-.048.208-.16,0-.1-.064-.208-.4-.5-.736-.576-.864-.64-.96-.64s-.224.064-.88.9h-.912V1.7c.448-.176.544-.288.544-.416,0-.208-.24-.288-1.824-.448a25.034,25.034,0,0,1,.1,3.136V4.992h-4.976a6.738,6.738,0,0,1-1.216-.112l.16.592a6.277,6.277,0,0,1,1.072-.08Zm-2.7,5.36a.765.765,0,0,0,.688-.832c0-.944-.944-2.1-2.416-2.848-.064-.032-.16.08-.112.144a6.063,6.063,0,0,1,1.248,2.816C582.224,10.56,582.4,10.752,582.72,10.752Zm19.856-5.84c0-.48.016-.9.048-1.392a.662.662,0,0,1,.16-.448.45.45,0,0,0,.16-.336c0-.3-.224-.5-.672-.784a2.167,2.167,0,0,0-1.008-.368,1.2,1.2,0,0,0-.72.208c-.176.112-.272.24-.272.32,0,.064.048.08.16.08s.336,0,.512.016a.577.577,0,0,1,.448.24,2.162,2.162,0,0,1,.144.832c.032.72.048,1.184.048,1.824a15.659,15.659,0,0,1-2.56.32,2.313,2.313,0,0,1-1.312-.352.307.307,0,0,0-.192-.064.158.158,0,0,0-.144.16.413.413,0,0,0,.128.272,2.267,2.267,0,0,0,1.76.736,6.355,6.355,0,0,0,.9-.064c.4-.064.912-.144,1.424-.224.016.576.016,1.472.016,2a7.853,7.853,0,0,1-.768,4,6.1,6.1,0,0,1-2.96,2.416.263.263,0,0,0-.192.224.16.16,0,0,0,.176.176,1.23,1.23,0,0,0,.416-.08,6.29,6.29,0,0,0,3.392-2.272,6.236,6.236,0,0,0,.928-3.872c0-.752,0-1.9-.016-2.752.352-.064.768-.112,1.152-.176.4-.064.768-.112,1.088-.16.352-.048.544-.16.544-.416a.468.468,0,0,0-.368-.464A2,2,0,0,0,604.3,4.4a.7.7,0,0,0-.4.144,1.681,1.681,0,0,1-.5.192C603.216,4.784,602.864,4.864,602.576,4.912Zm-8.464-2.864a.158.158,0,0,0-.16.128.481.481,0,0,0,.112.224,2.749,2.749,0,0,1,.416,1.264,6.8,6.8,0,0,1-.16,1.168,24.54,24.54,0,0,0-.528,4.336,6.634,6.634,0,0,0,.7,3.264c.224.416.464.64.752.64.3,0,.432-.208.432-.48,0-.24-.08-.672-.08-1.008a4.1,4.1,0,0,1,.192-1.1c.16-.624.48-1.776.72-2.656a.8.8,0,0,0,.048-.256.156.156,0,0,0-.176-.16c-.128,0-.208.1-.256.224-.352.976-.656,1.76-1.1,2.96-.032.1-.1.176-.144.176s-.112-.048-.144-.144a5.791,5.791,0,0,1-.176-1.84,12.136,12.136,0,0,1,.672-3.6,4.192,4.192,0,0,1,.24-.624,1.533,1.533,0,0,0,.144-.592,2.087,2.087,0,0,0-.384-1.056C594.96,2.544,594.448,2.048,594.112,2.048Zm21.5-.688c-.224,0-.4.08-.4.176,0,.064.048.08.192.192.384.272.608.512.608.688,0,.208-.144.432-.448.8-.576.688-1.088,1.264-1.536,1.76-.816.928-1.376,1.552-1.824,2.1a1.19,1.19,0,0,0-.368.88,1.5,1.5,0,0,0,.592,1.04,21.31,21.31,0,0,1,4.288,4.976c.272.48.448.672.7.672.336,0,.624-.272.624-.8,0-.4-.24-.8-.816-1.5a26,26,0,0,0-3.6-3.424c-.288-.24-.544-.464-.7-.608-.192-.192-.272-.32-.272-.464a.607.607,0,0,1,.208-.4c.544-.624,1.328-1.424,2.064-2.144.592-.56,1.216-1.1,1.7-1.5a1.981,1.981,0,0,1,.56-.336.549.549,0,0,0,.368-.512c0-.256-.224-.528-.56-.88A2.329,2.329,0,0,0,615.616,1.36Zm19.36.944a.165.165,0,0,0-.176.16.248.248,0,0,0,.112.16,5.537,5.537,0,0,1,1.344,1.536q.216.432.528.432a.445.445,0,0,0,.448-.48c0-.336-.224-.624-.608-.96a3.6,3.6,0,0,0-1.392-.8A.911.911,0,0,0,634.976,2.3Zm1.3-1.088a.16.16,0,0,0-.16.16.193.193,0,0,0,.112.16,4.879,4.879,0,0,1,1.472,1.5c.176.3.3.384.512.384a.454.454,0,0,0,.432-.512c0-.368-.352-.736-.736-1.008a3.778,3.778,0,0,0-1.28-.624A2.089,2.089,0,0,0,636.272,1.216ZM630.544,4.8a8.658,8.658,0,0,1,.368-.96,1.422,1.422,0,0,1,.464-.7.478.478,0,0,0,.208-.4c0-.144-.032-.288-.3-.5a3.037,3.037,0,0,0-1.44-.608,1.189,1.189,0,0,0-.608.176c-.064.032-.144.08-.144.16,0,.064.032.112.144.144a2.705,2.705,0,0,1,.64.208.452.452,0,0,1,.288.432,2.861,2.861,0,0,1-.128.784c-.112.432-.256.9-.448,1.52a11.119,11.119,0,0,1-2.272.432,2.283,2.283,0,0,1-1.36-.384.422.422,0,0,0-.24-.08.171.171,0,0,0-.144.16c0,.176.176.352.432.56a2.561,2.561,0,0,0,1.552.528,8.3,8.3,0,0,0,1.7-.24c-.928,2.432-1.872,4.688-2.992,6.96a1.51,1.51,0,0,0-.208.608.744.744,0,0,0,.16.432.571.571,0,0,0,.368.176c.256,0,.5-.144.656-.544,1.072-2.576,2-5.216,2.96-7.84a26.518,26.518,0,0,0,2.624-.864c.352-.128.528-.288.512-.56,0-.3-.32-.464-.576-.464a2,2,0,0,0-.576.176A16.053,16.053,0,0,1,630.544,4.8Zm.592,7.04a1.9,1.9,0,0,0,.848,1.664,5.3,5.3,0,0,0,3.12.752c.544,0,1.3-.048,1.728-.1.544-.08.848-.224.848-.528a.577.577,0,0,0-.336-.544,1.629,1.629,0,0,0-.72-.16,1.927,1.927,0,0,0-.672.128,6.4,6.4,0,0,1-1.664.16,3.571,3.571,0,0,1-2.08-.544,1.373,1.373,0,0,1-.528-1.12,2.885,2.885,0,0,1,.08-.736,1.442,1.442,0,0,0,.048-.256.124.124,0,0,0-.128-.112c-.1,0-.192.112-.288.288A2.246,2.246,0,0,0,631.136,11.84Zm3.68-4.592c.1,0,.112.048.048.1-.608.464-1.152.96-1.52,1.3a.281.281,0,0,0-.112.176c0,.064.1.176.144.176a.421.421,0,0,0,.24-.1c.544-.336,1.168-.768,1.568-1.008a1.3,1.3,0,0,1,.656-.224,1.558,1.558,0,0,1,.512.112.969.969,0,0,0,.368.08.4.4,0,0,0,.448-.4c0-.352-.208-.5-.576-.656a4.856,4.856,0,0,0-1.872-.32,5.282,5.282,0,0,0-1.952.384,3.689,3.689,0,0,0-1.072.656.252.252,0,0,0-.112.208.158.158,0,0,0,.16.128.722.722,0,0,0,.176-.048,6.134,6.134,0,0,1,2.032-.544A8.3,8.3,0,0,1,634.816,7.248Zm14.352-2.432a8.262,8.262,0,0,1-.4-1.664.946.946,0,0,1,.064-.432.645.645,0,0,0,.112-.32c0-.176-.1-.336-.352-.48a2.466,2.466,0,0,0-1.248-.352,1.417,1.417,0,0,0-.784.3c-.176.128-.272.256-.272.352,0,.064.064.112.16.112.08,0,.3-.032.48-.032a.88.88,0,0,1,.416.08c.144.08.24.24.352.576.256.752.464,1.424.688,2.112a9.284,9.284,0,0,1-2.592.512,3.876,3.876,0,0,1-1.2-.144,2.384,2.384,0,0,1-.8-.416.342.342,0,0,0-.208-.08.158.158,0,0,0-.144.16.468.468,0,0,0,.112.272,2.083,2.083,0,0,0,.976.768,3.358,3.358,0,0,0,1.44.256,9.993,9.993,0,0,0,2.752-.5,28.08,28.08,0,0,0,1.68,3.248,15.92,15.92,0,0,0-2.592-.24,4.821,4.821,0,0,0-2.448.592,2.167,2.167,0,0,0-1.232,1.92,2.319,2.319,0,0,0,1.424,2.1,9.4,9.4,0,0,0,4.176.88c1.072,0,1.344-.224,1.344-.624a.572.572,0,0,0-.384-.56,1.471,1.471,0,0,0-.656-.16,3.417,3.417,0,0,0-.544.048,4.816,4.816,0,0,1-.56.032,7.054,7.054,0,0,1-2.96-.528,1.579,1.579,0,0,1-1.1-1.424,1.378,1.378,0,0,1,.624-1.1,3.786,3.786,0,0,1,2.112-.544,7.318,7.318,0,0,1,2.032.3,2.472,2.472,0,0,1,1.264.672c.272.288.448.4.608.4.3,0,.528-.16.528-.672A1.5,1.5,0,0,0,651.7,9.3a8.056,8.056,0,0,1-.672-.832,15.282,15.282,0,0,1-1.552-2.784,25.124,25.124,0,0,0,2.7-1.088c.4-.192.512-.3.512-.512,0-.288-.192-.528-.672-.528a1.27,1.27,0,0,0-.7.224,3.192,3.192,0,0,1-.608.384A14.285,14.285,0,0,1,649.168,4.816Zm18.144.272c-.112,0-.176.064-.176.144,0,.112.048.16.144.224a5.391,5.391,0,0,1,1.76,1.616,4.394,4.394,0,0,1,.8,1.984c0,.24-.08.32-.32.368-.352.064-.72.08-1.168.128-.16.016-.288.048-.288.128,0,.112.064.16.256.208.384.1.72.176.992.256a1.026,1.026,0,0,1,.624.448.473.473,0,0,0,.432.256.6.6,0,0,0,.464-.256,1.549,1.549,0,0,0,.24-.944,4.464,4.464,0,0,0-.592-2.032,5.268,5.268,0,0,0-1.744-1.872A4.309,4.309,0,0,0,667.312,5.088Zm-4.976,7.952c.368,0,.544-.224.528-.48a1.149,1.149,0,0,0-.16-.464.809.809,0,0,1-.1-.4,2.387,2.387,0,0,1,.224-.784c.256-.656.832-1.92,1.328-2.944a.521.521,0,0,0,.064-.208.221.221,0,0,0-.192-.176.427.427,0,0,0-.272.208c-.672,1.072-1.36,2.24-1.84,3.024-.144.224-.256.3-.384.3-.224,0-.544-.288-.832-1.008A6.708,6.708,0,0,1,660.32,7.9a8.2,8.2,0,0,1,.24-2.288,1.458,1.458,0,0,0,.144-.5,1.837,1.837,0,0,0-.752-1.248,2.126,2.126,0,0,0-1.04-.528c-.128,0-.256.016-.256.1,0,.048.016.08.112.16a1.685,1.685,0,0,1,.64,1.04,17.391,17.391,0,0,1,.048,2.032,14.767,14.767,0,0,0,.192,2.656,5.191,5.191,0,0,0,1.552,3.1A2.148,2.148,0,0,0,662.336,13.04ZM676.32,10.9a2.112,2.112,0,1,0,2.112,2.112A2.152,2.152,0,0,0,676.32,10.9Zm0,.56a1.552,1.552,0,1,1-1.552,1.552A1.585,1.585,0,0,1,676.32,11.456ZM7.472,36.9v-1.9H12.24v.24c0,.352.128.48.5.48.464,0,.656-.176.656-.544,0-.192-.048-.736-.048-2.1V32.4c.336-.208.4-.288.4-.4,0-.1-.048-.208-.272-.4-.512-.384-.608-.448-.7-.448-.128,0-.208.064-.64.544H9.264A8.552,8.552,0,0,0,10.4,30.288c.48-.1.624-.176.624-.352s-.224-.272-1.68-.624a7.471,7.471,0,0,1-.176,1.12A10.028,10.028,0,0,1,8.784,31.7H7.6a14.932,14.932,0,0,0-1.344-.72,39.369,39.369,0,0,1,.112,3.968c0,4.368-.08,5.424-.08,6.16,0,.288.128.432.5.432.464,0,.688-.16.688-.544v-.5h5.184v.464c0,.352.128.464.5.464.464,0,.688-.16.688-.528,0-.208-.048-.8-.048-2.432v-.848c.368-.272.416-.336.416-.448,0-.1-.032-.192-.3-.416-.5-.416-.608-.464-.7-.464s-.192.064-.7.608Zm0,.4h5.184v2.8H7.472Zm4.768-2.7H7.472V32.1H12.24Zm-8.8-1.7a.714.714,0,0,0,.656-.784c0-.752-.8-1.648-2.464-2.16-.08-.016-.176.1-.112.144a5.052,5.052,0,0,1,1.3,2.08C2.976,32.752,3.152,32.9,3.44,32.9Zm.72,3.936c.384-.288.432-.352.432-.448s-.048-.192-.3-.416c-.512-.448-.608-.5-.72-.5-.1,0-.176.048-.672.608H1.9a6.779,6.779,0,0,1-1.232-.112l.16.624A4,4,0,0,1,1.9,36.48h1.1v4.144a7.135,7.135,0,0,1-1.408.912,6.773,6.773,0,0,1-.992.4c.576,1.312.816,1.664,1.008,1.664s.272-.16.256-.72A10.8,10.8,0,0,0,3.76,40.544a4.219,4.219,0,0,0,1.52,2.128c.832.576,2.24.88,5.36.88,1.328,0,3.12-.032,3.984-.112.256-.016.3-.064.336-.416a.856.856,0,0,1,.56-.736c.064-.032.048-.208-.032-.192a46.422,46.422,0,0,1-5.568.368,11.193,11.193,0,0,1-4.336-.512A2.94,2.94,0,0,1,4.16,40.608ZM26.9,41.968H29.68v.96c0,.352.16.5.544.5.48,0,.7-.192.7-.608,0-.608-.064-2.672-.064-7.088v-2.7c.368-.256.432-.352.432-.48,0-.1-.064-.208-.288-.4-.544-.464-.64-.512-.736-.512s-.192.048-.688.624H27.04a9.094,9.094,0,0,0-1.44-.688c.128,1.3.128,2.624.128,5.28,0,4.384-.08,5.488-.08,6.16,0,.32.176.464.544.464.464,0,.7-.192.7-.592Zm2.784-.4H26.9V32.656H29.68Zm-8.72-8.48c.032-.816.048-1.7.064-2.656.384-.16.5-.256.5-.4,0-.224-.272-.3-1.744-.5a8.371,8.371,0,0,1,.064,1.136c0,.864-.016,1.664-.032,2.416H18.56a7.824,7.824,0,0,1-1.36-.128l.176.64a5.821,5.821,0,0,1,1.216-.112h1.2c-.208,4.944-1.024,7.552-3.008,9.984-.064.08.112.208.192.144,2.592-2.16,3.664-4.784,3.952-10.128H23.04a45.872,45.872,0,0,1-.592,7.376c-.208.96-.352,1.328-.784,1.328A11.053,11.053,0,0,1,19.872,42c-.1-.016-.112.192-.016.224,1.056.32,1.312.56,1.36,1.04.032.208.1.256.352.256a2.016,2.016,0,0,0,1.008-.288,2.459,2.459,0,0,0,.88-1.6,47.152,47.152,0,0,0,.736-7.792c.32-.208.384-.288.384-.4,0-.1-.048-.176-.256-.4-.56-.528-.64-.56-.752-.56s-.144.032-.64.608ZM37.7,35.28h2.656c.16,0,.208-.048.208-.16,0-.1-.08-.224-.3-.416-.56-.48-.672-.56-.768-.56s-.224.08-.72.736H37.7V30.32c.432-.176.528-.272.528-.4,0-.208-.176-.288-1.68-.48a19.185,19.185,0,0,1,.08,2.3V34.88h-1.7a5.767,5.767,0,0,1-1.12-.112l.16.608a6.055,6.055,0,0,1,.992-.1h1.5a18.543,18.543,0,0,1-2.96,6.048c-.064.08.1.208.176.144a12.478,12.478,0,0,0,3.008-4.08c-.048,3.9-.16,5.84-.16,6.272,0,.3.128.448.5.448.464,0,.736-.176.736-.544,0-.624-.064-2.928-.064-6.768a3.561,3.561,0,0,1,1.2,1.616c.16.5.368.576.624.576a.6.6,0,0,0,.528-.624c0-.768-.928-1.488-2.352-1.856Zm10.7,3.264c.128-.032.176-.1.176-.176,0-.1-.048-.192-.352-.368-.672-.432-.784-.512-.9-.512-.128,0-.208.112-.656.992l-.464.08c-.016-1.1-.016-2.432-.016-4.032V30.464c.448-.208.528-.3.528-.432,0-.224-.32-.32-1.776-.48.08.8.08,1.712.08,4.784,0,1.792,0,3.264-.016,4.448l-4.272.8a6.429,6.429,0,0,1-1.216.112l.288.56a6.64,6.64,0,0,1,1.04-.3l4.16-.784c-.016,2.7-.032,3.9-.032,4.448,0,.32.144.464.528.464.528,0,.768-.176.768-.56,0-.5-.048-1.712-.064-4.56Zm-5.008-4.736a.642.642,0,0,0,.624-.72c0-.8-.944-1.488-2.56-1.712-.064-.016-.128.1-.08.128A3.691,3.691,0,0,1,42.7,33.056C43.008,33.728,43.072,33.808,43.392,33.808Zm-.512,3.76a.672.672,0,0,0,.624-.752c0-.784-.944-1.472-2.624-1.648-.064,0-.112.112-.064.144a3.683,3.683,0,0,1,1.472,1.728C42.48,37.408,42.608,37.568,42.88,37.568Zm-7.488-3.44c.32,0,.576-.368.576-.816a4.1,4.1,0,0,0-1.632-2.592c-.064-.048-.192.032-.16.1a6.26,6.26,0,0,1,.736,2.48C34.976,33.968,35.088,34.128,35.392,34.128Zm3.024.016A12.785,12.785,0,0,0,40.128,31.7c.416-.048.576-.128.576-.288s-.192-.272-1.44-.784a10.617,10.617,0,0,1-.272,1.264,17.931,17.931,0,0,1-.752,2.16C38.208,34.128,38.368,34.208,38.416,34.144Zm15.6,1.168a4.646,4.646,0,0,1,1.008-.1H56.5v2.64H52.56a6.325,6.325,0,0,1-1.2-.112l.16.608a4.75,4.75,0,0,1,1.04-.1H56.5V42.9h-4.72a6.737,6.737,0,0,1-1.216-.112l.176.608a5.989,5.989,0,0,1,1.04-.1H64.064c.16,0,.208-.048.208-.16,0-.1-.08-.208-.4-.48-.736-.608-.848-.688-.96-.688-.1,0-.208.08-.976.928H57.7v-4.64h5.392c.16,0,.208-.064.208-.16s-.08-.192-.368-.432c-.64-.56-.768-.64-.864-.64-.112,0-.24.08-.848.832H57.7v-2.64h2.72c.16,0,.208-.048.208-.16,0-.1-.064-.192-.336-.416-.64-.544-.752-.608-.864-.608-.1,0-.208.064-.768.784H54.992a6.649,6.649,0,0,1-1.072-.1,13.846,13.846,0,0,0,3.536-4.112,14.37,14.37,0,0,0,3.168,3.9,15.552,15.552,0,0,0,2.512,1.712,1.693,1.693,0,0,0,.576.224c.112,0,.192-.064.256-.24.208-.656.4-.848.848-.944.08-.016.1-.176.016-.192A11.233,11.233,0,0,1,61.024,33.6a12.108,12.108,0,0,1-3.28-3.136c.432-.1.544-.176.544-.3,0-.192-.272-.3-1.9-.72a8.2,8.2,0,0,1-.752,1.76,16.827,16.827,0,0,1-5.744,5.5c-.1.064,0,.272.112.224a16.041,16.041,0,0,0,3.856-2.16ZM54.3,42.08c.384,0,.656-.336.656-.832,0-.736-.9-1.7-2.128-2.288-.08-.032-.176.064-.128.128a4.672,4.672,0,0,1,.976,2.272C53.792,41.92,54,42.08,54.3,42.08Zm4.56.272a10.464,10.464,0,0,0,2.5-2.4c.48-.048.624-.112.624-.288,0-.16-.16-.272-1.5-.9a6.015,6.015,0,0,1-.432,1.168,11.13,11.13,0,0,1-1.36,2.256C58.624,42.272,58.784,42.416,58.864,42.352Zm18.688-2.4c-.08-1.408-.144-3.04-.144-4.768a12.472,12.472,0,0,0,2.16-.544c.32-.112.464-.272.464-.512,0-.272-.192-.448-.72-.448a1.156,1.156,0,0,0-.7.192,2.149,2.149,0,0,1-.432.208c-.224.064-.448.128-.752.192,0-.592.048-.976.08-1.456a.964.964,0,0,1,.224-.64.455.455,0,0,0,.176-.368c0-.336-.352-.544-.688-.72A2.274,2.274,0,0,0,76.16,30.8a1.534,1.534,0,0,0-.608.176c-.112.064-.256.176-.256.256,0,.048.032.08.112.08a1.723,1.723,0,0,1,.352.032,1.967,1.967,0,0,1,.464.128c.224.112.256.3.288.736.016.624.048,1.264.048,2.256a13.914,13.914,0,0,1-2.464.24A1.649,1.649,0,0,1,72.7,34.1c-.08-.1-.144-.144-.208-.144a.174.174,0,0,0-.128.128.718.718,0,0,0,.064.272,1.735,1.735,0,0,0,1.84,1.12,18.19,18.19,0,0,0,2.288-.144c.016,1.472.048,2.912.064,4.368a7.192,7.192,0,0,0-1.5-.16c-1.44,0-2.272.736-2.272,1.616,0,.9.912,1.584,2.192,1.584,1.552,0,2.5-.656,2.5-1.824a8.132,8.132,0,0,1,1.616,1.168.91.91,0,0,0,.608.288.51.51,0,0,0,.528-.576.732.732,0,0,0-.3-.528A9.264,9.264,0,0,0,77.552,39.952Zm-.992.576a.932.932,0,0,1,0,.3,1.059,1.059,0,0,1-.368.736,2.053,2.053,0,0,1-1.328.384c-1.056,0-1.5-.384-1.5-.832,0-.672.752-.96,1.408-.96A4.472,4.472,0,0,1,76.56,40.528Zm-7.344-1.84a14.575,14.575,0,0,1,.992-4.656,1.819,1.819,0,0,1,.352-.688.682.682,0,0,0,.176-.512,1.911,1.911,0,0,0-.544-1.248,3.392,3.392,0,0,0-.816-.736A.365.365,0,0,0,69.2,30.8c-.1,0-.16.048-.16.128a.46.46,0,0,0,.112.24A2.05,2.05,0,0,1,69.5,32.32a5.085,5.085,0,0,1-.24,1.376,23.5,23.5,0,0,0-.8,5.328,8.86,8.86,0,0,0,.592,3.536.814.814,0,0,0,.688.544.4.4,0,0,0,.416-.448,2.568,2.568,0,0,0-.048-.48,3.8,3.8,0,0,1-.048-.624,3.061,3.061,0,0,1,.128-.768c.24-.864.544-1.936.928-3.184a1.117,1.117,0,0,0,.048-.192.189.189,0,0,0-.176-.176c-.08,0-.16.064-.208.192-.384.912-.816,1.984-1.184,2.8-.064.144-.1.208-.16.208s-.112-.064-.144-.24A8.779,8.779,0,0,1,69.216,38.688ZM89.2,33.76c-.576.512-1.28,1.12-1.632,1.44a.6.6,0,0,0-.176.256.245.245,0,0,0,.176.176.855.855,0,0,0,.352-.144A11.58,11.58,0,0,1,90.56,33.9a10.6,10.6,0,0,1,2.224-.384c.544-.048.736-.208.736-.512,0-.288-.128-.5-.528-.624a2.058,2.058,0,0,0-.576-.08,1.939,1.939,0,0,0-.464.112,9.294,9.294,0,0,1-1.424.32,10.772,10.772,0,0,1-1.52.144,6.321,6.321,0,0,1-1.184-.1,3.058,3.058,0,0,1-1.072-.416.377.377,0,0,0-.208-.08.174.174,0,0,0-.16.176.279.279,0,0,0,.064.192,2.464,2.464,0,0,0,1.008.784A4.242,4.242,0,0,0,89.2,33.76Zm-2.976,3.632a.267.267,0,0,0-.208.16,2.609,2.609,0,0,0-.432,1.536,2.573,2.573,0,0,0,1.744,2.432,7.738,7.738,0,0,0,3.024.512,24.194,24.194,0,0,0,3.568-.256c.576-.08.912-.24.912-.656s-.432-.688-1.024-.688a3.055,3.055,0,0,0-.976.144,9.531,9.531,0,0,1-2.736.336,6.041,6.041,0,0,1-2.9-.528,1.613,1.613,0,0,1-1.024-1.568,2.819,2.819,0,0,1,.192-1.056.628.628,0,0,0,.048-.224C86.416,37.456,86.32,37.392,86.224,37.392ZM93.776,30.7a.165.165,0,0,0-.176.16.248.248,0,0,0,.112.16,5.537,5.537,0,0,1,1.344,1.536q.216.432.528.432a.445.445,0,0,0,.448-.48c0-.336-.224-.624-.608-.96a3.6,3.6,0,0,0-1.392-.8A.91.91,0,0,0,93.776,30.7Zm1.3-1.088a.16.16,0,0,0-.16.16.193.193,0,0,0,.112.16,4.879,4.879,0,0,1,1.472,1.5c.176.3.3.384.512.384a.454.454,0,0,0,.432-.512c0-.368-.352-.736-.736-1.008a3.778,3.778,0,0,0-1.28-.624A2.089,2.089,0,0,0,95.072,29.616Zm12.592,4.112a8.261,8.261,0,0,1-.4-1.664.946.946,0,0,1,.064-.432.644.644,0,0,0,.112-.32c0-.176-.1-.336-.352-.48a2.466,2.466,0,0,0-1.248-.352,1.417,1.417,0,0,0-.784.3c-.176.128-.272.256-.272.352,0,.064.064.112.16.112.08,0,.3-.032.48-.032a.88.88,0,0,1,.416.08c.144.08.24.24.352.576.256.752.464,1.424.688,2.112a9.284,9.284,0,0,1-2.592.512,3.876,3.876,0,0,1-1.2-.144,2.384,2.384,0,0,1-.8-.416.342.342,0,0,0-.208-.08.158.158,0,0,0-.144.16.468.468,0,0,0,.112.272,2.083,2.083,0,0,0,.976.768,3.358,3.358,0,0,0,1.44.256,9.993,9.993,0,0,0,2.752-.5,28.091,28.091,0,0,0,1.68,3.248,15.92,15.92,0,0,0-2.592-.24,4.821,4.821,0,0,0-2.448.592,2.167,2.167,0,0,0-1.232,1.92,2.319,2.319,0,0,0,1.424,2.1,9.4,9.4,0,0,0,4.176.88c1.072,0,1.344-.224,1.344-.624a.572.572,0,0,0-.384-.56,1.471,1.471,0,0,0-.656-.16,3.419,3.419,0,0,0-.544.048,4.815,4.815,0,0,1-.56.032,7.054,7.054,0,0,1-2.96-.528,1.579,1.579,0,0,1-1.1-1.424,1.378,1.378,0,0,1,.624-1.1,3.786,3.786,0,0,1,2.112-.544,7.317,7.317,0,0,1,2.032.3,2.472,2.472,0,0,1,1.264.672c.272.288.448.4.608.4.3,0,.528-.16.528-.672a1.5,1.5,0,0,0-.336-.944,8.052,8.052,0,0,1-.672-.832,15.28,15.28,0,0,1-1.552-2.784,25.123,25.123,0,0,0,2.7-1.088c.4-.192.512-.3.512-.512,0-.288-.192-.528-.672-.528a1.27,1.27,0,0,0-.7.224,3.192,3.192,0,0,1-.608.384A14.285,14.285,0,0,1,107.664,33.728Zm2.992-3.5a.165.165,0,0,0-.176.16.248.248,0,0,0,.112.16,5.537,5.537,0,0,1,1.344,1.536q.216.432.528.432a.445.445,0,0,0,.448-.48c0-.336-.224-.624-.608-.96a3.6,3.6,0,0,0-1.392-.8A.91.91,0,0,0,110.656,30.224Zm1.3-1.088a.16.16,0,0,0-.16.16.193.193,0,0,0,.112.16,4.879,4.879,0,0,1,1.472,1.5c.176.3.3.384.512.384a.454.454,0,0,0,.432-.512c0-.368-.352-.736-.736-1.008a3.779,3.779,0,0,0-1.28-.624A2.089,2.089,0,0,0,111.952,29.136Zm13.12,4.752c-.112,0-.176.064-.176.144,0,.112.048.16.144.224a5.391,5.391,0,0,1,1.76,1.616,4.394,4.394,0,0,1,.8,1.984c0,.24-.08.32-.32.368-.352.064-.72.08-1.168.128-.16.016-.288.048-.288.128,0,.112.064.16.256.208.384.1.72.176.992.256a1.026,1.026,0,0,1,.624.448.473.473,0,0,0,.432.256.6.6,0,0,0,.464-.256,1.549,1.549,0,0,0,.24-.944,4.465,4.465,0,0,0-.592-2.032,5.269,5.269,0,0,0-1.744-1.872A4.31,4.31,0,0,0,125.072,33.888ZM120.1,41.84c.368,0,.544-.224.528-.48a1.149,1.149,0,0,0-.16-.464.809.809,0,0,1-.1-.4,2.387,2.387,0,0,1,.224-.784c.256-.656.832-1.92,1.328-2.944a.521.521,0,0,0,.064-.208.221.221,0,0,0-.192-.176.427.427,0,0,0-.272.208c-.672,1.072-1.36,2.24-1.84,3.024-.144.224-.256.3-.384.3-.224,0-.544-.288-.832-1.008a6.708,6.708,0,0,1-.384-2.208,8.205,8.205,0,0,1,.24-2.288,1.457,1.457,0,0,0,.144-.5,1.837,1.837,0,0,0-.752-1.248,2.126,2.126,0,0,0-1.04-.528c-.128,0-.256.016-.256.1,0,.048.016.08.112.16a1.685,1.685,0,0,1,.64,1.04,17.4,17.4,0,0,1,.048,2.032,14.771,14.771,0,0,0,.192,2.656,5.192,5.192,0,0,0,1.552,3.1A2.149,2.149,0,0,0,120.1,41.84Zm19.728-.608a10.916,10.916,0,0,1,3.056,1.84.818.818,0,0,0,.56.208.563.563,0,0,0,.5-.608.935.935,0,0,0-.528-.784,12.56,12.56,0,0,0-3.664-1.584c-.048-.88-.112-2.048-.128-2.96a13.192,13.192,0,0,0,2.816-.688c.368-.144.544-.3.544-.544,0-.256-.272-.416-.752-.416a1.173,1.173,0,0,0-.688.192,1.879,1.879,0,0,1-.512.288,9.163,9.163,0,0,1-1.424.32c0-.864,0-1.616.016-2.448a33.182,33.182,0,0,0,3.344-.608c.7-.16.88-.288.88-.576,0-.368-.592-.544-.992-.544a1.291,1.291,0,0,0-.72.176,2.75,2.75,0,0,1-.768.3,16.679,16.679,0,0,1-1.744.368c0-.3.016-.624.064-1.136a.736.736,0,0,1,.256-.544.473.473,0,0,0,.192-.384c0-.176-.16-.464-.64-.736a2.241,2.241,0,0,0-1.072-.352,1.125,1.125,0,0,0-.592.176c-.144.1-.224.16-.224.256a.114.114,0,0,0,.112.128,3.481,3.481,0,0,1,.4.016.758.758,0,0,1,.432.192c.128.128.144.288.16.672.016.5.016,1.3.016,1.856a24.829,24.829,0,0,1-3.1.288,2.88,2.88,0,0,1-1.856-.544.277.277,0,0,0-.192-.08.137.137,0,0,0-.128.112.387.387,0,0,0,.064.208,2.369,2.369,0,0,0,2.224,1.088,23.6,23.6,0,0,0,3.024-.208c.016.864.032,1.584.032,2.448-.512.048-1.184.08-1.7.08-.976,0-1.28-.192-1.28-.592a.986.986,0,0,1,.08-.432.611.611,0,0,0,.064-.208c0-.064-.08-.112-.144-.112-.08,0-.16.064-.24.176a1.426,1.426,0,0,0-.272.864c0,.688.592,1.1,2.1,1.1.432,0,1.04-.016,1.408-.048.016.8.016,1.76.032,2.672a12.658,12.658,0,0,0-1.632-.112c-1.152,0-2.592.432-2.592,1.648,0,1.152,1.328,1.68,2.672,1.68a2.846,2.846,0,0,0,1.92-.512,1.735,1.735,0,0,0,.624-1.456Zm-.992-.272a1.484,1.484,0,0,1-.352,1.168,1.988,1.988,0,0,1-1.44.4c-.928,0-1.872-.24-1.872-.928s.928-.928,1.68-.928A7.917,7.917,0,0,1,138.832,40.96ZM157.3,35.008c-1.248.3-2.48.608-3.712.96.016-.4.032-.672.048-.992.016-.4.064-.48.144-.592A.667.667,0,0,0,153.92,34a.751.751,0,0,0-.384-.528,2.365,2.365,0,0,0-1.28-.48,1.026,1.026,0,0,0-.48.128c-.08.048-.176.128-.176.176,0,.064.032.112.208.144a1.383,1.383,0,0,1,.7.336.762.762,0,0,1,.144.464c.032.688.032,1.312.032,2-.88.272-1.776.56-2.56.768a2.332,2.332,0,0,1-.56.08,1.014,1.014,0,0,1-.7-.384c-.16-.16-.224-.208-.288-.208s-.128.048-.128.352a1.52,1.52,0,0,0,.544.96,1.29,1.29,0,0,0,.912.48.683.683,0,0,0,.416-.16,2.584,2.584,0,0,1,.384-.224c.64-.32,1.136-.528,1.968-.864.016.944.016,1.808.032,2.752a2.844,2.844,0,0,0,.384,1.632,2.219,2.219,0,0,0,1.136.784,8.118,8.118,0,0,0,2.3.288,21.436,21.436,0,0,0,2.96-.176c.448-.08.624-.256.624-.576a.558.558,0,0,0-.4-.464,1.967,1.967,0,0,0-.88-.16,3.639,3.639,0,0,0-.736.176,12.512,12.512,0,0,1-2.64.224,2.12,2.12,0,0,1-1.584-.5,2.23,2.23,0,0,1-.32-1.392c0-.832,0-1.9.016-2.912a31.378,31.378,0,0,1,3.712-1.008,11.923,11.923,0,0,1-.256,2.56c-.08.336-.24.384-.56.384a10.223,10.223,0,0,1-1.168-.128c-.1-.016-.224-.048-.272-.048a.137.137,0,0,0-.128.128c0,.1.032.144.192.208.3.112.672.256.848.336a.588.588,0,0,1,.4.416c.08.256.16.32.368.32a1.332,1.332,0,0,0,.768-.368,2.707,2.707,0,0,0,.592-1.584,23.845,23.845,0,0,0,.128-2.4,12.965,12.965,0,0,1,1.9-.192c.352,0,1.232.1,1.5.1.336,0,.624-.112.624-.464,0-.4-.288-.592-.8-.624a4.934,4.934,0,0,1-1.088-.128,1.918,1.918,0,0,0-.464-.144c-.064,0-.112.032-.176.192-.048.224-.224.3-.464.352s-.512.1-1.024.192c.016-.72.048-1.264.08-1.744a1.281,1.281,0,0,1,.16-.688.638.638,0,0,0,.144-.384.657.657,0,0,0-.24-.48,2.689,2.689,0,0,0-1.408-.688,1.165,1.165,0,0,0-.576.16c-.16.1-.224.176-.224.24a.109.109,0,0,0,.112.112,3.433,3.433,0,0,1,.7.16c.144.048.272.176.3.512.048.5.048.96.048,1.584Zm11.056,3.232c1.312-2.208,2.208-3.776,2.976-5.056a1.609,1.609,0,0,1,.64-.72.494.494,0,0,0,.3-.48c0-.224-.128-.464-.576-.864a2.133,2.133,0,0,0-1.28-.656c-.288,0-.512.1-.512.192,0,.08.064.112.192.192.48.288.64.512.64.784a2.167,2.167,0,0,1-.208.736c-.256.624-.864,1.824-1.616,3.264-.928,1.76-2.064,3.824-3.056,5.76a1.027,1.027,0,0,0-.16.544c0,.432.24.608.512.608a.745.745,0,0,0,.72-.576,15.954,15.954,0,0,1,1.552-3.12,2.247,2.247,0,0,1,1.792-1.088.854.854,0,0,1,.848.5,4.069,4.069,0,0,1,.3,1.712,3.76,3.76,0,0,0,.528,2.144,1.857,1.857,0,0,0,1.616.736,4.056,4.056,0,0,0,3.2-1.7,8.762,8.762,0,0,0,1.648-3.92c.016-.112.032-.208.032-.256a.186.186,0,0,0-.176-.208c-.128,0-.176.08-.224.224a9.789,9.789,0,0,1-1.712,3.216,3.913,3.913,0,0,1-2.7,1.52.97.97,0,0,1-.928-.464,3.951,3.951,0,0,1-.336-1.568,3.4,3.4,0,0,0-.576-1.808,1.721,1.721,0,0,0-1.424-.64,2.725,2.725,0,0,0-1.984,1.008ZM183.52,39.7a2.112,2.112,0,1,0,2.112,2.112A2.152,2.152,0,0,0,183.52,39.7Zm0,.56a1.552,1.552,0,1,1-1.552,1.552A1.585,1.585,0,0,1,183.52,40.256Z" transform="translate(41 104)"/>
  <g id="グループ_842" data-name="グループ 842">
    <g id="グループ_583" data-name="グループ 583" transform="translate(2.32 181.593)">
      <g id="グループ_578" data-name="グループ 578" transform="translate(823.965)">
        <g id="グループ_577" data-name="グループ 577">
          <path id="パス_2909" data-name="パス 2909" d="M2974.539,1887.688v82.5H2836.594v-1.237h126.782c5.022,0,9.094-2.436,9.094-5.44v-75.823Z" transform="translate(-2820.824 -1872.959)" fill="#575656"/>
          <g id="グループ_575" data-name="グループ 575" transform="translate(151.646)">
            <rect id="長方形_133" data-name="長方形 133" width="2.069" height="10.543" fill="#575656"/>
          </g>
          <g id="グループ_576" data-name="グループ 576" transform="translate(0 95.991)">
            <rect id="長方形_134" data-name="長方形 134" width="10.223" height="1.237" fill="#575656"/>
          </g>
        </g>
      </g>
      <g id="グループ_582" data-name="グループ 582" transform="translate(0)">
        <g id="グループ_581" data-name="グループ 581">
          <path id="パス_2910" data-name="パス 2910" d="M611.051,1887.688v82.5H749v-1.237H622.215c-5.023,0-9.095-2.436-9.095-5.44v-75.823Z" transform="translate(-611.051 -1872.959)" fill="#575656"/>
          <g id="グループ_579" data-name="グループ 579" transform="translate(0)">
            <rect id="長方形_135" data-name="長方形 135" width="2.069" height="10.543" fill="#575656"/>
          </g>
          <g id="グループ_580" data-name="グループ 580" transform="translate(143.492 95.991)">
            <rect id="長方形_136" data-name="長方形 136" width="10.223" height="1.237" fill="#575656"/>
          </g>
        </g>
      </g>
    </g>
    <g id="グループ_592" data-name="グループ 592" transform="translate(2.32)">
      <g id="グループ_587" data-name="グループ 587" transform="translate(823.965)">
        <g id="グループ_586" data-name="グループ 586">
          <path id="パス_2911" data-name="パス 2911" d="M2974.539,612.53v-82.5H2836.594v1.238h126.782c5.022,0,9.094,2.435,9.094,5.439V612.53Z" transform="translate(-2820.824 -530.03)" fill="#575656"/>
          <g id="グループ_584" data-name="グループ 584" transform="translate(151.646 86.686)">
            <rect id="長方形_137" data-name="長方形 137" width="2.069" height="10.543" fill="#575656"/>
          </g>
          <g id="グループ_585" data-name="グループ 585" transform="translate(0 0)">
            <rect id="長方形_138" data-name="長方形 138" width="10.223" height="1.237" fill="#575656"/>
          </g>
        </g>
      </g>
      <g id="グループ_591" data-name="グループ 591" transform="translate(0)">
        <g id="グループ_590" data-name="グループ 590">
          <path id="パス_2912" data-name="パス 2912" d="M611.051,612.53v-82.5H749v1.238H622.215c-5.023,0-9.095,2.435-9.095,5.439V612.53Z" transform="translate(-611.051 -530.03)" fill="#575656"/>
          <g id="グループ_588" data-name="グループ 588" transform="translate(0 86.686)">
            <rect id="長方形_139" data-name="長方形 139" width="2.069" height="10.543" fill="#575656"/>
          </g>
          <g id="グループ_589" data-name="グループ 589" transform="translate(143.492 0)">
            <rect id="長方形_140" data-name="長方形 140" width="10.223" height="1.237" fill="#575656"/>
          </g>
        </g>
      </g>
    </g>
    <g id="グループ_609" data-name="グループ 609" transform="translate(977.911 50.289)">
      <rect id="長方形_141" data-name="長方形 141" width="2.089" height="124.146" transform="translate(0)" fill="#575656"/>
    </g>
    <g id="グループ_610" data-name="グループ 610" transform="translate(0.231 102.539)">
      <rect id="長方形_142" data-name="長方形 142" width="2.089" height="73.795" transform="translate(0 0)" fill="#575656"/>
    </g>
    <g id="グループ_612" data-name="グループ 612" transform="translate(149.606 277.584)">
      <rect id="長方形_144" data-name="長方形 144" width="680.869" height="1.237" transform="translate(0)" fill="#575656"/>
    </g>
    <rect id="長方形_7" data-name="長方形 7" width="979.68" height="281" fill="none"/>
    <rect id="長方形_143" data-name="長方形 143" width="780.685" height="1.237" transform="translate(149.27 0)" fill="#575656"/>
  </g>
  <g id="グループ_818" data-name="グループ 818" transform="translate(41 40)">
    <path id="パス_3776" data-name="パス 3776" d="M15.84-8.712a.269.269,0,0,0-.288.24.581.581,0,0,0,.24.384,8.253,8.253,0,0,1,2.544,3.456c.264.744.552.984,1.008.984.7,0,1.056-.408,1.056-1.176a3.234,3.234,0,0,0-1.368-2.184,10.258,10.258,0,0,0-2.76-1.584A1.182,1.182,0,0,0,15.84-8.712Zm-3.1-3.432c.024-.912.048-1.632.072-2.208.024-.552.072-.72.264-.912.168-.168.384-.336.384-.6,0-.36-.168-.528-.624-.84a3.479,3.479,0,0,0-1.7-.6,2.183,2.183,0,0,0-1.1.336c-.288.144-.408.312-.408.456,0,.12.1.168.24.192.192.024.432.048.7.1a.872.872,0,0,1,.6.336,1.535,1.535,0,0,1,.1.72c.024.792.024,2.088.024,3.168-1.968.168-3.72.336-5.064.48a12.848,12.848,0,0,1-1.392.072,1.73,1.73,0,0,1-1.344-.6c-.216-.192-.384-.408-.5-.408s-.192.312-.192.456c0,.36.12.624.576,1.224.576.72,1.032.984,1.488.984.336,0,.456-.144.744-.312a4.374,4.374,0,0,1,1.1-.264c1.632-.264,3.072-.432,4.608-.6v4.32c0,1.512,0,2.616-.024,3.576,0,.36-.072.432-.408.432-.288,0-1.464-.144-2.184-.264a3.951,3.951,0,0,0-.5-.048.241.241,0,0,0-.24.24c0,.144.048.24.336.384.576.24,1.32.6,1.848.888a1.076,1.076,0,0,1,.624.816c.12.552.288.672.6.672.384,0,.768-.336,1.2-.984a2.851,2.851,0,0,0,.36-1.392c0-.576-.072-1.3-.12-2.832-.048-1.7-.024-3.624-.048-5.928,2.088-.12,3.768-.168,4.728-.168a13.5,13.5,0,0,1,1.824.1c.408.024.816.12,1.128.12a.6.6,0,0,0,.648-.576c0-.432-.192-.624-.6-.864a4.556,4.556,0,0,0-1.944-.552,1.2,1.2,0,0,0-.624.192,2.412,2.412,0,0,1-1.344.384C15.624-12.384,14.208-12.264,12.744-12.144Zm-5.616,3.6c-.144,0-.264.072-.336.36a5.209,5.209,0,0,1-.84,1.776,4.861,4.861,0,0,1-1.44,1.224c-.7.384-.888.72-.888,1.2a.826.826,0,0,0,.912.84A2.484,2.484,0,0,0,6.288-4.272,5.39,5.39,0,0,0,7.272-6.5a7.611,7.611,0,0,0,.144-1.584C7.416-8.376,7.3-8.544,7.128-8.544Zm9.888-9.288a.247.247,0,0,0-.264.24.372.372,0,0,0,.168.24,8.305,8.305,0,0,1,2.016,2.3q.324.648.792.648a.668.668,0,0,0,.672-.72c0-.5-.336-.936-.912-1.44a5.4,5.4,0,0,0-2.088-1.2A1.365,1.365,0,0,0,17.016-17.832Zm1.944-1.632a.241.241,0,0,0-.24.24.289.289,0,0,0,.168.24A7.319,7.319,0,0,1,21.1-16.728c.264.456.456.576.768.576a.681.681,0,0,0,.648-.768c0-.552-.528-1.1-1.1-1.512a5.668,5.668,0,0,0-1.92-.936A3.134,3.134,0,0,0,18.96-19.464Zm21.528,2.208a3.024,3.024,0,0,0-.888.264,7.267,7.267,0,0,1-1.2.288,27.37,27.37,0,0,1-2.76.384,23.964,23.964,0,0,1-2.424.144,2.528,2.528,0,0,1-1.944-.72c-.144-.144-.24-.216-.336-.216s-.144.12-.144.312a1.751,1.751,0,0,0,.672,1.248,2.041,2.041,0,0,0,1.512.7c.24,0,1.128-.072,1.608-.12,1.656-.144,3.7-.312,5.376-.456.624-.072,1.1-.072,1.56-.1.48-.024.744-.288.744-.576a.762.762,0,0,0-.432-.768A2.884,2.884,0,0,0,40.488-17.256Zm-4.272,6.72a1.067,1.067,0,0,1,.312.792,4.121,4.121,0,0,1-.168.984A15.663,15.663,0,0,1,34.416-4.2,19.693,19.693,0,0,1,30.576.288c-.288.24-.36.384-.36.528a.305.305,0,0,0,.336.288.69.69,0,0,0,.36-.12,15.4,15.4,0,0,0,4.728-4.32,14.858,14.858,0,0,0,2.5-5.064,2.243,2.243,0,0,1,.336-.72.7.7,0,0,0,.144-.384c0-.36-.5-.792-1.1-1.128,1.1-.072,2.472-.12,3.5-.12A25.118,25.118,0,0,1,43.7-10.7a14.363,14.363,0,0,0,1.536.1.529.529,0,0,0,.552-.552.881.881,0,0,0-.5-.768,4.089,4.089,0,0,0-1.9-.576,2.012,2.012,0,0,0-.768.192,2.707,2.707,0,0,1-.864.216c-1.68.168-3.312.288-5.112.408-2.208.168-3.768.336-5.616.552-.528.048-.96.1-1.392.1a2.59,2.59,0,0,1-1.608-.744c-.216-.168-.336-.264-.408-.264-.12,0-.216.192-.216.48a1.945,1.945,0,0,0,.72,1.272,2.547,2.547,0,0,0,1.512.936,1.08,1.08,0,0,0,.576-.144,5.175,5.175,0,0,1,1.728-.5A39.936,39.936,0,0,1,36.216-10.536Zm6.432-8.472a.247.247,0,0,0-.264.24.372.372,0,0,0,.168.24,8.305,8.305,0,0,1,2.016,2.3q.324.648.792.648a.668.668,0,0,0,.672-.72c0-.5-.336-.936-.912-1.44a5.4,5.4,0,0,0-2.088-1.2A1.365,1.365,0,0,0,42.648-19.008Zm1.944-1.632a.241.241,0,0,0-.24.24.289.289,0,0,0,.168.24A7.319,7.319,0,0,1,46.728-17.9c.264.456.456.576.768.576a.681.681,0,0,0,.648-.768c0-.552-.528-1.1-1.1-1.512a5.668,5.668,0,0,0-1.92-.936A3.134,3.134,0,0,0,44.592-20.64ZM60.312-9.048c.864-.936,1.608-1.752,2.376-2.688a1.442,1.442,0,0,1,.552-.408.535.535,0,0,0,.408-.552c0-.336-.36-.7-.84-1.008a3.753,3.753,0,0,0-1.9-.72c-.408,0-.624.12-.624.264,0,.12.192.24.456.432.36.24.6.48.6.672a1.336,1.336,0,0,1-.312.744A26.649,26.649,0,0,1,58.3-8.88a42.914,42.914,0,0,1-5.5,5.016c-.192.144-.288.288-.288.408a.411.411,0,0,0,.336.312,1.246,1.246,0,0,0,.48-.192A28.918,28.918,0,0,0,59.688-8.4c.1.144.12.288.12.72,0,.912-.024,1.992-.024,2.976-.024,1.032-.024,1.8-.072,2.472a2.76,2.76,0,0,1-.12.912,2,2,0,0,0-.144.6A2.765,2.765,0,0,0,59.856.456a.876.876,0,0,0,.744.48c.336,0,.576-.312.576-.84,0-.984,0-2.136-.024-3.456-.024-1.152,0-2.208,0-2.976A7.743,7.743,0,0,1,61.2-7.56a1.466,1.466,0,0,0,.072-.312C61.272-8.184,60.96-8.544,60.312-9.048Zm25.056-1.728a18.861,18.861,0,0,0-3.888-1.776,3.163,3.163,0,0,0-.6-.12c-.216,0-.384.12-.384.312,0,.144.048.24.24.336A21.385,21.385,0,0,1,84.624-9.5,33.087,33.087,0,0,1,80.64-4.536,29.822,29.822,0,0,1,75.7-.5c-.216.144-.288.264-.288.408A.313.313,0,0,0,75.7.216a1.854,1.854,0,0,0,.672-.24,22.9,22.9,0,0,0,4.92-3.264A27.531,27.531,0,0,0,85.848-8.4,13.625,13.625,0,0,1,87.816-6c.336.5.624.7.96.7a.853.853,0,0,0,.84-.912,2.676,2.676,0,0,0-.792-1.7A13.267,13.267,0,0,0,86.76-9.864c.936-1.608,1.56-2.832,2.256-4.3a2,2,0,0,1,.72-.984.837.837,0,0,0,.5-.72c0-.552-.528-1.008-1.152-1.416a3.924,3.924,0,0,0-2.04-.84c-.36,0-.936.168-.96.312a.2.2,0,0,0,.144.264,4.336,4.336,0,0,1,.936.528.979.979,0,0,1,.48.768,3.991,3.991,0,0,1-.288,1.3A37.966,37.966,0,0,1,85.368-10.776Zm25.8,1.272a1.584,1.584,0,0,1,.072-.576.713.713,0,0,0,.1-.432c0-.408-.264-.72-1.368-1.536,1.152-1.176,2.088-2.28,3.1-3.5a1.567,1.567,0,0,1,.7-.552c.336-.168.552-.336.552-.7,0-.432-.24-.672-.936-1.152a5.045,5.045,0,0,0-2.112-.84c-.36,0-.792.144-.792.336,0,.144.168.24.48.432.528.312.72.6.72.792a1.458,1.458,0,0,1-.312.792,41.489,41.489,0,0,1-3.624,4.584,51.658,51.658,0,0,1-7.08,6.528c-.264.192-.384.312-.384.456a.317.317,0,0,0,.312.36,1.231,1.231,0,0,0,.576-.216,38.675,38.675,0,0,0,8.16-6.648c.216.264.264.528.264,1.248,0,2.52-.024,4.68-.048,6.7a5.893,5.893,0,0,1-.192,1.56,1.629,1.629,0,0,0-.12.6,2.735,2.735,0,0,0,.36,1.32,1.205,1.205,0,0,0,.96.672c.408,0,.672-.408.672-.936,0-1.656-.048-3.912-.048-5.688Zm21.84-4.128a3.508,3.508,0,0,0,1.248.312,8.589,8.589,0,0,0,1.416-.192c.936-.192,2.256-.432,2.616-.456a.11.11,0,0,1,.12.1.742.742,0,0,1-.048.192,33.343,33.343,0,0,1-4.536,7.032,31.148,31.148,0,0,1-7.44,6.432c-.216.144-.312.24-.312.384a.333.333,0,0,0,.288.312,1.174,1.174,0,0,0,.456-.12,25.039,25.039,0,0,0,8.112-6.024,36.928,36.928,0,0,0,4.848-6.792,1.343,1.343,0,0,1,.768-.7c.312-.144.552-.312.552-.624,0-.384-.36-.72-.912-1.152a2.521,2.521,0,0,0-1.224-.648.783.783,0,0,0-.552.288,1.047,1.047,0,0,1-.552.312c-.816.144-1.56.264-2.64.432a9.106,9.106,0,0,1-1.368.144,1.369,1.369,0,0,1-.312-.024c.672-.912.792-1.08,1.032-1.224a.829.829,0,0,0,.48-.7c0-.36-.24-.648-.816-1.032a4.447,4.447,0,0,0-1.824-.84c-.432,0-.864.168-.864.288s.144.168.312.264c.624.36.864.672.864.936a3.829,3.829,0,0,1-.552,1.392,28.488,28.488,0,0,1-2.16,3.168A30.516,30.516,0,0,1,126.552-8.4c-.336.312-.552.552-.552.72a.3.3,0,0,0,.312.336.808.808,0,0,0,.456-.168,21.783,21.783,0,0,0,3.456-2.856A30.138,30.138,0,0,0,133.008-13.632Zm30.84,9.36c-.12-2.112-.216-4.56-.216-7.152a18.708,18.708,0,0,0,3.24-.816c.48-.168.7-.408.7-.768,0-.408-.288-.672-1.08-.672a1.734,1.734,0,0,0-1.056.288,3.223,3.223,0,0,1-.648.312c-.336.1-.672.192-1.128.288,0-.888.072-1.464.12-2.184a1.445,1.445,0,0,1,.336-.96.683.683,0,0,0,.264-.552c0-.5-.528-.816-1.032-1.08A3.411,3.411,0,0,0,161.76-18a2.3,2.3,0,0,0-.912.264c-.168.1-.384.264-.384.384,0,.072.048.12.168.12a2.584,2.584,0,0,1,.528.048,2.951,2.951,0,0,1,.7.192c.336.168.384.456.432,1.1.024.936.072,1.9.072,3.384a20.872,20.872,0,0,1-3.7.36,2.473,2.473,0,0,1-2.088-.912c-.12-.144-.216-.216-.312-.216a.26.26,0,0,0-.192.192,1.077,1.077,0,0,0,.1.408,2.6,2.6,0,0,0,2.76,1.68,27.284,27.284,0,0,0,3.432-.216c.024,2.208.072,4.368.1,6.552A10.788,10.788,0,0,0,160.2-4.9c-2.16,0-3.408,1.1-3.408,2.424,0,1.344,1.368,2.376,3.288,2.376,2.328,0,3.744-.984,3.744-2.736a12.2,12.2,0,0,1,2.424,1.752,1.364,1.364,0,0,0,.912.432.765.765,0,0,0,.792-.864A1.1,1.1,0,0,0,167.5-2.3,13.9,13.9,0,0,0,163.848-4.272Zm-1.488.864a1.4,1.4,0,0,1,0,.456,1.588,1.588,0,0,1-.552,1.1,3.079,3.079,0,0,1-1.992.576c-1.584,0-2.256-.576-2.256-1.248,0-1.008,1.128-1.44,2.112-1.44A6.708,6.708,0,0,1,162.36-3.408Zm-11.016-2.76a21.863,21.863,0,0,1,1.488-6.984,2.728,2.728,0,0,1,.528-1.032,1.022,1.022,0,0,0,.264-.768,2.866,2.866,0,0,0-.816-1.872,5.089,5.089,0,0,0-1.224-1.1A.547.547,0,0,0,151.32-18c-.144,0-.24.072-.24.192a.69.69,0,0,0,.168.36,3.076,3.076,0,0,1,.528,1.728,7.627,7.627,0,0,1-.36,2.064,35.249,35.249,0,0,0-1.2,7.992,13.29,13.29,0,0,0,.888,5.3,1.221,1.221,0,0,0,1.032.816.606.606,0,0,0,.624-.672,3.851,3.851,0,0,0-.072-.72,5.7,5.7,0,0,1-.072-.936,4.591,4.591,0,0,1,.192-1.152c.36-1.3.816-2.9,1.392-4.776a1.676,1.676,0,0,0,.072-.288.284.284,0,0,0-.264-.264c-.12,0-.24.1-.312.288-.576,1.368-1.224,2.976-1.776,4.2-.1.216-.144.312-.24.312s-.168-.1-.216-.36A13.17,13.17,0,0,1,151.344-6.168ZM182.088.168a11.345,11.345,0,0,0,5.472-1.512,14.414,14.414,0,0,0,4.392-3.936.688.688,0,0,0,.192-.48.261.261,0,0,0-.264-.216c-.1,0-.192.072-.312.192A16.494,16.494,0,0,1,187.8-2.952a13.145,13.145,0,0,1-5.376,1.56,3.355,3.355,0,0,1-2.088-.5,3.054,3.054,0,0,1-.6-2.28c0-1.248.1-3.6.24-5.832.12-1.92.264-3.384.408-4.536a1.146,1.146,0,0,1,.336-.768.96.96,0,0,0,.336-.672,1.938,1.938,0,0,0-.864-1.3,3.91,3.91,0,0,0-1.944-.912,2.415,2.415,0,0,0-.864.144c-.192.072-.288.192-.288.312s.1.144.288.216a3.918,3.918,0,0,1,.84.384c.36.24.48.6.456,1.488-.048,1.92-.1,3.792-.168,5.688-.1,2.328-.192,4.608-.192,6.12C178.32-.96,179.784.168,182.088.168ZM207.84-14.376a10.276,10.276,0,0,0-3.336,3.432,7.661,7.661,0,0,0-1.08,4.1,5.79,5.79,0,0,0,2.568,4.752,10.684,10.684,0,0,0,5.616,1.776c1.008,0,1.272-.288,1.272-.7a1.092,1.092,0,0,0-.648-1.032,3.2,3.2,0,0,0-1.656-.408,8.172,8.172,0,0,1-4.392-1.464,4.525,4.525,0,0,1-1.656-3.6,6.917,6.917,0,0,1,1.9-4.656A7.718,7.718,0,0,1,209.88-14.4a15.418,15.418,0,0,1,4.224-.528c.6-.024.864-.24.84-.744,0-.36-.312-.6-.648-.744a3.87,3.87,0,0,0-1.56-.408,1.639,1.639,0,0,0-.816.24,2.874,2.874,0,0,1-.936.36c-3.528.912-7.128,1.848-10.608,2.736a8.537,8.537,0,0,1-1.44.264,2.126,2.126,0,0,1-1.8-.84.49.49,0,0,0-.312-.192c-.12,0-.216.264-.216.6a2.568,2.568,0,0,0,.72,1.344c.624.72,1.2,1.032,1.608,1.008a.888.888,0,0,0,.648-.24,3.324,3.324,0,0,1,1.032-.552c1.848-.648,4.56-1.56,7.2-2.376Zm26.808,1.008c-.168,0-.264.1-.264.216,0,.168.072.24.216.336a8.086,8.086,0,0,1,2.64,2.424,6.591,6.591,0,0,1,1.2,2.976c0,.36-.12.48-.48.552-.528.1-1.08.12-1.752.192-.24.024-.432.072-.432.192,0,.168.1.24.384.312.576.144,1.08.264,1.488.384a1.539,1.539,0,0,1,.936.672.71.71,0,0,0,.648.384.905.905,0,0,0,.7-.384,2.323,2.323,0,0,0,.36-1.416,6.7,6.7,0,0,0-.888-3.048,7.9,7.9,0,0,0-2.616-2.808A6.465,6.465,0,0,0,234.648-13.368ZM227.184-1.44c.552,0,.816-.336.792-.72a1.724,1.724,0,0,0-.24-.7,1.213,1.213,0,0,1-.144-.6,3.58,3.58,0,0,1,.336-1.176c.384-.984,1.248-2.88,1.992-4.416a.782.782,0,0,0,.1-.312.332.332,0,0,0-.288-.264.64.64,0,0,0-.408.312c-1.008,1.608-2.04,3.36-2.76,4.536-.216.336-.384.456-.576.456-.336,0-.816-.432-1.248-1.512a10.062,10.062,0,0,1-.576-3.312,12.308,12.308,0,0,1,.36-3.432,2.186,2.186,0,0,0,.216-.744,2.756,2.756,0,0,0-1.128-1.872,3.189,3.189,0,0,0-1.56-.792c-.192,0-.384.024-.384.144,0,.072.024.12.168.24a2.527,2.527,0,0,1,.96,1.56,26.094,26.094,0,0,1,.072,3.048,22.156,22.156,0,0,0,.288,3.984,7.787,7.787,0,0,0,2.328,4.656A3.223,3.223,0,0,0,227.184-1.44Zm26.664-12.48a12.981,12.981,0,0,1,.552-1.44,2.134,2.134,0,0,1,.7-1.056.717.717,0,0,0,.312-.6c0-.216-.048-.432-.456-.744a4.556,4.556,0,0,0-2.16-.912,1.783,1.783,0,0,0-.912.264c-.1.048-.216.12-.216.24,0,.1.048.168.216.216a4.059,4.059,0,0,1,.96.312.678.678,0,0,1,.432.648,4.288,4.288,0,0,1-.192,1.176c-.168.648-.384,1.344-.672,2.28a16.679,16.679,0,0,1-3.408.648,3.425,3.425,0,0,1-2.04-.576.633.633,0,0,0-.36-.12.257.257,0,0,0-.216.24c0,.264.264.528.648.84a3.841,3.841,0,0,0,2.328.792,12.445,12.445,0,0,0,2.544-.36c-1.392,3.648-2.808,7.032-4.488,10.44a2.265,2.265,0,0,0-.312.912,1.116,1.116,0,0,0,.24.648.856.856,0,0,0,.552.264c.384,0,.744-.216.984-.816,1.608-3.864,3-7.824,4.44-11.76a39.773,39.773,0,0,0,3.936-1.3c.528-.192.792-.432.768-.84,0-.456-.48-.7-.864-.7a3,3,0,0,0-.864.264A24.08,24.08,0,0,1,253.848-13.92Zm.888,10.56a2.853,2.853,0,0,0,1.272,2.5,7.953,7.953,0,0,0,4.68,1.128c.816,0,1.944-.072,2.592-.144.816-.12,1.272-.336,1.272-.792a.865.865,0,0,0-.5-.816,2.443,2.443,0,0,0-1.08-.24,2.891,2.891,0,0,0-1.008.192,9.6,9.6,0,0,1-2.5.24,5.356,5.356,0,0,1-3.12-.816,2.059,2.059,0,0,1-.792-1.68,4.325,4.325,0,0,1,.12-1.1,2.161,2.161,0,0,0,.072-.384.185.185,0,0,0-.192-.168c-.144,0-.288.168-.432.432A3.369,3.369,0,0,0,254.736-3.36Zm5.52-6.888c.144,0,.168.072.072.144-.912.7-1.728,1.44-2.28,1.944a.421.421,0,0,0-.168.264c0,.1.144.264.216.264a.632.632,0,0,0,.36-.144c.816-.5,1.752-1.152,2.352-1.512a1.951,1.951,0,0,1,.984-.336,2.336,2.336,0,0,1,.768.168,1.454,1.454,0,0,0,.552.12.6.6,0,0,0,.672-.6c0-.528-.312-.744-.864-.984a7.284,7.284,0,0,0-2.808-.48,7.922,7.922,0,0,0-2.928.576,5.535,5.535,0,0,0-1.608.984.378.378,0,0,0-.168.312.237.237,0,0,0,.24.192,1.082,1.082,0,0,0,.264-.072,9.2,9.2,0,0,1,3.048-.816A12.456,12.456,0,0,1,260.256-10.248Zm24.768-7.3a.247.247,0,0,0-.264.24.372.372,0,0,0,.168.24,8.3,8.3,0,0,1,2.016,2.3q.324.648.792.648a.668.668,0,0,0,.672-.72c0-.5-.336-.936-.912-1.44a5.4,5.4,0,0,0-2.088-1.2A1.366,1.366,0,0,0,285.024-17.544Zm1.944-1.632a.241.241,0,0,0-.24.24.289.289,0,0,0,.168.24A7.319,7.319,0,0,1,289.1-16.44c.264.456.456.576.768.576a.681.681,0,0,0,.648-.768c0-.552-.528-1.1-1.1-1.512a5.668,5.668,0,0,0-1.92-.936A3.134,3.134,0,0,0,286.968-19.176ZM278.376-13.8a12.978,12.978,0,0,1,.552-1.44,2.134,2.134,0,0,1,.7-1.056.717.717,0,0,0,.312-.6c0-.216-.048-.432-.456-.744a4.556,4.556,0,0,0-2.16-.912,1.783,1.783,0,0,0-.912.264c-.1.048-.216.12-.216.24,0,.1.048.168.216.216a4.059,4.059,0,0,1,.96.312.679.679,0,0,1,.432.648,4.289,4.289,0,0,1-.192,1.176c-.168.648-.384,1.344-.672,2.28a16.678,16.678,0,0,1-3.408.648,3.425,3.425,0,0,1-2.04-.576.633.633,0,0,0-.36-.12.257.257,0,0,0-.216.24c0,.264.264.528.648.84a3.841,3.841,0,0,0,2.328.792,12.445,12.445,0,0,0,2.544-.36c-1.392,3.648-2.808,7.032-4.488,10.44a2.265,2.265,0,0,0-.312.912,1.115,1.115,0,0,0,.24.648.856.856,0,0,0,.552.264c.384,0,.744-.216.984-.816,1.608-3.864,3-7.824,4.44-11.76a39.77,39.77,0,0,0,3.936-1.3c.528-.192.792-.432.768-.84,0-.456-.48-.7-.864-.7a3,3,0,0,0-.864.264A24.079,24.079,0,0,1,278.376-13.8Zm.888,10.56a2.853,2.853,0,0,0,1.272,2.5,7.953,7.953,0,0,0,4.68,1.128c.816,0,1.944-.072,2.592-.144.816-.12,1.272-.336,1.272-.792a.865.865,0,0,0-.5-.816,2.443,2.443,0,0,0-1.08-.24,2.891,2.891,0,0,0-1.008.192,9.6,9.6,0,0,1-2.5.24,5.356,5.356,0,0,1-3.12-.816,2.059,2.059,0,0,1-.792-1.68,4.325,4.325,0,0,1,.12-1.1,2.162,2.162,0,0,0,.072-.384.185.185,0,0,0-.192-.168c-.144,0-.288.168-.432.432A3.369,3.369,0,0,0,279.264-3.24Zm5.52-6.888c.144,0,.168.072.072.144-.912.7-1.728,1.44-2.28,1.944a.421.421,0,0,0-.168.264c0,.1.144.264.216.264a.632.632,0,0,0,.36-.144c.816-.5,1.752-1.152,2.352-1.512a1.951,1.951,0,0,1,.984-.336,2.336,2.336,0,0,1,.768.168,1.454,1.454,0,0,0,.552.12.6.6,0,0,0,.672-.6c0-.528-.312-.744-.864-.984a7.284,7.284,0,0,0-2.808-.48,7.922,7.922,0,0,0-2.928.576,5.535,5.535,0,0,0-1.608.984.378.378,0,0,0-.168.312.237.237,0,0,0,.24.192,1.082,1.082,0,0,0,.264-.072,9.2,9.2,0,0,1,3.048-.816A12.455,12.455,0,0,1,284.784-10.128Zm25.8-3.5c0-.72.024-1.344.072-2.088a.993.993,0,0,1,.24-.672.675.675,0,0,0,.24-.5c0-.456-.336-.744-1.008-1.176a3.251,3.251,0,0,0-1.512-.552,1.792,1.792,0,0,0-1.08.312c-.264.168-.408.36-.408.48,0,.1.072.12.24.12s.5,0,.768.024a.866.866,0,0,1,.672.36,3.242,3.242,0,0,1,.216,1.248c.048,1.08.072,1.776.072,2.736a23.49,23.49,0,0,1-3.84.48,3.47,3.47,0,0,1-1.968-.528.461.461,0,0,0-.288-.1.237.237,0,0,0-.216.24.62.62,0,0,0,.192.408,3.4,3.4,0,0,0,2.64,1.1,9.532,9.532,0,0,0,1.344-.1c.6-.1,1.368-.216,2.136-.336.024.864.024,2.208.024,3,0,2.808-.36,4.632-1.152,6a9.145,9.145,0,0,1-4.44,3.624.4.4,0,0,0-.288.336.24.24,0,0,0,.264.264,1.845,1.845,0,0,0,.624-.12,9.435,9.435,0,0,0,5.088-3.408c.912-1.32,1.392-2.856,1.392-5.808,0-1.128,0-2.856-.024-4.128.528-.1,1.152-.168,1.728-.264.6-.1,1.152-.168,1.632-.24.528-.072.816-.24.816-.624a.7.7,0,0,0-.552-.7,3,3,0,0,0-1.032-.168,1.051,1.051,0,0,0-.6.216,2.522,2.522,0,0,1-.744.288C311.544-13.824,311.016-13.7,310.584-13.632Zm-12.7-4.3a.237.237,0,0,0-.24.192.722.722,0,0,0,.168.336,4.123,4.123,0,0,1,.624,1.9,10.209,10.209,0,0,1-.24,1.752,36.81,36.81,0,0,0-.792,6.5,9.951,9.951,0,0,0,1.056,4.9c.336.624.7.96,1.128.96.456,0,.648-.312.648-.72,0-.36-.12-1.008-.12-1.512a6.144,6.144,0,0,1,.288-1.656c.24-.936.72-2.664,1.08-3.984a1.193,1.193,0,0,0,.072-.384.233.233,0,0,0-.264-.24c-.192,0-.312.144-.384.336-.528,1.464-.984,2.64-1.656,4.44-.048.144-.144.264-.216.264s-.168-.072-.216-.216a8.687,8.687,0,0,1-.264-2.76,18.2,18.2,0,0,1,1.008-5.4,6.282,6.282,0,0,1,.36-.936,2.3,2.3,0,0,0,.216-.888,3.13,3.13,0,0,0-.576-1.584C299.16-17.184,298.392-17.928,297.888-17.928ZM330.936-2.352A16.375,16.375,0,0,1,335.52.408a1.226,1.226,0,0,0,.84.312.844.844,0,0,0,.744-.912,1.4,1.4,0,0,0-.792-1.176,18.841,18.841,0,0,0-5.5-2.376c-.072-1.32-.168-3.072-.192-4.44a19.788,19.788,0,0,0,4.224-1.032c.552-.216.816-.456.816-.816,0-.384-.408-.624-1.128-.624a1.76,1.76,0,0,0-1.032.288,2.819,2.819,0,0,1-.768.432,13.746,13.746,0,0,1-2.136.48c0-1.3,0-2.424.024-3.672a49.774,49.774,0,0,0,5.016-.912c1.056-.24,1.32-.432,1.32-.864,0-.552-.888-.816-1.488-.816a1.937,1.937,0,0,0-1.08.264A4.126,4.126,0,0,1,333.24-15a25.021,25.021,0,0,1-2.616.552c0-.456.024-.936.1-1.7a1.1,1.1,0,0,1,.384-.816.71.71,0,0,0,.288-.576c0-.264-.24-.7-.96-1.1a3.361,3.361,0,0,0-1.608-.528,1.688,1.688,0,0,0-.888.264c-.216.144-.336.24-.336.384a.171.171,0,0,0,.168.192,5.22,5.22,0,0,1,.6.024,1.138,1.138,0,0,1,.648.288c.192.192.216.432.24,1.008.024.744.024,1.944.024,2.784a37.243,37.243,0,0,1-4.656.432,4.321,4.321,0,0,1-2.784-.816.416.416,0,0,0-.288-.12.206.206,0,0,0-.192.168.581.581,0,0,0,.1.312,3.554,3.554,0,0,0,3.336,1.632,35.4,35.4,0,0,0,4.536-.312c.024,1.3.048,2.376.048,3.672-.768.072-1.776.12-2.544.12-1.464,0-1.92-.288-1.92-.888a1.479,1.479,0,0,1,.12-.648.916.916,0,0,0,.1-.312c0-.1-.12-.168-.216-.168-.12,0-.24.1-.36.264a2.139,2.139,0,0,0-.408,1.3c0,1.032.888,1.656,3.144,1.656.648,0,1.56-.024,2.112-.072.024,1.2.024,2.64.048,4.008A18.986,18.986,0,0,0,327-4.176c-1.728,0-3.888.648-3.888,2.472,0,1.728,1.992,2.52,4.008,2.52A4.269,4.269,0,0,0,330,.048a2.6,2.6,0,0,0,.936-2.184Zm-1.488-.408a2.225,2.225,0,0,1-.528,1.752,2.982,2.982,0,0,1-2.16.6c-1.392,0-2.808-.36-2.808-1.392s1.392-1.392,2.52-1.392A11.875,11.875,0,0,1,329.448-2.76Zm26.976-11.616c.024-.744.048-1.32.072-1.776a1.046,1.046,0,0,1,.264-.7.933.933,0,0,0,.312-.672c0-.288-.192-.5-.672-.864a3.056,3.056,0,0,0-1.752-.72,2.062,2.062,0,0,0-1.2.48c-.168.144-.216.216-.216.36,0,.1.1.144.24.144a6.6,6.6,0,0,1,.7.072.745.745,0,0,1,.672.384,3.327,3.327,0,0,1,.144,1.056c.024.84.024,1.464.024,2.352-2.208.264-4.632.624-6.936,1.008a8.79,8.79,0,0,1-1.536.192c-.7,0-1.056-.192-1.8-.912a.259.259,0,0,0-.168-.072c-.12,0-.192.168-.192.456a2.475,2.475,0,0,0,.984,1.56,2.184,2.184,0,0,0,1.416.7,1.218,1.218,0,0,0,.7-.24,5.192,5.192,0,0,1,1.632-.576,47.792,47.792,0,0,1,5.928-1.056c.024,1.032.048,1.992.048,3.024a2.864,2.864,0,0,0-1.536-.384,2.823,2.823,0,0,0-2.712,2.928c0,2.064,1.248,2.952,2.616,2.952a2.466,2.466,0,0,0,1.656-.552,6.506,6.506,0,0,1-2.28,3.5A13.128,13.128,0,0,1,348.984.5c-.24.1-.312.216-.312.336,0,.144.12.264.336.264a2.983,2.983,0,0,0,.744-.144,13.457,13.457,0,0,0,4.1-1.92,6.7,6.7,0,0,0,2.88-5.376,7.182,7.182,0,0,0-.408-2.64c0-1.368.024-2.616.048-4.368,1.32-.1,2.472-.1,3.744-.1a16.334,16.334,0,0,1,2.9.264,7.813,7.813,0,0,0,1.272.216.57.57,0,0,0,.552-.6,1.031,1.031,0,0,0-.6-.888,4.332,4.332,0,0,0-1.872-.624,1.7,1.7,0,0,0-.744.168,2.976,2.976,0,0,1-1.224.24C359.208-14.592,357.888-14.52,356.424-14.376ZM353.472-9.84c1.128,0,1.656.912,1.728,1.968-.024,1.152-.648,1.848-1.656,1.848a1.626,1.626,0,0,1-1.68-1.776C351.864-9.168,352.632-9.84,353.472-9.84Zm36.024,3.1a5.7,5.7,0,0,0-1.92-3.7,9.5,9.5,0,0,0-3.36-2.28.438.438,0,0,0-.216-.048c-.216,0-.36.12-.36.24a.5.5,0,0,0,.24.336,10.3,10.3,0,0,1,2.64,2.52,3.9,3.9,0,0,1,.816,1.848c0,.264-.1.336-.384.432a20.9,20.9,0,0,1-2.688.672c-.192.048-.264.144-.264.288a.3.3,0,0,0,.336.312c1.1-.072,1.944-.12,2.712-.12a1.349,1.349,0,0,1,.888.264,1.1,1.1,0,0,0,.7.264C389.088-5.712,389.5-6.024,389.5-6.744ZM377.664-12.96c.336-.744.672-1.44.96-2.088a1.639,1.639,0,0,1,.576-.768c.312-.144.456-.312.456-.552a1,1,0,0,0-.384-.792,3.9,3.9,0,0,0-2.4-1.008,2.092,2.092,0,0,0-.864.192c-.168.1-.312.192-.312.312s.1.168.336.216a3.386,3.386,0,0,1,1.056.36c.312.216.36.336.36.552a2.762,2.762,0,0,1-.168.936,26.809,26.809,0,0,1-1.08,2.9c-1.152.312-2.064.552-2.9.744a7.35,7.35,0,0,1-1.728.312c-.384,0-.744-.336-1.176-.888-.12-.168-.168-.216-.264-.216-.12,0-.24.312-.24.576a2.687,2.687,0,0,0,.912,1.68,1.611,1.611,0,0,0,1.08.576.871.871,0,0,0,.6-.264,2.613,2.613,0,0,1,.7-.36c.7-.288,1.632-.672,2.52-.984-.48,1.008-1.008,1.992-1.632,3.168-1.2,2.208-2.5,4.368-3.912,6.5a1.483,1.483,0,0,0-.312.888.712.712,0,0,0,.768.672.9.9,0,0,0,.84-.48c1.3-2.208,2.376-4.32,3.624-6.744.72-1.392,1.392-2.9,2.136-4.44a6.859,6.859,0,0,1,1.656-.288,1.1,1.1,0,0,1,1.032.408,3.268,3.268,0,0,1,.408,2.016,15.94,15.94,0,0,1-.624,4.08,8.282,8.282,0,0,1-1.7,3.264,1.242,1.242,0,0,1-.912.456,1.567,1.567,0,0,1-.7-.168c-.624-.36-1.2-.744-1.9-1.224a.438.438,0,0,0-.264-.12c-.12,0-.24.168-.24.264a.324.324,0,0,0,.12.24c.576.6,1.008,1.056,1.392,1.512a1.581,1.581,0,0,1,.36.864c.1.48.336.624.888.624a3.163,3.163,0,0,0,2.136-1.08,7.858,7.858,0,0,0,1.872-3.072,15.434,15.434,0,0,0,.936-5.088,5.008,5.008,0,0,0-.7-2.856,2.222,2.222,0,0,0-1.9-.984A7.459,7.459,0,0,0,377.664-12.96Zm26.3-5.952c-3.432,0-5.5,2.736-5.5,4.392,0,.768.336.96.816.96.792,0,1.7-.5,1.7-1.2a3.89,3.89,0,0,1,.384-2.064,2.676,2.676,0,0,1,2.5-1.32c2.112,0,3.072,1.632,3.072,3.624,0,2.064-1.368,3.312-2.472,4.7A7.069,7.069,0,0,0,402.96-4.9q0,.288.216.288c.5,0,.72-.168.72-.432a4.093,4.093,0,0,1,1.632-4.032c1.536-1.3,3.672-2.664,3.672-5.352C409.2-16.968,407.352-18.912,403.968-18.912ZM403.392-2.28A1.482,1.482,0,0,0,401.88-.744,1.466,1.466,0,0,0,403.392.72,1.475,1.475,0,0,0,404.88-.744,1.491,1.491,0,0,0,403.392-2.28Z" transform="translate(0 21)" fill="#f59c9c"/>
  </g>
</svg>
