<svg id="グループ_1794" data-name="グループ 1794" xmlns="http://www.w3.org/2000/svg" width="980" height="281" viewBox="0 0 980 281">
  <path id="パス_3895" data-name="パス 3895" d="M1.977,2.523l2.164,9.336L6.734,2.523H8.422l2.594,9.336L13.18,2.523h1.7L11.867,14H10.234L7.586,4.484,4.922,14H3.289l-3-11.477ZM22.1,9.3l-1.742-5.07L18.511,9.3ZM19.55,2.523h1.758L25.472,14h-1.7L22.6,10.563H18.066L16.824,14H15.23ZM28.351,14H26.476l4.109-5.883L26.733,2.523h1.945l2.93,4.391,2.906-4.391h1.852L32.515,8.117,36.554,14h-1.93L31.53,9.281ZM38.819,4.672a53.265,53.265,0,0,1,5.52-.528,32.746,32.746,0,0,0,3.52-.352,10.473,10.473,0,0,0-1.52.848,6.088,6.088,0,0,0-2.992,4.912,3.874,3.874,0,0,0,1.776,3.264,8.071,8.071,0,0,0,3.456,1.232c.288.048.32.064.5.1l.208-1.3h-.16a8.2,8.2,0,0,1-2.4-.512,3.137,3.137,0,0,1-2.24-2.96,4.89,4.89,0,0,1,1.968-3.7,7.87,7.87,0,0,1,3.072-1.6,6.711,6.711,0,0,1,1.792-.224l-.1-1.184a10.806,10.806,0,0,1-1.9.176L48.4,2.88c-.528.016-.736.032-2.7.144l-2.512.16c-1.968.112-2.064.128-2.96.192-.5.032-.688.048-.912.048-.112,0-.272,0-.576-.016Zm9.824,1.536a11.252,11.252,0,0,1,1.632,2.544l.816-.48a12.147,12.147,0,0,0-1.648-2.48Zm1.824-.864A12.661,12.661,0,0,1,52.1,7.856l.8-.448a12.966,12.966,0,0,0-1.648-2.5ZM58.275,3.6h-2.16a9.067,9.067,0,0,1-1.456-.1V4.5a8.74,8.74,0,0,1,1.44-.08h2.176v.992H56.787c-.672,0-1.1-.016-1.52-.048a10.661,10.661,0,0,1,.048,1.408V8.64c0,.8-.016,1.152-.048,1.5.384-.032.816-.048,1.488-.048h1.52v1.072h-1.76a8.815,8.815,0,0,1-1.472-.08v.992A13.775,13.775,0,0,1,56.5,12h1.776v1.248c-1.632.16-2.544.224-3.04.224-.144,0-.416-.016-.672-.032l.208,1.1a7.473,7.473,0,0,1,.848-.128c2.72-.272,4.32-.48,6.56-.864V12.7c-1.408.24-1.952.32-2.976.448V12h1.76a7.977,7.977,0,0,1,1.312.064V11.1a9.652,9.652,0,0,1-1.456.064H59.2V10.1h1.6c.672,0,1.088.016,1.472.048a10.855,10.855,0,0,1-.064-1.52V6.768a8.5,8.5,0,0,1,.064-1.408c-.384.032-.784.048-1.408.048H59.2V4.416h2.048a7.036,7.036,0,0,1,1.28.064V3.52a7.335,7.335,0,0,1-1.408.08H59.2V2.336a21.7,21.7,0,0,0,2.288-.5c.576-.144.576-.144.8-.192l-.7-.816a20.47,20.47,0,0,1-6.672,1.1,2.162,2.162,0,0,1,.4.848c1.216-.1,1.808-.144,2.96-.3Zm0,2.576V7.344H56.227V6.176Zm.928,0h2.112V7.344H59.2Zm-.928,1.9V9.328H56.227V8.08Zm.928,0h2.112V9.328H59.2Zm6.448-3.728c.016-.544.016-1.088.032-2.224a4.793,4.793,0,0,1,.1-1.216H64.6a8.948,8.948,0,0,1,.1,1.84c0,.592,0,1.056-.016,1.6h-.528a8.411,8.411,0,0,1-1.424-.08V5.36a9.769,9.769,0,0,1,1.488-.08h.416A16.907,16.907,0,0,1,63.4,11.84a8.277,8.277,0,0,1-1.856,2.592,3.574,3.574,0,0,1,.912.688,11.07,11.07,0,0,0,2.512-4.7,24.02,24.02,0,0,0,.656-5.136h1.968a40.7,40.7,0,0,1-.576,8.032c-.112.48-.288.592-.88.592A8.86,8.86,0,0,1,64.4,13.68a4.285,4.285,0,0,1,.176,1.072,15.736,15.736,0,0,0,1.7.128c.88,0,1.312-.208,1.536-.784.432-1.04.64-3.3.752-8.128.032-1.008.048-1.328.08-1.68a11.7,11.7,0,0,1-1.424.064Zm7.088.336a8.731,8.731,0,0,1,.992-.048,34.039,34.039,0,0,0,4.32-.288c.4.864.5,1.04.912,1.824a31.874,31.874,0,0,1-5.04.4,12.435,12.435,0,0,1-1.28-.048l.032,1.056c.288-.032.352-.032,1.12-.064a33.334,33.334,0,0,0,5.616-.464A14.665,14.665,0,0,0,81.123,9.52a9.618,9.618,0,0,0-3.232-.464c-3.04,0-4.88,1.04-4.88,2.768a2.235,2.235,0,0,0,1.2,1.984,6.456,6.456,0,0,0,3.3.672,13.936,13.936,0,0,0,4.1-.592,9.317,9.317,0,0,1,.96-.272l-.224-1.248A10.786,10.786,0,0,1,77.6,13.44c-2.192,0-3.408-.576-3.408-1.632,0-1.1,1.488-1.824,3.792-1.824a16.176,16.176,0,0,1,2.1.144,4.338,4.338,0,0,1,1.76.608l.944-.672A18.754,18.754,0,0,1,80.435,6.88c.592-.112,1.392-.288,2.512-.576.528-.144.592-.144.864-.208l-.128-1.072a16.276,16.276,0,0,1-3.664.992c-.24-.432-.672-1.28-.912-1.808.9-.144,2.608-.512,4.032-.9l-.1-1.04a20.241,20.241,0,0,1-4.272,1.056,13.325,13.325,0,0,1-.848-2.256l-1.2.208a20.719,20.719,0,0,1,.96,2.192,31.613,31.613,0,0,1-3.792.224c-.544,0-.816-.016-1.2-.048ZM92.291,3.232a22.388,22.388,0,0,1-3.424-.176l-.016,1.1a2.837,2.837,0,0,1,.352-.016h.256c.592.016,2.1.048,2.352.048a1.772,1.772,0,0,0,.3-.032l-.144.24a15.921,15.921,0,0,1-3.584,4.576l.9.9a5.294,5.294,0,0,1,1.232-1.328,6.01,6.01,0,0,1,3.568-1.7c.752,0,1.136.384,1.264,1.264a12.421,12.421,0,0,0-2.384,1.28,3.308,3.308,0,0,0-1.632,2.528c0,1.648,1.392,2.464,4.256,2.464a24.822,24.822,0,0,0,3.888-.32,6.3,6.3,0,0,1,.64-.08l-.144-1.232a13.406,13.406,0,0,1-4.272.624c-2.256,0-3.248-.464-3.248-1.52,0-.96.832-1.712,3.008-2.736a4.2,4.2,0,0,1,.016.48,23.011,23.011,0,0,1-.1,2.3l1.088-.016a3.478,3.478,0,0,1-.032-.576c0-.144,0-.368.016-.72.016-.32.016-.672.016-.88,0-.4,0-.56-.032-.976a26.565,26.565,0,0,1,4.272-1.408l-.512-1.12a3.52,3.52,0,0,1-1.088.464c-.7.256-1.616.592-2.784,1.056a1.942,1.942,0,0,0-2.112-1.776,4.258,4.258,0,0,0-2.416.784c-.16.112-.16.112-.736.56a.123.123,0,0,1-.032-.048V7.232a.016.016,0,0,0,.016-.016c.016-.016.1-.08.208-.16.064-.048.384-.416.544-.608a11.8,11.8,0,0,0,1.44-2.272,51.662,51.662,0,0,0,5.28-.416,4.987,4.987,0,0,1,.64-.08l-.1-1.088a22.519,22.519,0,0,1-5.04.608,2.724,2.724,0,0,0-.336.016c.08-.144.288-.576.5-1.088a3.4,3.4,0,0,1,.416-.864l-1.28-.224a6.79,6.79,0,0,1-.768,2.192Zm18.288,3.04h-3.9V3.264a8.215,8.215,0,0,1,.064-1.184h-1.2a11.342,11.342,0,0,1,.08,1.232V6.48c0,.272-.016.512-.032.816.336-.016.7-.032.992-.032h4V13.12h-4.56V10.16a8.042,8.042,0,0,1,.08-1.36h-1.216a8.885,8.885,0,0,1,.08,1.424v3.52a8.411,8.411,0,0,1-.1,1.344h1.152v-.96h10.4v.96h1.152a8,8,0,0,1-.1-1.344V10.128a8.885,8.885,0,0,1,.08-1.424h-1.216a8.485,8.485,0,0,1,.08,1.376v3.04h-4.768V7.264h4.3c.3,0,.672.016.992.032-.016-.272-.032-.5-.032-.816V3.3A7.891,7.891,0,0,1,117,2.08h-1.2a8.709,8.709,0,0,1,.064,1.168V6.272h-4.208V2.224a7.26,7.26,0,0,1,.112-1.456h-1.3a6.47,6.47,0,0,1,.112,1.456Zm17.968-2.928c-1.088.032-2.336.064-3.872.128-2.576.1-2.576.1-3.04.1-.24,0-.352,0-.64-.016l.048,1.168c1.072-.176,4.3-.336,7.52-.4v.832c0,.192.016.352.016.416,0,.592,0,.656.016.88a2.457,2.457,0,0,0-1.856-.72,2.662,2.662,0,0,0-2.832,2.64,2.675,2.675,0,0,0,4.64,1.664,2.241,2.241,0,0,0,.432-.784,4.144,4.144,0,0,1-1.792,3.376,8.2,8.2,0,0,1-2.592,1.2,3.513,3.513,0,0,1,.7,1.008,10.177,10.177,0,0,0,2.528-1.3,5.15,5.15,0,0,0,2.144-4.176,4.584,4.584,0,0,0-.384-1.888V4.3c1.3-.032,1.472-.032,1.712-.032a28.437,28.437,0,0,1,3.056.08V3.216c-.528.064-1.76.1-4.784.112V3.152a13.246,13.246,0,0,1,.08-2h-1.2a5.391,5.391,0,0,1,.064.928ZM128.5,8.016A1.793,1.793,0,0,1,126.627,9.9a1.546,1.546,0,0,1-1.648-1.584,1.693,1.693,0,0,1,1.776-1.68,2.047,2.047,0,0,1,1.072.256A1.158,1.158,0,0,1,128.5,8.016Zm11.936-5.36a12.9,12.9,0,0,1,.864,1.552l.848-.336c-.432-.7-.464-.752-.784-1.216h1.1a12.692,12.692,0,0,1,1.488.064V1.744a9.7,9.7,0,0,1-1.6.1h-2.4c.208-.352.272-.464.56-.992l-.992-.32a6.214,6.214,0,0,1-1.152,2.016A7.841,7.841,0,0,1,136.915,4a2.272,2.272,0,0,1,.72.688,11.745,11.745,0,0,0,1.792-2.032Zm6.448.016a10.808,10.808,0,0,1,1.024,1.584l.816-.352a11.321,11.321,0,0,0-.848-1.232h1.552a13.13,13.13,0,0,1,1.68.08V1.76a10.071,10.071,0,0,1-1.712.1h-3.584c.24-.5.3-.64.5-1.072l-.976-.24a7.531,7.531,0,0,1-1.76,3.1,2.58,2.58,0,0,1,.784.48,9.763,9.763,0,0,0,1.008-1.456ZM149.491,8.4v5.312c0,.368-.128.464-.624.464a11.079,11.079,0,0,1-1.568-.144,2.961,2.961,0,0,1,.3,1.008c.368.016.768.032,1.248.032,1.28,0,1.616-.256,1.616-1.264V6.1a14.439,14.439,0,0,1,.08-1.776,15.316,15.316,0,0,1-1.7.064h-2.512c-.688,0-1.056-.016-1.44-.048.032.352.048.752.048,1.248V7.216c0,.48-.016.88-.048,1.232.512-.032.976-.048,1.68-.048Zm-3.632-3.28h3.632v.928h-3.632Zm0,1.616h3.632V7.68h-3.632ZM139.6,4.384c-.72,0-1.136-.016-1.584-.048a17.44,17.44,0,0,1,.064,1.76v7.328a11.96,11.96,0,0,1-.1,1.792h1.184a9.184,9.184,0,0,1-.1-1.76V8.4h2.656c.736,0,1.12.016,1.7.048a12.231,12.231,0,0,1-.048-1.232V5.584c0-.544.016-.928.048-1.248-.4.032-.784.048-1.44.048Zm-.528.736h3.392v.928h-3.392Zm0,1.616h3.392V7.68h-3.392Zm7.968,3.888a12.819,12.819,0,0,1,.064-1.5,14.532,14.532,0,0,1-1.648.064h-2.64a13.5,13.5,0,0,1-1.568-.064c.032.432.064.88.064,1.5v2.3a12.87,12.87,0,0,1-.064,1.44h.96v-.72h3.248a15.083,15.083,0,0,1,1.648.064,12.522,12.522,0,0,1-.064-1.488Zm-4.832-.688h3.92v1.088h-3.92Zm0,1.84h3.92v1.1h-3.92Zm17.824-2V11.3h-4.816a10.765,10.765,0,0,1-1.616-.1v1.12a12.117,12.117,0,0,1,1.664-.1h4.768V13.7a7.113,7.113,0,0,1-.1,1.5h1.2a6.45,6.45,0,0,1-.112-1.5V12.224h4.992a11.887,11.887,0,0,1,1.68.1V11.2a10.618,10.618,0,0,1-1.616.1h-5.056V9.776h3.52c.576,0,1.04.016,1.584.064a12.486,12.486,0,0,1-.064-1.568V5.408a13.593,13.593,0,0,1,.064-1.6,11.975,11.975,0,0,1-1.584.064h-.48A17.839,17.839,0,0,0,165.8,1.3l-1.1-.416a13,13,0,0,1-1.744,2.992h-6.208a12,12,0,0,1-1.568-.064,13.945,13.945,0,0,1,.064,1.6V8.32a13.843,13.843,0,0,1-.064,1.52,15.722,15.722,0,0,1,1.584-.064Zm.992-3.456V4.72h4.048v1.6Zm-.992,0h-3.808V4.72h3.808Zm.992,2.592V7.152h4.048v1.76Zm-.992,0h-3.808V7.152h3.808Zm-2.176-5.568A13.7,13.7,0,0,0,156.2,1.056l-.912.432a8.527,8.527,0,0,1,1.616,2.32Zm3.7-.272A12.681,12.681,0,0,0,160.147.656l-.944.32a9.278,9.278,0,0,1,1.376,2.512Zm12.864-2.048a16.46,16.46,0,0,1-.544,3.008c-.3,0-.832.016-1.152.016a10.111,10.111,0,0,1-1.9-.128l-.016,1.1h.208c.048,0,.176,0,.352.016.24,0,.784.016,1.056.016.24,0,.784-.016,1.184-.032a23.958,23.958,0,0,1-1.664,4.128,14.127,14.127,0,0,1-1.536,2.5l1.088.64c.08-.128.176-.32.32-.544.608-1.056.752-1.328,1.136-2.1a29.81,29.81,0,0,0,1.776-4.672,19.316,19.316,0,0,0,2.624-.336c.384-.064.384-.064.56-.1l-.048-1.1A13.314,13.314,0,0,1,175,3.968c.224-.816.32-1.2.432-1.744a5.011,5.011,0,0,1,.256-1.024Zm9.424,4.416a22.052,22.052,0,0,0-4.224-2.112l-.592.9a17.353,17.353,0,0,1,4.24,2.176Zm.032,7.088a1.619,1.619,0,0,1-.288-.256,11.493,11.493,0,0,0-3.136-1.936,19.088,19.088,0,0,1-.176-2.432,4.911,4.911,0,0,1,.208-1.488L179.4,6.3a6.479,6.479,0,0,0-.16,1.552c0,.4.032,1.152.112,2.192a5.28,5.28,0,0,0-1.616-.24,4.676,4.676,0,0,0-1.888.352,2.269,2.269,0,0,0-1.488,2.032c0,1.424,1.2,2.32,3.12,2.32,1.952,0,3.04-.912,3.04-2.56a3.315,3.315,0,0,0-.032-.512,9.152,9.152,0,0,1,2.8,2.176Zm-4.448-1.456s.032.5.032.688c0,1.2-.624,1.744-2,1.744-1.264,0-2.032-.5-2.032-1.312,0-.88.864-1.44,2.224-1.44A4.748,4.748,0,0,1,179.427,11.072Zm7.936-.928c.208-.272.336-.432.448-.56,1.024-1.184,2.272-2.72,2.9-3.568.7-.944.784-1.024,1.1-1.024s.384.048,1.44,1.184a63.986,63.986,0,0,0,5.424,5.312c1.056.9,1.072.912,1.424,1.232l.608-1.312a7.523,7.523,0,0,1-1.328-.96,51.477,51.477,0,0,1-5.472-5.232c-1.168-1.28-1.424-1.472-2.064-1.472-.72,0-1.12.3-2.032,1.52-.784,1.04-2.256,2.816-2.736,3.28a2.55,2.55,0,0,1-.528.4Zm28.688-7.952c-.288.112-.288.112-1.36.112H206.1a11.727,11.727,0,0,1-1.9-.112V3.424a15.449,15.449,0,0,1,1.888-.08h9.088a8.488,8.488,0,0,1-1.792,2.384,6.927,6.927,0,0,1-2.528,1.52,3.143,3.143,0,0,1,.784.912,9.576,9.576,0,0,0,4.672-4.56,2.872,2.872,0,0,1,.384-.64Zm-6.976,2.784a4.225,4.225,0,0,1,.064.864c0,3.12-.624,4.752-2.32,6.112a7.519,7.519,0,0,1-2.928,1.472,3.129,3.129,0,0,1,.736,1.072,8.716,8.716,0,0,0,4.1-2.768c1.088-1.376,1.536-2.96,1.584-5.632a5.8,5.8,0,0,1,.064-1.12Zm14.416.544-2.032.272c-.544.064-1.1.112-1.376.112h-.24l.144,1.2a10.245,10.245,0,0,1,1.568-.272l1.936-.272v3.856c0,1.632.112,2.128.592,2.64.512.528,1.44.752,3.264.752a28.5,28.5,0,0,0,3.792-.288c.432-.048.528-.064.96-.08l-.08-1.3a18.192,18.192,0,0,1-4.656.56c-1.312,0-1.984-.112-2.32-.4s-.4-.624-.4-2.112V6.416c1.824-.256,3.872-.544,6.112-.848.1-.016.128-.016.192-.032.16-.032.224-.048.368-.08a8.854,8.854,0,0,1-3.632,3.712,2.721,2.721,0,0,1,.96.768,12.268,12.268,0,0,0,2.72-2.5,10.78,10.78,0,0,0,1.216-2.048,4.931,4.931,0,0,1,.256-.448l-.784-.656a1.784,1.784,0,0,1-.912.224l-6.5.864V3.04a9.174,9.174,0,0,1,.08-1.472h-1.3a9.176,9.176,0,0,1,.064,1.472Zm14.56.032a13.2,13.2,0,0,1,1.5,3.584l1.088-.368a17.57,17.57,0,0,0-1.584-3.552Zm3.3-.672a14.037,14.037,0,0,1,1.472,3.5l1.056-.368a16.045,16.045,0,0,0-1.552-3.44Zm5.552-.016v.16a6.724,6.724,0,0,1-.176,1.088,12.072,12.072,0,0,1-1.36,3.44,10.27,10.27,0,0,1-5.072,4.176,3.237,3.237,0,0,1,.736.9,11.6,11.6,0,0,0,5.3-4.624,14.405,14.405,0,0,0,1.408-3.584,9.439,9.439,0,0,1,.352-1.3ZM257.651,14.5a10.883,10.883,0,0,1-.08-1.7V7.984a5.587,5.587,0,0,0-.064-.944l.032-.016a1.766,1.766,0,0,0,.5.272A32.621,32.621,0,0,1,264,10.464l.688-1.184a39.682,39.682,0,0,0-7.12-3.376V2.912a10.044,10.044,0,0,1,.08-1.664h-1.376a9.487,9.487,0,0,1,.1,1.632v9.936a10.291,10.291,0,0,1-.1,1.68Zm11.1-2.928a15.968,15.968,0,0,1,3.152,3.488l.9-.848a16.3,16.3,0,0,0-3.216-3.392Zm20-8.912a12.9,12.9,0,0,1,.864,1.552l.848-.336c-.432-.7-.464-.752-.784-1.216h1.1a12.692,12.692,0,0,1,1.488.064V1.744a9.7,9.7,0,0,1-1.6.1h-2.4c.208-.352.272-.464.56-.992l-.992-.32a6.213,6.213,0,0,1-1.152,2.016A7.841,7.841,0,0,1,285.235,4a2.271,2.271,0,0,1,.72.688,11.745,11.745,0,0,0,1.792-2.032Zm6.448.016a10.812,10.812,0,0,1,1.024,1.584l.816-.352a11.328,11.328,0,0,0-.848-1.232h1.552a13.13,13.13,0,0,1,1.68.08V1.76a10.071,10.071,0,0,1-1.712.1h-3.584c.24-.5.3-.64.5-1.072l-.976-.24a7.531,7.531,0,0,1-1.76,3.1,2.58,2.58,0,0,1,.784.48,9.76,9.76,0,0,0,1.008-1.456ZM297.811,8.4v5.312c0,.368-.128.464-.624.464a11.079,11.079,0,0,1-1.568-.144,2.962,2.962,0,0,1,.3,1.008c.368.016.768.032,1.248.032,1.28,0,1.616-.256,1.616-1.264V6.1a14.432,14.432,0,0,1,.08-1.776,15.316,15.316,0,0,1-1.7.064h-2.512c-.688,0-1.056-.016-1.44-.048.032.352.048.752.048,1.248V7.216c0,.48-.016.88-.048,1.232.512-.032.976-.048,1.68-.048Zm-3.632-3.28h3.632v.928h-3.632Zm0,1.616h3.632V7.68h-3.632Zm-6.256-2.352c-.72,0-1.136-.016-1.584-.048A17.441,17.441,0,0,1,286.4,6.1v7.328a11.961,11.961,0,0,1-.1,1.792h1.184a9.183,9.183,0,0,1-.1-1.76V8.4h2.656c.736,0,1.12.016,1.7.048a12.237,12.237,0,0,1-.048-1.232V5.584c0-.544.016-.928.048-1.248-.4.032-.784.048-1.44.048Zm-.528.736h3.392v.928H287.4Zm0,1.616h3.392V7.68H287.4Zm7.968,3.888a12.816,12.816,0,0,1,.064-1.5,14.532,14.532,0,0,1-1.648.064h-2.64a13.5,13.5,0,0,1-1.568-.064c.032.432.064.88.064,1.5v2.3a12.866,12.866,0,0,1-.064,1.44h.96v-.72h3.248a15.083,15.083,0,0,1,1.648.064,12.518,12.518,0,0,1-.064-1.488Zm-4.832-.688h3.92v1.088h-3.92Zm0,1.84h3.92v1.1h-3.92Zm17.824-2V11.3h-4.816a10.765,10.765,0,0,1-1.616-.1v1.12a12.117,12.117,0,0,1,1.664-.1h4.768V13.7a7.114,7.114,0,0,1-.1,1.5h1.2a6.449,6.449,0,0,1-.112-1.5V12.224h4.992a11.888,11.888,0,0,1,1.68.1V11.2a10.619,10.619,0,0,1-1.616.1h-5.056V9.776h3.52c.576,0,1.04.016,1.584.064a12.492,12.492,0,0,1-.064-1.568V5.408a13.6,13.6,0,0,1,.064-1.6,11.975,11.975,0,0,1-1.584.064h-.48A17.837,17.837,0,0,0,314.115,1.3l-1.1-.416a13,13,0,0,1-1.744,2.992h-6.208a12,12,0,0,1-1.568-.064,13.945,13.945,0,0,1,.064,1.6V8.32a13.843,13.843,0,0,1-.064,1.52,15.722,15.722,0,0,1,1.584-.064Zm.992-3.456V4.72H313.4v1.6Zm-.992,0h-3.808V4.72h3.808Zm.992,2.592V7.152H313.4v1.76Zm-.992,0h-3.808V7.152h3.808Zm-2.176-5.568a13.7,13.7,0,0,0-1.664-2.288l-.912.432a8.527,8.527,0,0,1,1.616,2.32Zm3.7-.272A12.68,12.68,0,0,0,308.467.656l-.944.32A9.279,9.279,0,0,1,308.9,3.488Zm12.864-2.048a16.462,16.462,0,0,1-.544,3.008c-.3,0-.832.016-1.152.016a10.111,10.111,0,0,1-1.9-.128l-.016,1.1h.208c.048,0,.176,0,.352.016.24,0,.784.016,1.056.016.24,0,.784-.016,1.184-.032a23.955,23.955,0,0,1-1.664,4.128,14.125,14.125,0,0,1-1.536,2.5l1.088.64c.08-.128.176-.32.32-.544.608-1.056.752-1.328,1.136-2.1a29.811,29.811,0,0,0,1.776-4.672,19.316,19.316,0,0,0,2.624-.336c.384-.064.384-.064.56-.1l-.048-1.1a13.314,13.314,0,0,1-2.864.528c.224-.816.32-1.2.432-1.744A5.01,5.01,0,0,1,324,1.2Zm9.424,4.416a22.053,22.053,0,0,0-4.224-2.112l-.592.9a17.353,17.353,0,0,1,4.24,2.176Zm.032,7.088a1.619,1.619,0,0,1-.288-.256,11.493,11.493,0,0,0-3.136-1.936A19.085,19.085,0,0,1,328.6,7.9a4.911,4.911,0,0,1,.208-1.488L327.715,6.3a6.477,6.477,0,0,0-.16,1.552c0,.4.032,1.152.112,2.192a5.28,5.28,0,0,0-1.616-.24,4.676,4.676,0,0,0-1.888.352,2.269,2.269,0,0,0-1.488,2.032c0,1.424,1.2,2.32,3.12,2.32,1.952,0,3.04-.912,3.04-2.56a3.315,3.315,0,0,0-.032-.512,9.152,9.152,0,0,1,2.8,2.176Zm-4.448-1.456s.032.5.032.688c0,1.2-.624,1.744-2,1.744-1.264,0-2.032-.5-2.032-1.312,0-.88.864-1.44,2.224-1.44A4.748,4.748,0,0,1,327.747,11.072Zm17.264-9.5a7,7,0,0,1-.56,1.7,21.985,21.985,0,0,1-1.888,3.728,45.953,45.953,0,0,0-4.16-2.784l-.8.848a30.3,30.3,0,0,1,4.3,2.9,17.044,17.044,0,0,1-6.368,5.344,2.851,2.851,0,0,1,.832.96A19.105,19.105,0,0,0,342.8,8.688a22.907,22.907,0,0,1,3.488,3.472l.9-.992a41.132,41.132,0,0,0-3.68-3.44,26.169,26.169,0,0,0,2.352-4.672,4.507,4.507,0,0,1,.5-.976ZM362.947,1.3a13.431,13.431,0,0,1-3.056,3.024,22.529,22.529,0,0,1-8.3,4.144,3.7,3.7,0,0,1,.624,1.072,25.012,25.012,0,0,0,6.176-2.8v6.08a8.341,8.341,0,0,1-.1,1.664h1.392a10.629,10.629,0,0,1-.08-1.7V5.968a28.179,28.179,0,0,0,3.744-3.216,3.622,3.622,0,0,1,.7-.672ZM372.259.96A7.255,7.255,0,0,1,371.251,3.3a11.854,11.854,0,0,1-4.016,4.384,2.379,2.379,0,0,1,.9.832,15.425,15.425,0,0,0,3.824-4.16l5.392-.1a14.7,14.7,0,0,1-2.752,5.36,13.61,13.61,0,0,1-5.648,4.048,2.412,2.412,0,0,1,.8.944,15.668,15.668,0,0,0,5.568-4,16.927,16.927,0,0,0,3.2-6.016c.176-.576.176-.592.32-.784l-.688-.672a1.572,1.572,0,0,1-.832.112c-4.624.08-4.624.08-4.832.128a15.3,15.3,0,0,0,.736-1.424,3.055,3.055,0,0,1,.352-.656ZM381.4,11.568a15.968,15.968,0,0,1,3.152,3.488l.9-.848a16.3,16.3,0,0,0-3.216-3.392ZM401.587,1.344a14.22,14.22,0,0,1-1.888-.08,21.07,21.07,0,0,1,.08,2.32c0,6.064-.432,8.384-1.952,10.624a3.142,3.142,0,0,1,.976.656,10.919,10.919,0,0,0,1.5-3.936,31.8,31.8,0,0,0,.464-5.936H410c.512,0,1.04.016,1.6.048a10.448,10.448,0,0,1-.048-1.168V2.512c0-.544.016-.928.048-1.248a13.863,13.863,0,0,1-1.76.08Zm3.568.864V4.144h-4.368V2.208Zm.976,1.936V2.208H410.6V4.144Zm-4.048,9.488a11.188,11.188,0,0,1-.1,1.472h1.056V14.32h6.88V15.1H411a8.028,8.028,0,0,1-.1-1.456V7.632a13.786,13.786,0,0,1,.064-1.488c-.576.048-.976.064-1.728.064H403.7a15.988,15.988,0,0,1-1.664-.064c.032.464.048.88.048,1.44Zm.96-6.56h6.88V8.608h-6.88Zm0,2.368h6.88v1.584h-6.88Zm0,2.416h6.88v1.6h-6.88Zm14.448-7.5a8.813,8.813,0,0,1-1.728-.112l.016,1.216a9.645,9.645,0,0,1,1.7-.08l2.912-.016a10.411,10.411,0,0,1-.992,3.808,9.358,9.358,0,0,1-4.16,4.208,3.315,3.315,0,0,1,.816.944,11.555,11.555,0,0,0,4.192-4.24,12.065,12.065,0,0,0,1.28-4.72L426,5.344a35.23,35.23,0,0,1-.4,5.68c-.3,1.584-.56,1.968-1.344,1.968a6.756,6.756,0,0,1-2.064-.416,2.63,2.63,0,0,1,.176,1.008v.192a9.106,9.106,0,0,0,1.984.272c1.44,0,1.92-.576,2.32-2.768a43.646,43.646,0,0,0,.448-5.6,2.4,2.4,0,0,1,.128-.96l-.592-.512a2.556,2.556,0,0,1-1.056.112l-4,.016c.048-.448.048-.64.08-1.136a13.36,13.36,0,0,1,.128-2.064l-1.3-.032a4.289,4.289,0,0,1,.064.832c0,.7-.032,1.584-.1,2.4Zm15.6,1.2a13.2,13.2,0,0,1,1.5,3.584l1.088-.368A17.57,17.57,0,0,0,434.1,5.216Zm3.3-.672a14.037,14.037,0,0,1,1.472,3.5l1.056-.368a16.046,16.046,0,0,0-1.552-3.44Zm5.552-.016v.16a6.724,6.724,0,0,1-.176,1.088,12.072,12.072,0,0,1-1.36,3.44,10.269,10.269,0,0,1-5.072,4.176,3.236,3.236,0,0,1,.736.9,11.6,11.6,0,0,0,5.3-4.624,14.405,14.405,0,0,0,1.408-3.584,9.449,9.449,0,0,1,.352-1.3ZM452.691,14.5a10.883,10.883,0,0,1-.08-1.7V7.984a5.587,5.587,0,0,0-.064-.944l.032-.016a1.766,1.766,0,0,0,.5.272,32.621,32.621,0,0,1,5.968,3.168l.688-1.184a39.682,39.682,0,0,0-7.12-3.376V2.912a10.044,10.044,0,0,1,.08-1.664h-1.376a9.487,9.487,0,0,1,.1,1.632v9.936a10.291,10.291,0,0,1-.1,1.68Zm11.888-9.824a53.266,53.266,0,0,1,5.52-.528,32.745,32.745,0,0,0,3.52-.352,10.473,10.473,0,0,0-1.52.848,6.088,6.088,0,0,0-2.992,4.912,3.874,3.874,0,0,0,1.776,3.264,8.071,8.071,0,0,0,3.456,1.232c.288.048.32.064.5.1l.208-1.3h-.16a8.2,8.2,0,0,1-2.4-.512,3.137,3.137,0,0,1-2.24-2.96,4.89,4.89,0,0,1,1.968-3.7,7.87,7.87,0,0,1,3.072-1.6,6.711,6.711,0,0,1,1.792-.224l-.1-1.184a10.806,10.806,0,0,1-1.9.176l-.912.032c-.528.016-.736.032-2.7.144l-2.512.16c-1.968.112-2.064.128-2.96.192-.5.032-.688.048-.912.048-.112,0-.272,0-.576-.016ZM474.4,6.208a11.252,11.252,0,0,1,1.632,2.544l.816-.48a12.146,12.146,0,0,0-1.648-2.48Zm1.824-.864a12.661,12.661,0,0,1,1.632,2.512l.8-.448a12.967,12.967,0,0,0-1.648-2.5Zm5.52-1.136A1.658,1.658,0,0,1,482,4.192a2.6,2.6,0,0,1,.288.016c1.28.048,2,.08,2.16.08h.64c-.08,1.168-.08,1.248-.1,2.416-2.32,1.008-3.712,2.8-3.712,4.768a2.185,2.185,0,0,0,2.064,2.432,5.245,5.245,0,0,0,3.568-1.936,14.409,14.409,0,0,0,3.04-4.8c1.728.448,2.64,1.408,2.64,2.784,0,1.424-1.008,2.592-2.752,3.2a7.452,7.452,0,0,1-2.4.432,3.3,3.3,0,0,1,.512,1.072,8.808,8.808,0,0,0,3.264-.912,4.1,4.1,0,0,0,2.512-3.7c0-1.872-1.232-3.232-3.44-3.744.272-.752.448-1.184.5-1.28l-1.1-.336a6.01,6.01,0,0,1-.384,1.44c-.4-.032-.592-.048-.928-.048A8.454,8.454,0,0,0,486,6.4c.016-.784.016-.784.112-2.144a44.821,44.821,0,0,0,5.664-.64c.3-.048.352-.048.56-.08l-.064-1.12a24.586,24.586,0,0,1-6.1.9,10.637,10.637,0,0,1,.336-2.24l-1.248-.08a1.7,1.7,0,0,1,.016.24c0,.112-.032.736-.048.912-.064.816-.064.816-.08,1.2-.288.016-.352.016-.4.016a11.2,11.2,0,0,1-2.992-.256ZM485,7.712a22.629,22.629,0,0,0,.32,4.336,2.889,2.889,0,0,1-1.84.816c-.688,0-1.152-.576-1.152-1.456a3.78,3.78,0,0,1,.976-2.384A5.718,5.718,0,0,1,485,7.712Zm1.184,3.664V11.2a1.055,1.055,0,0,0-.016-.224,26.912,26.912,0,0,1-.176-3.664,7.2,7.2,0,0,1,2.224-.368c.176,0,.256,0,.768.032a14.451,14.451,0,0,1-2.448,4,1.735,1.735,0,0,0-.3.416Zm11.6.64a3.392,3.392,0,0,1,.416-.512c.272-.3.5-.56.672-.752.544-.608.544-.608.784-.88a1.777,1.777,0,0,0,.288-.384h.032c-.048.72-.048.72-.048,2.592a13.679,13.679,0,0,1-.112,2.64h1.248a24.806,24.806,0,0,1-.048-2.656V8.608a25.945,25.945,0,0,1,3.088-2.72A4.555,4.555,0,0,1,506.515,4.8a.811.811,0,0,1,.88.864,12,12,0,0,1-.4,2.4,15.541,15.541,0,0,0-.608,3.728,1.842,1.842,0,0,0,1.872,2.16,2.754,2.754,0,0,0,2.208-1.152,7.9,7.9,0,0,0,.992-1.584,5.266,5.266,0,0,1-.736-1.088,6.585,6.585,0,0,1-.912,1.84,1.929,1.929,0,0,1-1.36.88c-.624,0-.96-.4-.96-1.136a17.6,17.6,0,0,1,.688-3.792,10.686,10.686,0,0,0,.368-2.336,1.739,1.739,0,0,0-1.872-1.872,6.431,6.431,0,0,0-3.616,1.76,11.421,11.421,0,0,0-2.032,1.872L501,7.328c0-.1.016-.128.016-.256a.817.817,0,0,0,.016-.144c.016-.752.016-.752.032-1.072a2.728,2.728,0,0,0,.016-.4,5.514,5.514,0,0,1,.816-.992l-.416-.5a1.045,1.045,0,0,1-.32.08,18.624,18.624,0,0,1,.192-2.848l-1.264-.016a6.51,6.51,0,0,1,.048.8c0,.208-.016.928-.064,2.144-1.344.08-2.048.128-2.1.128a3.238,3.238,0,0,1-.5-.032l.064,1.1a16.3,16.3,0,0,1,2.512-.224c-.048,1.408-.08,2.416-.1,3.056a24.569,24.569,0,0,1-2.816,2.7Zm17.584-10.48a6.625,6.625,0,0,1-.176,1.008,27.02,27.02,0,0,0-.832,6.576,25.6,25.6,0,0,0,.448,4.752c.064.384.08.448.1.592l1.136-.128a1.642,1.642,0,0,1-.032-.32,13.855,13.855,0,0,1,1.376-4.528L516.6,9.12a3.288,3.288,0,0,1-.128.32,14.435,14.435,0,0,0-.944,2.8h-.064l-.016-.768c-.048-.72-.064-1.664-.064-2.24a22.874,22.874,0,0,1,1.232-7.5Zm7.456,3.376c-.656.032-1.088.048-1.712.048a11.153,11.153,0,0,1-2.88-.256l-.032,1.12h.064a.734.734,0,0,1,.16.016,2.777,2.777,0,0,1,.288.016,4.161,4.161,0,0,1,.5.032c.544.032,1.136.048,1.808.048.656,0,1.136-.016,1.824-.048.048,2.416.112,3.856.16,4.176a4.8,4.8,0,0,0-1.776-.3c-1.792,0-3.04.944-3.04,2.3,0,1.376,1.168,2.24,3.024,2.24a2.743,2.743,0,0,0,2.688-1.344,2.842,2.842,0,0,0,.192-1.1,2.145,2.145,0,0,0-.032-.4.95.95,0,0,1,.1.064l.1.064a.943.943,0,0,0,.1.064,8.327,8.327,0,0,1,2.272,1.664l.512-1.136a2.12,2.12,0,0,1-.4-.256,12.357,12.357,0,0,0-2.688-1.584c-.112-1.92-.16-3.136-.16-4.528.752-.1,1.328-.176,1.68-.256.592-.112.928-.192,1.024-.208.016,0,.064-.016.1-.016l-.048-1.056a13.041,13.041,0,0,1-2.768.56V4.048a19.962,19.962,0,0,1,.1-2.512h-1.2a3.207,3.207,0,0,1,.048.656V4.016Zm.192,6.128a2.956,2.956,0,0,1,.032.464,1.778,1.778,0,0,1-.3,1.264,2.235,2.235,0,0,1-1.632.576c-1.12,0-1.872-.512-1.872-1.28,0-.832.8-1.344,2.064-1.344A4.381,4.381,0,0,1,523.011,11.04ZM524.5.784a12.918,12.918,0,0,1,1.2,2.64l.848-.3A11.969,11.969,0,0,0,525.331.528ZM526.387.3A13.133,13.133,0,0,1,527.6,2.9l.816-.32A12.163,12.163,0,0,0,527.2,0Zm3.328,11.264a15.97,15.97,0,0,1,3.152,3.488l.9-.848a16.3,16.3,0,0,0-3.216-3.392Zm21.3-6.976V2.7a6.91,6.91,0,0,1,.064-1.3h-1.3a9.272,9.272,0,0,1,.064,1.344v1.84h-1.328a11.63,11.63,0,0,1-1.872-.1V5.712a14.728,14.728,0,0,1,1.856-.08h1.344V8.256a9.132,9.132,0,0,1-.064,1.344h1.3a8.792,8.792,0,0,1-.064-1.3V5.632h4.864c-.016,1.3-.032,1.792-.064,2.3a5.206,5.206,0,0,1-1.712,4,7.075,7.075,0,0,1-3.056,1.568,2.866,2.866,0,0,1,.72,1.008,11.878,11.878,0,0,0,1.856-.816,6.767,6.767,0,0,0,2.608-2.64c.592-1.152.752-2.176.784-5.424h1.408a14.728,14.728,0,0,1,1.856.08V4.5a11.63,11.63,0,0,1-1.872.1h-1.376V2.912a10.962,10.962,0,0,1,.064-1.488h-1.248a10.627,10.627,0,0,1,.048,1.616V4.592Zm12.32,3.92a17.478,17.478,0,0,1,1.984-.064h9.28a18.3,18.3,0,0,1,1.952.064v-1.3a12.619,12.619,0,0,1-1.936.08h-9.3a11.318,11.318,0,0,1-1.984-.1Zm19.52-5.392a7.077,7.077,0,0,1,.08-1.344h-1.312a8.883,8.883,0,0,1,.064,1.328V10.48c0,.672.016.992.032,1.248a2.124,2.124,0,0,0,.656,1.536c.56.464,1.616.656,3.5.656,1.1,0,3.216-.112,4.24-.224l.768-.08.208-.016c.24-.032.288-.032.528-.048l-.1-1.28a7.708,7.708,0,0,1-1.584.32,31.653,31.653,0,0,1-3.664.256,16.685,16.685,0,0,1-1.888-.1,1.921,1.921,0,0,1-1.216-.416c-.272-.272-.336-.64-.336-1.76V10.4l.016-.1V7.968a24.838,24.838,0,0,0,7.632-2.7c.368-.192.448-.224.688-.336l-.816-1.088c-1.072,1.056-4.976,2.64-7.5,3.072Zm7.216-1.744a11.851,11.851,0,0,1,1.648,2.544l.8-.48A12.145,12.145,0,0,0,590.867.96Zm1.824-.864a11.985,11.985,0,0,1,1.632,2.512l.816-.448a13.834,13.834,0,0,0-1.664-2.5Zm17.424,12.624a39.792,39.792,0,0,0-5.328-4.8,19.35,19.35,0,0,0,2.64-4.48,2.984,2.984,0,0,1,.448-.784l-.672-.688a2.984,2.984,0,0,1-1.024.128l-5.712.064h-.416a7.519,7.519,0,0,1-1.264-.08l.032,1.3a10.766,10.766,0,0,1,1.648-.128l5.344-.08a2.717,2.717,0,0,0,.384-.016.339.339,0,0,1-.048.112c-.032.08-.048.1-.08.192a17.341,17.341,0,0,1-5.712,7.216,12.879,12.879,0,0,1-3.248,1.84,3.562,3.562,0,0,1,.784,1.056,20.606,20.606,0,0,0,3.136-1.92A17.369,17.369,0,0,0,603.283,9.2a29.76,29.76,0,0,1,5.12,4.944ZM612.9,4.672a53.265,53.265,0,0,1,5.52-.528,32.746,32.746,0,0,0,3.52-.352,10.477,10.477,0,0,0-1.52.848,6.088,6.088,0,0,0-2.992,4.912,3.874,3.874,0,0,0,1.776,3.264,8.071,8.071,0,0,0,3.456,1.232c.288.048.32.064.5.1l.208-1.3h-.16a8.2,8.2,0,0,1-2.4-.512,3.137,3.137,0,0,1-2.24-2.96,4.89,4.89,0,0,1,1.968-3.7,7.87,7.87,0,0,1,3.072-1.6,6.711,6.711,0,0,1,1.792-.224l-.1-1.184a10.805,10.805,0,0,1-1.9.176l-.912.032c-.528.016-.736.032-2.7.144l-2.512.16c-1.968.112-2.064.128-2.96.192-.5.032-.688.048-.912.048-.112,0-.272,0-.576-.016Zm9.824,1.536a11.254,11.254,0,0,1,1.632,2.544l.816-.48a12.145,12.145,0,0,0-1.648-2.48Zm1.824-.864a12.662,12.662,0,0,1,1.632,2.512l.8-.448a12.965,12.965,0,0,0-1.648-2.5Zm17.7-.864a11.992,11.992,0,0,1-2.32,2.624,13.44,13.44,0,0,1-.608-2.768l-.976.288c.048.176.064.256.128.464a21.561,21.561,0,0,0,1.3,4.224,13.272,13.272,0,0,0,3.008,4.448,5.241,5.241,0,0,1,.816-.9,9.961,9.961,0,0,1-2.432-2.848,11.619,11.619,0,0,1-.912-1.968,27.588,27.588,0,0,0,2.656-2.64,1.772,1.772,0,0,1,.176-.176ZM635.4,8.512h-1.12a6.964,6.964,0,0,1-1.264-.08v.944a7.181,7.181,0,0,1,1.264-.08h1.12v1.568h-1.952a6.941,6.941,0,0,1-1.28-.08v.976a7.724,7.724,0,0,1,1.344-.08H635.4v1.888c0,.384-.112.464-.672.464a13.6,13.6,0,0,1-2.272-.208,3.017,3.017,0,0,1,.24,1.04c.72.048,1.3.08,1.936.08a2.732,2.732,0,0,0,1.28-.176c.3-.176.432-.464.432-1.04V11.68h1.952a7.134,7.134,0,0,1,1.3.08v-.976a6.006,6.006,0,0,1-1.216.08h-2.032V9.3h1.28a6.3,6.3,0,0,1,1.216.08V8.432a6.006,6.006,0,0,1-1.216.08h-1.28V7.1h1.024a6.33,6.33,0,0,1,1.136.08V6.24a5.91,5.91,0,0,1-1.136.08h-1.024V4.928a24.744,24.744,0,0,0,3.968-2.592l.3-.256-.528-.7a10.732,10.732,0,0,1-1.5.064h-5.872a14.063,14.063,0,0,1-1.824-.1V2.416a13.235,13.235,0,0,1,1.824-.1h6.208a19.068,19.068,0,0,1-3.136,1.952h-.464A8.642,8.642,0,0,1,635.4,5.7V6.32h-.976a6.012,6.012,0,0,1-1.136-.08v.944a8.25,8.25,0,0,1,1.136-.08h.976Zm-2.688-3.488a4.35,4.35,0,0,1-.912.064h-1.76a6.251,6.251,0,0,1-1.264-.08v1.04A6.282,6.282,0,0,1,630,5.968h2.064a14.273,14.273,0,0,1-1.44,4.208,9.808,9.808,0,0,1-2.368,2.864,3.615,3.615,0,0,1,.752.8,12.526,12.526,0,0,0,2.432-3.168,18.786,18.786,0,0,0,1.568-4.528c.08-.3.112-.432.176-.608Zm14.544,3.648a7.062,7.062,0,0,1,1.712-.528,18.6,18.6,0,0,1,4.208-.64c1.936,0,2.96.784,2.96,2.24,0,1.424-1.1,2.64-2.928,3.232a10.91,10.91,0,0,1-3.152.5,1.217,1.217,0,0,1-.224-.016,3.5,3.5,0,0,1,.416,1.1,15.154,15.154,0,0,0,3.3-.608c2.224-.7,3.664-2.336,3.664-4.128a3.5,3.5,0,0,0-.5-1.824,3.659,3.659,0,0,0-3.392-1.488,20.657,20.657,0,0,0-4.88.7,7.512,7.512,0,0,1-1.472.288ZM661.987,4.7a47,47,0,0,1,5.52-.528,31.006,31.006,0,0,0,3.52-.352,10.473,10.473,0,0,0-1.52.848,6.066,6.066,0,0,0-2.992,4.912,3.894,3.894,0,0,0,1.776,3.264,8.07,8.07,0,0,0,3.456,1.232c.256.048.32.064.5.1l.208-1.3h-.16a8.2,8.2,0,0,1-2.4-.512,3.137,3.137,0,0,1-2.24-2.96,4.89,4.89,0,0,1,1.968-3.7A8.125,8.125,0,0,1,672.691,4.1a7.421,7.421,0,0,1,1.792-.208l-.1-1.2a10.74,10.74,0,0,1-1.9.176c-2.064.1-7.184.384-9.088.528-.5.032-.688.048-.912.048h-.576Zm24.224-1.248a16.17,16.17,0,0,1-3.264.688V2.608a9.147,9.147,0,0,1,.08-1.488h-1.184a10.625,10.625,0,0,1,.08,1.52V4.224c-.48.032-1.1.048-1.536.048a9.063,9.063,0,0,1-1.632-.112V5.216h.656c.176.016.608.016.848.016.464,0,.736,0,1.024-.016.5-.032.5-.032.64-.048V8.192A8.559,8.559,0,0,0,679.667,9.5a2.9,2.9,0,0,0-1.264,2.128,1.929,1.929,0,0,0,.736,1.5,4.226,4.226,0,0,0,2.64,1.024c.784,0,1.168-.416,1.168-1.28v-4a10.8,10.8,0,0,1,3.392-.624c2.1,0,3.424.976,3.424,2.544a2.124,2.124,0,0,1-2.144,2.256c-1.168,0-1.648-.688-1.648-2.352A4.745,4.745,0,0,1,686,10.08a3.468,3.468,0,0,1-1.056.416,5.839,5.839,0,0,0,.192,1.808,2.36,2.36,0,0,0,2.464,1.808,3.292,3.292,0,0,0,1.616-6.144,5.417,5.417,0,0,0-2.832-.672,11.335,11.335,0,0,0-3.44.576V5.1a28.082,28.082,0,0,0,2.832-.48c.224-.048.288-.064.48-.1Zm-4.288,8.832c0,.688-.048.784-.368.784a2.988,2.988,0,0,1-1.424-.464c-.464-.3-.688-.624-.688-.96,0-.768.9-1.632,2.48-2.4Zm9.616-6.768a13.444,13.444,0,0,0-3.232-3.04l-.832.624a13.105,13.105,0,0,1,3.232,3.136Zm6.016-4.48a3.209,3.209,0,0,1-.048.512,40.441,40.441,0,0,0-.544,5.9v.368L697,9.488l.016.288v.176l1.152-.048c-.016-.24-.016-.32-.016-.384a8.35,8.35,0,0,1,.864-3.568c.912-1.872,1.936-2.784,3.152-2.784,1.536,0,2.432,1.488,2.432,4.064,0,2.56-.88,4.24-2.752,5.312a8.454,8.454,0,0,1-3.248,1.008,3.3,3.3,0,0,1,.64,1.088,12.11,12.11,0,0,0,2.848-.944,6.6,6.6,0,0,0,3.7-6.288,6.572,6.572,0,0,0-.96-3.888,3.012,3.012,0,0,0-2.56-1.424,3.816,3.816,0,0,0-3.2,2.064,7.14,7.14,0,0,0-.976,2.384c-.08.336-.08.336-.112.464l-.064-.016c.048-.816.272-2.56.528-4.176a9.068,9.068,0,0,1,.368-1.648Zm26.224,11.68a5.467,5.467,0,0,1-.544-.368,14.005,14.005,0,0,0-4.464-2.336c-.064-1.552-.064-1.552-.1-2.448,1.184-.08,2.448-.208,3.552-.384.56-.08.72-.1.928-.112l-.064-1.1a19.312,19.312,0,0,1-4.432.656c-.016-.848-.016-.848-.032-2.16a33.238,33.238,0,0,0,3.712-.384c.832-.112.832-.112,1.1-.128l-.08-1.088a22.555,22.555,0,0,1-4.736.656,17.85,17.85,0,0,1,.112-2.256h-1.232a12.536,12.536,0,0,1,.08,2.3c-.528,0-1.072.016-1.392.016a19.877,19.877,0,0,1-4.1-.32l-.016,1.088a1.307,1.307,0,0,1,.224-.016,1.941,1.941,0,0,1,.288.016c1.44.112,2.736.16,3.9.16.368,0,.624,0,1.088-.016l.032,2.192c-.448.016-1.008.016-1.424.016a19.636,19.636,0,0,1-3.664-.256L712.515,7.5h.128c.1,0,.224,0,.4.016.992.08,1.744.112,2.7.112.512,0,1.312-.016,1.888-.032.016.416.016.72.032.928.016.464.016.8.032.944a1.275,1.275,0,0,0,.016.176c0,.144,0,.144.016.192a7.117,7.117,0,0,0-1.44-.128,6.969,6.969,0,0,0-1.664.16c-1.408.32-2.24,1.152-2.24,2.208a2.092,2.092,0,0,0,.864,1.68,4.168,4.168,0,0,0,2.48.64,3.221,3.221,0,0,0,2.7-1.008,2.778,2.778,0,0,0,.4-1.744,4.6,4.6,0,0,0-.032-.576c.432.176.8.336,1.072.48a12.874,12.874,0,0,1,3.264,2.288Zm-6.032-1.3a2.1,2.1,0,0,1-.32,1.44,2.312,2.312,0,0,1-1.76.528c-1.392,0-2.192-.48-2.192-1.328s1.04-1.424,2.624-1.424a5.874,5.874,0,0,1,1.632.176Zm17.36-8.08c-1.088.032-2.336.064-3.872.128-2.576.1-2.576.1-3.04.1-.24,0-.352,0-.64-.016L727.6,4.72c1.072-.176,4.3-.336,7.52-.4v.832c0,.192.016.352.016.416,0,.592,0,.656.016.88a2.457,2.457,0,0,0-1.856-.72,2.662,2.662,0,0,0-2.832,2.64,2.675,2.675,0,0,0,4.64,1.664,2.242,2.242,0,0,0,.432-.784,4.144,4.144,0,0,1-1.792,3.376,8.2,8.2,0,0,1-2.592,1.2,3.512,3.512,0,0,1,.7,1.008,10.177,10.177,0,0,0,2.528-1.3,5.15,5.15,0,0,0,2.144-4.176,4.585,4.585,0,0,0-.384-1.888V4.3c1.3-.032,1.472-.032,1.712-.032a28.437,28.437,0,0,1,3.056.08V3.216c-.528.064-1.76.1-4.784.112V3.152a13.241,13.241,0,0,1,.08-2h-1.2a5.4,5.4,0,0,1,.064.928Zm-.048,4.672A1.793,1.793,0,0,1,733.187,9.9a1.546,1.546,0,0,1-1.648-1.584,1.693,1.693,0,0,1,1.776-1.68,2.047,2.047,0,0,1,1.072.256A1.158,1.158,0,0,1,735.059,8.016Zm9.36,2.224a2.4,2.4,0,1,0,2.4,2.4A2.4,2.4,0,0,0,744.419,10.24Zm0,.912a1.488,1.488,0,1,1-1.488,1.488A1.5,1.5,0,0,1,744.419,11.152ZM13.952,30.992c-.288.112-.288.112-1.36.112H4a11.727,11.727,0,0,1-1.9-.112v1.232a15.449,15.449,0,0,1,1.888-.08h9.088a8.488,8.488,0,0,1-1.792,2.384,6.927,6.927,0,0,1-2.528,1.52,3.143,3.143,0,0,1,.784.912,9.576,9.576,0,0,0,4.672-4.56,2.871,2.871,0,0,1,.384-.64ZM6.976,33.776a4.225,4.225,0,0,1,.064.864c0,3.12-.624,4.752-2.32,6.112a7.519,7.519,0,0,1-2.928,1.472A3.129,3.129,0,0,1,2.528,43.3a8.716,8.716,0,0,0,4.1-2.768c1.088-1.376,1.536-2.96,1.584-5.632a5.8,5.8,0,0,1,.064-1.12ZM27.728,30.1a13.43,13.43,0,0,1-3.056,3.024,22.529,22.529,0,0,1-8.3,4.144,3.7,3.7,0,0,1,.624,1.072,25.012,25.012,0,0,0,6.176-2.8v6.08a8.339,8.339,0,0,1-.1,1.664h1.392a10.629,10.629,0,0,1-.08-1.7V34.768a28.179,28.179,0,0,0,3.744-3.216,3.622,3.622,0,0,1,.7-.672Zm16.24,11.392v1.136h1.216c-.032-.336-.048-.752-.048-1.232V32.736a8.678,8.678,0,0,1,.048-1.248,8.325,8.325,0,0,1-1.248.048H35.408a11.524,11.524,0,0,1-1.248-.048,8.206,8.206,0,0,1,.064,1.248v8.688a8.313,8.313,0,0,1-.064,1.2h1.232V41.488Zm0-1.04H35.392V32.592h8.576Zm6.688-8.1a17.668,17.668,0,0,1,3.808,3.136L55.3,34.5a20.843,20.843,0,0,0-3.856-3.008Zm.112,10.4a8.407,8.407,0,0,1,.96-.256A16.131,16.131,0,0,0,57.7,40.112,14.033,14.033,0,0,0,62.576,34a3.2,3.2,0,0,1-.976-.944,12.09,12.09,0,0,1-6.528,7.12,13.926,13.926,0,0,1-4.656,1.232Zm19.424-10.72a22.388,22.388,0,0,1-3.424-.176l-.016,1.1a2.837,2.837,0,0,1,.352-.016h.256c.592.016,2.1.048,2.352.048a1.772,1.772,0,0,0,.3-.032l-.144.24a15.921,15.921,0,0,1-3.584,4.576l.9.9a5.294,5.294,0,0,1,1.232-1.328,6.01,6.01,0,0,1,3.568-1.7c.752,0,1.136.384,1.264,1.264a12.42,12.42,0,0,0-2.384,1.28,3.308,3.308,0,0,0-1.632,2.528c0,1.648,1.392,2.464,4.256,2.464a24.822,24.822,0,0,0,3.888-.32,6.3,6.3,0,0,1,.64-.08l-.144-1.232a13.406,13.406,0,0,1-4.272.624c-2.256,0-3.248-.464-3.248-1.52,0-.96.832-1.712,3.008-2.736a4.2,4.2,0,0,1,.016.48,23.008,23.008,0,0,1-.1,2.3l1.088-.016a3.478,3.478,0,0,1-.032-.576c0-.144,0-.368.016-.72.016-.32.016-.672.016-.88,0-.4,0-.56-.032-.976a26.565,26.565,0,0,1,4.272-1.408l-.512-1.12a3.52,3.52,0,0,1-1.088.464c-.7.256-1.616.592-2.784,1.056a1.942,1.942,0,0,0-2.112-1.776,4.258,4.258,0,0,0-2.416.784c-.16.112-.16.112-.736.56a.123.123,0,0,1-.032-.048v-.016a.016.016,0,0,0,.016-.016c.016-.016.1-.08.208-.16.064-.048.384-.416.544-.608a11.8,11.8,0,0,0,1.44-2.272,51.661,51.661,0,0,0,5.28-.416,4.988,4.988,0,0,1,.64-.08l-.1-1.088A22.519,22.519,0,0,1,71.92,32a2.724,2.724,0,0,0-.336.016c.08-.144.288-.576.5-1.088a3.4,3.4,0,0,1,.416-.864l-1.28-.224a6.791,6.791,0,0,1-.768,2.192Zm19.872,5.984a6.105,6.105,0,0,1-.656,2.1,5.42,5.42,0,0,1-1.28-1.584l-.9.528c.112.112.128.144.256.288a10.142,10.142,0,0,0,1.392,1.52,8.773,8.773,0,0,1-3.872,2.176,3.439,3.439,0,0,1,.624.88,8.729,8.729,0,0,0,3.936-2.512,14.656,14.656,0,0,0,6.352,2.4,4.249,4.249,0,0,1,.5-1.056,13.009,13.009,0,0,1-6.288-2.08,6.785,6.785,0,0,0,.9-2.656h2.768a13.992,13.992,0,0,1,1.584.064,8.345,8.345,0,0,1-.048-1.28V34.88q0-.672.048-1.2c-.432.032-.8.048-1.488.048H91.3v-.56c.016-.3.016-.512.016-.576v-.464h3.472a9.869,9.869,0,0,1,1.5.08V31.136a11.447,11.447,0,0,1-1.6.1H91.312a12.037,12.037,0,0,1,.08-1.84H90.24a10.738,10.738,0,0,1,.1,1.84h-2.96a10.488,10.488,0,0,1-1.536-.1v1.072a9.173,9.173,0,0,1,1.472-.08h3.04v.64l-.016.96H87.712c-.784,0-1.008-.016-1.44-.048a6.9,6.9,0,0,1,.064,1.12v2.192a7.807,7.807,0,0,1-.064,1.088,12.094,12.094,0,0,1,1.408-.064Zm.256-3.392c-.032,1.1-.08,1.872-.144,2.5H87.312v-2.5Zm4.016,0v2.5h-3.2c.064-.736.1-1.408.128-2.5ZM83.52,42.1a16.486,16.486,0,0,1-.1,1.92h1.168a16.483,16.483,0,0,1-.08-1.872V33.376a24.066,24.066,0,0,0,1.088-2.8c.128-.416.176-.56.288-.88l-1.1-.288a9.306,9.306,0,0,1-.608,2.272,14.562,14.562,0,0,1-2.688,4.672,3.279,3.279,0,0,1,.64.88,11.754,11.754,0,0,0,1.44-2.3c-.048,1.008-.048,1.12-.048,1.936Zm16.992-4.624a7.061,7.061,0,0,1,1.712-.528,18.6,18.6,0,0,1,4.208-.64c1.936,0,2.96.784,2.96,2.24,0,1.424-1.1,2.64-2.928,3.232a10.91,10.91,0,0,1-3.152.5,1.217,1.217,0,0,1-.224-.016,3.5,3.5,0,0,1,.416,1.1,15.154,15.154,0,0,0,3.3-.608c2.224-.7,3.664-2.336,3.664-4.128a3.5,3.5,0,0,0-.5-1.824,3.66,3.66,0,0,0-3.392-1.488,20.657,20.657,0,0,0-4.88.7,7.512,7.512,0,0,1-1.472.288ZM115.248,33.5a47,47,0,0,1,5.52-.528,31.006,31.006,0,0,0,3.52-.352,10.474,10.474,0,0,0-1.52.848,6.066,6.066,0,0,0-2.992,4.912,3.894,3.894,0,0,0,1.776,3.264,8.071,8.071,0,0,0,3.456,1.232c.256.048.32.064.5.1l.208-1.3h-.16a8.2,8.2,0,0,1-2.4-.512,3.137,3.137,0,0,1-2.24-2.96,4.89,4.89,0,0,1,1.968-3.7,8.125,8.125,0,0,1,3.072-1.616,7.421,7.421,0,0,1,1.792-.208l-.1-1.2a10.74,10.74,0,0,1-1.9.176c-2.064.1-7.184.384-9.088.528-.5.032-.688.048-.912.048h-.576Zm19.328-1.1h-2.16a9.067,9.067,0,0,1-1.456-.1V33.3a8.74,8.74,0,0,1,1.44-.08h2.176v.992h-1.488c-.672,0-1.1-.016-1.52-.048a10.664,10.664,0,0,1,.048,1.408V37.44c0,.8-.016,1.152-.048,1.5.384-.032.816-.048,1.488-.048h1.52v1.072h-1.76a8.815,8.815,0,0,1-1.472-.08v.992a13.775,13.775,0,0,1,1.456-.08h1.776v1.248c-1.632.16-2.544.224-3.04.224-.144,0-.416-.016-.672-.032l.208,1.1a7.474,7.474,0,0,1,.848-.128c2.72-.272,4.32-.48,6.56-.864V41.5c-1.408.24-1.952.32-2.976.448V40.8h1.76a7.977,7.977,0,0,1,1.312.064V39.9a9.652,9.652,0,0,1-1.456.064H135.5V38.9h1.6c.672,0,1.088.016,1.472.048a10.855,10.855,0,0,1-.064-1.52V35.568a8.5,8.5,0,0,1,.064-1.408c-.384.032-.784.048-1.408.048H135.5v-.992h2.048a7.036,7.036,0,0,1,1.28.064v-.96a7.335,7.335,0,0,1-1.408.08H135.5V31.136a21.7,21.7,0,0,0,2.288-.5c.576-.144.576-.144.8-.192l-.7-.816a20.47,20.47,0,0,1-6.672,1.1,2.162,2.162,0,0,1,.4.848c1.216-.1,1.808-.144,2.96-.3Zm0,2.576v1.168h-2.048V34.976Zm.928,0h2.112v1.168H135.5Zm-.928,1.9v1.248h-2.048V36.88Zm.928,0h2.112v1.248H135.5Zm6.448-3.728c.016-.544.016-1.088.032-2.224a4.793,4.793,0,0,1,.1-1.216H140.9a8.947,8.947,0,0,1,.1,1.84c0,.592,0,1.056-.016,1.6h-.528a8.411,8.411,0,0,1-1.424-.08V34.16a9.77,9.77,0,0,1,1.488-.08h.416a16.907,16.907,0,0,1-1.232,6.56,8.277,8.277,0,0,1-1.856,2.592,3.574,3.574,0,0,1,.912.688,11.07,11.07,0,0,0,2.512-4.7,24.021,24.021,0,0,0,.656-5.136h1.968a40.7,40.7,0,0,1-.576,8.032c-.112.48-.288.592-.88.592a8.86,8.86,0,0,1-1.728-.224,4.284,4.284,0,0,1,.176,1.072,15.736,15.736,0,0,0,1.7.128c.88,0,1.312-.208,1.536-.784.432-1.04.64-3.3.752-8.128.032-1.008.048-1.328.08-1.68a11.694,11.694,0,0,1-1.424.064Zm7.088.336a8.733,8.733,0,0,1,.992-.048,34.039,34.039,0,0,0,4.32-.288c.4.864.5,1.04.912,1.824a31.873,31.873,0,0,1-5.04.4,12.435,12.435,0,0,1-1.28-.048l.032,1.056c.288-.032.352-.032,1.12-.064a33.334,33.334,0,0,0,5.616-.464,14.665,14.665,0,0,0,1.712,2.464,9.618,9.618,0,0,0-3.232-.464c-3.04,0-4.88,1.04-4.88,2.768a2.235,2.235,0,0,0,1.2,1.984,6.456,6.456,0,0,0,3.3.672,13.936,13.936,0,0,0,4.1-.592,9.318,9.318,0,0,1,.96-.272l-.224-1.248A10.786,10.786,0,0,1,153.9,42.24c-2.192,0-3.408-.576-3.408-1.632,0-1.1,1.488-1.824,3.792-1.824a16.176,16.176,0,0,1,2.1.144,4.338,4.338,0,0,1,1.76.608l.944-.672a18.754,18.754,0,0,1-2.352-3.184c.592-.112,1.392-.288,2.512-.576.528-.144.592-.144.864-.208l-.128-1.072a16.275,16.275,0,0,1-3.664.992c-.24-.432-.672-1.28-.912-1.808.9-.144,2.608-.512,4.032-.9l-.1-1.04a20.241,20.241,0,0,1-4.272,1.056,13.326,13.326,0,0,1-.848-2.256l-1.2.208a20.722,20.722,0,0,1,.96,2.192,31.613,31.613,0,0,1-3.792.224c-.544,0-.816-.016-1.2-.048Zm19.552-1.456a22.388,22.388,0,0,1-3.424-.176l-.016,1.1a2.837,2.837,0,0,1,.352-.016h.256c.592.016,2.1.048,2.352.048a1.773,1.773,0,0,0,.3-.032l-.144.24a15.921,15.921,0,0,1-3.584,4.576l.9.9a5.294,5.294,0,0,1,1.232-1.328,6.011,6.011,0,0,1,3.568-1.7c.752,0,1.136.384,1.264,1.264a12.42,12.42,0,0,0-2.384,1.28,3.308,3.308,0,0,0-1.632,2.528c0,1.648,1.392,2.464,4.256,2.464a24.822,24.822,0,0,0,3.888-.32,6.3,6.3,0,0,1,.64-.08l-.144-1.232a13.406,13.406,0,0,1-4.272.624c-2.256,0-3.248-.464-3.248-1.52,0-.96.832-1.712,3.008-2.736a4.2,4.2,0,0,1,.016.48,23.008,23.008,0,0,1-.1,2.3l1.088-.016a3.478,3.478,0,0,1-.032-.576c0-.144,0-.368.016-.72.016-.32.016-.672.016-.88,0-.4,0-.56-.032-.976a26.565,26.565,0,0,1,4.272-1.408l-.512-1.12a3.52,3.52,0,0,1-1.088.464c-.7.256-1.616.592-2.784,1.056a1.942,1.942,0,0,0-2.112-1.776,4.258,4.258,0,0,0-2.416.784c-.16.112-.16.112-.736.56a.123.123,0,0,1-.032-.048v-.016a.016.016,0,0,0,.016-.016c.016-.016.1-.08.208-.16.064-.048.384-.416.544-.608a11.8,11.8,0,0,0,1.44-2.272,51.661,51.661,0,0,0,5.28-.416,4.988,4.988,0,0,1,.64-.08l-.1-1.088a22.519,22.519,0,0,1-5.04.608,2.724,2.724,0,0,0-.336.016c.08-.144.288-.576.5-1.088a3.4,3.4,0,0,1,.416-.864l-1.28-.224a6.791,6.791,0,0,1-.768,2.192Zm18.288,3.04h-3.9V32.064a8.213,8.213,0,0,1,.064-1.184h-1.2a11.344,11.344,0,0,1,.08,1.232V35.28c0,.272-.016.512-.032.816.336-.016.7-.032.992-.032h4V41.92h-4.56V38.96a8.04,8.04,0,0,1,.08-1.36h-1.216a8.885,8.885,0,0,1,.08,1.424v3.52a8.409,8.409,0,0,1-.1,1.344h1.152v-.96h10.4v.96h1.152a8,8,0,0,1-.1-1.344V38.928a8.885,8.885,0,0,1,.08-1.424H192.64a8.483,8.483,0,0,1,.08,1.376v3.04h-4.768V36.064h4.3c.3,0,.672.016.992.032-.016-.272-.032-.5-.032-.816V32.1a7.892,7.892,0,0,1,.08-1.216h-1.2a8.71,8.71,0,0,1,.064,1.168v3.024h-4.208V31.024a7.26,7.26,0,0,1,.112-1.456h-1.3a6.47,6.47,0,0,1,.112,1.456Zm12.832-4.752a4.923,4.923,0,0,1,.064.848c0,.256,0,.56-.016,1.04-.128,5.04-.144,5.44-.144,6.512,0,1.68.224,2.528.88,3.28a3.794,3.794,0,0,0,3.008,1.12,5.6,5.6,0,0,0,4.512-2,9.733,9.733,0,0,0,1.776-3.632,4.526,4.526,0,0,1-1.152-.768,9.5,9.5,0,0,1-.784,2.512,4.6,4.6,0,0,1-4.288,2.784,3.02,3.02,0,0,1-2-.624,2.519,2.519,0,0,1-.752-1.92c-.016-.368-.032-.768-.032-.96,0-.72.048-2.9.112-4.816a24.667,24.667,0,0,1,.208-3.376ZM213.168,33.5a47,47,0,0,1,5.52-.528,31.006,31.006,0,0,0,3.52-.352,10.474,10.474,0,0,0-1.52.848,6.066,6.066,0,0,0-2.992,4.912,3.894,3.894,0,0,0,1.776,3.264,8.071,8.071,0,0,0,3.456,1.232c.256.048.32.064.5.1l.208-1.3h-.16a8.2,8.2,0,0,1-2.4-.512,3.137,3.137,0,0,1-2.24-2.96,4.89,4.89,0,0,1,1.968-3.7,8.125,8.125,0,0,1,3.072-1.616,7.421,7.421,0,0,1,1.792-.208l-.1-1.2a10.74,10.74,0,0,1-1.9.176c-2.064.1-7.184.384-9.088.528-.5.032-.688.048-.912.048h-.576Zm29.616,7.488a3.265,3.265,0,0,1-.432-.3,11.983,11.983,0,0,0-2.768-1.5c-.064-1.008-.08-1.52-.112-3.392a21.057,21.057,0,0,0,2.368-.336,3.885,3.885,0,0,1,.448-.08l-.032-1.056a11.891,11.891,0,0,1-2.8.544V33.616c0-.464.016-.784.032-1.328.64-.064,1.136-.128,1.712-.24l.912-.144-.032-1.04a20.779,20.779,0,0,1-5.36.608,11.831,11.831,0,0,1-2.736-.224l-.048,1.056c.3,0,.384,0,.96.032.608.048,1.264.064,1.92.064.608,0,1.008-.016,1.632-.048-.032.7-.032,1.024-.032,1.312,0,.192,0,.432.016,1.264-.768.032-1.392.048-1.92.048a11.152,11.152,0,0,1-2.656-.224l-.032,1.072h.128a2.477,2.477,0,0,1,.336.016c1.168.064,1.552.08,2.272.08.688,0,1.056-.016,1.9-.048.032,1.808.08,2.832.112,3.056a4.713,4.713,0,0,0-1.7-.288c-1.84,0-3.1.912-3.1,2.24,0,1.344,1.152,2.208,2.944,2.208a2.824,2.824,0,0,0,2.7-1.232,2.826,2.826,0,0,0,.208-1.168,1.9,1.9,0,0,0-.032-.448c.08.032.08.032.256.112.032,0,.032,0,.352.192a9.381,9.381,0,0,1,2.1,1.552Zm-4.224-1.136c.016.016.032.56.032.688,0,1.088-.592,1.6-1.856,1.6-1.184,0-1.9-.48-1.9-1.264,0-.816.8-1.312,2.112-1.312A4.666,4.666,0,0,1,238.56,39.856Zm-7.024,3.328a.919.919,0,0,1-.016-.192,15.783,15.783,0,0,1,1.456-4.736l-.768-.384a22.515,22.515,0,0,0-.928,2.528,4.43,4.43,0,0,1-.176.608l-.048-.016c0-.608-.016-.736-.016-.88,0-.4,0-.4-.016-.8-.016-.368-.032-.752-.032-1.136a26.483,26.483,0,0,1,.56-5.344,14.96,14.96,0,0,1,.656-2.464l-1.232-.192a7.032,7.032,0,0,1-.16.864,32.23,32.23,0,0,0-.848,7.024,30.921,30.921,0,0,0,.272,3.968,6.457,6.457,0,0,1,.144,1.216ZM248.192,30.32a4.923,4.923,0,0,1,.064.848c0,.256,0,.56-.016,1.04-.128,5.04-.144,5.44-.144,6.512,0,1.68.224,2.528.88,3.28a3.794,3.794,0,0,0,3.008,1.12,5.6,5.6,0,0,0,4.512-2,9.734,9.734,0,0,0,1.776-3.632,4.526,4.526,0,0,1-1.152-.768,9.5,9.5,0,0,1-.784,2.512,4.6,4.6,0,0,1-4.288,2.784,3.02,3.02,0,0,1-2-.624,2.519,2.519,0,0,1-.752-1.92c-.016-.368-.032-.768-.032-.96,0-.72.048-2.9.112-4.816a24.667,24.667,0,0,1,.208-3.376Zm14.944,1.136a8.65,8.65,0,0,1,.048.944c.08,3.936.3,5.984.864,7.5.544,1.536,1.376,2.432,2.272,2.432,1.136,0,1.872-1.072,2.656-3.872a5.115,5.115,0,0,1-.944-.912,11.51,11.51,0,0,1-.832,2.736c-.24.528-.512.8-.8.8-.608,0-1.264-1.1-1.616-2.736a27.4,27.4,0,0,1-.416-4.976,11.6,11.6,0,0,1,.112-1.9Zm8.1,1.36A14.131,14.131,0,0,1,274.56,40.7l1.136-.464a15.32,15.32,0,0,0-1.2-4.272,13.888,13.888,0,0,0-2.288-3.648Zm6.944,7.552a15.968,15.968,0,0,1,3.152,3.488l.9-.848a16.3,16.3,0,0,0-3.216-3.392Zm30.16,1.568a39.79,39.79,0,0,0-5.328-4.8,19.349,19.349,0,0,0,2.64-4.48,2.986,2.986,0,0,1,.448-.784l-.672-.688a2.983,2.983,0,0,1-1.024.128l-5.712.064h-.416a7.519,7.519,0,0,1-1.264-.08l.032,1.3a10.767,10.767,0,0,1,1.648-.128l5.344-.08a2.718,2.718,0,0,0,.384-.016.338.338,0,0,1-.048.112c-.032.08-.048.1-.08.192a17.342,17.342,0,0,1-5.712,7.216,12.879,12.879,0,0,1-3.248,1.84,3.56,3.56,0,0,1,.784,1.056,20.6,20.6,0,0,0,3.136-1.92A17.368,17.368,0,0,0,302.3,38a29.759,29.759,0,0,1,5.12,4.944Zm8.176,1.36a10.883,10.883,0,0,1-.08-1.7V36.784a5.587,5.587,0,0,0-.064-.944l.032-.016a1.766,1.766,0,0,0,.5.272,32.621,32.621,0,0,1,5.968,3.168l.688-1.184a39.682,39.682,0,0,0-7.12-3.376V31.712a10.044,10.044,0,0,1,.08-1.664h-1.376a9.487,9.487,0,0,1,.1,1.632v9.936a10.291,10.291,0,0,1-.1,1.68Zm14.016-12.784a8.275,8.275,0,0,1,.048.864v.592l-.032,9.168a3.071,3.071,0,0,1-.112,1.04l.64.8a4.02,4.02,0,0,1,.928-.24c4.272-.832,6.624-2.32,8.816-5.584a4.075,4.075,0,0,1-.88-1.008,9.685,9.685,0,0,1-3.6,3.84,12.08,12.08,0,0,1-4.576,1.6l.048-9.648a9.857,9.857,0,0,1,.08-1.424Zm14.224,6.8a17.479,17.479,0,0,1,1.984-.064h9.28a18.3,18.3,0,0,1,1.952.064v-1.3a12.62,12.62,0,0,1-1.936.08h-9.3a11.319,11.319,0,0,1-1.984-.1Zm21.2,5.984a10.883,10.883,0,0,1-.08-1.7V36.784a5.587,5.587,0,0,0-.064-.944l.032-.016a1.766,1.766,0,0,0,.5.272,32.621,32.621,0,0,1,5.968,3.168l.688-1.184a39.682,39.682,0,0,0-7.12-3.376V31.712a10.044,10.044,0,0,1,.08-1.664h-1.376a9.487,9.487,0,0,1,.1,1.632v9.936a10.291,10.291,0,0,1-.1,1.68ZM379.424,30.32a8.91,8.91,0,0,1-.224,1.28,26.468,26.468,0,0,0-.72,6.336,22.933,22.933,0,0,0,.416,4.528c.048.3.064.384.1.64l1.152-.1v-.24a13.947,13.947,0,0,1,1.3-4.4L380.672,38a14.865,14.865,0,0,0-1.04,3.12c-.064-.848-.1-1.792-.1-3.04a23.651,23.651,0,0,1,.48-5.008,22.729,22.729,0,0,1,.672-2.56Zm3.3,3.024a21.311,21.311,0,0,0,2.56.16,27.01,27.01,0,0,0,3.44-.208q1.056-.144,1.1-.144l-.08-1.136a17.169,17.169,0,0,1-4.288.432,10.867,10.867,0,0,1-2.72-.24Zm1.168,3.12A4.42,4.42,0,0,0,382.5,39.44a2.261,2.261,0,0,0,.48,1.472c.688.832,1.84,1.216,3.664,1.216a16.507,16.507,0,0,0,3.28-.32c.32-.048.352-.064.56-.08l-.16-1.232a10.53,10.53,0,0,1-3.68.56c-2.064,0-3.072-.576-3.072-1.76a3.717,3.717,0,0,1,1.2-2.352Zm12.624-6.144a4.921,4.921,0,0,1,.064.848c0,.256,0,.56-.016,1.04-.128,5.04-.144,5.44-.144,6.512,0,1.68.224,2.528.88,3.28a3.794,3.794,0,0,0,3.008,1.12,5.6,5.6,0,0,0,4.512-2,9.733,9.733,0,0,0,1.776-3.632,4.526,4.526,0,0,1-1.152-.768,9.5,9.5,0,0,1-.784,2.512,4.6,4.6,0,0,1-4.288,2.784,3.02,3.02,0,0,1-2-.624,2.519,2.519,0,0,1-.752-1.92c-.016-.368-.032-.768-.032-.96,0-.72.048-2.9.112-4.816a24.667,24.667,0,0,1,.208-3.376ZM409.968,33.5a47,47,0,0,1,5.52-.528,31.006,31.006,0,0,0,3.52-.352,10.473,10.473,0,0,0-1.52.848,6.066,6.066,0,0,0-2.992,4.912,3.894,3.894,0,0,0,1.776,3.264,8.071,8.071,0,0,0,3.456,1.232c.256.048.32.064.5.1l.208-1.3h-.16a8.2,8.2,0,0,1-2.4-.512,3.137,3.137,0,0,1-2.24-2.96,4.89,4.89,0,0,1,1.968-3.7,8.125,8.125,0,0,1,3.072-1.616,7.421,7.421,0,0,1,1.792-.208l-.1-1.2a10.74,10.74,0,0,1-1.9.176c-2.064.1-7.184.384-9.088.528-.5.032-.688.048-.912.048h-.576Zm29.616,7.488a3.267,3.267,0,0,1-.432-.3,11.983,11.983,0,0,0-2.768-1.5c-.064-1.008-.08-1.52-.112-3.392a21.057,21.057,0,0,0,2.368-.336,3.884,3.884,0,0,1,.448-.08l-.032-1.056a11.892,11.892,0,0,1-2.8.544V33.616c0-.464.016-.784.032-1.328.64-.064,1.136-.128,1.712-.24l.912-.144-.032-1.04a20.779,20.779,0,0,1-5.36.608,11.83,11.83,0,0,1-2.736-.224l-.048,1.056c.3,0,.384,0,.96.032.608.048,1.264.064,1.92.064.608,0,1.008-.016,1.632-.048-.032.7-.032,1.024-.032,1.312,0,.192,0,.432.016,1.264-.768.032-1.392.048-1.92.048a11.152,11.152,0,0,1-2.656-.224l-.032,1.072h.128a2.477,2.477,0,0,1,.336.016c1.168.064,1.552.08,2.272.08.688,0,1.056-.016,1.9-.048.032,1.808.08,2.832.112,3.056a4.713,4.713,0,0,0-1.7-.288c-1.84,0-3.1.912-3.1,2.24,0,1.344,1.152,2.208,2.944,2.208a2.824,2.824,0,0,0,2.7-1.232,2.826,2.826,0,0,0,.208-1.168,1.9,1.9,0,0,0-.032-.448c.08.032.08.032.256.112.032,0,.032,0,.352.192a9.381,9.381,0,0,1,2.1,1.552Zm-4.224-1.136c.016.016.032.56.032.688,0,1.088-.592,1.6-1.856,1.6-1.184,0-1.9-.48-1.9-1.264,0-.816.8-1.312,2.112-1.312A4.666,4.666,0,0,1,435.36,39.856Zm-7.024,3.328a.917.917,0,0,1-.016-.192,15.782,15.782,0,0,1,1.456-4.736l-.768-.384a22.509,22.509,0,0,0-.928,2.528,4.434,4.434,0,0,1-.176.608l-.048-.016c0-.608-.016-.736-.016-.88,0-.4,0-.4-.016-.8-.016-.368-.032-.752-.032-1.136a26.482,26.482,0,0,1,.56-5.344,14.956,14.956,0,0,1,.656-2.464l-1.232-.192a7.035,7.035,0,0,1-.16.864,32.229,32.229,0,0,0-.848,7.024,30.921,30.921,0,0,0,.272,3.968,6.457,6.457,0,0,1,.144,1.216ZM444.992,30.32a4.921,4.921,0,0,1,.064.848c0,.256,0,.56-.016,1.04-.128,5.04-.144,5.44-.144,6.512,0,1.68.224,2.528.88,3.28a3.794,3.794,0,0,0,3.008,1.12,5.6,5.6,0,0,0,4.512-2,9.733,9.733,0,0,0,1.776-3.632,4.526,4.526,0,0,1-1.152-.768,9.505,9.505,0,0,1-.784,2.512,4.6,4.6,0,0,1-4.288,2.784,3.02,3.02,0,0,1-2-.624,2.519,2.519,0,0,1-.752-1.92c-.016-.368-.032-.768-.032-.96,0-.72.048-2.9.112-4.816a24.667,24.667,0,0,1,.208-3.376Zm14.944,1.136a8.65,8.65,0,0,1,.048.944c.08,3.936.3,5.984.864,7.5.544,1.536,1.376,2.432,2.272,2.432,1.136,0,1.872-1.072,2.656-3.872a5.115,5.115,0,0,1-.944-.912A11.51,11.51,0,0,1,464,40.288c-.24.528-.512.8-.8.8-.608,0-1.264-1.1-1.616-2.736a27.4,27.4,0,0,1-.416-4.976,11.6,11.6,0,0,1,.112-1.9Zm8.1,1.36A14.131,14.131,0,0,1,471.36,40.7l1.136-.464a15.32,15.32,0,0,0-1.2-4.272,13.888,13.888,0,0,0-2.288-3.648Zm11.488-2.992a16.462,16.462,0,0,1-.544,3.008c-.3,0-.832.016-1.152.016a10.111,10.111,0,0,1-1.9-.128l-.016,1.1h.208c.048,0,.176,0,.352.016.24,0,.784.016,1.056.016.24,0,.784-.016,1.184-.032a23.955,23.955,0,0,1-1.664,4.128,14.125,14.125,0,0,1-1.536,2.5l1.088.64c.08-.128.176-.32.32-.544.608-1.056.752-1.328,1.136-2.1a29.811,29.811,0,0,0,1.776-4.672,19.316,19.316,0,0,0,2.624-.336c.384-.064.384-.064.56-.1l-.048-1.1a13.314,13.314,0,0,1-2.864.528c.224-.816.32-1.2.432-1.744A5.01,5.01,0,0,1,480.784,30Zm9.424,4.416a22.053,22.053,0,0,0-4.224-2.112l-.592.9a17.353,17.353,0,0,1,4.24,2.176Zm.032,7.088a1.619,1.619,0,0,1-.288-.256,11.493,11.493,0,0,0-3.136-1.936,19.085,19.085,0,0,1-.176-2.432,4.911,4.911,0,0,1,.208-1.488L484.5,35.1a6.477,6.477,0,0,0-.16,1.552c0,.4.032,1.152.112,2.192a5.281,5.281,0,0,0-1.616-.24,4.676,4.676,0,0,0-1.888.352,2.269,2.269,0,0,0-1.488,2.032c0,1.424,1.2,2.32,3.12,2.32,1.952,0,3.04-.912,3.04-2.56a3.315,3.315,0,0,0-.032-.512,9.152,9.152,0,0,1,2.8,2.176Zm-4.448-1.456s.032.5.032.688c0,1.2-.624,1.744-2,1.744-1.264,0-2.032-.5-2.032-1.312,0-.88.864-1.44,2.224-1.44A4.748,4.748,0,0,1,484.528,39.872Zm11.1-9.536a6.919,6.919,0,0,1,.272,1.024,32.314,32.314,0,0,0,1.168,4.464,9.945,9.945,0,0,0-2.1,1.312,3.461,3.461,0,0,0-1.424,2.72,2.656,2.656,0,0,0,1.984,2.624,10.885,10.885,0,0,0,3.552.432,32.1,32.1,0,0,0,3.536-.208l.544-.064.16-.016a4.2,4.2,0,0,1,.48-.016l-.128-1.328a15.886,15.886,0,0,1-4.576.544c-3.136,0-4.368-.576-4.368-2.016,0-1.328,1.184-2.384,3.92-3.488a42.366,42.366,0,0,1,4.816-1.552l-.48-1.216a7.239,7.239,0,0,1-1.024.432c-2.464.848-2.992,1.056-3.872,1.424a29.153,29.153,0,0,1-1.2-5.3Zm5.872-.048a12.477,12.477,0,0,1,1.632,2.544l.816-.48a12.845,12.845,0,0,0-1.648-2.48Zm1.824-.864a13.418,13.418,0,0,1,1.632,2.512l.8-.448a12.8,12.8,0,0,0-1.664-2.5Zm4.608,10.944a15.968,15.968,0,0,1,3.152,3.488l.9-.848a16.3,16.3,0,0,0-3.216-3.392Zm25.5-8.032v2.08h-2.128a10.619,10.619,0,0,1-1.616-.1v1.072a11.693,11.693,0,0,1,1.616-.1h4.5v1.872h-4.5a10.194,10.194,0,0,1-1.616-.1v1.1a11.943,11.943,0,0,1,1.6-.1h4.512v4.4c0,.352-.112.416-.72.416a11.614,11.614,0,0,1-1.824-.192,2.847,2.847,0,0,1,.256,1.056c.928.048,1.184.064,1.44.064,1.488,0,1.84-.24,1.84-1.264V38.08h.5a10.654,10.654,0,0,1,1.568.1v-1.1a9.789,9.789,0,0,1-1.568.1h-.5V35.3h.528a10.271,10.271,0,0,1,1.552.1V34.32a10.475,10.475,0,0,1-1.616.1h-2.832v-2.08H536.7a13.2,13.2,0,0,1,1.52.08V31.36a9.671,9.671,0,0,1-1.52.1h-2.272v-.512a7.789,7.789,0,0,1,.1-1.3h-1.184a8.212,8.212,0,0,1,.1,1.3v.512h-1.7a9.394,9.394,0,0,1-1.52-.1v1.056a13.945,13.945,0,0,1,1.536-.08ZM525.232,41.1a12.789,12.789,0,0,1-.1,1.7h1.04V41.488h2.1v.8h.992c-.032-.352-.048-.768-.048-1.536V31.984a11.861,11.861,0,0,1,.048-1.568,13.75,13.75,0,0,1-1.44.048H526.64a14.355,14.355,0,0,1-1.472-.048,13.237,13.237,0,0,1,.064,1.536Zm.944-9.744h2.1v3.968h-2.1Zm0,4.832h2.1v4.4h-2.1Zm7.68,5.12a17.221,17.221,0,0,0-2.3-2.608l-.784.56a14.523,14.523,0,0,1,2.224,2.688Zm8.848-6.32h2.928c.64,0,1.184.016,1.616.048-.032-.4-.048-.848-.048-1.488V31.568c0-.592.016-1.072.048-1.52a14.04,14.04,0,0,1-1.632.064h-2.288a14.811,14.811,0,0,1-1.68-.064c.048.512.064.976.064,1.76V42.144a11.955,11.955,0,0,1-.1,1.792H542.8a11.523,11.523,0,0,1-.1-1.792Zm0-4.1h3.584v1.28H542.7Zm0,2.032h3.584v1.3H542.7Zm11.888-1.12a15.134,15.134,0,0,1,.08-1.76,14.811,14.811,0,0,1-1.68.064h-2.64a13.864,13.864,0,0,1-1.632-.064c.032.48.048.96.048,1.52v1.984c0,.592-.016,1.072-.048,1.488.432-.032.944-.048,1.616-.048h3.28V42.32c0,.384-.128.464-.784.464a17.4,17.4,0,0,1-1.76-.16,3.674,3.674,0,0,1,.288,1.024c.4.032,1.264.064,1.6.064,1.3,0,1.632-.272,1.632-1.328ZM549.68,30.9h3.936v1.28H549.68Zm0,2.032h3.936v1.3H549.68ZM551.1,37.76c0-.64.016-1.056.048-1.5a14.174,14.174,0,0,1-1.584.064H546.64a14.358,14.358,0,0,1-1.584-.064c.032.464.048.928.048,1.5v3.552a9.874,9.874,0,0,1-.08,1.5h.992V41.7h3.5c.656,0,1.184.016,1.632.048-.032-.416-.048-.848-.048-1.456Zm-5.088-.64h4.176v1.424h-4.176Zm0,2.224h4.176V40.9h-4.176Zm16.176-7.312a22.388,22.388,0,0,1-3.424-.176l-.016,1.1a2.838,2.838,0,0,1,.352-.016h.256c.592.016,2.1.048,2.352.048a1.772,1.772,0,0,0,.3-.032l-.144.24a15.921,15.921,0,0,1-3.584,4.576l.9.9a5.293,5.293,0,0,1,1.232-1.328,6.011,6.011,0,0,1,3.568-1.7c.752,0,1.136.384,1.264,1.264a12.421,12.421,0,0,0-2.384,1.28,3.308,3.308,0,0,0-1.632,2.528c0,1.648,1.392,2.464,4.256,2.464a24.822,24.822,0,0,0,3.888-.32,6.3,6.3,0,0,1,.64-.08l-.144-1.232a13.406,13.406,0,0,1-4.272.624c-2.256,0-3.248-.464-3.248-1.52,0-.96.832-1.712,3.008-2.736a4.191,4.191,0,0,1,.016.48,23.017,23.017,0,0,1-.1,2.3l1.088-.016a3.473,3.473,0,0,1-.032-.576c0-.144,0-.368.016-.72.016-.32.016-.672.016-.88,0-.4,0-.56-.032-.976a26.564,26.564,0,0,1,4.272-1.408l-.512-1.12a3.52,3.52,0,0,1-1.088.464c-.7.256-1.616.592-2.784,1.056a1.942,1.942,0,0,0-2.112-1.776,4.258,4.258,0,0,0-2.416.784c-.16.112-.16.112-.736.56a.123.123,0,0,1-.032-.048v-.016a.016.016,0,0,0,.016-.016c.016-.016.1-.08.208-.16.064-.048.384-.416.544-.608a11.8,11.8,0,0,0,1.44-2.272,51.661,51.661,0,0,0,5.28-.416,4.988,4.988,0,0,1,.64-.08l-.1-1.088a22.519,22.519,0,0,1-5.04.608,2.724,2.724,0,0,0-.336.016c.08-.144.288-.576.5-1.088a3.4,3.4,0,0,1,.416-.864l-1.28-.224a6.789,6.789,0,0,1-.768,2.192Zm13.84,5.9a11.714,11.714,0,0,1-1.776-.1V38.9a13.667,13.667,0,0,1,1.776-.08h2.192a15.934,15.934,0,0,1-1.76,1.824c1.6.336,2.736.608,3.984.976a14.259,14.259,0,0,1-6.288,1.328,3.673,3.673,0,0,1,.464.992,14.88,14.88,0,0,0,7.04-1.952,38.476,38.476,0,0,1,5.28,2.144l.72-.88a53.235,53.235,0,0,0-5.12-1.9,6.9,6.9,0,0,0,1.92-2.528h1.76a14.089,14.089,0,0,1,1.792.08V37.84a11.669,11.669,0,0,1-1.792.1h-6.192c.352-.528.448-.656.9-1.44h4.128a16.268,16.268,0,0,1,1.84.064,10.311,10.311,0,0,1-.064-1.408V34.016a11.773,11.773,0,0,1,.064-1.456,15.937,15.937,0,0,1-1.744.08h-1.9V31.088h2.992a12.794,12.794,0,0,1,1.776.08V30.112a12.017,12.017,0,0,1-1.824.1H576.1a11.914,11.914,0,0,1-1.808-.1v1.056a12.513,12.513,0,0,1,1.776-.08h2.8V32.64H577.04a16.266,16.266,0,0,1-1.728-.08,12.281,12.281,0,0,1,.064,1.456v1.152a10.973,10.973,0,0,1-.064,1.392,16.826,16.826,0,0,1,1.84-.064h2.656a8.434,8.434,0,0,1-.9,1.44Zm7.3.88a5.16,5.16,0,0,1-1.888,2.208c-1.216-.368-1.776-.512-3.264-.848a14.18,14.18,0,0,0,1.216-1.36Zm-3.552-7.728h2.56V32.64h-2.56Zm-.912,2.368V35.68h-2.512V33.456Zm.912,0h2.56V35.68h-2.56Zm3.472,0h2.608V35.68h-2.608Zm15.2-1.312c-1.088.032-2.336.064-3.872.128-2.576.1-2.576.1-3.04.1-.24,0-.352,0-.64-.016l.048,1.168c1.072-.176,4.3-.336,7.52-.4v.832c0,.192.016.352.016.416,0,.592,0,.656.016.88a2.457,2.457,0,0,0-1.856-.72,2.662,2.662,0,0,0-2.832,2.64,2.675,2.675,0,0,0,4.64,1.664,2.242,2.242,0,0,0,.432-.784,4.144,4.144,0,0,1-1.792,3.376,8.2,8.2,0,0,1-2.592,1.2,3.512,3.512,0,0,1,.7,1.008,10.177,10.177,0,0,0,2.528-1.3,5.15,5.15,0,0,0,2.144-4.176,4.585,4.585,0,0,0-.384-1.888V33.1c1.3-.032,1.472-.032,1.712-.032a28.436,28.436,0,0,1,3.056.08V32.016c-.528.064-1.76.1-4.784.112v-.176a13.241,13.241,0,0,1,.08-2h-1.2a5.4,5.4,0,0,1,.064.928Zm-.048,4.672a1.793,1.793,0,0,1-1.872,1.888,1.546,1.546,0,0,1-1.648-1.584,1.693,1.693,0,0,1,1.776-1.68,2.047,2.047,0,0,1,1.072.256A1.158,1.158,0,0,1,598.4,36.816Zm11.536-4.736A7.881,7.881,0,0,1,610.8,32c2.432-.08,4.352-.192,4.864-.288a.619.619,0,0,1,.144-.016l.032.032-.064.064-.064.064-.224.224c-1.1,1.088-3.632,3.312-5.344,4.672a17.822,17.822,0,0,1-2.24,1.632l.72,1.024a10.268,10.268,0,0,1,6.736-2.736c2.16,0,3.44.912,3.44,2.448,0,1.36-.88,2.336-2.56,2.8a4.58,4.58,0,0,0-.736-1.536,3.223,3.223,0,0,0-2.64-1.312,2.078,2.078,0,0,0-2.32,1.872c0,1.472,1.3,2.3,3.552,2.3,3.552,0,5.872-1.648,5.872-4.144,0-2.048-1.712-3.36-4.384-3.36a8.107,8.107,0,0,0-3.92.992l-.032-.048a41.056,41.056,0,0,0,5.264-4.544,2.953,2.953,0,0,1,.816-.672l-.672-.88a1.636,1.636,0,0,1-.768.176c-1.44.112-3.568.208-4.9.208a7.389,7.389,0,0,1-1.5-.1Zm5.248,10.128a5.761,5.761,0,0,1-1.168.112,4.088,4.088,0,0,1-1.792-.368,1.092,1.092,0,0,1-.64-.976c0-.608.5-.992,1.3-.992C614.032,39.984,614.832,40.752,615.184,42.208Zm9.12-3.264c.208-.272.336-.432.448-.56,1.024-1.184,2.272-2.72,2.9-3.568.7-.944.784-1.024,1.1-1.024s.384.048,1.44,1.184a63.984,63.984,0,0,0,5.424,5.312c1.056.9,1.072.912,1.424,1.232l.608-1.312a7.523,7.523,0,0,1-1.328-.96,51.474,51.474,0,0,1-5.472-5.232c-1.168-1.28-1.424-1.472-2.064-1.472-.72,0-1.12.3-2.032,1.52-.784,1.04-2.256,2.816-2.736,3.28a2.551,2.551,0,0,1-.528.4Zm28.688-7.952c-.288.112-.288.112-1.36.112H643.04a11.727,11.727,0,0,1-1.9-.112v1.232a15.449,15.449,0,0,1,1.888-.08h9.088a8.49,8.49,0,0,1-1.792,2.384,6.927,6.927,0,0,1-2.528,1.52,3.143,3.143,0,0,1,.784.912,9.576,9.576,0,0,0,4.672-4.56,2.873,2.873,0,0,1,.384-.64Zm-6.976,2.784a4.227,4.227,0,0,1,.064.864c0,3.12-.624,4.752-2.32,6.112a7.518,7.518,0,0,1-2.928,1.472,3.129,3.129,0,0,1,.736,1.072,8.716,8.716,0,0,0,4.1-2.768c1.088-1.376,1.536-2.96,1.584-5.632a5.807,5.807,0,0,1,.064-1.12Zm19.776-3.408a7,7,0,0,1-.56,1.7,21.99,21.99,0,0,1-1.888,3.728,45.965,45.965,0,0,0-4.16-2.784l-.8.848a30.3,30.3,0,0,1,4.3,2.9A17.044,17.044,0,0,1,656.32,42.1a2.851,2.851,0,0,1,.832.96,19.1,19.1,0,0,0,6.432-5.568,22.907,22.907,0,0,1,3.488,3.472l.9-.992a41.132,41.132,0,0,0-3.68-3.44,26.17,26.17,0,0,0,2.352-4.672,4.505,4.505,0,0,1,.5-.976Zm17.936-.272a13.43,13.43,0,0,1-3.056,3.024,22.529,22.529,0,0,1-8.3,4.144,3.705,3.705,0,0,1,.624,1.072,25.013,25.013,0,0,0,6.176-2.8v6.08a8.338,8.338,0,0,1-.1,1.664h1.392a10.635,10.635,0,0,1-.08-1.7V34.768a28.18,28.18,0,0,0,3.744-3.216,3.622,3.622,0,0,1,.7-.672Zm9.312-.336a7.255,7.255,0,0,1-1.008,2.336,11.854,11.854,0,0,1-4.016,4.384,2.379,2.379,0,0,1,.9.832,15.424,15.424,0,0,0,3.824-4.16l5.392-.1a14.7,14.7,0,0,1-2.752,5.36,13.61,13.61,0,0,1-5.648,4.048,2.413,2.413,0,0,1,.8.944,15.668,15.668,0,0,0,5.568-4,16.928,16.928,0,0,0,3.2-6.016c.176-.576.176-.592.32-.784l-.688-.672a1.572,1.572,0,0,1-.832.112c-4.624.08-4.624.08-4.832.128A15.3,15.3,0,0,0,694,30.752a3.058,3.058,0,0,1,.352-.656Zm18.544,2.432a4.6,4.6,0,0,1,1.856.4,4.218,4.218,0,0,1,2.544,4.016,4.83,4.83,0,0,1-2.832,4.48,9.591,9.591,0,0,1-2.672.752,2.543,2.543,0,0,1,.56,1.072,12.378,12.378,0,0,0,2.432-.736,5.826,5.826,0,0,0,3.664-5.52,5.356,5.356,0,0,0-1.552-3.9,6.194,6.194,0,0,0-4.4-1.584,6.5,6.5,0,0,0-6.848,6.544c0,2.24,1.136,3.9,2.656,3.9,1.152,0,2.1-.96,3.024-3.072A23.985,23.985,0,0,0,711.584,32.192Zm-1.152.016a21.974,21.974,0,0,1-1.456,5.92c-.688,1.568-1.328,2.32-2,2.32-.864,0-1.536-1.184-1.536-2.72a5.533,5.533,0,0,1,2.608-4.768A5.053,5.053,0,0,1,710.432,32.208Zm17.9,6.5a9.074,9.074,0,0,1-4.048,3.248,2.324,2.324,0,0,1,.688.752,11.029,11.029,0,0,0,4.4-4h1.584a7.8,7.8,0,0,1-1.312,2.1,10.156,10.156,0,0,1-3.136,2.432,2.732,2.732,0,0,1,.736.752,12.989,12.989,0,0,0,1.3-.9,16.336,16.336,0,0,0,1.968-1.968,9.264,9.264,0,0,0,1.424-2.416h1.072a19.448,19.448,0,0,1-.352,3.072c-.208.96-.32,1.088-.96,1.088a11.052,11.052,0,0,1-1.9-.176,2.711,2.711,0,0,1,.32,1.04c.5.032,1.024.064,1.392.064,1.088,0,1.488-.16,1.776-.736a15.967,15.967,0,0,0,.7-4.272,7.244,7.244,0,0,1,.08-.944,12.487,12.487,0,0,1-1.568.064h-5.3a7.836,7.836,0,0,0,.736-1.168h4.9a13.636,13.636,0,0,1,1.584.064V35.792a9.088,9.088,0,0,1-1.584.1H726a7.878,7.878,0,0,1-1.472-.1v1.04a7.832,7.832,0,0,1,1.44-.1h.976a7.681,7.681,0,0,1-3.712,3.376,2.844,2.844,0,0,1,.656.72,10.258,10.258,0,0,0,2.688-2.128Zm-6.256-5.088h-.656a8.944,8.944,0,0,1-1.392-.08v1.056a11.533,11.533,0,0,1,1.36-.08h.688v4.576a7.972,7.972,0,0,1-2.064.784l.3,1.12c.144-.08.592-.3.848-.416a29.493,29.493,0,0,0,3.328-1.808l-.064-.96a13.834,13.834,0,0,1-1.36.816V34.512h.384a12.5,12.5,0,0,1,1.328.064V33.552a9.442,9.442,0,0,1-1.328.064h-.384V31.408a10.908,10.908,0,0,1,.1-1.776h-1.184a12.672,12.672,0,0,1,.1,1.76Zm9.456,1.216c.624,0,1.12.016,1.472.048a9.423,9.423,0,0,1-.064-1.424v-2a11.7,11.7,0,0,1,.064-1.488,11.717,11.717,0,0,1-1.664.08h-4.176a10.329,10.329,0,0,1-1.536-.08,10.773,10.773,0,0,1,.064,1.408v2.08a12.335,12.335,0,0,1-.064,1.44,11.283,11.283,0,0,1,1.456-.064Zm-4.9-3.952H732v1.168h-5.36Zm0,1.952H732v1.216h-5.36Zm16.384-3.3a11.639,11.639,0,0,1-2.464,2.784,16.688,16.688,0,0,1-4.352,2.784,2.782,2.782,0,0,1,.672.912,18.5,18.5,0,0,0,3.392-2.08,14.908,14.908,0,0,0,3.36-3.5A13.44,13.44,0,0,0,746.1,33.12a22.365,22.365,0,0,0,4.512,2.944,4.143,4.143,0,0,1,.64-1.008,16.778,16.778,0,0,1-4.384-2.624,10.991,10.991,0,0,1-2.64-2.9Zm-3.12,5.952a9.2,9.2,0,0,1,1.248-.064h4.976a9.849,9.849,0,0,1,1.344.064V34.4a9.554,9.554,0,0,1-1.344.064h-4.96A8.178,8.178,0,0,1,739.9,34.4Zm-.112,8.352v-.928h7.728v.928h1.152a11.116,11.116,0,0,1-.1-1.568V38.736a9.667,9.667,0,0,1,.08-1.472,8.479,8.479,0,0,1-1.248.064h-7.5a8.479,8.479,0,0,1-1.248-.064,10.067,10.067,0,0,1,.08,1.472v3.536a11.619,11.619,0,0,1-.1,1.568Zm0-5.536h7.728v3.664h-7.728Zm18.24-3.76h.064a.735.735,0,0,1,.16.016,2.382,2.382,0,0,1,.272.016,4.2,4.2,0,0,1,.512.032c.56.032,1.152.048,1.808.048.608,0,1.1-.016,1.824-.048.048,2.336.112,3.84.16,4.176a4.52,4.52,0,0,0-1.776-.32c-1.776,0-3.04.944-3.04,2.272,0,1.392,1.168,2.272,3.024,2.272a2.343,2.343,0,0,0,2.864-2.432,2.292,2.292,0,0,0-.032-.416,1.124,1.124,0,0,1,.144.1,1.028,1.028,0,0,0,.16.1,8.647,8.647,0,0,1,2.272,1.664l.5-1.12c-.176-.112-.208-.144-.4-.272a11.58,11.58,0,0,0-2.672-1.568c-.128-2.128-.16-2.944-.176-4.528a15.3,15.3,0,0,0,1.7-.256c1.088-.224,1.088-.224,1.12-.224l-.048-1.088a10.906,10.906,0,0,1-2.768.592c-.016-.352-.016-.608-.016-.784a16.368,16.368,0,0,1,.112-2.512h-1.2a3.551,3.551,0,0,1,.048.656c0,1.216,0,1.216.016,2.72-.656.032-1.088.048-1.712.048a11.076,11.076,0,0,1-2.88-.256Zm4.816,5.216s.016.368.016.48a1.869,1.869,0,0,1-.3,1.248,2.205,2.205,0,0,1-1.632.56c-1.12,0-1.856-.512-1.856-1.3,0-.8.816-1.328,2.064-1.328A4.132,4.132,0,0,1,762.848,39.76ZM755.2,30.24a7.368,7.368,0,0,1-.176,1.008,27.109,27.109,0,0,0-.832,6.576,25.473,25.473,0,0,0,.448,4.752c.064.368.08.448.1.592l1.136-.112a1.744,1.744,0,0,1-.032-.32,13.816,13.816,0,0,1,1.376-4.544l-.784-.368a2.2,2.2,0,0,1-.128.32,14.2,14.2,0,0,0-.944,2.816l-.064-.016v-.3c-.016-.288-.016-.32-.016-.448-.032-.736-.064-1.68-.064-2.24a22.8,22.8,0,0,1,1.232-7.5Zm14.94,1.583,2.852,5.273,2.867-5.273H777.6l-2.07,3.477H776.9v1.063h-1.977l-1.008,1.7h2.727V39.12h-2.914V42.8h-1.477V39.12h-2.836V38.066h2.648l-1-1.7h-2.016V35.3h1.406L768.4,31.823ZM778.518,42.8a6.524,6.524,0,0,1,.6-2.516,4.838,4.838,0,0,1,2.027-1.945l1.5-.867a7.061,7.061,0,0,0,1.414-1,2.183,2.183,0,0,0,.055-3.035,2.136,2.136,0,0,0-1.562-.574,2.042,2.042,0,0,0-2,1.094,3.915,3.915,0,0,0-.328,1.625h-1.43a5.022,5.022,0,0,1,.539-2.383,3.383,3.383,0,0,1,3.227-1.625,3.319,3.319,0,0,1,3.7,3.352,3.144,3.144,0,0,1-.945,2.3,9.255,9.255,0,0,1-1.961,1.344l-1.07.594a6.933,6.933,0,0,0-1.2.8,2.931,2.931,0,0,0-.984,1.508H786.2V42.8Zm10.207,1.633a.985.985,0,0,0,.758-.758A2.145,2.145,0,0,0,789.6,43q0-.055,0-.1a.538.538,0,0,0-.02-.1h-.852V41.1H790.4v1.578a3.418,3.418,0,0,1-.375,1.633,1.709,1.709,0,0,1-1.3.867Zm4.1-1.633a6.524,6.524,0,0,1,.6-2.516,4.838,4.838,0,0,1,2.027-1.945l1.5-.867a7.061,7.061,0,0,0,1.414-1,2.183,2.183,0,0,0,.055-3.035,2.136,2.136,0,0,0-1.562-.574,2.042,2.042,0,0,0-2,1.094,3.915,3.915,0,0,0-.328,1.625H793.1a5.022,5.022,0,0,1,.539-2.383,3.383,3.383,0,0,1,3.227-1.625,3.319,3.319,0,0,1,3.7,3.352,3.144,3.144,0,0,1-.945,2.3,9.255,9.255,0,0,1-1.961,1.344l-1.07.594a6.933,6.933,0,0,0-1.2.8,2.931,2.931,0,0,0-.984,1.508H800.5V42.8Zm13.207-11.187a3.306,3.306,0,0,1,3.141,1.789,8,8,0,0,1,.75,3.789,9.124,9.124,0,0,1-.68,3.773,3.328,3.328,0,0,1-3.219,2.141,3.223,3.223,0,0,1-3-1.75,8.013,8.013,0,0,1-.82-3.922,9.69,9.69,0,0,1,.492-3.273A3.368,3.368,0,0,1,806.029,31.612Zm-.016,10.211a2,2,0,0,0,1.742-.969,7.014,7.014,0,0,0,.648-3.609,8.918,8.918,0,0,0-.469-3.137,1.784,1.784,0,0,0-1.82-1.23,1.9,1.9,0,0,0-1.816,1.168,8.065,8.065,0,0,0-.574,3.441,8.45,8.45,0,0,0,.367,2.75A2,2,0,0,0,806.013,41.823Zm9.394-10.211a3.306,3.306,0,0,1,3.141,1.789,8,8,0,0,1,.75,3.789,9.124,9.124,0,0,1-.68,3.773A3.328,3.328,0,0,1,815.4,43.1a3.223,3.223,0,0,1-3-1.75,8.013,8.013,0,0,1-.82-3.922,9.69,9.69,0,0,1,.492-3.273A3.368,3.368,0,0,1,815.407,31.612Zm-.016,10.211a2,2,0,0,0,1.742-.969,7.014,7.014,0,0,0,.648-3.609,8.918,8.918,0,0,0-.469-3.137,1.784,1.784,0,0,0-1.82-1.23,1.9,1.9,0,0,0-1.816,1.168,8.065,8.065,0,0,0-.574,3.441,8.45,8.45,0,0,0,.367,2.75A2,2,0,0,0,815.392,41.823Zm6.586-8.351a53.264,53.264,0,0,1,5.52-.528,32.746,32.746,0,0,0,3.52-.352,10.477,10.477,0,0,0-1.52.848,6.088,6.088,0,0,0-2.992,4.912,3.874,3.874,0,0,0,1.776,3.264,8.071,8.071,0,0,0,3.456,1.232c.288.048.32.064.5.1l.208-1.3h-.16a8.2,8.2,0,0,1-2.4-.512,3.137,3.137,0,0,1-2.24-2.96,4.89,4.89,0,0,1,1.968-3.7,7.87,7.87,0,0,1,3.072-1.6,6.711,6.711,0,0,1,1.792-.224l-.1-1.184a10.806,10.806,0,0,1-1.9.176l-.912.032c-.528.016-.736.032-2.7.144l-2.512.16c-1.968.112-2.064.128-2.96.192-.5.032-.688.048-.912.048-.112,0-.272,0-.576-.016Zm9.824,1.536a11.254,11.254,0,0,1,1.632,2.544l.816-.48a12.145,12.145,0,0,0-1.648-2.48Zm1.824-.864a12.662,12.662,0,0,1,1.632,2.512l.8-.448a12.965,12.965,0,0,0-1.648-2.5Zm17.7-.864A11.992,11.992,0,0,1,849,35.9a13.44,13.44,0,0,1-.608-2.768l-.976.288c.048.176.064.256.128.464a21.561,21.561,0,0,0,1.3,4.224,13.272,13.272,0,0,0,3.008,4.448,5.241,5.241,0,0,1,.816-.9,9.961,9.961,0,0,1-2.432-2.848,11.619,11.619,0,0,1-.912-1.968,27.588,27.588,0,0,0,2.656-2.64,1.773,1.773,0,0,1,.176-.176Zm-6.848,4.032h-1.12a6.964,6.964,0,0,1-1.264-.08v.944a7.181,7.181,0,0,1,1.264-.08h1.12v1.568h-1.952a6.941,6.941,0,0,1-1.28-.08v.976a7.725,7.725,0,0,1,1.344-.08h1.888v1.888c0,.384-.112.464-.672.464a13.6,13.6,0,0,1-2.272-.208,3.017,3.017,0,0,1,.24,1.04c.72.048,1.3.08,1.936.08a2.732,2.732,0,0,0,1.28-.176c.3-.176.432-.464.432-1.04V40.48h1.952a7.134,7.134,0,0,1,1.3.08v-.976a6.006,6.006,0,0,1-1.216.08h-2.032V38.1h1.28a6.3,6.3,0,0,1,1.216.08v-.944a6.006,6.006,0,0,1-1.216.08h-1.28V35.9h1.024a6.329,6.329,0,0,1,1.136.08V35.04a5.91,5.91,0,0,1-1.136.08h-1.024V33.728a24.744,24.744,0,0,0,3.968-2.592l.3-.256-.528-.7a10.732,10.732,0,0,1-1.5.064h-5.872a14.063,14.063,0,0,1-1.824-.1v1.072a13.235,13.235,0,0,1,1.824-.1h6.208a19.068,19.068,0,0,1-3.136,1.952h-.464a8.642,8.642,0,0,1,.08,1.424v.624H843.5a6.012,6.012,0,0,1-1.136-.08v.944a8.25,8.25,0,0,1,1.136-.08h.976Zm-2.688-3.488a4.35,4.35,0,0,1-.912.064h-1.76a6.251,6.251,0,0,1-1.264-.08v1.04a6.282,6.282,0,0,1,1.232-.08h2.064a14.273,14.273,0,0,1-1.44,4.208,9.808,9.808,0,0,1-2.368,2.864,3.615,3.615,0,0,1,.752.8,12.526,12.526,0,0,0,2.432-3.168,18.786,18.786,0,0,0,1.568-4.528c.08-.3.112-.432.176-.608Zm14.544,3.648a7.062,7.062,0,0,1,1.712-.528,18.6,18.6,0,0,1,4.208-.64c1.936,0,2.96.784,2.96,2.24,0,1.424-1.1,2.64-2.928,3.232a10.91,10.91,0,0,1-3.152.5,1.217,1.217,0,0,1-.224-.016,3.5,3.5,0,0,1,.416,1.1,15.154,15.154,0,0,0,3.3-.608c2.224-.7,3.664-2.336,3.664-4.128a3.5,3.5,0,0,0-.5-1.824,3.659,3.659,0,0,0-3.392-1.488,20.657,20.657,0,0,0-4.88.7,7.512,7.512,0,0,1-1.472.288ZM871.065,33.5a47,47,0,0,1,5.52-.528,31.006,31.006,0,0,0,3.52-.352,10.473,10.473,0,0,0-1.52.848,6.066,6.066,0,0,0-2.992,4.912,3.894,3.894,0,0,0,1.776,3.264,8.07,8.07,0,0,0,3.456,1.232c.256.048.32.064.5.1l.208-1.3h-.16a8.2,8.2,0,0,1-2.4-.512,3.137,3.137,0,0,1-2.24-2.96,4.89,4.89,0,0,1,1.968-3.7,8.124,8.124,0,0,1,3.072-1.616,7.421,7.421,0,0,1,1.792-.208l-.1-1.2a10.74,10.74,0,0,1-1.9.176c-2.064.1-7.184.384-9.088.528-.5.032-.688.048-.912.048h-.576ZM9.392,61.056a16.17,16.17,0,0,1-3.264.688V60.208a9.151,9.151,0,0,1,.08-1.488H5.024a10.629,10.629,0,0,1,.08,1.52v1.584c-.48.032-1.1.048-1.536.048a9.062,9.062,0,0,1-1.632-.112v1.056h.656c.176.016.608.016.848.016.464,0,.736,0,1.024-.016.5-.032.5-.032.64-.048v3.024A8.559,8.559,0,0,0,2.848,67.1a2.9,2.9,0,0,0-1.264,2.128,1.93,1.93,0,0,0,.736,1.5A4.226,4.226,0,0,0,4.96,71.76c.784,0,1.168-.416,1.168-1.28v-4a10.8,10.8,0,0,1,3.392-.624c2.1,0,3.424.976,3.424,2.544A2.124,2.124,0,0,1,10.8,70.656c-1.168,0-1.648-.688-1.648-2.352a4.752,4.752,0,0,1,.032-.624,3.468,3.468,0,0,1-1.056.416A5.838,5.838,0,0,0,8.32,69.9a2.36,2.36,0,0,0,2.464,1.808A3.292,3.292,0,0,0,12.4,65.568,5.417,5.417,0,0,0,9.568,64.9a11.335,11.335,0,0,0-3.44.576V62.7a28.082,28.082,0,0,0,2.832-.48c.224-.048.288-.064.48-.1ZM5.1,69.888c0,.688-.048.784-.368.784a2.988,2.988,0,0,1-1.424-.464c-.464-.3-.688-.624-.688-.96,0-.768.9-1.632,2.48-2.4ZM14.72,63.12a13.445,13.445,0,0,0-3.232-3.04l-.832.624a13.1,13.1,0,0,1,3.232,3.136Zm6.016-4.48a3.207,3.207,0,0,1-.048.512,40.444,40.444,0,0,0-.544,5.9v.368l.032,1.664.016.288v.176l1.152-.048c-.016-.24-.016-.32-.016-.384a8.35,8.35,0,0,1,.864-3.568c.912-1.872,1.936-2.784,3.152-2.784,1.536,0,2.432,1.488,2.432,4.064,0,2.56-.88,4.24-2.752,5.312a8.454,8.454,0,0,1-3.248,1.008,3.3,3.3,0,0,1,.64,1.088,12.111,12.111,0,0,0,2.848-.944,6.6,6.6,0,0,0,3.7-6.288A6.572,6.572,0,0,0,28,61.12,3.012,3.012,0,0,0,25.44,59.7a3.816,3.816,0,0,0-3.2,2.064,7.139,7.139,0,0,0-.976,2.384c-.08.336-.08.336-.112.464l-.064-.016c.048-.816.272-2.56.528-4.176a9.07,9.07,0,0,1,.368-1.648ZM46.96,70.32a5.469,5.469,0,0,1-.544-.368,14.005,14.005,0,0,0-4.464-2.336c-.064-1.552-.064-1.552-.1-2.448,1.184-.08,2.448-.208,3.552-.384.56-.08.72-.1.928-.112l-.064-1.1a19.312,19.312,0,0,1-4.432.656c-.016-.848-.016-.848-.032-2.16a33.238,33.238,0,0,0,3.712-.384c.832-.112.832-.112,1.1-.128l-.08-1.088a22.554,22.554,0,0,1-4.736.656,17.857,17.857,0,0,1,.112-2.256H40.688a12.529,12.529,0,0,1,.08,2.3c-.528,0-1.072.016-1.392.016a19.877,19.877,0,0,1-4.1-.32l-.016,1.088a1.307,1.307,0,0,1,.224-.016,1.941,1.941,0,0,1,.288.016c1.44.112,2.736.16,3.9.16.368,0,.624,0,1.088-.016l.032,2.192c-.448.016-1.008.016-1.424.016a19.637,19.637,0,0,1-3.664-.256L35.7,65.1h.128c.1,0,.224,0,.4.016.992.08,1.744.112,2.7.112.512,0,1.312-.016,1.888-.032.016.416.016.72.032.928.016.464.016.8.032.944a1.275,1.275,0,0,0,.016.176c0,.144,0,.144.016.192a7.116,7.116,0,0,0-1.44-.128,6.97,6.97,0,0,0-1.664.16c-1.408.32-2.24,1.152-2.24,2.208a2.092,2.092,0,0,0,.864,1.68,4.168,4.168,0,0,0,2.48.64,3.221,3.221,0,0,0,2.7-1.008,2.778,2.778,0,0,0,.4-1.744,4.6,4.6,0,0,0-.032-.576c.432.176.8.336,1.072.48A12.875,12.875,0,0,1,46.32,71.44Zm-6.032-1.3a2.1,2.1,0,0,1-.32,1.44,2.312,2.312,0,0,1-1.76.528c-1.392,0-2.192-.48-2.192-1.328S37.7,68.24,39.28,68.24a5.873,5.873,0,0,1,1.632.176Zm17.36-8.08c-1.088.032-2.336.064-3.872.128-2.576.1-2.576.1-3.04.1-.24,0-.352,0-.64-.016l.048,1.168c1.072-.176,4.3-.336,7.52-.4v.832c0,.192.016.352.016.416,0,.592,0,.656.016.88a2.457,2.457,0,0,0-1.856-.72,2.662,2.662,0,0,0-2.832,2.64,2.675,2.675,0,0,0,4.64,1.664,2.241,2.241,0,0,0,.432-.784,4.144,4.144,0,0,1-1.792,3.376,8.2,8.2,0,0,1-2.592,1.2,3.513,3.513,0,0,1,.7,1.008,10.177,10.177,0,0,0,2.528-1.3,5.15,5.15,0,0,0,2.144-4.176,4.584,4.584,0,0,0-.384-1.888V61.9c1.3-.032,1.472-.032,1.712-.032a28.437,28.437,0,0,1,3.056.08V60.816c-.528.064-1.76.1-4.784.112v-.176a13.245,13.245,0,0,1,.08-2h-1.2a5.392,5.392,0,0,1,.064.928Zm-.048,4.672A1.793,1.793,0,0,1,56.368,67.5,1.546,1.546,0,0,1,54.72,65.92,1.693,1.693,0,0,1,56.5,64.24a2.047,2.047,0,0,1,1.072.256A1.158,1.158,0,0,1,58.24,65.616ZM67.6,67.84a2.4,2.4,0,1,0,2.4,2.4A2.4,2.4,0,0,0,67.6,67.84Zm0,.912a1.488,1.488,0,1,1-1.488,1.488A1.5,1.5,0,0,1,67.6,68.752Z" transform="translate(41 104)"/>
  <g id="グループ_842" data-name="グループ 842">
    <g id="グループ_583" data-name="グループ 583" transform="translate(2.32 181.593)">
      <g id="グループ_578" data-name="グループ 578" transform="translate(823.965)">
        <g id="グループ_577" data-name="グループ 577">
          <path id="パス_2909" data-name="パス 2909" d="M2974.539,1887.688v82.5H2836.594v-1.237h126.782c5.022,0,9.094-2.436,9.094-5.44v-75.823Z" transform="translate(-2820.824 -1872.959)" fill="#575656"/>
          <g id="グループ_575" data-name="グループ 575" transform="translate(151.646)">
            <rect id="長方形_133" data-name="長方形 133" width="2.069" height="10.543" fill="#575656"/>
          </g>
          <g id="グループ_576" data-name="グループ 576" transform="translate(0 95.991)">
            <rect id="長方形_134" data-name="長方形 134" width="10.223" height="1.237" fill="#575656"/>
          </g>
        </g>
      </g>
      <g id="グループ_582" data-name="グループ 582" transform="translate(0)">
        <g id="グループ_581" data-name="グループ 581">
          <path id="パス_2910" data-name="パス 2910" d="M611.051,1887.688v82.5H749v-1.237H622.215c-5.023,0-9.095-2.436-9.095-5.44v-75.823Z" transform="translate(-611.051 -1872.959)" fill="#575656"/>
          <g id="グループ_579" data-name="グループ 579" transform="translate(0)">
            <rect id="長方形_135" data-name="長方形 135" width="2.069" height="10.543" fill="#575656"/>
          </g>
          <g id="グループ_580" data-name="グループ 580" transform="translate(143.492 95.991)">
            <rect id="長方形_136" data-name="長方形 136" width="10.223" height="1.237" fill="#575656"/>
          </g>
        </g>
      </g>
    </g>
    <g id="グループ_592" data-name="グループ 592" transform="translate(2.32)">
      <g id="グループ_587" data-name="グループ 587" transform="translate(823.965)">
        <g id="グループ_586" data-name="グループ 586">
          <path id="パス_2911" data-name="パス 2911" d="M2974.539,612.53v-82.5H2836.594v1.238h126.782c5.022,0,9.094,2.435,9.094,5.439V612.53Z" transform="translate(-2820.824 -530.03)" fill="#575656"/>
          <g id="グループ_584" data-name="グループ 584" transform="translate(151.646 86.686)">
            <rect id="長方形_137" data-name="長方形 137" width="2.069" height="10.543" fill="#575656"/>
          </g>
          <g id="グループ_585" data-name="グループ 585" transform="translate(0 0)">
            <rect id="長方形_138" data-name="長方形 138" width="10.223" height="1.237" fill="#575656"/>
          </g>
        </g>
      </g>
      <g id="グループ_591" data-name="グループ 591" transform="translate(0)">
        <g id="グループ_590" data-name="グループ 590">
          <path id="パス_2912" data-name="パス 2912" d="M611.051,612.53v-82.5H749v1.238H622.215c-5.023,0-9.095,2.435-9.095,5.439V612.53Z" transform="translate(-611.051 -530.03)" fill="#575656"/>
          <g id="グループ_588" data-name="グループ 588" transform="translate(0 86.686)">
            <rect id="長方形_139" data-name="長方形 139" width="2.069" height="10.543" fill="#575656"/>
          </g>
          <g id="グループ_589" data-name="グループ 589" transform="translate(143.492 0)">
            <rect id="長方形_140" data-name="長方形 140" width="10.223" height="1.237" fill="#575656"/>
          </g>
        </g>
      </g>
    </g>
    <g id="グループ_609" data-name="グループ 609" transform="translate(977.911 50.289)">
      <rect id="長方形_141" data-name="長方形 141" width="2.089" height="124.146" transform="translate(0)" fill="#575656"/>
    </g>
    <g id="グループ_610" data-name="グループ 610" transform="translate(0.231 102.539)">
      <rect id="長方形_142" data-name="長方形 142" width="2.089" height="73.795" transform="translate(0 0)" fill="#575656"/>
    </g>
    <g id="グループ_612" data-name="グループ 612" transform="translate(149.606 277.584)">
      <rect id="長方形_144" data-name="長方形 144" width="680.869" height="1.237" transform="translate(0)" fill="#575656"/>
    </g>
    <rect id="長方形_7" data-name="長方形 7" width="979.68" height="281" fill="none"/>
    <rect id="長方形_143" data-name="長方形 143" width="780.685" height="1.237" transform="translate(149.27 0)" fill="#575656"/>
  </g>
  <g id="グループ_818" data-name="グループ 818" transform="translate(41 40)">
    <path id="パス_3896" data-name="パス 3896" d="M14.808-12.384v-4.1a29.217,29.217,0,0,0,6.912-1.776,8.007,8.007,0,0,1,.864-.336L21.36-19.944a7.6,7.6,0,0,1-2.208,1.032,23.157,23.157,0,0,1-5.688,1.1h-.288c.072.7.12,1.728.12,4.44,0,8.016-.72,11.376-3.024,14.208A5.043,5.043,0,0,1,11.64,1.848,12.468,12.468,0,0,0,13.416-1.44a26.354,26.354,0,0,0,1.368-8.616v-.936h3.768V-.528a14.543,14.543,0,0,1-.144,2.4h1.848a11.984,11.984,0,0,1-.144-2.4V-10.992H21a12.476,12.476,0,0,1,2.112.12v-1.656a12.174,12.174,0,0,1-2.208.144Zm-7.08-5.352v-.648a8.028,8.028,0,0,1,.12-1.68H6.1a8.311,8.311,0,0,1,.12,1.68v.648h-2.4a11.639,11.639,0,0,1-2.112-.12v1.608a12.165,12.165,0,0,1,2.088-.12H9.936a12.236,12.236,0,0,1,2.04.12v-1.608a11.094,11.094,0,0,1-2.016.12Zm-4.512,5.52a10.644,10.644,0,0,1-1.992-.12v1.608a10.962,10.962,0,0,1,1.992-.12h7.128a11.192,11.192,0,0,1,1.944.12v-1.608a10.541,10.541,0,0,1-1.944.12H8.928A25.438,25.438,0,0,0,10.56-15.7l-1.44-.456a12.747,12.747,0,0,1-1.608,3.936Zm2.5,5.352A11.36,11.36,0,0,1,3.96-4.3,16.054,16.054,0,0,1,.84-1.656,4.912,4.912,0,0,1,1.752-.312,14.219,14.219,0,0,0,6.288-5.64c-.048.792-.072,1.416-.072,1.992V-.24a13.254,13.254,0,0,1-.144,2.064H7.728A13.278,13.278,0,0,1,7.608-.24V-3.72c-.024-.888-.048-1.584-.1-2.112a12.323,12.323,0,0,0,3,3.312,6.012,6.012,0,0,1,.84-1.3A10.154,10.154,0,0,1,7.968-6.864h2.28a10.541,10.541,0,0,1,1.944.12V-8.3a9.306,9.306,0,0,1-1.944.144H7.608V-9.432a4.417,4.417,0,0,1,.1-.984H6.1a4.417,4.417,0,0,1,.12.984V-8.16H3.288A8.857,8.857,0,0,1,1.272-8.3V-6.72A8.764,8.764,0,0,1,3.24-6.864Zm.024-6.024a14.277,14.277,0,0,0-1.368-3.24l-1.272.48a13.382,13.382,0,0,1,1.368,3.216Zm31.8,12.7a40.5,40.5,0,0,0-3.744-5.9L32.52-5.52a26.065,26.065,0,0,1,1.7,2.5,41.6,41.6,0,0,1-5.112,1.752v-5.76H34.56a15.939,15.939,0,0,1,2.016.1c-.048-.672-.072-1.248-.072-2.184v-5.64a17.59,17.59,0,0,1,.1-2.208,15.169,15.169,0,0,1-2.04.1H32.784V-18.12a7.918,7.918,0,0,1,.144-1.632H31.152a8,8,0,0,1,.144,1.608v1.272H29.568a14.943,14.943,0,0,1-2.04-.1,17.653,17.653,0,0,1,.1,2.184v13.9a11.423,11.423,0,0,1-1.9.312l.384,1.632c.456-.168.936-.312,1.272-.408A67.736,67.736,0,0,0,34.9-1.9c.5.912.72,1.3,1.272,2.5ZM29.112-12.72v-2.808H35.04v2.808Zm0,1.3H35.04v3.048H29.112Zm17.3-7.584a11.758,11.758,0,0,1-1.848.1H40.584c-.816,0-1.272-.024-1.9-.072a21.84,21.84,0,0,1,.1,2.184V-.7a16.765,16.765,0,0,1-.144,2.568h1.824A16.668,16.668,0,0,1,40.3-.888v-16.68h5.04a36.2,36.2,0,0,1-3.264,6.888,10.814,10.814,0,0,1,2.64,3.1,6.535,6.535,0,0,1,.864,3.216c0,1.248-.48,1.632-2.04,1.632a11.586,11.586,0,0,1-2.04-.216,4.014,4.014,0,0,1,.288,1.608c.744.072,1.248.1,1.656.1a7.8,7.8,0,0,0,1.848-.192c1.248-.36,1.872-1.32,1.872-2.9a7.283,7.283,0,0,0-1.032-3.744,13.649,13.649,0,0,0-2.256-2.832,51.733,51.733,0,0,0,2.976-6.12,7.3,7.3,0,0,1,.408-.888Zm5.64,13.224c.312-.408.5-.648.672-.84,1.536-1.776,3.408-4.08,4.344-5.352,1.056-1.416,1.176-1.536,1.656-1.536s.576.072,2.16,1.776a95.977,95.977,0,0,0,8.136,7.968C70.608-2.424,70.632-2.4,71.16-1.92l.912-1.968a11.284,11.284,0,0,1-1.992-1.44,77.214,77.214,0,0,1-8.208-7.848c-1.752-1.92-2.136-2.208-3.1-2.208-1.08,0-1.68.456-3.048,2.28-1.176,1.56-3.384,4.224-4.1,4.92a3.826,3.826,0,0,1-.792.6ZM95.088-17.712c-.432.168-.432.168-2.04.168H80.16a17.59,17.59,0,0,1-2.856-.168v1.848a23.173,23.173,0,0,1,2.832-.12H93.768a12.733,12.733,0,0,1-2.688,3.576,10.39,10.39,0,0,1-3.792,2.28A4.715,4.715,0,0,1,88.464-8.76a14.365,14.365,0,0,0,7.008-6.84,4.307,4.307,0,0,1,.576-.96ZM84.624-13.536a6.337,6.337,0,0,1,.1,1.3c0,4.68-.936,7.128-3.48,9.168A11.278,11.278,0,0,1,76.848-.864a4.694,4.694,0,0,1,1.1,1.608A13.074,13.074,0,0,0,84.1-3.408c1.632-2.064,2.3-4.44,2.376-8.448a8.7,8.7,0,0,1,.1-1.68Zm29.664-5.112a10.5,10.5,0,0,1-.84,2.544,32.979,32.979,0,0,1-2.832,5.592,68.935,68.935,0,0,0-6.24-4.176l-1.2,1.272a45.452,45.452,0,0,1,6.456,4.344,25.566,25.566,0,0,1-9.552,8.016,4.277,4.277,0,0,1,1.248,1.44,28.657,28.657,0,0,0,9.648-8.352,34.361,34.361,0,0,1,5.232,5.208l1.344-1.488a61.7,61.7,0,0,0-5.52-5.16,39.254,39.254,0,0,0,3.528-7.008,6.759,6.759,0,0,1,.744-1.464Zm26.9-.408a20.146,20.146,0,0,1-4.584,4.536A33.794,33.794,0,0,1,124.152-8.3a5.557,5.557,0,0,1,.936,1.608,37.518,37.518,0,0,0,9.264-4.2v9.12a12.51,12.51,0,0,1-.144,2.5H136.3a15.942,15.942,0,0,1-.12-2.544V-12.048a42.269,42.269,0,0,0,5.616-4.824,5.432,5.432,0,0,1,1.056-1.008Zm13.968-.5a10.883,10.883,0,0,1-1.512,3.5,17.781,17.781,0,0,1-6.024,6.576,3.569,3.569,0,0,1,1.344,1.248,23.137,23.137,0,0,0,5.736-6.24l8.088-.144a22.052,22.052,0,0,1-4.128,8.04A20.414,20.414,0,0,1,150.192-.5a3.619,3.619,0,0,1,1.2,1.416,23.5,23.5,0,0,0,8.352-6,25.391,25.391,0,0,0,4.8-9.024c.264-.864.264-.888.48-1.176L163.992-16.3a2.358,2.358,0,0,1-1.248.168c-6.936.12-6.936.12-7.248.192a22.952,22.952,0,0,0,1.1-2.136,4.585,4.585,0,0,1,.528-.984Zm23.328,7.176h.1a1.1,1.1,0,0,1,.24.024,3.574,3.574,0,0,1,.408.024,6.294,6.294,0,0,1,.768.048c.84.048,1.728.072,2.712.072.912,0,1.656-.024,2.736-.072.072,3.5.168,5.76.24,6.264a6.78,6.78,0,0,0-2.664-.48c-2.664,0-4.56,1.416-4.56,3.408,0,2.088,1.752,3.408,4.536,3.408,1.968,0,3.432-.744,4.008-2.016a4.137,4.137,0,0,0,.288-1.632,3.443,3.443,0,0,0-.048-.624,1.683,1.683,0,0,1,.216.144,1.539,1.539,0,0,0,.24.144,12.969,12.969,0,0,1,3.408,2.5l.744-1.68c-.264-.168-.312-.216-.6-.408a17.372,17.372,0,0,0-4.008-2.352c-.192-3.192-.24-4.416-.264-6.792a22.943,22.943,0,0,0,2.544-.384c1.632-.336,1.632-.336,1.68-.336l-.072-1.632a16.357,16.357,0,0,1-4.152.888c-.024-.528-.024-.912-.024-1.176a24.556,24.556,0,0,1,.168-3.768h-1.8a5.323,5.323,0,0,1,.072.984c0,1.824,0,1.824.024,4.08-.984.048-1.632.072-2.568.072a16.613,16.613,0,0,1-4.32-.384Zm7.224,7.824s.024.552.024.72a2.8,2.8,0,0,1-.456,1.872,3.308,3.308,0,0,1-2.448.84c-1.68,0-2.784-.768-2.784-1.944,0-1.2,1.224-1.992,3.1-1.992A6.2,6.2,0,0,1,185.712-4.56ZM174.24-18.84a11.056,11.056,0,0,1-.264,1.512,40.665,40.665,0,0,0-1.248,9.864A38.2,38.2,0,0,0,173.4-.336c.1.552.12.672.144.888l1.7-.168A2.615,2.615,0,0,1,175.2-.1a20.725,20.725,0,0,1,2.064-6.816l-1.176-.552a3.311,3.311,0,0,1-.192.48A21.3,21.3,0,0,0,174.48-2.76l-.1-.024V-3.24c-.024-.432-.024-.48-.024-.672-.048-1.1-.1-2.52-.1-3.36a34.2,34.2,0,0,1,1.848-11.256Zm23.472,4.152a2.487,2.487,0,0,1,.384-.024,3.9,3.9,0,0,1,.432.024c1.92.072,3,.12,3.24.12h.96c-.12,1.752-.12,1.872-.144,3.624-3.48,1.512-5.568,4.2-5.568,7.152,0,2.136,1.3,3.648,3.1,3.648,1.68,0,3.5-.984,5.352-2.9a21.613,21.613,0,0,0,4.56-7.2c2.592.672,3.96,2.112,3.96,4.176,0,2.136-1.512,3.888-4.128,4.8a11.177,11.177,0,0,1-3.6.648,4.948,4.948,0,0,1,.768,1.608,13.212,13.212,0,0,0,4.9-1.368c2.472-1.3,3.768-3.192,3.768-5.544,0-2.808-1.848-4.848-5.16-5.616.408-1.128.672-1.776.744-1.92l-1.656-.5a9.012,9.012,0,0,1-.576,2.16c-.6-.048-.888-.072-1.392-.072a12.681,12.681,0,0,0-3.552.48c.024-1.176.024-1.176.168-3.216a67.231,67.231,0,0,0,8.5-.96c.456-.072.528-.072.84-.12l-.1-1.68a36.879,36.879,0,0,1-9.144,1.344,15.957,15.957,0,0,1,.5-3.36l-1.872-.12a2.548,2.548,0,0,1,.024.36c0,.168-.048,1.1-.072,1.368-.1,1.224-.1,1.224-.12,1.8-.432.024-.528.024-.6.024a16.793,16.793,0,0,1-4.488-.384Zm4.872,5.256a33.943,33.943,0,0,0,.48,6.5A4.333,4.333,0,0,1,200.3-1.7c-1.032,0-1.728-.864-1.728-2.184a5.67,5.67,0,0,1,1.464-3.576A8.577,8.577,0,0,1,202.584-9.432Zm1.776,5.5V-4.2a1.584,1.584,0,0,0-.024-.336,40.365,40.365,0,0,1-.264-5.5,10.8,10.8,0,0,1,3.336-.552c.264,0,.384,0,1.152.048a21.677,21.677,0,0,1-3.672,6,2.6,2.6,0,0,0-.456.624ZM225.5-19.44a4.81,4.81,0,0,1-.072.768,60.667,60.667,0,0,0-.816,8.856v.552l.048,2.5.024.432v.264l1.728-.072c-.024-.36-.024-.48-.024-.576a12.525,12.525,0,0,1,1.3-5.352c1.368-2.808,2.9-4.176,4.728-4.176,2.3,0,3.648,2.232,3.648,6.1,0,3.84-1.32,6.36-4.128,7.968a12.681,12.681,0,0,1-4.872,1.512,4.953,4.953,0,0,1,.96,1.632A18.166,18.166,0,0,0,232.3-.456c3.6-1.8,5.544-5.088,5.544-9.432a9.858,9.858,0,0,0-1.44-5.832,4.518,4.518,0,0,0-3.84-2.136c-1.872,0-3.456,1.032-4.8,3.1a10.709,10.709,0,0,0-1.464,3.576c-.12.5-.12.5-.168.7l-.1-.024c.072-1.224.408-3.84.792-6.264a13.605,13.605,0,0,1,.552-2.472ZM264.84-1.92a8.2,8.2,0,0,1-.816-.552,21.008,21.008,0,0,0-6.7-3.5c-.1-2.328-.1-2.328-.144-3.672,1.776-.12,3.672-.312,5.328-.576.84-.12,1.08-.144,1.392-.168l-.1-1.656a28.967,28.967,0,0,1-6.648.984c-.024-1.272-.024-1.272-.048-3.24a49.857,49.857,0,0,0,5.568-.576c1.248-.168,1.248-.168,1.656-.192l-.12-1.632a33.832,33.832,0,0,1-7.1.984,26.781,26.781,0,0,1,.168-3.384h-1.848a18.792,18.792,0,0,1,.12,3.456c-.792,0-1.608.024-2.088.024a29.815,29.815,0,0,1-6.144-.48l-.024,1.632a1.961,1.961,0,0,1,.336-.024,2.912,2.912,0,0,1,.432.024c2.16.168,4.1.24,5.856.24.552,0,.936,0,1.632-.024l.048,3.288c-.672.024-1.512.024-2.136.024a29.455,29.455,0,0,1-5.5-.384l-.024,1.584h.192c.144,0,.336,0,.6.024,1.488.12,2.616.168,4.056.168.768,0,1.968-.024,2.832-.048.024.624.024,1.08.048,1.392.024.7.024,1.2.048,1.416a1.913,1.913,0,0,0,.024.264c0,.216,0,.216.024.288a10.675,10.675,0,0,0-2.16-.192,10.454,10.454,0,0,0-2.5.24c-2.112.48-3.36,1.728-3.36,3.312a3.139,3.139,0,0,0,1.3,2.52,6.252,6.252,0,0,0,3.72.96c1.9,0,3.36-.528,4.056-1.512a4.168,4.168,0,0,0,.6-2.616,6.9,6.9,0,0,0-.048-.864c.648.264,1.2.5,1.608.72a19.313,19.313,0,0,1,4.9,3.432Zm-9.048-1.944a3.144,3.144,0,0,1-.48,2.16,3.467,3.467,0,0,1-2.64.792c-2.088,0-3.288-.72-3.288-1.992s1.56-2.136,3.936-2.136a8.81,8.81,0,0,1,2.448.264Zm26.04-12.12c-1.632.048-3.5.1-5.808.192-3.864.144-3.864.144-4.56.144-.36,0-.528,0-.96-.024l.072,1.752c1.608-.264,6.456-.5,11.28-.6v1.248c0,.288.024.528.024.624,0,.888,0,.984.024,1.32a3.685,3.685,0,0,0-2.784-1.08,3.993,3.993,0,0,0-4.248,3.96,3.72,3.72,0,0,0,3.936,3.792,3.752,3.752,0,0,0,3.024-1.3,3.362,3.362,0,0,0,.648-1.176,6.216,6.216,0,0,1-2.688,5.064,12.3,12.3,0,0,1-3.888,1.8,5.269,5.269,0,0,1,1.056,1.512A15.265,15.265,0,0,0,280.752-.7a7.724,7.724,0,0,0,3.216-6.264,6.877,6.877,0,0,0-.576-2.832v-4.752c1.944-.048,2.208-.048,2.568-.048a42.656,42.656,0,0,1,4.584.12v-1.7c-.792.1-2.64.144-7.176.168v-.264a19.867,19.867,0,0,1,.12-3h-1.8a8.085,8.085,0,0,1,.1,1.392Zm-.072,7.008a2.69,2.69,0,0,1-2.808,2.832A2.32,2.32,0,0,1,276.48-8.52a2.54,2.54,0,0,1,2.664-2.52,3.07,3.07,0,0,1,1.608.384A1.737,1.737,0,0,1,281.76-8.976Zm13.848-2.568A13.735,13.735,0,0,1,297-11.856c.216-.048,1.368-.24,3.432-.552a39.621,39.621,0,0,1-2.64,7.608,23.014,23.014,0,0,1-2.5,4.344l1.632.96c.744-1.344,1.248-2.3,1.56-2.88a45.279,45.279,0,0,0,3.624-10.176,13.78,13.78,0,0,1,1.728-.12c2.232,0,2.952.816,2.952,3.36a18.578,18.578,0,0,1-1.008,6.672q-.468,1.152-1.368,1.152a8.971,8.971,0,0,1-3.576-1.1,4.648,4.648,0,0,1,.072.96,5.223,5.223,0,0,1-.048.84,9.029,9.029,0,0,0,3.624.936A2.507,2.507,0,0,0,306.84-.984c.984-1.392,1.608-4.584,1.608-8.256,0-1.968-.336-3.072-1.176-3.864-.744-.72-1.752-1.008-3.456-1.008a13.987,13.987,0,0,0-1.416.072c.216-1.152.384-2.04.5-2.736a14.755,14.755,0,0,1,.456-2.3l-1.92-.216v.312a29.335,29.335,0,0,1-.72,5.088c-1.944.312-4.44.6-5.3.624Zm14.16-3.168a19.645,19.645,0,0,1,4.9,8.616l1.536-.888a21.7,21.7,0,0,0-5.016-8.5Zm20.04,10.224a9.46,9.46,0,0,1-.1-1.32,3.541,3.541,0,0,1,.624-2.208,7.912,7.912,0,0,1,2.16-1.8A6.488,6.488,0,0,0,334.68-11.9a4.527,4.527,0,0,0,.576-2.328c0-2.568-2.424-4.44-5.736-4.44a6.909,6.909,0,0,0-4.56,1.416,5.88,5.88,0,0,0-1.968,3.36l2.016.312a4.72,4.72,0,0,1,.864-1.968,4.38,4.38,0,0,1,3.576-1.512c2.28,0,3.864,1.248,3.864,3.048a2.863,2.863,0,0,1-.84,1.992,11.118,11.118,0,0,1-1.632,1.3,6.9,6.9,0,0,0-2.112,1.8,4.349,4.349,0,0,0-.888,2.88,7.409,7.409,0,0,1-.1,1.56Zm-2.184,2.232V0h2.328V-2.256Z" transform="translate(0 21)" fill="#f59c9c"/>
  </g>
</svg>
