<svg id="グループ_1716" data-name="グループ 1716" xmlns="http://www.w3.org/2000/svg" width="980" height="339" viewBox="0 0 980 339">
  <defs>
    <style>
      .cls-1 {
        fill: #fff;
      }

      .cls-2 {
        font-size: 16px;
      }

      .cls-2, .cls-5 {
        font-family: YuMin-Medium, YuMincho;
        font-weight: 500;
        letter-spacing: 0.03em;
      }

      .cls-3 {
        fill: #575656;
      }

      .cls-4 {
        fill: none;
      }

      .cls-5 {
        fill: #f59c9c;
        font-size: 24px;
      }
    </style>
  </defs>
  <rect id="長方形_196" data-name="長方形 196" class="cls-1" width="911.716" height="320.576" transform="translate(33.984)"/>
  <text id="基本的には一回になりますが_思ったようにヘアメイクの希望を伝えられなかったなど_弊社スタッフとのコミュニケーションがうまくいかなかった際の再リハーサルは無料にてお受けしております_リハーサル後ドレスを変えた_やっぱり違うヘアやメイクに変えたい等_お客様都合による再リハーサルは追加料金を頂いております_ヘアのみ_ヘアメイク両方など内容によって金額が変わってきますのでその都度お問い合わせください_" data-name="基本的には一回になりますが、思ったようにヘアメイクの希望を伝えられなかったなど
弊社スタッフとのコミュニケーションがうまくいかなかった際の再リハーサルは無料にてお受けしております。

リハーサル後ドレスを変えた、やっぱり違うヘアやメイクに変えたい等
お客様都合による再リハーサルは追加料金を頂いております。
ヘアのみ、ヘアメイク両方など内容によって金額が変わってきますのでその都度お問い合わせください。" class="cls-2" transform="translate(41 103.74)"><tspan x="0" y="14">基本的には一回になりますが、思ったようにヘアメイクの希望を伝えられなかったなど</tspan><tspan x="0" y="42.8">弊社スタッフとのコミュニケーションがうまくいかなかった際の再リハーサルは無料にてお受けしております。</tspan><tspan x="0" y="71.6"></tspan><tspan x="0" y="100.4">リハーサル後ドレスを変えた、やっぱり違うヘアやメイクに変えたい等</tspan><tspan x="0" y="129.2">お客様都合による再リハーサルは追加料金を頂いております。</tspan><tspan x="0" y="158">ヘアのみ、ヘアメイク両方など内容によって金額が変わってきますのでその都度お問い合わせください。</tspan></text>
  <g id="グループ_842" data-name="グループ 842">
    <g id="グループ_583" data-name="グループ 583" transform="translate(2.32 197.622)">
      <g id="グループ_578" data-name="グループ 578" transform="translate(823.965)">
        <g id="グループ_577" data-name="グループ 577">
          <path id="パス_2909" data-name="パス 2909" class="cls-3" d="M2974.539,1887.688v117.332H2836.594v-1.76h126.782c5.022,0,9.094-3.464,9.094-7.736V1887.688Z" transform="translate(-2820.824 -1866.74)"/>
          <g id="グループ_575" data-name="グループ 575" transform="translate(151.646)">
            <rect id="長方形_133" data-name="長方形 133" class="cls-3" width="2.069" height="14.994"/>
          </g>
          <g id="グループ_576" data-name="グループ 576" transform="translate(0 136.519)">
            <rect id="長方形_134" data-name="長方形 134" class="cls-3" width="10.223" height="1.76"/>
          </g>
        </g>
      </g>
      <g id="グループ_582" data-name="グループ 582" transform="translate(0)">
        <g id="グループ_581" data-name="グループ 581">
          <path id="パス_2910" data-name="パス 2910" class="cls-3" d="M611.051,1887.688v117.332H749v-1.76H622.215c-5.023,0-9.095-3.464-9.095-7.736V1887.688Z" transform="translate(-611.051 -1866.74)"/>
          <g id="グループ_579" data-name="グループ 579" transform="translate(0)">
            <rect id="長方形_135" data-name="長方形 135" class="cls-3" width="2.069" height="14.994"/>
          </g>
          <g id="グループ_580" data-name="グループ 580" transform="translate(143.492 136.519)">
            <rect id="長方形_136" data-name="長方形 136" class="cls-3" width="10.223" height="1.76"/>
          </g>
        </g>
      </g>
    </g>
    <g id="グループ_592" data-name="グループ 592" transform="translate(2.32)">
      <g id="グループ_587" data-name="グループ 587" transform="translate(823.965)">
        <g id="グループ_586" data-name="グループ 586">
          <path id="パス_2911" data-name="パス 2911" class="cls-3" d="M2974.539,647.362V530.03H2836.594v1.76h126.782c5.022,0,9.094,3.464,9.094,7.736V647.362Z" transform="translate(-2820.824 -530.03)"/>
          <g id="グループ_584" data-name="グループ 584" transform="translate(151.646 123.286)">
            <rect id="長方形_137" data-name="長方形 137" class="cls-3" width="2.069" height="14.994"/>
          </g>
          <g id="グループ_585" data-name="グループ 585" transform="translate(0 0)">
            <rect id="長方形_138" data-name="長方形 138" class="cls-3" width="10.223" height="1.76"/>
          </g>
        </g>
      </g>
      <g id="グループ_591" data-name="グループ 591" transform="translate(0)">
        <g id="グループ_590" data-name="グループ 590">
          <path id="パス_2912" data-name="パス 2912" class="cls-3" d="M611.051,647.362V530.03H749v1.76H622.215c-5.023,0-9.095,3.464-9.095,7.736V647.362Z" transform="translate(-611.051 -530.03)"/>
          <g id="グループ_588" data-name="グループ 588" transform="translate(0 123.286)">
            <rect id="長方形_139" data-name="長方形 139" class="cls-3" width="2.069" height="14.994"/>
          </g>
          <g id="グループ_589" data-name="グループ 589" transform="translate(143.492 0)">
            <rect id="長方形_140" data-name="長方形 140" class="cls-3" width="10.223" height="1.76"/>
          </g>
        </g>
      </g>
    </g>
    <g id="グループ_609" data-name="グループ 609" transform="translate(977.911 52.08)">
      <rect id="長方形_141" data-name="長方形 141" class="cls-3" width="2.089" height="176.561" transform="translate(0)"/>
    </g>
    <g id="グループ_612" data-name="グループ 612" transform="translate(149.606 334.142)">
      <rect id="長方形_144" data-name="長方形 144" class="cls-3" width="680.869" height="1.76" transform="translate(0)"/>
    </g>
    <rect id="長方形_7" data-name="長方形 7" class="cls-4" width="979.68" height="339"/>
    <rect id="長方形_143" data-name="長方形 143" class="cls-3" width="780.685" height="1.76" transform="translate(149.27 0)"/>
  </g>
  <g id="グループ_818" data-name="グループ 818" transform="translate(41 40)">
    <text id="リハーサルに回数制限はありますか_" data-name="リハーサルに回数制限はありますか？" class="cls-5" transform="translate(0 21)"><tspan x="0" y="0">リハーサルに回数制限はありますか？</tspan></text>
  </g>
</svg>
