<svg id="グループ_1796" data-name="グループ 1796" xmlns="http://www.w3.org/2000/svg" width="980" height="339" viewBox="0 0 980 339">
  <path id="パス_3900" data-name="パス 3900" d="M10.944,10.832a8.622,8.622,0,0,1,1.44.08V9.968a8.412,8.412,0,0,1-1.424.08H8.24a9.7,9.7,0,0,0,.128-1.424h2.32a10.421,10.421,0,0,1,1.36.064V7.776a7.7,7.7,0,0,1-1.36.08H9.776a12.641,12.641,0,0,0,.9-1.424l-.9-.272a8.194,8.194,0,0,1-.96,1.7H7.184a12.232,12.232,0,0,0-1.12-1.68l-.816.336a8.041,8.041,0,0,1,.976,1.344H5.408a7.486,7.486,0,0,1-1.36-.08v.912a10.265,10.265,0,0,1,1.36-.064H7.44a10.068,10.068,0,0,1-.1,1.424H5.1a8.184,8.184,0,0,1-1.424-.08v.944a9.2,9.2,0,0,1,1.456-.08H7.152a3.181,3.181,0,0,1-.9,1.456,6.757,6.757,0,0,1-2.832,1.36,2.393,2.393,0,0,1,.592.832c2.3-.832,3.3-1.648,3.9-3.184a7.021,7.021,0,0,0,3.68,2.672,3.071,3.071,0,0,1-.352-.048,3.01,3.01,0,0,1,.24,1.008c.528.032,1.056.064,1.5.064,1.28,0,1.552-.24,1.552-1.328V2.864a15.14,15.14,0,0,1,.08-1.76,14.81,14.81,0,0,1-1.68.064h-2.7A14.039,14.039,0,0,1,8.608,1.1c.032.48.048.96.048,1.52V4.368c0,.576-.016,1.056-.048,1.472.432-.032.944-.048,1.632-.048h3.312v7.824c0,.368-.128.464-.56.464a9.651,9.651,0,0,1-1.392-.112,3.713,3.713,0,0,1,.48-.9,5.928,5.928,0,0,1-3.552-2.24ZM9.584,1.92h3.968V3.088H9.584Zm0,1.9h3.968V5.04H9.584ZM2.56,5.792H5.584c.672,0,1.168.016,1.616.048-.032-.4-.048-.848-.048-1.472V2.624c0-.592.016-1.072.048-1.52a14.039,14.039,0,0,1-1.632.064h-2.4A14.67,14.67,0,0,1,1.5,1.1c.048.512.064.976.064,1.76v10.48a11.959,11.959,0,0,1-.1,1.792H2.656a11.247,11.247,0,0,1-.1-1.792Zm0-3.872H6.24V3.088H2.56Zm0,1.9H6.24V5.04H2.56Zm21.312-.576V4.576H20.688a8.975,8.975,0,0,1-1.776-.1,15.235,15.235,0,0,1,.064,1.728v2.32a13.815,13.815,0,0,1-.048,1.488l-.016.208a9.965,9.965,0,0,1,1.856-.1H23.1A9.056,9.056,0,0,1,20.864,12a13.218,13.218,0,0,1-3.888,1.712,3.985,3.985,0,0,1,.592.96,15.322,15.322,0,0,0,4.464-2.336,9.673,9.673,0,0,0,1.888-1.824c-.032.448-.048.928-.048,1.232V13.36a10.641,10.641,0,0,1-.112,1.776h1.184a8.69,8.69,0,0,1-.112-1.776V11.728c0-.3-.016-.832-.048-1.248A11.8,11.8,0,0,0,27.952,13.1a17.708,17.708,0,0,0,3.6,1.584,4.225,4.225,0,0,1,.608-1.008,12.588,12.588,0,0,1-6.592-3.552H28.32a9.983,9.983,0,0,1,1.824.1,11.315,11.315,0,0,1-.064-1.7V6.176a14.1,14.1,0,0,1,.064-1.68,11.789,11.789,0,0,1-1.824.08H24.832V3.248h4.816a15.008,15.008,0,0,1,1.968.1V2.224a11.172,11.172,0,0,1-2,.112H24.832V2.208A8.929,8.929,0,0,1,24.944.656H23.76a8.34,8.34,0,0,1,.112,1.552v.128H19.328a12.172,12.172,0,0,1-1.936-.112v1.12a11.5,11.5,0,0,1,1.888-.1Zm0,2.16V6.88h-3.9V5.408Zm.96,0h4.256V6.88H24.832ZM23.872,7.7V9.312h-3.9V7.7Zm.96,0h4.256V9.312H24.832Zm14.192-3.1A11.743,11.743,0,0,0,37.84,2.608l-.752.384a8.413,8.413,0,0,1,1.072,1.6h-.64a6.719,6.719,0,0,1-1.152-.064v.88A8.8,8.8,0,0,1,37.6,5.344h1.9a10.62,10.62,0,0,1-.64,1.152h-1.84a7.213,7.213,0,0,1-1.152-.064v.9a7.059,7.059,0,0,1,1.1-.064h1.312a9.175,9.175,0,0,1-2.8,2.192,2.676,2.676,0,0,1,.576.768,11.453,11.453,0,0,0,2.384-1.952V9.04a7.987,7.987,0,0,1,1.04-.048h3.12v.96h-3.84a7.288,7.288,0,0,1-.944-.032,4.747,4.747,0,0,1,.032.736v1.12c0,.928.288,1.024,2.944,1.024,2.688,0,3.5-.128,3.84-.576a3.559,3.559,0,0,0,.48-1.488,2.7,2.7,0,0,1-.88-.336,2.161,2.161,0,0,1-.32,1.232c-.24.272-1.088.368-3.264.368-1.776,0-1.9-.032-1.9-.5v-.816h3.792a7.445,7.445,0,0,1,.976.032c-.016-.336-.032-.544-.032-.768V8.88a3.228,3.228,0,0,1,.032-.64A10.853,10.853,0,0,0,45.856,10a3.009,3.009,0,0,1,.592-.8,8.144,8.144,0,0,1-2.8-1.936H44.96a6.968,6.968,0,0,1,1.088.064v-.9A10.012,10.012,0,0,1,44.64,6.5H43.008a6.973,6.973,0,0,1-.672-1.152h2a8.413,8.413,0,0,1,1.216.064v-.88c-.3.032-.848.064-1.44.064h-.784A14.156,14.156,0,0,0,44.48,3.056L43.6,2.72a7.516,7.516,0,0,1-1.168,1.872h-1.68c.144-.368.144-.368.416-1.136.192-.576.192-.576.272-.768L40.448,2.5a8.884,8.884,0,0,1-.608,2.1Zm2.464.752a12.018,12.018,0,0,0,.64,1.152H39.792a11.226,11.226,0,0,0,.624-1.152Zm1.184,1.92a11.1,11.1,0,0,0,.816.944c-.464.032-.592.032-.944.032H39.392c-.464,0-.672-.016-.88-.032a9.227,9.227,0,0,0,.752-.944Zm5.008,7.968a12.834,12.834,0,0,1-.1-1.9V3.2a17.183,17.183,0,0,1,.1-1.968,16.226,16.226,0,0,1-1.9.08H36.144a15.771,15.771,0,0,1-1.888-.08,17.786,17.786,0,0,1,.1,1.968V13.3a11.347,11.347,0,0,1-.1,1.936h1.1v-.768H46.576v.768ZM35.36,2.176H46.576V13.6H35.36Zm15.6,2.5a53.265,53.265,0,0,1,5.52-.528A32.746,32.746,0,0,0,60,3.792a10.473,10.473,0,0,0-1.52.848,6.088,6.088,0,0,0-2.992,4.912,3.874,3.874,0,0,0,1.776,3.264,8.071,8.071,0,0,0,3.456,1.232c.288.048.32.064.5.1l.208-1.3h-.16a8.2,8.2,0,0,1-2.4-.512,3.137,3.137,0,0,1-2.24-2.96,4.89,4.89,0,0,1,1.968-3.7,7.87,7.87,0,0,1,3.072-1.6,6.711,6.711,0,0,1,1.792-.224l-.1-1.184a10.806,10.806,0,0,1-1.9.176l-.912.032c-.528.016-.736.032-2.7.144l-2.512.16c-1.968.112-2.064.128-2.96.192-.5.032-.688.048-.912.048-.112,0-.272,0-.576-.016Zm9.824,1.536a11.252,11.252,0,0,1,1.632,2.544l.816-.48a12.147,12.147,0,0,0-1.648-2.48Zm1.824-.864A12.661,12.661,0,0,1,64.24,7.856l.8-.448a12.966,12.966,0,0,0-1.648-2.5Zm12.16-2c-1.088.032-2.336.064-3.872.128-2.576.1-2.576.1-3.04.1-.24,0-.352,0-.64-.016l.048,1.168c1.072-.176,4.3-.336,7.52-.4v.832c0,.192.016.352.016.416,0,.592,0,.656.016.88a2.457,2.457,0,0,0-1.856-.72,2.662,2.662,0,0,0-2.832,2.64,2.675,2.675,0,0,0,4.64,1.664,2.241,2.241,0,0,0,.432-.784,4.144,4.144,0,0,1-1.792,3.376,8.2,8.2,0,0,1-2.592,1.2,3.513,3.513,0,0,1,.7,1.008,10.177,10.177,0,0,0,2.528-1.3A5.15,5.15,0,0,0,76.192,9.36a4.584,4.584,0,0,0-.384-1.888V4.3c1.3-.032,1.472-.032,1.712-.032a28.437,28.437,0,0,1,3.056.08V3.216c-.528.064-1.76.1-4.784.112V3.152a13.246,13.246,0,0,1,.08-2h-1.2a5.391,5.391,0,0,1,.064.928ZM74.72,8.016A1.793,1.793,0,0,1,72.848,9.9,1.546,1.546,0,0,1,71.2,8.32a1.693,1.693,0,0,1,1.776-1.68,2.047,2.047,0,0,1,1.072.256A1.158,1.158,0,0,1,74.72,8.016ZM94.048,1.44A12.264,12.264,0,0,1,95.7,3.984l.8-.48a12.147,12.147,0,0,0-1.648-2.48Zm-10.3,4.928a20.828,20.828,0,0,1,3.216-.576,23.612,23.612,0,0,1-3.424,7.968l1.088.64A31.075,31.075,0,0,0,88.08,5.7a9.187,9.187,0,0,1,1.152-.08c1.488,0,1.968.544,1.968,2.24a12.385,12.385,0,0,1-.672,4.448q-.312.768-.912.768a5.981,5.981,0,0,1-2.384-.736,2.953,2.953,0,0,1,.048.624,3.575,3.575,0,0,1-.032.576,6.02,6.02,0,0,0,2.416.624,1.671,1.671,0,0,0,1.568-.752c.656-.928,1.072-3.056,1.072-5.5a3.23,3.23,0,0,0-.784-2.576,3.058,3.058,0,0,0-2.3-.672,9.324,9.324,0,0,0-.944.048c.128-.688.272-1.424.336-1.824a9.836,9.836,0,0,1,.3-1.536L87.632,1.2v.208a19.763,19.763,0,0,1-.48,3.392,32.822,32.822,0,0,1-3.536.416ZM95.872.592A11.588,11.588,0,0,1,97.5,3.1l.8-.464A12.851,12.851,0,0,0,96.656.16ZM93.184,4.24a13.511,13.511,0,0,1,3.264,5.744l1.024-.576a14.652,14.652,0,0,0-3.344-5.664Zm6.432,7.328a15.969,15.969,0,0,1,3.152,3.488l.9-.848a16.3,16.3,0,0,0-3.216-3.392Zm20.224-3.84A4.2,4.2,0,0,0,118,10.816a2.549,2.549,0,0,0,1.824,2.416,11.288,11.288,0,0,0,3.68.5,26.1,26.1,0,0,0,4.32-.368,4.972,4.972,0,0,1,.544-.08l-.144-1.312a15.178,15.178,0,0,1-4.8.608,10.189,10.189,0,0,1-2.928-.32c-.9-.3-1.36-.832-1.36-1.568,0-.752.48-1.488,1.52-2.352Zm-.96-4.1c.224.016.224.016.528.048a31.3,31.3,0,0,0,3.52.208,12.647,12.647,0,0,0,2.416-.208,24.883,24.883,0,0,0-2.832,1.7l.816.656A24.4,24.4,0,0,1,127.36,3.6l-.08-1.056a17.5,17.5,0,0,1-4.048.336,18.293,18.293,0,0,1-4.256-.384Zm7.28,2.048a12.477,12.477,0,0,1,1.632,2.544l.8-.48a12.754,12.754,0,0,0-1.632-2.48Zm1.776-.928a13.418,13.418,0,0,1,1.632,2.512l.8-.448a12.336,12.336,0,0,0-1.664-2.5Zm12.368-.24a9.27,9.27,0,0,1-1.5,2.48,10.793,10.793,0,0,1-3.12,2.656,2.893,2.893,0,0,1,.64.848,12.41,12.41,0,0,0,2.416-2.016v4.992a14.639,14.639,0,0,1-2.208.416l.224,1.088c.192-.048.192-.048.624-.16.32-.08.32-.08.608-.16,1.44-.352,1.44-.352,1.76-.448,1.232-.352,2.048-.608,3.344-1.056l-.016-.992a31,31,0,0,1-3.344,1.056v-5.9a10.973,10.973,0,0,0,1.6-2.8h.08c.56,4.592,2.1,7.568,5.328,10.3a4.088,4.088,0,0,1,.736-.928,12.505,12.505,0,0,1-3.984-4.912A19.606,19.606,0,0,0,146.8,6.32l-.8-.736a10.791,10.791,0,0,1-2.864,2.528,14.316,14.316,0,0,1-.8-3.6h3.008a11.531,11.531,0,0,1,1.616.1V3.5a10.618,10.618,0,0,1-1.616.1h-3.36V2.064a7.6,7.6,0,0,1,.1-1.248h-1.2a6.173,6.173,0,0,1,.1,1.232V3.6h-2.928a10.21,10.21,0,0,1-1.568-.1v1.1a11.039,11.039,0,0,1,1.552-.1Zm-6.032,8.768a13.574,13.574,0,0,1-.1,1.92h1.168c-.048-.576-.08-1.136-.08-1.872V5.136a22.656,22.656,0,0,0,1.344-3.28,7.224,7.224,0,0,1,.256-.72l-1.12-.3a11.383,11.383,0,0,1-.624,2.208A13.981,13.981,0,0,1,132.3,7.7a5.136,5.136,0,0,1,.656.912,11.434,11.434,0,0,0,1.376-2.048c-.048.72-.064,1.312-.064,1.92ZM153.1,2.528V2.4a10.01,10.01,0,0,1,.1-1.632h-1.088a10.377,10.377,0,0,1,.1,1.648v.112h-1.424a10.278,10.278,0,0,1-1.568-.08v1.04a10.8,10.8,0,0,1,1.568-.08h1.424v1.52H151.12a11.769,11.769,0,0,1-1.456-.064,10.04,10.04,0,0,1,.064,1.328V7.648a10.465,10.465,0,0,1-.064,1.344,10.516,10.516,0,0,1,1.328-.064h.928a11.552,11.552,0,0,1-3.184,3.952,2.348,2.348,0,0,1,.672.784,10.519,10.519,0,0,0,2.912-4.176,18.815,18.815,0,0,0-.112,2.208v1.7a9.611,9.611,0,0,1-.1,1.744H153.2a9.3,9.3,0,0,1-.1-1.744V11.648c0-.608-.032-1.344-.1-2.16a8.771,8.771,0,0,0,2.368,3.008,3.185,3.185,0,0,1,.576-.848,9.884,9.884,0,0,1-2.624-2.72h.928a10.152,10.152,0,0,1,1.344.064,9.19,9.19,0,0,1-.048-1.3V6.1a8.667,8.667,0,0,1,.048-1.232,9.927,9.927,0,0,1-1.376.064H153.1V3.408h1.44a12.569,12.569,0,0,1,1.472.064V2.448a8.836,8.836,0,0,1-1.456.08Zm-.9,3.232V8.112h-1.584V5.76Zm.9,0h1.568V8.112H153.1Zm6.128-3.568a10,10,0,0,1-.608,1.76h-.736c-.688,0-1.024-.016-1.408-.048a13.169,13.169,0,0,1,.064,1.5v5.248c0,.576-.016.9-.048,1.44.352-.032.816-.048,1.376-.048h3.6c.528,0,.928.016,1.376.048-.032-.5-.048-.944-.048-1.536V5.376c0-.592.016-1.12.048-1.488a10.367,10.367,0,0,1-1.456.064H159.6a13.253,13.253,0,0,0,.64-1.76h1.648a8.612,8.612,0,0,1,1.568.1V1.2a7.818,7.818,0,0,1-1.568.1h-4.432a8.207,8.207,0,0,1-1.568-.1V2.272a8.412,8.412,0,0,1,1.424-.08ZM157.472,4.8h4.4V6.32h-4.4Zm0,2.352h4.4V8.72h-4.4Zm0,2.4h4.4v1.632h-4.4Zm.512,2.768a6.2,6.2,0,0,1-1.344,1.2,7.553,7.553,0,0,1-1.9.976,2.98,2.98,0,0,1,.672.8,10.882,10.882,0,0,0,3.36-2.4Zm2.256.576a11.651,11.651,0,0,0,2.992,2.416,2.878,2.878,0,0,1,.72-.784,9.245,9.245,0,0,1-2.992-2.192ZM176.448,1.44A12.264,12.264,0,0,1,178.1,3.984l.8-.48a12.146,12.146,0,0,0-1.648-2.48Zm-10.3,4.928a20.828,20.828,0,0,1,3.216-.576,23.611,23.611,0,0,1-3.424,7.968l1.088.64a31.075,31.075,0,0,0,3.456-8.7,9.187,9.187,0,0,1,1.152-.08c1.488,0,1.968.544,1.968,2.24a12.386,12.386,0,0,1-.672,4.448q-.312.768-.912.768a5.981,5.981,0,0,1-2.384-.736,2.952,2.952,0,0,1,.048.624,3.575,3.575,0,0,1-.032.576,6.02,6.02,0,0,0,2.416.624,1.671,1.671,0,0,0,1.568-.752c.656-.928,1.072-3.056,1.072-5.5a3.229,3.229,0,0,0-.784-2.576,3.058,3.058,0,0,0-2.3-.672,9.325,9.325,0,0,0-.944.048c.128-.688.272-1.424.336-1.824a9.838,9.838,0,0,1,.3-1.536l-1.28-.144v.208a19.762,19.762,0,0,1-.48,3.392,32.822,32.822,0,0,1-3.536.416ZM178.272.592A11.588,11.588,0,0,1,179.9,3.1l.8-.464A12.851,12.851,0,0,0,179.056.16ZM175.584,4.24a13.511,13.511,0,0,1,3.264,5.744l1.024-.576a14.652,14.652,0,0,0-3.344-5.664Zm7.9-.032a1.658,1.658,0,0,1,.256-.016,2.6,2.6,0,0,1,.288.016c1.28.048,2,.08,2.16.08h.64c-.08,1.168-.08,1.248-.1,2.416-2.32,1.008-3.712,2.8-3.712,4.768a2.185,2.185,0,0,0,2.064,2.432,5.246,5.246,0,0,0,3.568-1.936,14.409,14.409,0,0,0,3.04-4.8c1.728.448,2.64,1.408,2.64,2.784,0,1.424-1.008,2.592-2.752,3.2a7.452,7.452,0,0,1-2.4.432,3.3,3.3,0,0,1,.512,1.072,8.808,8.808,0,0,0,3.264-.912,4.1,4.1,0,0,0,2.512-3.7c0-1.872-1.232-3.232-3.44-3.744.272-.752.448-1.184.5-1.28l-1.1-.336a6.007,6.007,0,0,1-.384,1.44c-.4-.032-.592-.048-.928-.048a8.454,8.454,0,0,0-2.368.32c.016-.784.016-.784.112-2.144a44.821,44.821,0,0,0,5.664-.64c.3-.048.352-.048.56-.08l-.064-1.12a24.586,24.586,0,0,1-6.1.9,10.638,10.638,0,0,1,.336-2.24l-1.248-.08a1.7,1.7,0,0,1,.016.24c0,.112-.032.736-.048.912-.064.816-.064.816-.08,1.2-.288.016-.352.016-.4.016A11.2,11.2,0,0,1,183.5,3.1Zm3.248,3.5a22.629,22.629,0,0,0,.32,4.336,2.889,2.889,0,0,1-1.84.816c-.688,0-1.152-.576-1.152-1.456a3.78,3.78,0,0,1,.976-2.384A5.719,5.719,0,0,1,186.736,7.712Zm1.184,3.664V11.2a1.056,1.056,0,0,0-.016-.224,26.912,26.912,0,0,1-.176-3.664,7.2,7.2,0,0,1,2.224-.368c.176,0,.256,0,.768.032a14.451,14.451,0,0,1-2.448,4,1.734,1.734,0,0,0-.3.416Zm11.6.64a3.391,3.391,0,0,1,.416-.512c.272-.3.5-.56.672-.752.544-.608.544-.608.784-.88a1.777,1.777,0,0,0,.288-.384h.032c-.048.72-.048.72-.048,2.592a13.682,13.682,0,0,1-.112,2.64H202.8a24.814,24.814,0,0,1-.048-2.656V8.608a25.944,25.944,0,0,1,3.088-2.72A4.555,4.555,0,0,1,208.256,4.8a.811.811,0,0,1,.88.864,11.993,11.993,0,0,1-.4,2.4,15.542,15.542,0,0,0-.608,3.728A1.842,1.842,0,0,0,210,13.952a2.754,2.754,0,0,0,2.208-1.152,7.9,7.9,0,0,0,.992-1.584,5.266,5.266,0,0,1-.736-1.088,6.584,6.584,0,0,1-.912,1.84,1.929,1.929,0,0,1-1.36.88c-.624,0-.96-.4-.96-1.136a17.6,17.6,0,0,1,.688-3.792,10.687,10.687,0,0,0,.368-2.336,1.739,1.739,0,0,0-1.872-1.872,6.431,6.431,0,0,0-3.616,1.76,11.422,11.422,0,0,0-2.032,1.872l-.032-.016c0-.1.016-.128.016-.256a.817.817,0,0,0,.016-.144c.016-.752.016-.752.032-1.072a2.726,2.726,0,0,0,.016-.4,5.514,5.514,0,0,1,.816-.992l-.416-.5a1.045,1.045,0,0,1-.32.08,18.623,18.623,0,0,1,.192-2.848l-1.264-.016a6.513,6.513,0,0,1,.048.8c0,.208-.016.928-.064,2.144-1.344.08-2.048.128-2.1.128a3.238,3.238,0,0,1-.5-.032l.064,1.1a16.3,16.3,0,0,1,2.512-.224c-.048,1.408-.08,2.416-.1,3.056a24.569,24.569,0,0,1-2.816,2.7ZM217.1,1.536a6.621,6.621,0,0,1-.176,1.008A27.017,27.017,0,0,0,216.1,9.12a25.6,25.6,0,0,0,.448,4.752c.064.384.08.448.1.592l1.136-.128a1.642,1.642,0,0,1-.032-.32,13.856,13.856,0,0,1,1.376-4.528l-.784-.368a3.284,3.284,0,0,1-.128.32,14.433,14.433,0,0,0-.944,2.8H217.2l-.016-.768c-.048-.72-.064-1.664-.064-2.24a22.874,22.874,0,0,1,1.232-7.5Zm7.456,3.376c-.656.032-1.088.048-1.712.048a11.154,11.154,0,0,1-2.88-.256l-.032,1.12H220a.735.735,0,0,1,.16.016,2.777,2.777,0,0,1,.288.016,4.161,4.161,0,0,1,.5.032c.544.032,1.136.048,1.808.048.656,0,1.136-.016,1.824-.048.048,2.416.112,3.856.16,4.176a4.8,4.8,0,0,0-1.776-.3c-1.792,0-3.04.944-3.04,2.3,0,1.376,1.168,2.24,3.024,2.24a2.743,2.743,0,0,0,2.688-1.344,2.842,2.842,0,0,0,.192-1.1,2.144,2.144,0,0,0-.032-.4.945.945,0,0,1,.1.064l.1.064a.947.947,0,0,0,.1.064,8.327,8.327,0,0,1,2.272,1.664l.512-1.136a2.12,2.12,0,0,1-.4-.256,12.357,12.357,0,0,0-2.688-1.584c-.112-1.92-.16-3.136-.16-4.528.752-.1,1.328-.176,1.68-.256.592-.112.928-.192,1.024-.208.016,0,.064-.016.1-.016l-.048-1.056a13.042,13.042,0,0,1-2.768.56V4.048a19.957,19.957,0,0,1,.1-2.512h-1.2a3.211,3.211,0,0,1,.048.656V4.016Zm.192,6.128a2.953,2.953,0,0,1,.032.464,1.778,1.778,0,0,1-.3,1.264,2.235,2.235,0,0,1-1.632.576c-1.12,0-1.872-.512-1.872-1.28,0-.832.8-1.344,2.064-1.344A4.381,4.381,0,0,1,224.752,11.04ZM226.24.784a12.916,12.916,0,0,1,1.2,2.64l.848-.3A11.971,11.971,0,0,0,227.072.528ZM228.128.3A13.135,13.135,0,0,1,229.344,2.9l.816-.32A12.165,12.165,0,0,0,228.944,0Zm9.936,7.04V9.776h-2.672A9.15,9.15,0,0,1,233.9,9.7v1.088a9.393,9.393,0,0,1,1.488-.08h2.672v2.864H233.52a13.2,13.2,0,0,1-1.792-.1V14.64a12.14,12.14,0,0,1,1.776-.112h10.448a11.837,11.837,0,0,1,1.744.112V13.472a13,13,0,0,1-1.76.1H239.1V10.7h2.976a9.173,9.173,0,0,1,1.472.08V9.7a9.052,9.052,0,0,1-1.472.08H239.1V7.344H241.7a9.3,9.3,0,0,1,1.472.08V6.336a8.859,8.859,0,0,1-1.44.08h-6.144a8.979,8.979,0,0,1-1.44-.08V7.424a9.518,9.518,0,0,1,1.488-.08Zm-.08-6.432A12.515,12.515,0,0,1,235.28,4a17.41,17.41,0,0,1-4.016,2.448,3.139,3.139,0,0,1,.7.96,19.935,19.935,0,0,0,4.112-2.72,13.138,13.138,0,0,0,2.56-2.88,14,14,0,0,0,2.928,3.072,22.688,22.688,0,0,0,4.064,2.576A4.289,4.289,0,0,1,246.32,6.4a16.46,16.46,0,0,1-3.952-2.24,12.475,12.475,0,0,1-3.12-3.248Zm16.592,3.76v2.48h-1.712a8.374,8.374,0,0,1-1.456-.08V8.08A8.836,8.836,0,0,1,252.864,8h1.712v2.928H252.16a10.738,10.738,0,0,1-1.584-.1v1.056a11.2,11.2,0,0,1,1.584-.1h6.1a11.12,11.12,0,0,1,1.568.1V10.832a10.654,10.654,0,0,1-1.568.1h-2.688V8h1.968a8.622,8.622,0,0,1,1.44.08V7.072a8.278,8.278,0,0,1-1.44.08h-1.968V4.672h2.464a10.174,10.174,0,0,1,1.552.08V3.728a9.788,9.788,0,0,1-1.568.1h-5.648a7.771,7.771,0,0,1-1.5-.1V4.752a9.617,9.617,0,0,1,1.5-.08Zm2.256,4.016a8.811,8.811,0,0,1,1.424,1.984l.752-.48a9.879,9.879,0,0,0-1.5-1.9Zm-8.224,4.336a15.5,15.5,0,0,1-.1,2.192h1.12V14.24h11.1v.976h1.12a15.667,15.667,0,0,1-.1-2.192V3.28a16.991,16.991,0,0,1,.1-1.968,16.061,16.061,0,0,1-1.9.08h-9.568a14.7,14.7,0,0,1-1.872-.08,18.413,18.413,0,0,1,.1,1.968ZM249.632,2.3h11.1V13.328h-11.1ZM271.04,6.272h-3.9V3.264A8.213,8.213,0,0,1,267.2,2.08H266a11.34,11.34,0,0,1,.08,1.232V6.48c0,.272-.016.512-.032.816.336-.016.7-.032.992-.032h4V13.12h-4.56V10.16a8.042,8.042,0,0,1,.08-1.36h-1.216a8.885,8.885,0,0,1,.08,1.424v3.52a8.411,8.411,0,0,1-.1,1.344h1.152v-.96h10.4v.96h1.152a8,8,0,0,1-.1-1.344V10.128a8.885,8.885,0,0,1,.08-1.424H276.8a8.485,8.485,0,0,1,.08,1.376v3.04h-4.768V7.264h4.3c.3,0,.672.016.992.032-.016-.272-.032-.5-.032-.816V3.3a7.892,7.892,0,0,1,.08-1.216h-1.2a8.708,8.708,0,0,1,.064,1.168V6.272h-4.208V2.224a7.258,7.258,0,0,1,.112-1.456h-1.3a6.47,6.47,0,0,1,.112,1.456Zm22.7,2.752a8.928,8.928,0,0,1,1.568.1V8.048a9.652,9.652,0,0,1-1.568.1h-5.536V6.736h4.4a10.721,10.721,0,0,1,1.52.1V5.76a7.854,7.854,0,0,1-1.52.1h-4.4V4.48h4.4a9.957,9.957,0,0,1,1.52.1V3.5a9.531,9.531,0,0,1-1.52.1h-4.4V2.256h4.752a10.723,10.723,0,0,1,1.616.08V1.28a10.423,10.423,0,0,1-1.632.1h-4.016A14.091,14.091,0,0,1,287.2,1.3a11.63,11.63,0,0,1,.064,1.392V8.144a10.826,10.826,0,0,1-1.248-.064V9.088a8.8,8.8,0,0,1,1.184-.064V13.7a11.335,11.335,0,0,1-1.648.24l.24,1.04c.32-.1.416-.112.768-.192,1.776-.4,3.04-.752,4.528-1.232l-.032-.928a25.588,25.588,0,0,1-2.88.848V9.024h1.36a9.688,9.688,0,0,0,1.9,3.44,12.046,12.046,0,0,0,3.552,2.7,4.56,4.56,0,0,1,.592-.976,9.481,9.481,0,0,1-3.3-2.176,22.872,22.872,0,0,0,2.208-1.984l-.784-.624a10.01,10.01,0,0,1-1.984,1.968,6.761,6.761,0,0,1-1.248-2.352Zm-11.264-.48a21.73,21.73,0,0,0,.336-2.624h1.84c.432,0,.816.016,1.136.048-.032-.416-.048-.784-.048-1.264V2.592c0-.432.016-.768.048-1.12q-.5.048-1.056.048h-1.872a9.507,9.507,0,0,1-1.488-.1V2.48a12.056,12.056,0,0,1,1.472-.064h1.936V5.024h-1.392a10.855,10.855,0,0,1-1.52-.064,23.054,23.054,0,0,1-.528,4.512c.384-.032.592-.032,1.088-.032h2.208a14.64,14.64,0,0,1-.5,4.016c-.112.384-.32.5-.848.5a15.192,15.192,0,0,1-1.792-.16,4.117,4.117,0,0,1,.208,1.056c.672.048,1.216.08,1.7.08.928,0,1.36-.272,1.6-.96a16.579,16.579,0,0,0,.624-4.816c.016-.3.016-.4.048-.656a10.118,10.118,0,0,1-1.152.048Zm16.16.1a1.668,1.668,0,0,1,.5.1,16.865,16.865,0,0,0,2.416.4c-.016.144-.016.144-.032.384a8.46,8.46,0,0,0-.064,1.056,4.339,4.339,0,0,0,.5,2.208,3.981,3.981,0,0,0,3.584,1.6c2.8,0,4.688-1.52,4.688-3.776a4.271,4.271,0,0,0-1.5-3.184,3.166,3.166,0,0,1-1.168.32,3.648,3.648,0,0,1,1.52,2.784c0,1.7-1.392,2.8-3.536,2.8a3.364,3.364,0,0,1-2.256-.688,2.362,2.362,0,0,1-.736-1.92c0-.272.032-.8.064-1.184a2.9,2.9,0,0,0,.016-.32c.72.032.976.032,1.376.032a18.463,18.463,0,0,0,2.256-.128c.224-.016.272-.016.432-.032l.032-1.072a13.99,13.99,0,0,1-2.944.256c-.224,0-.448,0-1.056-.016.1-.9.112-1.056.368-2.9.88.032,1.152.032,1.408.032.464,0,.944-.016,1.44-.064.8-.064.8-.064,1.12-.1l.048-1.1a12.983,12.983,0,0,1-2.928.272c-.256,0-.48,0-.928-.016.08-.448.112-.608.16-.96.144-.88.144-.88.16-1.024a8.234,8.234,0,0,1,.256-1.072l-1.28-.144v.128a25.176,25.176,0,0,1-.384,3.008,10.326,10.326,0,0,1-2.88-.624l-.144,1.056c.224.048.288.064.5.112a21.26,21.26,0,0,0,2.384.432c-.128.848-.288,2.1-.368,2.88a10.639,10.639,0,0,1-2.864-.64ZM327.5,4.48a11.994,11.994,0,0,1-2.32,2.624,13.443,13.443,0,0,1-.608-2.768l-.976.288c.048.176.064.256.128.464a21.561,21.561,0,0,0,1.3,4.224,13.272,13.272,0,0,0,3.008,4.448,5.241,5.241,0,0,1,.816-.9,9.962,9.962,0,0,1-2.432-2.848,11.622,11.622,0,0,1-.912-1.968,27.6,27.6,0,0,0,2.656-2.64,1.772,1.772,0,0,1,.176-.176Zm-6.848,4.032h-1.12a6.963,6.963,0,0,1-1.264-.08v.944a7.18,7.18,0,0,1,1.264-.08h1.12v1.568H318.7a6.942,6.942,0,0,1-1.28-.08v.976a7.725,7.725,0,0,1,1.344-.08h1.888v1.888c0,.384-.112.464-.672.464a13.6,13.6,0,0,1-2.272-.208,3.019,3.019,0,0,1,.24,1.04c.72.048,1.3.08,1.936.08a2.732,2.732,0,0,0,1.28-.176c.3-.176.432-.464.432-1.04V11.68h1.952a7.134,7.134,0,0,1,1.3.08v-.976a6.006,6.006,0,0,1-1.216.08H321.6V9.3h1.28a6.3,6.3,0,0,1,1.216.08V8.432a6.006,6.006,0,0,1-1.216.08H321.6V7.1h1.024a6.329,6.329,0,0,1,1.136.08V6.24a5.911,5.911,0,0,1-1.136.08H321.6V4.928a24.745,24.745,0,0,0,3.968-2.592l.3-.256-.528-.7a10.732,10.732,0,0,1-1.5.064h-5.872a14.062,14.062,0,0,1-1.824-.1V2.416a13.234,13.234,0,0,1,1.824-.1h6.208a19.066,19.066,0,0,1-3.136,1.952h-.464a8.645,8.645,0,0,1,.08,1.424V6.32h-.976a6.012,6.012,0,0,1-1.136-.08v.944a8.25,8.25,0,0,1,1.136-.08h.976Zm-2.688-3.488a4.349,4.349,0,0,1-.912.064H315.3a6.251,6.251,0,0,1-1.264-.08v1.04a6.283,6.283,0,0,1,1.232-.08h2.064a14.272,14.272,0,0,1-1.44,4.208,9.807,9.807,0,0,1-2.368,2.864,3.615,3.615,0,0,1,.752.8,12.528,12.528,0,0,0,2.432-3.168,18.787,18.787,0,0,0,1.568-4.528c.08-.3.112-.432.176-.608Zm14.544,3.648a7.061,7.061,0,0,1,1.712-.528,18.6,18.6,0,0,1,4.208-.64c1.936,0,2.96.784,2.96,2.24,0,1.424-1.1,2.64-2.928,3.232a10.91,10.91,0,0,1-3.152.5,1.217,1.217,0,0,1-.224-.016,3.5,3.5,0,0,1,.416,1.1,15.155,15.155,0,0,0,3.3-.608c2.224-.7,3.664-2.336,3.664-4.128a3.5,3.5,0,0,0-.5-1.824,3.66,3.66,0,0,0-3.392-1.488,20.657,20.657,0,0,0-4.88.7,7.512,7.512,0,0,1-1.472.288ZM347.248,4.7a47,47,0,0,1,5.52-.528,31.006,31.006,0,0,0,3.52-.352,10.474,10.474,0,0,0-1.52.848,6.066,6.066,0,0,0-2.992,4.912,3.894,3.894,0,0,0,1.776,3.264,8.071,8.071,0,0,0,3.456,1.232c.256.048.32.064.5.1l.208-1.3h-.16a8.2,8.2,0,0,1-2.4-.512,3.137,3.137,0,0,1-2.24-2.96,4.89,4.89,0,0,1,1.968-3.7A8.125,8.125,0,0,1,357.952,4.1a7.421,7.421,0,0,1,1.792-.208l-.1-1.2a10.74,10.74,0,0,1-1.9.176c-2.064.1-7.184.384-9.088.528-.5.032-.688.048-.912.048h-.576Zm24.224-1.248a16.17,16.17,0,0,1-3.264.688V2.608a9.151,9.151,0,0,1,.08-1.488H367.1a10.625,10.625,0,0,1,.08,1.52V4.224c-.48.032-1.1.048-1.536.048a9.062,9.062,0,0,1-1.632-.112V5.216h.656c.176.016.608.016.848.016.464,0,.736,0,1.024-.016.5-.032.5-.032.64-.048V8.192A8.559,8.559,0,0,0,364.928,9.5a2.9,2.9,0,0,0-1.264,2.128,1.93,1.93,0,0,0,.736,1.5,4.226,4.226,0,0,0,2.64,1.024c.784,0,1.168-.416,1.168-1.28v-4a10.8,10.8,0,0,1,3.392-.624c2.1,0,3.424.976,3.424,2.544a2.124,2.124,0,0,1-2.144,2.256c-1.168,0-1.648-.688-1.648-2.352a4.754,4.754,0,0,1,.032-.624,3.468,3.468,0,0,1-1.056.416A5.838,5.838,0,0,0,370.4,12.3a2.36,2.36,0,0,0,2.464,1.808,3.292,3.292,0,0,0,1.616-6.144,5.417,5.417,0,0,0-2.832-.672,11.335,11.335,0,0,0-3.44.576V5.1a28.081,28.081,0,0,0,2.832-.48c.224-.048.288-.064.48-.1Zm-4.288,8.832c0,.688-.048.784-.368.784a2.988,2.988,0,0,1-1.424-.464c-.464-.3-.688-.624-.688-.96,0-.768.9-1.632,2.48-2.4ZM376.8,5.52a13.445,13.445,0,0,0-3.232-3.04l-.832.624a13.1,13.1,0,0,1,3.232,3.136Zm6.016-4.48a3.209,3.209,0,0,1-.048.512,40.445,40.445,0,0,0-.544,5.9v.368l.032,1.664.016.288v.176l1.152-.048c-.016-.24-.016-.32-.016-.384a8.35,8.35,0,0,1,.864-3.568c.912-1.872,1.936-2.784,3.152-2.784,1.536,0,2.432,1.488,2.432,4.064,0,2.56-.88,4.24-2.752,5.312a8.454,8.454,0,0,1-3.248,1.008,3.3,3.3,0,0,1,.64,1.088,12.111,12.111,0,0,0,2.848-.944,6.6,6.6,0,0,0,3.7-6.288,6.572,6.572,0,0,0-.96-3.888A3.012,3.012,0,0,0,387.52,2.1a3.816,3.816,0,0,0-3.2,2.064,7.139,7.139,0,0,0-.976,2.384c-.08.336-.08.336-.112.464l-.064-.016c.048-.816.272-2.56.528-4.176a9.072,9.072,0,0,1,.368-1.648ZM409.04,12.72a5.47,5.47,0,0,1-.544-.368,14,14,0,0,0-4.464-2.336c-.064-1.552-.064-1.552-.1-2.448,1.184-.08,2.448-.208,3.552-.384.56-.08.72-.1.928-.112l-.064-1.1a19.312,19.312,0,0,1-4.432.656c-.016-.848-.016-.848-.032-2.16A33.238,33.238,0,0,0,407.6,4.08c.832-.112.832-.112,1.1-.128l-.08-1.088a22.555,22.555,0,0,1-4.736.656A17.862,17.862,0,0,1,404,1.264h-1.232a12.531,12.531,0,0,1,.08,2.3c-.528,0-1.072.016-1.392.016a19.877,19.877,0,0,1-4.1-.32l-.016,1.088a1.308,1.308,0,0,1,.224-.016,1.942,1.942,0,0,1,.288.016c1.44.112,2.736.16,3.9.16.368,0,.624,0,1.088-.016l.032,2.192c-.448.016-1.008.016-1.424.016a19.636,19.636,0,0,1-3.664-.256L397.776,7.5h.128c.1,0,.224,0,.4.016.992.08,1.744.112,2.7.112.512,0,1.312-.016,1.888-.032.016.416.016.72.032.928.016.464.016.8.032.944a1.275,1.275,0,0,0,.016.176c0,.144,0,.144.016.192a7.116,7.116,0,0,0-1.44-.128,6.97,6.97,0,0,0-1.664.16c-1.408.32-2.24,1.152-2.24,2.208a2.092,2.092,0,0,0,.864,1.68,4.168,4.168,0,0,0,2.48.64,3.221,3.221,0,0,0,2.7-1.008,2.778,2.778,0,0,0,.4-1.744,4.6,4.6,0,0,0-.032-.576c.432.176.8.336,1.072.48A12.875,12.875,0,0,1,408.4,13.84Zm-6.032-1.3a2.1,2.1,0,0,1-.32,1.44,2.312,2.312,0,0,1-1.76.528c-1.392,0-2.192-.48-2.192-1.328s1.04-1.424,2.624-1.424a5.873,5.873,0,0,1,1.632.176Zm17.36-8.08c-1.088.032-2.336.064-3.872.128-2.576.1-2.576.1-3.04.1-.24,0-.352,0-.64-.016l.048,1.168c1.072-.176,4.3-.336,7.52-.4v.832c0,.192.016.352.016.416,0,.592,0,.656.016.88a2.456,2.456,0,0,0-1.856-.72,2.662,2.662,0,0,0-2.832,2.64,2.675,2.675,0,0,0,4.64,1.664,2.241,2.241,0,0,0,.432-.784,4.144,4.144,0,0,1-1.792,3.376,8.2,8.2,0,0,1-2.592,1.2,3.513,3.513,0,0,1,.7,1.008,10.176,10.176,0,0,0,2.528-1.3,5.15,5.15,0,0,0,2.144-4.176,4.584,4.584,0,0,0-.384-1.888V4.3c1.3-.032,1.472-.032,1.712-.032a28.437,28.437,0,0,1,3.056.08V3.216c-.528.064-1.76.1-4.784.112V3.152a13.247,13.247,0,0,1,.08-2h-1.2a5.394,5.394,0,0,1,.064.928Zm-.048,4.672A1.793,1.793,0,0,1,418.448,9.9,1.546,1.546,0,0,1,416.8,8.32a1.693,1.693,0,0,1,1.776-1.68,2.047,2.047,0,0,1,1.072.256A1.158,1.158,0,0,1,420.32,8.016Zm16.544-4.624a4.6,4.6,0,0,1,1.856.4,4.218,4.218,0,0,1,2.544,4.016,4.83,4.83,0,0,1-2.832,4.48,9.591,9.591,0,0,1-2.672.752,2.543,2.543,0,0,1,.56,1.072,12.378,12.378,0,0,0,2.432-.736,5.826,5.826,0,0,0,3.664-5.52,5.356,5.356,0,0,0-1.552-3.9,6.194,6.194,0,0,0-4.4-1.584A6.683,6.683,0,0,0,431.3,4.5a6.656,6.656,0,0,0-1.68,4.416c0,2.24,1.136,3.9,2.656,3.9,1.152,0,2.1-.96,3.024-3.072A23.985,23.985,0,0,0,436.864,3.392Zm-1.152.016a21.977,21.977,0,0,1-1.456,5.92c-.688,1.568-1.328,2.32-2,2.32-.864,0-1.536-1.184-1.536-2.72a5.533,5.533,0,0,1,2.608-4.768A5.053,5.053,0,0,1,435.712,3.408ZM446,4.672a53.266,53.266,0,0,1,5.52-.528,32.745,32.745,0,0,0,3.52-.352,10.473,10.473,0,0,0-1.52.848,6.088,6.088,0,0,0-2.992,4.912,3.874,3.874,0,0,0,1.776,3.264,8.071,8.071,0,0,0,3.456,1.232c.288.048.32.064.5.1l.208-1.3h-.16a8.2,8.2,0,0,1-2.4-.512,3.137,3.137,0,0,1-2.24-2.96,4.89,4.89,0,0,1,1.968-3.7,7.87,7.87,0,0,1,3.072-1.6,6.711,6.711,0,0,1,1.792-.224l-.1-1.184a10.806,10.806,0,0,1-1.9.176l-.912.032c-.528.016-.736.032-2.7.144l-2.512.16c-1.968.112-2.064.128-2.96.192-.5.032-.688.048-.912.048-.112,0-.272,0-.576-.016Zm9.824,1.536a11.252,11.252,0,0,1,1.632,2.544l.816-.48a12.146,12.146,0,0,0-1.648-2.48Zm1.824-.864a12.661,12.661,0,0,1,1.632,2.512l.8-.448a12.967,12.967,0,0,0-1.648-2.5ZM9.392,32.256a16.17,16.17,0,0,1-3.264.688V31.408a9.151,9.151,0,0,1,.08-1.488H5.024a10.629,10.629,0,0,1,.08,1.52v1.584c-.48.032-1.1.048-1.536.048a9.062,9.062,0,0,1-1.632-.112v1.056h.656c.176.016.608.016.848.016.464,0,.736,0,1.024-.016.5-.032.5-.032.64-.048v3.024A8.559,8.559,0,0,0,2.848,38.3a2.9,2.9,0,0,0-1.264,2.128,1.93,1.93,0,0,0,.736,1.5A4.226,4.226,0,0,0,4.96,42.96c.784,0,1.168-.416,1.168-1.28v-4a10.8,10.8,0,0,1,3.392-.624c2.1,0,3.424.976,3.424,2.544A2.124,2.124,0,0,1,10.8,41.856c-1.168,0-1.648-.688-1.648-2.352a4.752,4.752,0,0,1,.032-.624,3.468,3.468,0,0,1-1.056.416A5.838,5.838,0,0,0,8.32,41.1a2.36,2.36,0,0,0,2.464,1.808A3.292,3.292,0,0,0,12.4,36.768,5.417,5.417,0,0,0,9.568,36.1a11.335,11.335,0,0,0-3.44.576V33.9a28.083,28.083,0,0,0,2.832-.48c.224-.048.288-.064.48-.1ZM5.1,41.088c0,.688-.048.784-.368.784a2.988,2.988,0,0,1-1.424-.464c-.464-.3-.688-.624-.688-.96,0-.768.9-1.632,2.48-2.4ZM14.72,34.32a13.445,13.445,0,0,0-3.232-3.04l-.832.624a13.1,13.1,0,0,1,3.232,3.136Zm14.144-2.528a11.507,11.507,0,0,1,2.016.112V30.752a13.185,13.185,0,0,1-2.016.112H20.992c.24-.432.3-.576.448-.864a3.679,3.679,0,0,1,.272-.56l-1.136-.256a3.208,3.208,0,0,1-.3.944,10.869,10.869,0,0,1-3.056,4.048,1.9,1.9,0,0,1,.752.7,12.562,12.562,0,0,0,2.512-3.088Zm-1.5,10.64a37.42,37.42,0,0,0-3.168-2.64,16.865,16.865,0,0,0,1.376-1.664c.32-.432.32-.432.4-.544.16-.192.16-.192.224-.272l-1.024-.592a8.187,8.187,0,0,1-1.792,2.48,29.685,29.685,0,0,0-3.056-1.936l-.688.64a30.54,30.54,0,0,1,3.056,1.968,15.437,15.437,0,0,1-4.96,2.992,2.681,2.681,0,0,1,.768.88A17.069,17.069,0,0,0,23.5,40.48a26.9,26.9,0,0,1,3.12,2.784ZM28.1,36.32a17.386,17.386,0,0,0,.608,5.248c.432,1.3,1.216,2.24,1.84,2.24.4,0,.752-.368.96-1.04a9.336,9.336,0,0,0,.432-2.192,2.417,2.417,0,0,1-.88-.624c-.1,1.472-.352,2.672-.576,2.672-.176,0-.576-.624-.8-1.264a14.833,14.833,0,0,1-.592-4.656,12.5,12.5,0,0,1,.064-1.36,12.611,12.611,0,0,1-1.808.08H19.68a9.651,9.651,0,0,1-1.488-.1v1.088a11.549,11.549,0,0,1,1.648-.1Zm-7.984-2.192a9.394,9.394,0,0,1,1.488-.08h6.384a8.108,8.108,0,0,1,1.568.1V33.056a8.751,8.751,0,0,1-1.568.1H21.5a7.453,7.453,0,0,1-1.392-.08ZM44.48,38.64v-.7a8.526,8.526,0,0,1,.1-1.68H43.424a8.826,8.826,0,0,1,.1,1.68v.7H42.272a8.815,8.815,0,0,1-1.472-.08v1.056a8.836,8.836,0,0,1,1.456-.08H43.52v2.9H41.344a8.152,8.152,0,0,1-1.52-.1v1.1a10.57,10.57,0,0,1,1.552-.1h5.3a10.336,10.336,0,0,1,1.536.1v-1.1a9.9,9.9,0,0,1-1.536.1H44.48v-2.9h1.76a8.645,8.645,0,0,1,1.424.08V38.56a7.978,7.978,0,0,1-1.408.08Zm-6.8,2.624h1.472a7.018,7.018,0,0,1,1.392.1V40.352a7.794,7.794,0,0,1-1.376.08H37.68v-1.44H38.5a14.811,14.811,0,0,1,1.616.064,15.175,15.175,0,0,1-.064-1.68V34.992a13.35,13.35,0,0,1,.064-1.632,13.947,13.947,0,0,1-1.6.064H37.68V32h1.088a8.98,8.98,0,0,1,1.44.08V31.072a7.066,7.066,0,0,1-1.44.1H37.68a10.426,10.426,0,0,1,.1-1.68H36.688a10.426,10.426,0,0,1,.1,1.68h-1.36a7.146,7.146,0,0,1-1.456-.1V32.08A9.447,9.447,0,0,1,35.424,32h1.36v1.424h-.832a13.158,13.158,0,0,1-1.568-.064,15.325,15.325,0,0,1,.064,1.632v2.384a16.127,16.127,0,0,1-.064,1.68,14.8,14.8,0,0,1,1.568-.064h.832v1.44H35.36a8.955,8.955,0,0,1-1.456-.08V41.36a7.525,7.525,0,0,1,1.456-.1h1.424V42.3a11.578,11.578,0,0,1-.1,1.68h1.088a10.749,10.749,0,0,1-.1-1.664Zm-.016-3.056V36.48H39.2v1.728Zm0-2.464V34.208H39.2v1.536Zm-.88-1.536v1.536H35.3V34.208Zm0,2.272v1.728H35.3V36.48Zm10.064-6.16a5.788,5.788,0,0,1-1.088.08H41.84a8.427,8.427,0,0,1-1.408-.1v1.024a9.436,9.436,0,0,1,.992-.064,9.182,9.182,0,0,0,2.064,3.072,11.729,11.729,0,0,1-3.408,1.856,2.2,2.2,0,0,1,.624.832,13.636,13.636,0,0,0,3.44-2.08,12.444,12.444,0,0,0,3.744,2.112,2.869,2.869,0,0,1,.56-.912,10.933,10.933,0,0,1-3.616-1.808,12.475,12.475,0,0,0,2.176-2.72,5.39,5.39,0,0,1,.432-.624Zm-.7.944a10.391,10.391,0,0,1-2,2.5,7.312,7.312,0,0,1-1.744-2.5Zm6.4-.944a8.909,8.909,0,0,1-.224,1.28,26.469,26.469,0,0,0-.72,6.336,22.932,22.932,0,0,0,.416,4.528c.048.3.064.384.1.64l1.152-.1v-.24a13.947,13.947,0,0,1,1.3-4.4L53.792,38a14.865,14.865,0,0,0-1.04,3.12c-.064-.848-.1-1.792-.1-3.04a23.653,23.653,0,0,1,.48-5.008,22.735,22.735,0,0,1,.672-2.56Zm3.3,3.024a21.311,21.311,0,0,0,2.56.16,27.01,27.01,0,0,0,3.44-.208q1.056-.144,1.1-.144l-.08-1.136a17.168,17.168,0,0,1-4.288.432,10.867,10.867,0,0,1-2.72-.24Zm1.168,3.12a4.42,4.42,0,0,0-1.392,2.976,2.262,2.262,0,0,0,.48,1.472c.688.832,1.84,1.216,3.664,1.216a16.507,16.507,0,0,0,3.28-.32c.32-.048.352-.064.56-.08L63.44,40.5a10.53,10.53,0,0,1-3.68.56c-2.064,0-3.072-.576-3.072-1.76a3.717,3.717,0,0,1,1.2-2.352Zm11.52-1.408H71.44c.656,0,1.264.016,1.616.048-.032-.384-.048-.832-.048-1.472V31.488c0-.624.016-1.04.048-1.52a14.039,14.039,0,0,1-1.632.064H69.136a14.67,14.67,0,0,1-1.664-.064c.048.512.064.976.064,1.76V42.112a12.106,12.106,0,0,1-.1,1.792h1.184a11.247,11.247,0,0,1-.1-1.792Zm0-4.24H72.1v1.312H68.528Zm0,2.1H72.1v1.344H68.528Zm11.84-1.184a14.971,14.971,0,0,1,.08-1.76,14.991,14.991,0,0,1-1.68.064H76.176a14.038,14.038,0,0,1-1.632-.064c.032.48.048.96.048,1.52v2.144c0,.592-.016,1.008-.048,1.472.352-.032.96-.048,1.632-.048h3.2v7.232c0,.368-.112.464-.576.464a18.16,18.16,0,0,1-2.032-.16,3.036,3.036,0,0,1,.288,1.024c.7.048,1.28.064,1.9.064,1.1,0,1.408-.288,1.408-1.328Zm-4.848-.912h3.856v1.312H75.52Zm0,2.1h3.856v1.344H75.52ZM76.752,37.5a9.053,9.053,0,0,1,.048-.976,11.483,11.483,0,0,1-1.168.048H72.048a11,11,0,0,1-1.1-.048,9.907,9.907,0,0,1,.048,1.008v3.2a9.9,9.9,0,0,1-.08,1.488h1.04V40.96h3.84a9.253,9.253,0,0,1,1.008.048,8.148,8.148,0,0,1-.048-.96Zm-4.8-.08h3.856v2.688H71.952Zm12.624-5.968a8.657,8.657,0,0,1,.048.944c.08,3.936.3,5.984.864,7.5.544,1.536,1.376,2.432,2.272,2.432,1.136,0,1.872-1.072,2.656-3.872a5.115,5.115,0,0,1-.944-.912,11.511,11.511,0,0,1-.832,2.736c-.24.528-.512.8-.8.8-.608,0-1.264-1.1-1.616-2.736a27.4,27.4,0,0,1-.416-4.976,11.6,11.6,0,0,1,.112-1.9Zm8.1,1.36A14.131,14.131,0,0,1,96,40.7l1.136-.464a15.32,15.32,0,0,0-1.2-4.272,13.888,13.888,0,0,0-2.288-3.648Zm13.552-3.28a11.64,11.64,0,0,1-2.464,2.784A16.688,16.688,0,0,1,99.408,35.1a2.781,2.781,0,0,1,.672.912,18.5,18.5,0,0,0,3.392-2.08,14.908,14.908,0,0,0,3.36-3.5A13.441,13.441,0,0,0,109.3,33.12a22.365,22.365,0,0,0,4.512,2.944,4.141,4.141,0,0,1,.64-1.008,16.778,16.778,0,0,1-4.384-2.624,10.991,10.991,0,0,1-2.64-2.9Zm-3.12,5.952a9.2,9.2,0,0,1,1.248-.064h4.976a9.849,9.849,0,0,1,1.344.064V34.4a9.555,9.555,0,0,1-1.344.064h-4.96A8.178,8.178,0,0,1,103.1,34.4Zm-.112,8.352v-.928h7.728v.928h1.152a11.121,11.121,0,0,1-.1-1.568V38.736a9.672,9.672,0,0,1,.08-1.472,8.479,8.479,0,0,1-1.248.064h-7.5a8.479,8.479,0,0,1-1.248-.064,10.062,10.062,0,0,1,.08,1.472v3.536a11.613,11.613,0,0,1-.1,1.568Zm0-5.536h7.728v3.664h-7.728Zm14.224,2.08a13.64,13.64,0,0,1,1.44-1.52,4.5,4.5,0,0,0,.832-.88h.032c-.032.384-.032.512-.048,2.464a17.081,17.081,0,0,1-.08,3.024h1.264c-.08-.736-.1-1.536-.1-6.352,2.1-1.888,3.536-2.64,5.1-2.64a2.936,2.936,0,0,1,3.056,3.136,4.044,4.044,0,0,1-.448,1.92,3.562,3.562,0,0,1-3.2,1.808,7.007,7.007,0,0,1-2.832-.624,3.933,3.933,0,0,1,.128.928,2.088,2.088,0,0,1-.016.272,8.071,8.071,0,0,0,2.72.48,4.548,4.548,0,0,0,4.832-4.816,4.046,4.046,0,0,0-4.3-4.16,6.229,6.229,0,0,0-4.048,1.584,8.763,8.763,0,0,0-.928.816l-.048.048h-.032c0-.032.032-.576.08-1.616a4.73,4.73,0,0,1,.848-1.04l-.416-.528a.935.935,0,0,1-.368.1c.016-.368.016-.368.032-.912a10.029,10.029,0,0,1,.16-1.856h-1.264a2.879,2.879,0,0,1,.048.624c0,.624-.016,1.232-.064,2.224-1.312.1-1.984.128-2.224.128-.128,0-.224,0-.448-.016l.08,1.1a13.975,13.975,0,0,1,1.76-.192c.592-.032.592-.032.816-.048-.048,1.36-.048,1.5-.08,2.832-.208.176-.208.176-.464.416-.544.5-.544.5-1.088,1.008a11.841,11.841,0,0,1-1.376,1.184Zm18.72-9.76a17.013,17.013,0,0,1,.08,2.384v1.04c-1.68.144-2.672.208-2.96.208a3.412,3.412,0,0,1-.352-.016l.1,1.12a32.244,32.244,0,0,1,3.216-.336v2a16.883,16.883,0,0,0,.208,3.792c.416,1.44,1.632,1.984,4.48,1.984a27.188,27.188,0,0,0,4.048-.336c.384-.048.416-.064.64-.08l-.128-1.232a14.506,14.506,0,0,1-4.448.592,8.89,8.89,0,0,1-2.5-.272,1.374,1.374,0,0,1-1.072-1.04,24.533,24.533,0,0,1-.16-4.032V34.96c2.128-.144,3.28-.208,5.216-.272a14.55,14.55,0,0,1-.192,2.464c-.144.784-.336,1.04-.784,1.04a4.544,4.544,0,0,1-2.1-.88c.016.32.032.48.032.656,0,.16-.016.24-.032.48a4.589,4.589,0,0,0,2.224.736,1.6,1.6,0,0,0,1.616-1.408,15.214,15.214,0,0,0,.288-3.12c.512,0,.864-.016,1.12-.016.528-.016.944-.016,1.088-.016.672,0,.768,0,1.2.032l-.032-1.136c-.528.064-1.776.112-3.344.144v-.432l.016-1.04V31.52a8.657,8.657,0,0,1,.064-1.232H142.24a15.333,15.333,0,0,1,.1,2.432c0,.192,0,.368-.016.544v.448c-2,.08-2.64.112-5.232.256a18.517,18.517,0,0,1,.144-3.344Zm19.44.832V41.968a11.766,11.766,0,0,1-.112,1.888h1.328a11.636,11.636,0,0,1-.112-1.888V34.432a17.87,17.87,0,0,1,1.664.88,23.972,23.972,0,0,1,3.392,2.24l.624-.992a34.524,34.524,0,0,0-5.68-3.28V31.456H161.5a15.708,15.708,0,0,1,1.856.1V30.368a15.146,15.146,0,0,1-1.856.1H151.136a14.887,14.887,0,0,1-1.872-.1v1.184a15.616,15.616,0,0,1,1.872-.1Zm11.84,2.88a3.535,3.535,0,0,1,.624-.048,47.111,47.111,0,0,0,5.7-.416c.1.16.1.192.272.528a19.511,19.511,0,0,0,1.92,3.136,7.989,7.989,0,0,0-3.312-.576,6.8,6.8,0,0,0-3.1.592A2.99,2.99,0,0,0,167.5,40.16a2.581,2.581,0,0,0,.72,1.76c.736.768,2.208,1.2,4.16,1.2a13.264,13.264,0,0,0,4.7-.864l-.176-1.232a10.549,10.549,0,0,1-4.544,1.024,5.419,5.419,0,0,1-3.12-.736,1.6,1.6,0,0,1-.608-1.248,1.817,1.817,0,0,1,.864-1.488,5.672,5.672,0,0,1,3.04-.672,8.67,8.67,0,0,1,2.8.416,3.2,3.2,0,0,1,1.1.656l1.072-.608a29.631,29.631,0,0,1-2.88-4.656l.544-.112c1.008-.192,1.2-.24,2.16-.5.48-.128.608-.16.944-.224l-.16-1.136a18.725,18.725,0,0,1-3.872,1.008,13.162,13.162,0,0,1-.576-1.408,5.1,5.1,0,0,1-.464-1.44l-1.264.176c.144.288.24.512.416.928.288.72.544,1.36.784,1.9a37.346,37.346,0,0,1-4.768.336,7.015,7.015,0,0,1-1.232-.08Zm16.24-2.88a8.658,8.658,0,0,1,.048.944c.08,3.936.3,5.984.864,7.5.544,1.536,1.376,2.432,2.272,2.432,1.136,0,1.872-1.072,2.656-3.872a5.114,5.114,0,0,1-.944-.912,11.512,11.512,0,0,1-.832,2.736c-.24.528-.512.8-.8.8-.608,0-1.264-1.1-1.616-2.736a27.4,27.4,0,0,1-.416-4.976,11.6,11.6,0,0,1,.112-1.9Zm8.1,1.36A14.131,14.131,0,0,1,194.88,40.7l1.136-.464a15.32,15.32,0,0,0-1.2-4.272,13.888,13.888,0,0,0-2.288-3.648Zm9.488,6.224a2.4,2.4,0,1,0,2.4,2.4A2.4,2.4,0,0,0,201.04,39.04Zm0,.912a1.488,1.488,0,1,1-1.488,1.488A1.5,1.5,0,0,1,201.04,39.952ZM10.048,93.36a4.348,4.348,0,0,1-.544,1.2A10.424,10.424,0,0,1,8,96.608,15.171,15.171,0,0,1,6.352,94.32a6.45,6.45,0,0,1-.432-.944l-.976.5A12.831,12.831,0,0,0,7.3,97.312a10.5,10.5,0,0,1-2.32,1.7A16.022,16.022,0,0,1,1.04,100.56a2.962,2.962,0,0,1,.592.992,16.168,16.168,0,0,0,4.288-1.92A13.326,13.326,0,0,0,8,98.032a11.844,11.844,0,0,0,2,1.536,17.22,17.22,0,0,0,4.592,1.984,2.85,2.85,0,0,1,.576-1.056,16.2,16.2,0,0,1-4.416-1.728,13.258,13.258,0,0,1-2.016-1.456,18.223,18.223,0,0,0,2.352-3.424ZM7.376,89.136H2.912a10.477,10.477,0,0,1-1.792-.112v1.152a11.959,11.959,0,0,1,1.792-.1H13.12a11.872,11.872,0,0,1,1.824.1V89.024a10.441,10.441,0,0,1-1.808.112H8.416v-.72a5.64,5.64,0,0,1,.112-1.344H7.264a6.8,6.8,0,0,1,.112,1.344ZM5.264,90.624A8.728,8.728,0,0,1,3.5,92.9a12.045,12.045,0,0,1-2.32,1.744,3.085,3.085,0,0,1,.784.8,15.324,15.324,0,0,0,2.112-1.7,12.338,12.338,0,0,0,2.1-2.608Zm4.384.528a13.668,13.668,0,0,0,2.048,2.3,14.6,14.6,0,0,0,2.528,1.824,4.065,4.065,0,0,1,.7-.912,11.347,11.347,0,0,1-2.592-1.68,8.772,8.772,0,0,1-1.856-2.08ZM23.5,90.608a12.587,12.587,0,0,1-1.728-.08,15.249,15.249,0,0,1,.064,1.808v5.056a10.7,10.7,0,0,1-.1,1.68H22.88a10.157,10.157,0,0,1-.1-1.68V96.16h3.008v1.008a11.564,11.564,0,0,1-.1,1.728h1.1a11.418,11.418,0,0,1-.1-1.728V96.16h3.344v1.552c0,.384-.08.448-.448.448a8.25,8.25,0,0,1-1.328-.112,3.427,3.427,0,0,1,.224.928c.48.032.752.032,1.12.032,1.12,0,1.376-.224,1.376-1.232V92.5a19.462,19.462,0,0,1,.064-1.968,11.088,11.088,0,0,1-1.744.08h-2.08a18.108,18.108,0,0,0,3.184-2.128,3.793,3.793,0,0,1,.4-.3l-.4-.576a11.145,11.145,0,0,1-1.632.064H23.2a9.225,9.225,0,0,1-1.7-.1v1.008a10.746,10.746,0,0,1,1.6-.08H29.04a13.338,13.338,0,0,1-2.48,1.68,23.633,23.633,0,0,0-2.144-1.424l-.72.512a15.548,15.548,0,0,1,2.128,1.344Zm3.2.8h3.344v1.584H26.7Zm-.912,0v1.584H22.784V91.408ZM22.784,93.76h3.008v1.616H22.784Zm7.264,1.616H26.7V93.76h3.344ZM17.312,88.032a15.156,15.156,0,0,1,2.48,2.912l.816-.736a18.375,18.375,0,0,0-2.56-2.832ZM17.184,94.5a5.041,5.041,0,0,1,1.072-.08h.96v3.84a8.653,8.653,0,0,1-2.272,1.872l.544,1.04c.224-.192.272-.24.448-.384.272-.256.336-.32.592-.544a11.55,11.55,0,0,0,1.088-1.168,4.326,4.326,0,0,0,1.536,1.424c1.024.528,1.968.64,5.136.64,1.488,0,3.424-.048,5.168-.112a6.243,6.243,0,0,1,.368-1.184,53.645,53.645,0,0,1-6.384.336c-2.224,0-3.264-.144-3.968-.56a2.705,2.705,0,0,1-1.3-1.376V95.1a11.966,11.966,0,0,1,.08-1.68,6.855,6.855,0,0,1-1.2.08H18.32a5.616,5.616,0,0,1-1.136-.08Zm26.08-3.088v-.96h2.288c.608,0,1.056.016,1.52.048a4.091,4.091,0,0,1-.048-.9v-.544a6.2,6.2,0,0,1,.064-1.04,8.878,8.878,0,0,1-1.52.08h-2.3v-.16a4.329,4.329,0,0,1,.08-.944H42.288a4.268,4.268,0,0,1,.08.928V88.1H39.824c.032-.576.048-.944.064-1.088h-1.04a5.69,5.69,0,0,1,.08,1.088H36.112a9.637,9.637,0,0,1-1.584-.08v.928a11.315,11.315,0,0,1,1.584-.08H38.9a7.883,7.883,0,0,1-.08.864H36.752c-.736,0-1.1-.016-1.456-.048a9,9,0,0,1-.9,2.512c.416-.032.816-.048,1.424-.048h2.048c-.832.912-1.92,1.392-4.192,1.872a2.334,2.334,0,0,1,.512.816,11.682,11.682,0,0,0,1.776-.608v3.552a13.047,13.047,0,0,1-.064,1.616,17.19,17.19,0,0,1,1.776-.064h6.8a17.339,17.339,0,0,1,1.792.064,13.485,13.485,0,0,1-.064-1.648V95.168c0-.576.016-1.072.032-1.472.176.016.3.016.416.016a1.01,1.01,0,0,0,.816-.288,2.727,2.727,0,0,0,.368-1.3c.064-.4.064-.416.144-.768a11.556,11.556,0,0,1-1.536.048Zm1.328,2.064h-7.12a3.992,3.992,0,0,0,1.456-1.328h3.44v.16a3.529,3.529,0,0,1-.08.864h1.056a3.586,3.586,0,0,1-.08-.88v-.144h3.648c-.112.832-.144.864-.512.864a3.4,3.4,0,0,1-.992-.208,3.766,3.766,0,0,1,.16.672Zm-5.9-3.024a4.51,4.51,0,0,1-.32.96h-2.64c.112-.272.176-.432.352-.96Zm3.68,0v.96H39.312a3.918,3.918,0,0,0,.288-.96Zm0-1.584v.864H39.712c.032-.32.032-.336.08-.864Zm.9,0H46.08v.864H43.264ZM36.928,94.24h8.3v.944h-8.3Zm0,1.68h8.3v.944h-8.3Zm0,1.68h8.3v.96h-8.3Zm1.664,1.872a12.006,12.006,0,0,1-4.608,1.424,2.978,2.978,0,0,1,.576.9,14.035,14.035,0,0,0,4.768-1.728Zm4.16.592a11.168,11.168,0,0,0,2.528,1.12,14.241,14.241,0,0,0,2.368.592,4.315,4.315,0,0,1,.608-.912,12.949,12.949,0,0,1-2.4-.432,9.049,9.049,0,0,1-2.352-.944Zm7.424-2.1a15.969,15.969,0,0,1,3.152,3.488l.9-.848a16.3,16.3,0,0,0-3.216-3.392Zm23.1-5.3h-3.9V89.664a8.214,8.214,0,0,1,.064-1.184h-1.2a11.342,11.342,0,0,1,.08,1.232V92.88c0,.272-.016.512-.032.816.336-.016.7-.032.992-.032h4V99.52H68.72V96.56a8.042,8.042,0,0,1,.08-1.36H67.584a8.885,8.885,0,0,1,.08,1.424v3.52a8.411,8.411,0,0,1-.1,1.344H68.72v-.96h10.4v.96h1.152a8,8,0,0,1-.1-1.344V96.528a8.885,8.885,0,0,1,.08-1.424H79.04a8.485,8.485,0,0,1,.08,1.376v3.04H74.352V93.664h4.3c.3,0,.672.016.992.032-.016-.272-.032-.5-.032-.816V89.7a7.891,7.891,0,0,1,.08-1.216H78.5a8.709,8.709,0,0,1,.064,1.168v3.024H74.352V88.624a7.26,7.26,0,0,1,.112-1.456h-1.3a6.47,6.47,0,0,1,.112,1.456Zm22.7,2.752a8.928,8.928,0,0,1,1.568.1V94.448a9.652,9.652,0,0,1-1.568.1H90.448V93.136h4.4a10.721,10.721,0,0,1,1.52.1V92.16a7.854,7.854,0,0,1-1.52.1h-4.4V90.88h4.4a9.957,9.957,0,0,1,1.52.1V89.9a9.531,9.531,0,0,1-1.52.1h-4.4V88.656H95.2a10.723,10.723,0,0,1,1.616.08V87.68a10.423,10.423,0,0,1-1.632.1H91.168a14.09,14.09,0,0,1-1.728-.08,11.632,11.632,0,0,1,.064,1.392v5.456a10.826,10.826,0,0,1-1.248-.064v1.008a8.8,8.8,0,0,1,1.184-.064V100.1a11.335,11.335,0,0,1-1.648.24l.24,1.04c.32-.1.416-.112.768-.192,1.776-.4,3.04-.752,4.528-1.232l-.032-.928a25.589,25.589,0,0,1-2.88.848V95.424h1.36a9.688,9.688,0,0,0,1.9,3.44,12.046,12.046,0,0,0,3.552,2.7,4.56,4.56,0,0,1,.592-.976,9.481,9.481,0,0,1-3.3-2.176,22.873,22.873,0,0,0,2.208-1.984l-.784-.624a10.01,10.01,0,0,1-1.984,1.968,6.761,6.761,0,0,1-1.248-2.352Zm-11.264-.48a21.725,21.725,0,0,0,.336-2.624H86.9c.432,0,.816.016,1.136.048-.032-.416-.048-.784-.048-1.264V88.992c0-.432.016-.768.048-1.12q-.5.048-1.056.048H85.1a9.506,9.506,0,0,1-1.488-.1V88.88a12.057,12.057,0,0,1,1.472-.064h1.936v2.608H85.632a10.855,10.855,0,0,1-1.52-.064,23.054,23.054,0,0,1-.528,4.512c.384-.032.592-.032,1.088-.032H86.88a14.639,14.639,0,0,1-.5,4.016c-.112.384-.32.5-.848.5a15.192,15.192,0,0,1-1.792-.16,4.117,4.117,0,0,1,.208,1.056c.672.048,1.216.08,1.7.08.928,0,1.36-.272,1.6-.96a16.579,16.579,0,0,0,.624-4.816c.016-.3.016-.4.048-.656a10.119,10.119,0,0,1-1.152.048Zm24.464-3.536v-.96h2.288c.608,0,1.056.016,1.52.048a4.091,4.091,0,0,1-.048-.9v-.544a6.2,6.2,0,0,1,.064-1.04,8.878,8.878,0,0,1-1.52.08h-2.3v-.16a4.328,4.328,0,0,1,.08-.944h-1.056a4.268,4.268,0,0,1,.08.928V88.1h-2.544c.032-.576.048-.944.064-1.088h-1.04a5.69,5.69,0,0,1,.08,1.088h-2.816a9.637,9.637,0,0,1-1.584-.08v.928a11.315,11.315,0,0,1,1.584-.08h2.784a7.883,7.883,0,0,1-.08.864h-2.064c-.736,0-1.1-.016-1.456-.048a9,9,0,0,1-.9,2.512c.416-.032.816-.048,1.424-.048h2.048c-.832.912-1.92,1.392-4.192,1.872a2.334,2.334,0,0,1,.512.816,11.682,11.682,0,0,0,1.776-.608v3.552a13.048,13.048,0,0,1-.064,1.616,17.19,17.19,0,0,1,1.776-.064h6.8a17.339,17.339,0,0,1,1.792.064,13.484,13.484,0,0,1-.064-1.648V95.168c0-.576.016-1.072.032-1.472.176.016.3.016.416.016a1.01,1.01,0,0,0,.816-.288,2.727,2.727,0,0,0,.368-1.3c.064-.4.064-.416.144-.768a11.556,11.556,0,0,1-1.536.048Zm1.328,2.064h-7.12a3.993,3.993,0,0,0,1.456-1.328h3.44v.16a3.529,3.529,0,0,1-.08.864h1.056a3.586,3.586,0,0,1-.08-.88v-.144h3.648c-.112.832-.144.864-.512.864a3.4,3.4,0,0,1-.992-.208,3.766,3.766,0,0,1,.16.672Zm-5.9-3.024a4.51,4.51,0,0,1-.32.96h-2.64c.112-.272.176-.432.352-.96Zm3.68,0v.96h-3.056a3.918,3.918,0,0,0,.288-.96Zm0-1.584v.864h-2.656c.032-.32.032-.336.08-.864Zm.9,0H112v.864h-2.816Zm-6.336,5.376h8.3v.944h-8.3Zm0,1.68h8.3v.944h-8.3Zm0,1.68h8.3v.96h-8.3Zm1.664,1.872A12.006,12.006,0,0,1,99.9,100.9a2.978,2.978,0,0,1,.576.9,14.035,14.035,0,0,0,4.768-1.728Zm4.16.592a11.168,11.168,0,0,0,2.528,1.12,14.241,14.241,0,0,0,2.368.592,4.315,4.315,0,0,1,.608-.912,12.949,12.949,0,0,1-2.4-.432,9.049,9.049,0,0,1-2.352-.944Zm16.656-3.808,2.3-2.016c.128-.112.224-.208.272-.24.08-.08.144-.128.16-.144a2,2,0,0,0,.16-.144l-.624-.624a7.434,7.434,0,0,1-1.248.064h-6.7a9.13,9.13,0,0,1-1.424-.08v1.04a13.548,13.548,0,0,1,1.5-.08h6.816l-2.576,2.224h-4.64a7.88,7.88,0,0,1-1.152-.064,9.5,9.5,0,0,1,.08,1.216v2.832a9.839,9.839,0,0,1-.1,1.344h1.12v-.752h8.256v.752h1.12a9.162,9.162,0,0,1-.1-1.344V97.424a7.474,7.474,0,0,1,.08-1.232,7.511,7.511,0,0,1-1.136.064Zm-6.048.9h8.256V99.92H119.28Zm3.472-9.968a13.062,13.062,0,0,1-3.264,3.152,17.683,17.683,0,0,1-3.616,1.968,3.174,3.174,0,0,1,.7.9,21.178,21.178,0,0,0,3.568-2.112,15.9,15.9,0,0,0,3.168-3.024,19.354,19.354,0,0,0,6.976,5.072,3.321,3.321,0,0,1,.656-.944,15.03,15.03,0,0,1-3.3-1.632,13.509,13.509,0,0,1-3.808-3.376Zm-2.128,4.72a8.042,8.042,0,0,1,1.36-.08h2.88a7.725,7.725,0,0,1,1.344.08V90.9a7.308,7.308,0,0,1-1.328.08h-2.912a7.725,7.725,0,0,1-1.344-.08Zm14.768-3.328a3.733,3.733,0,0,1,.208.848c.144.8.336,1.744.448,2.256a6.155,6.155,0,0,0-1.6,1.632,5.745,5.745,0,0,0-.928,3.056c0,1.888.912,3.136,2.3,3.136.928,0,1.824-.576,2.848-1.824a18.1,18.1,0,0,0,3.1-6.272c2.208.464,3.376,1.744,3.376,3.7a3.936,3.936,0,0,1-.7,2.272,5.206,5.206,0,0,1-2.4,1.744,7.251,7.251,0,0,1-2.384.592,2.644,2.644,0,0,1,.624,1.072c.688-.16.768-.176,1.008-.24a8.488,8.488,0,0,0,3.232-1.584,5.03,5.03,0,0,0,1.744-3.84c0-2.416-1.584-4.16-4.24-4.656.08-.3.112-.48.192-.752a12.633,12.633,0,0,1,.432-1.68l-1.2-.256a17.967,17.967,0,0,1-.5,2.576c-.224-.016-.416-.016-.528-.016a7.623,7.623,0,0,0-3.424.8,20.746,20.746,0,0,1-.432-2.784Zm.928,4.176a22.118,22.118,0,0,0,1.5,4.3c-.72.88-1.408,1.36-1.968,1.36-.784,0-1.3-.832-1.3-2.1a4.77,4.77,0,0,1,.64-2.24A4.72,4.72,0,0,1,136.32,92.752Zm2.224,3.424a2.577,2.577,0,0,0-.128-.368,22.682,22.682,0,0,1-1.2-3.712,5.98,5.98,0,0,1,3.088-.816c.08,0,.224.016.4.016a18.27,18.27,0,0,1-1.952,4.528,2.619,2.619,0,0,0-.192.352ZM1.828,126.981v-5.4h5.4v5.4ZM14.016,121.5a18.878,18.878,0,0,1-4.464,3.328,2.685,2.685,0,0,1,.56.864c.736-.48.912-.624,1.6-1.136v4.064a13.722,13.722,0,0,1-.1,1.744h1.04v-.976h3.6v.72h1.008a13.288,13.288,0,0,1-.064-1.584v-3.712a13.969,13.969,0,0,1,.048-1.68,10.22,10.22,0,0,1-1.456.064H13.424a21.663,21.663,0,0,0,1.824-1.7h1.44a13.786,13.786,0,0,1,1.536.064V120.56a11.159,11.159,0,0,1-1.68.08h-.512a16.843,16.843,0,0,0,2.064-3.008,3.388,3.388,0,0,1,.384-.56l-.992-.576a5.43,5.43,0,0,1-.448,1.056,15.34,15.34,0,0,1-2.192,3.088h-.5v-2.032h.56a10.33,10.33,0,0,1,1.248.064v-1.024a5.676,5.676,0,0,1-1.312.1h-.5v-.528a8.09,8.09,0,0,1,.08-1.408H13.28a8.427,8.427,0,0,1,.1,1.408v.528H12.192a6.782,6.782,0,0,1-1.456-.1v1.04a9.2,9.2,0,0,1,1.456-.08h1.184v2.032H11.728a8.658,8.658,0,0,1-1.632-.1V121.6a8.657,8.657,0,0,1,1.632-.1Zm-1.36,2.528h3.6v1.744h-3.6Zm0,2.576h3.6v1.936h-3.6Zm11.12-10.3a7.457,7.457,0,0,1-1.232.064H20.032c-.608,0-.9-.016-1.312-.048.048.544.064.928.064,1.456V128.24a15.506,15.506,0,0,1-.1,2.192H19.9a16.733,16.733,0,0,1-.112-2.176V117.248h3.184a23.814,23.814,0,0,1-2.128,4.448,6.974,6.974,0,0,1,1.568,1.76,5.148,5.148,0,0,1,.752,2.576c0,.976-.3,1.3-1.184,1.3a8.771,8.771,0,0,1-1.536-.128,3.375,3.375,0,0,1,.224,1.088c.448.032.832.048,1.088.048a3.338,3.338,0,0,0,1.6-.272,1.983,1.983,0,0,0,.88-1.888,5.576,5.576,0,0,0-.624-2.48A6.972,6.972,0,0,0,22,121.552c.7-1.264,1.168-2.144,1.616-3.152.528-1.216.528-1.216.64-1.424Zm15.184,2.88v9.424c0,.368-.112.416-.864.416a11.662,11.662,0,0,1-2.192-.208,3.7,3.7,0,0,1,.256,1.1c.656.048,1.3.08,1.824.08,1.7,0,2.032-.192,2.032-1.2v-9.248a11.411,11.411,0,0,1,.064-1.408,12.7,12.7,0,0,1-1.616.08h-4.4c.016-.384.032-.608.048-1.328a4.584,4.584,0,0,1,.112-1.152H32.976a5.413,5.413,0,0,1,.112,1.152c0,.592,0,.784-.032,1.328h-4.24a12.489,12.489,0,0,1-1.584-.08,11.983,11.983,0,0,1,.064,1.44v8.928a11.159,11.159,0,0,1-.112,1.776h1.248a11.7,11.7,0,0,1-.08-1.776v-9.328H32.96a7.517,7.517,0,0,1-1.568,4.16,8.3,8.3,0,0,1-2.768,2.144,3.036,3.036,0,0,1,.72.816,9.091,9.091,0,0,0,3.328-2.992,7.436,7.436,0,0,0,.9-2.016,10.878,10.878,0,0,0,4.4,4.864,3.463,3.463,0,0,1,.7-.928A10.735,10.735,0,0,1,35.5,122.7a9.618,9.618,0,0,1-1.616-2.832c.048-.272.064-.384.1-.688Zm3.888,7.584A15.969,15.969,0,0,1,46,130.256l.9-.848a16.3,16.3,0,0,0-3.216-3.392Zm28.832-8.3a16.462,16.462,0,0,1,1.648.08V117.52a11.334,11.334,0,0,1-1.664.1H69.04a7.886,7.886,0,0,0,.1-.928,4.784,4.784,0,0,1,.08-.752l-1.1-.016a3.846,3.846,0,0,1,.048.592,4.943,4.943,0,0,1-.112,1.1H65.84a9.571,9.571,0,0,1-1.472-.1v1.024a8.718,8.718,0,0,1,1.456-.08h1.984a3.752,3.752,0,0,1-1.52,1.7,8.185,8.185,0,0,1-2.016.816,2.488,2.488,0,0,1,.56.816c2.032-.7,3.136-1.552,3.792-2.928a7.466,7.466,0,0,0,4.4,2.944,3.532,3.532,0,0,1,.544-.912,6.354,6.354,0,0,1-4.192-2.432ZM61.376,120h-.592a6.073,6.073,0,0,1-1.344-.1v1.088a6.334,6.334,0,0,1,1.344-.1h.592v5.456a12.742,12.742,0,0,1-2.144.672l.288,1.072c.176-.08.288-.128.56-.24a29.321,29.321,0,0,0,4.144-1.84l-.064-1.008c-.816.448-1.12.608-1.792.912V120.9h.368a9.716,9.716,0,0,1,1.28.064V119.9a5.063,5.063,0,0,1-1.28.1h-.368v-2.432a8.376,8.376,0,0,1,.1-1.5H61.28a10.407,10.407,0,0,1,.1,1.52Zm10.032,2.912v6.032c0,.32-.112.384-.688.384a17.275,17.275,0,0,1-1.872-.112,3.591,3.591,0,0,1,.256,1.008c.64.016,1.12.032,1.616.032a2.831,2.831,0,0,0,1.232-.16c.3-.16.432-.464.432-.992v-6.192h.128a7.134,7.134,0,0,1,1.376.1V121.92a7.594,7.594,0,0,1-1.392.1H65.088a8.116,8.116,0,0,1-1.472-.1v1.088a9.966,9.966,0,0,1,1.6-.1Zm-1.584,2.48c0-.592.016-.96.048-1.3a12.078,12.078,0,0,1-1.264.048H66.24a12.221,12.221,0,0,1-1.28-.048c.032.464.048.736.048,1.28V127.6a9.887,9.887,0,0,1-.064,1.328h1.008v-1.1H68.64c.512,0,.9.016,1.232.048a12.8,12.8,0,0,1-.048-1.3Zm-3.872-.416H68.9v2H65.952Zm16.368-7.024v4.064H79.328a10.618,10.618,0,0,1-1.712-.1v1.136a16.214,16.214,0,0,1,1.712-.064H82.32v5.36H77.952a13.929,13.929,0,0,1-1.856-.1v1.216a12.128,12.128,0,0,1,1.856-.112h10.4a10.6,10.6,0,0,1,1.744.112v-1.216a10.41,10.41,0,0,1-1.712.1H83.408v-5.36h3.5a15.849,15.849,0,0,1,1.648.064V121.92a9.146,9.146,0,0,1-1.664.1H83.408v-4.064H87.68a14.964,14.964,0,0,1,1.856.1v-1.2a11.418,11.418,0,0,1-1.872.112H78.48a10.321,10.321,0,0,1-1.808-.112v1.2a13.624,13.624,0,0,1,1.808-.1Zm2.7,6.448a20.193,20.193,0,0,1,2.544,3.184l.848-.672a23.632,23.632,0,0,0-2.576-3.1Zm7.264,2.368a15.969,15.969,0,0,1,3.152,3.488l.9-.848a16.3,16.3,0,0,0-3.216-3.392Zm19.9-3.28a11.529,11.529,0,0,0,1.952,1.808,3.9,3.9,0,0,1,.512-.88,11.634,11.634,0,0,1-2.3-1.936,20.149,20.149,0,0,0,1.792-2.944,2.446,2.446,0,0,1,.224-.448l-.464-.56a5.588,5.588,0,0,1-.912.048h-.8v-1.488a6.536,6.536,0,0,1,.1-1.264H111.1a8.041,8.041,0,0,1,.1,1.248v1.5h-.912a6.22,6.22,0,0,1-1.2-.08v1.056a7.1,7.1,0,0,1,1.248-.08h2.8a12.822,12.822,0,0,1-4.608,5.488,3.187,3.187,0,0,1,.56.9,13.474,13.474,0,0,0,2.128-1.984v4.784a12.014,12.014,0,0,1-.1,1.728h1.168a13.493,13.493,0,0,1-.1-1.728Zm5.984-5.136h-1.808a11.845,11.845,0,0,1-1.568-.064,11.409,11.409,0,0,1,.064,1.408v5.424a11.934,11.934,0,0,1-.064,1.456h1.024v-1.04h2.352v3.072a14.4,14.4,0,0,1-.1,1.792h1.152a13.893,13.893,0,0,1-.1-1.824v-3.04h2.576v.944h1.04a11.767,11.767,0,0,1-.064-1.456V119.7a10.158,10.158,0,0,1,.064-1.408,12,12,0,0,1-1.568.064h-2.048v-.816a13.4,13.4,0,0,1,.1-1.712H118.08a12.627,12.627,0,0,1,.1,1.7Zm0,.9v2.192h-2.352v-2.192Zm0,3.056v2.352h-2.352V122.3Zm.96,2.352V122.3h2.592v2.352Zm0-3.216v-2.192h2.592v2.192Zm13.12-3.824c.208-.384.32-.656.5-1.04a5.412,5.412,0,0,1,.3-.656l-1.2-.192a6.063,6.063,0,0,1-.7,1.888h-3.808a11.959,11.959,0,0,1-1.792-.1v1.088a16.17,16.17,0,0,1,1.776-.08h3.28a9.065,9.065,0,0,1-2,2.08,13.7,13.7,0,0,1-3.5,1.984,2.894,2.894,0,0,1,.672.864,16.921,16.921,0,0,0,4.016-2.608,10.075,10.075,0,0,0,1.936-2.32h1.632a11.54,11.54,0,0,0,2.3,2.64,13.578,13.578,0,0,0,3.808,2.3,4.953,4.953,0,0,1,.608-.96,10.7,10.7,0,0,1-5.616-3.984h3.216a16.27,16.27,0,0,1,1.76.08V117.52a12.357,12.357,0,0,1-1.808.1Zm-.1,7.344v3.84c0,.352-.144.448-.656.448a11.137,11.137,0,0,1-1.664-.144,3.078,3.078,0,0,1,.288,1.056c.512.016.96.032,1.312.032,1.424,0,1.76-.224,1.76-1.184V124.96h4.144a11.609,11.609,0,0,1,1.6.1v-1.1a9.84,9.84,0,0,1-1.552.1h-9.648a9.926,9.926,0,0,1-1.568-.1v1.1a11.608,11.608,0,0,1,1.6-.1Zm-2.864-2.576a7.242,7.242,0,0,1,1.3-.08h3.84a6.923,6.923,0,0,1,1.3.08v-1.056a6.922,6.922,0,0,1-1.3.08h-3.84a7.027,7.027,0,0,1-1.3-.08Zm-.368,3.152a9.017,9.017,0,0,1-3.36,3.52,2.935,2.935,0,0,1,.816.784,12.116,12.116,0,0,0,3.456-3.808Zm6.224.5a12.9,12.9,0,0,0,3.632,3.792,4.73,4.73,0,0,1,.768-.88,9.373,9.373,0,0,1-3.536-3.376Zm9.616-8.448a6.7,6.7,0,0,1,.1-1.456h-1.28a9.052,9.052,0,0,1,.1,1.424V120.7c0,4.608-.544,6.752-2.208,8.592a3.554,3.554,0,0,1,.912.848c1.792-2.32,2.384-4.64,2.384-9.392Zm3.84-.8a8.654,8.654,0,0,1,.1,1.5v8.464a12.662,12.662,0,0,1-.1,1.808h1.28a12.509,12.509,0,0,1-.1-1.808v-8.464a10.176,10.176,0,0,1,.1-1.5Zm5.168-.608a8.023,8.023,0,0,1,.1,1.552v10.416a14.737,14.737,0,0,1-.1,2h1.28a12.472,12.472,0,0,1-.1-2V117.728a7.925,7.925,0,0,1,.1-1.552Zm17.405,2.624H169.6v1.584h1.584Zm0,8.64v-1.584H169.6v1.584Zm27.661-5.168a13.916,13.916,0,0,1-2.112.112h-9.856a14.584,14.584,0,0,1-2.128-.112V123.6a15.023,15.023,0,0,1,2.128-.112h9.856a14.338,14.338,0,0,1,2.112.112Zm10.608-2.56H207a8.495,8.495,0,0,1-1.7-.112v1.072a10.986,10.986,0,0,1,1.68-.1h2.464v1.536h-2.128a8.567,8.567,0,0,1-1.488-.08v.992a10.939,10.939,0,0,1,1.472-.064h2.144v1.5h-2.336a7.757,7.757,0,0,1-1.52-.1v1.04a9.813,9.813,0,0,1,1.52-.1h2.336v1.632h-2.9a9.251,9.251,0,0,1-1.664-.1v1.072a12.264,12.264,0,0,1,1.744-.1h2.816v.672a14.243,14.243,0,0,1-.1,1.952h1.152a14.853,14.853,0,0,1-.08-1.968v-.656h3.312a16.6,16.6,0,0,1,1.776.064v-1.04a9.449,9.449,0,0,1-1.68.1h-3.408v-1.632H213a14.173,14.173,0,0,1,1.584.064v-1.008a8.612,8.612,0,0,1-1.568.1h-2.592v-1.5h2.48c.672,0,1.024.016,1.408.032a7.064,7.064,0,0,1-.032-1.008v-1.408h.112a9.768,9.768,0,0,1,1.264.064v-1.024a5.885,5.885,0,0,1-1.264.1h-.112V118.48a9.862,9.862,0,0,1,.032-1.1,13.591,13.591,0,0,1-1.424.048h-2.464v-.1a8.246,8.246,0,0,1,.08-1.472h-1.152a8.034,8.034,0,0,1,.1,1.456v.112h-2.128a8.6,8.6,0,0,1-1.456-.08v.992a11.363,11.363,0,0,1,1.424-.064h2.16Zm.976,0v-1.44h2.912v1.44Zm0,.864h2.912v1.536h-2.912Zm-6.192-4.768a4.459,4.459,0,0,1-.4.672,10.571,10.571,0,0,1-2.976,2.832,2.932,2.932,0,0,1,.688.88,15.281,15.281,0,0,0,3.088-3.12c.32-.432.384-.5.528-.672Zm-.272,6.3c.272-.432.5-.768.624-1.008a9.379,9.379,0,0,1,.56-.944l-.928-.576a5.757,5.757,0,0,1-.608,1.264,11.723,11.723,0,0,1-2.864,3.424,3.239,3.239,0,0,1,.576.944,12.138,12.138,0,0,0,1.7-2c-.048.96-.048,1.168-.048,1.9V128.5a15.175,15.175,0,0,1-.1,1.968h1.184a15.459,15.459,0,0,1-.1-1.984Zm13.3,7.088a6.525,6.525,0,0,1,.6-2.516,4.838,4.838,0,0,1,2.027-1.945l1.5-.867a7.062,7.062,0,0,0,1.414-1,2.183,2.183,0,0,0,.055-3.035,2.136,2.136,0,0,0-1.562-.574,2.042,2.042,0,0,0-2,1.094,3.916,3.916,0,0,0-.328,1.625h-1.43a5.022,5.022,0,0,1,.539-2.383,3.383,3.383,0,0,1,3.227-1.625,3.319,3.319,0,0,1,3.7,3.352,3.144,3.144,0,0,1-.945,2.3,9.255,9.255,0,0,1-1.961,1.344l-1.07.594a6.932,6.932,0,0,0-1.2.8,2.931,2.931,0,0,0-.984,1.508h6.109V129.2Zm9.378,0a6.525,6.525,0,0,1,.6-2.516,4.838,4.838,0,0,1,2.027-1.945l1.5-.867a7.062,7.062,0,0,0,1.414-1,2.183,2.183,0,0,0,.055-3.035,2.136,2.136,0,0,0-1.562-.574,2.042,2.042,0,0,0-2,1.094,3.916,3.916,0,0,0-.328,1.625h-1.43a5.022,5.022,0,0,1,.539-2.383,3.383,3.383,0,0,1,3.227-1.625,3.319,3.319,0,0,1,3.7,3.352,3.144,3.144,0,0,1-.945,2.3,9.255,9.255,0,0,1-1.961,1.344l-1.07.594a6.932,6.932,0,0,0-1.2.8,2.931,2.931,0,0,0-.984,1.508h6.109V129.2Zm13.207-11.187a3.306,3.306,0,0,1,3.141,1.789,8,8,0,0,1,.75,3.789,9.124,9.124,0,0,1-.68,3.773,3.328,3.328,0,0,1-3.219,2.141,3.223,3.223,0,0,1-3-1.75,8.013,8.013,0,0,1-.82-3.922,9.69,9.69,0,0,1,.492-3.273A3.368,3.368,0,0,1,239.848,118.012Zm-.016,10.211a2,2,0,0,0,1.742-.969,7.014,7.014,0,0,0,.648-3.609,8.918,8.918,0,0,0-.469-3.137,1.784,1.784,0,0,0-1.82-1.23,1.9,1.9,0,0,0-1.816,1.168,8.065,8.065,0,0,0-.574,3.441,8.451,8.451,0,0,0,.367,2.75A2,2,0,0,0,239.832,128.223Zm9.394-10.211a3.306,3.306,0,0,1,3.141,1.789,8,8,0,0,1,.75,3.789,9.124,9.124,0,0,1-.68,3.773,3.328,3.328,0,0,1-3.219,2.141,3.223,3.223,0,0,1-3-1.75,8.013,8.013,0,0,1-.82-3.922,9.69,9.69,0,0,1,.492-3.273A3.368,3.368,0,0,1,249.226,118.012Zm-.016,10.211a2,2,0,0,0,1.742-.969,7.014,7.014,0,0,0,.648-3.609,8.918,8.918,0,0,0-.469-3.137,1.784,1.784,0,0,0-1.82-1.23,1.9,1.9,0,0,0-1.816,1.168,8.065,8.065,0,0,0-.574,3.441,8.451,8.451,0,0,0,.367,2.75A2,2,0,0,0,249.21,128.223Zm7.866-4.575h10.432v4.976c0,.3-.144.368-.848.368a23.279,23.279,0,0,1-2.528-.192,3.958,3.958,0,0,1,.256,1.04c.768.064,1.648.1,2.288.1,1.552,0,1.9-.224,1.9-1.184v-10.5a12.394,12.394,0,0,1,.064-1.472,11.564,11.564,0,0,1-1.472.064h-9.76a12.224,12.224,0,0,1-1.472-.064,12.035,12.035,0,0,1,.064,1.424V128.5a11.371,11.371,0,0,1-.1,1.744h1.248a9.427,9.427,0,0,1-.08-1.7Zm4.56-.96h-4.56v-4.864h4.56Zm1.04,0v-4.864h4.832v4.864ZM1.828,155.781v-5.4h5.4v5.4Zm11.324-8.565c.32-.032.384-.032.992-.064a38.772,38.772,0,0,0,5.008-.384,5.292,5.292,0,0,0-.528.448,33.929,33.929,0,0,1-5.312,4.128,21.171,21.171,0,0,1-2.8.32H10.4l.128,1.216a41.072,41.072,0,0,1,4.72-.72c.912-.112,2.336-.3,2.608-.336.656-.112.656-.112.88-.144-2.3,1.008-3.488,2.272-3.488,3.7a2.605,2.605,0,0,0,.944,2.016,6.564,6.564,0,0,0,4.032,1.04c.816.016.816.016,1.088.032l-.048-1.232a5.735,5.735,0,0,1-1.088.1c-2.432,0-3.808-.752-3.808-2.064a2.022,2.022,0,0,1,.512-1.328,5.656,5.656,0,0,1,2-1.52,10.628,10.628,0,0,1,4.4-.864h.352l-.112-1.12a2.165,2.165,0,0,1-.464.064c-.32.032-.8.08-1.456.128-1.216.112-2.192.208-2.848.256a37.081,37.081,0,0,0-3.84.432,31.1,31.1,0,0,0,5.248-4.08,5.2,5.2,0,0,1,.784-.672l-.672-.848a3.122,3.122,0,0,1-.9.192c-1.136.128-3.44.224-4.88.224a12.5,12.5,0,0,1-1.44-.064Zm21.344.176a4.6,4.6,0,0,1,1.856.4,4.218,4.218,0,0,1,2.544,4.016,4.83,4.83,0,0,1-2.832,4.48,9.59,9.59,0,0,1-2.672.752,2.542,2.542,0,0,1,.56,1.072,12.379,12.379,0,0,0,2.432-.736,5.826,5.826,0,0,0,3.664-5.52,5.356,5.356,0,0,0-1.552-3.9,6.194,6.194,0,0,0-4.4-1.584,6.5,6.5,0,0,0-6.848,6.544c0,2.24,1.136,3.9,2.656,3.9,1.152,0,2.1-.96,3.024-3.072A23.984,23.984,0,0,0,34.5,147.392Zm-1.152.016a21.976,21.976,0,0,1-1.456,5.92c-.688,1.568-1.328,2.32-2,2.32-.864,0-1.536-1.184-1.536-2.72a5.533,5.533,0,0,1,2.608-4.768A5.053,5.053,0,0,1,33.344,147.408ZM51.68,150.08v4.16a10.419,10.419,0,0,1-.1,1.552h1.168a10.488,10.488,0,0,1-.1-1.536v-4.512l2.752-.976c-.032,1.408-.1,2.672-.192,3.568-.128,1.264-.176,1.376-.7,1.376a6.337,6.337,0,0,1-1.28-.176,4.233,4.233,0,0,1,.272,1.024,10.181,10.181,0,0,0,1.152.064c1.024,0,1.3-.3,1.456-1.648.112-.944.256-3.456.288-4.848,0-.208.016-.464.032-.7a8.974,8.974,0,0,1-1.264.512l-2.512.864v-2.544a10.1,10.1,0,0,1,.1-1.488H51.584a10.41,10.41,0,0,1,.1,1.488v2.88l-2.336.816v-1.92a10.739,10.739,0,0,1,.1-1.584h-1.2a11.618,11.618,0,0,1,.1,1.632v2.208l-.448.16a7.975,7.975,0,0,1-1.392.336l.224,1.1a8.743,8.743,0,0,1,1.328-.528l.288-.1v5.824a1.181,1.181,0,0,0,.256.88,2.093,2.093,0,0,0,1.312.48,22.4,22.4,0,0,0,2.32.1c2.464,0,3.52-.128,4.032-.48.432-.3.688-1.024.944-2.64a3.327,3.327,0,0,1-1.04-.4c-.112,1.408-.32,2.08-.688,2.288s-1.184.288-3.184.288a12.235,12.235,0,0,1-2.352-.128c-.48-.1-.592-.224-.592-.624v-5.936Zm-6.96,7.2a16.023,16.023,0,0,1-.1,1.936h1.2c-.048-.544-.08-1.152-.08-1.9V148.7a17.022,17.022,0,0,0,1.232-2.848c.192-.544.24-.688.336-.912l-1.12-.352a10.233,10.233,0,0,1-.672,2.272,14.453,14.453,0,0,1-3.088,4.768,4.931,4.931,0,0,1,.672.864,13.251,13.251,0,0,0,1.68-2.4c-.048.816-.064,1.344-.064,1.92Zm22.736-9.888a4.6,4.6,0,0,1,1.856.4,4.218,4.218,0,0,1,2.544,4.016,4.83,4.83,0,0,1-2.832,4.48,9.59,9.59,0,0,1-2.672.752,2.542,2.542,0,0,1,.56,1.072,12.379,12.379,0,0,0,2.432-.736,5.826,5.826,0,0,0,3.664-5.52,5.356,5.356,0,0,0-1.552-3.9,6.194,6.194,0,0,0-4.4-1.584,6.5,6.5,0,0,0-6.848,6.544c0,2.24,1.136,3.9,2.656,3.9,1.152,0,2.1-.96,3.024-3.072A23.984,23.984,0,0,0,67.456,147.392Zm-1.152.016a21.976,21.976,0,0,1-1.456,5.92c-.688,1.568-1.328,2.32-2,2.32-.864,0-1.536-1.184-1.536-2.72a5.533,5.533,0,0,1,2.608-4.768A5.053,5.053,0,0,1,66.3,147.408Zm16.48,3.616,2.288-.768v4.064a10.418,10.418,0,0,1-.1,1.552H86.16a10.488,10.488,0,0,1-.1-1.536V149.92l2.656-.912a32.248,32.248,0,0,1-.256,4.048c-.08.464-.16.544-.528.544a5.722,5.722,0,0,1-1.232-.144,3.726,3.726,0,0,1,.24,1.008c.368.032.56.048.7.048a2.188,2.188,0,0,0,1.152-.224c.416-.24.624-.912.736-2.336.128-1.568.192-2.688.256-4.288a11.561,11.561,0,0,1-1.264.5l-2.464.816v-2.624a10.646,10.646,0,0,1,.1-1.5H84.976a10.1,10.1,0,0,1,.1,1.488v2.96l-2.288.768v-2.24a11.364,11.364,0,0,1,.1-1.584h-1.2a11.619,11.619,0,0,1,.1,1.632v2.512l-.576.192a6.166,6.166,0,0,1-1.392.32l.288,1.088a8.822,8.822,0,0,1,1.328-.512l.352-.112v5.872c0,1.248.656,1.488,3.968,1.488,4.16,0,4.448-.192,4.64-3.152a2.934,2.934,0,0,1-1.024-.416,4.664,4.664,0,0,1-.336,2.16c-.256.368-.928.464-3.184.464a11.631,11.631,0,0,1-2.576-.144c-.384-.1-.48-.224-.48-.608Zm-4.9-1.968H77.3a5.905,5.905,0,0,1-1.344-.1v1.088a6.073,6.073,0,0,1,1.344-.1h.592v5.472a9.011,9.011,0,0,1-2.144.72l.272,1.1c.176-.08.416-.192.64-.272a30.885,30.885,0,0,0,4.128-1.952l-.1-.976c-.832.464-1.12.608-1.808.928v-5.024h.432a9.979,9.979,0,0,1,1.3.064v-1.04a6.047,6.047,0,0,1-1.28.08H78.88v-2.384a13.358,13.358,0,0,1,.1-1.792H77.792a13.1,13.1,0,0,1,.1,1.776Zm24.416-.768a26.511,26.511,0,0,0,.9,6.4,10.742,10.742,0,0,1-4.08,3.568,2.714,2.714,0,0,1,.784.752,12.3,12.3,0,0,0,3.616-3.232c.656,1.9,1.584,3.168,2.336,3.168.272,0,.528-.192.736-.576a6.564,6.564,0,0,0,.512-2.272,2.889,2.889,0,0,1-.848-.608,3.806,3.806,0,0,1-.464,2.208c-.416-.144-1.04-1.344-1.568-2.96a18.179,18.179,0,0,0,1.616-3.472c.144-.432.192-.544.352-.928l-1.04-.352a11.72,11.72,0,0,1-1.248,3.52,27.734,27.734,0,0,1-.624-5.216h1.568c.624,0,1.248.032,1.7.08V147.28a11.038,11.038,0,0,1-1.664.1h-1.632v-1.008a8.646,8.646,0,0,1,.1-1.648H102.16a18.127,18.127,0,0,1,.128,2.656h-3.9a11.468,11.468,0,0,1-1.712-.1v1.088a16.756,16.756,0,0,1,1.7-.08Zm-8.128.784h-.432a8.853,8.853,0,0,1-1.376-.08v1.056a11.46,11.46,0,0,1,1.344-.08h.464v5.2a12.832,12.832,0,0,1-2.048.8l.32,1.088a3.248,3.248,0,0,1,.528-.272,41.688,41.688,0,0,0,3.968-2.048l-.08-1.008a15.182,15.182,0,0,1-1.712.976v-4.736h.3a9.888,9.888,0,0,1,1.328.064v-1.024a9.887,9.887,0,0,1-1.328.064h-.3v-2.448a11.047,11.047,0,0,1,.1-1.76H94.08a13.164,13.164,0,0,1,.1,1.76Zm3.248,4.016a8.842,8.842,0,0,1-.048.976,8.106,8.106,0,0,1,1.056-.048h1.856c.448,0,.8.016,1.136.048a6.894,6.894,0,0,1-.032-.944v-2.672a5.58,5.58,0,0,1,.032-.816,10.112,10.112,0,0,1-1.072.048H98.464a8.347,8.347,0,0,1-1.088-.048c.016.272.048.64.048.992Zm.912-2.576h2.16v2.672h-2.16Zm3.472,4.208a27.5,27.5,0,0,1-5.632,1.3l.256,1.088c.208-.064.64-.176.992-.272,1.984-.48,2.976-.752,4.4-1.216Zm4.48-8.32a10.627,10.627,0,0,0-1.888-1.488l-.624.544a7.576,7.576,0,0,1,1.856,1.6Zm15.453,1.2h-1.584v1.584h1.584Zm0,8.64v-1.584h-1.584v1.584ZM134.863,158a6.525,6.525,0,0,1,.6-2.516,4.838,4.838,0,0,1,2.027-1.945l1.5-.867a7.062,7.062,0,0,0,1.414-1,2.183,2.183,0,0,0,.055-3.035,2.136,2.136,0,0,0-1.562-.574,2.042,2.042,0,0,0-2,1.094,3.916,3.916,0,0,0-.328,1.625h-1.43a5.022,5.022,0,0,1,.539-2.383,3.383,3.383,0,0,1,3.227-1.625,3.319,3.319,0,0,1,3.7,3.352,3.144,3.144,0,0,1-.945,2.3,9.255,9.255,0,0,1-1.961,1.344l-1.07.594a6.933,6.933,0,0,0-1.2.8,2.931,2.931,0,0,0-.984,1.508h6.109V158Zm9.378,0a6.525,6.525,0,0,1,.6-2.516,4.838,4.838,0,0,1,2.027-1.945l1.5-.867a7.062,7.062,0,0,0,1.414-1,2.183,2.183,0,0,0,.055-3.035,2.136,2.136,0,0,0-1.562-.574,2.042,2.042,0,0,0-2,1.094,3.916,3.916,0,0,0-.328,1.625h-1.43a5.022,5.022,0,0,1,.539-2.383,3.383,3.383,0,0,1,3.227-1.625,3.319,3.319,0,0,1,3.7,3.352,3.144,3.144,0,0,1-.945,2.3,9.255,9.255,0,0,1-1.961,1.344l-1.07.594a6.933,6.933,0,0,0-1.2.8,2.931,2.931,0,0,0-.984,1.508h6.109V158Zm13.207-11.187a3.306,3.306,0,0,1,3.141,1.789,8,8,0,0,1,.75,3.789,9.124,9.124,0,0,1-.68,3.773,3.328,3.328,0,0,1-3.219,2.141,3.223,3.223,0,0,1-3-1.75,8.013,8.013,0,0,1-.82-3.922,9.69,9.69,0,0,1,.492-3.273A3.368,3.368,0,0,1,157.447,146.813Zm-.016,10.211a2,2,0,0,0,1.742-.969,7.014,7.014,0,0,0,.648-3.609,8.918,8.918,0,0,0-.469-3.137,1.784,1.784,0,0,0-1.82-1.23,1.9,1.9,0,0,0-1.816,1.168,8.065,8.065,0,0,0-.574,3.441,8.451,8.451,0,0,0,.367,2.75A2,2,0,0,0,157.432,157.023Zm9.394-10.211a3.306,3.306,0,0,1,3.141,1.789,8,8,0,0,1,.75,3.789,9.124,9.124,0,0,1-.68,3.773,3.328,3.328,0,0,1-3.219,2.141,3.223,3.223,0,0,1-3-1.75,8.013,8.013,0,0,1-.82-3.922,9.69,9.69,0,0,1,.492-3.273A3.368,3.368,0,0,1,166.826,146.813Zm-.016,10.211a2,2,0,0,0,1.742-.969,7.014,7.014,0,0,0,.648-3.609,8.918,8.918,0,0,0-.469-3.137,1.784,1.784,0,0,0-1.82-1.23,1.9,1.9,0,0,0-1.816,1.168,8.065,8.065,0,0,0-.574,3.441,8.451,8.451,0,0,0,.367,2.75A2,2,0,0,0,166.81,157.023Zm7.866-4.575h10.432v4.976c0,.3-.144.368-.848.368a23.278,23.278,0,0,1-2.528-.192,3.959,3.959,0,0,1,.256,1.04c.768.064,1.648.1,2.288.1,1.552,0,1.9-.224,1.9-1.184v-10.5a12.4,12.4,0,0,1,.064-1.472,11.564,11.564,0,0,1-1.472.064h-9.76a12.224,12.224,0,0,1-1.472-.064,12.035,12.035,0,0,1,.064,1.424V157.3a11.371,11.371,0,0,1-.1,1.744h1.248a9.426,9.426,0,0,1-.08-1.7Zm4.56-.96h-4.56v-4.864h4.56Zm1.04,0v-4.864h4.832v4.864Zm13.632-4.256a22.388,22.388,0,0,1-3.424-.176l-.016,1.1a2.836,2.836,0,0,1,.352-.016h.256c.592.016,2.1.048,2.352.048a1.773,1.773,0,0,0,.3-.032l-.144.24A15.921,15.921,0,0,1,190,152.976l.9.9a5.294,5.294,0,0,1,1.232-1.328,6.01,6.01,0,0,1,3.568-1.7c.752,0,1.136.384,1.264,1.264a12.421,12.421,0,0,0-2.384,1.28,3.308,3.308,0,0,0-1.632,2.528c0,1.648,1.392,2.464,4.256,2.464a24.821,24.821,0,0,0,3.888-.32,6.3,6.3,0,0,1,.64-.08l-.144-1.232a13.406,13.406,0,0,1-4.272.624c-2.256,0-3.248-.464-3.248-1.52,0-.96.832-1.712,3.008-2.736a4.2,4.2,0,0,1,.016.48,23.008,23.008,0,0,1-.1,2.3l1.088-.016a3.478,3.478,0,0,1-.032-.576c0-.144,0-.368.016-.72.016-.32.016-.672.016-.88,0-.4,0-.56-.032-.976a26.565,26.565,0,0,1,4.272-1.408l-.512-1.12a3.521,3.521,0,0,1-1.088.464c-.7.256-1.616.592-2.784,1.056a1.942,1.942,0,0,0-2.112-1.776,4.258,4.258,0,0,0-2.416.784c-.16.112-.16.112-.736.56a.123.123,0,0,1-.032-.048v-.016a.016.016,0,0,0,.016-.016,2.624,2.624,0,0,1,.208-.16c.064-.048.384-.416.544-.608a11.8,11.8,0,0,0,1.44-2.272,51.661,51.661,0,0,0,5.28-.416,4.991,4.991,0,0,1,.64-.08l-.1-1.088a22.518,22.518,0,0,1-5.04.608,2.722,2.722,0,0,0-.336.016c.08-.144.288-.576.5-1.088a3.4,3.4,0,0,1,.416-.864l-1.28-.224a6.79,6.79,0,0,1-.768,2.192Zm15.1,9.248a6.115,6.115,0,0,1-1.44-1.888c.1-.8.128-1.136.176-2.032a4.065,4.065,0,0,1,.032-.5l-1.04-.1a4.712,4.712,0,0,1,.048.7,12.812,12.812,0,0,1-.4,3.248,8.131,8.131,0,0,1-1.056,2.608,2.95,2.95,0,0,1,.848.576,12.394,12.394,0,0,0,1.216-3.392,5.623,5.623,0,0,0,2.192,2.256c1.248.688,2.64.88,6.528.88,1.392,0,2.208-.016,3.856-.08a2.962,2.962,0,0,1,.352-1.1,41.5,41.5,0,0,1-4.928.224c-3.248,0-4.368-.144-5.44-.736v-3.136h1.024a7.342,7.342,0,0,1,1.312.1v-1.024a7.689,7.689,0,0,1-1.3.08h-1.04V150.88h.944a7.483,7.483,0,0,1,1.5.1V149.9a8.321,8.321,0,0,1-1.488.1h-1.024v-2.144h.864a9,9,0,0,1,1.424.08v-1.024a7.427,7.427,0,0,1-1.424.08h-.864v-.656a7.56,7.56,0,0,1,.112-1.568h-1.168a7.723,7.723,0,0,1,.1,1.568v.656h-1.28a7.335,7.335,0,0,1-1.408-.08v1.024a9.035,9.035,0,0,1,1.408-.08h1.28V150h-1.488a9.127,9.127,0,0,1-1.568-.1v1.072a9.168,9.168,0,0,1,1.552-.1h1.584Zm5.92-10c-.144,2.24-.672,3.1-2.528,4.1a2.383,2.383,0,0,1,.656.8,5.074,5.074,0,0,0,2.416-2.624,7.45,7.45,0,0,0,.432-2.272h2.5a12.867,12.867,0,0,1-.3,3.168c-.128.192-.3.256-.816.256a10.81,10.81,0,0,1-1.344-.112,2.65,2.65,0,0,1,.224,1.008c.448.016.656.032.928.032,1.024,0,1.392-.1,1.7-.464.352-.4.448-.976.56-3.2.08-1.376.08-1.376.112-1.648a10.953,10.953,0,0,1-1.52.08h-3.664a9.83,9.83,0,0,1-1.6-.1v1.072a6.782,6.782,0,0,1,1.456-.1Zm-1.856,8.656a11.184,11.184,0,0,1-.064,1.5,12.079,12.079,0,0,1,1.7-.08h2.928a12.907,12.907,0,0,1,1.712.08,11.361,11.361,0,0,1-.064-1.584v-1.744a11.108,11.108,0,0,1,.064-1.552,12.3,12.3,0,0,1-1.728.08h-3.008a10.486,10.486,0,0,1-1.6-.08,9.556,9.556,0,0,1,.064,1.424Zm.96-2.432h4.272V155.7h-4.272Zm20.672-6.224a8.5,8.5,0,0,1,.064-1.312,10.515,10.515,0,0,1-1.456.064H229.3a12.636,12.636,0,0,1-1.408-.064,9.481,9.481,0,0,1,.064,1.312v3.392h-.16a7.709,7.709,0,0,1-1.232-.064,9.009,9.009,0,0,1,.064,1.264v4.24a9.2,9.2,0,0,1-.08,1.456h1.12a8.835,8.835,0,0,1-.08-1.456v-4.624h7.376v4.9c0,.208-.144.272-.56.272a9.65,9.65,0,0,1-1.568-.128,4.769,4.769,0,0,1,.224.944c.576.032.832.032,1.136.032,1.44,0,1.728-.16,1.728-.992v-4.64a8.865,8.865,0,0,1,.064-1.264,7.765,7.765,0,0,1-1.28.064Zm-4.048,3.392h-1.744V146.08h4.864v1.184h-1.952a11.045,11.045,0,0,1-1.216-.048,9.991,9.991,0,0,1,.048,1.136Zm.9,0v-1.84h2.224v1.84Zm1.952,2.768a6.986,6.986,0,0,1,.048-.944,8.222,8.222,0,0,1-1.136.048h-2.192a8.222,8.222,0,0,1-1.136-.048,8.443,8.443,0,0,1,.048.976v2.112a8.443,8.443,0,0,1-.048.976h.928v-.784h2.4a11.233,11.233,0,0,1,1.136.048,6.364,6.364,0,0,1-.048-.944Zm-3.488-.144h2.608v1.712H230.02Zm-7.728-6.832a15.135,15.135,0,0,1,2.432,2.976l.816-.72a19.108,19.108,0,0,0-2.5-2.88Zm-.256,6.464a6.345,6.345,0,0,1,1.184-.08h.96V155.9a9.293,9.293,0,0,1-2.5,1.92l.544,1.04c.32-.272.416-.368.56-.48a16.748,16.748,0,0,0,1.856-1.664,4.028,4.028,0,0,0,1.36,1.344c.992.576,1.936.72,4.512.72,2.064,0,4.08-.032,5.84-.1a3.577,3.577,0,0,1,.368-1.152,58.49,58.49,0,0,1-7.04.3c-1.936,0-2.9-.224-3.744-.88a2.246,2.246,0,0,1-.768-1.056v-3.136a11.8,11.8,0,0,1,.08-1.7,7.241,7.241,0,0,1-1.232.08h-.736a6.365,6.365,0,0,1-1.248-.08Zm24.608-4.784c-1.088.032-2.336.064-3.872.128-2.576.1-2.576.1-3.04.1-.24,0-.352,0-.64-.016l.048,1.168c1.072-.176,4.3-.336,7.52-.4v.832c0,.192.016.352.016.416,0,.592,0,.656.016.88a2.457,2.457,0,0,0-1.856-.72,2.662,2.662,0,0,0-2.832,2.64,2.675,2.675,0,0,0,4.64,1.664,2.241,2.241,0,0,0,.432-.784,4.144,4.144,0,0,1-1.792,3.376,8.2,8.2,0,0,1-2.592,1.2,3.513,3.513,0,0,1,.7,1.008,10.177,10.177,0,0,0,2.528-1.3,5.15,5.15,0,0,0,2.144-4.176,4.584,4.584,0,0,0-.384-1.888V148.3c1.3-.032,1.472-.032,1.712-.032a28.434,28.434,0,0,1,3.056.08v-1.136c-.528.064-1.76.1-4.784.112v-.176a13.246,13.246,0,0,1,.08-2h-1.2a5.391,5.391,0,0,1,.064.928Zm-.048,4.672a1.793,1.793,0,0,1-1.872,1.888,1.546,1.546,0,0,1-1.648-1.584,1.693,1.693,0,0,1,1.776-1.68,2.047,2.047,0,0,1,1.072.256A1.158,1.158,0,0,1,246.6,152.016Zm11.536-4.736a7.884,7.884,0,0,1,.864-.08c2.432-.08,4.352-.192,4.864-.288A.619.619,0,0,1,264,146.9l.032.032-.064.064-.064.064-.224.224c-1.1,1.088-3.632,3.312-5.344,4.672a17.824,17.824,0,0,1-2.24,1.632l.72,1.024a10.268,10.268,0,0,1,6.736-2.736c2.16,0,3.44.912,3.44,2.448,0,1.36-.88,2.336-2.56,2.8a4.58,4.58,0,0,0-.736-1.536,3.223,3.223,0,0,0-2.64-1.312,2.078,2.078,0,0,0-2.32,1.872c0,1.472,1.3,2.3,3.552,2.3,3.552,0,5.872-1.648,5.872-4.144,0-2.048-1.712-3.36-4.384-3.36a8.107,8.107,0,0,0-3.92.992l-.032-.048a41.056,41.056,0,0,0,5.264-4.544,2.953,2.953,0,0,1,.816-.672l-.672-.88a1.636,1.636,0,0,1-.768.176c-1.44.112-3.568.208-4.9.208a7.389,7.389,0,0,1-1.5-.1Zm5.248,10.128a5.761,5.761,0,0,1-1.168.112,4.088,4.088,0,0,1-1.792-.368,1.092,1.092,0,0,1-.64-.976c0-.608.5-.992,1.3-.992C262.228,155.184,263.028,155.952,263.38,157.408Zm16.512-3.5a9.074,9.074,0,0,1-4.048,3.248,2.324,2.324,0,0,1,.688.752,11.028,11.028,0,0,0,4.4-4h1.584A7.8,7.8,0,0,1,281.2,156a10.156,10.156,0,0,1-3.136,2.432,2.732,2.732,0,0,1,.736.752,12.991,12.991,0,0,0,1.3-.9,16.331,16.331,0,0,0,1.968-1.968,9.264,9.264,0,0,0,1.424-2.416h1.072a19.459,19.459,0,0,1-.352,3.072c-.208.96-.32,1.088-.96,1.088a11.051,11.051,0,0,1-1.9-.176,2.711,2.711,0,0,1,.32,1.04c.5.032,1.024.064,1.392.064,1.088,0,1.488-.16,1.776-.736a15.965,15.965,0,0,0,.7-4.272,7.256,7.256,0,0,1,.08-.944,12.486,12.486,0,0,1-1.568.064h-5.3a7.831,7.831,0,0,0,.736-1.168h4.9a13.635,13.635,0,0,1,1.584.064v-1.008a9.089,9.089,0,0,1-1.584.1h-6.832a7.878,7.878,0,0,1-1.472-.1v1.04a7.833,7.833,0,0,1,1.44-.1h.976a7.681,7.681,0,0,1-3.712,3.376,2.844,2.844,0,0,1,.656.72,10.259,10.259,0,0,0,2.688-2.128Zm-6.256-5.088h-.656a8.942,8.942,0,0,1-1.392-.08v1.056a11.534,11.534,0,0,1,1.36-.08h.688v4.576a7.972,7.972,0,0,1-2.064.784l.3,1.12c.144-.08.592-.3.848-.416a29.486,29.486,0,0,0,3.328-1.808l-.064-.96a13.833,13.833,0,0,1-1.36.816v-4.112h.384a12.5,12.5,0,0,1,1.328.064v-1.024a9.442,9.442,0,0,1-1.328.064h-.384v-2.208a10.913,10.913,0,0,1,.1-1.776H273.54a12.677,12.677,0,0,1,.1,1.76Zm9.456,1.216c.624,0,1.12.016,1.472.048a9.417,9.417,0,0,1-.064-1.424v-2a11.687,11.687,0,0,1,.064-1.488,11.718,11.718,0,0,1-1.664.08h-4.176a10.33,10.33,0,0,1-1.536-.08,10.767,10.767,0,0,1,.064,1.408v2.08a12.327,12.327,0,0,1-.064,1.44,11.285,11.285,0,0,1,1.456-.064Zm-4.9-3.952h5.36v1.168H278.2Zm0,1.952h5.36v1.216H278.2Zm16.384-3.3a11.639,11.639,0,0,1-2.464,2.784,16.688,16.688,0,0,1-4.352,2.784,2.782,2.782,0,0,1,.672.912,18.5,18.5,0,0,0,3.392-2.08,14.908,14.908,0,0,0,3.36-3.5,13.441,13.441,0,0,0,2.464,2.688,22.367,22.367,0,0,0,4.512,2.944,4.141,4.141,0,0,1,.64-1.008,16.779,16.779,0,0,1-4.384-2.624,10.991,10.991,0,0,1-2.64-2.9Zm-3.12,5.952a9.2,9.2,0,0,1,1.248-.064h4.976a9.848,9.848,0,0,1,1.344.064V149.6a9.556,9.556,0,0,1-1.344.064h-4.96a8.179,8.179,0,0,1-1.264-.064Zm-.112,8.352v-.928h7.728v.928h1.152a11.121,11.121,0,0,1-.1-1.568v-3.536a9.667,9.667,0,0,1,.08-1.472,8.481,8.481,0,0,1-1.248.064h-7.5a8.481,8.481,0,0,1-1.248-.064,10.063,10.063,0,0,1,.08,1.472v3.536a11.614,11.614,0,0,1-.1,1.568Zm0-5.536h7.728v3.664h-7.728Zm18.24-3.76h.064a.735.735,0,0,1,.16.016,2.382,2.382,0,0,1,.272.016,4.2,4.2,0,0,1,.512.032c.56.032,1.152.048,1.808.048.608,0,1.1-.016,1.824-.048.048,2.336.112,3.84.16,4.176a4.52,4.52,0,0,0-1.776-.32c-1.776,0-3.04.944-3.04,2.272,0,1.392,1.168,2.272,3.024,2.272a2.343,2.343,0,0,0,2.864-2.432,2.3,2.3,0,0,0-.032-.416,1.125,1.125,0,0,1,.144.1,1.026,1.026,0,0,0,.16.1A8.645,8.645,0,0,1,318,157.216l.5-1.12c-.176-.112-.208-.144-.4-.272a11.581,11.581,0,0,0-2.672-1.568c-.128-2.128-.16-2.944-.176-4.528a15.3,15.3,0,0,0,1.7-.256c1.088-.224,1.088-.224,1.12-.224l-.048-1.088a10.9,10.9,0,0,1-2.768.592c-.016-.352-.016-.608-.016-.784a16.372,16.372,0,0,1,.112-2.512h-1.2a3.551,3.551,0,0,1,.048.656c0,1.216,0,1.216.016,2.72-.656.032-1.088.048-1.712.048a11.076,11.076,0,0,1-2.88-.256Zm4.816,5.216s.016.368.016.48a1.869,1.869,0,0,1-.3,1.248,2.205,2.205,0,0,1-1.632.56c-1.12,0-1.856-.512-1.856-1.3,0-.8.816-1.328,2.064-1.328A4.132,4.132,0,0,1,314.4,154.96Zm-7.648-9.52a7.376,7.376,0,0,1-.176,1.008,27.109,27.109,0,0,0-.832,6.576,25.468,25.468,0,0,0,.448,4.752c.064.368.08.448.1.592l1.136-.112a1.742,1.742,0,0,1-.032-.32,13.816,13.816,0,0,1,1.376-4.544l-.784-.368a2.208,2.208,0,0,1-.128.32,14.2,14.2,0,0,0-.944,2.816l-.064-.016v-.3c-.016-.288-.016-.32-.016-.448-.032-.736-.064-1.68-.064-2.24a22.8,22.8,0,0,1,1.232-7.5Zm26.912,8.976a10.486,10.486,0,0,1,1.5.1V153.44a9.093,9.093,0,0,1-1.488.1h-5.472a11.963,11.963,0,0,0,.24-1.536h3.232a7.685,7.685,0,0,1,1.376.08v-1.008a7.686,7.686,0,0,1-1.376.08h-3.168c.032-.528.048-.912.064-1.424h3.36a8.44,8.44,0,0,1,1.536.1v-1.04a9.344,9.344,0,0,1-1.536.1H328.6a5.758,5.758,0,0,1,.08-1.3h-1.184a5.833,5.833,0,0,1,.1,1.3h-3.1a9.479,9.479,0,0,1-1.536-.1v1.04a9.9,9.9,0,0,1,1.536-.1h3.088c-.016.624-.016.8-.048,1.424h-2.976a7.887,7.887,0,0,1-1.392-.08v1.008a7.776,7.776,0,0,1,1.392-.08h2.9a9.392,9.392,0,0,1-.224,1.536h-4.384a8.877,8.877,0,0,1-1.472-.1v1.072a10.572,10.572,0,0,1,1.488-.1h4.064a5.318,5.318,0,0,1-2.352,2.48,9.709,9.709,0,0,1-3.424,1.152,3.746,3.746,0,0,1,.592,1.008,11.033,11.033,0,0,0,3.632-1.472,6.172,6.172,0,0,0,2.512-2.992c1.536,2.32,3.5,3.6,6.9,4.5a4.137,4.137,0,0,1,.608-1.04,12.183,12.183,0,0,1-4.432-1.632,7.482,7.482,0,0,1-2.08-2Zm-6.112-8.16h-4.4a15.779,15.779,0,0,1-1.616-.064,7.373,7.373,0,0,1,.064,1.088v.928a7.325,7.325,0,0,1-.064,1.1H322.6v-2.176H333.86v2.176h1.04a7.19,7.19,0,0,1-.064-1.1v-.944a7.285,7.285,0,0,1,.064-1.072,15.648,15.648,0,0,1-1.6.064h-4.7v-.608a5.087,5.087,0,0,1,.1-.992h-1.248a4.193,4.193,0,0,1,.112.992Zm19.424,2.752v-.96h2.288c.608,0,1.056.016,1.52.048a4.091,4.091,0,0,1-.048-.9v-.544a6.2,6.2,0,0,1,.064-1.04,8.878,8.878,0,0,1-1.52.08h-2.3v-.16a4.329,4.329,0,0,1,.08-.944H346a4.268,4.268,0,0,1,.08.928v.176H343.54c.032-.576.048-.944.064-1.088h-1.04a5.691,5.691,0,0,1,.08,1.088h-2.816a9.638,9.638,0,0,1-1.584-.08v.928a11.314,11.314,0,0,1,1.584-.08h2.784a7.879,7.879,0,0,1-.08.864h-2.064c-.736,0-1.1-.016-1.456-.048a9,9,0,0,1-.9,2.512c.416-.032.816-.048,1.424-.048h2.048c-.832.912-1.92,1.392-4.192,1.872a2.333,2.333,0,0,1,.512.816,11.685,11.685,0,0,0,1.776-.608v3.552a13.047,13.047,0,0,1-.064,1.616,17.187,17.187,0,0,1,1.776-.064h6.8a17.337,17.337,0,0,1,1.792.064,13.483,13.483,0,0,1-.064-1.648v-2.576c0-.576.016-1.072.032-1.472.176.016.3.016.416.016a1.01,1.01,0,0,0,.816-.288,2.727,2.727,0,0,0,.368-1.3c.064-.4.064-.416.144-.768a11.559,11.559,0,0,1-1.536.048Zm1.328,2.064h-7.12a3.992,3.992,0,0,0,1.456-1.328h3.44v.16a3.529,3.529,0,0,1-.08.864h1.056a3.587,3.587,0,0,1-.08-.88v-.144h3.648c-.112.832-.144.864-.512.864a3.4,3.4,0,0,1-.992-.208,3.768,3.768,0,0,1,.16.672Zm-5.9-3.024a4.51,4.51,0,0,1-.32.96h-2.64c.112-.272.176-.432.352-.96Zm3.68,0v.96h-3.056a3.918,3.918,0,0,0,.288-.96Zm0-1.584v.864h-2.656c.032-.32.032-.336.08-.864Zm.9,0H349.8v.864H346.98Zm-6.336,5.376h8.3v.944h-8.3Zm0,1.68h8.3v.944h-8.3Zm0,1.68h8.3v.96h-8.3Zm1.664,1.872A12.006,12.006,0,0,1,337.7,158.5a2.978,2.978,0,0,1,.576.9,14.035,14.035,0,0,0,4.768-1.728Zm4.16.592a11.168,11.168,0,0,0,2.528,1.12,14.242,14.242,0,0,0,2.368.592,4.315,4.315,0,0,1,.608-.912,12.949,12.949,0,0,1-2.4-.432,9.049,9.049,0,0,1-2.352-.944Zm12.96-6.256a7.747,7.747,0,0,1-.864,3.3,8.152,8.152,0,0,1-4.032,3.5,3.343,3.343,0,0,1,.7.9,9.389,9.389,0,0,0,4.032-3.488,9.112,9.112,0,0,0,1.248-4.208h3.728a22.775,22.775,0,0,1-.528,5.92c-.112.3-.288.4-.8.4a12.325,12.325,0,0,1-2.256-.272,4.435,4.435,0,0,1,.256,1.136c1.008.1,1.568.128,2.1.128.928,0,1.312-.16,1.584-.64.416-.752.72-3.456.72-6.56a7.068,7.068,0,0,1,.064-1.136,12.107,12.107,0,0,1-1.68.08h-5.264a12.279,12.279,0,0,1-1.664-.1V151.5a12.885,12.885,0,0,1,1.648-.1Zm-.656-6.64a5.146,5.146,0,0,1-.688,1.68,13.184,13.184,0,0,1-4.384,4.688,3.522,3.522,0,0,1,.784.864,15.882,15.882,0,0,0,5.04-6,4.364,4.364,0,0,1,.448-.816Zm3.552.448c.08.128.176.3.256.448a16.209,16.209,0,0,0,5.392,6.432,3.947,3.947,0,0,1,.752-.976,13.344,13.344,0,0,1-4.72-4.976,6.479,6.479,0,0,1-.608-1.344Zm10.5,1.488v10.528c0,.288-.144.384-.56.384a9.829,9.829,0,0,1-1.7-.16,4.014,4.014,0,0,1,.224,1.056c.64.048,1.1.064,1.52.064,1.152,0,1.52-.32,1.52-1.312V146.7h.56a9.736,9.736,0,0,1,1.328.064v-1.056a9.734,9.734,0,0,1-1.344.08h-2.48a9.345,9.345,0,0,1-1.424-.1v1.072a12.386,12.386,0,0,1,1.424-.064Zm6.8-.336a11.453,11.453,0,0,1-.672,1.632H377.7a7.815,7.815,0,0,1-1.344-.064,10.425,10.425,0,0,1,.064,1.424v5.216a14.173,14.173,0,0,1-.064,1.584,9.9,9.9,0,0,1,1.392-.064h4.72a11.767,11.767,0,0,1,1.456.064,13.635,13.635,0,0,1-.064-1.584v-5.152a11.214,11.214,0,0,1,.064-1.488,9.632,9.632,0,0,1-1.472.064h-2.48a9.168,9.168,0,0,0,.56-1.28c.08-.224.08-.224.128-.352h2.592a10.568,10.568,0,0,1,1.488.08V145.36a7.472,7.472,0,0,1-1.52.1H377.6a10.739,10.739,0,0,1-1.584-.1v1.072a14.357,14.357,0,0,1,1.584-.064Zm-2.24,2.48h5.5v1.5h-5.5Zm0,2.352h5.5v1.568h-5.5Zm0,2.416h5.5v1.632h-5.5Zm.768,2.768a8.371,8.371,0,0,1-3.5,2.016,3.678,3.678,0,0,1,.656.832,11.5,11.5,0,0,0,3.7-2.288Zm2.656.576a13.977,13.977,0,0,0,3.552,2.224,3.339,3.339,0,0,1,.672-.848,10.55,10.55,0,0,1-3.456-1.968Zm7.488-10.3a8.65,8.65,0,0,1,.048.944c.08,3.936.3,5.984.864,7.5.544,1.536,1.376,2.432,2.272,2.432,1.136,0,1.872-1.072,2.656-3.872a5.115,5.115,0,0,1-.944-.912,11.51,11.51,0,0,1-.832,2.736c-.24.528-.512.8-.8.8-.608,0-1.264-1.1-1.616-2.736a27.4,27.4,0,0,1-.416-4.976,11.6,11.6,0,0,1,.112-1.9Zm8.1,1.36a14.131,14.131,0,0,1,3.328,7.888l1.136-.464a15.32,15.32,0,0,0-1.2-4.272,13.888,13.888,0,0,0-2.288-3.648Zm7.216.688a47,47,0,0,1,5.52-.528,31.009,31.009,0,0,0,3.52-.352,10.473,10.473,0,0,0-1.52.848,6.066,6.066,0,0,0-2.992,4.912,3.894,3.894,0,0,0,1.776,3.264,8.071,8.071,0,0,0,3.456,1.232c.256.048.32.064.5.1l.208-1.3h-.16a8.2,8.2,0,0,1-2.4-.512,3.137,3.137,0,0,1-2.24-2.96,4.89,4.89,0,0,1,1.968-3.7,8.125,8.125,0,0,1,3.072-1.616,7.421,7.421,0,0,1,1.792-.208l-.1-1.2a10.74,10.74,0,0,1-1.9.176c-2.064.1-7.184.384-9.088.528-.5.032-.688.048-.912.048h-.576Zm24.224-1.248a16.169,16.169,0,0,1-3.264.688v-1.536a9.151,9.151,0,0,1,.08-1.488H423.46a10.625,10.625,0,0,1,.08,1.52v1.584c-.48.032-1.1.048-1.536.048a9.062,9.062,0,0,1-1.632-.112v1.056h.656c.176.016.608.016.848.016.464,0,.736,0,1.024-.016.5-.032.5-.032.64-.048v3.024a8.559,8.559,0,0,0-2.256,1.312,2.9,2.9,0,0,0-1.264,2.128,1.93,1.93,0,0,0,.736,1.5,4.226,4.226,0,0,0,2.64,1.024c.784,0,1.168-.416,1.168-1.28v-4a10.8,10.8,0,0,1,3.392-.624c2.1,0,3.424.976,3.424,2.544a2.124,2.124,0,0,1-2.144,2.256c-1.168,0-1.648-.688-1.648-2.352a4.754,4.754,0,0,1,.032-.624,3.468,3.468,0,0,1-1.056.416,5.838,5.838,0,0,0,.192,1.808,2.36,2.36,0,0,0,2.464,1.808,3.292,3.292,0,0,0,1.616-6.144A5.417,5.417,0,0,0,428,151.3a11.335,11.335,0,0,0-3.44.576V149.1a28.081,28.081,0,0,0,2.832-.48c.224-.048.288-.064.48-.1Zm-4.288,8.832c0,.688-.048.784-.368.784a2.988,2.988,0,0,1-1.424-.464c-.464-.3-.688-.624-.688-.96,0-.768.9-1.632,2.48-2.4Zm9.616-6.768a13.445,13.445,0,0,0-3.232-3.04l-.832.624a13.1,13.1,0,0,1,3.232,3.136Zm6.016-4.48a3.209,3.209,0,0,1-.048.512,40.445,40.445,0,0,0-.544,5.9v.368l.032,1.664.016.288v.176l1.152-.048c-.016-.24-.016-.32-.016-.384a8.35,8.35,0,0,1,.864-3.568c.912-1.872,1.936-2.784,3.152-2.784,1.536,0,2.432,1.488,2.432,4.064,0,2.56-.88,4.24-2.752,5.312a8.454,8.454,0,0,1-3.248,1.008,3.3,3.3,0,0,1,.64,1.088,12.111,12.111,0,0,0,2.848-.944,7.542,7.542,0,0,0,2.736-10.176,3.012,3.012,0,0,0-2.56-1.424,3.816,3.816,0,0,0-3.2,2.064,7.139,7.139,0,0,0-.976,2.384c-.08.336-.08.336-.112.464l-.064-.016c.048-.816.272-2.56.528-4.176a9.072,9.072,0,0,1,.368-1.648ZM465.4,156.72a5.471,5.471,0,0,1-.544-.368,14,14,0,0,0-4.464-2.336c-.064-1.552-.064-1.552-.1-2.448,1.184-.08,2.448-.208,3.552-.384.56-.08.72-.1.928-.112l-.064-1.1a19.311,19.311,0,0,1-4.432.656c-.016-.848-.016-.848-.032-2.16a33.238,33.238,0,0,0,3.712-.384c.832-.112.832-.112,1.1-.128l-.08-1.088a22.553,22.553,0,0,1-4.736.656,17.862,17.862,0,0,1,.112-2.256h-1.232a12.531,12.531,0,0,1,.08,2.3c-.528,0-1.072.016-1.392.016a19.878,19.878,0,0,1-4.1-.32l-.016,1.088a1.307,1.307,0,0,1,.224-.016,1.941,1.941,0,0,1,.288.016c1.44.112,2.736.16,3.9.16.368,0,.624,0,1.088-.016l.032,2.192c-.448.016-1.008.016-1.424.016a19.636,19.636,0,0,1-3.664-.256l-.016,1.056h.128c.1,0,.224,0,.4.016.992.08,1.744.112,2.7.112.512,0,1.312-.016,1.888-.032.016.416.016.72.032.928.016.464.016.8.032.944a1.275,1.275,0,0,0,.016.176c0,.144,0,.144.016.192a7.116,7.116,0,0,0-1.44-.128,6.97,6.97,0,0,0-1.664.16c-1.408.32-2.24,1.152-2.24,2.208a2.092,2.092,0,0,0,.864,1.68,4.168,4.168,0,0,0,2.48.64,3.221,3.221,0,0,0,2.7-1.008,2.778,2.778,0,0,0,.4-1.744,4.6,4.6,0,0,0-.032-.576c.432.176.8.336,1.072.48a12.875,12.875,0,0,1,3.264,2.288Zm-6.032-1.3a2.1,2.1,0,0,1-.32,1.44,2.312,2.312,0,0,1-1.76.528c-1.392,0-2.192-.48-2.192-1.328s1.04-1.424,2.624-1.424a5.874,5.874,0,0,1,1.632.176Zm17.36-8.08c-1.088.032-2.336.064-3.872.128-2.576.1-2.576.1-3.04.1-.24,0-.352,0-.64-.016l.048,1.168c1.072-.176,4.3-.336,7.52-.4v.832c0,.192.016.352.016.416,0,.592,0,.656.016.88a2.456,2.456,0,0,0-1.856-.72,2.662,2.662,0,0,0-2.832,2.64,2.675,2.675,0,0,0,4.64,1.664,2.241,2.241,0,0,0,.432-.784,4.144,4.144,0,0,1-1.792,3.376,8.2,8.2,0,0,1-2.592,1.2,3.513,3.513,0,0,1,.7,1.008,10.176,10.176,0,0,0,2.528-1.3,5.15,5.15,0,0,0,2.144-4.176,4.584,4.584,0,0,0-.384-1.888V148.3c1.3-.032,1.472-.032,1.712-.032a28.434,28.434,0,0,1,3.056.08v-1.136c-.528.064-1.76.1-4.784.112v-.176a13.247,13.247,0,0,1,.08-2h-1.2a5.394,5.394,0,0,1,.064.928Zm-.048,4.672A1.793,1.793,0,0,1,474.8,153.9a1.546,1.546,0,0,1-1.648-1.584,1.693,1.693,0,0,1,1.776-1.68A2.047,2.047,0,0,1,476,150.9,1.158,1.158,0,0,1,476.676,152.016Zm9.36,2.224a2.4,2.4,0,1,0,2.4,2.4A2.4,2.4,0,0,0,486.036,154.24Zm0,.912a1.488,1.488,0,1,1-1.488,1.488A1.5,1.5,0,0,1,486.036,155.152Z" transform="translate(41 103.74)"/>
  <g id="グループ_842" data-name="グループ 842">
    <g id="グループ_583" data-name="グループ 583" transform="translate(2.32 197.622)">
      <g id="グループ_578" data-name="グループ 578" transform="translate(823.965)">
        <g id="グループ_577" data-name="グループ 577">
          <path id="パス_2909" data-name="パス 2909" d="M2974.539,1887.688v117.332H2836.594v-1.76h126.782c5.022,0,9.094-3.464,9.094-7.736V1887.688Z" transform="translate(-2820.824 -1866.74)" fill="#575656"/>
          <g id="グループ_575" data-name="グループ 575" transform="translate(151.646)">
            <rect id="長方形_133" data-name="長方形 133" width="2.069" height="14.994" fill="#575656"/>
          </g>
          <g id="グループ_576" data-name="グループ 576" transform="translate(0 136.519)">
            <rect id="長方形_134" data-name="長方形 134" width="10.223" height="1.76" fill="#575656"/>
          </g>
        </g>
      </g>
      <g id="グループ_582" data-name="グループ 582" transform="translate(0)">
        <g id="グループ_581" data-name="グループ 581">
          <path id="パス_2910" data-name="パス 2910" d="M611.051,1887.688v117.332H749v-1.76H622.215c-5.023,0-9.095-3.464-9.095-7.736V1887.688Z" transform="translate(-611.051 -1866.74)" fill="#575656"/>
          <g id="グループ_579" data-name="グループ 579" transform="translate(0)">
            <rect id="長方形_135" data-name="長方形 135" width="2.069" height="14.994" fill="#575656"/>
          </g>
          <g id="グループ_580" data-name="グループ 580" transform="translate(143.492 136.519)">
            <rect id="長方形_136" data-name="長方形 136" width="10.223" height="1.76" fill="#575656"/>
          </g>
        </g>
      </g>
    </g>
    <g id="グループ_592" data-name="グループ 592" transform="translate(2.32)">
      <g id="グループ_587" data-name="グループ 587" transform="translate(823.965)">
        <g id="グループ_586" data-name="グループ 586">
          <path id="パス_2911" data-name="パス 2911" d="M2974.539,647.362V530.03H2836.594v1.76h126.782c5.022,0,9.094,3.464,9.094,7.736V647.362Z" transform="translate(-2820.824 -530.03)" fill="#575656"/>
          <g id="グループ_584" data-name="グループ 584" transform="translate(151.646 123.286)">
            <rect id="長方形_137" data-name="長方形 137" width="2.069" height="14.994" fill="#575656"/>
          </g>
          <g id="グループ_585" data-name="グループ 585" transform="translate(0 0)">
            <rect id="長方形_138" data-name="長方形 138" width="10.223" height="1.76" fill="#575656"/>
          </g>
        </g>
      </g>
      <g id="グループ_591" data-name="グループ 591" transform="translate(0)">
        <g id="グループ_590" data-name="グループ 590">
          <path id="パス_2912" data-name="パス 2912" d="M611.051,647.362V530.03H749v1.76H622.215c-5.023,0-9.095,3.464-9.095,7.736V647.362Z" transform="translate(-611.051 -530.03)" fill="#575656"/>
          <g id="グループ_588" data-name="グループ 588" transform="translate(0 123.286)">
            <rect id="長方形_139" data-name="長方形 139" width="2.069" height="14.994" fill="#575656"/>
          </g>
          <g id="グループ_589" data-name="グループ 589" transform="translate(143.492 0)">
            <rect id="長方形_140" data-name="長方形 140" width="10.223" height="1.76" fill="#575656"/>
          </g>
        </g>
      </g>
    </g>
    <g id="グループ_609" data-name="グループ 609" transform="translate(977.911 52.08)">
      <rect id="長方形_141" data-name="長方形 141" width="2.089" height="176.561" transform="translate(0)" fill="#575656"/>
    </g>
    <g id="グループ_612" data-name="グループ 612" transform="translate(149.606 334.142)">
      <rect id="長方形_144" data-name="長方形 144" width="680.869" height="1.76" transform="translate(0)" fill="#575656"/>
    </g>
    <rect id="長方形_7" data-name="長方形 7" width="979.68" height="339" fill="none"/>
    <rect id="長方形_143" data-name="長方形 143" width="780.685" height="1.76" transform="translate(149.27 0)" fill="#575656"/>
  </g>
  <g id="グループ_818" data-name="グループ 818" transform="translate(41 40)">
    <path id="パス_3899" data-name="パス 3899" d="M11.04-11.592H5.184V-16.1a12.321,12.321,0,0,1,.1-1.776H3.48a17.012,17.012,0,0,1,.12,1.848v4.752c0,.408-.024.768-.048,1.224.5-.024,1.056-.048,1.488-.048h6V-1.32H4.2V-5.76A12.062,12.062,0,0,1,4.32-7.8H2.5a13.326,13.326,0,0,1,.12,2.136v5.28a12.616,12.616,0,0,1-.144,2.016H4.2V.192H19.8v1.44h1.728a12,12,0,0,1-.144-2.016V-5.808a13.326,13.326,0,0,1,.12-2.136H19.68A12.727,12.727,0,0,1,19.8-5.88v4.56H12.648V-10.1H19.1c.456,0,1.008.024,1.488.048-.024-.408-.048-.744-.048-1.224v-4.776a11.838,11.838,0,0,1,.12-1.824h-1.8a13.063,13.063,0,0,1,.1,1.752v4.536H12.648v-6.072a10.889,10.889,0,0,1,.168-2.184H10.872a9.706,9.706,0,0,1,.168,2.184ZM45.1-7.464a13.392,13.392,0,0,1,2.352.144V-8.928a14.478,14.478,0,0,1-2.352.144h-8.3V-10.9h6.6a16.082,16.082,0,0,1,2.28.144V-12.36a11.781,11.781,0,0,1-2.28.144h-6.6V-14.28h6.6a14.936,14.936,0,0,1,2.28.144v-1.608a14.3,14.3,0,0,1-2.28.144h-6.6v-2.016H43.92a16.084,16.084,0,0,1,2.424.12V-19.08a15.636,15.636,0,0,1-2.448.144H37.872a21.136,21.136,0,0,1-2.592-.12,17.447,17.447,0,0,1,.1,2.088v8.184a16.238,16.238,0,0,1-1.872-.1v1.512a13.2,13.2,0,0,1,1.776-.1V-.456a17,17,0,0,1-2.472.36l.36,1.56c.48-.144.624-.168,1.152-.288,2.664-.6,4.56-1.128,6.792-1.848l-.048-1.392a38.384,38.384,0,0,1-4.32,1.272V-7.464h2.04A14.532,14.532,0,0,0,41.64-2.3a18.07,18.07,0,0,0,5.328,4.056A6.841,6.841,0,0,1,47.856.288a14.221,14.221,0,0,1-4.944-3.264,34.311,34.311,0,0,0,3.312-2.976l-1.176-.936a15.015,15.015,0,0,1-2.976,2.952A10.142,10.142,0,0,1,40.2-7.464Zm-16.9-.72a32.588,32.588,0,0,0,.5-3.936h2.76c.648,0,1.224.024,1.7.072-.048-.624-.072-1.176-.072-1.9v-3.168c0-.648.024-1.152.072-1.68q-.756.072-1.584.072H28.776a14.26,14.26,0,0,1-2.232-.144v1.584a18.085,18.085,0,0,1,2.208-.1h2.9v3.912H29.568a16.283,16.283,0,0,1-2.28-.1A34.581,34.581,0,0,1,26.5-6.792c.576-.048.888-.048,1.632-.048H31.44A21.958,21.958,0,0,1,30.7-.816c-.168.576-.48.744-1.272.744a22.788,22.788,0,0,1-2.688-.24,6.175,6.175,0,0,1,.312,1.584c1.008.072,1.824.12,2.544.12,1.392,0,2.04-.408,2.4-1.44.552-1.584.792-3.48.936-7.224.024-.456.024-.6.072-.984a15.178,15.178,0,0,1-1.728.072Zm27.984-8.784A18.956,18.956,0,0,1,57.36-14.76H55.8a7.6,7.6,0,0,1,.144,1.632H52.776a8.549,8.549,0,0,1-1.92-.144v1.44a11.064,11.064,0,0,1,1.92-.12h3.168v1.464H54.192a19.8,19.8,0,0,1-2.328-.1,16.689,16.689,0,0,1,.1,2.184v2.64a15.918,15.918,0,0,1-.1,2.112,18.9,18.9,0,0,1,2.28-.1h1.8v1.656h-3.1a10.607,10.607,0,0,1-1.9-.12v1.44c.624-.072,1.44-.12,1.9-.12h3.1v.24A14.88,14.88,0,0,1,55.8,1.776h1.608a12.114,12.114,0,0,1-.144-2.424v-.24h2.568a11.3,11.3,0,0,1,2.112.1V-2.208a11.577,11.577,0,0,1-2.04.12h-2.64V-3.744h1.92a20.792,20.792,0,0,1,2.112.072,17.567,17.567,0,0,1-.072-2.064V-8.472c0-1.032.024-1.464.072-2.112a15.377,15.377,0,0,1-2.3.1H57.264v-1.464h2.712a15.939,15.939,0,0,1,2.016.1v-1.392a11.421,11.421,0,0,1-2.016.12H57.264a6.953,6.953,0,0,1,.12-1.56l.144.36,1.368-.5c-.6-1.056-.792-1.392-1.3-2.136h1.584a18.936,18.936,0,0,1,2.184.1v-1.512a14.409,14.409,0,0,1-2.376.144h-4.08c.312-.576.36-.672.888-1.8l-1.536-.408a9.792,9.792,0,0,1-1.272,2.856,12.372,12.372,0,0,1-2.376,2.712,4.246,4.246,0,0,1,1.1.96,16.381,16.381,0,0,0,2.472-3.048Zm-.24,7.584v1.7H53.232v-1.7Zm1.32,0h2.688v1.7H57.264ZM55.944-6.6v1.752H53.232V-6.6Zm1.32,0h2.688v1.752H57.264Zm8.16-10.368a16.5,16.5,0,0,1,1.488,2.88l1.32-.5a19.834,19.834,0,0,0-1.344-2.376h2.544a19.467,19.467,0,0,1,2.52.12v-1.536a14.312,14.312,0,0,1-2.544.144h-5.4c.36-.744.456-.984.792-1.752L63.312-20.4a8.883,8.883,0,0,1-.984,2.544,11.551,11.551,0,0,1-2.16,2.88,5.517,5.517,0,0,1,1.128.84,15.589,15.589,0,0,0,2.064-2.832Zm4.176,5.04c0,2.136-.072,3.984-.144,4.776-.12,1.08-.24,1.272-.888,1.272A14.581,14.581,0,0,1,66.5-6.1a4.4,4.4,0,0,1,.264,1.44,14.964,14.964,0,0,0,1.872.12c1.344,0,1.92-.432,2.136-1.608a44.906,44.906,0,0,0,.24-4.8,19.454,19.454,0,0,1,.1-2.376,16.925,16.925,0,0,1-2.184.1H65.136a15.287,15.287,0,0,1-2.088-.1,13.169,13.169,0,0,1,.12,2.256V-.456c0,1.584.6,1.872,3.864,1.872,3.12,0,4.008-.216,4.464-1.056a7.981,7.981,0,0,0,.576-3.48,6.953,6.953,0,0,1-1.464-.7,8.31,8.31,0,0,1-.36,3.264c-.288.528-.816.624-3.288.624-2.112,0-2.352-.1-2.352-.912V-11.928ZM82.488-6.816a4.729,4.729,0,0,1-.84,2.28,7.079,7.079,0,0,1-2.3,1.992,5.058,5.058,0,0,1,1.128,1.032,6.878,6.878,0,0,0,3.432-5.3h4.2V-3.96a12.791,12.791,0,0,1-.12,2.136h1.632a12.249,12.249,0,0,1-.12-2.16V-6.816h1.968a11.527,11.527,0,0,1,2.064.12V-8.208a10.732,10.732,0,0,1-2.064.12H89.5v-4.056H91.1a10.934,10.934,0,0,1,2.016.12v-1.512a10.62,10.62,0,0,1-2.016.12H89.5v-1.368a9.547,9.547,0,0,1,.12-1.872H87.984a9.849,9.849,0,0,1,.12,1.872v1.368H84.168v-1.416a9.3,9.3,0,0,1,.12-1.824H82.656a16.338,16.338,0,0,1,.12,1.872v1.368H81.192a10.466,10.466,0,0,1-2.016-.12v1.512a11.094,11.094,0,0,1,2.016-.12h1.584v.408c0,1.536-.024,2.4-.12,3.648H80.832a10.032,10.032,0,0,1-1.992-.12V-6.7a10.644,10.644,0,0,1,1.992-.12Zm1.68-5.328H88.1v4.056h-4.08c.1-1.464.144-2.328.144-3.528ZM96.12,1.848a19.031,19.031,0,0,1-.144-2.856V-16.056a25.484,25.484,0,0,1,.144-2.952,24.091,24.091,0,0,1-2.856.12H78.912a23.226,23.226,0,0,1-2.808-.12,26.679,26.679,0,0,1,.144,2.952V-1.032a20.559,20.559,0,0,1-.144,2.88h1.68V.408H94.44v1.44ZM77.784-17.52H94.44V-.96H77.784Zm29.424,1.368a33.581,33.581,0,0,1-5.136-.264l-.024,1.656a4.256,4.256,0,0,1,.528-.024h.384c.888.024,3.144.072,3.528.072a2.658,2.658,0,0,0,.456-.048l-.216.36a23.882,23.882,0,0,1-5.376,6.864L102.7-6.192a7.941,7.941,0,0,1,1.848-1.992c1.944-1.656,3.84-2.544,5.352-2.544,1.128,0,1.7.576,1.9,1.9a18.631,18.631,0,0,0-3.576,1.92c-1.632,1.224-2.448,2.472-2.448,3.792,0,2.472,2.088,3.7,6.384,3.7A37.233,37.233,0,0,0,117.984.1a9.445,9.445,0,0,1,.96-.12l-.216-1.848a20.109,20.109,0,0,1-6.408.936c-3.384,0-4.872-.7-4.872-2.28,0-1.44,1.248-2.568,4.512-4.1a6.308,6.308,0,0,1,.024.72,34.515,34.515,0,0,1-.144,3.456l1.632-.024a5.217,5.217,0,0,1-.048-.864c0-.216,0-.552.024-1.08.024-.48.024-1.008.024-1.32,0-.6,0-.84-.048-1.464a39.847,39.847,0,0,1,6.408-2.112l-.768-1.68a5.28,5.28,0,0,1-1.632.7c-1.056.384-2.424.888-4.176,1.584a2.913,2.913,0,0,0-3.168-2.664,6.387,6.387,0,0,0-3.624,1.176c-.24.168-.24.168-1.1.84a.185.185,0,0,1-.048-.072v-.024a.024.024,0,0,0,.024-.024c.024-.024.144-.12.312-.24.1-.072.576-.624.816-.912a17.7,17.7,0,0,0,2.16-3.408,77.493,77.493,0,0,0,7.92-.624,7.481,7.481,0,0,1,.96-.12l-.144-1.632a33.779,33.779,0,0,1-7.56.912,4.085,4.085,0,0,0-.5.024c.12-.216.432-.864.744-1.632a5.1,5.1,0,0,1,.624-1.3l-1.92-.336a10.186,10.186,0,0,1-1.152,3.288Zm39.168.312a11.349,11.349,0,0,1-2.28.144h-4.224c.216-.72.6-2.208.816-3.072.192-.72.192-.72.288-1.032l-1.632-.36a16.431,16.431,0,0,1-.552,3.024,18.22,18.22,0,0,1-3.552,7.728,4.076,4.076,0,0,1,1.08,1.032,18.785,18.785,0,0,0,1.752-2.76,24.778,24.778,0,0,0,2.136,6.216A16.046,16.046,0,0,1,134.016.336a4.377,4.377,0,0,1,1.128,1.32A20.377,20.377,0,0,0,141-3.5a18.091,18.091,0,0,0,4.752,5.184A4.274,4.274,0,0,1,146.9.312a15.762,15.762,0,0,1-5.04-5.112,18.429,18.429,0,0,0,2.016-4.7,23.932,23.932,0,0,0,.84-4.9,9.17,9.17,0,0,1,1.656.144Zm-3.1,1.44a19.137,19.137,0,0,1-2.208,8.088A22.773,22.773,0,0,1,138.96-13.1c.216-.552.264-.672.48-1.3Zm-12.432,2.208a28.916,28.916,0,0,1-6.192,4.008,4.186,4.186,0,0,1,.96,1.08c1.152-.624,1.656-.912,2.616-1.536h4.68a10.022,10.022,0,0,1-1.944,1.776h-.576a7.592,7.592,0,0,1,.1,1.608v.144c-1.7.192-3.864.336-4.7.336-.24,0-.5,0-.768-.024l.24,1.536a8.293,8.293,0,0,1,1.176-.144c2.376-.192,2.76-.24,4.056-.36V-.576c0,.408-.12.5-.6.5a17.3,17.3,0,0,1-2.544-.216,5.242,5.242,0,0,1,.264,1.488c.744.072,1.44.1,2.016.1,1.848,0,2.28-.288,2.28-1.608V-3.936c1.584-.216,2.352-.336,4.344-.7V-5.976c-1.944.384-2.616.48-4.344.7v-.864a17.621,17.621,0,0,0,2.568-2.328c.312-.336.312-.336.456-.48l.1-.1-.792-.84a8.406,8.406,0,0,1-1.728.1h-2.64a31.245,31.245,0,0,0,2.808-2.4h2.112a9.746,9.746,0,0,1,1.608.1v-1.392a8.531,8.531,0,0,1-1.608.1h-.936a30.032,30.032,0,0,0,3.672-4.824l-1.44-.7a17.753,17.753,0,0,1-3.96,5.52h-.792v-2.76h1.344a13.114,13.114,0,0,1,1.488.072v-1.368a8.107,8.107,0,0,1-1.56.1h-1.272v-.864a6.773,6.773,0,0,1,.144-1.776h-1.68a9.036,9.036,0,0,1,.144,1.752v.888h-1.848a9.608,9.608,0,0,1-1.968-.12v1.416a12.585,12.585,0,0,1,1.944-.1h1.872v2.76h-2.664a11.873,11.873,0,0,1-2.112-.144v1.44c.456-.048,1.2-.1,2.088-.1Zm24.48-5.376a34.192,34.192,0,0,0,8.952,1.632l.336-1.608a29.349,29.349,0,0,1-8.688-1.488Zm-2.064,6.192c.624-.072,1.128-.12,2.28-.192a46.035,46.035,0,0,0,7.152-.768c-1.728,1.656-2.952,2.856-3.648,3.552-1.944,1.92-3.936,3.84-5.664,5.448a17.292,17.292,0,0,1-2.592,2.208L152.136.36c.84-.96,2.424-2.592,3.6-3.672,1.992-1.848,3.168-2.52,4.416-2.52a1.172,1.172,0,0,1,1.1.576A4.152,4.152,0,0,1,161.52-3.6a6.073,6.073,0,0,0,.528,2.64c.5.936,1.56,1.368,3.36,1.368A19.085,19.085,0,0,0,168.7.1c1.7-.264,1.7-.264,1.944-.288l-.264-1.848a12.941,12.941,0,0,1-4.848.888c-1.1,0-1.656-.192-1.992-.648-.264-.384-.336-.744-.432-2.256-.1-1.368-.264-1.92-.744-2.4a2.226,2.226,0,0,0-1.632-.624,5.092,5.092,0,0,0-2.4.792,53.25,53.25,0,0,0,4.752-4.32,22.106,22.106,0,0,1,2.136-1.992l-1.056-1.32a4.564,4.564,0,0,1-1.152.264,81.833,81.833,0,0,1-8.424.576c-.528,0-.84,0-1.44-.048Zm20.328-2.568a70.493,70.493,0,0,1,8.28-.792,46.509,46.509,0,0,0,5.28-.528,15.711,15.711,0,0,0-2.28,1.272c-2.856,1.92-4.488,4.584-4.488,7.368a5.842,5.842,0,0,0,2.664,4.9A12.106,12.106,0,0,0,188.232.12c.384.072.48.1.744.144l.312-1.944h-.24a12.3,12.3,0,0,1-3.6-.768,4.706,4.706,0,0,1-3.36-4.44,7.336,7.336,0,0,1,2.952-5.544,12.187,12.187,0,0,1,4.608-2.424,11.131,11.131,0,0,1,2.688-.312l-.144-1.8a16.111,16.111,0,0,1-2.856.264c-3.1.144-10.776.576-13.632.792-.744.048-1.032.072-1.368.072h-.864Zm36.384-5.4c-.84,1.32-3.84,4.128-7.032,6.576a18.547,18.547,0,0,0-2.04,1.632,2.324,2.324,0,0,0-.7,1.608c0,.816.384,1.344,1.728,2.4,3.5,2.736,4.464,3.528,6.072,5.016a22.655,22.655,0,0,1,3.1,3.288l1.512-1.488a6.109,6.109,0,0,1-.672-.6,70.763,70.763,0,0,0-7.68-6.552c-1.944-1.512-2.136-1.68-2.136-2.112,0-.336.168-.528,1.056-1.2a69.912,69.912,0,0,0,5.52-4.536c2.5-2.4,2.688-2.568,2.952-2.784Zm12.312,5.952a3.574,3.574,0,0,1,.408-.024h.1c.936.048,1.152.048,1.992.048.888,0,1.176,0,1.656-.024A48.845,48.845,0,0,1,221.928-.12l1.752.744a64.171,64.171,0,0,0,4.44-14.112,32.022,32.022,0,0,0,4.056-.576l.432-.1.24-.024-.12-1.656a19.514,19.514,0,0,1-4.32.816c.12-.648.168-.984.312-1.824.144-.816.216-1.3.24-1.44.072-.336.1-.456.192-.84l-1.9-.192v.168a29.6,29.6,0,0,1-.528,4.248c-.7.048-.96.048-1.44.048a16.552,16.552,0,0,1-3-.216Zm18.12,1.176c-1.8-.072-2.16-.072-2.616-.072a27.191,27.191,0,0,0-6.36.792l.168,1.632a20.889,20.889,0,0,1,6-.816,24.1,24.1,0,0,1,2.832.168Zm-8.736,5.184c-1.272,1.632-1.608,2.376-1.608,3.456,0,2.376,2.04,3.6,5.976,3.6a26.276,26.276,0,0,0,4.272-.384l.744-.144.312-.048-.168-1.8a17.831,17.831,0,0,1-5.3.816c-2.736,0-4.2-.768-4.2-2.208a2.888,2.888,0,0,1,.6-1.7,8.043,8.043,0,0,1,.72-.912Zm3.96-11.256A17.569,17.569,0,0,1,238.1-14.5l1.2-.72a18.22,18.22,0,0,0-2.472-3.72Zm2.736-1.3a17.978,17.978,0,0,1,2.448,3.768l1.2-.7a19.276,19.276,0,0,0-2.472-3.72Zm9.816,6.888a5.3,5.3,0,0,1,.936-.072,70.667,70.667,0,0,0,8.544-.624c.144.24.144.288.408.792a29.268,29.268,0,0,0,2.88,4.7,11.984,11.984,0,0,0-4.968-.864,10.2,10.2,0,0,0-4.656.888,4.486,4.486,0,0,0-2.712,3.912,3.871,3.871,0,0,0,1.08,2.64c1.1,1.152,3.312,1.8,6.24,1.8a19.9,19.9,0,0,0,7.056-1.3l-.264-1.848a15.823,15.823,0,0,1-6.816,1.536,8.129,8.129,0,0,1-4.68-1.1A2.4,2.4,0,0,1,250.32-4.1a2.726,2.726,0,0,1,1.3-2.232,8.508,8.508,0,0,1,4.56-1.008,13.005,13.005,0,0,1,4.2.624,4.8,4.8,0,0,1,1.656.984l1.608-.912a44.444,44.444,0,0,1-4.32-6.984c.24-.048.24-.048.816-.168,1.512-.288,1.8-.36,3.24-.744.72-.192.912-.24,1.416-.336l-.24-1.7a28.088,28.088,0,0,1-5.808,1.512,19.743,19.743,0,0,1-.864-2.112,7.65,7.65,0,0,1-.7-2.16l-1.9.264c.216.432.36.768.624,1.392.432,1.08.816,2.04,1.176,2.856a56.019,56.019,0,0,1-7.152.5,10.522,10.522,0,0,1-1.848-.12Zm24.36-4.32a12.98,12.98,0,0,1,.072,1.416c.12,5.9.456,8.976,1.3,11.256.816,2.3,2.064,3.648,3.408,3.648,1.7,0,2.808-1.608,3.984-5.808a7.671,7.671,0,0,1-1.416-1.368,17.268,17.268,0,0,1-1.248,4.1c-.36.792-.768,1.2-1.2,1.2-.912,0-1.9-1.656-2.424-4.1a41.1,41.1,0,0,1-.624-7.464,17.4,17.4,0,0,1,.168-2.856Zm12.144,2.04A21.2,21.2,0,0,1,289.68-3.144l1.7-.7a22.98,22.98,0,0,0-1.8-6.408,20.832,20.832,0,0,0-3.432-5.472Z" transform="translate(0 21)" fill="#f59c9c"/>
  </g>
</svg>
