<svg id="グループ_1693" data-name="グループ 1693" xmlns="http://www.w3.org/2000/svg" width="980" height="390" viewBox="0 0 980 390">
  <defs>
    <style>
      .cls-1 {
        fill: none;
      }

      .cls-2 {
        font-size: 16px;
      }

      .cls-2, .cls-4 {
        font-family: YuMin-Medium, YuMincho;
        font-weight: 500;
        letter-spacing: 0.03em;
      }

      .cls-3 {
        fill: #575656;
      }

      .cls-4 {
        fill: #f59c9c;
        font-size: 24px;
      }
    </style>
  </defs>
  <rect id="長方形_196" data-name="長方形 196" class="cls-1" width="911.716" height="390" transform="translate(33.984)"/>
  <text id="万が一キャンセルの場合は6週間前よりかかってまいりますのでご注意くださいませ_延期の場合などはその都度ご相談ください_1週間前_前日_100_2週間前_60_3週間前_40_4週間前_30_5週間前_20_6週間前_10_" data-name="万が一キャンセルの場合は6週間前よりかかってまいりますのでご注意くださいませ。
延期の場合などはその都度ご相談ください。

1週間前～前日　100％
2週間前 60％
3週間前 40％
4週間前 30％
5週間前 20％
6週間前 10％" class="cls-2" transform="translate(41 104)"><tspan x="0" y="14">万が一キャンセルの場合は6週間前よりかかってまいりますのでご注意くださいませ。</tspan><tspan x="0" y="42.8">延期の場合などはその都度ご相談ください。</tspan><tspan x="0" y="71.6"></tspan><tspan x="0" y="100.4">1週間前～前日　100％</tspan><tspan x="0" y="129.2">2週間前 60％</tspan><tspan x="0" y="158">3週間前 40％</tspan><tspan x="0" y="186.8">4週間前 30％</tspan><tspan x="0" y="215.6">5週間前 20％</tspan><tspan x="0" y="244.4">6週間前 10％</tspan></text>
  <g id="グループ_842" data-name="グループ 842">
    <g id="グループ_583" data-name="グループ 583" transform="translate(2.32 248.622)">
      <g id="グループ_578" data-name="グループ 578" transform="translate(823.965)">
        <g id="グループ_577" data-name="グループ 577">
          <path id="パス_2909" data-name="パス 2909" class="cls-3" d="M2974.539,1887.688v117.332H2836.594v-1.76h126.782c5.022,0,9.094-3.464,9.094-7.736V1887.688Z" transform="translate(-2820.824 -1866.74)"/>
          <g id="グループ_575" data-name="グループ 575" transform="translate(151.646)">
            <rect id="長方形_133" data-name="長方形 133" class="cls-3" width="2.069" height="14.994"/>
          </g>
          <g id="グループ_576" data-name="グループ 576" transform="translate(0 136.519)">
            <rect id="長方形_134" data-name="長方形 134" class="cls-3" width="10.223" height="1.76"/>
          </g>
        </g>
      </g>
      <g id="グループ_582" data-name="グループ 582" transform="translate(0)">
        <g id="グループ_581" data-name="グループ 581">
          <path id="パス_2910" data-name="パス 2910" class="cls-3" d="M611.051,1887.688v117.332H749v-1.76H622.215c-5.023,0-9.095-3.464-9.095-7.736V1887.688Z" transform="translate(-611.051 -1866.74)"/>
          <g id="グループ_579" data-name="グループ 579" transform="translate(0)">
            <rect id="長方形_135" data-name="長方形 135" class="cls-3" width="2.069" height="14.994"/>
          </g>
          <g id="グループ_580" data-name="グループ 580" transform="translate(143.492 136.519)">
            <rect id="長方形_136" data-name="長方形 136" class="cls-3" width="10.223" height="1.76"/>
          </g>
        </g>
      </g>
    </g>
    <g id="グループ_592" data-name="グループ 592" transform="translate(2.32)">
      <g id="グループ_587" data-name="グループ 587" transform="translate(823.965)">
        <g id="グループ_586" data-name="グループ 586">
          <path id="パス_2911" data-name="パス 2911" class="cls-3" d="M2974.539,647.362V530.03H2836.594v1.76h126.782c5.022,0,9.094,3.464,9.094,7.736V647.362Z" transform="translate(-2820.824 -530.03)"/>
          <g id="グループ_584" data-name="グループ 584" transform="translate(151.646 123.286)">
            <rect id="長方形_137" data-name="長方形 137" class="cls-3" width="2.069" height="14.994"/>
          </g>
          <g id="グループ_585" data-name="グループ 585" transform="translate(0 0)">
            <rect id="長方形_138" data-name="長方形 138" class="cls-3" width="10.223" height="1.76"/>
          </g>
        </g>
      </g>
      <g id="グループ_591" data-name="グループ 591" transform="translate(0)">
        <g id="グループ_590" data-name="グループ 590">
          <path id="パス_2912" data-name="パス 2912" class="cls-3" d="M611.051,647.362V530.03H749v1.76H622.215c-5.023,0-9.095,3.464-9.095,7.736V647.362Z" transform="translate(-611.051 -530.03)"/>
          <g id="グループ_588" data-name="グループ 588" transform="translate(0 123.286)">
            <rect id="長方形_139" data-name="長方形 139" class="cls-3" width="2.069" height="14.994"/>
          </g>
          <g id="グループ_589" data-name="グループ 589" transform="translate(143.492 0)">
            <rect id="長方形_140" data-name="長方形 140" class="cls-3" width="10.223" height="1.76"/>
          </g>
        </g>
      </g>
    </g>
    <g id="グループ_609" data-name="グループ 609" transform="translate(977.911 68.431)">
      <rect id="長方形_141" data-name="長方形 141" class="cls-3" width="2.089" height="176.561" transform="translate(0)"/>
    </g>
    <g id="グループ_610" data-name="グループ 610" transform="translate(0.231 141.061)">
      <rect id="長方形_142" data-name="長方形 142" class="cls-3" width="2.089" height="104.952" transform="translate(0 0)"/>
    </g>
    <g id="グループ_612" data-name="グループ 612" transform="translate(149.606 385.142)">
      <rect id="長方形_144" data-name="長方形 144" class="cls-3" width="680.869" height="1.76" transform="translate(0)"/>
    </g>
    <rect id="長方形_7" data-name="長方形 7" class="cls-1" width="979.68" height="390"/>
    <rect id="長方形_143" data-name="長方形 143" class="cls-3" width="780.685" height="1.76" transform="translate(149.27 0)"/>
  </g>
  <g id="グループ_818" data-name="グループ 818" transform="translate(41 40)">
    <text id="キャンセル料はかかりますか_" data-name="キャンセル料はかかりますか？" class="cls-4" transform="translate(0 21)"><tspan x="0" y="0">キャンセル料はかかりますか？</tspan></text>
  </g>
</svg>
