<svg xmlns="http://www.w3.org/2000/svg" width="345" height="408.356" viewBox="0 0 345 408.356">
  <defs>
    <style>
      .cls-1 {
        font-size: 12px;
      }

      .cls-1, .cls-4 {
        font-family: YuMin-Medium, YuMincho;
        font-weight: 500;
        letter-spacing: 0.03em;
      }

      .cls-2 {
        fill: #575656;
      }

      .cls-3 {
        fill: none;
      }

      .cls-4 {
        fill: #f59c9c;
        font-size: 16px;
      }
    </style>
  </defs>
  <g id="グループ_1803" data-name="グループ 1803" transform="translate(-15 -466)">
    <text id="ヘアメイクリハーサルは都内のプライベートサロンにて行っております_個人事務所のため場所が変更になる場合がございます_リハーサル日程が決まりましたら場所のご案内を差し上げます_サロンにはアクセサリー_ヘットドレス_フラワーヘアパーツなど様々なウエディングアイテムが揃っておりますので_リハーサルで当日に近いイメージ付けをすることが可能です_リハーサルは基本的に平日にお願いしております_どうしても土日がいいという場合にはご相談ください_" data-name="ヘアメイクリハーサルは都内のプライベートサロンにて行っております。
個人事務所のため場所が変更になる場合がございます。リハーサル日程が決まりましたら場所のご案内を差し上げます。
サロンにはアクセサリー、ヘットドレス、フラワーヘアパーツなど様々なウエディングアイテムが揃っておりますので、リハーサルで当日に近いイメージ付けをすることが可能です。　

※リハーサルは基本的に平日にお願いしております。どうしても土日がいいという場合にはご相談ください。" class="cls-1" transform="translate(37.586 566.546)"><tspan x="0" y="11">ヘアメイクリハーサルは都内のプライベートサロンに</tspan><tspan x="0" y="32.6">て行っております。</tspan><tspan x="0" y="54.2">個人事務所のため場所が変更になる場合がございま</tspan><tspan x="0" y="75.8">す。リハーサル日程が決まりましたら場所のご案内を</tspan><tspan x="0" y="97.4">差し上げます。</tspan><tspan x="0" y="119">サロンにはアクセサリー、ヘットドレス、フラワーヘ</tspan><tspan x="0" y="140.6">アパーツなど様々なウエディングアイテムが揃ってお</tspan><tspan x="0" y="162.2">りますので、リハーサルで当日に近いイメージ付けを</tspan><tspan x="0" y="183.8">することが可能です。　</tspan><tspan x="0" y="205.4"></tspan><tspan x="0" y="227">※リハーサルは基本的に平日にお願いしております。</tspan><tspan x="0" y="248.6">どうしても土日がいいという場合にはご相談くださ</tspan><tspan x="0" y="270.2">い。</tspan></text>
    <g id="グループ_842" data-name="グループ 842" transform="translate(15 466)">
      <g id="グループ_583" data-name="グループ 583" transform="translate(0.817 275.698)">
        <g id="グループ_578" data-name="グループ 578" transform="translate(290.069)">
          <g id="グループ_577" data-name="グループ 577">
            <path id="パス_2909" data-name="パス 2909" class="cls-2" d="M2885.156,1887.688v110.1h-48.562v-1.651h44.633c1.768,0,3.2-3.25,3.2-7.259V1887.688Z" transform="translate(-2831.042 -1868.032)"/>
            <g id="グループ_575" data-name="グループ 575" transform="translate(53.385)">
              <rect id="長方形_133" data-name="長方形 133" class="cls-2" width="0.728" height="14.069"/>
            </g>
            <g id="グループ_576" data-name="グループ 576" transform="translate(0 128.1)">
              <rect id="長方形_134" data-name="長方形 134" class="cls-2" width="3.599" height="1.651"/>
            </g>
          </g>
        </g>
        <g id="グループ_582" data-name="グループ 582" transform="translate(0)">
          <g id="グループ_581" data-name="グループ 581">
            <path id="パス_2910" data-name="パス 2910" class="cls-2" d="M611.051,1887.688v110.1h48.563v-1.651H614.981c-1.768,0-3.2-3.25-3.2-7.259V1887.688Z" transform="translate(-611.051 -1868.032)"/>
            <g id="グループ_579" data-name="グループ 579" transform="translate(0)">
              <rect id="長方形_135" data-name="長方形 135" class="cls-2" width="0.728" height="14.069"/>
            </g>
            <g id="グループ_580" data-name="グループ 580" transform="translate(50.515 128.1)">
              <rect id="長方形_136" data-name="長方形 136" class="cls-2" width="3.599" height="1.651"/>
            </g>
          </g>
        </g>
      </g>
      <g id="グループ_592" data-name="グループ 592" transform="translate(0.817)">
        <g id="グループ_587" data-name="グループ 587" transform="translate(290.069)">
          <g id="グループ_586" data-name="グループ 586">
            <path id="パス_2911" data-name="パス 2911" class="cls-2" d="M2885.156,640.126V530.03h-48.562v1.651h44.633c1.768,0,3.2,3.25,3.2,7.259V640.126Z" transform="translate(-2831.042 -530.03)"/>
            <g id="グループ_584" data-name="グループ 584" transform="translate(53.385 115.682)">
              <rect id="長方形_137" data-name="長方形 137" class="cls-2" width="0.728" height="14.069"/>
            </g>
            <g id="グループ_585" data-name="グループ 585" transform="translate(0 0)">
              <rect id="長方形_138" data-name="長方形 138" class="cls-2" width="3.599" height="1.651"/>
            </g>
          </g>
        </g>
        <g id="グループ_591" data-name="グループ 591" transform="translate(0)">
          <g id="グループ_590" data-name="グループ 590">
            <path id="パス_2912" data-name="パス 2912" class="cls-2" d="M611.051,640.126V530.03h48.563v1.651H614.981c-1.768,0-3.2,3.25-3.2,7.259V640.126Z" transform="translate(-611.051 -530.03)"/>
            <g id="グループ_588" data-name="グループ 588" transform="translate(0 115.682)">
              <rect id="長方形_139" data-name="長方形 139" class="cls-2" width="0.728" height="14.069"/>
            </g>
            <g id="グループ_589" data-name="グループ 589" transform="translate(50.515 0)">
              <rect id="長方形_140" data-name="長方形 140" class="cls-2" width="3.599" height="1.651"/>
            </g>
          </g>
        </g>
      </g>
      <g id="グループ_609" data-name="グループ 609" transform="translate(344.264 77.807)">
        <rect id="長方形_141" data-name="長方形 141" class="cls-2" width="0.736" height="165.672" transform="translate(0)"/>
      </g>
      <g id="グループ_610" data-name="グループ 610" transform="translate(0.081 153.348)">
        <rect id="長方形_142" data-name="長方形 142" class="cls-2" width="0.736" height="98.48" transform="translate(0 0)"/>
      </g>
      <g id="グループ_612" data-name="グループ 612" transform="translate(52.668 403.798)">
        <rect id="長方形_144" data-name="長方形 144" class="cls-2" width="239.694" height="1.651" transform="translate(0)"/>
      </g>
      <rect id="長方形_7" data-name="長方形 7" class="cls-3" width="344.887" height="408.356"/>
      <rect id="長方形_143" data-name="長方形 143" class="cls-2" width="274.833" height="1.651" transform="translate(52.549 0)"/>
    </g>
    <text id="ヘアメイクリハーサル_場所について教えて下さい" data-name="ヘアメイクリハーサル、場所について教えて下さい" class="cls-4" transform="translate(37.586 506.662)"><tspan x="0" y="14">ヘアメイクリハーサル、場所について教</tspan><tspan x="0" y="36">えて下さい</tspan></text>
  </g>
</svg>
