<svg xmlns="http://www.w3.org/2000/svg" width="345.001" height="167.438" viewBox="0 0 345.001 167.438"><g transform="translate(-14268 10639)"><path d="M5.1,4.22c-.432.384-.96.84-1.224,1.08a.449.449,0,0,0-.132.192.184.184,0,0,0,.132.132.641.641,0,0,0,.264-.108A8.684,8.684,0,0,1,6.12,4.328,7.951,7.951,0,0,1,7.788,4.04C8.2,4,8.34,3.884,8.34,3.656s-.1-.372-.4-.468a1.543,1.543,0,0,0-.432-.06,1.454,1.454,0,0,0-.348.084,6.97,6.97,0,0,1-1.068.24,8.078,8.078,0,0,1-1.14.108,4.741,4.741,0,0,1-.888-.072,2.294,2.294,0,0,1-.8-.312.283.283,0,0,0-.156-.06.131.131,0,0,0-.12.132.21.21,0,0,0,.048.144,1.848,1.848,0,0,0,.756.588A3.182,3.182,0,0,0,5.1,4.22ZM2.868,6.944a.2.2,0,0,0-.156.12,1.957,1.957,0,0,0-.324,1.152A1.93,1.93,0,0,0,3.7,10.04a5.8,5.8,0,0,0,2.268.384,18.146,18.146,0,0,0,2.676-.192c.432-.06.684-.18.684-.492S9,9.224,8.556,9.224a2.291,2.291,0,0,0-.732.108,7.148,7.148,0,0,1-2.052.252,4.531,4.531,0,0,1-2.172-.4,1.21,1.21,0,0,1-.768-1.176,2.114,2.114,0,0,1,.144-.792.471.471,0,0,0,.036-.168C3.012,6.992,2.94,6.944,2.868,6.944ZM8.532,1.928a.123.123,0,0,0-.132.12.186.186,0,0,0,.084.12A4.153,4.153,0,0,1,9.492,3.32q.162.324.4.324a.334.334,0,0,0,.336-.36c0-.252-.168-.468-.456-.72a2.7,2.7,0,0,0-1.044-.6A.683.683,0,0,0,8.532,1.928ZM9.5,1.112a.12.12,0,0,0-.12.12.144.144,0,0,0,.084.12,3.659,3.659,0,0,1,1.1,1.128c.132.228.228.288.384.288a.341.341,0,0,0,.324-.384c0-.276-.264-.552-.552-.756a2.834,2.834,0,0,0-.96-.468A1.567,1.567,0,0,0,9.5,1.112Zm14.112,4.3c.108,0,.156-.048.156-.12s-.06-.156-.324-.372c-.6-.492-.684-.552-.756-.552s-.168.06-.72.744H17.448c.12-.2.228-.42.336-.648.336-.06.456-.12.456-.24,0-.144-.312-.276-1.2-.492a7.29,7.29,0,0,1-.3.852,5.271,5.271,0,0,1-.252.528H14a7.661,7.661,0,0,1-1.116-.084l.12.456a5.847,5.847,0,0,1,.984-.072h2.34a10.814,10.814,0,0,1-3.564,3.66c-.072.048.024.228.1.192a10.029,10.029,0,0,0,2.4-1.464v1.02c0,1.272-.036,1.716-.036,2,0,.264.1.36.372.36.36,0,.516-.132.516-.444S16.1,9.968,16.1,8.768V7.652h2.112v.372c0,2.352-.06,3.36-.06,3.66,0,.264.12.348.4.348.348,0,.528-.108.528-.4,0-.348-.048-1.464-.048-3.732V7.652h2.34V9.944c0,.156-.048.2-.2.2-.288,0-.576-.012-1.128-.06-.072-.012-.072.168,0,.18.816.2.936.312.96.66.012.156.06.2.2.2a1.219,1.219,0,0,0,.7-.24.761.761,0,0,0,.336-.648c0-.36-.012-.636-.012-1.752V7.928c.264-.168.312-.24.312-.348,0-.072-.048-.132-.228-.312-.4-.336-.48-.372-.552-.372s-.144.036-.528.456h-2.2V6.56c.312-.144.384-.216.384-.312,0-.156-.084-.192-1.26-.324.036.4.048.684.06,1.428h-1.98c-.12-.072-.216-.132-.312-.18a10.544,10.544,0,0,0,1.344-1.764ZM19.488,2.672c.528-.276,1.056-.588,1.608-.948.42.048.564-.012.564-.12s-.3-.348-.984-.768a8.45,8.45,0,0,1-1.176.972,9.165,9.165,0,0,1-.84.516,20.4,20.4,0,0,0-3.372-.984c-.084-.012-.132.156-.048.192,1.032.408,1.9.768,2.688,1.164a20.38,20.38,0,0,1-4.1,1.428c-.084.024-.036.2.048.192A15.091,15.091,0,0,0,18.636,3.08c.432.252.852.516,1.284.828.648.468.792.552.984.552a.384.384,0,0,0,.348-.42C21.252,3.692,20.592,3.188,19.488,2.672Zm14.88,2.172c-.048.192-.084.348-.12.468-.168.6-.276.708-.636.708a10.637,10.637,0,0,1-1.224-.108c-.072-.012-.084.132-.012.156.732.216.984.348,1.056.7.036.132.084.192.216.192a1.268,1.268,0,0,0,.66-.2,1.366,1.366,0,0,0,.6-.744,13.593,13.593,0,0,0,.636-3.66c.276-.168.36-.264.36-.372,0-.072-.036-.132-.228-.312-.4-.348-.468-.4-.54-.4s-.144.048-.528.468H32.484a6.264,6.264,0,0,0-1.02-.516c0,.312,0,.564-.012.816a10.356,10.356,0,0,1-.468,2.832A5.388,5.388,0,0,1,29.592,6.98c-.048.048.036.168.1.132a4.438,4.438,0,0,0,1.956-1.944c.06-.108.108-.216.156-.324Zm.216-1.4c-.048.372-.1.732-.168,1.1H31.908a5.946,5.946,0,0,0,.276-1.1Zm-2.352-.3c.048-.348.1-.9.108-1.1h2.388c-.036.408-.072.78-.108,1.1Zm-1.176,7.968V9.572H34.5c.12,0,.156-.036.156-.132,0-.072-.036-.144-.276-.324-.492-.408-.588-.468-.672-.468s-.156.06-.648.624h-2V7.892h4.092c.12,0,.156-.036.156-.108s-.048-.144-.276-.324c-.5-.4-.588-.468-.684-.468-.072,0-.156.072-.636.6H27.192a5.508,5.508,0,0,1-1.056-.084l.12.456a6.619,6.619,0,0,1,.924-.072h3v1.38H27.948a5.534,5.534,0,0,1-1.044-.1l.12.468a5.226,5.226,0,0,1,.912-.072H30.18v1.536H26.364a4.2,4.2,0,0,1-.924-.084l.12.456a4.9,4.9,0,0,1,.816-.072h9.516c.108,0,.156-.036.156-.108s-.048-.168-.3-.372c-.576-.468-.672-.516-.756-.516s-.156.06-.684.7Zm-2.58-8.556v-.9c.3-.12.384-.216.384-.312,0-.12-.132-.216-1.284-.324a6.06,6.06,0,0,1,.048.876v.66H26.232a4.1,4.1,0,0,1-.912-.084l.12.456a5.415,5.415,0,0,1,.84-.072h.06V4.28c0,.552-.024.7-.024.852,0,.852.384,1.176,1.608,1.176a10.166,10.166,0,0,0,1.752-.1c.264-.06.384-.168.384-.324,0-.276-.168-.5-.36-.5a2.423,2.423,0,0,0-.42.036,8.756,8.756,0,0,1-1.128.084c-.84-.012-.972-.108-.972-.48V2.852h3.636c.12,0,.156-.036.156-.108s-.048-.156-.288-.348c-.48-.4-.564-.444-.648-.444s-.168.048-.612.6Zm14.328.7a5.224,5.224,0,0,1,.636-.024A3.476,3.476,0,0,1,45.672,4,3.028,3.028,0,0,1,46.68,6.3,3.39,3.39,0,0,1,45.6,8.78,6.67,6.67,0,0,1,42.336,10.3c-.156.036-.216.072-.216.168a.169.169,0,0,0,.168.144,7.161,7.161,0,0,0,4-1.344,3.393,3.393,0,0,0,1.3-2.808A3.426,3.426,0,0,0,46.248,3.74a4.414,4.414,0,0,0-2.784-.924,5.129,5.129,0,0,0-3.84,1.572A4.366,4.366,0,0,0,38.5,7.22,2.636,2.636,0,0,0,39.048,9a1.107,1.107,0,0,0,.9.48A1.607,1.607,0,0,0,41.16,8.7a12.084,12.084,0,0,0,1.716-3.108,4.794,4.794,0,0,0,.312-1.4A1.4,1.4,0,0,0,42.8,3.248Zm-.324.036a.744.744,0,0,1,.192.552,2.626,2.626,0,0,1-.168.948A12.751,12.751,0,0,1,40.788,7.9c-.348.468-.588.684-.84.684a.673.673,0,0,1-.564-.408,2.071,2.071,0,0,1-.264-1.116,3.74,3.74,0,0,1,1.044-2.592A4.234,4.234,0,0,1,42.48,3.284Zm18.192.42c.12,0,.156-.036.156-.108s-.06-.156-.324-.384c-.564-.468-.648-.516-.732-.516S59.6,2.744,59,3.4H55.752V1.748c.324-.144.408-.24.408-.324,0-.144-.144-.24-1.4-.36a7.728,7.728,0,0,1,.072.972V3.4H51.012a5.806,5.806,0,0,1-.972-.084l.132.456a5.3,5.3,0,0,1,.84-.072h2.844a13.6,13.6,0,0,1-.648,4.164,7.894,7.894,0,0,1-3.228,3.816c-.072.048.036.2.108.168a6.892,6.892,0,0,0,3.84-3.576,8.678,8.678,0,0,0,.648-2.268H58.1a18.043,18.043,0,0,1-.576,3.936c-.2.612-.384.78-.756.78a9.988,9.988,0,0,1-1.752-.264c-.084-.012-.132.168-.048.192,1.128.372,1.38.576,1.452.972.024.156.072.2.2.2A1.707,1.707,0,0,0,58.26,10.58a15.986,15.986,0,0,0,.732-4.272c.312-.192.372-.252.372-.324s-.036-.144-.228-.324c-.432-.4-.516-.408-.6-.408S58.4,5.3,58,5.708H54.624c.1-.66.132-1.332.168-2Zm8.352.4a9.823,9.823,0,0,0-.912,1.008.221.221,0,0,0-.072.156.141.141,0,0,0,.12.108A.183.183,0,0,0,68.3,5.3a4.768,4.768,0,0,1,1.272-.96,2.05,2.05,0,0,1,.768-.132c.192,0,.516.036.684.036.312,0,.48-.06.48-.36,0-.264-.168-.528-1-.528a6.88,6.88,0,0,0-1.812.228,6.37,6.37,0,0,0-1.62.72c-.1.06-.144.108-.144.192a.136.136,0,0,0,.144.132.515.515,0,0,0,.18-.06,8.2,8.2,0,0,1,1.68-.528C69.048,4.016,69.06,4.064,69.024,4.1ZM66.732,8.048a1.832,1.832,0,0,0,.6,1.4,4.384,4.384,0,0,0,2.892.72,6.688,6.688,0,0,0,1.668-.156.359.359,0,0,0,.3-.36.471.471,0,0,0-.324-.408,1.757,1.757,0,0,0-.492-.1,1.9,1.9,0,0,0-.456.06,3.476,3.476,0,0,1-.444.1,5.633,5.633,0,0,1-.852.048,3.337,3.337,0,0,1-2.052-.492,1.357,1.357,0,0,1-.444-1.128,4.021,4.021,0,0,1,.12-.792c0-.072-.06-.108-.132-.108s-.1.036-.144.12A2.688,2.688,0,0,0,66.732,8.048Zm-1.284-1.44c-.288.744-.576,1.524-.852,2.232-.024.06-.06.084-.084.084s-.072-.024-.084-.084a4.022,4.022,0,0,1-.084-.972,9.838,9.838,0,0,1,.6-3.1,1.869,1.869,0,0,1,.276-.528.529.529,0,0,0,.168-.4,1.537,1.537,0,0,0-.324-.828,1.357,1.357,0,0,0-.876-.636.1.1,0,0,0-.108.084.162.162,0,0,0,.06.12,1.222,1.222,0,0,1,.36.852,5.109,5.109,0,0,1-.18.984,15.927,15.927,0,0,0-.54,3.528,6.561,6.561,0,0,0,.4,2.268c.18.432.336.564.552.564.156,0,.288-.1.288-.336,0-.168-.036-.564-.036-.78A3.631,3.631,0,0,1,65.1,8.9c.108-.468.336-1.224.624-2.184a.528.528,0,0,0,.024-.12.153.153,0,0,0-.144-.132C65.544,6.464,65.484,6.5,65.448,6.608ZM82.884,8.864c-.06-1.056-.108-2.28-.108-3.576A9.354,9.354,0,0,0,84.4,4.88c.24-.084.348-.2.348-.384,0-.2-.144-.336-.54-.336a.867.867,0,0,0-.528.144,1.612,1.612,0,0,1-.324.156c-.168.048-.336.1-.564.144,0-.444.036-.732.06-1.092a.723.723,0,0,1,.168-.48.341.341,0,0,0,.132-.276c0-.252-.264-.408-.516-.54A1.706,1.706,0,0,0,81.84,2a1.151,1.151,0,0,0-.456.132c-.084.048-.192.132-.192.192,0,.036.024.06.084.06a1.292,1.292,0,0,1,.264.024,1.475,1.475,0,0,1,.348.1c.168.084.192.228.216.552.012.468.036.948.036,1.692a10.436,10.436,0,0,1-1.848.18,1.236,1.236,0,0,1-1.044-.456c-.06-.072-.108-.108-.156-.108a.13.13,0,0,0-.1.1.538.538,0,0,0,.048.2,1.3,1.3,0,0,0,1.38.84A13.642,13.642,0,0,0,82.14,5.4c.012,1.1.036,2.184.048,3.276a5.394,5.394,0,0,0-1.128-.12c-1.08,0-1.7.552-1.7,1.212S80.04,10.952,81,10.952c1.164,0,1.872-.492,1.872-1.368a6.1,6.1,0,0,1,1.212.876.682.682,0,0,0,.456.216.383.383,0,0,0,.4-.432.549.549,0,0,0-.228-.4A6.948,6.948,0,0,0,82.884,8.864ZM82.14,9.3a.7.7,0,0,1,0,.228.794.794,0,0,1-.276.552,1.54,1.54,0,0,1-1,.288c-.792,0-1.128-.288-1.128-.624,0-.5.564-.72,1.056-.72A3.354,3.354,0,0,1,82.14,9.3Zm-5.508-1.38a10.931,10.931,0,0,1,.744-3.492,1.364,1.364,0,0,1,.264-.516.511.511,0,0,0,.132-.384,1.433,1.433,0,0,0-.408-.936,2.544,2.544,0,0,0-.612-.552A.274.274,0,0,0,76.62,2c-.072,0-.12.036-.12.1a.345.345,0,0,0,.084.18,1.538,1.538,0,0,1,.264.864,3.814,3.814,0,0,1-.18,1.032,17.625,17.625,0,0,0-.6,4,6.645,6.645,0,0,0,.444,2.652.61.61,0,0,0,.516.408.3.3,0,0,0,.312-.336,1.926,1.926,0,0,0-.036-.36,2.852,2.852,0,0,1-.036-.468,2.3,2.3,0,0,1,.1-.576c.18-.648.408-1.452.7-2.388a.838.838,0,0,0,.036-.144.142.142,0,0,0-.132-.132c-.06,0-.12.048-.156.144-.288.684-.612,1.488-.888,2.1-.048.108-.072.156-.12.156s-.084-.048-.108-.18A6.585,6.585,0,0,1,76.632,7.916ZM90.648,5.3c-.432.048-.828.1-1.26.144a5.844,5.844,0,0,1-.756.036,1.359,1.359,0,0,1-.768-.36c-.084-.072-.132-.108-.18-.108s-.108.048-.108.144c0,.24.1.42.4.708a1.2,1.2,0,0,0,.792.444.577.577,0,0,0,.348-.12,2.6,2.6,0,0,1,.672-.216c.276-.06.552-.1.852-.144-.012.768-.072,1.56-.072,1.92s.132.576.432.576c.18,0,.36-.2.36-.624,0-.456.012-1.116.024-1.968.828-.084,1.5-.144,2.28-.168a6.619,6.619,0,0,1-.732,3.12,5.874,5.874,0,0,1-2.844,2.328c-.108.048-.156.084-.156.18a.136.136,0,0,0,.144.132.88.88,0,0,0,.264-.048,5.663,5.663,0,0,0,3.18-2.22,6.477,6.477,0,0,0,.9-3.516c.336,0,.7,0,1.092.012.276.012.576.024.876.06a4.4,4.4,0,0,0,.72.072c.192,0,.312-.1.312-.24a.439.439,0,0,0-.228-.42,2.157,2.157,0,0,0-.96-.288.639.639,0,0,0-.372.1.961.961,0,0,1-.432.108c-.42.024-.72.036-1,.048.012-.6.036-1.128.048-1.608a.676.676,0,0,1,.108-.42.49.49,0,0,0,.132-.276c0-.2-.144-.372-.552-.528a2.575,2.575,0,0,0-.792-.192.694.694,0,0,0-.4.1c-.084.06-.168.132-.168.18s.036.1.132.108a1.635,1.635,0,0,1,.384.1.463.463,0,0,1,.276.216,2.312,2.312,0,0,1,.084.924c0,.468,0,.936-.012,1.452-.828.048-1.452.108-2.292.192,0-.324,0-.612.012-.852a1.193,1.193,0,0,1,.108-.468.419.419,0,0,0,.1-.264c0-.18-.1-.312-.384-.456a2.2,2.2,0,0,0-.9-.276.727.727,0,0,0-.384.1c-.072.036-.144.1-.144.144s.048.084.144.108a1.7,1.7,0,0,1,.588.264c.108.1.132.228.132.528Zm11.064,1.944a2.513,2.513,0,0,1,.828-.18c1.572-.132,3.7-.2,4.764-.2.588,0,1.236.048,1.692.048.264,0,.42-.12.42-.36,0-.216-.072-.348-.636-.564a1.593,1.593,0,0,0-.492-.108.894.894,0,0,0-.372.084,1.566,1.566,0,0,1-.732.144c-1.02.036-2.64.1-4.272.192-.816.048-1.272.072-1.524.072-.276,0-.444-.084-.864-.492-.084-.084-.132-.144-.192-.144-.084,0-.108.144-.108.3a1.222,1.222,0,0,0,.276.624c.312.432.6.7.84.7A.623.623,0,0,0,101.712,7.244Zm13.536-.288a17.843,17.843,0,0,0,2.16-.5c.576-.18,1.164-.408,1.764-.648a2.223,2.223,0,0,1,.408-.132c.264-.048.324-.156.324-.288.012-.192-.168-.42-.468-.672a1.42,1.42,0,0,0-.816-.4c-.192,0-.3.072-.3.12s.06.1.144.168c.144.12.264.264.264.324,0,.1-.036.132-.144.2a10.985,10.985,0,0,1-1.44.744,13.462,13.462,0,0,1-1.9.684c.012-.684.048-1.308.072-1.68s.06-.456.18-.576a.446.446,0,0,0,.156-.336c0-.2-.168-.42-.564-.648a1.822,1.822,0,0,0-.84-.312c-.168,0-.516.144-.516.228,0,.06.048.1.12.12a1.367,1.367,0,0,1,.432.192c.192.108.228.288.228.612,0,1.356-.024,2.7-.024,4.056a3.88,3.88,0,0,0,.1,1,1.3,1.3,0,0,0,.384.612c.3.276.864.432,2.028.432.624.012,1.308-.024,1.932-.072a6.829,6.829,0,0,0,.984-.12c.228-.06.4-.18.4-.372,0-.324-.264-.516-.78-.516a2.47,2.47,0,0,0-.636.12,11.345,11.345,0,0,1-2.328.216,2.386,2.386,0,0,1-1.068-.144.506.506,0,0,1-.252-.384,7.827,7.827,0,0,1-.036-.792C115.212,7.808,115.236,7.376,115.248,6.956Zm4.308-4.128a.123.123,0,0,0-.132.12.186.186,0,0,0,.084.12,4.153,4.153,0,0,1,1.008,1.152q.162.324.4.324a.334.334,0,0,0,.336-.36c0-.252-.168-.468-.456-.72a2.7,2.7,0,0,0-1.044-.6A.683.683,0,0,0,119.556,2.828Zm.972-.816a.12.12,0,0,0-.12.12.144.144,0,0,0,.084.12,3.659,3.659,0,0,1,1.1,1.128c.132.228.228.288.384.288a.341.341,0,0,0,.324-.384c0-.276-.264-.552-.552-.756a2.834,2.834,0,0,0-.96-.468A1.567,1.567,0,0,0,120.528,2.012Zm9.66,4.752a19.524,19.524,0,0,0,1.536-2.088,1.075,1.075,0,0,1,.5-.444c.24-.1.3-.144.3-.264,0-.144-.1-.276-.42-.576-.252-.228-.384-.288-.564-.288a.383.383,0,0,0-.288.132.647.647,0,0,1-.408.18c-.876.12-1.872.216-2.808.312-.348.036-.756.072-.948.072-.264,0-.48-.156-.792-.456-.072-.072-.156-.144-.2-.144s-.12.132-.12.252a1.182,1.182,0,0,0,.324.684,1.146,1.146,0,0,0,.744.552.6.6,0,0,0,.348-.12,1.566,1.566,0,0,1,.492-.156,30.474,30.474,0,0,1,3.132-.456c.072,0,.1,0,.1.024s-.012.048-.048.108A15.034,15.034,0,0,1,128.8,7.136a15.107,15.107,0,0,1-3.888,2.94.208.208,0,0,0-.12.168.153.153,0,0,0,.132.144.994.994,0,0,0,.324-.084,11.323,11.323,0,0,0,2.34-1.224,12.341,12.341,0,0,0,2.34-2.028,8.739,8.739,0,0,1,2.844,2.664c.192.264.348.372.516.372a.463.463,0,0,0,.492-.5,2,2,0,0,0-.744-1.128A9.214,9.214,0,0,0,130.188,6.764Zm12.6-2.88A5.138,5.138,0,0,0,141.12,5.6a3.83,3.83,0,0,0-.54,2.052,2.9,2.9,0,0,0,1.284,2.376,5.342,5.342,0,0,0,2.808.888c.5,0,.636-.144.636-.348a.546.546,0,0,0-.324-.516,1.6,1.6,0,0,0-.828-.2,4.086,4.086,0,0,1-2.2-.732,2.262,2.262,0,0,1-.828-1.8,3.459,3.459,0,0,1,.948-2.328,3.859,3.859,0,0,1,1.728-1.116,7.709,7.709,0,0,1,2.112-.264c.3-.012.432-.12.42-.372,0-.18-.156-.3-.324-.372a1.935,1.935,0,0,0-.78-.2.819.819,0,0,0-.408.12,1.437,1.437,0,0,1-.468.18c-1.764.456-3.564.924-5.3,1.368a4.268,4.268,0,0,1-.72.132,1.063,1.063,0,0,1-.9-.42.245.245,0,0,0-.156-.1c-.06,0-.108.132-.108.3a1.284,1.284,0,0,0,.36.672c.312.36.6.516.8.5a.444.444,0,0,0,.324-.12,1.662,1.662,0,0,1,.516-.276c.924-.324,2.28-.78,3.6-1.188ZM144.576,5.4a.123.123,0,0,0-.132.12.186.186,0,0,0,.084.12,4.153,4.153,0,0,1,1.008,1.152q.162.324.4.324a.334.334,0,0,0,.336-.36c0-.252-.168-.468-.456-.72a2.7,2.7,0,0,0-1.044-.6A.683.683,0,0,0,144.576,5.4Zm.972-.816a.12.12,0,0,0-.12.12.144.144,0,0,0,.084.12,3.659,3.659,0,0,1,1.1,1.128c.132.228.228.288.384.288a.341.341,0,0,0,.324-.384c0-.276-.264-.552-.552-.756a2.834,2.834,0,0,0-.96-.468A1.567,1.567,0,0,0,145.548,4.58Zm5.9,1.884c.3-.12.36-.192.36-.288s-.084-.168-.492-.24a14.427,14.427,0,0,0,1.1-1.368c.4,0,.528-.06.528-.216,0-.12-.18-.228-1.164-.7a6.9,6.9,0,0,1-.564,1.188,11.788,11.788,0,0,1-2.34,2.748c-.06.06.048.192.12.156a9.413,9.413,0,0,0,1.608-1.14c0,.5-.012,1.008-.012,1.5-.036,2.388-.072,3.252-.072,3.492,0,.264.156.372.408.372.348,0,.528-.144.528-.42,0-.348-.012-1.488-.012-3.744ZM157.38,5.24h2.34c.108,0,.156-.036.156-.108s-.06-.156-.312-.372c-.54-.444-.636-.5-.708-.5s-.168.06-.7.684h-4.452a4.5,4.5,0,0,1-.936-.1l.12.468a5.127,5.127,0,0,1,.816-.072h2.76v5.316c0,.192-.06.252-.24.252-.348,0-.924-.036-1.656-.1-.084-.012-.1.168-.012.18,1.152.228,1.392.372,1.452.732.036.216.06.228.24.228a1.364,1.364,0,0,0,.8-.252.936.936,0,0,0,.372-.768c0-.648-.048-1.284-.048-2.724Zm-3.96-2.82a4.734,4.734,0,0,1,.792-.072H159.1c.132,0,.168-.036.168-.12s-.048-.144-.3-.348c-.552-.444-.636-.5-.72-.5s-.156.06-.7.672h-3.336a5.278,5.278,0,0,1-.924-.084Zm-4.38,2.172a8.973,8.973,0,0,0,3.216-2.748c.456.012.552-.048.552-.168s-.312-.348-1.176-.756a4.727,4.727,0,0,1-.612,1.2,10.59,10.59,0,0,1-2.088,2.316C148.872,4.484,148.968,4.628,149.04,4.592Zm18.744.876a4.792,4.792,0,0,0-1.944.492c-.636.276-1.284.624-1.944.948a.909.909,0,0,1-.4.1c-.156,0-.3-.132-.516-.324-.072-.072-.12-.12-.168-.12s-.108.072-.108.24a1.044,1.044,0,0,0,.3.636,1.3,1.3,0,0,0,.828.528.412.412,0,0,0,.336-.18,2.624,2.624,0,0,1,.516-.48,15.784,15.784,0,0,1,1.476-.948,3.5,3.5,0,0,1,1.6-.444,1.549,1.549,0,0,1,1.716,1.608,2.231,2.231,0,0,1-1.3,1.908,8.36,8.36,0,0,1-2.748.936.212.212,0,0,0-.192.2c0,.072.072.144.2.144a2.818,2.818,0,0,0,.312-.012,8.522,8.522,0,0,0,3.192-.912,2.424,2.424,0,0,0,1.416-2.124A2.3,2.3,0,0,0,167.784,5.468Zm11.5-1.656a5.138,5.138,0,0,0-1.668,1.716,3.831,3.831,0,0,0-.54,2.052,2.9,2.9,0,0,0,1.284,2.376,5.342,5.342,0,0,0,2.808.888c.5,0,.636-.144.636-.348a.546.546,0,0,0-.324-.516,1.6,1.6,0,0,0-.828-.2,4.086,4.086,0,0,1-2.2-.732,2.262,2.262,0,0,1-.828-1.8,3.459,3.459,0,0,1,.948-2.328A3.859,3.859,0,0,1,180.3,3.8a7.709,7.709,0,0,1,2.112-.264c.3-.012.432-.12.42-.372,0-.18-.156-.3-.324-.372a1.935,1.935,0,0,0-.78-.2.819.819,0,0,0-.408.12,1.437,1.437,0,0,1-.468.18c-1.764.456-3.564.924-5.3,1.368a4.269,4.269,0,0,1-.72.132,1.063,1.063,0,0,1-.9-.42.245.245,0,0,0-.156-.1c-.06,0-.108.132-.108.3a1.284,1.284,0,0,0,.36.672c.312.36.6.516.8.5a.444.444,0,0,0,.324-.12,1.662,1.662,0,0,1,.516-.276c.924-.324,2.28-.78,3.6-1.188Zm14.736.276a2.057,2.057,0,0,0-1.212.4.192.192,0,0,0-.1.168.12.12,0,0,0,.12.12.514.514,0,0,0,.156-.06,1.729,1.729,0,0,1,.72-.192,1.51,1.51,0,0,1,1.128.528.219.219,0,0,1,.06.132.154.154,0,0,1-.048.12,7.01,7.01,0,0,1-.768.6c-.072.048-.1.084-.1.132a.1.1,0,0,0,.1.1.528.528,0,0,0,.12-.024c.192-.06.36-.132.6-.216a1.454,1.454,0,0,1,.348-.084.43.43,0,0,1,.276.1.367.367,0,0,0,.24.084.346.346,0,0,0,.36-.36,1.274,1.274,0,0,0-.576-1A2.522,2.522,0,0,0,194.016,4.088Zm-4.86.468a6.3,6.3,0,0,1-1.4.2,1.1,1.1,0,0,1-.864-.468.207.207,0,0,0-.156-.1.118.118,0,0,0-.108.12,1.017,1.017,0,0,0,.18.444,1.22,1.22,0,0,0,1.032.588,6.78,6.78,0,0,0,1.32-.156c-.012.756-.036,1.488-.036,2.4-.732.444-1.368.876-2.2,1.344a.858.858,0,0,1-.384.132.28.28,0,0,1-.18-.084.717.717,0,0,1-.18-.252.173.173,0,0,0-.12-.084c-.072,0-.108.12-.108.276a1.064,1.064,0,0,0,.456.828.852.852,0,0,0,.492.24.276.276,0,0,0,.264-.168,1.357,1.357,0,0,1,.384-.4,14,14,0,0,1,1.092.888.883.883,0,0,1,.312.42c.06.24.156.312.324.312.192,0,.324-.144.468-.576a1.674,1.674,0,0,0,.084-.528c0-.06-.012-.312-.024-.456-.024-.42-.048-1.02-.06-1.62.3-.18.624-.36.936-.54a3.776,3.776,0,0,1,1.692-.552,1.6,1.6,0,0,1,1.092.324,1.238,1.238,0,0,1,.456.96,1.268,1.268,0,0,1-.408,1.044,1.659,1.659,0,0,1-1.152.4,2.469,2.469,0,0,1-1.692-.672.183.183,0,0,0-.144-.072.1.1,0,0,0-.1.1.368.368,0,0,0,.048.18,2.525,2.525,0,0,0,2.208,1.068,2.266,2.266,0,0,0,1.452-.468,1.7,1.7,0,0,0,.66-1.344,1.734,1.734,0,0,0-.708-1.38,2.543,2.543,0,0,0-1.6-.516,5.462,5.462,0,0,0-2.76.876c-.012-.756.012-1.512.036-2.232a10.02,10.02,0,0,0,1.9-.684.352.352,0,0,0,.228-.324c0-.2-.2-.348-.468-.348a1.029,1.029,0,0,0-.7.228,3.462,3.462,0,0,1-.948.456,4.924,4.924,0,0,1,.084-.912.644.644,0,0,1,.228-.36.287.287,0,0,0,.12-.252c0-.18-.192-.384-.492-.564a1.578,1.578,0,0,0-.78-.264.851.851,0,0,0-.516.156c-.1.072-.12.12-.12.168s.06.06.156.072a1.762,1.762,0,0,1,.348.06.407.407,0,0,1,.276.216,2.1,2.1,0,0,1,.072.816Zm-.036,5.016c0,.18-.024.228-.12.228a1.155,1.155,0,0,1-.372-.12,5.463,5.463,0,0,1-.828-.456c.384-.3.864-.684,1.32-1.02Zm12.36-2.784c-.024-.324-.036-.552-.036-.66a8.26,8.26,0,0,1,.444-2.568.923.923,0,0,1,.18-.348.565.565,0,0,0,.12-.336,1.446,1.446,0,0,0-.276-.78,1.329,1.329,0,0,0-.768-.66c-.084,0-.216.036-.216.1s.048.072.084.12a1.408,1.408,0,0,1,.324.828,5.37,5.37,0,0,1-.132.984,14.474,14.474,0,0,0-.348,2.664,5.452,5.452,0,0,0,.168,1.44c.132.5.384.828.672.828.192,0,.336-.12.336-.4,0-.084-.012-.192-.024-.312a1.8,1.8,0,0,1-.036-.348,5.167,5.167,0,0,1,.216-1.188,9.152,9.152,0,0,1,1-2.6c.2-.264.408-.444.636-.444.3,0,.492.216.708.78a6.178,6.178,0,0,1,.24,2.04,5.365,5.365,0,0,1-.924,3.288,5.7,5.7,0,0,1-2.5,1.992c-.12.048-.156.108-.156.156,0,.084.048.12.144.12a1.158,1.158,0,0,0,.288-.048,5.675,5.675,0,0,0,2.9-1.908,5.327,5.327,0,0,0,1.1-3.576,5.519,5.519,0,0,0-.516-2.364,1.45,1.45,0,0,0-1.188-.912,1.153,1.153,0,0,0-.912.516,8.183,8.183,0,0,0-.936,1.9c-.168.5-.348.972-.528,1.7Zm14.628,3.036A8.188,8.188,0,0,1,218.4,11.2a.613.613,0,0,0,.42.156.422.422,0,0,0,.372-.456.7.7,0,0,0-.4-.588,9.42,9.42,0,0,0-2.748-1.188c-.036-.66-.084-1.536-.1-2.22a9.894,9.894,0,0,0,2.112-.516c.276-.108.408-.228.408-.408s-.2-.312-.564-.312a.88.88,0,0,0-.516.144,1.409,1.409,0,0,1-.384.216,6.873,6.873,0,0,1-1.068.24c0-.648,0-1.212.012-1.836a24.887,24.887,0,0,0,2.508-.456c.528-.12.66-.216.66-.432,0-.276-.444-.408-.744-.408a.969.969,0,0,0-.54.132,2.063,2.063,0,0,1-.576.228,12.511,12.511,0,0,1-1.308.276c0-.228.012-.468.048-.852a.552.552,0,0,1,.192-.408.355.355,0,0,0,.144-.288c0-.132-.12-.348-.48-.552a1.681,1.681,0,0,0-.8-.264.844.844,0,0,0-.444.132c-.108.072-.168.12-.168.192a.086.086,0,0,0,.084.1,2.61,2.61,0,0,1,.3.012.569.569,0,0,1,.324.144c.1.1.108.216.12.5.012.372.012.972.012,1.392a18.622,18.622,0,0,1-2.328.216,2.16,2.16,0,0,1-1.392-.408.208.208,0,0,0-.144-.06.1.1,0,0,0-.1.084.29.29,0,0,0,.048.156,1.777,1.777,0,0,0,1.668.816,17.7,17.7,0,0,0,2.268-.156c.012.648.024,1.188.024,1.836-.384.036-.888.06-1.272.06-.732,0-.96-.144-.96-.444a.74.74,0,0,1,.06-.324A.458.458,0,0,0,213.2,5.5c0-.048-.06-.084-.108-.084s-.12.048-.18.132a1.069,1.069,0,0,0-.2.648c0,.516.444.828,1.572.828.324,0,.78-.012,1.056-.036.012.6.012,1.32.024,2a9.493,9.493,0,0,0-1.224-.084c-.864,0-1.944.324-1.944,1.236,0,.864,1,1.26,2,1.26a2.134,2.134,0,0,0,1.44-.384,1.3,1.3,0,0,0,.468-1.092Zm-.744-.2a1.113,1.113,0,0,1-.264.876,1.491,1.491,0,0,1-1.08.3c-.7,0-1.4-.18-1.4-.7s.7-.7,1.26-.7A5.938,5.938,0,0,1,215.364,9.62Zm13.488-5.808c.012-.372.024-.66.036-.888a.523.523,0,0,1,.132-.348.467.467,0,0,0,.156-.336c0-.144-.1-.252-.336-.432a1.528,1.528,0,0,0-.876-.36,1.031,1.031,0,0,0-.6.24c-.084.072-.108.108-.108.18,0,.048.048.072.12.072a3.3,3.3,0,0,1,.348.036.373.373,0,0,1,.336.192,1.663,1.663,0,0,1,.072.528c.012.42.012.732.012,1.176-1.1.132-2.316.312-3.468.5a4.395,4.395,0,0,1-.768.1c-.348,0-.528-.1-.9-.456a.13.13,0,0,0-.084-.036c-.06,0-.1.084-.1.228a1.237,1.237,0,0,0,.492.78,1.092,1.092,0,0,0,.708.348.609.609,0,0,0,.348-.12,2.6,2.6,0,0,1,.816-.288,23.9,23.9,0,0,1,2.964-.528c.012.516.024,1,.024,1.512a1.432,1.432,0,0,0-.768-.192,1.411,1.411,0,0,0-1.356,1.464,1.3,1.3,0,0,0,1.308,1.476,1.233,1.233,0,0,0,.828-.276,3.253,3.253,0,0,1-1.14,1.752,6.564,6.564,0,0,1-1.92,1.116c-.12.048-.156.108-.156.168s.06.132.168.132a1.491,1.491,0,0,0,.372-.072,6.729,6.729,0,0,0,2.052-.96,3.347,3.347,0,0,0,1.44-2.688,3.591,3.591,0,0,0-.2-1.32c0-.684.012-1.308.024-2.184.66-.048,1.236-.048,1.872-.048a8.167,8.167,0,0,1,1.452.132,3.907,3.907,0,0,0,.636.108.285.285,0,0,0,.276-.3.516.516,0,0,0-.3-.444,2.166,2.166,0,0,0-.936-.312.851.851,0,0,0-.372.084,1.488,1.488,0,0,1-.612.12C230.244,3.7,229.584,3.74,228.852,3.812ZM227.376,6.08c.564,0,.828.456.864.984-.012.576-.324.924-.828.924a.813.813,0,0,1-.84-.888C226.572,6.416,226.956,6.08,227.376,6.08Zm12.588-2.832a5.224,5.224,0,0,1,.636-.024,3.476,3.476,0,0,1,2.232.78A3.028,3.028,0,0,1,243.84,6.3a3.39,3.39,0,0,1-1.08,2.484A6.67,6.67,0,0,1,239.5,10.3c-.156.036-.216.072-.216.168a.169.169,0,0,0,.168.144,7.161,7.161,0,0,0,4-1.344,3.393,3.393,0,0,0,1.3-2.808,3.426,3.426,0,0,0-1.332-2.724,4.414,4.414,0,0,0-2.784-.924,5.129,5.129,0,0,0-3.84,1.572,4.366,4.366,0,0,0-1.128,2.832A2.636,2.636,0,0,0,236.208,9a1.107,1.107,0,0,0,.9.48,1.607,1.607,0,0,0,1.212-.78,12.084,12.084,0,0,0,1.716-3.108,4.794,4.794,0,0,0,.312-1.4A1.4,1.4,0,0,0,239.964,3.248Zm-.324.036a.744.744,0,0,1,.192.552,2.626,2.626,0,0,1-.168.948,12.751,12.751,0,0,1-1.716,3.12c-.348.468-.588.684-.84.684a.673.673,0,0,1-.564-.408,2.071,2.071,0,0,1-.264-1.116,3.741,3.741,0,0,1,1.044-2.592A4.234,4.234,0,0,1,239.64,3.284Zm13.788.6A5.138,5.138,0,0,0,251.76,5.6a3.83,3.83,0,0,0-.54,2.052,2.9,2.9,0,0,0,1.284,2.376,5.342,5.342,0,0,0,2.808.888c.5,0,.636-.144.636-.348a.546.546,0,0,0-.324-.516,1.6,1.6,0,0,0-.828-.2,4.086,4.086,0,0,1-2.2-.732,2.262,2.262,0,0,1-.828-1.8,3.459,3.459,0,0,1,.948-2.328,3.859,3.859,0,0,1,1.728-1.116,7.709,7.709,0,0,1,2.112-.264c.3-.012.432-.12.42-.372,0-.18-.156-.3-.324-.372a1.935,1.935,0,0,0-.78-.2.819.819,0,0,0-.408.12,1.437,1.437,0,0,1-.468.18c-1.764.456-3.564.924-5.3,1.368a4.268,4.268,0,0,1-.72.132,1.063,1.063,0,0,1-.9-.42.245.245,0,0,0-.156-.1c-.06,0-.108.132-.108.3a1.284,1.284,0,0,0,.36.672c.312.36.6.516.8.5a.444.444,0,0,0,.324-.12,1.662,1.662,0,0,1,.516-.276c.924-.324,2.28-.78,3.6-1.188ZM255.216,5.4a.123.123,0,0,0-.132.12.186.186,0,0,0,.084.12,4.152,4.152,0,0,1,1.008,1.152q.162.324.4.324a.334.334,0,0,0,.336-.36c0-.252-.168-.468-.456-.72a2.7,2.7,0,0,0-1.044-.6A.683.683,0,0,0,255.216,5.4Zm.972-.816a.12.12,0,0,0-.12.12.144.144,0,0,0,.084.12,3.66,3.66,0,0,1,1.1,1.128c.132.228.228.288.384.288a.341.341,0,0,0,.324-.384c0-.276-.264-.552-.552-.756a2.834,2.834,0,0,0-.96-.468A1.567,1.567,0,0,0,256.188,4.58ZM259.8,8.924a.117.117,0,0,0-.132.12.162.162,0,0,0,.06.144,4.025,4.025,0,0,1,1.776,2.136c.132.288.264.516.588.516a.621.621,0,0,0,.624-.66,1.748,1.748,0,0,0-.78-1.344A4.685,4.685,0,0,0,259.8,8.924Zm12.216-5.976a5.153,5.153,0,0,1,.936-.072h4.092c-.072.492-.156.96-.252,1.392h-.648a4.312,4.312,0,0,0-.96-.42c.048.576.06,1.128.06,2.244,0,2.568-.06,3.348-.06,3.78,0,.2.1.3.348.3.372,0,.54-.108.54-.36V9.5h3.852v.24c0,.216.108.3.372.3.336,0,.516-.108.516-.372,0-.336-.06-1.2-.06-3.42v-1.4c.264-.168.348-.252.348-.348,0-.072-.048-.156-.24-.288-.372-.3-.444-.336-.528-.336s-.132.036-.48.4h-2.388c.168-.468.312-.9.444-1.392h4.68c.12,0,.156-.048.156-.12s-.06-.144-.324-.348c-.576-.468-.672-.528-.744-.528s-.168.06-.708.7H277.98c.084-.288.156-.6.24-.96.36-.072.432-.144.432-.276s-.2-.216-1.392-.408a8.422,8.422,0,0,1-.072.924l-.1.72h-4.164a6.393,6.393,0,0,1-1.032-.084ZM276.072,9.2V7.8h3.852V9.2Zm3.852-4.632V5.9h-3.852V4.568Zm0,1.632V7.5h-3.852V6.2Zm-6.276-1.368c.348-.144.408-.228.408-.324,0-.168-.12-.2-1.356-.348a23.3,23.3,0,0,1,.072,2.652c0,3.36-.06,4.5-.06,4.884,0,.24.108.336.372.336.384,0,.564-.12.564-.4V11.2H282.8c.12,0,.156-.036.156-.12s-.06-.144-.324-.36c-.576-.456-.672-.516-.744-.516s-.168.06-.732.7h-7.512Zm21.336,2.892c.12,0,.156-.048.156-.12s-.048-.156-.264-.348c-.492-.408-.576-.456-.66-.456s-.156.048-.612.624h-3.132c.132-.228.252-.468.384-.72.36-.048.432-.12.432-.228s-.264-.24-1.092-.456a6.078,6.078,0,0,1-.36.912c-.072.156-.168.324-.264.492h-1.308a4.561,4.561,0,0,1-.864-.084l.12.456a3.448,3.448,0,0,1,.744-.072h1.14a12.513,12.513,0,0,1-1.116,1.668c-.108.132-.156.216-.156.276,0,.108.264.216.54.216a.438.438,0,0,0,.36-.144l.36-.5c.516.192,1.008.408,1.5.648a7.813,7.813,0,0,1-3.768,1.824c-.084.024-.036.192.048.18a7.586,7.586,0,0,0,4.4-1.644,9.942,9.942,0,0,1,1.728,1.284c.288.276.42.36.564.36a.423.423,0,0,0,.4-.456c0-.552-.8-1.152-2.208-1.668a6.59,6.59,0,0,0,1.188-2.04Zm-2.7,0a5.705,5.705,0,0,1-1.02,1.776,17.831,17.831,0,0,0-1.752-.444c.288-.432.552-.876.8-1.332Zm-.84-5.04V1.592c.3-.12.384-.2.384-.3,0-.12-.132-.2-1.284-.324a6.068,6.068,0,0,1,.06.9v.816h-1.7a5.212,5.212,0,0,1-.936-.084l.12.456a4.29,4.29,0,0,1,.828-.072h5.76c.12,0,.168-.036.168-.12s-.06-.156-.264-.336c-.48-.4-.564-.444-.648-.444s-.156.048-.612.6Zm-4.908,4.308q.63-.306,1.26-.684c.048-.036.012-.168-.048-.144-.408.132-.816.252-1.212.348V3.92h1.536c.12,0,.156-.048.156-.12s-.06-.168-.216-.312c-.4-.348-.48-.408-.564-.408s-.156.06-.54.54h-.372v-2c.324-.132.4-.216.4-.312,0-.144-.12-.192-1.308-.336A16.026,16.026,0,0,1,285.7,3.26v.36h-.744a3.6,3.6,0,0,1-.78-.084l.12.456a2.853,2.853,0,0,1,.672-.072h.732v2.8c-.312.072-.624.12-.912.168-.24.036-.444.06-.672.084.336,1.08.4,1.164.516,1.164s.18-.1.228-.42c.288-.108.564-.216.84-.336v3.4c0,.144-.048.192-.2.192-.192,0-.54-.012-1.116-.048-.06,0-.06.144,0,.156.828.192.948.312,1,.7.024.156.06.2.192.2a1.013,1.013,0,0,0,.7-.264.923.923,0,0,0,.3-.756c0-.456-.024-.912-.024-3.648ZM291.888,5.5A12.077,12.077,0,0,0,293.1,3.98c.36-.012.444-.072.444-.18s-.132-.2-1.176-.564a4.429,4.429,0,0,1-.216.876,12.151,12.151,0,0,1-.6,1.392H288.42a4.479,4.479,0,0,1-.948-.084l.12.468a4.655,4.655,0,0,1,.864-.084h6.624c.12,0,.168-.036.168-.108s-.06-.156-.276-.348c-.492-.384-.588-.432-.66-.432s-.168.048-.612.588Zm-2.052-.276a.537.537,0,0,0,.492-.588c0-.5-.48-1.02-1.3-1.368-.048-.024-.12.036-.1.072a3.841,3.841,0,0,1,.528,1.38C289.524,5.1,289.62,5.228,289.836,5.228ZM5.9,30.38H9.456v.552c0,.216.108.312.372.312.348,0,.54-.132.54-.384,0-.444-.06-1.86-.06-4.908V24.14c.276-.168.336-.24.336-.36,0-.084-.036-.156-.228-.3-.4-.336-.468-.384-.552-.384s-.132.048-.516.468H6.012a6.778,6.778,0,0,0-1.02-.516c.06.96.072,1.5.072,3.336,0,3.24-.06,4.2-.06,4.584,0,.216.12.312.372.312.336,0,.528-.12.528-.372Zm0-3.324H9.456V30.08H5.9Zm3.552-.3H5.9V23.864H9.456ZM3.1,28.568c.444-.24.924-.528,1.476-.9.072-.048,0-.2-.072-.168-.5.2-.96.384-1.4.528V25.676H4.548c.12,0,.156-.036.156-.12s-.06-.156-.2-.288c-.4-.372-.48-.432-.552-.432s-.168.06-.552.54H3.1V23.264c.312-.12.4-.2.4-.312,0-.18-.24-.252-1.32-.372a16.249,16.249,0,0,1,.072,2.3v.492H1.416a3.817,3.817,0,0,1-.8-.084l.12.456a3.013,3.013,0,0,1,.684-.072h.828V28.3c-.288.084-.576.156-.852.228a6.513,6.513,0,0,1-.816.156c.348,1.032.42,1.14.54,1.14s.168-.108.216-.432c.324-.144.624-.264.912-.408V32.36c0,.144-.048.192-.192.192-.312,0-.672-.024-1.3-.06-.06,0-.06.144,0,.156.9.192,1.044.312,1.08.66.024.156.072.228.168.228a1.321,1.321,0,0,0,.732-.2.873.873,0,0,0,.384-.792c0-.444-.024-.924-.024-3.72Zm.732,4.284a4.334,4.334,0,0,1,.756-.072h6.864c.12,0,.156-.036.156-.108s-.06-.156-.312-.36c-.564-.48-.66-.528-.732-.528s-.168.048-.708.7H4.584a3.852,3.852,0,0,1-.876-.084Zm14.736-5.316V23.372c.324-.132.42-.216.42-.312,0-.132-.144-.228-1.368-.348a12.141,12.141,0,0,1,.06,1.44v3.384h-2.8a5.509,5.509,0,0,1-1.056-.084l.132.48a4.238,4.238,0,0,1,.948-.1h6.588V29.9h-6.36a4.993,4.993,0,0,1-1-.084l.144.468a4.217,4.217,0,0,1,.864-.084h6.348v2.292h-6.84a5.872,5.872,0,0,1-1-.084l.12.468a4.368,4.368,0,0,1,.888-.084h6.828v.348c0,.228.12.324.372.324.384,0,.564-.132.564-.4,0-.348-.06-1.452-.06-3.7V28.088c.312-.2.336-.252.336-.324s-.036-.156-.228-.3c-.4-.336-.48-.384-.552-.384s-.144.048-.528.456Zm-2.88-.864c.3,0,.5-.276.5-.672A3.505,3.505,0,0,0,14.2,23.612c-.036-.024-.108.06-.084.1a6.033,6.033,0,0,1,1.1,2.364C15.3,26.54,15.408,26.672,15.684,26.672Zm4.236.444a11.733,11.733,0,0,0,2.292-2.724c.42-.06.456-.108.456-.24s-.264-.3-1.224-.7a5.415,5.415,0,0,1-.3,1,13.31,13.31,0,0,1-1.356,2.556C19.752,27.068,19.86,27.164,19.92,27.116Zm14.988,1.92c-.66-.3-1.452-.672-2.316-1.164-.912-.516-1.836-1.092-2.556-1.524a1.3,1.3,0,0,0-.72-.264,1.042,1.042,0,0,0-.576.24q-1.08.846-1.836,1.4a.589.589,0,0,1-.336.144,1,1,0,0,1-.588-.336.215.215,0,0,0-.12-.072c-.048,0-.108.072-.108.264a1.035,1.035,0,0,0,.384.612,1.568,1.568,0,0,0,.876.54c.18,0,.276-.084.372-.264a4.6,4.6,0,0,1,.288-.372A16.766,16.766,0,0,1,28.92,26.96a.756.756,0,0,1,.42-.24,2.114,2.114,0,0,1,.78.408c.552.4,1.26.876,1.968,1.344.84.576,1.62,1.092,2.316,1.5a1.4,1.4,0,0,0,.744.276c.324,0,.528-.156.528-.456a.5.5,0,0,0-.18-.432A3.224,3.224,0,0,0,34.908,29.036Zm8.856-1.8a25.568,25.568,0,0,0,2.8-1.68,1.434,1.434,0,0,1,.672-.264c.228-.036.348-.108.348-.276,0-.228-.192-.432-.468-.672-.312-.276-.516-.4-.7-.4a.565.565,0,0,0-.312.132,1.329,1.329,0,0,1-.552.108c-1.524.132-3.06.264-4.584.408a10.254,10.254,0,0,1-1.212.072.965.965,0,0,1-.78-.408c-.06-.072-.12-.132-.192-.132-.048,0-.084.132-.084.276a1.032,1.032,0,0,0,.312.648,1.35,1.35,0,0,0,.816.552.579.579,0,0,0,.36-.132,3.688,3.688,0,0,1,.972-.24c.756-.132,1.62-.252,2.448-.336.948-.108,2.04-.18,2.388-.2.1,0,.144.012.144.048a.155.155,0,0,1-.06.132,14.119,14.119,0,0,1-2.256,1.9,1.842,1.842,0,0,1,.06-.36.768.768,0,0,0,.06-.2c0-.156-.072-.252-.252-.324a2.533,2.533,0,0,0-.936-.156.8.8,0,0,0-.42.1c-.108.072-.192.168-.192.228s.048.072.12.072a.989.989,0,0,1,.564.156.734.734,0,0,1,.1.468,7.95,7.95,0,0,1-.6,2.832,7.071,7.071,0,0,1-2.292,2.988c-.12.1-.168.156-.168.228a.142.142,0,0,0,.132.132.83.83,0,0,0,.36-.132A6.367,6.367,0,0,0,43,29.924,8.416,8.416,0,0,0,43.764,27.236Zm11.04-.024a9.431,9.431,0,0,0-1.944-.888,1.581,1.581,0,0,0-.3-.06c-.108,0-.192.06-.192.156,0,.072.024.12.12.168a10.692,10.692,0,0,1,1.944,1.26,16.544,16.544,0,0,1-1.992,2.484,14.911,14.911,0,0,1-2.472,2.016c-.108.072-.144.132-.144.2a.157.157,0,0,0,.144.156.927.927,0,0,0,.336-.12,11.452,11.452,0,0,0,2.46-1.632,13.765,13.765,0,0,0,2.28-2.556,6.812,6.812,0,0,1,.984,1.2c.168.252.312.348.48.348a.426.426,0,0,0,.42-.456,1.338,1.338,0,0,0-.4-.852,6.634,6.634,0,0,0-1.032-.972c.468-.8.78-1.416,1.128-2.148a1,1,0,0,1,.36-.492.418.418,0,0,0,.252-.36c0-.276-.264-.5-.576-.708a1.962,1.962,0,0,0-1.02-.42c-.18,0-.468.084-.48.156a.1.1,0,0,0,.072.132,2.168,2.168,0,0,1,.468.264.489.489,0,0,1,.24.384,2,2,0,0,1-.144.648A18.983,18.983,0,0,1,54.8,27.212Zm12.9.636a.792.792,0,0,1,.036-.288.357.357,0,0,0,.048-.216c0-.2-.132-.36-.684-.768.576-.588,1.044-1.14,1.548-1.752A.783.783,0,0,1,69,24.548c.168-.084.276-.168.276-.348,0-.216-.12-.336-.468-.576a2.523,2.523,0,0,0-1.056-.42c-.18,0-.4.072-.4.168,0,.072.084.12.24.216.264.156.36.3.36.4a.729.729,0,0,1-.156.4,20.744,20.744,0,0,1-1.812,2.292,25.829,25.829,0,0,1-3.54,3.264c-.132.1-.192.156-.192.228a.159.159,0,0,0,.156.18.615.615,0,0,0,.288-.108,19.338,19.338,0,0,0,4.08-3.324c.108.132.132.264.132.624,0,1.26-.012,2.34-.024,3.348a2.947,2.947,0,0,1-.1.78.814.814,0,0,0-.06.3,1.368,1.368,0,0,0,.18.66.6.6,0,0,0,.48.336c.2,0,.336-.2.336-.468,0-.828-.024-1.956-.024-2.844Zm10.92-2.064a1.754,1.754,0,0,0,.624.156,4.294,4.294,0,0,0,.708-.1c.468-.1,1.128-.216,1.308-.228a.055.055,0,0,1,.06.048.371.371,0,0,1-.024.1,16.672,16.672,0,0,1-2.268,3.516,15.574,15.574,0,0,1-3.72,3.216c-.108.072-.156.12-.156.192a.167.167,0,0,0,.144.156.587.587,0,0,0,.228-.06,12.519,12.519,0,0,0,4.056-3.012,18.464,18.464,0,0,0,2.424-3.4.672.672,0,0,1,.384-.348c.156-.072.276-.156.276-.312,0-.192-.18-.36-.456-.576a1.26,1.26,0,0,0-.612-.324.392.392,0,0,0-.276.144.524.524,0,0,1-.276.156c-.408.072-.78.132-1.32.216a4.553,4.553,0,0,1-.684.072.684.684,0,0,1-.156-.012c.336-.456.4-.54.516-.612a.414.414,0,0,0,.24-.348c0-.18-.12-.324-.408-.516a2.223,2.223,0,0,0-.912-.42c-.216,0-.432.084-.432.144s.072.084.156.132c.312.18.432.336.432.468a1.915,1.915,0,0,1-.276.7,14.246,14.246,0,0,1-1.08,1.584A15.257,15.257,0,0,1,75.4,28.4c-.168.156-.276.276-.276.36a.149.149,0,0,0,.156.168.4.4,0,0,0,.228-.084,10.892,10.892,0,0,0,1.728-1.428A15.07,15.07,0,0,0,78.624,25.784Zm13.92-.084a9.824,9.824,0,0,0-.912,1.008.221.221,0,0,0-.072.156.141.141,0,0,0,.12.108.183.183,0,0,0,.144-.072,4.769,4.769,0,0,1,1.272-.96,2.05,2.05,0,0,1,.768-.132c.192,0,.516.036.684.036.312,0,.48-.06.48-.36,0-.264-.168-.528-1-.528a6.88,6.88,0,0,0-1.812.228,6.37,6.37,0,0,0-1.62.72c-.1.06-.144.108-.144.192a.136.136,0,0,0,.144.132.515.515,0,0,0,.18-.06,8.2,8.2,0,0,1,1.68-.528C92.568,25.616,92.58,25.664,92.544,25.7Zm-2.292,3.948a1.832,1.832,0,0,0,.6,1.4,4.384,4.384,0,0,0,2.892.72,6.688,6.688,0,0,0,1.668-.156.359.359,0,0,0,.3-.36.471.471,0,0,0-.324-.408,1.757,1.757,0,0,0-.492-.1,1.9,1.9,0,0,0-.456.06,3.476,3.476,0,0,1-.444.1,5.633,5.633,0,0,1-.852.048,3.337,3.337,0,0,1-2.052-.492,1.357,1.357,0,0,1-.444-1.128,4.021,4.021,0,0,1,.12-.792c0-.072-.06-.108-.132-.108s-.1.036-.144.12A2.688,2.688,0,0,0,90.252,29.648Zm-1.284-1.44c-.288.744-.576,1.524-.852,2.232-.024.06-.06.084-.084.084s-.072-.024-.084-.084a4.023,4.023,0,0,1-.084-.972,9.838,9.838,0,0,1,.6-3.1,1.869,1.869,0,0,1,.276-.528.529.529,0,0,0,.168-.4,1.537,1.537,0,0,0-.324-.828,1.357,1.357,0,0,0-.876-.636.1.1,0,0,0-.108.084.162.162,0,0,0,.06.12,1.222,1.222,0,0,1,.36.852,5.109,5.109,0,0,1-.18.984,15.927,15.927,0,0,0-.54,3.528,6.561,6.561,0,0,0,.4,2.268c.18.432.336.564.552.564.156,0,.288-.1.288-.336,0-.168-.036-.564-.036-.78a3.631,3.631,0,0,1,.12-.768c.108-.468.336-1.224.624-2.184a.528.528,0,0,0,.024-.12.153.153,0,0,0-.144-.132C89.064,28.064,89,28.1,88.968,28.208Zm17.928-2.52a2.057,2.057,0,0,0-1.212.4.192.192,0,0,0-.1.168.12.12,0,0,0,.12.12.514.514,0,0,0,.156-.06,1.729,1.729,0,0,1,.72-.192,1.51,1.51,0,0,1,1.128.528.219.219,0,0,1,.06.132.154.154,0,0,1-.048.12,7.009,7.009,0,0,1-.768.6c-.072.048-.1.084-.1.132a.1.1,0,0,0,.1.1.528.528,0,0,0,.12-.024c.192-.06.36-.132.6-.216a1.454,1.454,0,0,1,.348-.084.43.43,0,0,1,.276.1.367.367,0,0,0,.24.084.346.346,0,0,0,.36-.36,1.274,1.274,0,0,0-.576-1A2.522,2.522,0,0,0,106.9,25.688Zm-4.86.468a6.3,6.3,0,0,1-1.4.2,1.1,1.1,0,0,1-.864-.468.206.206,0,0,0-.156-.1.118.118,0,0,0-.108.12,1.017,1.017,0,0,0,.18.444,1.22,1.22,0,0,0,1.032.588,6.78,6.78,0,0,0,1.32-.156c-.012.756-.036,1.488-.036,2.4-.732.444-1.368.876-2.2,1.344a.858.858,0,0,1-.384.132.28.28,0,0,1-.18-.084.717.717,0,0,1-.18-.252.173.173,0,0,0-.12-.084c-.072,0-.108.12-.108.276a1.064,1.064,0,0,0,.456.828.852.852,0,0,0,.492.24.276.276,0,0,0,.264-.168,1.358,1.358,0,0,1,.384-.4,14,14,0,0,1,1.092.888.883.883,0,0,1,.312.42c.06.24.156.312.324.312.192,0,.324-.144.468-.576a1.674,1.674,0,0,0,.084-.528c0-.06-.012-.312-.024-.456-.024-.42-.048-1.02-.06-1.62.3-.18.624-.36.936-.54a3.776,3.776,0,0,1,1.692-.552,1.6,1.6,0,0,1,1.092.324,1.238,1.238,0,0,1,.456.96,1.268,1.268,0,0,1-.408,1.044,1.659,1.659,0,0,1-1.152.4,2.469,2.469,0,0,1-1.692-.672.183.183,0,0,0-.144-.072.1.1,0,0,0-.1.1.368.368,0,0,0,.048.18,2.525,2.525,0,0,0,2.208,1.068,2.266,2.266,0,0,0,1.452-.468,1.7,1.7,0,0,0,.66-1.344,1.734,1.734,0,0,0-.708-1.38,2.543,2.543,0,0,0-1.6-.516,5.462,5.462,0,0,0-2.76.876c-.012-.756.012-1.512.036-2.232a10.019,10.019,0,0,0,1.9-.684.352.352,0,0,0,.228-.324c0-.2-.2-.348-.468-.348a1.029,1.029,0,0,0-.7.228,3.463,3.463,0,0,1-.948.456,4.922,4.922,0,0,1,.084-.912.644.644,0,0,1,.228-.36.287.287,0,0,0,.12-.252c0-.18-.192-.384-.492-.564a1.578,1.578,0,0,0-.78-.264.851.851,0,0,0-.516.156c-.1.072-.12.12-.12.168s.06.06.156.072a1.762,1.762,0,0,1,.348.06.407.407,0,0,1,.276.216,2.1,2.1,0,0,1,.072.816ZM102,31.172c0,.18-.024.228-.12.228a1.155,1.155,0,0,1-.372-.12,5.463,5.463,0,0,1-.828-.456c.384-.3.864-.684,1.32-1.02Zm10.68-6.42a6.108,6.108,0,0,0-1.092-.528c.06.72.06,1.38.06,2.64,0,2.328-.048,3.06-.048,3.48,0,.2.108.312.384.312.4,0,.576-.108.576-.4v-.42h2.964c-.024,2.172-.06,3.12-.06,3.4,0,.252.12.36.432.36.408,0,.576-.132.576-.432,0-.384-.024-1.152-.048-3.324h3.108v.468c0,.216.12.312.384.312.372,0,.552-.12.552-.384,0-.336-.048-1.428-.048-3.648V25.364c.324-.192.372-.276.372-.372,0-.072-.048-.144-.252-.312-.42-.372-.492-.408-.564-.408s-.144.036-.552.48h-3.012V23.24c.36-.144.42-.216.42-.312,0-.18-.144-.228-1.392-.348a17.152,17.152,0,0,1,.1,2.172Zm6.852,2.64V29.54h-3.108c0-.72-.012-1.428-.012-2.148Zm-4,0c0,.72,0,1.524-.012,2.148H112.56V27.392Zm.876-2.34h3.12v2.04h-3.12Zm-.876,0v2.04H112.56v-2.04Zm12.348,7.632a5.673,5.673,0,0,0,2.736-.756,7.206,7.206,0,0,0,2.2-1.968.344.344,0,0,0,.1-.24.131.131,0,0,0-.132-.108c-.048,0-.1.036-.156.1a8.248,8.248,0,0,1-1.884,1.416,6.572,6.572,0,0,1-2.688.78,1.678,1.678,0,0,1-1.044-.252,1.527,1.527,0,0,1-.3-1.14c0-.624.048-1.8.12-2.916.06-.96.132-1.692.2-2.268a.573.573,0,0,1,.168-.384.48.48,0,0,0,.168-.336.969.969,0,0,0-.432-.648,1.955,1.955,0,0,0-.972-.456,1.208,1.208,0,0,0-.432.072c-.1.036-.144.1-.144.156s.048.072.144.108a1.959,1.959,0,0,1,.42.192c.18.12.24.3.228.744-.024.96-.048,1.9-.084,2.844-.048,1.164-.1,2.3-.1,3.06C126,32.12,126.732,32.684,127.884,32.684Zm9.96-5.868c.312-.12.36-.192.36-.288,0-.132-.1-.168-.66-.276a14.11,14.11,0,0,0,1.308-2.844c.336-.048.456-.12.456-.252s-.444-.324-1.344-.552a9.072,9.072,0,0,1-.336,1.572,13.127,13.127,0,0,1-2.34,4.428c-.06.06.084.2.144.144a11.244,11.244,0,0,0,1.584-1.716c0,.744-.012,1.488-.012,2.232-.024,2.784-.072,3.636-.072,3.876,0,.3.1.384.42.384s.5-.144.5-.432c0-.4-.012-1.716-.012-4.56Zm5.184-.672v6.024c0,.156-.06.2-.2.2-.42,0-.924-.036-1.656-.084-.084,0-.084.18,0,.192,1.116.216,1.308.348,1.38.768.036.192.072.228.228.228a1.343,1.343,0,0,0,.768-.216.853.853,0,0,0,.42-.864c0-.516-.048-1.56-.048-4.284V26.144h2.208c.12,0,.156-.036.156-.12s-.048-.156-.3-.372c-.552-.432-.648-.48-.72-.48s-.168.048-.66.672h-.684V23.372c.336-.132.408-.216.408-.312,0-.156-.18-.216-1.368-.336a18.779,18.779,0,0,1,.072,2.352v.768H139.3a5.053,5.053,0,0,1-.912-.084l.12.444a4.707,4.707,0,0,1,.8-.06ZM141,30.164a.574.574,0,0,0,.516-.624A2.908,2.908,0,0,0,139.7,27.4c-.048-.024-.12.06-.084.108a4.547,4.547,0,0,1,.936,2.112C140.628,30.02,140.76,30.164,141,30.164Zm14.892-4.38c0-.36.012-.672.036-1.044a.5.5,0,0,1,.12-.336.338.338,0,0,0,.12-.252c0-.228-.168-.372-.5-.588a1.625,1.625,0,0,0-.756-.276.9.9,0,0,0-.54.156c-.132.084-.2.18-.2.24s.036.06.12.06.252,0,.384.012a.433.433,0,0,1,.336.18,1.621,1.621,0,0,1,.108.624c.024.54.036.888.036,1.368a11.745,11.745,0,0,1-1.92.24,1.735,1.735,0,0,1-.984-.264.231.231,0,0,0-.144-.048.119.119,0,0,0-.108.12.31.31,0,0,0,.1.2,1.7,1.7,0,0,0,1.32.552,4.766,4.766,0,0,0,.672-.048l1.068-.168c.012.432.012,1.1.012,1.5a5.889,5.889,0,0,1-.576,3,4.573,4.573,0,0,1-2.22,1.812.2.2,0,0,0-.144.168.12.12,0,0,0,.132.132.923.923,0,0,0,.312-.06,4.718,4.718,0,0,0,2.544-1.7,4.677,4.677,0,0,0,.7-2.9c0-.564,0-1.428-.012-2.064.264-.048.576-.084.864-.132s.576-.084.816-.12c.264-.036.408-.12.408-.312a.351.351,0,0,0-.276-.348,1.5,1.5,0,0,0-.516-.084.525.525,0,0,0-.3.108,1.261,1.261,0,0,1-.372.144C156.372,25.688,156.108,25.748,155.892,25.784Zm-6.348-2.148a.119.119,0,0,0-.12.1.361.361,0,0,0,.084.168,2.062,2.062,0,0,1,.312.948,5.1,5.1,0,0,1-.12.876,18.4,18.4,0,0,0-.4,3.252,4.976,4.976,0,0,0,.528,2.448c.168.312.348.48.564.48s.324-.156.324-.36c0-.18-.06-.5-.06-.756a3.072,3.072,0,0,1,.144-.828c.12-.468.36-1.332.54-1.992a.6.6,0,0,0,.036-.192.117.117,0,0,0-.132-.12c-.1,0-.156.072-.192.168-.264.732-.492,1.32-.828,2.22-.024.072-.072.132-.108.132s-.084-.036-.108-.108a4.344,4.344,0,0,1-.132-1.38,9.1,9.1,0,0,1,.5-2.7,3.141,3.141,0,0,1,.18-.468,1.15,1.15,0,0,0,.108-.444,1.565,1.565,0,0,0-.288-.792C150.18,24.008,149.8,23.636,149.544,23.636Zm16.128-.516c-.168,0-.3.06-.3.132,0,.048.036.06.144.144.288.2.456.384.456.516,0,.156-.108.324-.336.6-.432.516-.816.948-1.152,1.32-.612.7-1.032,1.164-1.368,1.572a.892.892,0,0,0-.276.66,1.128,1.128,0,0,0,.444.78,15.983,15.983,0,0,1,3.216,3.732c.2.36.336.5.528.5.252,0,.468-.2.468-.6,0-.3-.18-.6-.612-1.128a19.5,19.5,0,0,0-2.7-2.568c-.216-.18-.408-.348-.528-.456-.144-.144-.2-.24-.2-.348a.455.455,0,0,1,.156-.3c.408-.468,1-1.068,1.548-1.608.444-.42.912-.828,1.272-1.128a1.486,1.486,0,0,1,.42-.252.411.411,0,0,0,.276-.384c0-.192-.168-.4-.42-.66A1.747,1.747,0,0,0,165.672,23.12Zm14.52.708a.123.123,0,0,0-.132.12.186.186,0,0,0,.084.12,4.152,4.152,0,0,1,1.008,1.152q.162.324.4.324a.334.334,0,0,0,.336-.36c0-.252-.168-.468-.456-.72a2.7,2.7,0,0,0-1.044-.6A.683.683,0,0,0,180.192,23.828Zm.972-.816a.12.12,0,0,0-.12.12.145.145,0,0,0,.084.12,3.659,3.659,0,0,1,1.1,1.128c.132.228.228.288.384.288a.341.341,0,0,0,.324-.384c0-.276-.264-.552-.552-.756a2.834,2.834,0,0,0-.96-.468A1.567,1.567,0,0,0,181.164,23.012Zm-4.3,2.688a6.489,6.489,0,0,1,.276-.72,1.067,1.067,0,0,1,.348-.528.359.359,0,0,0,.156-.3c0-.108-.024-.216-.228-.372a2.278,2.278,0,0,0-1.08-.456.892.892,0,0,0-.456.132c-.048.024-.108.06-.108.12s.024.084.108.108a2.029,2.029,0,0,1,.48.156.339.339,0,0,1,.216.324,2.144,2.144,0,0,1-.1.588c-.084.324-.192.672-.336,1.14a8.339,8.339,0,0,1-1.7.324,1.712,1.712,0,0,1-1.02-.288.317.317,0,0,0-.18-.06.128.128,0,0,0-.108.12c0,.132.132.264.324.42a1.92,1.92,0,0,0,1.164.4,6.223,6.223,0,0,0,1.272-.18c-.7,1.824-1.4,3.516-2.244,5.22a1.133,1.133,0,0,0-.156.456.558.558,0,0,0,.12.324.428.428,0,0,0,.276.132c.192,0,.372-.108.492-.408.8-1.932,1.5-3.912,2.22-5.88a19.885,19.885,0,0,0,1.968-.648c.264-.1.4-.216.384-.42,0-.228-.24-.348-.432-.348a1.5,1.5,0,0,0-.432.132A12.039,12.039,0,0,1,176.868,25.7Zm.444,5.28a1.426,1.426,0,0,0,.636,1.248,3.976,3.976,0,0,0,2.34.564c.408,0,.972-.036,1.3-.072.408-.06.636-.168.636-.4a.433.433,0,0,0-.252-.408,1.221,1.221,0,0,0-.54-.12,1.446,1.446,0,0,0-.5.1,4.8,4.8,0,0,1-1.248.12,2.678,2.678,0,0,1-1.56-.408,1.029,1.029,0,0,1-.4-.84,2.162,2.162,0,0,1,.06-.552,1.081,1.081,0,0,0,.036-.192.093.093,0,0,0-.1-.084c-.072,0-.144.084-.216.216A1.684,1.684,0,0,0,177.312,30.98Zm2.76-3.444c.072,0,.084.036.036.072-.456.348-.864.72-1.14.972a.211.211,0,0,0-.084.132c0,.048.072.132.108.132a.316.316,0,0,0,.18-.072c.408-.252.876-.576,1.176-.756a.976.976,0,0,1,.492-.168,1.168,1.168,0,0,1,.384.084.727.727,0,0,0,.276.06.3.3,0,0,0,.336-.3c0-.264-.156-.372-.432-.492a3.642,3.642,0,0,0-1.4-.24,3.961,3.961,0,0,0-1.464.288,2.767,2.767,0,0,0-.8.492.189.189,0,0,0-.084.156.119.119,0,0,0,.12.1.541.541,0,0,0,.132-.036,4.6,4.6,0,0,1,1.524-.408A6.227,6.227,0,0,1,180.072,27.536Zm10.764-1.824a6.2,6.2,0,0,1-.3-1.248.71.71,0,0,1,.048-.324.483.483,0,0,0,.084-.24c0-.132-.072-.252-.264-.36a1.85,1.85,0,0,0-.936-.264,1.063,1.063,0,0,0-.588.228c-.132.1-.2.192-.2.264,0,.048.048.084.12.084s.228-.024.36-.024a.66.66,0,0,1,.312.06c.108.06.18.18.264.432.192.564.348,1.068.516,1.584a6.963,6.963,0,0,1-1.944.384,2.907,2.907,0,0,1-.9-.108,1.788,1.788,0,0,1-.6-.312.256.256,0,0,0-.156-.06.119.119,0,0,0-.108.12.351.351,0,0,0,.084.2,1.562,1.562,0,0,0,.732.576,2.519,2.519,0,0,0,1.08.192,7.5,7.5,0,0,0,2.064-.372,21.068,21.068,0,0,0,1.26,2.436,11.94,11.94,0,0,0-1.944-.18,3.616,3.616,0,0,0-1.836.444,1.625,1.625,0,0,0-.924,1.44,1.74,1.74,0,0,0,1.068,1.572,7.049,7.049,0,0,0,3.132.66c.8,0,1.008-.168,1.008-.468a.429.429,0,0,0-.288-.42,1.1,1.1,0,0,0-.492-.12,2.564,2.564,0,0,0-.408.036,3.611,3.611,0,0,1-.42.024,5.29,5.29,0,0,1-2.22-.4,1.184,1.184,0,0,1-.828-1.068,1.033,1.033,0,0,1,.468-.828,2.839,2.839,0,0,1,1.584-.408,5.488,5.488,0,0,1,1.524.228,1.854,1.854,0,0,1,.948.5c.2.216.336.3.456.3.228,0,.4-.12.4-.5a1.125,1.125,0,0,0-.252-.708,6.04,6.04,0,0,1-.5-.624,11.46,11.46,0,0,1-1.164-2.088,18.843,18.843,0,0,0,2.028-.816c.3-.144.384-.228.384-.384,0-.216-.144-.4-.5-.4a.952.952,0,0,0-.528.168,2.393,2.393,0,0,1-.456.288A10.714,10.714,0,0,1,190.836,25.712Zm13.608.2c-.084,0-.132.048-.132.108,0,.084.036.12.108.168a4.043,4.043,0,0,1,1.32,1.212,3.3,3.3,0,0,1,.6,1.488c0,.18-.06.24-.24.276-.264.048-.54.06-.876.1-.12.012-.216.036-.216.1,0,.084.048.12.192.156.288.072.54.132.744.192a.769.769,0,0,1,.468.336.355.355,0,0,0,.324.192.453.453,0,0,0,.348-.192,1.162,1.162,0,0,0,.18-.708,3.348,3.348,0,0,0-.444-1.524,3.952,3.952,0,0,0-1.308-1.4A3.232,3.232,0,0,0,204.444,25.916Zm-3.732,5.964c.276,0,.408-.168.4-.36a.862.862,0,0,0-.12-.348.607.607,0,0,1-.072-.3,1.79,1.79,0,0,1,.168-.588c.192-.492.624-1.44,1-2.208a.391.391,0,0,0,.048-.156.166.166,0,0,0-.144-.132.32.32,0,0,0-.2.156c-.5.8-1.02,1.68-1.38,2.268-.108.168-.192.228-.288.228-.168,0-.408-.216-.624-.756a5.031,5.031,0,0,1-.288-1.656,6.154,6.154,0,0,1,.18-1.716,1.093,1.093,0,0,0,.108-.372,1.378,1.378,0,0,0-.564-.936,1.6,1.6,0,0,0-.78-.4c-.1,0-.192.012-.192.072,0,.036.012.06.084.12a1.264,1.264,0,0,1,.48.78,13.044,13.044,0,0,1,.036,1.524A11.078,11.078,0,0,0,198.7,29.1a3.894,3.894,0,0,0,1.164,2.328A1.611,1.611,0,0,0,200.712,31.88ZM211.2,30.272a1.584,1.584,0,1,0,1.584,1.584A1.614,1.614,0,0,0,211.2,30.272Zm0,.42a1.164,1.164,0,1,1-1.164,1.164A1.189,1.189,0,0,1,211.2,30.692ZM5.6,49.772V48.344H9.18v.18c0,.264.1.36.372.36.348,0,.492-.132.492-.408,0-.144-.036-.552-.036-1.572v-.5c.252-.156.3-.216.3-.3s-.036-.156-.2-.3c-.384-.288-.456-.336-.528-.336-.1,0-.156.048-.48.408H6.948A6.414,6.414,0,0,0,7.8,44.816c.36-.072.468-.132.468-.264s-.168-.2-1.26-.468a5.6,5.6,0,0,1-.132.84,7.521,7.521,0,0,1-.288.948H5.7a11.2,11.2,0,0,0-1.008-.54,29.527,29.527,0,0,1,.084,2.976c0,3.276-.06,4.068-.06,4.62,0,.216.1.324.372.324.348,0,.516-.12.516-.408v-.372H9.492v.348c0,.264.1.348.372.348.348,0,.516-.12.516-.4,0-.156-.036-.6-.036-1.824v-.636c.276-.2.312-.252.312-.336s-.024-.144-.228-.312c-.372-.312-.456-.348-.528-.348s-.144.048-.528.456Zm0,.3H9.492v2.1H5.6ZM9.18,48.044H5.6V46.172H9.18Zm-6.6-1.272a.535.535,0,0,0,.492-.588c0-.564-.6-1.236-1.848-1.62-.06-.012-.132.072-.084.108a3.789,3.789,0,0,1,.972,1.56C2.232,46.664,2.364,46.772,2.58,46.772Zm.54,2.952c.288-.216.324-.264.324-.336s-.036-.144-.228-.312c-.384-.336-.456-.372-.54-.372s-.132.036-.5.456H1.428A5.084,5.084,0,0,1,.5,49.076l.12.468a3,3,0,0,1,.8-.084h.828v3.108a5.351,5.351,0,0,1-1.056.684,5.08,5.08,0,0,1-.744.3c.432.984.612,1.248.756,1.248s.2-.12.192-.54A8.1,8.1,0,0,0,2.82,52.508a3.164,3.164,0,0,0,1.14,1.6c.624.432,1.68.66,4.02.66,1,0,2.34-.024,2.988-.084.192-.012.228-.048.252-.312a.642.642,0,0,1,.42-.552c.048-.024.036-.156-.024-.144a34.816,34.816,0,0,1-4.176.276,8.4,8.4,0,0,1-3.252-.384A2.2,2.2,0,0,1,3.12,52.556Zm17.052,3.852H22.26v.72c0,.264.12.372.408.372.36,0,.528-.144.528-.456,0-.456-.048-2-.048-5.316V46.868c.276-.192.324-.264.324-.36,0-.072-.048-.156-.216-.3-.408-.348-.48-.384-.552-.384s-.144.036-.516.468H20.28a6.821,6.821,0,0,0-1.08-.516c.1.972.1,1.968.1,3.96,0,3.288-.06,4.116-.06,4.62,0,.24.132.348.408.348.348,0,.528-.144.528-.444Zm2.088-.3H20.172V46.592H22.26Zm-6.54-6.36c.024-.612.036-1.272.048-1.992.288-.12.372-.192.372-.3,0-.168-.2-.228-1.308-.372a6.278,6.278,0,0,1,.048.852c0,.648-.012,1.248-.024,1.812H13.92a5.868,5.868,0,0,1-1.02-.1l.132.48a4.366,4.366,0,0,1,.912-.084h.9c-.156,3.708-.768,5.664-2.256,7.488-.048.06.084.156.144.108,1.944-1.62,2.748-3.588,2.964-7.6H17.28a34.4,34.4,0,0,1-.444,5.532c-.156.72-.264,1-.588,1A8.29,8.29,0,0,1,14.9,53.6c-.072-.012-.084.144-.012.168.792.24.984.42,1.02.78.024.156.072.192.264.192a1.512,1.512,0,0,0,.756-.216,1.844,1.844,0,0,0,.66-1.2,35.364,35.364,0,0,0,.552-5.844c.24-.156.288-.216.288-.3s-.036-.132-.192-.3c-.42-.4-.48-.42-.564-.42s-.108.024-.48.456ZM28.272,48.56h1.992c.12,0,.156-.036.156-.12s-.06-.168-.228-.312c-.42-.36-.5-.42-.576-.42s-.168.06-.54.552h-.8V44.84c.324-.132.4-.2.4-.3,0-.156-.132-.216-1.26-.36a14.389,14.389,0,0,1,.06,1.728V48.26H26.2a4.326,4.326,0,0,1-.84-.084l.12.456a4.541,4.541,0,0,1,.744-.072h1.128a13.908,13.908,0,0,1-2.22,4.536c-.048.06.072.156.132.108a9.358,9.358,0,0,0,2.256-3.06c-.036,2.928-.12,4.38-.12,4.7,0,.228.1.336.372.336.348,0,.552-.132.552-.408,0-.468-.048-2.2-.048-5.076a2.671,2.671,0,0,1,.9,1.212c.12.372.276.432.468.432a.451.451,0,0,0,.4-.468c0-.576-.7-1.116-1.764-1.392ZM36.3,51.008c.1-.024.132-.072.132-.132s-.036-.144-.264-.276c-.5-.324-.588-.384-.672-.384s-.156.084-.492.744l-.348.06c-.012-.828-.012-1.824-.012-3.024V44.948c.336-.156.4-.228.4-.324,0-.168-.24-.24-1.332-.36.06.6.06,1.284.06,3.588,0,1.344,0,2.448-.012,3.336l-3.2.6a4.822,4.822,0,0,1-.912.084l.216.42a4.981,4.981,0,0,1,.78-.228l3.12-.588c-.012,2.028-.024,2.928-.024,3.336,0,.24.108.348.4.348.4,0,.576-.132.576-.42,0-.372-.036-1.284-.048-3.42Zm-3.756-3.552a.482.482,0,0,0,.468-.54c0-.6-.708-1.116-1.92-1.284-.048-.012-.1.072-.06.1a2.768,2.768,0,0,1,1,1.164C32.256,47.4,32.3,47.456,32.544,47.456Zm-.384,2.82a.5.5,0,0,0,.468-.564c0-.588-.708-1.1-1.968-1.236-.048,0-.084.084-.048.108a2.763,2.763,0,0,1,1.1,1.3C31.86,50.156,31.956,50.276,32.16,50.276ZM26.544,47.7c.24,0,.432-.276.432-.612a3.075,3.075,0,0,0-1.224-1.944c-.048-.036-.144.024-.12.072a4.7,4.7,0,0,1,.552,1.86C26.232,47.576,26.316,47.7,26.544,47.7Zm2.268.012A9.589,9.589,0,0,0,30.1,45.872c.312-.036.432-.1.432-.216s-.144-.2-1.08-.588a7.963,7.963,0,0,1-.2.948,13.449,13.449,0,0,1-.564,1.62C28.656,47.7,28.776,47.756,28.812,47.708Zm11.7.876a3.485,3.485,0,0,1,.756-.072h1.1v1.98H39.42a4.744,4.744,0,0,1-.9-.084l.12.456a3.562,3.562,0,0,1,.78-.072h2.952v3.48h-3.54a5.053,5.053,0,0,1-.912-.084l.132.456a4.491,4.491,0,0,1,.78-.072h9.216c.12,0,.156-.036.156-.12s-.06-.156-.3-.36c-.552-.456-.636-.516-.72-.516s-.156.06-.732.7h-3.18v-3.48h4.044c.12,0,.156-.048.156-.12s-.06-.144-.276-.324c-.48-.42-.576-.48-.648-.48s-.18.06-.636.624h-2.64v-1.98h2.04c.12,0,.156-.036.156-.12s-.048-.144-.252-.312c-.48-.408-.564-.456-.648-.456s-.156.048-.576.588H41.244a4.986,4.986,0,0,1-.8-.072,10.384,10.384,0,0,0,2.652-3.084,10.778,10.778,0,0,0,2.376,2.928,11.664,11.664,0,0,0,1.884,1.284,1.27,1.27,0,0,0,.432.168c.084,0,.144-.048.192-.18.156-.492.3-.636.636-.708.06-.012.072-.132.012-.144a8.424,8.424,0,0,1-2.856-1.1,9.081,9.081,0,0,1-2.46-2.352c.324-.072.408-.132.408-.228,0-.144-.2-.228-1.428-.54a6.147,6.147,0,0,1-.564,1.32,12.62,12.62,0,0,1-4.308,4.128c-.072.048,0,.2.084.168a12.031,12.031,0,0,0,2.892-1.62Zm.216,5.076c.288,0,.492-.252.492-.624,0-.552-.672-1.272-1.6-1.716-.06-.024-.132.048-.1.1a3.5,3.5,0,0,1,.732,1.7C40.344,53.54,40.5,53.66,40.728,53.66Zm3.42.2a7.848,7.848,0,0,0,1.872-1.8c.36-.036.468-.084.468-.216s-.12-.2-1.128-.672a4.511,4.511,0,0,1-.324.876,8.347,8.347,0,0,1-1.02,1.692C43.968,53.8,44.088,53.912,44.148,53.864Zm14.016-1.8c-.06-1.056-.108-2.28-.108-3.576a9.354,9.354,0,0,0,1.62-.408c.24-.084.348-.2.348-.384,0-.2-.144-.336-.54-.336a.867.867,0,0,0-.528.144,1.612,1.612,0,0,1-.324.156c-.168.048-.336.1-.564.144,0-.444.036-.732.06-1.092a.723.723,0,0,1,.168-.48.341.341,0,0,0,.132-.276c0-.252-.264-.408-.516-.54a1.706,1.706,0,0,0-.792-.216,1.151,1.151,0,0,0-.456.132c-.084.048-.192.132-.192.192,0,.036.024.06.084.06a1.292,1.292,0,0,1,.264.024,1.476,1.476,0,0,1,.348.1c.168.084.192.228.216.552.012.468.036.948.036,1.692a10.436,10.436,0,0,1-1.848.18,1.236,1.236,0,0,1-1.044-.456c-.06-.072-.108-.108-.156-.108a.13.13,0,0,0-.1.1.538.538,0,0,0,.048.2,1.3,1.3,0,0,0,1.38.84A13.642,13.642,0,0,0,57.42,48.6c.012,1.1.036,2.184.048,3.276a5.394,5.394,0,0,0-1.128-.12c-1.08,0-1.7.552-1.7,1.212s.684,1.188,1.644,1.188c1.164,0,1.872-.492,1.872-1.368a6.1,6.1,0,0,1,1.212.876.682.682,0,0,0,.456.216.383.383,0,0,0,.4-.432.549.549,0,0,0-.228-.4A6.948,6.948,0,0,0,58.164,52.064Zm-.744.432a.7.7,0,0,1,0,.228.794.794,0,0,1-.276.552,1.54,1.54,0,0,1-1,.288c-.792,0-1.128-.288-1.128-.624,0-.5.564-.72,1.056-.72A3.354,3.354,0,0,1,57.42,52.5Zm-5.508-1.38a10.931,10.931,0,0,1,.744-3.492,1.364,1.364,0,0,1,.264-.516.511.511,0,0,0,.132-.384,1.433,1.433,0,0,0-.408-.936,2.544,2.544,0,0,0-.612-.552A.274.274,0,0,0,51.9,45.2c-.072,0-.12.036-.12.1a.345.345,0,0,0,.084.18,1.538,1.538,0,0,1,.264.864,3.813,3.813,0,0,1-.18,1.032,17.625,17.625,0,0,0-.6,4,6.645,6.645,0,0,0,.444,2.652.61.61,0,0,0,.516.408.3.3,0,0,0,.312-.336,1.926,1.926,0,0,0-.036-.36,2.851,2.851,0,0,1-.036-.468,2.3,2.3,0,0,1,.1-.576c.18-.648.408-1.452.7-2.388a.838.838,0,0,0,.036-.144.142.142,0,0,0-.132-.132c-.06,0-.12.048-.156.144-.288.684-.612,1.488-.888,2.1-.048.108-.072.156-.12.156s-.084-.048-.108-.18A6.584,6.584,0,0,1,51.912,51.116ZM66.9,47.42c-.432.384-.96.84-1.224,1.08a.449.449,0,0,0-.132.192.184.184,0,0,0,.132.132.641.641,0,0,0,.264-.108,8.685,8.685,0,0,1,1.98-1.188,7.951,7.951,0,0,1,1.668-.288c.408-.036.552-.156.552-.384s-.1-.372-.4-.468a1.543,1.543,0,0,0-.432-.06,1.454,1.454,0,0,0-.348.084,6.97,6.97,0,0,1-1.068.24,8.078,8.078,0,0,1-1.14.108,4.741,4.741,0,0,1-.888-.072,2.293,2.293,0,0,1-.8-.312.283.283,0,0,0-.156-.06.131.131,0,0,0-.12.132.21.21,0,0,0,.048.144,1.848,1.848,0,0,0,.756.588A3.182,3.182,0,0,0,66.9,47.42Zm-2.232,2.724a.2.2,0,0,0-.156.12,1.957,1.957,0,0,0-.324,1.152A1.93,1.93,0,0,0,65.5,53.24a5.8,5.8,0,0,0,2.268.384,18.145,18.145,0,0,0,2.676-.192c.432-.06.684-.18.684-.492s-.324-.516-.768-.516a2.291,2.291,0,0,0-.732.108,7.148,7.148,0,0,1-2.052.252,4.531,4.531,0,0,1-2.172-.4,1.21,1.21,0,0,1-.768-1.176,2.114,2.114,0,0,1,.144-.792.471.471,0,0,0,.036-.168C64.812,50.192,64.74,50.144,64.668,50.144Zm5.664-5.016a.123.123,0,0,0-.132.12.186.186,0,0,0,.084.12,4.153,4.153,0,0,1,1.008,1.152q.162.324.4.324a.334.334,0,0,0,.336-.36c0-.252-.168-.468-.456-.72a2.7,2.7,0,0,0-1.044-.6A.683.683,0,0,0,70.332,45.128Zm.972-.816a.12.12,0,0,0-.12.12.144.144,0,0,0,.084.12,3.659,3.659,0,0,1,1.1,1.128c.132.228.228.288.384.288a.341.341,0,0,0,.324-.384c0-.276-.264-.552-.552-.756a2.834,2.834,0,0,0-.96-.468A1.567,1.567,0,0,0,71.3,44.312ZM80.748,47.4a6.2,6.2,0,0,1-.3-1.248.71.71,0,0,1,.048-.324.483.483,0,0,0,.084-.24c0-.132-.072-.252-.264-.36a1.85,1.85,0,0,0-.936-.264,1.063,1.063,0,0,0-.588.228c-.132.1-.2.192-.2.264,0,.048.048.084.12.084s.228-.024.36-.024a.66.66,0,0,1,.312.06c.108.06.18.18.264.432.192.564.348,1.068.516,1.584a6.963,6.963,0,0,1-1.944.384,2.907,2.907,0,0,1-.9-.108,1.788,1.788,0,0,1-.6-.312.256.256,0,0,0-.156-.06.119.119,0,0,0-.108.12.351.351,0,0,0,.084.2,1.562,1.562,0,0,0,.732.576,2.519,2.519,0,0,0,1.08.192,7.5,7.5,0,0,0,2.064-.372,21.069,21.069,0,0,0,1.26,2.436,11.94,11.94,0,0,0-1.944-.18,3.616,3.616,0,0,0-1.836.444,1.625,1.625,0,0,0-.924,1.44,1.74,1.74,0,0,0,1.068,1.572,7.049,7.049,0,0,0,3.132.66c.8,0,1.008-.168,1.008-.468a.429.429,0,0,0-.288-.42,1.1,1.1,0,0,0-.492-.12,2.564,2.564,0,0,0-.408.036,3.611,3.611,0,0,1-.42.024,5.291,5.291,0,0,1-2.22-.4,1.184,1.184,0,0,1-.828-1.068,1.033,1.033,0,0,1,.468-.828,2.839,2.839,0,0,1,1.584-.408,5.488,5.488,0,0,1,1.524.228,1.854,1.854,0,0,1,.948.5c.2.216.336.3.456.3.228,0,.4-.12.4-.5a1.125,1.125,0,0,0-.252-.708,6.039,6.039,0,0,1-.5-.624,11.459,11.459,0,0,1-1.164-2.088A18.845,18.845,0,0,0,83,47.228c.3-.144.384-.228.384-.384,0-.216-.144-.4-.5-.4a.952.952,0,0,0-.528.168,2.394,2.394,0,0,1-.456.288A10.714,10.714,0,0,1,80.748,47.4Zm2.244-2.628a.123.123,0,0,0-.132.12.186.186,0,0,0,.084.12,4.152,4.152,0,0,1,1.008,1.152q.162.324.4.324a.334.334,0,0,0,.336-.36c0-.252-.168-.468-.456-.72a2.7,2.7,0,0,0-1.044-.6A.683.683,0,0,0,82.992,44.768Zm.972-.816a.12.12,0,0,0-.12.12.145.145,0,0,0,.084.12,3.659,3.659,0,0,1,1.1,1.128c.132.228.228.288.384.288a.341.341,0,0,0,.324-.384c0-.276-.264-.552-.552-.756a2.834,2.834,0,0,0-.96-.468A1.567,1.567,0,0,0,83.964,43.952Zm9.84,3.564c-.084,0-.132.048-.132.108,0,.084.036.12.108.168A4.043,4.043,0,0,1,95.1,49a3.3,3.3,0,0,1,.6,1.488c0,.18-.06.24-.24.276-.264.048-.54.06-.876.1-.12.012-.216.036-.216.1,0,.084.048.12.192.156.288.072.54.132.744.192a.769.769,0,0,1,.468.336.355.355,0,0,0,.324.192.453.453,0,0,0,.348-.192,1.162,1.162,0,0,0,.18-.708,3.348,3.348,0,0,0-.444-1.524,3.952,3.952,0,0,0-1.308-1.4A3.232,3.232,0,0,0,93.8,47.516ZM90.072,53.48c.276,0,.408-.168.4-.36a.862.862,0,0,0-.12-.348.607.607,0,0,1-.072-.3,1.79,1.79,0,0,1,.168-.588c.192-.492.624-1.44,1-2.208a.391.391,0,0,0,.048-.156.166.166,0,0,0-.144-.132.32.32,0,0,0-.2.156c-.5.8-1.02,1.68-1.38,2.268-.108.168-.192.228-.288.228-.168,0-.408-.216-.624-.756a5.031,5.031,0,0,1-.288-1.656,6.154,6.154,0,0,1,.18-1.716,1.093,1.093,0,0,0,.108-.372,1.378,1.378,0,0,0-.564-.936,1.6,1.6,0,0,0-.78-.4c-.1,0-.192.012-.192.072,0,.036.012.06.084.12a1.264,1.264,0,0,1,.48.78,13.047,13.047,0,0,1,.036,1.524,11.078,11.078,0,0,0,.144,1.992,3.894,3.894,0,0,0,1.164,2.328A1.611,1.611,0,0,0,90.072,53.48Zm14.8-.456a8.187,8.187,0,0,1,2.292,1.38.613.613,0,0,0,.42.156.422.422,0,0,0,.372-.456.7.7,0,0,0-.4-.588,9.42,9.42,0,0,0-2.748-1.188c-.036-.66-.084-1.536-.1-2.22a9.894,9.894,0,0,0,2.112-.516c.276-.108.408-.228.408-.408s-.2-.312-.564-.312a.88.88,0,0,0-.516.144,1.41,1.41,0,0,1-.384.216,6.873,6.873,0,0,1-1.068.24c0-.648,0-1.212.012-1.836a24.887,24.887,0,0,0,2.508-.456c.528-.12.66-.216.66-.432,0-.276-.444-.408-.744-.408a.969.969,0,0,0-.54.132,2.063,2.063,0,0,1-.576.228,12.509,12.509,0,0,1-1.308.276c0-.228.012-.468.048-.852a.552.552,0,0,1,.192-.408.355.355,0,0,0,.144-.288c0-.132-.12-.348-.48-.552a1.681,1.681,0,0,0-.8-.264.844.844,0,0,0-.444.132c-.108.072-.168.12-.168.192a.086.086,0,0,0,.084.1,2.61,2.61,0,0,1,.3.012.569.569,0,0,1,.324.144c.1.1.108.216.12.5.012.372.012.972.012,1.392a18.622,18.622,0,0,1-2.328.216,2.16,2.16,0,0,1-1.392-.408.208.208,0,0,0-.144-.06.1.1,0,0,0-.1.084.291.291,0,0,0,.048.156,1.777,1.777,0,0,0,1.668.816,17.7,17.7,0,0,0,2.268-.156c.012.648.024,1.188.024,1.836-.384.036-.888.06-1.272.06-.732,0-.96-.144-.96-.444a.74.74,0,0,1,.06-.324.458.458,0,0,0,.048-.156c0-.048-.06-.084-.108-.084s-.12.048-.18.132a1.069,1.069,0,0,0-.2.648c0,.516.444.828,1.572.828.324,0,.78-.012,1.056-.036.012.6.012,1.32.024,2a9.493,9.493,0,0,0-1.224-.084c-.864,0-1.944.324-1.944,1.236,0,.864,1,1.26,2,1.26a2.134,2.134,0,0,0,1.44-.384,1.3,1.3,0,0,0,.468-1.092Zm-.744-.2a1.113,1.113,0,0,1-.264.876,1.491,1.491,0,0,1-1.08.3c-.7,0-1.4-.18-1.4-.7s.7-.7,1.26-.7A5.938,5.938,0,0,1,104.124,52.82Zm13.848-4.464c-.936.228-1.86.456-2.784.72.012-.3.024-.5.036-.744.012-.3.048-.36.108-.444a.5.5,0,0,0,.108-.288.563.563,0,0,0-.288-.4,1.774,1.774,0,0,0-.96-.36.769.769,0,0,0-.36.1c-.06.036-.132.1-.132.132s.024.084.156.108a1.037,1.037,0,0,1,.528.252.572.572,0,0,1,.108.348c.024.516.024.984.024,1.5-.66.2-1.332.42-1.92.576a1.749,1.749,0,0,1-.42.06.761.761,0,0,1-.528-.288c-.12-.12-.168-.156-.216-.156s-.1.036-.1.264a1.14,1.14,0,0,0,.408.72.967.967,0,0,0,.684.36.512.512,0,0,0,.312-.12,1.939,1.939,0,0,1,.288-.168c.48-.24.852-.4,1.476-.648.012.708.012,1.356.024,2.064a2.133,2.133,0,0,0,.288,1.224,1.664,1.664,0,0,0,.852.588,6.089,6.089,0,0,0,1.728.216,16.077,16.077,0,0,0,2.22-.132c.336-.06.468-.192.468-.432a.419.419,0,0,0-.3-.348,1.475,1.475,0,0,0-.66-.12,2.729,2.729,0,0,0-.552.132,9.384,9.384,0,0,1-1.98.168,1.59,1.59,0,0,1-1.188-.372,1.673,1.673,0,0,1-.24-1.044c0-.624,0-1.428.012-2.184a23.533,23.533,0,0,1,2.784-.756,8.943,8.943,0,0,1-.192,1.92c-.06.252-.18.288-.42.288a7.667,7.667,0,0,1-.876-.1c-.072-.012-.168-.036-.2-.036a.1.1,0,0,0-.1.1c0,.072.024.108.144.156.228.084.5.192.636.252a.441.441,0,0,1,.3.312c.06.192.12.24.276.24a1,1,0,0,0,.576-.276,2.03,2.03,0,0,0,.444-1.188,17.881,17.881,0,0,0,.1-1.8,9.724,9.724,0,0,1,1.428-.144c.264,0,.924.072,1.128.072.252,0,.468-.084.468-.348,0-.3-.216-.444-.6-.468a3.7,3.7,0,0,1-.816-.1,1.439,1.439,0,0,0-.348-.108c-.048,0-.084.024-.132.144-.036.168-.168.228-.348.264s-.384.072-.768.144c.012-.54.036-.948.06-1.308a.961.961,0,0,1,.12-.516.479.479,0,0,0,.108-.288.493.493,0,0,0-.18-.36,2.016,2.016,0,0,0-1.056-.516.874.874,0,0,0-.432.12c-.12.072-.168.132-.168.18a.082.082,0,0,0,.084.084,2.574,2.574,0,0,1,.528.12c.108.036.2.132.228.384.036.372.036.72.036,1.188Zm8.292,2.424c.984-1.656,1.656-2.832,2.232-3.792a1.207,1.207,0,0,1,.48-.54.371.371,0,0,0,.228-.36c0-.168-.1-.348-.432-.648a1.6,1.6,0,0,0-.96-.492c-.216,0-.384.072-.384.144s.048.084.144.144c.36.216.48.384.48.588a1.625,1.625,0,0,1-.156.552c-.192.468-.648,1.368-1.212,2.448-.7,1.32-1.548,2.868-2.292,4.32a.77.77,0,0,0-.12.408c0,.324.18.456.384.456a.559.559,0,0,0,.54-.432,11.965,11.965,0,0,1,1.164-2.34,1.685,1.685,0,0,1,1.344-.816.64.64,0,0,1,.636.372,3.052,3.052,0,0,1,.228,1.284,2.82,2.82,0,0,0,.4,1.608,1.393,1.393,0,0,0,1.212.552,3.042,3.042,0,0,0,2.4-1.272,6.572,6.572,0,0,0,1.236-2.94c.012-.084.024-.156.024-.192a.14.14,0,0,0-.132-.156c-.1,0-.132.06-.168.168a7.342,7.342,0,0,1-1.284,2.412,2.935,2.935,0,0,1-2.028,1.14.727.727,0,0,1-.7-.348,2.963,2.963,0,0,1-.252-1.176,2.553,2.553,0,0,0-.432-1.356,1.291,1.291,0,0,0-1.068-.48,2.044,2.044,0,0,0-1.488.756Zm11.376,1.092a1.584,1.584,0,1,0,1.584,1.584A1.614,1.614,0,0,0,137.64,51.872Zm0,.42a1.164,1.164,0,1,1-1.164,1.164A1.189,1.189,0,0,1,137.64,52.292Z" transform="translate(14290.586 -10563.761)"/><g transform="translate(14268 -10637.307)"><g transform="translate(0.817 48.401)"><g transform="translate(290.069)"><path d="M2885.156,1887.688v95.98h-48.562v-1.439h44.633c1.768,0,3.2-2.833,3.2-6.328v-88.212Z" transform="translate(-2831.042 -1870.552)" fill="#575656"/><g transform="translate(53.385)"><rect width="0.728" height="12.265" fill="#575656"/></g><g transform="translate(0 111.676)"><rect width="3.599" height="1.44" fill="#575656"/></g></g><g transform="translate(0)"><path d="M611.051,1887.688v95.98h48.563v-1.439H614.981c-1.768,0-3.2-2.833-3.2-6.328v-88.212Z" transform="translate(-611.051 -1870.552)" fill="#575656"/><g transform="translate(0)"><rect width="0.728" height="12.265" fill="#575656"/></g><g transform="translate(50.515 111.676)"><rect width="3.599" height="1.44" fill="#575656"/></g></g></g><g transform="translate(0.817)"><g transform="translate(290.069)"><path d="M2885.156,626.01V530.03h-48.562v1.44h44.633c1.768,0,3.2,2.833,3.2,6.328V626.01Z" transform="translate(-2831.042 -530.03)" fill="#575656"/><g transform="translate(53.385 100.851)"><rect width="0.728" height="12.265" fill="#575656"/></g><g transform="translate(0 0)"><rect width="3.599" height="1.44" fill="#575656"/></g></g><g transform="translate(0)"><path d="M611.051,626.01V530.03h48.563v1.44H614.981c-1.768,0-3.2,2.833-3.2,6.328V626.01Z" transform="translate(-611.051 -530.03)" fill="#575656"/><g transform="translate(0 100.851)"><rect width="0.728" height="12.265" fill="#575656"/></g><g transform="translate(50.515 0)"><rect width="3.599" height="1.44" fill="#575656"/></g></g></g><g transform="translate(344.264 -1.693)"><rect width="0.736" height="167.437" transform="translate(0)" fill="#575656"/></g><g transform="translate(0.081 38.704)"><rect width="0.736" height="85.853" transform="translate(0 0)" fill="#575656"/></g><g transform="translate(52.668 160.077)"><rect width="239.694" height="1.44" transform="translate(0)" fill="#575656"/></g><rect width="344.887" height="164.051" fill="none"/><rect width="274.833" height="1.44" transform="translate(52.549 0)" fill="#575656"/></g><path d="M10.56,8.192a.179.179,0,0,0-.192.16.387.387,0,0,0,.16.256,5.5,5.5,0,0,1,1.7,2.3c.176.5.368.656.672.656.464,0,.7-.272.7-.784a2.156,2.156,0,0,0-.912-1.456,6.839,6.839,0,0,0-1.84-1.056A.788.788,0,0,0,10.56,8.192ZM8.5,5.9c.016-.608.032-1.088.048-1.472.016-.368.048-.48.176-.608.112-.112.256-.224.256-.4,0-.24-.112-.352-.416-.56a2.32,2.32,0,0,0-1.136-.4,1.456,1.456,0,0,0-.736.224c-.192.1-.272.208-.272.3,0,.08.064.112.16.128.128.016.288.032.464.064a.581.581,0,0,1,.4.224,1.023,1.023,0,0,1,.064.48C7.52,4.416,7.52,5.28,7.52,6c-1.312.112-2.48.224-3.376.32a8.565,8.565,0,0,1-.928.048,1.154,1.154,0,0,1-.9-.4C2.176,5.84,2.064,5.7,1.984,5.7s-.128.208-.128.3c0,.24.08.416.384.816.384.48.688.656.992.656.224,0,.3-.1.5-.208a2.916,2.916,0,0,1,.736-.176c1.088-.176,2.048-.288,3.072-.4v2.88c0,1.008,0,1.744-.016,2.384,0,.24-.048.288-.272.288-.192,0-.976-.1-1.456-.176a2.634,2.634,0,0,0-.336-.032.16.16,0,0,0-.16.16c0,.1.032.16.224.256.384.16.88.4,1.232.592a.717.717,0,0,1,.416.544c.08.368.192.448.4.448.256,0,.512-.224.8-.656a1.9,1.9,0,0,0,.24-.928c0-.384-.048-.864-.08-1.888C8.5,9.424,8.512,8.144,8.5,6.608c1.392-.08,2.512-.112,3.152-.112a9,9,0,0,1,1.216.064c.272.016.544.08.752.08a.4.4,0,0,0,.432-.384c0-.288-.128-.416-.4-.576a3.037,3.037,0,0,0-1.3-.368.8.8,0,0,0-.416.128,1.608,1.608,0,0,1-.9.256C10.416,5.744,9.472,5.824,8.5,5.9ZM4.752,8.3c-.1,0-.176.048-.224.24a3.473,3.473,0,0,1-.56,1.184,3.241,3.241,0,0,1-.96.816c-.464.256-.592.48-.592.8a.551.551,0,0,0,.608.56,1.656,1.656,0,0,0,1.168-.752,3.593,3.593,0,0,0,.656-1.488,5.074,5.074,0,0,0,.1-1.056C4.944,8.416,4.864,8.3,4.752,8.3Zm6.592-6.192a.165.165,0,0,0-.176.16.248.248,0,0,0,.112.16,5.537,5.537,0,0,1,1.344,1.536q.216.432.528.432a.445.445,0,0,0,.448-.48c0-.336-.224-.624-.608-.96a3.6,3.6,0,0,0-1.392-.8A.91.91,0,0,0,11.344,2.112Zm1.3-1.088a.16.16,0,0,0-.16.16.193.193,0,0,0,.112.16,4.879,4.879,0,0,1,1.472,1.5c.176.3.3.384.512.384a.454.454,0,0,0,.432-.512c0-.368-.352-.736-.736-1.008a3.778,3.778,0,0,0-1.28-.624A2.089,2.089,0,0,0,12.64,1.024ZM26.992,2.5a2.016,2.016,0,0,0-.592.176,4.845,4.845,0,0,1-.8.192,18.247,18.247,0,0,1-1.84.256,15.976,15.976,0,0,1-1.616.1,1.685,1.685,0,0,1-1.3-.48c-.1-.1-.16-.144-.224-.144s-.1.08-.1.208a1.167,1.167,0,0,0,.448.832,1.36,1.36,0,0,0,1.008.464c.16,0,.752-.048,1.072-.08,1.1-.1,2.464-.208,3.584-.3.416-.048.736-.048,1.04-.064.32-.016.5-.192.5-.384a.508.508,0,0,0-.288-.512A1.923,1.923,0,0,0,26.992,2.5Zm-2.848,4.48a.711.711,0,0,1,.208.528,2.747,2.747,0,0,1-.112.656,10.442,10.442,0,0,1-1.3,3.04,13.128,13.128,0,0,1-2.56,2.992c-.192.16-.24.256-.24.352a.2.2,0,0,0,.224.192.46.46,0,0,0,.24-.08,10.265,10.265,0,0,0,3.152-2.88A9.9,9.9,0,0,0,25.424,8.4a1.5,1.5,0,0,1,.224-.48.464.464,0,0,0,.1-.256c0-.24-.336-.528-.736-.752.736-.048,1.648-.08,2.336-.08a16.745,16.745,0,0,1,1.792.032,9.575,9.575,0,0,0,1.024.064.353.353,0,0,0,.368-.368.587.587,0,0,0-.336-.512,2.726,2.726,0,0,0-1.264-.384,1.342,1.342,0,0,0-.512.128,1.8,1.8,0,0,1-.576.144c-1.12.112-2.208.192-3.408.272-1.472.112-2.512.224-3.744.368-.352.032-.64.064-.928.064a1.727,1.727,0,0,1-1.072-.5c-.144-.112-.224-.176-.272-.176-.08,0-.144.128-.144.32a1.3,1.3,0,0,0,.48.848,1.7,1.7,0,0,0,1.008.624.72.72,0,0,0,.384-.1A3.45,3.45,0,0,1,21.3,7.328,26.624,26.624,0,0,1,24.144,6.976Zm4.288-5.648a.165.165,0,0,0-.176.16.248.248,0,0,0,.112.16,5.537,5.537,0,0,1,1.344,1.536q.216.432.528.432a.445.445,0,0,0,.448-.48c0-.336-.224-.624-.608-.96a3.6,3.6,0,0,0-1.392-.8A.91.91,0,0,0,28.432,1.328ZM29.728.24a.16.16,0,0,0-.16.16.193.193,0,0,0,.112.16,4.879,4.879,0,0,1,1.472,1.5c.176.3.3.384.512.384a.454.454,0,0,0,.432-.512c0-.368-.352-.736-.736-1.008A3.778,3.778,0,0,0,30.08.3,2.089,2.089,0,0,0,29.728.24Zm10.48,7.728c.576-.624,1.072-1.168,1.584-1.792A.961.961,0,0,1,42.16,5.9a.357.357,0,0,0,.272-.368c0-.224-.24-.464-.56-.672a2.5,2.5,0,0,0-1.264-.48c-.272,0-.416.08-.416.176,0,.08.128.16.3.288.24.16.4.32.4.448a.891.891,0,0,1-.208.5A17.766,17.766,0,0,1,38.864,8.08,28.609,28.609,0,0,1,35.2,11.424c-.128.1-.192.192-.192.272a.274.274,0,0,0,.224.208.831.831,0,0,0,.32-.128A19.278,19.278,0,0,0,39.792,8.4c.064.1.08.192.08.48,0,.608-.016,1.328-.016,1.984-.016.688-.016,1.2-.048,1.648a1.84,1.84,0,0,1-.08.608,1.334,1.334,0,0,0-.1.4,1.843,1.843,0,0,0,.272.784.584.584,0,0,0,.5.32c.224,0,.384-.208.384-.56,0-.656,0-1.424-.016-2.3-.016-.768,0-1.472,0-1.984A5.162,5.162,0,0,1,40.8,8.96a.977.977,0,0,0,.048-.208C40.848,8.544,40.64,8.3,40.208,7.968Zm16.7-1.152A12.574,12.574,0,0,0,54.32,5.632a2.109,2.109,0,0,0-.4-.08c-.144,0-.256.08-.256.208,0,.1.032.16.16.224a14.257,14.257,0,0,1,2.592,1.68,22.058,22.058,0,0,1-2.656,3.312,19.881,19.881,0,0,1-3.3,2.688c-.144.1-.192.176-.192.272a.209.209,0,0,0,.192.208,1.236,1.236,0,0,0,.448-.16,15.269,15.269,0,0,0,3.28-2.176A18.354,18.354,0,0,0,57.232,8.4,9.083,9.083,0,0,1,58.544,10c.224.336.416.464.64.464a.569.569,0,0,0,.56-.608,1.784,1.784,0,0,0-.528-1.136,8.845,8.845,0,0,0-1.376-1.3c.624-1.072,1.04-1.888,1.5-2.864a1.331,1.331,0,0,1,.48-.656.558.558,0,0,0,.336-.48c0-.368-.352-.672-.768-.944a2.616,2.616,0,0,0-1.36-.56c-.24,0-.624.112-.64.208a.133.133,0,0,0,.1.176,2.89,2.89,0,0,1,.624.352.653.653,0,0,1,.32.512,2.661,2.661,0,0,1-.192.864A25.31,25.31,0,0,1,56.912,6.816Zm17.2.848a1.056,1.056,0,0,1,.048-.384.476.476,0,0,0,.064-.288c0-.272-.176-.48-.912-1.024.768-.784,1.392-1.52,2.064-2.336a1.045,1.045,0,0,1,.464-.368c.224-.112.368-.224.368-.464,0-.288-.16-.448-.624-.768a3.363,3.363,0,0,0-1.408-.56c-.24,0-.528.1-.528.224,0,.1.112.16.32.288.352.208.48.4.48.528a.972.972,0,0,1-.208.528A27.66,27.66,0,0,1,71.824,6.1a34.438,34.438,0,0,1-4.72,4.352c-.176.128-.256.208-.256.3a.211.211,0,0,0,.208.24.821.821,0,0,0,.384-.144,25.784,25.784,0,0,0,5.44-4.432c.144.176.176.352.176.832,0,1.68-.016,3.12-.032,4.464a3.929,3.929,0,0,1-.128,1.04,1.086,1.086,0,0,0-.08.4,1.823,1.823,0,0,0,.24.88.8.8,0,0,0,.64.448c.272,0,.448-.272.448-.624,0-1.1-.032-2.608-.032-3.792Zm14.56-2.752a2.339,2.339,0,0,0,.832.208,5.726,5.726,0,0,0,.944-.128c.624-.128,1.5-.288,1.744-.3a.073.073,0,0,1,.08.064.5.5,0,0,1-.032.128,22.229,22.229,0,0,1-3.024,4.688,20.765,20.765,0,0,1-4.96,4.288c-.144.1-.208.16-.208.256a.222.222,0,0,0,.192.208.782.782,0,0,0,.3-.08,16.693,16.693,0,0,0,5.408-4.016A24.619,24.619,0,0,0,93.184,5.7a.9.9,0,0,1,.512-.464c.208-.1.368-.208.368-.416,0-.256-.24-.48-.608-.768a1.68,1.68,0,0,0-.816-.432.522.522,0,0,0-.368.192.7.7,0,0,1-.368.208c-.544.1-1.04.176-1.76.288a6.07,6.07,0,0,1-.912.1.912.912,0,0,1-.208-.016c.448-.608.528-.72.688-.816a.553.553,0,0,0,.32-.464c0-.24-.16-.432-.544-.688a2.965,2.965,0,0,0-1.216-.56c-.288,0-.576.112-.576.192s.1.112.208.176c.416.24.576.448.576.624a2.553,2.553,0,0,1-.368.928,18.993,18.993,0,0,1-1.44,2.112,20.344,20.344,0,0,1-2.3,2.512c-.224.208-.368.368-.368.48a.2.2,0,0,0,.208.224.538.538,0,0,0,.3-.112,14.522,14.522,0,0,0,2.3-1.9A20.093,20.093,0,0,0,88.672,4.912Zm20.56,6.24c-.08-1.408-.144-3.04-.144-4.768a12.472,12.472,0,0,0,2.16-.544c.32-.112.464-.272.464-.512,0-.272-.192-.448-.72-.448a1.156,1.156,0,0,0-.7.192,2.149,2.149,0,0,1-.432.208c-.224.064-.448.128-.752.192,0-.592.048-.976.08-1.456a.964.964,0,0,1,.224-.64.455.455,0,0,0,.176-.368c0-.336-.352-.544-.688-.72A2.274,2.274,0,0,0,107.84,2a1.534,1.534,0,0,0-.608.176c-.112.064-.256.176-.256.256,0,.048.032.08.112.08a1.723,1.723,0,0,1,.352.032,1.967,1.967,0,0,1,.464.128c.224.112.256.3.288.736.016.624.048,1.264.048,2.256a13.915,13.915,0,0,1-2.464.24,1.649,1.649,0,0,1-1.392-.608c-.08-.1-.144-.144-.208-.144a.174.174,0,0,0-.128.128.718.718,0,0,0,.064.272,1.735,1.735,0,0,0,1.84,1.12,18.19,18.19,0,0,0,2.288-.144c.016,1.472.048,2.912.064,4.368a7.192,7.192,0,0,0-1.5-.16c-1.44,0-2.272.736-2.272,1.616,0,.9.912,1.584,2.192,1.584,1.552,0,2.5-.656,2.5-1.824a8.132,8.132,0,0,1,1.616,1.168.91.91,0,0,0,.608.288.51.51,0,0,0,.528-.576.732.732,0,0,0-.3-.528A9.264,9.264,0,0,0,109.232,11.152Zm-.992.576a.932.932,0,0,1,0,.3,1.059,1.059,0,0,1-.368.736,2.053,2.053,0,0,1-1.328.384c-1.056,0-1.5-.384-1.5-.832,0-.672.752-.96,1.408-.96A4.472,4.472,0,0,1,108.24,11.728ZM100.9,9.888a14.575,14.575,0,0,1,.992-4.656,1.819,1.819,0,0,1,.352-.688.682.682,0,0,0,.176-.512,1.911,1.911,0,0,0-.544-1.248,3.392,3.392,0,0,0-.816-.736A.365.365,0,0,0,100.88,2c-.1,0-.16.048-.16.128a.46.46,0,0,0,.112.24,2.05,2.05,0,0,1,.352,1.152,5.085,5.085,0,0,1-.24,1.376,23.5,23.5,0,0,0-.8,5.328,8.86,8.86,0,0,0,.592,3.536.814.814,0,0,0,.688.544.4.4,0,0,0,.416-.448,2.568,2.568,0,0,0-.048-.48,3.8,3.8,0,0,1-.048-.624,3.061,3.061,0,0,1,.128-.768c.24-.864.544-1.936.928-3.184a1.117,1.117,0,0,0,.048-.192.189.189,0,0,0-.176-.176c-.08,0-.16.064-.208.192-.384.912-.816,1.984-1.184,2.8-.064.144-.1.208-.16.208s-.112-.064-.144-.24A8.779,8.779,0,0,1,100.9,9.888Zm20.5,4.224A7.564,7.564,0,0,0,125.04,13.1a9.609,9.609,0,0,0,2.928-2.624.458.458,0,0,0,.128-.32.174.174,0,0,0-.176-.144c-.064,0-.128.048-.208.128a11,11,0,0,1-2.512,1.888,8.763,8.763,0,0,1-3.584,1.04,2.237,2.237,0,0,1-1.392-.336,2.036,2.036,0,0,1-.4-1.52c0-.832.064-2.4.16-3.888.08-1.28.176-2.256.272-3.024a.764.764,0,0,1,.224-.512.64.64,0,0,0,.224-.448,1.292,1.292,0,0,0-.576-.864,2.606,2.606,0,0,0-1.3-.608,1.61,1.61,0,0,0-.576.1c-.128.048-.192.128-.192.208s.064.1.192.144a2.612,2.612,0,0,1,.56.256c.24.16.32.4.3.992-.032,1.28-.064,2.528-.112,3.792-.064,1.552-.128,3.072-.128,4.08C118.88,13.36,119.856,14.112,121.392,14.112Zm17.168-9.7A6.851,6.851,0,0,0,136.336,6.7a5.107,5.107,0,0,0-.72,2.736,3.86,3.86,0,0,0,1.712,3.168,7.123,7.123,0,0,0,3.744,1.184c.672,0,.848-.192.848-.464a.728.728,0,0,0-.432-.688,2.132,2.132,0,0,0-1.1-.272,5.448,5.448,0,0,1-2.928-.976,3.016,3.016,0,0,1-1.1-2.4,4.612,4.612,0,0,1,1.264-3.1,5.145,5.145,0,0,1,2.3-1.488,10.279,10.279,0,0,1,2.816-.352c.4-.016.576-.16.56-.5,0-.24-.208-.4-.432-.5a2.58,2.58,0,0,0-1.04-.272,1.092,1.092,0,0,0-.544.16,1.916,1.916,0,0,1-.624.24c-2.352.608-4.752,1.232-7.072,1.824a5.691,5.691,0,0,1-.96.176,1.418,1.418,0,0,1-1.2-.56.327.327,0,0,0-.208-.128c-.08,0-.144.176-.144.4a1.712,1.712,0,0,0,.48.9c.416.48.8.688,1.072.672a.592.592,0,0,0,.432-.16,2.216,2.216,0,0,1,.688-.368c1.232-.432,3.04-1.04,4.8-1.584Zm17.872.672c-.112,0-.176.064-.176.144,0,.112.048.16.144.224a5.391,5.391,0,0,1,1.76,1.616,4.394,4.394,0,0,1,.8,1.984c0,.24-.08.32-.32.368-.352.064-.72.08-1.168.128-.16.016-.288.048-.288.128,0,.112.064.16.256.208.384.1.72.176.992.256a1.026,1.026,0,0,1,.624.448.473.473,0,0,0,.432.256.6.6,0,0,0,.464-.256,1.549,1.549,0,0,0,.24-.944,4.465,4.465,0,0,0-.592-2.032,5.269,5.269,0,0,0-1.744-1.872A4.31,4.31,0,0,0,156.432,5.088Zm-4.976,7.952c.368,0,.544-.224.528-.48a1.149,1.149,0,0,0-.16-.464.809.809,0,0,1-.1-.4,2.387,2.387,0,0,1,.224-.784c.256-.656.832-1.92,1.328-2.944a.521.521,0,0,0,.064-.208.221.221,0,0,0-.192-.176.427.427,0,0,0-.272.208c-.672,1.072-1.36,2.24-1.84,3.024-.144.224-.256.3-.384.3-.224,0-.544-.288-.832-1.008A6.708,6.708,0,0,1,149.44,7.9a8.206,8.206,0,0,1,.24-2.288,1.457,1.457,0,0,0,.144-.5,1.837,1.837,0,0,0-.752-1.248,2.126,2.126,0,0,0-1.04-.528c-.128,0-.256.016-.256.1,0,.048.016.08.112.16a1.685,1.685,0,0,1,.64,1.04,17.4,17.4,0,0,1,.048,2.032,14.77,14.77,0,0,0,.192,2.656,5.192,5.192,0,0,0,1.552,3.1A2.149,2.149,0,0,0,151.456,13.04Zm17.776-8.32a8.656,8.656,0,0,1,.368-.96,1.422,1.422,0,0,1,.464-.7.478.478,0,0,0,.208-.4c0-.144-.032-.288-.3-.5a3.037,3.037,0,0,0-1.44-.608,1.189,1.189,0,0,0-.608.176c-.064.032-.144.08-.144.16,0,.064.032.112.144.144a2.706,2.706,0,0,1,.64.208.452.452,0,0,1,.288.432,2.86,2.86,0,0,1-.128.784c-.112.432-.256.9-.448,1.52A11.119,11.119,0,0,1,166,5.408a2.283,2.283,0,0,1-1.36-.384.422.422,0,0,0-.24-.08.171.171,0,0,0-.144.16c0,.176.176.352.432.56a2.56,2.56,0,0,0,1.552.528,8.3,8.3,0,0,0,1.7-.24c-.928,2.432-1.872,4.688-2.992,6.96a1.51,1.51,0,0,0-.208.608.744.744,0,0,0,.16.432.571.571,0,0,0,.368.176c.256,0,.5-.144.656-.544,1.072-2.576,2-5.216,2.96-7.84A26.514,26.514,0,0,0,171.5,4.88c.352-.128.528-.288.512-.56,0-.3-.32-.464-.576-.464a2,2,0,0,0-.576.176A16.052,16.052,0,0,1,169.232,4.72Zm.592,7.04a1.9,1.9,0,0,0,.848,1.664,5.3,5.3,0,0,0,3.12.752c.544,0,1.3-.048,1.728-.1.544-.08.848-.224.848-.528a.577.577,0,0,0-.336-.544,1.629,1.629,0,0,0-.72-.16,1.927,1.927,0,0,0-.672.128,6.4,6.4,0,0,1-1.664.16,3.571,3.571,0,0,1-2.08-.544,1.373,1.373,0,0,1-.528-1.12,2.883,2.883,0,0,1,.08-.736,1.442,1.442,0,0,0,.048-.256.124.124,0,0,0-.128-.112c-.1,0-.192.112-.288.288A2.246,2.246,0,0,0,169.824,11.76Zm3.68-4.592c.1,0,.112.048.048.1-.608.464-1.152.96-1.52,1.3a.281.281,0,0,0-.112.176c0,.064.1.176.144.176a.422.422,0,0,0,.24-.1c.544-.336,1.168-.768,1.568-1.008a1.3,1.3,0,0,1,.656-.224,1.558,1.558,0,0,1,.512.112.969.969,0,0,0,.368.08.4.4,0,0,0,.448-.4c0-.352-.208-.5-.576-.656a4.856,4.856,0,0,0-1.872-.32,5.281,5.281,0,0,0-1.952.384,3.69,3.69,0,0,0-1.072.656.252.252,0,0,0-.112.208.158.158,0,0,0,.16.128.721.721,0,0,0,.176-.048,6.134,6.134,0,0,1,2.032-.544A8.3,8.3,0,0,1,173.5,7.168ZM190.016,2.3a.165.165,0,0,0-.176.16.248.248,0,0,0,.112.16A5.537,5.537,0,0,1,191.3,4.16q.216.432.528.432a.445.445,0,0,0,.448-.48c0-.336-.224-.624-.608-.96a3.6,3.6,0,0,0-1.392-.8A.91.91,0,0,0,190.016,2.3Zm1.3-1.088a.16.16,0,0,0-.16.16.193.193,0,0,0,.112.16,4.879,4.879,0,0,1,1.472,1.5c.176.3.3.384.512.384a.454.454,0,0,0,.432-.512c0-.368-.352-.736-.736-1.008a3.778,3.778,0,0,0-1.28-.624A2.089,2.089,0,0,0,191.312,1.216ZM185.584,4.8a8.653,8.653,0,0,1,.368-.96,1.422,1.422,0,0,1,.464-.7.478.478,0,0,0,.208-.4c0-.144-.032-.288-.3-.5a3.037,3.037,0,0,0-1.44-.608,1.189,1.189,0,0,0-.608.176c-.064.032-.144.08-.144.16,0,.064.032.112.144.144a2.706,2.706,0,0,1,.64.208.452.452,0,0,1,.288.432,2.859,2.859,0,0,1-.128.784c-.112.432-.256.9-.448,1.52a11.119,11.119,0,0,1-2.272.432,2.283,2.283,0,0,1-1.36-.384.422.422,0,0,0-.24-.08.171.171,0,0,0-.144.16c0,.176.176.352.432.56a2.56,2.56,0,0,0,1.552.528,8.3,8.3,0,0,0,1.7-.24c-.928,2.432-1.872,4.688-2.992,6.96a1.51,1.51,0,0,0-.208.608.744.744,0,0,0,.16.432.571.571,0,0,0,.368.176c.256,0,.5-.144.656-.544,1.072-2.576,2-5.216,2.96-7.84a26.515,26.515,0,0,0,2.624-.864c.352-.128.528-.288.512-.56,0-.3-.32-.464-.576-.464a2,2,0,0,0-.576.176A16.051,16.051,0,0,1,185.584,4.8Zm.592,7.04a1.9,1.9,0,0,0,.848,1.664,5.3,5.3,0,0,0,3.12.752c.544,0,1.3-.048,1.728-.1.544-.08.848-.224.848-.528a.577.577,0,0,0-.336-.544,1.629,1.629,0,0,0-.72-.16,1.927,1.927,0,0,0-.672.128,6.4,6.4,0,0,1-1.664.16,3.571,3.571,0,0,1-2.08-.544,1.373,1.373,0,0,1-.528-1.12,2.883,2.883,0,0,1,.08-.736,1.44,1.44,0,0,0,.048-.256.124.124,0,0,0-.128-.112c-.1,0-.192.112-.288.288A2.246,2.246,0,0,0,186.176,11.84Zm3.68-4.592c.1,0,.112.048.048.1-.608.464-1.152.96-1.52,1.3a.281.281,0,0,0-.112.176c0,.064.1.176.144.176a.422.422,0,0,0,.24-.1c.544-.336,1.168-.768,1.568-1.008a1.3,1.3,0,0,1,.656-.224,1.558,1.558,0,0,1,.512.112.969.969,0,0,0,.368.08.4.4,0,0,0,.448-.4c0-.352-.208-.5-.576-.656a4.856,4.856,0,0,0-1.872-.32,5.281,5.281,0,0,0-1.952.384,3.69,3.69,0,0,0-1.072.656.252.252,0,0,0-.112.208.158.158,0,0,0,.16.128.721.721,0,0,0,.176-.048,6.134,6.134,0,0,1,2.032-.544A8.3,8.3,0,0,1,189.856,7.248Zm17.2-2.336c0-.48.016-.9.048-1.392a.662.662,0,0,1,.16-.448.45.45,0,0,0,.16-.336c0-.3-.224-.5-.672-.784a2.167,2.167,0,0,0-1.008-.368,1.2,1.2,0,0,0-.72.208c-.176.112-.272.24-.272.32,0,.064.048.08.16.08s.336,0,.512.016a.577.577,0,0,1,.448.24,2.161,2.161,0,0,1,.144.832c.032.72.048,1.184.048,1.824a15.659,15.659,0,0,1-2.56.32,2.313,2.313,0,0,1-1.312-.352A.307.307,0,0,0,202,5.008a.158.158,0,0,0-.144.16.413.413,0,0,0,.128.272,2.267,2.267,0,0,0,1.76.736,6.354,6.354,0,0,0,.9-.064c.4-.064.912-.144,1.424-.224.016.576.016,1.472.016,2a7.852,7.852,0,0,1-.768,4,6.1,6.1,0,0,1-2.96,2.416.263.263,0,0,0-.192.224.16.16,0,0,0,.176.176,1.23,1.23,0,0,0,.416-.08,6.29,6.29,0,0,0,3.392-2.272,6.237,6.237,0,0,0,.928-3.872c0-.752,0-1.9-.016-2.752.352-.064.768-.112,1.152-.176.4-.064.768-.112,1.088-.16.352-.048.544-.16.544-.416a.468.468,0,0,0-.368-.464,2,2,0,0,0-.688-.112.7.7,0,0,0-.4.144,1.681,1.681,0,0,1-.5.192C207.7,4.784,207.344,4.864,207.056,4.912Zm-8.464-2.864a.158.158,0,0,0-.16.128.481.481,0,0,0,.112.224,2.749,2.749,0,0,1,.416,1.264,6.806,6.806,0,0,1-.16,1.168,24.54,24.54,0,0,0-.528,4.336,6.634,6.634,0,0,0,.7,3.264c.224.416.464.64.752.64.3,0,.432-.208.432-.48,0-.24-.08-.672-.08-1.008a4.1,4.1,0,0,1,.192-1.1c.16-.624.48-1.776.72-2.656a.8.8,0,0,0,.048-.256.156.156,0,0,0-.176-.16c-.128,0-.208.1-.256.224-.352.976-.656,1.76-1.1,2.96-.032.1-.1.176-.144.176s-.112-.048-.144-.144a5.791,5.791,0,0,1-.176-1.84,12.136,12.136,0,0,1,.672-3.6,4.191,4.191,0,0,1,.24-.624,1.533,1.533,0,0,0,.144-.592,2.087,2.087,0,0,0-.384-1.056C199.44,2.544,198.928,2.048,198.592,2.048Zm22.032,10.384a10.916,10.916,0,0,1,3.056,1.84.818.818,0,0,0,.56.208.563.563,0,0,0,.5-.608.935.935,0,0,0-.528-.784,12.56,12.56,0,0,0-3.664-1.584c-.048-.88-.112-2.048-.128-2.96a13.192,13.192,0,0,0,2.816-.688c.368-.144.544-.3.544-.544,0-.256-.272-.416-.752-.416a1.173,1.173,0,0,0-.688.192,1.879,1.879,0,0,1-.512.288,9.163,9.163,0,0,1-1.424.32c0-.864,0-1.616.016-2.448a33.182,33.182,0,0,0,3.344-.608c.7-.16.88-.288.88-.576,0-.368-.592-.544-.992-.544a1.291,1.291,0,0,0-.72.176,2.751,2.751,0,0,1-.768.3,16.68,16.68,0,0,1-1.744.368c0-.3.016-.624.064-1.136a.736.736,0,0,1,.256-.544.473.473,0,0,0,.192-.384c0-.176-.16-.464-.64-.736a2.241,2.241,0,0,0-1.072-.352,1.125,1.125,0,0,0-.592.176c-.144.1-.224.16-.224.256a.114.114,0,0,0,.112.128,3.48,3.48,0,0,1,.4.016.758.758,0,0,1,.432.192c.128.128.144.288.16.672.016.5.016,1.3.016,1.856a24.829,24.829,0,0,1-3.1.288,2.88,2.88,0,0,1-1.856-.544.277.277,0,0,0-.192-.08.137.137,0,0,0-.128.112.387.387,0,0,0,.064.208,2.369,2.369,0,0,0,2.224,1.088,23.6,23.6,0,0,0,3.024-.208c.016.864.032,1.584.032,2.448-.512.048-1.184.08-1.7.08-.976,0-1.28-.192-1.28-.592a.986.986,0,0,1,.08-.432.611.611,0,0,0,.064-.208c0-.064-.08-.112-.144-.112-.08,0-.16.064-.24.176a1.426,1.426,0,0,0-.272.864c0,.688.592,1.1,2.1,1.1.432,0,1.04-.016,1.408-.048.016.8.016,1.76.032,2.672A12.657,12.657,0,0,0,218,11.216c-1.152,0-2.592.432-2.592,1.648,0,1.152,1.328,1.68,2.672,1.68a2.846,2.846,0,0,0,1.92-.512,1.735,1.735,0,0,0,.624-1.456Zm-.992-.272a1.484,1.484,0,0,1-.352,1.168,1.988,1.988,0,0,1-1.44.4c-.928,0-1.872-.24-1.872-.928s.928-.928,1.68-.928A7.917,7.917,0,0,1,219.632,12.16Zm17.984-7.744c.016-.5.032-.88.048-1.184a.7.7,0,0,1,.176-.464.622.622,0,0,0,.208-.448c0-.192-.128-.336-.448-.576a2.037,2.037,0,0,0-1.168-.48,1.375,1.375,0,0,0-.8.32c-.112.1-.144.144-.144.24,0,.064.064.1.16.1a4.4,4.4,0,0,1,.464.048.5.5,0,0,1,.448.256,2.218,2.218,0,0,1,.1.7c.016.56.016.976.016,1.568-1.472.176-3.088.416-4.624.672a5.86,5.86,0,0,1-1.024.128c-.464,0-.7-.128-1.2-.608a.173.173,0,0,0-.112-.048c-.08,0-.128.112-.128.3a1.65,1.65,0,0,0,.656,1.04,1.456,1.456,0,0,0,.944.464.812.812,0,0,0,.464-.16,3.461,3.461,0,0,1,1.088-.384,31.861,31.861,0,0,1,3.952-.7c.016.688.032,1.328.032,2.016A1.91,1.91,0,0,0,235.7,6.96a1.882,1.882,0,0,0-1.808,1.952,1.73,1.73,0,0,0,1.744,1.968,1.644,1.644,0,0,0,1.1-.368,4.337,4.337,0,0,1-1.52,2.336,8.752,8.752,0,0,1-2.56,1.488c-.16.064-.208.144-.208.224,0,.1.08.176.224.176a1.989,1.989,0,0,0,.5-.1,8.971,8.971,0,0,0,2.736-1.28,4.463,4.463,0,0,0,1.92-3.584,4.788,4.788,0,0,0-.272-1.76c0-.912.016-1.744.032-2.912.88-.064,1.648-.064,2.5-.064a10.89,10.89,0,0,1,1.936.176,5.209,5.209,0,0,0,.848.144.38.38,0,0,0,.368-.4.687.687,0,0,0-.4-.592,2.888,2.888,0,0,0-1.248-.416,1.135,1.135,0,0,0-.5.112,1.984,1.984,0,0,1-.816.16C239.472,4.272,238.592,4.32,237.616,4.416ZM235.648,7.44c.752,0,1.1.608,1.152,1.312-.016.768-.432,1.232-1.1,1.232a1.084,1.084,0,0,1-1.12-1.184C234.576,7.888,235.088,7.44,235.648,7.44ZM259.664,9.5a3.8,3.8,0,0,0-1.28-2.464,6.334,6.334,0,0,0-2.24-1.52A.292.292,0,0,0,256,5.488c-.144,0-.24.08-.24.16a.331.331,0,0,0,.16.224,6.865,6.865,0,0,1,1.76,1.68,2.6,2.6,0,0,1,.544,1.232c0,.176-.064.224-.256.288a13.934,13.934,0,0,1-1.792.448c-.128.032-.176.1-.176.192a.2.2,0,0,0,.224.208c.736-.048,1.3-.08,1.808-.08a.9.9,0,0,1,.592.176.736.736,0,0,0,.464.176C259.392,10.192,259.664,9.984,259.664,9.5ZM251.776,5.36c.224-.5.448-.96.64-1.392a1.093,1.093,0,0,1,.384-.512c.208-.1.3-.208.3-.368a.668.668,0,0,0-.256-.528,2.6,2.6,0,0,0-1.6-.672,1.4,1.4,0,0,0-.576.128c-.112.064-.208.128-.208.208s.064.112.224.144a2.257,2.257,0,0,1,.7.24c.208.144.24.224.24.368a1.841,1.841,0,0,1-.112.624,17.875,17.875,0,0,1-.72,1.936c-.768.208-1.376.368-1.936.5a4.9,4.9,0,0,1-1.152.208c-.256,0-.5-.224-.784-.592-.08-.112-.112-.144-.176-.144-.08,0-.16.208-.16.384a1.791,1.791,0,0,0,.608,1.12,1.074,1.074,0,0,0,.72.384.581.581,0,0,0,.4-.176,1.742,1.742,0,0,1,.464-.24c.464-.192,1.088-.448,1.68-.656-.32.672-.672,1.328-1.088,2.112-.8,1.472-1.664,2.912-2.608,4.336a.989.989,0,0,0-.208.592.474.474,0,0,0,.512.448.6.6,0,0,0,.56-.32c.864-1.472,1.584-2.88,2.416-4.5.48-.928.928-1.936,1.424-2.96a4.573,4.573,0,0,1,1.1-.192.734.734,0,0,1,.688.272,2.179,2.179,0,0,1,.272,1.344,10.627,10.627,0,0,1-.416,2.72,5.521,5.521,0,0,1-1.136,2.176.828.828,0,0,1-.608.3,1.045,1.045,0,0,1-.464-.112c-.416-.24-.8-.5-1.264-.816a.292.292,0,0,0-.176-.08c-.08,0-.16.112-.16.176a.216.216,0,0,0,.08.16c.384.4.672.7.928,1.008a1.054,1.054,0,0,1,.24.576c.064.32.224.416.592.416a2.109,2.109,0,0,0,1.424-.72,5.238,5.238,0,0,0,1.248-2.048,10.29,10.29,0,0,0,.624-3.392,3.339,3.339,0,0,0-.464-1.9,1.481,1.481,0,0,0-1.264-.656A4.973,4.973,0,0,0,251.776,5.36Zm17.536-3.968a3.556,3.556,0,0,0-3.664,2.928c0,.512.224.64.544.64.528,0,1.136-.336,1.136-.8a2.594,2.594,0,0,1,.256-1.376,1.784,1.784,0,0,1,1.664-.88c1.408,0,2.048,1.088,2.048,2.416,0,1.376-.912,2.208-1.648,3.136a4.713,4.713,0,0,0-1.008,3.28q0,.192.144.192c.336,0,.48-.112.48-.288a2.728,2.728,0,0,1,1.088-2.688c1.024-.864,2.448-1.776,2.448-3.568C272.8,2.688,271.568,1.392,269.312,1.392Zm-.384,11.088A.988.988,0,0,0,267.92,13.5a1,1,0,0,0,2,0A.994.994,0,0,0,268.928,12.48Z" transform="translate(14290.585 -10598.645)" fill="#f59c9c"/></g></svg>