<svg xmlns="http://www.w3.org/2000/svg" width="345" height="206.255" viewBox="0 0 345 206.255">
  <g id="グループ_1789" data-name="グループ 1789" transform="translate(-15 -1083)">
    <path id="パス_3894" data-name="パス 3894" d="M1.482,2.393l1.623,7,1.945-7H6.316l1.945,7,1.623-7h1.277L8.9,11H7.676L5.689,3.863,3.691,11H2.467L.217,2.393Zm15.1,5.08-1.307-3.8-1.389,3.8Zm-1.916-5.08h1.318L19.1,11H17.827l-.873-2.578h-3.4L12.618,11h-1.2ZM21.263,11H19.857l3.082-4.412-2.889-4.2h1.459l2.2,3.293,2.18-3.293h1.389l-2.889,4.2L27.415,11H25.968l-2.32-3.539Zm7.852-7a39.949,39.949,0,0,1,4.14-.4,24.559,24.559,0,0,0,2.64-.264,7.855,7.855,0,0,0-1.14.636,4.566,4.566,0,0,0-2.244,3.684,2.905,2.905,0,0,0,1.332,2.448,6.053,6.053,0,0,0,2.592.924c.216.036.24.048.372.072l.156-.972h-.12a6.15,6.15,0,0,1-1.8-.384,2.353,2.353,0,0,1-1.68-2.22A3.668,3.668,0,0,1,34.839,4.76a5.9,5.9,0,0,1,2.3-1.2,5.033,5.033,0,0,1,1.344-.168L38.415,2.5a8.1,8.1,0,0,1-1.428.132L36.3,2.66c-.4.012-.552.024-2.028.108l-1.884.12c-1.476.084-1.548.1-2.22.144-.372.024-.516.036-.684.036-.084,0-.2,0-.432-.012Zm7.368,1.152a8.439,8.439,0,0,1,1.224,1.908l.612-.36a9.11,9.11,0,0,0-1.236-1.86Zm1.368-.648a9.5,9.5,0,0,1,1.224,1.884l.6-.336a9.725,9.725,0,0,0-1.236-1.872ZM43.707,3.2h-1.62a6.8,6.8,0,0,1-1.092-.072v.744a6.555,6.555,0,0,1,1.08-.06h1.632v.744H42.591c-.5,0-.828-.012-1.14-.036a8,8,0,0,1,.036,1.056v1.4c0,.6-.012.864-.036,1.128.288-.024.612-.036,1.116-.036h1.14v.8h-1.32a6.611,6.611,0,0,1-1.1-.06V9.56a10.331,10.331,0,0,1,1.092-.06h1.332v.936c-1.224.12-1.908.168-2.28.168-.108,0-.312-.012-.5-.024l.156.828a5.6,5.6,0,0,1,.636-.1c2.04-.2,3.24-.36,4.92-.648v-.636c-1.056.18-1.464.24-2.232.336V9.5h1.32a5.983,5.983,0,0,1,.984.048v-.72a7.239,7.239,0,0,1-1.092.048H44.4v-.8h1.2c.5,0,.816.012,1.1.036a8.141,8.141,0,0,1-.048-1.14V5.576a6.377,6.377,0,0,1,.048-1.056c-.288.024-.588.036-1.056.036H44.4V3.812h1.536a5.277,5.277,0,0,1,.96.048V3.14a5.5,5.5,0,0,1-1.056.06H44.4V2.252a16.274,16.274,0,0,0,1.716-.372c.432-.108.432-.108.6-.144l-.528-.612a15.353,15.353,0,0,1-5,.828,1.622,1.622,0,0,1,.3.636c.912-.072,1.356-.108,2.22-.228Zm0,1.932v.876H42.171V5.132Zm.7,0h1.584v.876H44.4Zm-.7,1.428V7.5H42.171V6.56Zm.7,0h1.584V7.5H44.4Zm4.836-2.8c.012-.408.012-.816.024-1.668a3.594,3.594,0,0,1,.072-.912h-.888a6.71,6.71,0,0,1,.072,1.38c0,.444,0,.792-.012,1.2h-.4a6.309,6.309,0,0,1-1.068-.06V4.52a7.327,7.327,0,0,1,1.116-.06h.312a12.68,12.68,0,0,1-.924,4.92,6.207,6.207,0,0,1-1.392,1.944,2.68,2.68,0,0,1,.684.516,8.3,8.3,0,0,0,1.884-3.528,18.015,18.015,0,0,0,.492-3.852h1.476a30.528,30.528,0,0,1-.432,6.024c-.084.36-.216.444-.66.444a6.645,6.645,0,0,1-1.3-.168,3.214,3.214,0,0,1,.132.8,11.8,11.8,0,0,0,1.272.1c.66,0,.984-.156,1.152-.588.324-.78.48-2.472.564-6.1.024-.756.036-1,.06-1.26a8.771,8.771,0,0,1-1.068.048Zm5.316.252A6.548,6.548,0,0,1,55.3,3.98a25.529,25.529,0,0,0,3.24-.216c.3.648.372.78.684,1.368a23.905,23.905,0,0,1-3.78.3,9.327,9.327,0,0,1-.96-.036l.024.792c.216-.024.264-.024.84-.048a25,25,0,0,0,4.212-.348A11,11,0,0,0,60.843,7.64a7.213,7.213,0,0,0-2.424-.348c-2.28,0-3.66.78-3.66,2.076a1.676,1.676,0,0,0,.9,1.488,4.842,4.842,0,0,0,2.472.5,10.452,10.452,0,0,0,3.072-.444,6.988,6.988,0,0,1,.72-.2l-.168-.936a8.089,8.089,0,0,1-3.552.8c-1.644,0-2.556-.432-2.556-1.224,0-.828,1.116-1.368,2.844-1.368a12.132,12.132,0,0,1,1.572.108,3.254,3.254,0,0,1,1.32.456l.708-.5A14.065,14.065,0,0,1,60.327,5.66c.444-.084,1.044-.216,1.884-.432.4-.108.444-.108.648-.156l-.1-.8a12.207,12.207,0,0,1-2.748.744c-.18-.324-.5-.96-.684-1.356.672-.108,1.956-.384,3.024-.672l-.072-.78a15.181,15.181,0,0,1-3.2.792A9.994,9.994,0,0,1,58.443,1.3l-.9.156a15.54,15.54,0,0,1,.72,1.644,23.71,23.71,0,0,1-2.844.168c-.408,0-.612-.012-.9-.036ZM69.219,2.924a16.791,16.791,0,0,1-2.568-.132l-.012.828a2.128,2.128,0,0,1,.264-.012h.192c.444.012,1.572.036,1.764.036a1.329,1.329,0,0,0,.228-.024l-.108.18a11.941,11.941,0,0,1-2.688,3.432l.672.672a3.971,3.971,0,0,1,.924-1,4.508,4.508,0,0,1,2.676-1.272c.564,0,.852.288.948.948a9.316,9.316,0,0,0-1.788.96A2.481,2.481,0,0,0,68.5,9.44c0,1.236,1.044,1.848,3.192,1.848a18.616,18.616,0,0,0,2.916-.24,4.722,4.722,0,0,1,.48-.06l-.108-.924a10.055,10.055,0,0,1-3.2.468c-1.692,0-2.436-.348-2.436-1.14,0-.72.624-1.284,2.256-2.052a3.153,3.153,0,0,1,.012.36,17.259,17.259,0,0,1-.072,1.728l.816-.012a2.609,2.609,0,0,1-.024-.432c0-.108,0-.276.012-.54.012-.24.012-.5.012-.66,0-.3,0-.42-.024-.732A19.924,19.924,0,0,1,75.531,6l-.384-.84a2.64,2.64,0,0,1-.816.348c-.528.192-1.212.444-2.088.792a1.456,1.456,0,0,0-1.584-1.332,3.194,3.194,0,0,0-1.812.588c-.12.084-.12.084-.552.42a.092.092,0,0,1-.024-.036V5.924a.012.012,0,0,0,.012-.012c.012-.012.072-.06.156-.12.048-.036.288-.312.408-.456a8.849,8.849,0,0,0,1.08-1.7,38.747,38.747,0,0,0,3.96-.312,3.741,3.741,0,0,1,.48-.06l-.072-.816a16.889,16.889,0,0,1-3.78.456,2.043,2.043,0,0,0-.252.012c.06-.108.216-.432.372-.816a2.548,2.548,0,0,1,.312-.648l-.96-.168a5.093,5.093,0,0,1-.576,1.644ZM82.935,5.2H80.007V2.948a6.16,6.16,0,0,1,.048-.888h-.9a8.505,8.505,0,0,1,.06.924V5.36c0,.2-.012.384-.024.612.252-.012.528-.024.744-.024h3V10.34h-3.42V8.12a6.031,6.031,0,0,1,.06-1.02h-.912a6.664,6.664,0,0,1,.06,1.068v2.64a6.308,6.308,0,0,1-.072,1.008h.864V11.1h7.8v.72h.864a6,6,0,0,1-.072-1.008V8.1a6.664,6.664,0,0,1,.06-1.068h-.912a6.364,6.364,0,0,1,.06,1.032v2.28H83.739V5.948h3.228c.228,0,.5.012.744.024-.012-.2-.024-.372-.024-.612V2.972a5.919,5.919,0,0,1,.06-.912h-.9a6.531,6.531,0,0,1,.048.876V5.2H83.739V2.168a5.445,5.445,0,0,1,.084-1.092h-.972a4.853,4.853,0,0,1,.084,1.092Zm13.476-2.2c-.816.024-1.752.048-2.9.1-1.932.072-1.932.072-2.28.072-.18,0-.264,0-.48-.012l.036.876c.8-.132,3.228-.252,5.64-.3v.624c0,.144.012.264.012.312,0,.444,0,.492.012.66a1.842,1.842,0,0,0-1.392-.54,2,2,0,0,0-2.124,1.98,2.006,2.006,0,0,0,3.48,1.248,1.681,1.681,0,0,0,.324-.588,3.108,3.108,0,0,1-1.344,2.532,6.15,6.15,0,0,1-1.944.9,2.634,2.634,0,0,1,.528.756,7.633,7.633,0,0,0,1.9-.972A3.862,3.862,0,0,0,97.479,7.52,3.438,3.438,0,0,0,97.191,6.1V3.728c.972-.024,1.1-.024,1.284-.024a21.328,21.328,0,0,1,2.292.06V2.912c-.4.048-1.32.072-3.588.084V2.864a9.935,9.935,0,0,1,.06-1.5h-.9a4.044,4.044,0,0,1,.048.7Zm-.036,3.5a1.345,1.345,0,0,1-1.4,1.416A1.16,1.16,0,0,1,93.735,6.74a1.27,1.27,0,0,1,1.332-1.26,1.535,1.535,0,0,1,.8.192A.869.869,0,0,1,96.375,6.512Zm8.952-4.02a9.672,9.672,0,0,1,.648,1.164l.636-.252c-.324-.528-.348-.564-.588-.912h.828a9.519,9.519,0,0,1,1.116.048V1.808a7.272,7.272,0,0,1-1.2.072h-1.8c.156-.264.2-.348.42-.744L104.643.9a4.661,4.661,0,0,1-.864,1.512A5.881,5.881,0,0,1,102.687,3.5a1.7,1.7,0,0,1,.54.516,8.809,8.809,0,0,0,1.344-1.524Zm4.836.012a8.107,8.107,0,0,1,.768,1.188l.612-.264a8.491,8.491,0,0,0-.636-.924h1.164a9.847,9.847,0,0,1,1.26.06V1.82a7.553,7.553,0,0,1-1.284.072h-2.688c.18-.372.228-.48.372-.8L109,.908a5.648,5.648,0,0,1-1.32,2.328,1.935,1.935,0,0,1,.588.36,7.321,7.321,0,0,0,.756-1.092Zm1.956,4.3v3.984c0,.276-.1.348-.468.348a8.309,8.309,0,0,1-1.176-.108,2.221,2.221,0,0,1,.228.756c.276.012.576.024.936.024.96,0,1.212-.192,1.212-.948V5.072a10.828,10.828,0,0,1,.06-1.332,11.487,11.487,0,0,1-1.272.048h-1.884c-.516,0-.792-.012-1.08-.036.024.264.036.564.036.936V5.912c0,.36-.012.66-.036.924.384-.024.732-.036,1.26-.036Zm-2.724-2.46h2.724v.7h-2.724Zm0,1.212h2.724V6.26h-2.724ZM104.7,3.788c-.54,0-.852-.012-1.188-.036a13.08,13.08,0,0,1,.048,1.32v5.5a8.97,8.97,0,0,1-.072,1.344h.888a6.888,6.888,0,0,1-.072-1.32V6.8H106.3c.552,0,.84.012,1.272.036a9.175,9.175,0,0,1-.036-.924V4.688c0-.408.012-.7.036-.936-.3.024-.588.036-1.08.036Zm-.4.552h2.544v.7h-2.544Zm0,1.212h2.544V6.26h-2.544Zm5.976,2.916a9.612,9.612,0,0,1,.048-1.128,10.9,10.9,0,0,1-1.236.048h-1.98a10.128,10.128,0,0,1-1.176-.048c.024.324.048.66.048,1.128V10.2a9.652,9.652,0,0,1-.048,1.08h.72v-.54h2.436a11.312,11.312,0,0,1,1.236.048,9.389,9.389,0,0,1-.048-1.116Zm-3.624-.516h2.94v.816h-2.94Zm0,1.38h2.94v.828h-2.94Zm13.368-1.5v1.14h-3.612A8.073,8.073,0,0,1,115.2,8.9v.84a9.088,9.088,0,0,1,1.248-.072h3.576v1.1a5.335,5.335,0,0,1-.072,1.128h.9a4.837,4.837,0,0,1-.084-1.128v-1.1h3.744a8.916,8.916,0,0,1,1.26.072V8.9a7.964,7.964,0,0,1-1.212.072h-3.792V7.832h2.64c.432,0,.78.012,1.188.048a9.366,9.366,0,0,1-.048-1.176V4.556a10.2,10.2,0,0,1,.048-1.2,8.981,8.981,0,0,1-1.188.048h-.36a13.38,13.38,0,0,0,1.3-1.932l-.828-.312A9.752,9.752,0,0,1,122.211,3.4h-4.656a9,9,0,0,1-1.176-.048,10.461,10.461,0,0,1,.048,1.2V6.74a10.384,10.384,0,0,1-.048,1.14,11.791,11.791,0,0,1,1.188-.048Zm.744-2.592V4.04h3.036v1.2Zm-.744,0h-2.856V4.04h2.856Zm.744,1.944V5.864h3.036v1.32Zm-.744,0h-2.856V5.864h2.856Zm-1.632-4.176a10.275,10.275,0,0,0-1.248-1.716l-.684.324a6.4,6.4,0,0,1,1.212,1.74Zm2.772-.2A9.51,9.51,0,0,0,120.111.992l-.708.24a6.959,6.959,0,0,1,1.032,1.884Zm9.648-1.536a12.346,12.346,0,0,1-.408,2.256c-.228,0-.624.012-.864.012a7.583,7.583,0,0,1-1.428-.1l-.012.828h.156c.036,0,.132,0,.264.012.18,0,.588.012.792.012.18,0,.588-.012.888-.024a17.968,17.968,0,0,1-1.248,3.1A10.594,10.594,0,0,1,127.8,9.236l.816.48c.06-.1.132-.24.24-.408.456-.792.564-1,.852-1.572a22.356,22.356,0,0,0,1.332-3.5,14.487,14.487,0,0,0,1.968-.252c.288-.048.288-.048.42-.072l-.036-.828a9.986,9.986,0,0,1-2.148.4c.168-.612.24-.9.324-1.308a3.759,3.759,0,0,1,.192-.768Zm7.068,3.312A16.54,16.54,0,0,0,134.715,3l-.444.672a13.014,13.014,0,0,1,3.18,1.632Zm.024,5.316a1.214,1.214,0,0,1-.216-.192,8.62,8.62,0,0,0-2.352-1.452,14.314,14.314,0,0,1-.132-1.824,3.683,3.683,0,0,1,.156-1.116l-.816-.084a4.859,4.859,0,0,0-.12,1.164c0,.3.024.864.084,1.644a3.96,3.96,0,0,0-1.212-.18,3.507,3.507,0,0,0-1.416.264,1.7,1.7,0,0,0-1.116,1.524c0,1.068.9,1.74,2.34,1.74,1.464,0,2.28-.684,2.28-1.92a2.487,2.487,0,0,0-.024-.384,6.864,6.864,0,0,1,2.1,1.632ZM134.571,8.8s.024.372.024.516c0,.9-.468,1.308-1.5,1.308-.948,0-1.524-.372-1.524-.984,0-.66.648-1.08,1.668-1.08A3.561,3.561,0,0,1,134.571,8.8Zm5.952-.7c.156-.2.252-.324.336-.42.768-.888,1.7-2.04,2.172-2.676.528-.708.588-.768.828-.768s.288.036,1.08.888a47.99,47.99,0,0,0,4.068,3.984c.792.672.8.684,1.068.924l.456-.984a5.642,5.642,0,0,1-1-.72,38.606,38.606,0,0,1-4.1-3.924c-.876-.96-1.068-1.1-1.548-1.1-.54,0-.84.228-1.524,1.14-.588.78-1.692,2.112-2.052,2.46a1.913,1.913,0,0,1-.4.3Zm21.516-5.964c-.216.084-.216.084-1.02.084h-6.444a8.8,8.8,0,0,1-1.428-.084v.924a11.587,11.587,0,0,1,1.416-.06h6.816A6.367,6.367,0,0,1,160.035,4.8a5.2,5.2,0,0,1-1.9,1.14,2.358,2.358,0,0,1,.588.684,7.182,7.182,0,0,0,3.5-3.42,2.154,2.154,0,0,1,.288-.48Zm-5.232,2.088a3.168,3.168,0,0,1,.048.648c0,2.34-.468,3.564-1.74,4.584a5.639,5.639,0,0,1-2.2,1.1,2.347,2.347,0,0,1,.552.8A6.537,6.537,0,0,0,156.543,9.3a6.428,6.428,0,0,0,1.188-4.224,4.353,4.353,0,0,1,.048-.84Zm10.812.408-1.524.2c-.408.048-.828.084-1.032.084h-.18l.108.9a7.684,7.684,0,0,1,1.176-.2l1.452-.2V8.312c0,1.224.084,1.6.444,1.98.384.4,1.08.564,2.448.564a21.373,21.373,0,0,0,2.844-.216c.324-.036.4-.048.72-.06l-.06-.972a13.644,13.644,0,0,1-3.492.42c-.984,0-1.488-.084-1.74-.3s-.3-.468-.3-1.584V5.312c1.368-.192,2.9-.408,4.584-.636.072-.012.1-.012.144-.024.12-.024.168-.036.276-.06a6.64,6.64,0,0,1-2.724,2.784,2.041,2.041,0,0,1,.72.576,9.2,9.2,0,0,0,2.04-1.872,8.086,8.086,0,0,0,.912-1.536,3.7,3.7,0,0,1,.192-.336l-.588-.492a1.338,1.338,0,0,1-.684.168l-4.872.648V2.78a6.879,6.879,0,0,1,.06-1.1h-.972a6.881,6.881,0,0,1,.048,1.1Zm10.92.024a9.9,9.9,0,0,1,1.128,2.688l.816-.276a13.178,13.178,0,0,0-1.188-2.664Zm2.472-.5a10.528,10.528,0,0,1,1.1,2.628l.792-.276a12.033,12.033,0,0,0-1.164-2.58Zm4.164-.012v.12a5.044,5.044,0,0,1-.132.816,9.054,9.054,0,0,1-1.02,2.58,7.7,7.7,0,0,1-3.8,3.132,2.427,2.427,0,0,1,.552.672A8.7,8.7,0,0,0,184.743,8,10.8,10.8,0,0,0,185.8,5.312a7.08,7.08,0,0,1,.264-.972Zm8.064,7.224a8.161,8.161,0,0,1-.06-1.272V6.488a4.191,4.191,0,0,0-.048-.708l.024-.012a1.324,1.324,0,0,0,.372.2A24.467,24.467,0,0,1,198,8.348l.516-.888a29.761,29.761,0,0,0-5.34-2.532V2.684a7.532,7.532,0,0,1,.06-1.248h-1.032a7.115,7.115,0,0,1,.072,1.224v7.452a7.718,7.718,0,0,1-.072,1.26Zm8.328-2.2a11.977,11.977,0,0,1,2.364,2.616l.672-.636a12.227,12.227,0,0,0-2.412-2.544Zm15-6.684a9.673,9.673,0,0,1,.648,1.164l.636-.252c-.324-.528-.348-.564-.588-.912h.828a9.519,9.519,0,0,1,1.116.048V1.808a7.272,7.272,0,0,1-1.2.072h-1.8c.156-.264.2-.348.42-.744L215.883.9a4.66,4.66,0,0,1-.864,1.512A5.881,5.881,0,0,1,213.927,3.5a1.7,1.7,0,0,1,.54.516,8.809,8.809,0,0,0,1.344-1.524ZM221.4,2.5a8.108,8.108,0,0,1,.768,1.188l.612-.264a8.492,8.492,0,0,0-.636-.924h1.164a9.847,9.847,0,0,1,1.26.06V1.82a7.553,7.553,0,0,1-1.284.072H220.6c.18-.372.228-.48.372-.8l-.732-.18a5.649,5.649,0,0,1-1.32,2.328,1.935,1.935,0,0,1,.588.36,7.323,7.323,0,0,0,.756-1.092Zm1.956,4.3v3.984c0,.276-.1.348-.468.348a8.31,8.31,0,0,1-1.176-.108,2.221,2.221,0,0,1,.228.756c.276.012.576.024.936.024.96,0,1.212-.192,1.212-.948V5.072a10.828,10.828,0,0,1,.06-1.332,11.487,11.487,0,0,1-1.272.048h-1.884c-.516,0-.792-.012-1.08-.036.024.264.036.564.036.936V5.912c0,.36-.012.66-.036.924.384-.024.732-.036,1.26-.036Zm-2.724-2.46h2.724v.7h-2.724Zm0,1.212h2.724V6.26h-2.724Zm-4.692-1.764c-.54,0-.852-.012-1.188-.036a13.083,13.083,0,0,1,.048,1.32v5.5a8.969,8.969,0,0,1-.072,1.344h.888a6.889,6.889,0,0,1-.072-1.32V6.8h1.992c.552,0,.84.012,1.272.036a9.172,9.172,0,0,1-.036-.924V4.688c0-.408.012-.7.036-.936-.3.024-.588.036-1.08.036Zm-.4.552h2.544v.7h-2.544Zm0,1.212h2.544V6.26h-2.544Zm5.976,2.916a9.613,9.613,0,0,1,.048-1.128,10.9,10.9,0,0,1-1.236.048h-1.98a10.128,10.128,0,0,1-1.176-.048c.024.324.048.66.048,1.128V10.2a9.651,9.651,0,0,1-.048,1.08h.72v-.54h2.436a11.312,11.312,0,0,1,1.236.048,9.39,9.39,0,0,1-.048-1.116ZM217.9,7.952h2.94v.816H217.9Zm0,1.38h2.94v.828H217.9Zm13.368-1.5v1.14h-3.612a8.074,8.074,0,0,1-1.212-.072v.84a9.088,9.088,0,0,1,1.248-.072h3.576v1.1a5.335,5.335,0,0,1-.072,1.128h.9a4.837,4.837,0,0,1-.084-1.128v-1.1h3.744a8.915,8.915,0,0,1,1.26.072V8.9a7.964,7.964,0,0,1-1.212.072h-3.792V7.832h2.64c.432,0,.78.012,1.188.048a9.363,9.363,0,0,1-.048-1.176V4.556a10.193,10.193,0,0,1,.048-1.2,8.982,8.982,0,0,1-1.188.048h-.36a13.38,13.38,0,0,0,1.3-1.932l-.828-.312A9.752,9.752,0,0,1,233.451,3.4h-4.656a9,9,0,0,1-1.176-.048,10.46,10.46,0,0,1,.048,1.2V6.74a10.384,10.384,0,0,1-.048,1.14,11.791,11.791,0,0,1,1.188-.048Zm.744-2.592V4.04h3.036v1.2Zm-.744,0h-2.856V4.04h2.856Zm.744,1.944V5.864h3.036v1.32Zm-.744,0h-2.856V5.864h2.856Zm-1.632-4.176a10.274,10.274,0,0,0-1.248-1.716l-.684.324a6.4,6.4,0,0,1,1.212,1.74Zm2.772-.2A9.51,9.51,0,0,0,231.351.992l-.708.24a6.959,6.959,0,0,1,1.032,1.884Zm9.648-1.536a12.346,12.346,0,0,1-.408,2.256c-.228,0-.624.012-.864.012a7.583,7.583,0,0,1-1.428-.1l-.012.828h.156c.036,0,.132,0,.264.012.18,0,.588.012.792.012.18,0,.588-.012.888-.024a17.97,17.97,0,0,1-1.248,3.1,10.594,10.594,0,0,1-1.152,1.872l.816.48c.06-.1.132-.24.24-.408.456-.792.564-1,.852-1.572a22.358,22.358,0,0,0,1.332-3.5,14.487,14.487,0,0,0,1.968-.252c.288-.048.288-.048.42-.072l-.036-.828a9.986,9.986,0,0,1-2.148.4c.168-.612.24-.9.324-1.308A3.758,3.758,0,0,1,243,1.4Zm7.068,3.312A16.539,16.539,0,0,0,245.955,3l-.444.672a13.015,13.015,0,0,1,3.18,1.632Zm.024,5.316a1.215,1.215,0,0,1-.216-.192,8.62,8.62,0,0,0-2.352-1.452,14.317,14.317,0,0,1-.132-1.824,3.683,3.683,0,0,1,.156-1.116l-.816-.084a4.858,4.858,0,0,0-.12,1.164c0,.3.024.864.084,1.644a3.96,3.96,0,0,0-1.212-.18,3.507,3.507,0,0,0-1.416.264,1.7,1.7,0,0,0-1.116,1.524c0,1.068.9,1.74,2.34,1.74,1.464,0,2.28-.684,2.28-1.92a2.487,2.487,0,0,0-.024-.384,6.864,6.864,0,0,1,2.1,1.632ZM245.811,8.8s.024.372.024.516c0,.9-.468,1.308-1.5,1.308-.948,0-1.524-.372-1.524-.984,0-.66.648-1.08,1.668-1.08A3.561,3.561,0,0,1,245.811,8.8Zm12.948-7.128a5.249,5.249,0,0,1-.42,1.272,16.489,16.489,0,0,1-1.416,2.8,34.468,34.468,0,0,0-3.12-2.088l-.6.636a22.727,22.727,0,0,1,3.228,2.172,12.783,12.783,0,0,1-4.776,4.008,2.138,2.138,0,0,1,.624.72A14.329,14.329,0,0,0,257.1,7.016a17.182,17.182,0,0,1,2.616,2.6l.672-.744a30.847,30.847,0,0,0-2.76-2.58,19.627,19.627,0,0,0,1.764-3.5,3.379,3.379,0,0,1,.372-.732Zm13.452-.2a10.073,10.073,0,0,1-2.292,2.268,16.9,16.9,0,0,1-6.228,3.108,2.778,2.778,0,0,1,.468.8,18.759,18.759,0,0,0,4.632-2.1v4.56a6.254,6.254,0,0,1-.072,1.248h1.044a7.971,7.971,0,0,1-.06-1.272V4.976a21.135,21.135,0,0,0,2.808-2.412,2.716,2.716,0,0,1,.528-.5ZM5.1,22.82a5.442,5.442,0,0,1-.756,1.752A8.89,8.89,0,0,1,1.332,27.86,1.784,1.784,0,0,1,2,28.484a11.568,11.568,0,0,0,2.868-3.12l4.044-.072a11.026,11.026,0,0,1-2.064,4.02,10.207,10.207,0,0,1-4.236,3.036,1.809,1.809,0,0,1,.6.708,11.751,11.751,0,0,0,4.176-3,12.7,12.7,0,0,0,2.4-4.512c.132-.432.132-.444.24-.588l-.516-.5a1.179,1.179,0,0,1-.624.084c-3.468.06-3.468.06-3.624.1a11.479,11.479,0,0,0,.552-1.068,2.292,2.292,0,0,1,.264-.492Zm6.852,7.956a11.977,11.977,0,0,1,2.364,2.616l.672-.636a12.227,12.227,0,0,0-2.412-2.544ZM27.1,23.108a10.665,10.665,0,0,1-1.416-.06,15.8,15.8,0,0,1,.06,1.74c0,4.548-.324,6.288-1.464,7.968a2.357,2.357,0,0,1,.732.492A8.189,8.189,0,0,0,26.136,30.3a23.848,23.848,0,0,0,.348-4.452h6.924c.384,0,.78.012,1.2.036A7.833,7.833,0,0,1,34.572,25v-1.02c0-.408.012-.7.036-.936a10.4,10.4,0,0,1-1.32.06Zm2.676.648v1.452H26.5V23.756Zm.732,1.452V23.756h3.348v1.452Zm-3.036,7.116a8.39,8.39,0,0,1-.072,1.1h.792V32.84h5.16v.588h.8a6.02,6.02,0,0,1-.072-1.092V27.824a10.34,10.34,0,0,1,.048-1.116c-.432.036-.732.048-1.3.048H28.68a11.991,11.991,0,0,1-1.248-.048c.024.348.036.66.036,1.08Zm.72-4.92h5.16v1.152h-5.16Zm0,1.776h5.16v1.188h-5.16Zm0,1.812h5.16v1.2h-5.16Zm10.836-5.628a6.61,6.61,0,0,1-1.3-.084l.012.912a7.234,7.234,0,0,1,1.272-.06L41.2,26.12a7.808,7.808,0,0,1-.744,2.856,7.019,7.019,0,0,1-3.12,3.156,2.486,2.486,0,0,1,.612.708,8.666,8.666,0,0,0,3.144-3.18,9.049,9.049,0,0,0,.96-3.54l3.36-.012a26.422,26.422,0,0,1-.3,4.26c-.228,1.188-.42,1.476-1.008,1.476a5.067,5.067,0,0,1-1.548-.312,1.973,1.973,0,0,1,.132.756v.144a6.83,6.83,0,0,0,1.488.2c1.08,0,1.44-.432,1.74-2.076a32.735,32.735,0,0,0,.336-4.2,1.8,1.8,0,0,1,.1-.72l-.444-.384a1.917,1.917,0,0,1-.792.084l-3,.012c.036-.336.036-.48.06-.852a10.019,10.019,0,0,1,.1-1.548l-.972-.024a3.217,3.217,0,0,1,.048.624c0,.528-.024,1.188-.072,1.8Zm11.7.9a9.9,9.9,0,0,1,1.128,2.688l.816-.276a13.177,13.177,0,0,0-1.188-2.664Zm2.472-.5a10.528,10.528,0,0,1,1.1,2.628l.792-.276a12.034,12.034,0,0,0-1.164-2.58Zm4.164-.012v.12a5.043,5.043,0,0,1-.132.816,9.054,9.054,0,0,1-1.02,2.58A7.7,7.7,0,0,1,52.4,32.4a2.428,2.428,0,0,1,.552.672A8.7,8.7,0,0,0,56.928,29.6a10.8,10.8,0,0,0,1.056-2.688,7.08,7.08,0,0,1,.264-.972Zm8.064,7.224a8.161,8.161,0,0,1-.06-1.272V28.088a4.192,4.192,0,0,0-.048-.708l.024-.012a1.324,1.324,0,0,0,.372.2,24.467,24.467,0,0,1,4.476,2.376l.516-.888a29.761,29.761,0,0,0-5.34-2.532V24.284a7.532,7.532,0,0,1,.06-1.248H64.392a7.115,7.115,0,0,1,.072,1.224v7.452a7.718,7.718,0,0,1-.072,1.26ZM74.34,25.6a39.949,39.949,0,0,1,4.14-.4,24.559,24.559,0,0,0,2.64-.264,7.855,7.855,0,0,0-1.14.636,4.566,4.566,0,0,0-2.244,3.684,2.905,2.905,0,0,0,1.332,2.448,6.053,6.053,0,0,0,2.592.924c.216.036.24.048.372.072l.156-.972h-.12a6.15,6.15,0,0,1-1.8-.384,2.353,2.353,0,0,1-1.68-2.22,3.668,3.668,0,0,1,1.476-2.772,5.9,5.9,0,0,1,2.3-1.2,5.033,5.033,0,0,1,1.344-.168L83.64,24.1a8.1,8.1,0,0,1-1.428.132l-.684.024c-.4.012-.552.024-2.028.108l-1.884.12c-1.476.084-1.548.1-2.22.144-.372.024-.516.036-.684.036-.084,0-.2,0-.432-.012Zm7.368,1.152a8.439,8.439,0,0,1,1.224,1.908l.612-.36a9.11,9.11,0,0,0-1.236-1.86Zm1.368-.648A9.5,9.5,0,0,1,84.3,27.992l.6-.336a9.724,9.724,0,0,0-1.236-1.872Zm4.14-.852a1.244,1.244,0,0,1,.192-.012,1.949,1.949,0,0,1,.216.012c.96.036,1.5.06,1.62.06h.48c-.06.876-.06.936-.072,1.812A4.09,4.09,0,0,0,86.868,30.7a1.638,1.638,0,0,0,1.548,1.824,3.934,3.934,0,0,0,2.676-1.452,10.806,10.806,0,0,0,2.28-3.6c1.3.336,1.98,1.056,1.98,2.088a2.646,2.646,0,0,1-2.064,2.4,5.589,5.589,0,0,1-1.8.324,2.474,2.474,0,0,1,.384.8,6.606,6.606,0,0,0,2.448-.684A3.078,3.078,0,0,0,96.2,29.636a2.886,2.886,0,0,0-2.58-2.808c.2-.564.336-.888.372-.96l-.828-.252a4.506,4.506,0,0,1-.288,1.08c-.3-.024-.444-.036-.7-.036a6.341,6.341,0,0,0-1.776.24c.012-.588.012-.588.084-1.608a33.616,33.616,0,0,0,4.248-.48c.228-.036.264-.036.42-.06l-.048-.84a18.44,18.44,0,0,1-4.572.672,7.978,7.978,0,0,1,.252-1.68l-.936-.06a1.274,1.274,0,0,1,.012.18c0,.084-.024.552-.036.684-.048.612-.048.612-.06.9-.216.012-.264.012-.3.012a8.4,8.4,0,0,1-2.244-.192Zm2.436,2.628a16.972,16.972,0,0,0,.24,3.252,2.167,2.167,0,0,1-1.38.612c-.516,0-.864-.432-.864-1.092a2.835,2.835,0,0,1,.732-1.788A4.289,4.289,0,0,1,89.652,27.884Zm.888,2.748V30.5a.792.792,0,0,0-.012-.168,20.183,20.183,0,0,1-.132-2.748,5.4,5.4,0,0,1,1.668-.276c.132,0,.192,0,.576.024a10.838,10.838,0,0,1-1.836,3,1.3,1.3,0,0,0-.228.312Zm8.7.48a2.543,2.543,0,0,1,.312-.384c.2-.228.372-.42.5-.564.408-.456.408-.456.588-.66a1.333,1.333,0,0,0,.216-.288h.024c-.036.54-.036.54-.036,1.944a10.261,10.261,0,0,1-.084,1.98h.936a18.609,18.609,0,0,1-.036-1.992V28.556a19.458,19.458,0,0,1,2.316-2.04,3.416,3.416,0,0,1,1.812-.816.608.608,0,0,1,.66.648,9,9,0,0,1-.3,1.8,11.657,11.657,0,0,0-.456,2.8,1.381,1.381,0,0,0,1.4,1.62,2.066,2.066,0,0,0,1.656-.864,5.923,5.923,0,0,0,.744-1.188,3.949,3.949,0,0,1-.552-.816,4.938,4.938,0,0,1-.684,1.38,1.447,1.447,0,0,1-1.02.66c-.468,0-.72-.3-.72-.852a13.2,13.2,0,0,1,.516-2.844,8.015,8.015,0,0,0,.276-1.752,1.3,1.3,0,0,0-1.4-1.4A4.823,4.823,0,0,0,103.2,26.2a8.566,8.566,0,0,0-1.524,1.4l-.024-.012c0-.072.012-.1.012-.192a.613.613,0,0,0,.012-.108c.012-.564.012-.564.024-.8a2.045,2.045,0,0,0,.012-.3,4.136,4.136,0,0,1,.612-.744l-.312-.372a.783.783,0,0,1-.24.06A13.968,13.968,0,0,1,101.916,23l-.948-.012a4.884,4.884,0,0,1,.036.6c0,.156-.012.7-.048,1.608-1.008.06-1.536.1-1.572.1a2.428,2.428,0,0,1-.372-.024l.048.828a12.228,12.228,0,0,1,1.884-.168c-.036,1.056-.06,1.812-.072,2.292a18.427,18.427,0,0,1-2.112,2.028Zm13.188-7.86a4.967,4.967,0,0,1-.132.756,20.263,20.263,0,0,0-.624,4.932,19.2,19.2,0,0,0,.336,3.564c.048.288.06.336.072.444l.852-.1a1.231,1.231,0,0,1-.024-.24,10.392,10.392,0,0,1,1.032-3.4l-.588-.276a2.462,2.462,0,0,1-.1.24,10.825,10.825,0,0,0-.708,2.1H112.5l-.012-.576c-.036-.54-.048-1.248-.048-1.68a17.155,17.155,0,0,1,.924-5.628Zm5.592,2.532c-.492.024-.816.036-1.284.036a8.365,8.365,0,0,1-2.16-.192l-.024.84h.048a.551.551,0,0,1,.12.012,2.083,2.083,0,0,1,.216.012,3.121,3.121,0,0,1,.372.024c.408.024.852.036,1.356.036s.852-.012,1.368-.036c.036,1.812.084,2.892.12,3.132a3.6,3.6,0,0,0-1.332-.228c-1.344,0-2.28.708-2.28,1.728s.876,1.68,2.268,1.68a2.057,2.057,0,0,0,2.016-1.008,2.131,2.131,0,0,0,.144-.828,1.608,1.608,0,0,0-.024-.3.711.711,0,0,1,.072.048l.072.048a.711.711,0,0,0,.072.048,6.245,6.245,0,0,1,1.7,1.248l.384-.852a1.59,1.59,0,0,1-.3-.192,9.268,9.268,0,0,0-2.016-1.188c-.084-1.44-.12-2.352-.12-3.4.564-.072,1-.132,1.26-.192.444-.084.7-.144.768-.156.012,0,.048-.012.072-.012l-.036-.792a9.781,9.781,0,0,1-2.076.42v-.588a14.965,14.965,0,0,1,.072-1.884h-.9a2.408,2.408,0,0,1,.036.492v1.368Zm.144,4.6a2.217,2.217,0,0,1,.024.348,1.334,1.334,0,0,1-.228.948,1.676,1.676,0,0,1-1.224.432c-.84,0-1.4-.384-1.4-.96,0-.624.6-1.008,1.548-1.008A3.286,3.286,0,0,1,118.164,30.38Zm1.116-7.692a9.688,9.688,0,0,1,.9,1.98l.636-.228A8.978,8.978,0,0,0,119.9,22.5Zm1.416-.36a9.85,9.85,0,0,1,.912,1.944l.612-.24a9.124,9.124,0,0,0-.912-1.932Zm2.5,8.448a11.977,11.977,0,0,1,2.364,2.616l.672-.636a12.227,12.227,0,0,0-2.412-2.544Zm15.972-5.232V24.128a5.184,5.184,0,0,1,.048-.972h-.972a6.952,6.952,0,0,1,.048,1.008v1.38h-1a8.722,8.722,0,0,1-1.4-.072v.912a11.046,11.046,0,0,1,1.392-.06h1.008v1.968a6.846,6.846,0,0,1-.048,1.008h.972a6.6,6.6,0,0,1-.048-.972v-2h3.648c-.012.972-.024,1.344-.048,1.728a3.9,3.9,0,0,1-1.284,3,5.306,5.306,0,0,1-2.292,1.176,2.15,2.15,0,0,1,.54.756,8.909,8.909,0,0,0,1.392-.612,5.075,5.075,0,0,0,1.956-1.98c.444-.864.564-1.632.588-4.068h1.056a11.046,11.046,0,0,1,1.392.06v-.912a8.722,8.722,0,0,1-1.4.072h-1.032v-1.26a8.231,8.231,0,0,1,.048-1.116h-.936a7.973,7.973,0,0,1,.036,1.212v1.164Zm9.24,2.94a13.109,13.109,0,0,1,1.488-.048h6.96a13.727,13.727,0,0,1,1.464.048v-.972a9.465,9.465,0,0,1-1.452.06h-6.972A8.489,8.489,0,0,1,148.4,27.5Zm14.64-4.044a5.31,5.31,0,0,1,.06-1.008h-.984a6.657,6.657,0,0,1,.048,1V29.96c0,.5.012.744.024.936a1.593,1.593,0,0,0,.492,1.152,4.349,4.349,0,0,0,2.628.492c.828,0,2.412-.084,3.18-.168l.576-.06.156-.012c.18-.024.216-.024.4-.036l-.072-.96a5.781,5.781,0,0,1-1.188.24,23.739,23.739,0,0,1-2.748.192,12.514,12.514,0,0,1-1.416-.072,1.44,1.44,0,0,1-.912-.312c-.2-.2-.252-.48-.252-1.32V29.9l.012-.072V28.076a18.628,18.628,0,0,0,5.724-2.028c.276-.144.336-.168.516-.252l-.612-.816a14.566,14.566,0,0,1-5.628,2.3Zm5.412-1.308a8.887,8.887,0,0,1,1.236,1.908l.6-.36a9.11,9.11,0,0,0-1.236-1.86Zm1.368-.648a8.989,8.989,0,0,1,1.224,1.884l.612-.336a10.377,10.377,0,0,0-1.248-1.872Zm13.068,9.468a29.842,29.842,0,0,0-4-3.6,14.511,14.511,0,0,0,1.98-3.36,2.239,2.239,0,0,1,.336-.588l-.5-.516a2.238,2.238,0,0,1-.768.1l-4.284.048h-.312a5.64,5.64,0,0,1-.948-.06l.024.972a8.075,8.075,0,0,1,1.236-.1l4.008-.06a2.038,2.038,0,0,0,.288-.012.254.254,0,0,1-.036.084c-.024.06-.036.072-.06.144a13.006,13.006,0,0,1-4.284,5.412,9.66,9.66,0,0,1-2.436,1.38,2.671,2.671,0,0,1,.588.792,15.453,15.453,0,0,0,2.352-1.44A13.026,13.026,0,0,0,178.368,29a22.319,22.319,0,0,1,3.84,3.708ZM185.58,25.6a39.95,39.95,0,0,1,4.14-.4,24.559,24.559,0,0,0,2.64-.264,7.856,7.856,0,0,0-1.14.636,4.566,4.566,0,0,0-2.244,3.684,2.905,2.905,0,0,0,1.332,2.448,6.053,6.053,0,0,0,2.592.924c.216.036.24.048.372.072l.156-.972h-.12a6.15,6.15,0,0,1-1.8-.384,2.353,2.353,0,0,1-1.68-2.22A3.668,3.668,0,0,1,191.3,26.36a5.9,5.9,0,0,1,2.3-1.2,5.033,5.033,0,0,1,1.344-.168l-.072-.888a8.1,8.1,0,0,1-1.428.132l-.684.024c-.4.012-.552.024-2.028.108l-1.884.12c-1.476.084-1.548.1-2.22.144-.372.024-.516.036-.684.036-.084,0-.2,0-.432-.012Zm7.368,1.152a8.439,8.439,0,0,1,1.224,1.908l.612-.36a9.11,9.11,0,0,0-1.236-1.86Zm1.368-.648a9.5,9.5,0,0,1,1.224,1.884l.6-.336a9.725,9.725,0,0,0-1.236-1.872Zm13.272-.648a8.995,8.995,0,0,1-1.74,1.968,10.082,10.082,0,0,1-.456-2.076l-.732.216c.036.132.048.192.1.348a16.17,16.17,0,0,0,.972,3.168,9.954,9.954,0,0,0,2.256,3.336,3.931,3.931,0,0,1,.612-.672,7.472,7.472,0,0,1-1.824-2.136,8.714,8.714,0,0,1-.684-1.476,20.694,20.694,0,0,0,1.992-1.98,1.331,1.331,0,0,1,.132-.132Zm-5.136,3.024h-.84a5.223,5.223,0,0,1-.948-.06v.708a5.385,5.385,0,0,1,.948-.06h.84v1.176h-1.464a5.206,5.206,0,0,1-.96-.06v.732a5.794,5.794,0,0,1,1.008-.06h1.416v1.416c0,.288-.084.348-.5.348a10.2,10.2,0,0,1-1.7-.156,2.264,2.264,0,0,1,.18.78c.54.036.972.06,1.452.06a2.049,2.049,0,0,0,.96-.132c.228-.132.324-.348.324-.78V30.86h1.464a5.35,5.35,0,0,1,.972.06v-.732a4.5,4.5,0,0,1-.912.06H203.16V29.072h.96a4.726,4.726,0,0,1,.912.06v-.708a4.5,4.5,0,0,1-.912.06h-.96V27.428h.768a4.747,4.747,0,0,1,.852.06V26.78a4.433,4.433,0,0,1-.852.06h-.768V25.8a18.558,18.558,0,0,0,2.976-1.944l.228-.192-.4-.528a8.049,8.049,0,0,1-1.128.048h-4.4a10.546,10.546,0,0,1-1.368-.072v.8a9.925,9.925,0,0,1,1.368-.072h4.656A14.3,14.3,0,0,1,202.74,25.3h-.348a6.483,6.483,0,0,1,.06,1.068v.468h-.732a4.509,4.509,0,0,1-.852-.06v.708a6.188,6.188,0,0,1,.852-.06h.732Zm-2.016-2.616a3.262,3.262,0,0,1-.684.048h-1.32a4.688,4.688,0,0,1-.948-.06v.78a4.712,4.712,0,0,1,.924-.06h1.548a10.7,10.7,0,0,1-1.08,3.156A7.356,7.356,0,0,1,197.1,31.88a2.711,2.711,0,0,1,.564.6,9.4,9.4,0,0,0,1.824-2.376,14.09,14.09,0,0,0,1.176-3.4c.06-.228.084-.324.132-.456ZM211.344,28.6a5.3,5.3,0,0,1,1.284-.4,13.948,13.948,0,0,1,3.156-.48c1.452,0,2.22.588,2.22,1.68a2.736,2.736,0,0,1-2.2,2.424,8.182,8.182,0,0,1-2.364.372.912.912,0,0,1-.168-.012,2.628,2.628,0,0,1,.312.828,11.365,11.365,0,0,0,2.472-.456,3.507,3.507,0,0,0,2.748-3.1,2.625,2.625,0,0,0-.372-1.368,2.745,2.745,0,0,0-2.544-1.116,15.493,15.493,0,0,0-3.66.528,5.634,5.634,0,0,1-1.1.216ZM222.4,25.628a35.247,35.247,0,0,1,4.14-.4,23.255,23.255,0,0,0,2.64-.264,7.855,7.855,0,0,0-1.14.636,4.549,4.549,0,0,0-2.244,3.684,2.921,2.921,0,0,0,1.332,2.448,6.053,6.053,0,0,0,2.592.924c.192.036.24.048.372.072l.156-.972h-.12a6.15,6.15,0,0,1-1.8-.384,2.353,2.353,0,0,1-1.68-2.22,3.668,3.668,0,0,1,1.476-2.772,6.094,6.094,0,0,1,2.3-1.212,5.566,5.566,0,0,1,1.344-.156l-.072-.9a8.055,8.055,0,0,1-1.428.132c-1.548.072-5.388.288-6.816.4-.372.024-.516.036-.684.036h-.432Zm18.168-.936a12.127,12.127,0,0,1-2.448.516V24.056a6.862,6.862,0,0,1,.06-1.116h-.888a7.973,7.973,0,0,1,.06,1.14v1.188c-.36.024-.828.036-1.152.036a6.8,6.8,0,0,1-1.224-.084v.792h.492c.132.012.456.012.636.012.348,0,.552,0,.768-.012.372-.024.372-.024.48-.036v2.268a6.419,6.419,0,0,0-1.692.984,2.172,2.172,0,0,0-.948,1.6,1.447,1.447,0,0,0,.552,1.128,3.169,3.169,0,0,0,1.98.768c.588,0,.876-.312.876-.96v-3a8.1,8.1,0,0,1,2.544-.468c1.572,0,2.568.732,2.568,1.908a1.593,1.593,0,0,1-1.608,1.692c-.876,0-1.236-.516-1.236-1.764a3.563,3.563,0,0,1,.024-.468,2.6,2.6,0,0,1-.792.312,4.379,4.379,0,0,0,.144,1.356,1.77,1.77,0,0,0,1.848,1.356,2.469,2.469,0,0,0,1.212-4.608,4.063,4.063,0,0,0-2.124-.5,8.5,8.5,0,0,0-2.58.432V25.928a21.06,21.06,0,0,0,2.124-.36c.168-.036.216-.048.36-.072Zm-3.216,6.624c0,.516-.036.588-.276.588A2.241,2.241,0,0,1,236,31.556c-.348-.228-.516-.468-.516-.72,0-.576.672-1.224,1.86-1.8Zm7.212-5.076a10.084,10.084,0,0,0-2.424-2.28l-.624.468a9.829,9.829,0,0,1,2.424,2.352Zm4.512-3.36a2.407,2.407,0,0,1-.036.384,30.333,30.333,0,0,0-.408,4.428v.276l.024,1.248.012.216v.132l.864-.036c-.012-.18-.012-.24-.012-.288a6.263,6.263,0,0,1,.648-2.676c.684-1.4,1.452-2.088,2.364-2.088,1.152,0,1.824,1.116,1.824,3.048a4.132,4.132,0,0,1-2.064,3.984,6.341,6.341,0,0,1-2.436.756,2.477,2.477,0,0,1,.48.816,9.083,9.083,0,0,0,2.136-.708,4.951,4.951,0,0,0,2.772-4.716,4.929,4.929,0,0,0-.72-2.916,2.259,2.259,0,0,0-1.92-1.068,2.862,2.862,0,0,0-2.4,1.548,5.354,5.354,0,0,0-.732,1.788c-.06.252-.06.252-.084.348l-.048-.012c.036-.612.2-1.92.4-3.132a6.8,6.8,0,0,1,.276-1.236Zm19.668,8.76a4.1,4.1,0,0,1-.408-.276,10.5,10.5,0,0,0-3.348-1.752c-.048-1.164-.048-1.164-.072-1.836.888-.06,1.836-.156,2.664-.288.42-.06.54-.072.7-.084l-.048-.828a14.484,14.484,0,0,1-3.324.492c-.012-.636-.012-.636-.024-1.62a24.929,24.929,0,0,0,2.784-.288c.624-.084.624-.084.828-.1l-.06-.816a16.915,16.915,0,0,1-3.552.492,13.4,13.4,0,0,1,.084-1.692h-.924a9.4,9.4,0,0,1,.06,1.728c-.4,0-.8.012-1.044.012a14.908,14.908,0,0,1-3.072-.24l-.012.816a.98.98,0,0,1,.168-.012,1.456,1.456,0,0,1,.216.012c1.08.084,2.052.12,2.928.12.276,0,.468,0,.816-.012l.024,1.644c-.336.012-.756.012-1.068.012a14.728,14.728,0,0,1-2.748-.192l-.012.792h.1c.072,0,.168,0,.3.012.744.06,1.308.084,2.028.084.384,0,.984-.012,1.416-.024.012.312.012.54.024.7.012.348.012.6.024.708a.957.957,0,0,0,.012.132c0,.108,0,.108.012.144a5.337,5.337,0,0,0-1.08-.1,5.227,5.227,0,0,0-1.248.12c-1.056.24-1.68.864-1.68,1.656a1.569,1.569,0,0,0,.648,1.26,3.126,3.126,0,0,0,1.86.48,2.416,2.416,0,0,0,2.028-.756,2.084,2.084,0,0,0,.3-1.308,3.452,3.452,0,0,0-.024-.432c.324.132.6.252.8.36a9.656,9.656,0,0,1,2.448,1.716Zm-4.524-.972a1.572,1.572,0,0,1-.24,1.08,1.734,1.734,0,0,1-1.32.4c-1.044,0-1.644-.36-1.644-1s.78-1.068,1.968-1.068a4.405,4.405,0,0,1,1.224.132Zm13.02-6.06c-.816.024-1.752.048-2.9.1-1.932.072-1.932.072-2.28.072-.18,0-.264,0-.48-.012l.036.876c.8-.132,3.228-.252,5.64-.3v.624c0,.144.012.264.012.312,0,.444,0,.492.012.66a1.842,1.842,0,0,0-1.392-.54,2,2,0,0,0-2.124,1.98,2.006,2.006,0,0,0,3.48,1.248,1.681,1.681,0,0,0,.324-.588,3.108,3.108,0,0,1-1.344,2.532,6.151,6.151,0,0,1-1.944.9,2.635,2.635,0,0,1,.528.756,7.633,7.633,0,0,0,1.9-.972A3.862,3.862,0,0,0,278.3,29.12a3.438,3.438,0,0,0-.288-1.416V25.328c.972-.024,1.1-.024,1.284-.024a21.328,21.328,0,0,1,2.292.06v-.852c-.4.048-1.32.072-3.588.084v-.132a9.934,9.934,0,0,1,.06-1.5h-.9a4.043,4.043,0,0,1,.048.7Zm-.036,3.5a1.345,1.345,0,0,1-1.4,1.416,1.16,1.16,0,0,1-1.236-1.188,1.27,1.27,0,0,1,1.332-1.26,1.535,1.535,0,0,1,.8.192A.869.869,0,0,1,277.2,28.112Zm7.02,1.668a1.8,1.8,0,1,0,1.8,1.8A1.8,1.8,0,0,0,284.22,29.78Zm0,.684A1.116,1.116,0,1,1,283.1,31.58,1.122,1.122,0,0,1,284.22,30.464ZM10.464,45.344c-.216.084-.216.084-1.02.084H3a8.8,8.8,0,0,1-1.428-.084v.924a11.587,11.587,0,0,1,1.416-.06H9.8A6.366,6.366,0,0,1,8.46,48a5.2,5.2,0,0,1-1.9,1.14,2.357,2.357,0,0,1,.588.684,7.182,7.182,0,0,0,3.5-3.42,2.153,2.153,0,0,1,.288-.48ZM5.232,47.432a3.169,3.169,0,0,1,.048.648c0,2.34-.468,3.564-1.74,4.584a5.639,5.639,0,0,1-2.2,1.1,2.347,2.347,0,0,1,.552.8A6.537,6.537,0,0,0,4.968,52.5a6.428,6.428,0,0,0,1.188-4.224,4.353,4.353,0,0,1,.048-.84ZM20.8,44.672A10.073,10.073,0,0,1,18.5,46.94a16.9,16.9,0,0,1-6.228,3.108,2.778,2.778,0,0,1,.468.8,18.759,18.759,0,0,0,4.632-2.1v4.56A6.255,6.255,0,0,1,17.3,54.56h1.044a7.972,7.972,0,0,1-.06-1.272V48.176A21.135,21.135,0,0,0,21.1,45.764a2.716,2.716,0,0,1,.528-.5Zm12.18,8.544v.852h.912c-.024-.252-.036-.564-.036-.924V46.652a6.509,6.509,0,0,1,.036-.936,6.244,6.244,0,0,1-.936.036h-6.4a8.643,8.643,0,0,1-.936-.036,6.155,6.155,0,0,1,.048.936v6.516a6.235,6.235,0,0,1-.048.9h.924v-.852Zm0-.78H26.544V46.544h6.432Zm5.016-6.072a13.251,13.251,0,0,1,2.856,2.352l.624-.744a15.632,15.632,0,0,0-2.892-2.256Zm.084,7.8a6.305,6.305,0,0,1,.72-.192,12.1,12.1,0,0,0,4.476-1.788,10.525,10.525,0,0,0,3.66-4.584,2.4,2.4,0,0,1-.732-.708,9.067,9.067,0,0,1-4.9,5.34,10.445,10.445,0,0,1-3.492.924Zm14.568-8.04a16.791,16.791,0,0,1-2.568-.132l-.012.828a2.128,2.128,0,0,1,.264-.012h.192c.444.012,1.572.036,1.764.036a1.329,1.329,0,0,0,.228-.024L52.4,47a11.941,11.941,0,0,1-2.688,3.432l.672.672a3.971,3.971,0,0,1,.924-1,4.508,4.508,0,0,1,2.676-1.272c.564,0,.852.288.948.948a9.315,9.315,0,0,0-1.788.96,2.481,2.481,0,0,0-1.224,1.9c0,1.236,1.044,1.848,3.192,1.848a18.617,18.617,0,0,0,2.916-.24,4.723,4.723,0,0,1,.48-.06l-.108-.924a10.055,10.055,0,0,1-3.2.468c-1.692,0-2.436-.348-2.436-1.14,0-.72.624-1.284,2.256-2.052a3.154,3.154,0,0,1,.012.36,17.258,17.258,0,0,1-.072,1.728l.816-.012a2.608,2.608,0,0,1-.024-.432c0-.108,0-.276.012-.54.012-.24.012-.5.012-.66,0-.3,0-.42-.024-.732a19.923,19.923,0,0,1,3.2-1.056l-.384-.84a2.64,2.64,0,0,1-.816.348c-.528.192-1.212.444-2.088.792a1.456,1.456,0,0,0-1.584-1.332,3.193,3.193,0,0,0-1.812.588c-.12.084-.12.084-.552.42a.092.092,0,0,1-.024-.036v-.012a.012.012,0,0,0,.012-.012c.012-.012.072-.06.156-.12.048-.036.288-.312.408-.456a8.848,8.848,0,0,0,1.08-1.7,38.747,38.747,0,0,0,3.96-.312,3.74,3.74,0,0,1,.48-.06l-.072-.816a16.889,16.889,0,0,1-3.78.456,2.043,2.043,0,0,0-.252.012c.06-.108.216-.432.372-.816a2.548,2.548,0,0,1,.312-.648l-.96-.168a5.093,5.093,0,0,1-.576,1.644Zm14.9,4.488a4.579,4.579,0,0,1-.492,1.572A4.065,4.065,0,0,1,66.1,51l-.672.4c.084.084.1.108.192.216a7.606,7.606,0,0,0,1.044,1.14,6.58,6.58,0,0,1-2.9,1.632,2.579,2.579,0,0,1,.468.66,6.547,6.547,0,0,0,2.952-1.884,10.992,10.992,0,0,0,4.764,1.8,3.186,3.186,0,0,1,.372-.792A9.757,9.757,0,0,1,67.6,52.6a5.089,5.089,0,0,0,.672-1.992h2.076a10.494,10.494,0,0,1,1.188.048,6.259,6.259,0,0,1-.036-.96V48.26q0-.5.036-.9c-.324.024-.6.036-1.116.036H68.472v-.42c.012-.228.012-.384.012-.432V46.2h2.6a7.4,7.4,0,0,1,1.128.06v-.8a8.585,8.585,0,0,1-1.2.072H68.484a9.029,9.029,0,0,1,.06-1.38H67.68a8.053,8.053,0,0,1,.072,1.38h-2.22a7.866,7.866,0,0,1-1.152-.072v.8a6.88,6.88,0,0,1,1.1-.06h2.28v.48l-.012.72H65.784c-.588,0-.756-.012-1.08-.036a5.173,5.173,0,0,1,.048.84v1.644a5.855,5.855,0,0,1-.048.816,9.071,9.071,0,0,1,1.056-.048Zm.192-2.544c-.024.828-.06,1.4-.108,1.872H65.484V48.068Zm3.012,0V49.94h-2.4c.048-.552.072-1.056.1-1.872Zm-8.112,5.6a12.365,12.365,0,0,1-.072,1.44h.876a12.362,12.362,0,0,1-.06-1.4V47.132a18.048,18.048,0,0,0,.816-2.1c.1-.312.132-.42.216-.66l-.828-.216a6.979,6.979,0,0,1-.456,1.7,10.922,10.922,0,0,1-2.016,3.5,2.459,2.459,0,0,1,.48.66,8.816,8.816,0,0,0,1.08-1.728c-.036.756-.036.84-.036,1.452ZM75.384,50.2a5.3,5.3,0,0,1,1.284-.4,13.948,13.948,0,0,1,3.156-.48c1.452,0,2.22.588,2.22,1.68a2.736,2.736,0,0,1-2.2,2.424,8.182,8.182,0,0,1-2.364.372.912.912,0,0,1-.168-.012,2.628,2.628,0,0,1,.312.828,11.366,11.366,0,0,0,2.472-.456,3.507,3.507,0,0,0,2.748-3.1,2.625,2.625,0,0,0-.372-1.368,2.745,2.745,0,0,0-2.544-1.116,15.493,15.493,0,0,0-3.66.528,5.633,5.633,0,0,1-1.1.216Zm11.052-2.976a35.247,35.247,0,0,1,4.14-.4,23.255,23.255,0,0,0,2.64-.264,7.855,7.855,0,0,0-1.14.636,4.549,4.549,0,0,0-2.244,3.684,2.921,2.921,0,0,0,1.332,2.448,6.053,6.053,0,0,0,2.592.924c.192.036.24.048.372.072l.156-.972h-.12a6.15,6.15,0,0,1-1.8-.384,2.353,2.353,0,0,1-1.68-2.22,3.668,3.668,0,0,1,1.476-2.772,6.094,6.094,0,0,1,2.3-1.212,5.566,5.566,0,0,1,1.344-.156l-.072-.9a8.055,8.055,0,0,1-1.428.132c-1.548.072-5.388.288-6.816.4-.372.024-.516.036-.684.036h-.432Zm14.5-.828h-1.62a6.8,6.8,0,0,1-1.092-.072v.744a6.555,6.555,0,0,1,1.08-.06h1.632v.744H99.816c-.5,0-.828-.012-1.14-.036a8,8,0,0,1,.036,1.056v1.4c0,.6-.012.864-.036,1.128.288-.024.612-.036,1.116-.036h1.14v.8h-1.32a6.612,6.612,0,0,1-1.1-.06v.744A10.331,10.331,0,0,1,99.6,52.7h1.332v.936c-1.224.12-1.908.168-2.28.168-.108,0-.312-.012-.5-.024l.156.828a5.6,5.6,0,0,1,.636-.1c2.04-.2,3.24-.36,4.92-.648v-.636c-1.056.18-1.464.24-2.232.336V52.7h1.32a5.983,5.983,0,0,1,.984.048v-.72a7.239,7.239,0,0,1-1.092.048h-1.212v-.8h1.2c.5,0,.816.012,1.1.036a8.141,8.141,0,0,1-.048-1.14V48.776a6.377,6.377,0,0,1,.048-1.056c-.288.024-.588.036-1.056.036h-1.248v-.744h1.536a5.277,5.277,0,0,1,.96.048v-.72a5.5,5.5,0,0,1-1.056.06h-1.44v-.948a16.273,16.273,0,0,0,1.716-.372c.432-.108.432-.108.6-.144l-.528-.612a15.353,15.353,0,0,1-5,.828,1.622,1.622,0,0,1,.3.636c.912-.072,1.356-.108,2.22-.228Zm0,1.932v.876H99.4v-.876Zm.7,0h1.584v.876h-1.584Zm-.7,1.428V50.7H99.4V49.76Zm.7,0h1.584V50.7h-1.584Zm4.836-2.8c.012-.408.012-.816.024-1.668a3.6,3.6,0,0,1,.072-.912h-.888a6.711,6.711,0,0,1,.072,1.38c0,.444,0,.792-.012,1.2h-.4a6.309,6.309,0,0,1-1.068-.06v.816a7.327,7.327,0,0,1,1.116-.06h.312a12.68,12.68,0,0,1-.924,4.92,6.208,6.208,0,0,1-1.392,1.944,2.68,2.68,0,0,1,.684.516,8.3,8.3,0,0,0,1.884-3.528,18.015,18.015,0,0,0,.492-3.852h1.476a30.527,30.527,0,0,1-.432,6.024c-.084.36-.216.444-.66.444a6.645,6.645,0,0,1-1.3-.168,3.214,3.214,0,0,1,.132.8,11.8,11.8,0,0,0,1.272.1c.66,0,.984-.156,1.152-.588.324-.78.48-2.472.564-6.1.024-.756.036-1,.06-1.26a8.771,8.771,0,0,1-1.068.048Zm5.316.252a6.549,6.549,0,0,1,.744-.036,25.529,25.529,0,0,0,3.24-.216c.3.648.372.78.684,1.368a23.905,23.905,0,0,1-3.78.3,9.327,9.327,0,0,1-.96-.036l.024.792c.216-.024.264-.024.84-.048a25,25,0,0,0,4.212-.348,11,11,0,0,0,1.284,1.848,7.213,7.213,0,0,0-2.424-.348c-2.28,0-3.66.78-3.66,2.076a1.676,1.676,0,0,0,.9,1.488,4.842,4.842,0,0,0,2.472.5,10.452,10.452,0,0,0,3.072-.444,6.988,6.988,0,0,1,.72-.2l-.168-.936a8.089,8.089,0,0,1-3.552.8c-1.644,0-2.556-.432-2.556-1.224,0-.828,1.116-1.368,2.844-1.368a12.132,12.132,0,0,1,1.572.108,3.254,3.254,0,0,1,1.32.456l.708-.5a14.065,14.065,0,0,1-1.764-2.388c.444-.084,1.044-.216,1.884-.432.4-.108.444-.108.648-.156l-.1-.8a12.207,12.207,0,0,1-2.748.744c-.18-.324-.5-.96-.684-1.356.672-.108,1.956-.384,3.024-.672l-.072-.78a15.181,15.181,0,0,1-3.2.792,9.994,9.994,0,0,1-.636-1.692l-.9.156a15.54,15.54,0,0,1,.72,1.644,23.71,23.71,0,0,1-2.844.168c-.408,0-.612-.012-.9-.036Zm14.664-1.092a16.791,16.791,0,0,1-2.568-.132l-.012.828a2.128,2.128,0,0,1,.264-.012h.192c.444.012,1.572.036,1.764.036a1.329,1.329,0,0,0,.228-.024L126.2,47a11.941,11.941,0,0,1-2.688,3.432l.672.672a3.971,3.971,0,0,1,.924-1,4.508,4.508,0,0,1,2.676-1.272c.564,0,.852.288.948.948a9.316,9.316,0,0,0-1.788.96,2.481,2.481,0,0,0-1.224,1.9c0,1.236,1.044,1.848,3.192,1.848a18.617,18.617,0,0,0,2.916-.24,4.723,4.723,0,0,1,.48-.06l-.108-.924a10.054,10.054,0,0,1-3.2.468c-1.692,0-2.436-.348-2.436-1.14,0-.72.624-1.284,2.256-2.052a3.151,3.151,0,0,1,.012.36,17.253,17.253,0,0,1-.072,1.728l.816-.012a2.608,2.608,0,0,1-.024-.432c0-.108,0-.276.012-.54.012-.24.012-.5.012-.66,0-.3,0-.42-.024-.732a19.924,19.924,0,0,1,3.2-1.056l-.384-.84a2.64,2.64,0,0,1-.816.348c-.528.192-1.212.444-2.088.792a1.456,1.456,0,0,0-1.584-1.332,3.193,3.193,0,0,0-1.812.588c-.12.084-.12.084-.552.42a.092.092,0,0,1-.024-.036v-.012a.012.012,0,0,0,.012-.012c.012-.012.072-.06.156-.12.048-.036.288-.312.408-.456a8.849,8.849,0,0,0,1.08-1.7,38.747,38.747,0,0,0,3.96-.312,3.74,3.74,0,0,1,.48-.06l-.072-.816a16.889,16.889,0,0,1-3.78.456,2.043,2.043,0,0,0-.252.012c.06-.108.216-.432.372-.816a2.548,2.548,0,0,1,.312-.648l-.96-.168a5.093,5.093,0,0,1-.576,1.644ZM140.16,48.4h-2.928V46.148a6.161,6.161,0,0,1,.048-.888h-.9a8.507,8.507,0,0,1,.06.924V48.56c0,.2-.012.384-.024.612.252-.012.528-.024.744-.024h3V53.54h-3.42V51.32a6.031,6.031,0,0,1,.06-1.02h-.912a6.663,6.663,0,0,1,.06,1.068v2.64a6.309,6.309,0,0,1-.072,1.008h.864V54.3h7.8v.72h.864a6,6,0,0,1-.072-1.008V51.3a6.663,6.663,0,0,1,.06-1.068h-.912a6.363,6.363,0,0,1,.06,1.032v2.28h-3.576V49.148h3.228c.228,0,.5.012.744.024-.012-.2-.024-.372-.024-.612V46.172a5.918,5.918,0,0,1,.06-.912h-.9a6.532,6.532,0,0,1,.048.876V48.4h-3.156V45.368a5.445,5.445,0,0,1,.084-1.092h-.972a4.853,4.853,0,0,1,.084,1.092Zm9.624-3.564a3.69,3.69,0,0,1,.048.636c0,.192,0,.42-.012.78-.1,3.78-.108,4.08-.108,4.884a3.343,3.343,0,0,0,.66,2.46,2.846,2.846,0,0,0,2.256.84,4.2,4.2,0,0,0,3.384-1.5,7.3,7.3,0,0,0,1.332-2.724,3.4,3.4,0,0,1-.864-.576,7.129,7.129,0,0,1-.588,1.884,3.446,3.446,0,0,1-3.216,2.088,2.265,2.265,0,0,1-1.5-.468,1.889,1.889,0,0,1-.564-1.44c-.012-.276-.024-.576-.024-.72,0-.54.036-2.172.084-3.612a18.5,18.5,0,0,1,.156-2.532Zm10.092,2.388a35.246,35.246,0,0,1,4.14-.4,23.255,23.255,0,0,0,2.64-.264,7.854,7.854,0,0,0-1.14.636,4.549,4.549,0,0,0-2.244,3.684,2.921,2.921,0,0,0,1.332,2.448,6.053,6.053,0,0,0,2.592.924c.192.036.24.048.372.072l.156-.972h-.12a6.15,6.15,0,0,1-1.8-.384,2.353,2.353,0,0,1-1.68-2.22,3.668,3.668,0,0,1,1.476-2.772,6.094,6.094,0,0,1,2.3-1.212,5.566,5.566,0,0,1,1.344-.156l-.072-.9a8.055,8.055,0,0,1-1.428.132c-1.548.072-5.388.288-6.816.4-.372.024-.516.036-.684.036h-.432Zm22.212,5.616a2.448,2.448,0,0,1-.324-.228,8.988,8.988,0,0,0-2.076-1.128c-.048-.756-.06-1.14-.084-2.544a15.793,15.793,0,0,0,1.776-.252,2.915,2.915,0,0,1,.336-.06l-.024-.792a8.919,8.919,0,0,1-2.1.408v-.936c0-.348.012-.588.024-1,.48-.048.852-.1,1.284-.18l.684-.108-.024-.78a15.585,15.585,0,0,1-4.02.456,8.873,8.873,0,0,1-2.052-.168l-.036.792c.228,0,.288,0,.72.024.456.036.948.048,1.44.048.456,0,.756-.012,1.224-.036-.024.528-.024.768-.024.984,0,.144,0,.324.012.948-.576.024-1.044.036-1.44.036a8.364,8.364,0,0,1-1.992-.168l-.024.8h.1a1.859,1.859,0,0,1,.252.012c.876.048,1.164.06,1.7.06.516,0,.792-.012,1.428-.036.024,1.356.06,2.124.084,2.292a3.535,3.535,0,0,0-1.272-.216c-1.38,0-2.328.684-2.328,1.68s.864,1.656,2.208,1.656a1.719,1.719,0,0,0,2.184-1.8,1.424,1.424,0,0,0-.024-.336c.06.024.06.024.192.084.024,0,.024,0,.264.144a7.036,7.036,0,0,1,1.572,1.164Zm-3.168-.852c.012.012.024.42.024.516,0,.816-.444,1.2-1.392,1.2-.888,0-1.428-.36-1.428-.948,0-.612.6-.984,1.584-.984A3.5,3.5,0,0,1,178.92,51.992Zm-5.268,2.5a.689.689,0,0,1-.012-.144,11.837,11.837,0,0,1,1.092-3.552l-.576-.288a16.881,16.881,0,0,0-.7,1.9,3.324,3.324,0,0,1-.132.456l-.036-.012c0-.456-.012-.552-.012-.66,0-.3,0-.3-.012-.6-.012-.276-.024-.564-.024-.852a19.862,19.862,0,0,1,.42-4.008,11.218,11.218,0,0,1,.492-1.848l-.924-.144a5.274,5.274,0,0,1-.12.648,24.172,24.172,0,0,0-.636,5.268,23.193,23.193,0,0,0,.2,2.976,4.843,4.843,0,0,1,.108.912Zm12.492-9.648a3.69,3.69,0,0,1,.048.636c0,.192,0,.42-.012.78-.1,3.78-.108,4.08-.108,4.884a3.343,3.343,0,0,0,.66,2.46,2.846,2.846,0,0,0,2.256.84,4.2,4.2,0,0,0,3.384-1.5,7.3,7.3,0,0,0,1.332-2.724,3.4,3.4,0,0,1-.864-.576,7.129,7.129,0,0,1-.588,1.884,3.446,3.446,0,0,1-3.216,2.088,2.265,2.265,0,0,1-1.5-.468,1.889,1.889,0,0,1-.564-1.44c-.012-.276-.024-.576-.024-.72,0-.54.036-2.172.084-3.612a18.5,18.5,0,0,1,.156-2.532Zm11.208.852a6.49,6.49,0,0,1,.036.708,18.029,18.029,0,0,0,.648,5.628c.408,1.152,1.032,1.824,1.7,1.824.852,0,1.4-.8,1.992-2.9a3.836,3.836,0,0,1-.708-.684,8.634,8.634,0,0,1-.624,2.052c-.18.4-.384.6-.6.6-.456,0-.948-.828-1.212-2.052a20.55,20.55,0,0,1-.312-3.732,8.7,8.7,0,0,1,.084-1.428Zm6.072,1.02a10.6,10.6,0,0,1,2.5,5.916l.852-.348a11.49,11.49,0,0,0-.9-3.2,10.416,10.416,0,0,0-1.716-2.736Zm5.208,5.664A11.977,11.977,0,0,1,211,54.992l.672-.636a12.227,12.227,0,0,0-2.412-2.544Zm22.62,1.176a29.842,29.842,0,0,0-4-3.6,14.511,14.511,0,0,0,1.98-3.36,2.239,2.239,0,0,1,.336-.588l-.5-.516a2.238,2.238,0,0,1-.768.1l-4.284.048H223.7a5.64,5.64,0,0,1-.948-.06l.024.972a8.074,8.074,0,0,1,1.236-.1l4.008-.06a2.038,2.038,0,0,0,.288-.012.254.254,0,0,1-.036.084c-.024.06-.036.072-.06.144a13.006,13.006,0,0,1-4.284,5.412A9.66,9.66,0,0,1,221.5,53.4a2.671,2.671,0,0,1,.588.792,15.453,15.453,0,0,0,2.352-1.44,13.026,13.026,0,0,0,2.292-2.148,22.319,22.319,0,0,1,3.84,3.708Zm6.132,1.02a8.161,8.161,0,0,1-.06-1.272V49.688a4.191,4.191,0,0,0-.048-.708l.024-.012a1.324,1.324,0,0,0,.372.2,24.467,24.467,0,0,1,4.476,2.376l.516-.888a29.761,29.761,0,0,0-5.34-2.532V45.884a7.532,7.532,0,0,1,.06-1.248h-1.032a7.115,7.115,0,0,1,.072,1.224v7.452a7.718,7.718,0,0,1-.072,1.26ZM247.9,44.984a6.2,6.2,0,0,1,.036.648v.444l-.024,6.876a2.3,2.3,0,0,1-.084.78l.48.6a3.015,3.015,0,0,1,.7-.18c3.2-.624,4.968-1.74,6.612-4.188a3.056,3.056,0,0,1-.66-.756,7.264,7.264,0,0,1-2.7,2.88,9.06,9.06,0,0,1-3.432,1.2l.036-7.236a7.394,7.394,0,0,1,.06-1.068Zm10.668,5.1a13.109,13.109,0,0,1,1.488-.048h6.96a13.728,13.728,0,0,1,1.464.048v-.972a9.464,9.464,0,0,1-1.452.06h-6.972a8.489,8.489,0,0,1-1.488-.072Zm15.9,4.488a8.16,8.16,0,0,1-.06-1.272V49.688a4.193,4.193,0,0,0-.048-.708l.024-.012a1.324,1.324,0,0,0,.372.2,24.466,24.466,0,0,1,4.476,2.376l.516-.888a29.76,29.76,0,0,0-5.34-2.532V45.884a7.531,7.531,0,0,1,.06-1.248h-1.032a7.115,7.115,0,0,1,.072,1.224v7.452a7.718,7.718,0,0,1-.072,1.26Zm10.1-9.732a6.685,6.685,0,0,1-.168.96,19.852,19.852,0,0,0-.54,4.752,17.2,17.2,0,0,0,.312,3.4c.036.228.048.288.072.48l.864-.072v-.18a10.46,10.46,0,0,1,.972-3.3L285.5,50.6a11.149,11.149,0,0,0-.78,2.34c-.048-.636-.072-1.344-.072-2.28a17.739,17.739,0,0,1,.36-3.756,17.051,17.051,0,0,1,.5-1.92Zm2.472,2.268a15.984,15.984,0,0,0,1.92.12,20.258,20.258,0,0,0,2.58-.156q.792-.108.828-.108l-.06-.852a12.876,12.876,0,0,1-3.216.324,8.15,8.15,0,0,1-2.04-.18Zm.876,2.34a3.315,3.315,0,0,0-1.044,2.232,1.7,1.7,0,0,0,.36,1.1,3.335,3.335,0,0,0,2.748.912,12.381,12.381,0,0,0,2.46-.24c.24-.036.264-.048.42-.06l-.12-.924a7.9,7.9,0,0,1-2.76.42c-1.548,0-2.3-.432-2.3-1.32a2.788,2.788,0,0,1,.9-1.764ZM2.784,66.44a3.691,3.691,0,0,1,.048.636c0,.192,0,.42-.012.78-.1,3.78-.108,4.08-.108,4.884a3.343,3.343,0,0,0,.66,2.46,2.846,2.846,0,0,0,2.256.84,4.2,4.2,0,0,0,3.384-1.5,7.3,7.3,0,0,0,1.332-2.724,3.4,3.4,0,0,1-.864-.576,7.129,7.129,0,0,1-.588,1.884,3.446,3.446,0,0,1-3.216,2.088,2.265,2.265,0,0,1-1.5-.468,1.889,1.889,0,0,1-.564-1.44c-.012-.276-.024-.576-.024-.72,0-.54.036-2.172.084-3.612a18.5,18.5,0,0,1,.156-2.532Zm10.092,2.388a35.249,35.249,0,0,1,4.14-.4,23.256,23.256,0,0,0,2.64-.264,7.855,7.855,0,0,0-1.14.636,4.549,4.549,0,0,0-2.244,3.684A2.921,2.921,0,0,0,17.6,74.936a6.053,6.053,0,0,0,2.592.924c.192.036.24.048.372.072l.156-.972H20.6a6.15,6.15,0,0,1-1.8-.384,2.353,2.353,0,0,1-1.68-2.22A3.668,3.668,0,0,1,18.6,69.584a6.094,6.094,0,0,1,2.3-1.212,5.565,5.565,0,0,1,1.344-.156l-.072-.9a8.056,8.056,0,0,1-1.428.132c-1.548.072-5.388.288-6.816.4-.372.024-.516.036-.684.036h-.432Zm22.212,5.616a2.448,2.448,0,0,1-.324-.228,8.987,8.987,0,0,0-2.076-1.128c-.048-.756-.06-1.14-.084-2.544a15.793,15.793,0,0,0,1.776-.252,2.915,2.915,0,0,1,.336-.06l-.024-.792a8.918,8.918,0,0,1-2.1.408v-.936c0-.348.012-.588.024-1,.48-.048.852-.1,1.284-.18l.684-.108-.024-.78a15.584,15.584,0,0,1-4.02.456,8.873,8.873,0,0,1-2.052-.168l-.036.792c.228,0,.288,0,.72.024.456.036.948.048,1.44.048.456,0,.756-.012,1.224-.036-.024.528-.024.768-.024.984,0,.144,0,.324.012.948-.576.024-1.044.036-1.44.036a8.364,8.364,0,0,1-1.992-.168l-.024.8h.1a1.858,1.858,0,0,1,.252.012c.876.048,1.164.06,1.7.06.516,0,.792-.012,1.428-.036.024,1.356.06,2.124.084,2.292a3.535,3.535,0,0,0-1.272-.216c-1.38,0-2.328.684-2.328,1.68s.864,1.656,2.208,1.656a1.719,1.719,0,0,0,2.184-1.8,1.424,1.424,0,0,0-.024-.336c.06.024.06.024.192.084.024,0,.024,0,.264.144a7.036,7.036,0,0,1,1.572,1.164Zm-3.168-.852c.012.012.024.42.024.516,0,.816-.444,1.2-1.392,1.2-.888,0-1.428-.36-1.428-.948,0-.612.6-.984,1.584-.984A3.5,3.5,0,0,1,31.92,73.592Zm-5.268,2.5a.689.689,0,0,1-.012-.144,11.837,11.837,0,0,1,1.092-3.552l-.576-.288a16.885,16.885,0,0,0-.7,1.9,3.323,3.323,0,0,1-.132.456l-.036-.012c0-.456-.012-.552-.012-.66,0-.3,0-.3-.012-.6-.012-.276-.024-.564-.024-.852a19.862,19.862,0,0,1,.42-4.008,11.219,11.219,0,0,1,.492-1.848l-.924-.144a5.274,5.274,0,0,1-.12.648,24.173,24.173,0,0,0-.636,5.268,23.192,23.192,0,0,0,.2,2.976,4.843,4.843,0,0,1,.108.912ZM39.144,66.44a3.691,3.691,0,0,1,.048.636c0,.192,0,.42-.012.78-.1,3.78-.108,4.08-.108,4.884a3.343,3.343,0,0,0,.66,2.46,2.846,2.846,0,0,0,2.256.84,4.2,4.2,0,0,0,3.384-1.5A7.3,7.3,0,0,0,46.7,71.816a3.4,3.4,0,0,1-.864-.576,7.129,7.129,0,0,1-.588,1.884,3.446,3.446,0,0,1-3.216,2.088,2.265,2.265,0,0,1-1.5-.468,1.889,1.889,0,0,1-.564-1.44c-.012-.276-.024-.576-.024-.72,0-.54.036-2.172.084-3.612a18.5,18.5,0,0,1,.156-2.532Zm11.208.852a6.493,6.493,0,0,1,.036.708,18.029,18.029,0,0,0,.648,5.628c.408,1.152,1.032,1.824,1.7,1.824.852,0,1.4-.8,1.992-2.9a3.836,3.836,0,0,1-.708-.684,8.634,8.634,0,0,1-.624,2.052c-.18.4-.384.6-.6.6-.456,0-.948-.828-1.212-2.052a20.55,20.55,0,0,1-.312-3.732A8.7,8.7,0,0,1,51.36,67.3Zm6.072,1.02a10.6,10.6,0,0,1,2.5,5.916l.852-.348a11.49,11.49,0,0,0-.9-3.2,10.416,10.416,0,0,0-1.716-2.736Zm8.616-2.244a12.346,12.346,0,0,1-.408,2.256c-.228,0-.624.012-.864.012a7.583,7.583,0,0,1-1.428-.1l-.012.828h.156c.036,0,.132,0,.264.012.18,0,.588.012.792.012.18,0,.588-.012.888-.024a17.968,17.968,0,0,1-1.248,3.1,10.594,10.594,0,0,1-1.152,1.872l.816.48c.06-.1.132-.24.24-.408.456-.792.564-1,.852-1.572a22.357,22.357,0,0,0,1.332-3.5,14.488,14.488,0,0,0,1.968-.252c.288-.048.288-.048.42-.072l-.036-.828a9.986,9.986,0,0,1-2.148.4c.168-.612.24-.9.324-1.308a3.758,3.758,0,0,1,.192-.768Zm7.068,3.312A16.539,16.539,0,0,0,68.94,67.8l-.444.672a13.015,13.015,0,0,1,3.18,1.632Zm.024,5.316a1.215,1.215,0,0,1-.216-.192,8.62,8.62,0,0,0-2.352-1.452,14.315,14.315,0,0,1-.132-1.824,3.683,3.683,0,0,1,.156-1.116l-.816-.084a4.859,4.859,0,0,0-.12,1.164c0,.3.024.864.084,1.644a3.96,3.96,0,0,0-1.212-.18,3.507,3.507,0,0,0-1.416.264,1.7,1.7,0,0,0-1.116,1.524c0,1.068.9,1.74,2.34,1.74,1.464,0,2.28-.684,2.28-1.92a2.487,2.487,0,0,0-.024-.384,6.864,6.864,0,0,1,2.1,1.632ZM68.8,73.6s.024.372.024.516c0,.9-.468,1.308-1.5,1.308-.948,0-1.524-.372-1.524-.984,0-.66.648-1.08,1.668-1.08A3.561,3.561,0,0,1,68.8,73.6Zm8.328-7.152a5.191,5.191,0,0,1,.2.768,24.232,24.232,0,0,0,.876,3.348,7.459,7.459,0,0,0-1.572.984,2.6,2.6,0,0,0-1.068,2.04,1.992,1.992,0,0,0,1.488,1.968,8.164,8.164,0,0,0,2.664.324,24.074,24.074,0,0,0,2.652-.156l.408-.048.12-.012a3.155,3.155,0,0,1,.36-.012l-.1-1a11.915,11.915,0,0,1-3.432.408c-2.352,0-3.276-.432-3.276-1.512,0-1,.888-1.788,2.94-2.616A31.777,31.777,0,0,1,83,69.776l-.36-.912a5.43,5.43,0,0,1-.768.324c-1.848.636-2.244.792-2.9,1.068a21.866,21.866,0,0,1-.9-3.972Zm4.4-.036a9.358,9.358,0,0,1,1.224,1.908l.612-.36a9.633,9.633,0,0,0-1.236-1.86Zm1.368-.648a10.064,10.064,0,0,1,1.224,1.884l.6-.336a9.6,9.6,0,0,0-1.248-1.872Zm3.456,8.208a11.976,11.976,0,0,1,2.364,2.616l.672-.636a12.227,12.227,0,0,0-2.412-2.544Zm19.128-6.024v1.56h-1.6a7.964,7.964,0,0,1-1.212-.072v.8a8.77,8.77,0,0,1,1.212-.072h3.372v1.4h-3.372a7.645,7.645,0,0,1-1.212-.072v.828a8.957,8.957,0,0,1,1.2-.072h3.384v3.3c0,.264-.084.312-.54.312a8.71,8.71,0,0,1-1.368-.144,2.135,2.135,0,0,1,.192.792c.7.036.888.048,1.08.048,1.116,0,1.38-.18,1.38-.948V72.26h.372a7.991,7.991,0,0,1,1.176.072V71.5a7.342,7.342,0,0,1-1.176.072H108v-1.4h.4a7.7,7.7,0,0,1,1.164.072v-.8a7.856,7.856,0,0,1-1.212.072h-2.124v-1.56h1.7a9.9,9.9,0,0,1,1.14.06V67.22a7.253,7.253,0,0,1-1.14.072h-1.7v-.384a5.843,5.843,0,0,1,.072-.972h-.888a6.162,6.162,0,0,1,.072.972v.384h-1.272a7.045,7.045,0,0,1-1.14-.072v.792a10.46,10.46,0,0,1,1.152-.06Zm-6.156,6.576a9.6,9.6,0,0,1-.072,1.272h.78v-.984H101.6v.6h.744c-.024-.264-.036-.576-.036-1.152V67.688a8.89,8.89,0,0,1,.036-1.176,10.312,10.312,0,0,1-1.08.036h-.888a10.764,10.764,0,0,1-1.1-.036,9.933,9.933,0,0,1,.048,1.152Zm.708-7.308H101.6V70.2h-1.572Zm0,3.624H101.6v3.3h-1.572Zm5.76,3.84a12.913,12.913,0,0,0-1.728-1.956l-.588.42a10.89,10.89,0,0,1,1.668,2.016Zm6.636-4.74h2.2c.48,0,.888.012,1.212.036-.024-.3-.036-.636-.036-1.116V67.376c0-.444.012-.8.036-1.14a10.528,10.528,0,0,1-1.224.048H112.9a11.106,11.106,0,0,1-1.26-.048c.036.384.048.732.048,1.32v7.752a8.97,8.97,0,0,1-.072,1.344h.888a8.644,8.644,0,0,1-.072-1.344Zm0-3.072h2.688v.96h-2.688Zm0,1.524h2.688v.972h-2.688Zm8.916-.84a11.354,11.354,0,0,1,.06-1.32,11.106,11.106,0,0,1-1.26.048h-1.98a10.4,10.4,0,0,1-1.224-.048c.024.36.036.72.036,1.14v1.488c0,.444-.012.8-.036,1.116.324-.024.708-.036,1.212-.036h2.46v5.5c0,.288-.1.348-.588.348a13.048,13.048,0,0,1-1.32-.12,2.754,2.754,0,0,1,.216.768c.3.024.948.048,1.2.048.972,0,1.224-.2,1.224-1Zm-3.684-.684h2.952v.96H117.66Zm0,1.524h2.952v.972H117.66Zm1.068,3.624c0-.48.012-.792.036-1.128a10.632,10.632,0,0,1-1.188.048h-2.2a10.77,10.77,0,0,1-1.188-.048c.024.348.036.7.036,1.128v2.664a7.4,7.4,0,0,1-.06,1.128h.744v-.84h2.628c.492,0,.888.012,1.224.036-.024-.312-.036-.636-.036-1.092Zm-3.816-.48h3.132v1.068h-3.132Zm0,1.668h3.132v1.164h-3.132Zm12.132-5.484a16.791,16.791,0,0,1-2.568-.132l-.012.828a2.128,2.128,0,0,1,.264-.012h.192c.444.012,1.572.036,1.764.036a1.33,1.33,0,0,0,.228-.024l-.108.18a11.941,11.941,0,0,1-2.688,3.432l.672.672a3.971,3.971,0,0,1,.924-1,4.508,4.508,0,0,1,2.676-1.272c.564,0,.852.288.948.948a9.316,9.316,0,0,0-1.788.96,2.481,2.481,0,0,0-1.224,1.9c0,1.236,1.044,1.848,3.192,1.848a18.616,18.616,0,0,0,2.916-.24,4.724,4.724,0,0,1,.48-.06l-.108-.924a10.055,10.055,0,0,1-3.2.468c-1.692,0-2.436-.348-2.436-1.14,0-.72.624-1.284,2.256-2.052a3.155,3.155,0,0,1,.012.36,17.259,17.259,0,0,1-.072,1.728l.816-.012a2.608,2.608,0,0,1-.024-.432c0-.108,0-.276.012-.54.012-.24.012-.5.012-.66,0-.3,0-.42-.024-.732a19.922,19.922,0,0,1,3.2-1.056l-.384-.84a2.64,2.64,0,0,1-.816.348c-.528.192-1.212.444-2.088.792a1.456,1.456,0,0,0-1.584-1.332,3.193,3.193,0,0,0-1.812.588c-.12.084-.12.084-.552.42a.092.092,0,0,1-.024-.036v-.012a.012.012,0,0,0,.012-.012c.012-.012.072-.06.156-.12.048-.036.288-.312.408-.456a8.849,8.849,0,0,0,1.08-1.7,38.745,38.745,0,0,0,3.96-.312,3.74,3.74,0,0,1,.48-.06l-.072-.816a16.89,16.89,0,0,1-3.78.456,2.042,2.042,0,0,0-.252.012c.06-.108.216-.432.372-.816a2.548,2.548,0,0,1,.312-.648l-.96-.168a5.093,5.093,0,0,1-.576,1.644Zm10.38,4.428a8.784,8.784,0,0,1-1.332-.072v.792a10.251,10.251,0,0,1,1.332-.06h1.644a11.952,11.952,0,0,1-1.32,1.368c1.2.252,2.052.456,2.988.732a10.694,10.694,0,0,1-4.716,1,2.756,2.756,0,0,1,.348.744,11.16,11.16,0,0,0,5.28-1.464,28.857,28.857,0,0,1,3.96,1.608l.54-.66a39.93,39.93,0,0,0-3.84-1.428,5.176,5.176,0,0,0,1.44-1.9h1.32a10.567,10.567,0,0,1,1.344.06V72.08a8.751,8.751,0,0,1-1.344.072h-4.644c.264-.4.336-.492.672-1.08h3.1a12.2,12.2,0,0,1,1.38.048,7.732,7.732,0,0,1-.048-1.056v-.852a8.827,8.827,0,0,1,.048-1.092,11.952,11.952,0,0,1-1.308.06h-1.428V67.016h2.244a9.6,9.6,0,0,1,1.332.06v-.792a9.013,9.013,0,0,1-1.368.072h-7.572a8.936,8.936,0,0,1-1.356-.072v.792a9.385,9.385,0,0,1,1.332-.06h2.1V68.18H138.18a12.2,12.2,0,0,1-1.3-.06,9.206,9.206,0,0,1,.048,1.092v.864a8.226,8.226,0,0,1-.048,1.044,12.619,12.619,0,0,1,1.38-.048h1.992a6.325,6.325,0,0,1-.672,1.08Zm5.472.66a3.87,3.87,0,0,1-1.416,1.656c-.912-.276-1.332-.384-2.448-.636a10.637,10.637,0,0,0,.912-1.02Zm-2.664-5.8h1.92V68.18h-1.92Zm-.684,1.776V70.46h-1.884V68.792Zm.684,0h1.92V70.46h-1.92Zm2.6,0h1.956V70.46h-1.956Zm11.4-.984c-.816.024-1.752.048-2.9.1-1.932.072-1.932.072-2.28.072-.18,0-.264,0-.48-.012l.036.876c.8-.132,3.228-.252,5.64-.3v.624c0,.144.012.264.012.312,0,.444,0,.492.012.66a1.842,1.842,0,0,0-1.392-.54,2,2,0,0,0-2.124,1.98,2.006,2.006,0,0,0,3.48,1.248,1.681,1.681,0,0,0,.324-.588,3.108,3.108,0,0,1-1.344,2.532,6.15,6.15,0,0,1-1.944.9,2.635,2.635,0,0,1,.528.756,7.632,7.632,0,0,0,1.9-.972A3.862,3.862,0,0,0,155.3,72.32a3.438,3.438,0,0,0-.288-1.416V68.528c.972-.024,1.1-.024,1.284-.024a21.329,21.329,0,0,1,2.292.06v-.852c-.4.048-1.32.072-3.588.084v-.132a9.934,9.934,0,0,1,.06-1.5h-.9a4.043,4.043,0,0,1,.048.7Zm-.036,3.5a1.345,1.345,0,0,1-1.4,1.416,1.16,1.16,0,0,1-1.236-1.188,1.27,1.27,0,0,1,1.332-1.26,1.535,1.535,0,0,1,.8.192A.869.869,0,0,1,154.2,71.312Zm8.652-3.552a5.913,5.913,0,0,1,.648-.06c1.824-.06,3.264-.144,3.648-.216a.464.464,0,0,1,.108-.012l.024.024-.048.048-.048.048-.168.168c-.828.816-2.724,2.484-4.008,3.5a13.369,13.369,0,0,1-1.68,1.224l.54.768A7.7,7.7,0,0,1,166.92,71.2c1.62,0,2.58.684,2.58,1.836,0,1.02-.66,1.752-1.92,2.1a3.435,3.435,0,0,0-.552-1.152,2.417,2.417,0,0,0-1.98-.984,1.559,1.559,0,0,0-1.74,1.4c0,1.1.972,1.728,2.664,1.728,2.664,0,4.4-1.236,4.4-3.108,0-1.536-1.284-2.52-3.288-2.52a6.08,6.08,0,0,0-2.94.744l-.024-.036a30.793,30.793,0,0,0,3.948-3.408,2.215,2.215,0,0,1,.612-.5l-.5-.66a1.227,1.227,0,0,1-.576.132c-1.08.084-2.676.156-3.672.156a5.541,5.541,0,0,1-1.128-.072Zm3.936,7.6a4.321,4.321,0,0,1-.876.084,3.066,3.066,0,0,1-1.344-.276.819.819,0,0,1-.48-.732c0-.456.372-.744.972-.744C165.924,73.688,166.524,74.264,166.788,75.356Zm6.84-2.448c.156-.2.252-.324.336-.42.768-.888,1.7-2.04,2.172-2.676.528-.708.588-.768.828-.768s.288.036,1.08.888a47.989,47.989,0,0,0,4.068,3.984c.792.672.8.684,1.068.924l.456-.984a5.642,5.642,0,0,1-1-.72,38.606,38.606,0,0,1-4.1-3.924c-.876-.96-1.068-1.1-1.548-1.1-.54,0-.84.228-1.524,1.14-.588.78-1.692,2.112-2.052,2.46a1.913,1.913,0,0,1-.4.3Zm21.516-5.964c-.216.084-.216.084-1.02.084H187.68a8.794,8.794,0,0,1-1.428-.084v.924a11.586,11.586,0,0,1,1.416-.06h6.816A6.367,6.367,0,0,1,193.14,69.6a5.2,5.2,0,0,1-1.9,1.14,2.357,2.357,0,0,1,.588.684,7.182,7.182,0,0,0,3.5-3.42,2.154,2.154,0,0,1,.288-.48Zm-5.232,2.088a3.168,3.168,0,0,1,.048.648c0,2.34-.468,3.564-1.74,4.584a5.639,5.639,0,0,1-2.2,1.1,2.347,2.347,0,0,1,.552.8,6.537,6.537,0,0,0,3.072-2.076,6.428,6.428,0,0,0,1.188-4.224,4.353,4.353,0,0,1,.048-.84Zm14.832-2.556a5.249,5.249,0,0,1-.42,1.272,16.49,16.49,0,0,1-1.416,2.8,34.47,34.47,0,0,0-3.12-2.088l-.6.636a22.726,22.726,0,0,1,3.228,2.172,12.783,12.783,0,0,1-4.776,4.008,2.138,2.138,0,0,1,.624.72,14.329,14.329,0,0,0,4.824-4.176,17.181,17.181,0,0,1,2.616,2.6l.672-.744a30.849,30.849,0,0,0-2.76-2.58,19.627,19.627,0,0,0,1.764-3.5,3.38,3.38,0,0,1,.372-.732Zm13.452-.2A10.073,10.073,0,0,1,215.9,68.54a16.9,16.9,0,0,1-6.228,3.108,2.778,2.778,0,0,1,.468.8,18.759,18.759,0,0,0,4.632-2.1v4.56a6.255,6.255,0,0,1-.072,1.248h1.044a7.971,7.971,0,0,1-.06-1.272V69.776a21.134,21.134,0,0,0,2.808-2.412,2.716,2.716,0,0,1,.528-.5Zm6.984-.252a5.442,5.442,0,0,1-.756,1.752,8.89,8.89,0,0,1-3.012,3.288,1.784,1.784,0,0,1,.672.624,11.568,11.568,0,0,0,2.868-3.12L229,68.492a11.026,11.026,0,0,1-2.064,4.02,10.207,10.207,0,0,1-4.236,3.036,1.809,1.809,0,0,1,.6.708,11.751,11.751,0,0,0,4.176-3,12.7,12.7,0,0,0,2.4-4.512c.132-.432.132-.444.24-.588l-.516-.5a1.179,1.179,0,0,1-.624.084c-3.468.06-3.468.06-3.624.1a11.483,11.483,0,0,0,.552-1.068,2.292,2.292,0,0,1,.264-.492Zm13.908,1.824a3.453,3.453,0,0,1,1.392.3,3.163,3.163,0,0,1,1.908,3.012,3.622,3.622,0,0,1-2.124,3.36,7.193,7.193,0,0,1-2,.564,1.907,1.907,0,0,1,.42.8,9.283,9.283,0,0,0,1.824-.552,4.369,4.369,0,0,0,2.748-4.14,4.017,4.017,0,0,0-1.164-2.928,4.645,4.645,0,0,0-3.3-1.188,4.873,4.873,0,0,0-5.136,4.908c0,1.68.852,2.928,1.992,2.928.864,0,1.572-.72,2.268-2.3A17.988,17.988,0,0,0,239.088,67.844Zm-.864.012a16.482,16.482,0,0,1-1.092,4.44c-.516,1.176-1,1.74-1.5,1.74-.648,0-1.152-.888-1.152-2.04a4.15,4.15,0,0,1,1.956-3.576A3.79,3.79,0,0,1,238.224,67.856Zm13.428,4.872a6.806,6.806,0,0,1-3.036,2.436,1.743,1.743,0,0,1,.516.564,8.271,8.271,0,0,0,3.3-3h1.188a5.852,5.852,0,0,1-.984,1.572,7.617,7.617,0,0,1-2.352,1.824,2.049,2.049,0,0,1,.552.564,9.745,9.745,0,0,0,.972-.672,12.248,12.248,0,0,0,1.476-1.476,6.948,6.948,0,0,0,1.068-1.812h.8a14.591,14.591,0,0,1-.264,2.3c-.156.72-.24.816-.72.816a8.289,8.289,0,0,1-1.428-.132,2.034,2.034,0,0,1,.24.78c.372.024.768.048,1.044.048.816,0,1.116-.12,1.332-.552a11.974,11.974,0,0,0,.528-3.2,5.443,5.443,0,0,1,.06-.708,9.364,9.364,0,0,1-1.176.048H250.8a5.875,5.875,0,0,0,.552-.876h3.672a10.227,10.227,0,0,1,1.188.048v-.756a6.817,6.817,0,0,1-1.188.072H249.9a5.909,5.909,0,0,1-1.1-.072v.78a5.874,5.874,0,0,1,1.08-.072h.732a5.761,5.761,0,0,1-2.784,2.532,2.133,2.133,0,0,1,.492.54,7.694,7.694,0,0,0,2.016-1.6Zm-4.692-3.816h-.492a6.708,6.708,0,0,1-1.044-.06v.792a8.648,8.648,0,0,1,1.02-.06h.516v3.432a5.979,5.979,0,0,1-1.548.588l.228.84c.108-.06.444-.228.636-.312a22.116,22.116,0,0,0,2.5-1.356l-.048-.72a10.375,10.375,0,0,1-1.02.612V69.584h.288a9.373,9.373,0,0,1,1,.048v-.768a7.083,7.083,0,0,1-1,.048H247.7V67.256a8.183,8.183,0,0,1,.072-1.332h-.888a9.506,9.506,0,0,1,.072,1.32Zm7.092.912c.468,0,.84.012,1.1.036a7.062,7.062,0,0,1-.048-1.068v-1.5a8.764,8.764,0,0,1,.048-1.116,8.787,8.787,0,0,1-1.248.06h-3.132a7.747,7.747,0,0,1-1.152-.06,8.077,8.077,0,0,1,.048,1.056v1.56a9.247,9.247,0,0,1-.048,1.08,8.463,8.463,0,0,1,1.092-.048ZM250.38,66.86h4.02v.876h-4.02Zm0,1.464h4.02v.912h-4.02Zm12.288-2.472a8.73,8.73,0,0,1-1.848,2.088,12.516,12.516,0,0,1-3.264,2.088,2.086,2.086,0,0,1,.5.684,13.875,13.875,0,0,0,2.544-1.56,11.181,11.181,0,0,0,2.52-2.628,10.081,10.081,0,0,0,1.848,2.016,16.773,16.773,0,0,0,3.384,2.208,3.105,3.105,0,0,1,.48-.756,12.584,12.584,0,0,1-3.288-1.968,8.243,8.243,0,0,1-1.98-2.172Zm-2.34,4.464a6.9,6.9,0,0,1,.936-.048H265a7.388,7.388,0,0,1,1.008.048V69.5a7.165,7.165,0,0,1-1.008.048h-3.72a6.133,6.133,0,0,1-.948-.048Zm-.084,6.264v-.7h5.8v.7h.864a8.344,8.344,0,0,1-.072-1.176V72.752a7.253,7.253,0,0,1,.06-1.1,6.359,6.359,0,0,1-.936.048h-5.628a6.359,6.359,0,0,1-.936-.048,7.546,7.546,0,0,1,.06,1.1V75.4a8.71,8.71,0,0,1-.072,1.176Zm0-4.152h5.8v2.748h-5.8Zm13.68-2.82h.048a.551.551,0,0,1,.12.012,1.787,1.787,0,0,1,.2.012,3.147,3.147,0,0,1,.384.024c.42.024.864.036,1.356.036.456,0,.828-.012,1.368-.036.036,1.752.084,2.88.12,3.132a3.39,3.39,0,0,0-1.332-.24c-1.332,0-2.28.708-2.28,1.7,0,1.044.876,1.7,2.268,1.7a1.758,1.758,0,0,0,2.148-1.824,1.72,1.72,0,0,0-.024-.312.843.843,0,0,1,.108.072.77.77,0,0,0,.12.072,6.484,6.484,0,0,1,1.7,1.248l.372-.84c-.132-.084-.156-.108-.3-.2a8.686,8.686,0,0,0-2-1.176c-.1-1.6-.12-2.208-.132-3.4a11.471,11.471,0,0,0,1.272-.192c.816-.168.816-.168.84-.168l-.036-.816a8.179,8.179,0,0,1-2.076.444c-.012-.264-.012-.456-.012-.588a12.279,12.279,0,0,1,.084-1.884h-.9a2.663,2.663,0,0,1,.036.492c0,.912,0,.912.012,2.04-.492.024-.816.036-1.284.036a8.307,8.307,0,0,1-2.16-.192Zm3.612,3.912s.012.276.012.36a1.4,1.4,0,0,1-.228.936,1.654,1.654,0,0,1-1.224.42c-.84,0-1.392-.384-1.392-.972s.612-1,1.548-1A3.1,3.1,0,0,1,277.536,73.52ZM271.8,66.38a5.525,5.525,0,0,1-.132.756,20.332,20.332,0,0,0-.624,4.932,19.1,19.1,0,0,0,.336,3.564c.048.276.06.336.072.444l.852-.084a1.308,1.308,0,0,1-.024-.24,10.362,10.362,0,0,1,1.032-3.408l-.588-.276a1.657,1.657,0,0,1-.1.24,10.653,10.653,0,0,0-.708,2.112l-.048-.012V74.18c-.012-.216-.012-.24-.012-.336-.024-.552-.048-1.26-.048-1.68a17.1,17.1,0,0,1,.924-5.628ZM1.125,89.168l2.139,3.955,2.15-3.955H6.721L5.168,91.775H6.193v.8H4.711l-.756,1.277H6v.791H3.814V97.4H2.707V94.64H.58v-.791H2.566l-.75-1.277H.3v-.8H1.359L-.182,89.168ZM7.409,97.4a4.894,4.894,0,0,1,.448-1.887,3.629,3.629,0,0,1,1.521-1.459L10.5,93.4a5.3,5.3,0,0,0,1.061-.75,1.637,1.637,0,0,0,.041-2.276,1.6,1.6,0,0,0-1.172-.431,1.531,1.531,0,0,0-1.5.82,2.937,2.937,0,0,0-.246,1.219H7.614a3.766,3.766,0,0,1,.4-1.787,2.537,2.537,0,0,1,2.42-1.219,2.49,2.49,0,0,1,2.771,2.514,2.358,2.358,0,0,1-.709,1.723,6.941,6.941,0,0,1-1.471,1.008l-.8.445a5.2,5.2,0,0,0-.9.6A2.2,2.2,0,0,0,8.587,96.4h4.582v1Zm7.655,1.225a.739.739,0,0,0,.568-.568,1.609,1.609,0,0,0,.088-.51q0-.041,0-.073A.4.4,0,0,0,15.7,97.4h-.639V96.123h1.254v1.184a2.564,2.564,0,0,1-.281,1.225,1.281,1.281,0,0,1-.973.65ZM18.137,97.4a4.894,4.894,0,0,1,.448-1.887,3.629,3.629,0,0,1,1.521-1.459l1.125-.65a5.3,5.3,0,0,0,1.061-.75,1.637,1.637,0,0,0,.041-2.276,1.6,1.6,0,0,0-1.172-.431,1.531,1.531,0,0,0-1.5.82,2.937,2.937,0,0,0-.246,1.219H18.342a3.766,3.766,0,0,1,.4-1.787,2.537,2.537,0,0,1,2.42-1.219,2.49,2.49,0,0,1,2.771,2.514,2.358,2.358,0,0,1-.709,1.723,6.941,6.941,0,0,1-1.471,1.008l-.8.445a5.2,5.2,0,0,0-.9.6,2.2,2.2,0,0,0-.738,1.131H23.9v1Zm9.9-8.391A2.479,2.479,0,0,1,30.4,90.351a6,6,0,0,1,.563,2.842,6.843,6.843,0,0,1-.51,2.83,2.5,2.5,0,0,1-2.414,1.605,2.417,2.417,0,0,1-2.25-1.312,6.01,6.01,0,0,1-.615-2.941,7.267,7.267,0,0,1,.369-2.455A2.526,2.526,0,0,1,28.042,89.009Zm-.012,7.658a1.5,1.5,0,0,0,1.307-.727,5.26,5.26,0,0,0,.486-2.707,6.688,6.688,0,0,0-.352-2.353,1.338,1.338,0,0,0-1.365-.923,1.427,1.427,0,0,0-1.362.876,6.049,6.049,0,0,0-.431,2.581,6.338,6.338,0,0,0,.275,2.063A1.5,1.5,0,0,0,28.03,96.668Zm7.046-7.658a2.479,2.479,0,0,1,2.355,1.342,6,6,0,0,1,.563,2.842,6.843,6.843,0,0,1-.51,2.83,2.5,2.5,0,0,1-2.414,1.605,2.417,2.417,0,0,1-2.25-1.312,6.01,6.01,0,0,1-.615-2.941,7.267,7.267,0,0,1,.369-2.455A2.526,2.526,0,0,1,35.075,89.009Zm-.012,7.658a1.5,1.5,0,0,0,1.307-.727,5.26,5.26,0,0,0,.486-2.707,6.688,6.688,0,0,0-.352-2.353,1.338,1.338,0,0,0-1.365-.923,1.427,1.427,0,0,0-1.362.876,6.049,6.049,0,0,0-.431,2.581,6.338,6.338,0,0,0,.275,2.063A1.5,1.5,0,0,0,35.064,96.668ZM40,90.4a39.949,39.949,0,0,1,4.14-.4,24.56,24.56,0,0,0,2.64-.264,7.854,7.854,0,0,0-1.14.636A4.566,4.566,0,0,0,43.4,94.064a2.905,2.905,0,0,0,1.332,2.448,6.053,6.053,0,0,0,2.592.924c.216.036.24.048.372.072l.156-.972h-.12a6.15,6.15,0,0,1-1.8-.384,2.353,2.353,0,0,1-1.68-2.22,3.668,3.668,0,0,1,1.476-2.772,5.9,5.9,0,0,1,2.3-1.2,5.033,5.033,0,0,1,1.344-.168L49.3,88.9a8.1,8.1,0,0,1-1.428.132l-.684.024c-.4.012-.552.024-2.028.108l-1.884.12c-1.476.084-1.548.1-2.22.144-.372.024-.516.036-.684.036-.084,0-.2,0-.432-.012Zm7.368,1.152A8.439,8.439,0,0,1,48.6,93.464l.612-.36a9.11,9.11,0,0,0-1.236-1.86Zm1.368-.648a9.5,9.5,0,0,1,1.224,1.884l.6-.336a9.725,9.725,0,0,0-1.236-1.872Zm13.272-.648a9,9,0,0,1-1.74,1.968,10.082,10.082,0,0,1-.456-2.076l-.732.216c.036.132.048.192.1.348a16.169,16.169,0,0,0,.972,3.168,9.954,9.954,0,0,0,2.256,3.336,3.931,3.931,0,0,1,.612-.672A7.472,7.472,0,0,1,61.2,94.412a8.715,8.715,0,0,1-.684-1.476,20.694,20.694,0,0,0,1.992-1.98,1.331,1.331,0,0,1,.132-.132Zm-5.136,3.024h-.84a5.222,5.222,0,0,1-.948-.06v.708a5.386,5.386,0,0,1,.948-.06h.84v1.176H55.411a5.206,5.206,0,0,1-.96-.06v.732a5.794,5.794,0,0,1,1.008-.06h1.416v1.416c0,.288-.084.348-.5.348a10.2,10.2,0,0,1-1.7-.156,2.264,2.264,0,0,1,.18.78c.54.036.972.06,1.452.06a2.049,2.049,0,0,0,.96-.132c.228-.132.324-.348.324-.78V95.66h1.464a5.351,5.351,0,0,1,.972.06v-.732a4.5,4.5,0,0,1-.912.06H57.583V93.872h.96a4.726,4.726,0,0,1,.912.06v-.708a4.5,4.5,0,0,1-.912.06h-.96V92.228h.768a4.746,4.746,0,0,1,.852.06V91.58a4.433,4.433,0,0,1-.852.06h-.768V90.6a18.557,18.557,0,0,0,2.976-1.944l.228-.192-.4-.528a8.048,8.048,0,0,1-1.128.048h-4.4a10.545,10.545,0,0,1-1.368-.072v.8a9.926,9.926,0,0,1,1.368-.072h4.656A14.3,14.3,0,0,1,57.163,90.1h-.348a6.483,6.483,0,0,1,.06,1.068v.468h-.732a4.509,4.509,0,0,1-.852-.06v.708a6.187,6.187,0,0,1,.852-.06h.732Zm-2.016-2.616a3.262,3.262,0,0,1-.684.048h-1.32a4.688,4.688,0,0,1-.948-.06v.78a4.711,4.711,0,0,1,.924-.06h1.548a10.7,10.7,0,0,1-1.08,3.156,7.356,7.356,0,0,1-1.776,2.148,2.711,2.711,0,0,1,.564.6A9.4,9.4,0,0,0,53.911,94.9a14.09,14.09,0,0,0,1.176-3.4c.06-.228.084-.324.132-.456ZM65.767,93.4a5.3,5.3,0,0,1,1.284-.4,13.948,13.948,0,0,1,3.156-.48c1.452,0,2.22.588,2.22,1.68a2.736,2.736,0,0,1-2.2,2.424A8.182,8.182,0,0,1,67.867,97a.913.913,0,0,1-.168-.012,2.628,2.628,0,0,1,.312.828,11.365,11.365,0,0,0,2.472-.456,3.507,3.507,0,0,0,2.748-3.1,2.625,2.625,0,0,0-.372-1.368,2.745,2.745,0,0,0-2.544-1.116,15.493,15.493,0,0,0-3.66.528,5.633,5.633,0,0,1-1.1.216Zm11.052-2.976a35.246,35.246,0,0,1,4.14-.4,23.253,23.253,0,0,0,2.64-.264,7.856,7.856,0,0,0-1.14.636,4.549,4.549,0,0,0-2.244,3.684,2.921,2.921,0,0,0,1.332,2.448,6.053,6.053,0,0,0,2.592.924c.192.036.24.048.372.072l.156-.972h-.12a6.15,6.15,0,0,1-1.8-.384,2.353,2.353,0,0,1-1.68-2.22,3.668,3.668,0,0,1,1.476-2.772,6.094,6.094,0,0,1,2.3-1.212,5.565,5.565,0,0,1,1.344-.156l-.072-.9a8.055,8.055,0,0,1-1.428.132c-1.548.072-5.388.288-6.816.4-.372.024-.516.036-.684.036h-.432Zm18.168-.936a12.128,12.128,0,0,1-2.448.516V88.856a6.863,6.863,0,0,1,.06-1.116h-.888a7.971,7.971,0,0,1,.06,1.14v1.188c-.36.024-.828.036-1.152.036A6.8,6.8,0,0,1,89.4,90.02v.792h.492c.132.012.456.012.636.012.348,0,.552,0,.768-.012.372-.024.372-.024.48-.036v2.268a6.419,6.419,0,0,0-1.692.984,2.172,2.172,0,0,0-.948,1.6,1.447,1.447,0,0,0,.552,1.128,3.169,3.169,0,0,0,1.98.768c.588,0,.876-.312.876-.96v-3a8.1,8.1,0,0,1,2.544-.468c1.572,0,2.568.732,2.568,1.908a1.593,1.593,0,0,1-1.608,1.692c-.876,0-1.236-.516-1.236-1.764a3.564,3.564,0,0,1,.024-.468,2.6,2.6,0,0,1-.792.312,4.379,4.379,0,0,0,.144,1.356,1.77,1.77,0,0,0,1.848,1.356,2.469,2.469,0,0,0,1.212-4.608,4.063,4.063,0,0,0-2.124-.5,8.5,8.5,0,0,0-2.58.432V90.728a21.065,21.065,0,0,0,2.124-.36c.168-.036.216-.048.36-.072Zm-3.216,6.624c0,.516-.036.588-.276.588a2.241,2.241,0,0,1-1.068-.348c-.348-.228-.516-.468-.516-.72,0-.576.672-1.224,1.86-1.8Zm7.212-5.076a10.084,10.084,0,0,0-2.424-2.28l-.624.468a9.828,9.828,0,0,1,2.424,2.352Zm4.512-3.36a2.4,2.4,0,0,1-.036.384,30.334,30.334,0,0,0-.408,4.428v.276l.024,1.248.012.216v.132l.864-.036c-.012-.18-.012-.24-.012-.288a6.263,6.263,0,0,1,.648-2.676c.684-1.4,1.452-2.088,2.364-2.088,1.152,0,1.824,1.116,1.824,3.048a4.132,4.132,0,0,1-2.064,3.984,6.341,6.341,0,0,1-2.436.756,2.477,2.477,0,0,1,.48.816,9.083,9.083,0,0,0,2.136-.708,5.656,5.656,0,0,0,2.052-7.632,2.259,2.259,0,0,0-1.92-1.068,2.862,2.862,0,0,0-2.4,1.548,5.355,5.355,0,0,0-.732,1.788c-.06.252-.06.252-.084.348l-.048-.012c.036-.612.2-1.92.4-3.132a6.8,6.8,0,0,1,.276-1.236Zm19.668,8.76a4.1,4.1,0,0,1-.408-.276,10.5,10.5,0,0,0-3.348-1.752c-.048-1.164-.048-1.164-.072-1.836.888-.06,1.836-.156,2.664-.288.42-.06.54-.072.7-.084l-.048-.828a14.484,14.484,0,0,1-3.324.492c-.012-.636-.012-.636-.024-1.62a24.929,24.929,0,0,0,2.784-.288c.624-.084.624-.084.828-.1l-.06-.816a16.916,16.916,0,0,1-3.552.492,13.392,13.392,0,0,1,.084-1.692h-.924a9.4,9.4,0,0,1,.06,1.728c-.4,0-.8.012-1.044.012a14.907,14.907,0,0,1-3.072-.24l-.012.816a.98.98,0,0,1,.168-.012,1.456,1.456,0,0,1,.216.012c1.08.084,2.052.12,2.928.12.276,0,.468,0,.816-.012l.024,1.644c-.336.012-.756.012-1.068.012a14.727,14.727,0,0,1-2.748-.192l-.012.792h.1c.072,0,.168,0,.3.012.744.06,1.308.084,2.028.084.384,0,.984-.012,1.416-.024.012.312.012.54.024.7.012.348.012.6.024.708a.956.956,0,0,0,.012.132c0,.108,0,.108.012.144a5.337,5.337,0,0,0-1.08-.1,5.227,5.227,0,0,0-1.248.12c-1.056.24-1.68.864-1.68,1.656a1.569,1.569,0,0,0,.648,1.26,3.126,3.126,0,0,0,1.86.48,2.416,2.416,0,0,0,2.028-.756,2.084,2.084,0,0,0,.3-1.308,3.45,3.45,0,0,0-.024-.432c.324.132.6.252.8.36a9.656,9.656,0,0,1,2.448,1.716Zm-4.524-.972a1.572,1.572,0,0,1-.24,1.08,1.734,1.734,0,0,1-1.32.4c-1.044,0-1.644-.36-1.644-1s.78-1.068,1.968-1.068a4.405,4.405,0,0,1,1.224.132Zm13.02-6.06c-.816.024-1.752.048-2.9.1-1.932.072-1.932.072-2.28.072-.18,0-.264,0-.48-.012l.036.876c.8-.132,3.228-.252,5.64-.3v.624c0,.144.012.264.012.312,0,.444,0,.492.012.66a1.842,1.842,0,0,0-1.392-.54,2,2,0,0,0-2.124,1.98,2.006,2.006,0,0,0,3.48,1.248,1.681,1.681,0,0,0,.324-.588,3.108,3.108,0,0,1-1.344,2.532,6.151,6.151,0,0,1-1.944.9,2.635,2.635,0,0,1,.528.756,7.633,7.633,0,0,0,1.9-.972,3.862,3.862,0,0,0,1.608-3.132,3.438,3.438,0,0,0-.288-1.416V90.128c.972-.024,1.1-.024,1.284-.024a21.329,21.329,0,0,1,2.292.06v-.852c-.4.048-1.32.072-3.588.084v-.132a9.934,9.934,0,0,1,.06-1.5h-.9a4.044,4.044,0,0,1,.048.7Zm-.036,3.5a1.345,1.345,0,0,1-1.4,1.416,1.16,1.16,0,0,1-1.236-1.188,1.27,1.27,0,0,1,1.332-1.26,1.535,1.535,0,0,1,.8.192A.869.869,0,0,1,131.623,92.912Zm7.02,1.668a1.8,1.8,0,1,0,1.8,1.8A1.8,1.8,0,0,0,138.643,94.58Zm0,.684a1.116,1.116,0,1,1-1.116,1.116A1.122,1.122,0,0,1,138.643,95.264Z" transform="translate(37.586 1158.239)"/>
    <g id="グループ_1654" data-name="グループ 1654" transform="translate(15 1084.693)">
      <g id="グループ_583" data-name="グループ 583" transform="translate(0.817 87.218)">
        <g id="グループ_578" data-name="グループ 578" transform="translate(290.069)">
          <g id="グループ_577" data-name="グループ 577">
            <path id="パス_2909" data-name="パス 2909" d="M2885.156,1887.688v95.98h-48.562v-1.439h44.633c1.768,0,3.2-2.833,3.2-6.328v-88.212Z" transform="translate(-2831.042 -1870.552)" fill="#575656"/>
            <g id="グループ_575" data-name="グループ 575" transform="translate(53.385)">
              <rect id="長方形_133" data-name="長方形 133" width="0.728" height="12.265" fill="#575656"/>
            </g>
            <g id="グループ_576" data-name="グループ 576" transform="translate(0 111.676)">
              <rect id="長方形_134" data-name="長方形 134" width="3.599" height="1.44" fill="#575656"/>
            </g>
          </g>
        </g>
        <g id="グループ_582" data-name="グループ 582" transform="translate(0)">
          <g id="グループ_581" data-name="グループ 581">
            <path id="パス_2910" data-name="パス 2910" d="M611.051,1887.688v95.98h48.563v-1.439H614.981c-1.768,0-3.2-2.833-3.2-6.328v-88.212Z" transform="translate(-611.051 -1870.552)" fill="#575656"/>
            <g id="グループ_579" data-name="グループ 579" transform="translate(0)">
              <rect id="長方形_135" data-name="長方形 135" width="0.728" height="12.265" fill="#575656"/>
            </g>
            <g id="グループ_580" data-name="グループ 580" transform="translate(50.515 111.676)">
              <rect id="長方形_136" data-name="長方形 136" width="3.599" height="1.44" fill="#575656"/>
            </g>
          </g>
        </g>
      </g>
      <g id="グループ_592" data-name="グループ 592" transform="translate(0.817)">
        <g id="グループ_587" data-name="グループ 587" transform="translate(290.069)">
          <g id="グループ_586" data-name="グループ 586">
            <path id="パス_2911" data-name="パス 2911" d="M2885.156,626.01V530.03h-48.562v1.44h44.633c1.768,0,3.2,2.833,3.2,6.328V626.01Z" transform="translate(-2831.042 -530.03)" fill="#575656"/>
            <g id="グループ_584" data-name="グループ 584" transform="translate(53.385 100.851)">
              <rect id="長方形_137" data-name="長方形 137" width="0.728" height="12.265" fill="#575656"/>
            </g>
            <g id="グループ_585" data-name="グループ 585" transform="translate(0 0)">
              <rect id="長方形_138" data-name="長方形 138" width="3.599" height="1.44" fill="#575656"/>
            </g>
          </g>
        </g>
        <g id="グループ_591" data-name="グループ 591" transform="translate(0)">
          <g id="グループ_590" data-name="グループ 590">
            <path id="パス_2912" data-name="パス 2912" d="M611.051,626.01V530.03h48.563v1.44H614.981c-1.768,0-3.2,2.833-3.2,6.328V626.01Z" transform="translate(-611.051 -530.03)" fill="#575656"/>
            <g id="グループ_588" data-name="グループ 588" transform="translate(0 100.851)">
              <rect id="長方形_139" data-name="長方形 139" width="0.728" height="12.265" fill="#575656"/>
            </g>
            <g id="グループ_589" data-name="グループ 589" transform="translate(50.515 0)">
              <rect id="長方形_140" data-name="長方形 140" width="3.599" height="1.44" fill="#575656"/>
            </g>
          </g>
        </g>
      </g>
      <g id="グループ_609" data-name="グループ 609" transform="translate(344.264 -1.693)">
        <rect id="長方形_141" data-name="長方形 141" width="0.736" height="206.255" transform="translate(0)" fill="#575656"/>
      </g>
      <g id="グループ_610" data-name="グループ 610" transform="translate(0.081 57.925)">
        <rect id="長方形_142" data-name="長方形 142" width="0.736" height="85.853" transform="translate(0 0)" fill="#575656"/>
      </g>
      <g id="グループ_612" data-name="グループ 612" transform="translate(52.668 198.894)">
        <rect id="長方形_144" data-name="長方形 144" width="239.694" height="1.44" transform="translate(0)" fill="#575656"/>
      </g>
      <rect id="長方形_7" data-name="長方形 7" width="344.887" height="202.868" fill="none"/>
      <rect id="長方形_143" data-name="長方形 143" width="274.833" height="1.44" transform="translate(52.549 0)" fill="#575656"/>
    </g>
    <path id="パス_3893" data-name="パス 3893" d="M9.872,5.744V3.008A19.478,19.478,0,0,0,14.48,1.824a5.338,5.338,0,0,1,.576-.224L14.24.7a5.064,5.064,0,0,1-1.472.688,15.438,15.438,0,0,1-3.792.736H8.784c.048.464.08,1.152.08,2.96,0,5.344-.48,7.584-2.016,9.472a3.362,3.362,0,0,1,.912.672A8.312,8.312,0,0,0,8.944,13.04,17.569,17.569,0,0,0,9.856,7.3V6.672h2.512v6.976a9.7,9.7,0,0,1-.1,1.6H13.5a7.989,7.989,0,0,1-.1-1.6V6.672H14a8.317,8.317,0,0,1,1.408.08v-1.1a8.116,8.116,0,0,1-1.472.1ZM5.152,2.176V1.744a5.352,5.352,0,0,1,.08-1.12H4.064a5.54,5.54,0,0,1,.08,1.12v.432h-1.6A7.759,7.759,0,0,1,1.136,2.1V3.168a8.11,8.11,0,0,1,1.392-.08h4.1a8.157,8.157,0,0,1,1.36.08V2.1a7.4,7.4,0,0,1-1.344.08ZM2.144,5.856a7.1,7.1,0,0,1-1.328-.08V6.848a7.308,7.308,0,0,1,1.328-.08H6.9a7.462,7.462,0,0,1,1.3.08V5.776a7.027,7.027,0,0,1-1.3.08H5.952A16.959,16.959,0,0,0,7.04,3.536l-.96-.3A8.5,8.5,0,0,1,5.008,5.856ZM3.808,9.424A7.573,7.573,0,0,1,2.64,11.136,10.7,10.7,0,0,1,.56,12.9a3.275,3.275,0,0,1,.608.9A9.479,9.479,0,0,0,4.192,10.24c-.032.528-.048.944-.048,1.328V13.84a8.836,8.836,0,0,1-.1,1.376h1.1a8.852,8.852,0,0,1-.08-1.376V11.52c-.016-.592-.032-1.056-.064-1.408a8.215,8.215,0,0,0,2,2.208,4.008,4.008,0,0,1,.56-.864A6.77,6.77,0,0,1,5.312,9.424h1.52a7.027,7.027,0,0,1,1.3.08V8.464a6.2,6.2,0,0,1-1.3.1H5.072V7.712a2.944,2.944,0,0,1,.064-.656H4.064a2.945,2.945,0,0,1,.08.656V8.56H2.192a5.9,5.9,0,0,1-1.344-.1V9.52a5.842,5.842,0,0,1,1.312-.1Zm.016-4.016a9.518,9.518,0,0,0-.912-2.16l-.848.32a8.921,8.921,0,0,1,.912,2.144Zm21.2,8.464a27,27,0,0,0-2.5-3.936l-.848.384a17.377,17.377,0,0,1,1.136,1.664,27.731,27.731,0,0,1-3.408,1.168V9.312H23.04a10.626,10.626,0,0,1,1.344.064c-.032-.448-.048-.832-.048-1.456V4.16A11.726,11.726,0,0,1,24.4,2.688a10.112,10.112,0,0,1-1.36.064H21.856V1.92a5.279,5.279,0,0,1,.1-1.088H20.768a5.333,5.333,0,0,1,.1,1.072v.848H19.712a9.962,9.962,0,0,1-1.36-.064,11.768,11.768,0,0,1,.064,1.456v9.264a7.615,7.615,0,0,1-1.264.208l.256,1.088c.3-.112.624-.208.848-.272a45.157,45.157,0,0,0,5.008-1.7c.336.608.48.864.848,1.664ZM19.408,5.52V3.648H23.36V5.52Zm0,.864H23.36V8.416H19.408ZM30.944,1.328a7.838,7.838,0,0,1-1.232.064H27.056c-.544,0-.848-.016-1.264-.048A14.56,14.56,0,0,1,25.856,2.8V13.536a11.176,11.176,0,0,1-.1,1.712h1.216a11.112,11.112,0,0,1-.112-1.84V2.288h3.36A24.13,24.13,0,0,1,28.048,6.88a7.21,7.21,0,0,1,1.76,2.064,4.357,4.357,0,0,1,.576,2.144c0,.832-.32,1.088-1.36,1.088a7.724,7.724,0,0,1-1.36-.144,2.676,2.676,0,0,1,.192,1.072c.5.048.832.064,1.1.064a5.2,5.2,0,0,0,1.232-.128A1.757,1.757,0,0,0,31.44,11.1a4.856,4.856,0,0,0-.688-2.5,9.1,9.1,0,0,0-1.5-1.888,34.488,34.488,0,0,0,1.984-4.08,4.87,4.87,0,0,1,.272-.592Zm3.76,8.816c.208-.272.336-.432.448-.56,1.024-1.184,2.272-2.72,2.9-3.568.7-.944.784-1.024,1.1-1.024s.384.048,1.44,1.184a63.985,63.985,0,0,0,5.424,5.312c1.056.9,1.072.912,1.424,1.232l.608-1.312a7.522,7.522,0,0,1-1.328-.96,51.476,51.476,0,0,1-5.472-5.232c-1.168-1.28-1.424-1.472-2.064-1.472-.72,0-1.12.3-2.032,1.52C36.368,6.3,34.9,8.08,34.416,8.544a2.551,2.551,0,0,1-.528.4ZM63.392,2.192c-.288.112-.288.112-1.36.112H53.44a11.727,11.727,0,0,1-1.9-.112V3.424a15.449,15.449,0,0,1,1.888-.08h9.088A8.489,8.489,0,0,1,60.72,5.728a6.927,6.927,0,0,1-2.528,1.52,3.143,3.143,0,0,1,.784.912A9.576,9.576,0,0,0,63.648,3.6a2.871,2.871,0,0,1,.384-.64ZM56.416,4.976a4.225,4.225,0,0,1,.064.864c0,3.12-.624,4.752-2.32,6.112a7.519,7.519,0,0,1-2.928,1.472,3.129,3.129,0,0,1,.736,1.072,8.716,8.716,0,0,0,4.1-2.768c1.088-1.376,1.536-2.96,1.584-5.632a5.8,5.8,0,0,1,.064-1.12ZM76.192,1.568a7,7,0,0,1-.56,1.7,21.987,21.987,0,0,1-1.888,3.728,45.957,45.957,0,0,0-4.16-2.784l-.8.848a30.3,30.3,0,0,1,4.3,2.9A17.044,17.044,0,0,1,66.72,13.3a2.851,2.851,0,0,1,.832.96,19.1,19.1,0,0,0,6.432-5.568,22.907,22.907,0,0,1,3.488,3.472l.9-.992a41.133,41.133,0,0,0-3.68-3.44A26.169,26.169,0,0,0,77.04,3.056a4.506,4.506,0,0,1,.5-.976ZM94.128,1.3A13.43,13.43,0,0,1,91.072,4.32a22.529,22.529,0,0,1-8.3,4.144,3.7,3.7,0,0,1,.624,1.072,25.012,25.012,0,0,0,6.176-2.8v6.08a8.339,8.339,0,0,1-.1,1.664h1.392a10.629,10.629,0,0,1-.08-1.7V5.968a28.18,28.18,0,0,0,3.744-3.216,3.622,3.622,0,0,1,.7-.672ZM103.44.96A7.256,7.256,0,0,1,102.432,3.3,11.854,11.854,0,0,1,98.416,7.68a2.379,2.379,0,0,1,.9.832,15.425,15.425,0,0,0,3.824-4.16l5.392-.1a14.7,14.7,0,0,1-2.752,5.36,13.61,13.61,0,0,1-5.648,4.048,2.412,2.412,0,0,1,.8.944,15.668,15.668,0,0,0,5.568-4,16.927,16.927,0,0,0,3.2-6.016c.176-.576.176-.592.32-.784l-.688-.672a1.572,1.572,0,0,1-.832.112c-4.624.08-4.624.08-4.832.128a15.305,15.305,0,0,0,.736-1.424,3.057,3.057,0,0,1,.352-.656Zm15.552,4.784h.064a.735.735,0,0,1,.16.016,2.382,2.382,0,0,1,.272.016,4.2,4.2,0,0,1,.512.032c.56.032,1.152.048,1.808.048.608,0,1.1-.016,1.824-.048.048,2.336.112,3.84.16,4.176a4.52,4.52,0,0,0-1.776-.32c-1.776,0-3.04.944-3.04,2.272,0,1.392,1.168,2.272,3.024,2.272a2.732,2.732,0,0,0,2.672-1.344,2.758,2.758,0,0,0,.192-1.088,2.3,2.3,0,0,0-.032-.416,1.123,1.123,0,0,1,.144.1,1.027,1.027,0,0,0,.16.1,8.646,8.646,0,0,1,2.272,1.664l.5-1.12c-.176-.112-.208-.144-.4-.272a11.582,11.582,0,0,0-2.672-1.568c-.128-2.128-.16-2.944-.176-4.528a15.3,15.3,0,0,0,1.7-.256c1.088-.224,1.088-.224,1.12-.224l-.048-1.088a10.905,10.905,0,0,1-2.768.592c-.016-.352-.016-.608-.016-.784a16.371,16.371,0,0,1,.112-2.512h-1.2a3.549,3.549,0,0,1,.048.656c0,1.216,0,1.216.016,2.72-.656.032-1.088.048-1.712.048a11.076,11.076,0,0,1-2.88-.256Zm4.816,5.216s.016.368.016.48a1.869,1.869,0,0,1-.3,1.248,2.205,2.205,0,0,1-1.632.56c-1.12,0-1.856-.512-1.856-1.3,0-.8.816-1.328,2.064-1.328A4.132,4.132,0,0,1,123.808,10.96ZM116.16,1.44a7.369,7.369,0,0,1-.176,1.008,27.11,27.11,0,0,0-.832,6.576,25.47,25.47,0,0,0,.448,4.752c.064.368.08.448.1.592l1.136-.112a1.743,1.743,0,0,1-.032-.32,13.817,13.817,0,0,1,1.376-4.544l-.784-.368a2.207,2.207,0,0,1-.128.32,14.2,14.2,0,0,0-.944,2.816l-.064-.016v-.3c-.016-.288-.016-.32-.016-.448-.032-.736-.064-1.68-.064-2.24a22.8,22.8,0,0,1,1.232-7.5Zm15.648,2.768a1.658,1.658,0,0,1,.256-.016,2.6,2.6,0,0,1,.288.016c1.28.048,2,.08,2.16.08h.64c-.08,1.168-.08,1.248-.1,2.416-2.32,1.008-3.712,2.8-3.712,4.768a2.185,2.185,0,0,0,2.064,2.432,5.246,5.246,0,0,0,3.568-1.936,14.409,14.409,0,0,0,3.04-4.8c1.728.448,2.64,1.408,2.64,2.784,0,1.424-1.008,2.592-2.752,3.2a7.452,7.452,0,0,1-2.4.432,3.3,3.3,0,0,1,.512,1.072,8.808,8.808,0,0,0,3.264-.912,4.1,4.1,0,0,0,2.512-3.7c0-1.872-1.232-3.232-3.44-3.744.272-.752.448-1.184.5-1.28l-1.1-.336a6.007,6.007,0,0,1-.384,1.44c-.4-.032-.592-.048-.928-.048a8.454,8.454,0,0,0-2.368.32c.016-.784.016-.784.112-2.144a44.821,44.821,0,0,0,5.664-.64c.3-.048.352-.048.56-.08l-.064-1.12a24.586,24.586,0,0,1-6.1.9,10.638,10.638,0,0,1,.336-2.24l-1.248-.08a1.7,1.7,0,0,1,.016.24c0,.112-.032.736-.048.912-.064.816-.064.816-.08,1.2-.288.016-.352.016-.4.016a11.2,11.2,0,0,1-2.992-.256Zm3.248,3.5a22.629,22.629,0,0,0,.32,4.336,2.889,2.889,0,0,1-1.84.816c-.688,0-1.152-.576-1.152-1.456a3.78,3.78,0,0,1,.976-2.384A5.719,5.719,0,0,1,135.056,7.712Zm1.184,3.664V11.2a1.056,1.056,0,0,0-.016-.224,26.912,26.912,0,0,1-.176-3.664,7.2,7.2,0,0,1,2.224-.368c.176,0,.256,0,.768.032a14.451,14.451,0,0,1-2.448,4,1.734,1.734,0,0,0-.3.416Zm14.1-10.336a3.206,3.206,0,0,1-.048.512,40.445,40.445,0,0,0-.544,5.9v.368l.032,1.664.016.288v.176l1.152-.048c-.016-.24-.016-.32-.016-.384a8.35,8.35,0,0,1,.864-3.568c.912-1.872,1.936-2.784,3.152-2.784,1.536,0,2.432,1.488,2.432,4.064,0,2.56-.88,4.24-2.752,5.312a8.454,8.454,0,0,1-3.248,1.008,3.3,3.3,0,0,1,.64,1.088,12.111,12.111,0,0,0,2.848-.944,6.6,6.6,0,0,0,3.7-6.288,6.572,6.572,0,0,0-.96-3.888A3.012,3.012,0,0,0,155.04,2.1a3.816,3.816,0,0,0-3.2,2.064,7.14,7.14,0,0,0-.976,2.384c-.08.336-.08.336-.112.464l-.064-.016c.048-.816.272-2.56.528-4.176a9.071,9.071,0,0,1,.368-1.648ZM176.56,12.72a5.47,5.47,0,0,1-.544-.368,14,14,0,0,0-4.464-2.336c-.064-1.552-.064-1.552-.1-2.448,1.184-.08,2.448-.208,3.552-.384.56-.08.72-.1.928-.112l-.064-1.1a19.312,19.312,0,0,1-4.432.656c-.016-.848-.016-.848-.032-2.16a33.238,33.238,0,0,0,3.712-.384c.832-.112.832-.112,1.1-.128l-.08-1.088a22.555,22.555,0,0,1-4.736.656,17.855,17.855,0,0,1,.112-2.256h-1.232a12.53,12.53,0,0,1,.08,2.3c-.528,0-1.072.016-1.392.016a19.877,19.877,0,0,1-4.1-.32l-.016,1.088a1.307,1.307,0,0,1,.224-.016,1.941,1.941,0,0,1,.288.016c1.44.112,2.736.16,3.9.16.368,0,.624,0,1.088-.016l.032,2.192c-.448.016-1.008.016-1.424.016a19.637,19.637,0,0,1-3.664-.256L165.3,7.5h.128c.1,0,.224,0,.4.016.992.08,1.744.112,2.7.112.512,0,1.312-.016,1.888-.032.016.416.016.72.032.928.016.464.016.8.032.944a1.274,1.274,0,0,0,.016.176c0,.144,0,.144.016.192a7.116,7.116,0,0,0-1.44-.128,6.969,6.969,0,0,0-1.664.16c-1.408.32-2.24,1.152-2.24,2.208a2.092,2.092,0,0,0,.864,1.68,4.168,4.168,0,0,0,2.48.64,3.221,3.221,0,0,0,2.7-1.008,2.778,2.778,0,0,0,.4-1.744,4.6,4.6,0,0,0-.032-.576c.432.176.8.336,1.072.48a12.875,12.875,0,0,1,3.264,2.288Zm-6.032-1.3a2.1,2.1,0,0,1-.32,1.44,2.312,2.312,0,0,1-1.76.528c-1.392,0-2.192-.48-2.192-1.328s1.04-1.424,2.624-1.424a5.873,5.873,0,0,1,1.632.176Zm17.36-8.08c-1.088.032-2.336.064-3.872.128-2.576.1-2.576.1-3.04.1-.24,0-.352,0-.64-.016l.048,1.168c1.072-.176,4.3-.336,7.52-.4v.832c0,.192.016.352.016.416,0,.592,0,.656.016.88a2.457,2.457,0,0,0-1.856-.72,2.662,2.662,0,0,0-2.832,2.64,2.675,2.675,0,0,0,4.64,1.664,2.241,2.241,0,0,0,.432-.784,4.144,4.144,0,0,1-1.792,3.376,8.2,8.2,0,0,1-2.592,1.2,3.513,3.513,0,0,1,.7,1.008,10.177,10.177,0,0,0,2.528-1.3,5.15,5.15,0,0,0,2.144-4.176,4.584,4.584,0,0,0-.384-1.888V4.3c1.3-.032,1.472-.032,1.712-.032a28.437,28.437,0,0,1,3.056.08V3.216c-.528.064-1.76.1-4.784.112V3.152a13.246,13.246,0,0,1,.08-2h-1.2a5.391,5.391,0,0,1,.064.928Zm-.048,4.672A1.793,1.793,0,0,1,185.968,9.9,1.546,1.546,0,0,1,184.32,8.32,1.693,1.693,0,0,1,186.1,6.64a2.047,2.047,0,0,1,1.072.256A1.158,1.158,0,0,1,187.84,8.016ZM197.072,6.3A9.156,9.156,0,0,1,198,6.1c.144-.032.912-.16,2.288-.368a26.414,26.414,0,0,1-1.76,5.072,15.343,15.343,0,0,1-1.664,2.9l1.088.64c.5-.9.832-1.536,1.04-1.92a30.186,30.186,0,0,0,2.416-6.784,9.187,9.187,0,0,1,1.152-.08c1.488,0,1.968.544,1.968,2.24a12.385,12.385,0,0,1-.672,4.448q-.312.768-.912.768a5.981,5.981,0,0,1-2.384-.736,3.1,3.1,0,0,1,.048.64,3.48,3.48,0,0,1-.032.56,6.02,6.02,0,0,0,2.416.624,1.671,1.671,0,0,0,1.568-.752c.656-.928,1.072-3.056,1.072-5.5a3.23,3.23,0,0,0-.784-2.576,3.058,3.058,0,0,0-2.3-.672,9.325,9.325,0,0,0-.944.048c.144-.768.256-1.36.336-1.824a9.836,9.836,0,0,1,.3-1.536l-1.28-.144v.208a19.557,19.557,0,0,1-.48,3.392c-1.3.208-2.96.4-3.536.416Zm9.44-2.112a13.1,13.1,0,0,1,3.264,5.744l1.024-.592a14.468,14.468,0,0,0-3.344-5.664Zm13.36,6.816a6.305,6.305,0,0,1-.064-.88,2.361,2.361,0,0,1,.416-1.472,5.275,5.275,0,0,1,1.44-1.2,4.325,4.325,0,0,0,1.456-1.392,3.018,3.018,0,0,0,.384-1.552c0-1.712-1.616-2.96-3.824-2.96a4.606,4.606,0,0,0-3.04.944,3.92,3.92,0,0,0-1.312,2.24l1.344.208a3.147,3.147,0,0,1,.576-1.312,2.92,2.92,0,0,1,2.384-1.008c1.52,0,2.576.832,2.576,2.032a1.909,1.909,0,0,1-.56,1.328,7.414,7.414,0,0,1-1.088.864,4.6,4.6,0,0,0-1.408,1.2,2.9,2.9,0,0,0-.592,1.92,4.94,4.94,0,0,1-.064,1.04ZM218.416,12.5V14h1.552V12.5Z" transform="translate(37.586 1123.355)" fill="#f59c9c"/>
  </g>
</svg>
