<svg xmlns="http://www.w3.org/2000/svg" width="345" height="277.385" viewBox="0 0 345 277.385">
  <g id="グループ_1793" data-name="グループ 1793" transform="translate(-15 -2157)">
    <path id="パス_3889" data-name="パス 3889" d="M8.208,8.624a6.467,6.467,0,0,1,1.08.06V7.976a6.309,6.309,0,0,1-1.068.06H6.18a7.273,7.273,0,0,0,.1-1.068h1.74a7.815,7.815,0,0,1,1.02.048V6.332a5.778,5.778,0,0,1-1.02.06H7.332A9.481,9.481,0,0,0,8,5.324l-.672-.2a6.145,6.145,0,0,1-.72,1.272H5.388a9.174,9.174,0,0,0-.84-1.26l-.612.252a6.031,6.031,0,0,1,.732,1.008H4.056a5.614,5.614,0,0,1-1.02-.06v.684a7.7,7.7,0,0,1,1.02-.048H5.58a7.551,7.551,0,0,1-.072,1.068H3.828a6.138,6.138,0,0,1-1.068-.06v.708a6.9,6.9,0,0,1,1.092-.06H5.364a2.386,2.386,0,0,1-.672,1.092,5.068,5.068,0,0,1-2.124,1.02,1.8,1.8,0,0,1,.444.624c1.728-.624,2.472-1.236,2.928-2.388a5.266,5.266,0,0,0,2.76,2,2.3,2.3,0,0,1-.264-.036,2.257,2.257,0,0,1,.18.756c.4.024.792.048,1.128.048.96,0,1.164-.18,1.164-1v-8.1a11.355,11.355,0,0,1,.06-1.32,11.107,11.107,0,0,1-1.26.048H7.68a10.529,10.529,0,0,1-1.224-.048c.024.36.036.72.036,1.14V3.776c0,.432-.012.792-.036,1.1.324-.024.708-.036,1.224-.036h2.484v5.868c0,.276-.1.348-.42.348A7.238,7.238,0,0,1,8.7,10.976a2.785,2.785,0,0,1,.36-.672A4.446,4.446,0,0,1,6.4,8.624ZM7.188,1.94h2.976v.876H7.188Zm0,1.428h2.976V4.28H7.188ZM1.92,4.844H4.188c.5,0,.876.012,1.212.036-.024-.3-.036-.636-.036-1.1V2.468c0-.444.012-.8.036-1.14a10.529,10.529,0,0,1-1.224.048h-1.8a11,11,0,0,1-1.248-.048c.036.384.048.732.048,1.32v7.86A8.969,8.969,0,0,1,1.1,11.852h.888a8.435,8.435,0,0,1-.072-1.344Zm0-2.9H4.68v.876H1.92Zm0,1.428H4.68V4.28H1.92ZM17.9,2.936v1H15.516a6.731,6.731,0,0,1-1.332-.072,11.427,11.427,0,0,1,.048,1.3V6.9A10.361,10.361,0,0,1,14.2,8.012l-.012.156A7.474,7.474,0,0,1,15.576,8.1h1.752a6.792,6.792,0,0,1-1.68,1.4,9.914,9.914,0,0,1-2.916,1.284,2.989,2.989,0,0,1,.444.72,11.491,11.491,0,0,0,3.348-1.752A7.255,7.255,0,0,0,17.94,8.384c-.024.336-.036.7-.036.924V10.52a7.981,7.981,0,0,1-.084,1.332h.888a6.518,6.518,0,0,1-.084-1.332V9.3c0-.228-.012-.624-.036-.936a8.852,8.852,0,0,0,2.376,1.968,13.281,13.281,0,0,0,2.7,1.188,3.169,3.169,0,0,1,.456-.756A9.441,9.441,0,0,1,19.176,8.1H21.24a7.487,7.487,0,0,1,1.368.072A8.487,8.487,0,0,1,22.56,6.9V5.132a10.577,10.577,0,0,1,.048-1.26,8.842,8.842,0,0,1-1.368.06H18.624v-1h3.612a11.256,11.256,0,0,1,1.476.072v-.84a8.379,8.379,0,0,1-1.5.084H18.624v-.1A6.7,6.7,0,0,1,18.708.992H17.82A6.255,6.255,0,0,1,17.9,2.156v.1H14.5a9.129,9.129,0,0,1-1.452-.084v.84a8.623,8.623,0,0,1,1.416-.072Zm0,1.62v1.1H14.976v-1.1Zm.72,0h3.192v1.1H18.624ZM17.9,6.272V7.484H14.976V6.272Zm.72,0h3.192V7.484H18.624ZM29.268,3.944a8.807,8.807,0,0,0-.888-1.488l-.564.288a6.309,6.309,0,0,1,.8,1.2h-.48a5.039,5.039,0,0,1-.864-.048v.66a6.6,6.6,0,0,1,.924-.048h1.428a7.965,7.965,0,0,1-.48.864h-1.38a5.409,5.409,0,0,1-.864-.048V6a5.294,5.294,0,0,1,.828-.048h.984a6.881,6.881,0,0,1-2.1,1.644,2.007,2.007,0,0,1,.432.576A8.59,8.59,0,0,0,28.836,6.7V7.28a5.99,5.99,0,0,1,.78-.036h2.34v.72h-2.88a5.466,5.466,0,0,1-.708-.024,3.561,3.561,0,0,1,.024.552v.84c0,.7.216.768,2.208.768,2.016,0,2.628-.1,2.88-.432a2.67,2.67,0,0,0,.36-1.116,2.025,2.025,0,0,1-.66-.252,1.62,1.62,0,0,1-.24.924c-.18.2-.816.276-2.448.276-1.332,0-1.428-.024-1.428-.372V8.516h2.844a5.583,5.583,0,0,1,.732.024c-.012-.252-.024-.408-.024-.576v-.8a2.421,2.421,0,0,1,.024-.48A8.14,8.14,0,0,0,34.392,8a2.257,2.257,0,0,1,.444-.6,6.108,6.108,0,0,1-2.1-1.452h.984A5.226,5.226,0,0,1,34.536,6V5.324a7.509,7.509,0,0,1-1.056.048H32.256a5.229,5.229,0,0,1-.5-.864h1.5a6.31,6.31,0,0,1,.912.048V3.9c-.228.024-.636.048-1.08.048H32.5a10.617,10.617,0,0,0,.864-1.152L32.7,2.54a5.637,5.637,0,0,1-.876,1.4h-1.26c.108-.276.108-.276.312-.852.144-.432.144-.432.2-.576l-.744-.144a6.663,6.663,0,0,1-.456,1.572Zm1.848.564a9.013,9.013,0,0,0,.48.864H29.844a8.42,8.42,0,0,0,.468-.864ZM32,5.948a8.328,8.328,0,0,0,.612.708c-.348.024-.444.024-.708.024H29.544c-.348,0-.5-.012-.66-.024a6.92,6.92,0,0,0,.564-.708Zm3.756,5.976a9.626,9.626,0,0,1-.072-1.428V2.9a12.888,12.888,0,0,1,.072-1.476,12.17,12.17,0,0,1-1.428.06H27.108a11.828,11.828,0,0,1-1.416-.06A13.34,13.34,0,0,1,25.764,2.9v7.572a8.51,8.51,0,0,1-.072,1.452h.828v-.576h8.412v.576ZM26.52,2.132h8.412V10.7H26.52ZM38.22,4a39.949,39.949,0,0,1,4.14-.4A24.559,24.559,0,0,0,45,3.344a7.855,7.855,0,0,0-1.14.636,4.566,4.566,0,0,0-2.244,3.684,2.905,2.905,0,0,0,1.332,2.448,6.053,6.053,0,0,0,2.592.924c.216.036.24.048.372.072l.156-.972h-.12a6.15,6.15,0,0,1-1.8-.384,2.353,2.353,0,0,1-1.68-2.22A3.668,3.668,0,0,1,43.944,4.76a5.9,5.9,0,0,1,2.3-1.2,5.033,5.033,0,0,1,1.344-.168L47.52,2.5a8.1,8.1,0,0,1-1.428.132l-.684.024c-.4.012-.552.024-2.028.108l-1.884.12c-1.476.084-1.548.1-2.22.144-.372.024-.516.036-.684.036-.084,0-.2,0-.432-.012Zm7.368,1.152a8.439,8.439,0,0,1,1.224,1.908l.612-.36a9.11,9.11,0,0,0-1.236-1.86Zm1.368-.648A9.5,9.5,0,0,1,48.18,6.392l.6-.336a9.725,9.725,0,0,0-1.236-1.872Zm9.12-1.5c-.816.024-1.752.048-2.9.1-1.932.072-1.932.072-2.28.072-.18,0-.264,0-.48-.012l.036.876c.8-.132,3.228-.252,5.64-.3v.624c0,.144.012.264.012.312,0,.444,0,.492.012.66A1.842,1.842,0,0,0,54.72,4.8,2,2,0,0,0,52.6,6.776a2.006,2.006,0,0,0,3.48,1.248,1.681,1.681,0,0,0,.324-.588,3.108,3.108,0,0,1-1.344,2.532,6.151,6.151,0,0,1-1.944.9,2.635,2.635,0,0,1,.528.756,7.633,7.633,0,0,0,1.9-.972A3.862,3.862,0,0,0,57.144,7.52,3.438,3.438,0,0,0,56.856,6.1V3.728c.972-.024,1.1-.024,1.284-.024a21.328,21.328,0,0,1,2.292.06V2.912c-.4.048-1.32.072-3.588.084V2.864a9.934,9.934,0,0,1,.06-1.5H56a4.043,4.043,0,0,1,.048.7Zm-.036,3.5a1.345,1.345,0,0,1-1.4,1.416A1.16,1.16,0,0,1,53.4,6.74a1.27,1.27,0,0,1,1.332-1.26,1.535,1.535,0,0,1,.8.192A.869.869,0,0,1,56.04,6.512Zm14.5-4.932a9.2,9.2,0,0,1,1.236,1.908l.6-.36a9.11,9.11,0,0,0-1.236-1.86Zm-7.728,3.7a15.621,15.621,0,0,1,2.412-.432,17.709,17.709,0,0,1-2.568,5.976l.816.48A23.306,23.306,0,0,0,66.06,4.772a6.89,6.89,0,0,1,.864-.06c1.116,0,1.476.408,1.476,1.68a9.289,9.289,0,0,1-.5,3.336q-.234.576-.684.576a4.486,4.486,0,0,1-1.788-.552,2.214,2.214,0,0,1,.036.468,2.681,2.681,0,0,1-.024.432,4.515,4.515,0,0,0,1.812.468,1.253,1.253,0,0,0,1.176-.564,8.271,8.271,0,0,0,.8-4.128A2.422,2.422,0,0,0,68.64,4.5a2.293,2.293,0,0,0-1.728-.5,6.993,6.993,0,0,0-.708.036c.1-.516.2-1.068.252-1.368a7.378,7.378,0,0,1,.228-1.152l-.96-.108v.156a14.822,14.822,0,0,1-.36,2.544,24.616,24.616,0,0,1-2.652.312ZM71.9.944a8.691,8.691,0,0,1,1.224,1.884l.6-.348A9.638,9.638,0,0,0,72.492.62ZM69.888,3.68a10.133,10.133,0,0,1,2.448,4.308l.768-.432A10.989,10.989,0,0,0,70.6,3.308Zm4.824,5.5a11.977,11.977,0,0,1,2.364,2.616l.672-.636a12.227,12.227,0,0,0-2.412-2.544ZM89.88,6.3A3.153,3.153,0,0,0,88.5,8.612a1.912,1.912,0,0,0,1.368,1.812,8.466,8.466,0,0,0,2.76.372,19.575,19.575,0,0,0,3.24-.276,3.729,3.729,0,0,1,.408-.06l-.108-.984a11.384,11.384,0,0,1-3.6.456,7.641,7.641,0,0,1-2.2-.24c-.672-.228-1.02-.624-1.02-1.176s.36-1.116,1.14-1.764Zm-.72-3.072c.168.012.168.012.4.036a23.474,23.474,0,0,0,2.64.156,9.485,9.485,0,0,0,1.812-.156,18.662,18.662,0,0,0-2.124,1.272l.612.492A18.3,18.3,0,0,1,95.52,3.2l-.06-.792a13.123,13.123,0,0,1-3.036.252,13.719,13.719,0,0,1-3.192-.288ZM94.62,4.76a9.358,9.358,0,0,1,1.224,1.908l.6-.36a9.566,9.566,0,0,0-1.224-1.86Zm1.332-.7a10.064,10.064,0,0,1,1.224,1.884l.6-.336A9.252,9.252,0,0,0,96.528,3.74Zm9.276-.18a6.952,6.952,0,0,1-1.128,1.86,8.1,8.1,0,0,1-2.34,1.992,2.169,2.169,0,0,1,.48.636,9.308,9.308,0,0,0,1.812-1.512V10.6a10.979,10.979,0,0,1-1.656.312l.168.816.468-.12c.24-.06.24-.06.456-.12,1.08-.264,1.08-.264,1.32-.336.924-.264,1.536-.456,2.508-.792L107.3,9.62a23.25,23.25,0,0,1-2.508.792V5.984a8.229,8.229,0,0,0,1.2-2.1h.06a10.874,10.874,0,0,0,4,7.728,3.066,3.066,0,0,1,.552-.7,9.379,9.379,0,0,1-2.988-3.684A14.7,14.7,0,0,0,110.1,5.24l-.6-.552a8.093,8.093,0,0,1-2.148,1.9,10.737,10.737,0,0,1-.6-2.7h2.256a8.649,8.649,0,0,1,1.212.072V3.128a7.964,7.964,0,0,1-1.212.072h-2.52V2.048a5.7,5.7,0,0,1,.072-.936h-.9a4.63,4.63,0,0,1,.072.924V3.2h-2.2a7.658,7.658,0,0,1-1.176-.072v.828a8.279,8.279,0,0,1,1.164-.072ZM100.7,10.46a10.182,10.182,0,0,1-.072,1.44h.876c-.036-.432-.06-.852-.06-1.4V4.352a16.991,16.991,0,0,0,1.008-2.46,5.423,5.423,0,0,1,.192-.54l-.84-.228a8.537,8.537,0,0,1-.468,1.656,10.486,10.486,0,0,1-2.112,3.492,3.851,3.851,0,0,1,.492.684,8.576,8.576,0,0,0,1.032-1.536c-.036.54-.048.984-.048,1.44ZM114.828,2.4V2.3a7.508,7.508,0,0,1,.072-1.224h-.816a7.783,7.783,0,0,1,.072,1.236V2.4h-1.068a7.708,7.708,0,0,1-1.176-.06v.78a8.1,8.1,0,0,1,1.176-.06h1.068V4.2h-.816a8.826,8.826,0,0,1-1.092-.048,7.532,7.532,0,0,1,.048,1V6.236a7.85,7.85,0,0,1-.048,1.008,7.887,7.887,0,0,1,1-.048h.7a8.664,8.664,0,0,1-2.388,2.964,1.761,1.761,0,0,1,.5.588,7.889,7.889,0,0,0,2.184-3.132,14.112,14.112,0,0,0-.084,1.656v1.272a7.208,7.208,0,0,1-.072,1.308h.816a6.972,6.972,0,0,1-.072-1.308V9.236c0-.456-.024-1.008-.072-1.62a6.579,6.579,0,0,0,1.776,2.256,2.389,2.389,0,0,1,.432-.636A7.413,7.413,0,0,1,115,7.2h.7a7.614,7.614,0,0,1,1.008.048,6.894,6.894,0,0,1-.036-.972v-1.2a6.5,6.5,0,0,1,.036-.924,7.446,7.446,0,0,1-1.032.048h-.84V3.056h1.08a9.427,9.427,0,0,1,1.1.048V2.336a6.627,6.627,0,0,1-1.092.06Zm-.672,2.424V6.584h-1.188V4.82Zm.672,0H116V6.584h-1.176Zm4.6-2.676a7.5,7.5,0,0,1-.456,1.32h-.552c-.516,0-.768-.012-1.056-.036a9.879,9.879,0,0,1,.048,1.128V8.492c0,.432-.012.672-.036,1.08.264-.024.612-.036,1.032-.036h2.7c.4,0,.7.012,1.032.036-.024-.372-.036-.708-.036-1.152V4.532c0-.444.012-.84.036-1.116a7.776,7.776,0,0,1-1.092.048H119.7a9.942,9.942,0,0,0,.48-1.32h1.236a6.459,6.459,0,0,1,1.176.072V1.4a5.863,5.863,0,0,1-1.176.072h-3.324a6.155,6.155,0,0,1-1.176-.072v.8a6.308,6.308,0,0,1,1.068-.06ZM118.1,4.1h3.3V5.24h-3.3Zm0,1.764h3.3V7.04h-3.3Zm0,1.8h3.3V8.888h-3.3Zm.384,2.076a4.651,4.651,0,0,1-1.008.9,5.665,5.665,0,0,1-1.428.732,2.235,2.235,0,0,1,.5.6,8.161,8.161,0,0,0,2.52-1.8Zm1.692.432a8.738,8.738,0,0,0,2.244,1.812,2.158,2.158,0,0,1,.54-.588,6.934,6.934,0,0,1-2.244-1.644ZM132.336,1.58a9.2,9.2,0,0,1,1.236,1.908l.6-.36a9.11,9.11,0,0,0-1.236-1.86Zm-7.728,3.7a15.621,15.621,0,0,1,2.412-.432,17.709,17.709,0,0,1-2.568,5.976l.816.48a23.307,23.307,0,0,0,2.592-6.528,6.89,6.89,0,0,1,.864-.06c1.116,0,1.476.408,1.476,1.68a9.289,9.289,0,0,1-.5,3.336q-.234.576-.684.576a4.486,4.486,0,0,1-1.788-.552,2.214,2.214,0,0,1,.036.468,2.681,2.681,0,0,1-.024.432,4.515,4.515,0,0,0,1.812.468,1.253,1.253,0,0,0,1.176-.564,8.271,8.271,0,0,0,.8-4.128A2.422,2.422,0,0,0,130.44,4.5a2.293,2.293,0,0,0-1.728-.5,6.993,6.993,0,0,0-.708.036c.1-.516.2-1.068.252-1.368a7.379,7.379,0,0,1,.228-1.152l-.96-.108v.156a14.823,14.823,0,0,1-.36,2.544,24.616,24.616,0,0,1-2.652.312ZM133.7.944a8.691,8.691,0,0,1,1.224,1.884l.6-.348A9.638,9.638,0,0,0,134.292.62ZM131.688,3.68a10.133,10.133,0,0,1,2.448,4.308l.768-.432A10.989,10.989,0,0,0,132.4,3.308Zm5.928-.024a1.244,1.244,0,0,1,.192-.012,1.949,1.949,0,0,1,.216.012c.96.036,1.5.06,1.62.06h.48c-.06.876-.06.936-.072,1.812A4.09,4.09,0,0,0,137.268,9.1a1.638,1.638,0,0,0,1.548,1.824,3.934,3.934,0,0,0,2.676-1.452,10.806,10.806,0,0,0,2.28-3.6c1.3.336,1.98,1.056,1.98,2.088a2.646,2.646,0,0,1-2.064,2.4,5.589,5.589,0,0,1-1.8.324,2.474,2.474,0,0,1,.384.8,6.606,6.606,0,0,0,2.448-.684A3.078,3.078,0,0,0,146.6,8.036a2.886,2.886,0,0,0-2.58-2.808c.2-.564.336-.888.372-.96l-.828-.252a4.506,4.506,0,0,1-.288,1.08c-.3-.024-.444-.036-.7-.036a6.34,6.34,0,0,0-1.776.24c.012-.588.012-.588.084-1.608a33.616,33.616,0,0,0,4.248-.48c.228-.036.264-.036.42-.06l-.048-.84a18.44,18.44,0,0,1-4.572.672,7.978,7.978,0,0,1,.252-1.68l-.936-.06a1.275,1.275,0,0,1,.012.18c0,.084-.024.552-.036.684-.048.612-.048.612-.06.9-.216.012-.264.012-.3.012a8.4,8.4,0,0,1-2.244-.192Zm2.436,2.628a16.971,16.971,0,0,0,.24,3.252,2.166,2.166,0,0,1-1.38.612c-.516,0-.864-.432-.864-1.092a2.835,2.835,0,0,1,.732-1.788A4.289,4.289,0,0,1,140.052,6.284Zm.888,2.748V8.9a.793.793,0,0,0-.012-.168,20.184,20.184,0,0,1-.132-2.748,5.4,5.4,0,0,1,1.668-.276c.132,0,.192,0,.576.024a10.838,10.838,0,0,1-1.836,3,1.3,1.3,0,0,0-.228.312Zm8.7.48a2.543,2.543,0,0,1,.312-.384c.2-.228.372-.42.5-.564.408-.456.408-.456.588-.66a1.333,1.333,0,0,0,.216-.288h.024c-.036.54-.036.54-.036,1.944a10.259,10.259,0,0,1-.084,1.98h.936a18.609,18.609,0,0,1-.036-1.992V6.956a19.458,19.458,0,0,1,2.316-2.04,3.416,3.416,0,0,1,1.812-.816.608.608,0,0,1,.66.648,8.995,8.995,0,0,1-.3,1.8,11.657,11.657,0,0,0-.456,2.8,1.381,1.381,0,0,0,1.4,1.62,2.066,2.066,0,0,0,1.656-.864,5.923,5.923,0,0,0,.744-1.188,3.95,3.95,0,0,1-.552-.816,4.938,4.938,0,0,1-.684,1.38,1.447,1.447,0,0,1-1.02.66c-.468,0-.72-.3-.72-.852a13.2,13.2,0,0,1,.516-2.844,8.015,8.015,0,0,0,.276-1.752,1.3,1.3,0,0,0-1.4-1.4A4.823,4.823,0,0,0,153.6,4.6a8.566,8.566,0,0,0-1.524,1.4L152.052,6c0-.072.012-.1.012-.192a.613.613,0,0,0,.012-.108c.012-.564.012-.564.024-.8a2.044,2.044,0,0,0,.012-.3,4.135,4.135,0,0,1,.612-.744l-.312-.372a.783.783,0,0,1-.24.06,13.967,13.967,0,0,1,.144-2.136l-.948-.012a4.884,4.884,0,0,1,.036.6c0,.156-.012.7-.048,1.608-1.008.06-1.536.1-1.572.1a2.428,2.428,0,0,1-.372-.024l.048.828a12.228,12.228,0,0,1,1.884-.168c-.036,1.056-.06,1.812-.072,2.292a18.427,18.427,0,0,1-2.112,2.028Zm13.188-7.86a4.967,4.967,0,0,1-.132.756,20.263,20.263,0,0,0-.624,4.932,19.2,19.2,0,0,0,.336,3.564c.048.288.06.336.072.444l.852-.1a1.232,1.232,0,0,1-.024-.24,10.392,10.392,0,0,1,1.032-3.4l-.588-.276a2.463,2.463,0,0,1-.1.24,10.826,10.826,0,0,0-.708,2.1H162.9l-.012-.576c-.036-.54-.048-1.248-.048-1.68a17.155,17.155,0,0,1,.924-5.628Zm5.592,2.532c-.492.024-.816.036-1.284.036a8.365,8.365,0,0,1-2.16-.192l-.024.84H165a.551.551,0,0,1,.12.012,2.083,2.083,0,0,1,.216.012,3.121,3.121,0,0,1,.372.024c.408.024.852.036,1.356.036s.852-.012,1.368-.036c.036,1.812.084,2.892.12,3.132a3.6,3.6,0,0,0-1.332-.228c-1.344,0-2.28.708-2.28,1.728s.876,1.68,2.268,1.68a2.057,2.057,0,0,0,2.016-1.008,2.131,2.131,0,0,0,.144-.828,1.608,1.608,0,0,0-.024-.3.71.71,0,0,1,.072.048l.072.048a.711.711,0,0,0,.072.048,6.245,6.245,0,0,1,1.7,1.248l.384-.852a1.59,1.59,0,0,1-.3-.192,9.268,9.268,0,0,0-2.016-1.188c-.084-1.44-.12-2.352-.12-3.4.564-.072,1-.132,1.26-.192.444-.084.7-.144.768-.156.012,0,.048-.012.072-.012l-.036-.792a9.781,9.781,0,0,1-2.076.42V3.536a14.97,14.97,0,0,1,.072-1.884h-.9a2.408,2.408,0,0,1,.036.492V3.512Zm.144,4.6a2.217,2.217,0,0,1,.024.348,1.334,1.334,0,0,1-.228.948,1.676,1.676,0,0,1-1.224.432c-.84,0-1.4-.384-1.4-.96,0-.624.6-1.008,1.548-1.008A3.286,3.286,0,0,1,168.564,8.78Zm1.116-7.692a9.687,9.687,0,0,1,.9,1.98l.636-.228A8.977,8.977,0,0,0,170.3.9ZM171.1.728a9.85,9.85,0,0,1,.912,1.944l.612-.24A9.124,9.124,0,0,0,171.708.5Zm7.452,5.28V7.832h-2a6.863,6.863,0,0,1-1.116-.06v.816a7.045,7.045,0,0,1,1.116-.06h2v2.148H175.14A9.9,9.9,0,0,1,173.8,10.6v.876a9.105,9.105,0,0,1,1.332-.084h7.836a8.878,8.878,0,0,1,1.308.084V10.6a9.749,9.749,0,0,1-1.32.072h-3.624V8.528h2.232a6.88,6.88,0,0,1,1.1.06V7.772a6.789,6.789,0,0,1-1.1.06h-2.232V6.008h1.944a6.971,6.971,0,0,1,1.1.06V5.252a6.644,6.644,0,0,1-1.08.06h-4.608a6.735,6.735,0,0,1-1.08-.06v.816a7.138,7.138,0,0,1,1.116-.06Zm-.06-4.824A9.386,9.386,0,0,1,176.46,3.5a13.057,13.057,0,0,1-3.012,1.836,2.354,2.354,0,0,1,.528.72,14.951,14.951,0,0,0,3.084-2.04,9.853,9.853,0,0,0,1.92-2.16,10.5,10.5,0,0,0,2.2,2.3,17.016,17.016,0,0,0,3.048,1.932,3.217,3.217,0,0,1,.516-.792,12.345,12.345,0,0,1-2.964-1.68,9.357,9.357,0,0,1-2.34-2.436ZM190.932,4v1.86h-1.284a6.28,6.28,0,0,1-1.092-.06V6.56a6.627,6.627,0,0,1,1.092-.06h1.284V8.7H189.12a8.054,8.054,0,0,1-1.188-.072v.792a8.4,8.4,0,0,1,1.188-.072h4.572a8.34,8.34,0,0,1,1.176.072V8.624a7.99,7.99,0,0,1-1.176.072h-2.016V6.5h1.476a6.467,6.467,0,0,1,1.08.06V5.8a6.209,6.209,0,0,1-1.08.06h-1.476V4h1.848a7.63,7.63,0,0,1,1.164.06V3.3a7.341,7.341,0,0,1-1.176.072h-4.236a5.828,5.828,0,0,1-1.128-.072v.768A7.213,7.213,0,0,1,189.276,4Zm1.692,3.012A6.608,6.608,0,0,1,193.692,8.5l.564-.36a7.409,7.409,0,0,0-1.128-1.428Zm-6.168,3.252a11.629,11.629,0,0,1-.072,1.644h.84V11.18h8.328v.732h.84a11.748,11.748,0,0,1-.072-1.644V2.96a12.741,12.741,0,0,1,.072-1.476,12.046,12.046,0,0,1-1.428.06h-7.176a11.024,11.024,0,0,1-1.4-.06,13.811,13.811,0,0,1,.072,1.476Zm.768-8.04h8.328V10.5h-8.328ZM203.28,5.2h-2.928V2.948a6.161,6.161,0,0,1,.048-.888h-.9a8.507,8.507,0,0,1,.06.924V5.36c0,.2-.012.384-.024.612.252-.012.528-.024.744-.024h3V10.34h-3.42V8.12a6.031,6.031,0,0,1,.06-1.02h-.912a6.663,6.663,0,0,1,.06,1.068v2.64A6.309,6.309,0,0,1,199,11.816h.864V11.1h7.8v.72h.864a6,6,0,0,1-.072-1.008V8.1a6.663,6.663,0,0,1,.06-1.068H207.6a6.363,6.363,0,0,1,.06,1.032v2.28h-3.576V5.948h3.228c.228,0,.5.012.744.024-.012-.2-.024-.372-.024-.612V2.972a5.918,5.918,0,0,1,.06-.912h-.9a6.532,6.532,0,0,1,.048.876V5.2h-3.156V2.168a5.445,5.445,0,0,1,.084-1.092H203.2a4.853,4.853,0,0,1,.084,1.092Zm17.028,2.064a6.7,6.7,0,0,1,1.176.072v-.8a7.239,7.239,0,0,1-1.176.072h-4.152V5.552h3.3a8.041,8.041,0,0,1,1.14.072v-.8a5.89,5.89,0,0,1-1.14.072h-3.3V3.86h3.3a7.468,7.468,0,0,1,1.14.072v-.8a7.148,7.148,0,0,1-1.14.072h-3.3V2.192h3.564a8.042,8.042,0,0,1,1.212.06V1.46a7.818,7.818,0,0,1-1.224.072H216.7a10.568,10.568,0,0,1-1.3-.06,8.724,8.724,0,0,1,.048,1.044V6.608a8.119,8.119,0,0,1-.936-.048v.756a6.6,6.6,0,0,1,.888-.048v3.5a8.5,8.5,0,0,1-1.236.18l.18.78c.24-.072.312-.084.576-.144,1.332-.3,2.28-.564,3.4-.924l-.024-.7a19.192,19.192,0,0,1-2.16.636V7.268h1.02a7.266,7.266,0,0,0,1.428,2.58,9.035,9.035,0,0,0,2.664,2.028,3.421,3.421,0,0,1,.444-.732,7.11,7.11,0,0,1-2.472-1.632,17.155,17.155,0,0,0,1.656-1.488l-.588-.468A7.507,7.507,0,0,1,218.8,9.032a5.071,5.071,0,0,1-.936-1.764Zm-8.448-.36a16.3,16.3,0,0,0,.252-1.968h1.38c.324,0,.612.012.852.036-.024-.312-.036-.588-.036-.948V2.444c0-.324.012-.576.036-.84q-.378.036-.792.036h-1.4a7.13,7.13,0,0,1-1.116-.072V2.36a9.042,9.042,0,0,1,1.1-.048h1.452V4.268h-1.044a8.142,8.142,0,0,1-1.14-.048,17.29,17.29,0,0,1-.4,3.384c.288-.024.444-.024.816-.024h1.656a10.98,10.98,0,0,1-.372,3.012c-.084.288-.24.372-.636.372a11.394,11.394,0,0,1-1.344-.12,3.087,3.087,0,0,1,.156.792c.5.036.912.06,1.272.06.7,0,1.02-.2,1.2-.72a12.434,12.434,0,0,0,.468-3.612c.012-.228.012-.3.036-.492a7.589,7.589,0,0,1-.864.036Zm12.12.072a1.251,1.251,0,0,1,.372.072,12.65,12.65,0,0,0,1.812.3c-.012.108-.012.108-.024.288a6.343,6.343,0,0,0-.048.792,3.254,3.254,0,0,0,.372,1.656,2.986,2.986,0,0,0,2.688,1.2c2.1,0,3.516-1.14,3.516-2.832a3.2,3.2,0,0,0-1.128-2.388,2.375,2.375,0,0,1-.876.24A2.736,2.736,0,0,1,231.8,8.4c0,1.272-1.044,2.1-2.652,2.1a2.523,2.523,0,0,1-1.692-.516,1.771,1.771,0,0,1-.552-1.44c0-.2.024-.6.048-.888a2.177,2.177,0,0,0,.012-.24c.54.024.732.024,1.032.024a13.847,13.847,0,0,0,1.692-.1c.168-.012.2-.012.324-.024l.024-.8a10.492,10.492,0,0,1-2.208.192c-.168,0-.336,0-.792-.012.072-.672.084-.792.276-2.172.66.024.864.024,1.056.024.348,0,.708-.012,1.08-.048.6-.048.6-.048.84-.072l.036-.828a9.738,9.738,0,0,1-2.2.2c-.192,0-.36,0-.7-.012.06-.336.084-.456.12-.72.108-.66.108-.66.12-.768a6.171,6.171,0,0,1,.192-.8l-.96-.108v.1a18.883,18.883,0,0,1-.288,2.256,7.744,7.744,0,0,1-2.16-.468l-.108.792c.168.036.216.048.372.084a15.945,15.945,0,0,0,1.788.324c-.1.636-.216,1.572-.276,2.16a7.979,7.979,0,0,1-2.148-.48Zm21.648-3.12a8.995,8.995,0,0,1-1.74,1.968,10.082,10.082,0,0,1-.456-2.076l-.732.216c.036.132.048.192.1.348a16.17,16.17,0,0,0,.972,3.168,9.954,9.954,0,0,0,2.256,3.336,3.931,3.931,0,0,1,.612-.672,7.472,7.472,0,0,1-1.824-2.136,8.714,8.714,0,0,1-.684-1.476,20.694,20.694,0,0,0,1.992-1.98,1.331,1.331,0,0,1,.132-.132Zm-5.136,3.024h-.84a5.223,5.223,0,0,1-.948-.06v.708a5.385,5.385,0,0,1,.948-.06h.84V8.648h-1.464a5.206,5.206,0,0,1-.96-.06V9.32a5.794,5.794,0,0,1,1.008-.06h1.416v1.416c0,.288-.084.348-.5.348a10.2,10.2,0,0,1-1.7-.156,2.264,2.264,0,0,1,.18.78c.54.036.972.06,1.452.06a2.049,2.049,0,0,0,.96-.132c.228-.132.324-.348.324-.78V9.26h1.464a5.35,5.35,0,0,1,.972.06V8.588a4.5,4.5,0,0,1-.912.06H241.2V7.472h.96a4.725,4.725,0,0,1,.912.06V6.824a4.5,4.5,0,0,1-.912.06h-.96V5.828h.768a4.747,4.747,0,0,1,.852.06V5.18a4.433,4.433,0,0,1-.852.06H241.2V4.2a18.558,18.558,0,0,0,2.976-1.944l.228-.192-.4-.528a8.049,8.049,0,0,1-1.128.048h-4.4a10.546,10.546,0,0,1-1.368-.072v.8a9.925,9.925,0,0,1,1.368-.072h4.656A14.3,14.3,0,0,1,240.78,3.7h-.348a6.483,6.483,0,0,1,.06,1.068V5.24h-.732a4.509,4.509,0,0,1-.852-.06v.708a6.188,6.188,0,0,1,.852-.06h.732Zm-2.016-2.616a3.262,3.262,0,0,1-.684.048h-1.32a4.688,4.688,0,0,1-.948-.06v.78a4.712,4.712,0,0,1,.924-.06H238a10.7,10.7,0,0,1-1.08,3.156,7.356,7.356,0,0,1-1.776,2.148,2.711,2.711,0,0,1,.564.6A9.4,9.4,0,0,0,237.528,8.5a14.09,14.09,0,0,0,1.176-3.4c.06-.228.084-.324.132-.456ZM249.384,7a5.3,5.3,0,0,1,1.284-.4,13.948,13.948,0,0,1,3.156-.48c1.452,0,2.22.588,2.22,1.68a2.736,2.736,0,0,1-2.2,2.424,8.182,8.182,0,0,1-2.364.372.912.912,0,0,1-.168-.012,2.628,2.628,0,0,1,.312.828,11.365,11.365,0,0,0,2.472-.456,3.507,3.507,0,0,0,2.748-3.1,2.625,2.625,0,0,0-.372-1.368,2.745,2.745,0,0,0-2.544-1.116,15.493,15.493,0,0,0-3.66.528,5.634,5.634,0,0,1-1.1.216Zm11.052-2.976a35.247,35.247,0,0,1,4.14-.4,23.253,23.253,0,0,0,2.64-.264,7.854,7.854,0,0,0-1.14.636,4.549,4.549,0,0,0-2.244,3.684,2.921,2.921,0,0,0,1.332,2.448,6.053,6.053,0,0,0,2.592.924c.192.036.24.048.372.072l.156-.972h-.12a6.15,6.15,0,0,1-1.8-.384,2.353,2.353,0,0,1-1.68-2.22,3.668,3.668,0,0,1,1.476-2.772,6.094,6.094,0,0,1,2.3-1.212,5.565,5.565,0,0,1,1.344-.156l-.072-.9a8.056,8.056,0,0,1-1.428.132c-1.548.072-5.388.288-6.816.4-.372.024-.516.036-.684.036h-.432ZM278.6,3.092a12.128,12.128,0,0,1-2.448.516V2.456a6.862,6.862,0,0,1,.06-1.116h-.888a7.971,7.971,0,0,1,.06,1.14V3.668c-.36.024-.828.036-1.152.036a6.8,6.8,0,0,1-1.224-.084v.792h.492c.132.012.456.012.636.012.348,0,.552,0,.768-.012.372-.024.372-.024.48-.036V6.644a6.419,6.419,0,0,0-1.692.984,2.172,2.172,0,0,0-.948,1.6,1.447,1.447,0,0,0,.552,1.128,3.169,3.169,0,0,0,1.98.768c.588,0,.876-.312.876-.96v-3a8.1,8.1,0,0,1,2.544-.468c1.572,0,2.568.732,2.568,1.908a1.593,1.593,0,0,1-1.608,1.692c-.876,0-1.236-.516-1.236-1.764a3.566,3.566,0,0,1,.024-.468,2.6,2.6,0,0,1-.792.312,4.379,4.379,0,0,0,.144,1.356,1.77,1.77,0,0,0,1.848,1.356,2.469,2.469,0,0,0,1.212-4.608,4.063,4.063,0,0,0-2.124-.5,8.5,8.5,0,0,0-2.58.432V4.328a21.062,21.062,0,0,0,2.124-.36c.168-.036.216-.048.36-.072Zm-3.216,6.624c0,.516-.036.588-.276.588a2.241,2.241,0,0,1-1.068-.348c-.348-.228-.516-.468-.516-.72,0-.576.672-1.224,1.86-1.8ZM282.6,4.64a10.084,10.084,0,0,0-2.424-2.28l-.624.468a9.828,9.828,0,0,1,2.424,2.352Zm4.512-3.36a2.407,2.407,0,0,1-.036.384,30.331,30.331,0,0,0-.408,4.428v.276l.024,1.248.012.216v.132l.864-.036c-.012-.18-.012-.24-.012-.288a6.263,6.263,0,0,1,.648-2.676c.684-1.4,1.452-2.088,2.364-2.088,1.152,0,1.824,1.116,1.824,3.048a4.132,4.132,0,0,1-2.064,3.984,6.341,6.341,0,0,1-2.436.756,2.477,2.477,0,0,1,.48.816,9.084,9.084,0,0,0,2.136-.708,4.951,4.951,0,0,0,2.772-4.716,4.929,4.929,0,0,0-.72-2.916,2.259,2.259,0,0,0-1.92-1.068,2.862,2.862,0,0,0-2.4,1.548,5.354,5.354,0,0,0-.732,1.788c-.06.252-.06.252-.084.348l-.048-.012c.036-.612.2-1.92.4-3.132a6.8,6.8,0,0,1,.276-1.236ZM10.5,31.64a4.1,4.1,0,0,1-.408-.276,10.5,10.5,0,0,0-3.348-1.752c-.048-1.164-.048-1.164-.072-1.836.888-.06,1.836-.156,2.664-.288.42-.06.54-.072.7-.084l-.048-.828a14.484,14.484,0,0,1-3.324.492c-.012-.636-.012-.636-.024-1.62A24.928,24.928,0,0,0,9.42,25.16c.624-.084.624-.084.828-.1l-.06-.816a16.916,16.916,0,0,1-3.552.492,13.393,13.393,0,0,1,.084-1.692H5.8a9.4,9.4,0,0,1,.06,1.728c-.4,0-.8.012-1.044.012a14.908,14.908,0,0,1-3.072-.24l-.012.816a.98.98,0,0,1,.168-.012,1.456,1.456,0,0,1,.216.012c1.08.084,2.052.12,2.928.12.276,0,.468,0,.816-.012l.024,1.644c-.336.012-.756.012-1.068.012a14.728,14.728,0,0,1-2.748-.192l-.012.792h.1c.072,0,.168,0,.3.012.744.06,1.308.084,2.028.084.384,0,.984-.012,1.416-.024.012.312.012.54.024.7.012.348.012.6.024.708a.956.956,0,0,0,.012.132c0,.108,0,.108.012.144a5.337,5.337,0,0,0-1.08-.1,5.227,5.227,0,0,0-1.248.12c-1.056.24-1.68.864-1.68,1.656A1.569,1.569,0,0,0,2.6,32.42a3.126,3.126,0,0,0,1.86.48,2.416,2.416,0,0,0,2.028-.756,2.084,2.084,0,0,0,.3-1.308,3.45,3.45,0,0,0-.024-.432c.324.132.6.252.8.36A9.656,9.656,0,0,1,10.02,32.48Zm-4.524-.972a1.572,1.572,0,0,1-.24,1.08,1.734,1.734,0,0,1-1.32.4c-1.044,0-1.644-.36-1.644-1s.78-1.068,1.968-1.068a4.405,4.405,0,0,1,1.224.132ZM19,24.608c-.816.024-1.752.048-2.9.1-1.932.072-1.932.072-2.28.072-.18,0-.264,0-.48-.012l.036.876c.8-.132,3.228-.252,5.64-.3v.624c0,.144.012.264.012.312,0,.444,0,.492.012.66a1.842,1.842,0,0,0-1.392-.54,2,2,0,0,0-2.124,1.98,1.86,1.86,0,0,0,1.968,1.9A1.876,1.876,0,0,0,19,29.624a1.681,1.681,0,0,0,.324-.588,3.108,3.108,0,0,1-1.344,2.532,6.151,6.151,0,0,1-1.944.9,2.635,2.635,0,0,1,.528.756,7.633,7.633,0,0,0,1.9-.972,3.862,3.862,0,0,0,1.608-3.132,3.438,3.438,0,0,0-.288-1.416V25.328c.972-.024,1.1-.024,1.284-.024a21.328,21.328,0,0,1,2.292.06v-.852c-.4.048-1.32.072-3.588.084v-.132a9.934,9.934,0,0,1,.06-1.5h-.9a4.044,4.044,0,0,1,.048.7Zm-.036,3.5a1.345,1.345,0,0,1-1.4,1.416A1.16,1.16,0,0,1,16.32,28.34a1.27,1.27,0,0,1,1.332-1.26,1.535,1.535,0,0,1,.8.192A.869.869,0,0,1,18.96,28.112Zm12.408-3.468a3.453,3.453,0,0,1,1.392.3,3.163,3.163,0,0,1,1.908,3.012,3.622,3.622,0,0,1-2.124,3.36,7.193,7.193,0,0,1-2,.564,1.907,1.907,0,0,1,.42.8,9.284,9.284,0,0,0,1.824-.552,4.369,4.369,0,0,0,2.748-4.14,4.017,4.017,0,0,0-1.164-2.928,4.645,4.645,0,0,0-3.3-1.188,4.873,4.873,0,0,0-5.136,4.908c0,1.68.852,2.928,1.992,2.928.864,0,1.572-.72,2.268-2.3A17.988,17.988,0,0,0,31.368,24.644Zm-.864.012a16.482,16.482,0,0,1-1.092,4.44c-.516,1.176-1,1.74-1.5,1.74-.648,0-1.152-.888-1.152-2.04a4.15,4.15,0,0,1,1.956-3.576A3.79,3.79,0,0,1,30.5,24.656Zm7.716.948a39.949,39.949,0,0,1,4.14-.4A24.559,24.559,0,0,0,45,24.944a7.856,7.856,0,0,0-1.14.636,4.566,4.566,0,0,0-2.244,3.684,2.905,2.905,0,0,0,1.332,2.448,6.053,6.053,0,0,0,2.592.924c.216.036.24.048.372.072l.156-.972h-.12a6.15,6.15,0,0,1-1.8-.384,2.353,2.353,0,0,1-1.68-2.22,3.668,3.668,0,0,1,1.476-2.772,5.9,5.9,0,0,1,2.3-1.2,5.033,5.033,0,0,1,1.344-.168L47.52,24.1a8.1,8.1,0,0,1-1.428.132l-.684.024c-.4.012-.552.024-2.028.108l-1.884.12c-1.476.084-1.548.1-2.22.144-.372.024-.516.036-.684.036-.084,0-.2,0-.432-.012Zm7.368,1.152a8.439,8.439,0,0,1,1.224,1.908l.612-.36a9.11,9.11,0,0,0-1.236-1.86Zm1.368-.648a9.5,9.5,0,0,1,1.224,1.884l.6-.336a9.725,9.725,0,0,0-1.236-1.872ZM7.044,46.292a12.127,12.127,0,0,1-2.448.516V45.656a6.863,6.863,0,0,1,.06-1.116H3.768a7.971,7.971,0,0,1,.06,1.14v1.188c-.36.024-.828.036-1.152.036a6.8,6.8,0,0,1-1.224-.084v.792h.492c.132.012.456.012.636.012.348,0,.552,0,.768-.012.372-.024.372-.024.48-.036v2.268a6.419,6.419,0,0,0-1.692.984,2.172,2.172,0,0,0-.948,1.6,1.447,1.447,0,0,0,.552,1.128,3.169,3.169,0,0,0,1.98.768c.588,0,.876-.312.876-.96v-3a8.1,8.1,0,0,1,2.544-.468c1.572,0,2.568.732,2.568,1.908A1.593,1.593,0,0,1,8.1,53.492c-.876,0-1.236-.516-1.236-1.764a3.564,3.564,0,0,1,.024-.468,2.6,2.6,0,0,1-.792.312,4.379,4.379,0,0,0,.144,1.356,1.77,1.77,0,0,0,1.848,1.356A2.469,2.469,0,0,0,9.3,49.676a4.063,4.063,0,0,0-2.124-.5A8.5,8.5,0,0,0,4.6,49.6V47.528a21.06,21.06,0,0,0,2.124-.36c.168-.036.216-.048.36-.072ZM3.828,52.916c0,.516-.036.588-.276.588a2.241,2.241,0,0,1-1.068-.348c-.348-.228-.516-.468-.516-.72,0-.576.672-1.224,1.86-1.8ZM11.04,47.84a10.084,10.084,0,0,0-2.424-2.28l-.624.468a9.828,9.828,0,0,1,2.424,2.352Zm10.608-1.9a8.63,8.63,0,0,1,1.512.084v-.864a9.888,9.888,0,0,1-1.512.084h-5.9c.18-.324.228-.432.336-.648a2.759,2.759,0,0,1,.2-.42l-.852-.192a2.406,2.406,0,0,1-.228.708,8.152,8.152,0,0,1-2.292,3.036,1.421,1.421,0,0,1,.564.528,9.421,9.421,0,0,0,1.884-2.316Zm-1.128,7.98a28.065,28.065,0,0,0-2.376-1.98A12.649,12.649,0,0,0,19.176,50.7c.24-.324.24-.324.3-.408.12-.144.12-.144.168-.2l-.768-.444a6.14,6.14,0,0,1-1.344,1.86,22.264,22.264,0,0,0-2.292-1.452l-.516.48A22.905,22.905,0,0,1,17.016,52a11.578,11.578,0,0,1-3.72,2.244,2.011,2.011,0,0,1,.576.66,12.8,12.8,0,0,0,3.756-2.448,20.172,20.172,0,0,1,2.34,2.088Zm.552-4.584a13.04,13.04,0,0,0,.456,3.936c.324.972.912,1.68,1.38,1.68.3,0,.564-.276.72-.78a7,7,0,0,0,.324-1.644,1.813,1.813,0,0,1-.66-.468c-.072,1.1-.264,2-.432,2-.132,0-.432-.468-.6-.948a11.125,11.125,0,0,1-.444-3.492,9.376,9.376,0,0,1,.048-1.02,9.458,9.458,0,0,1-1.356.06H14.76a7.238,7.238,0,0,1-1.116-.072v.816a8.663,8.663,0,0,1,1.236-.072ZM15.084,47.7a7.045,7.045,0,0,1,1.116-.06h4.788a6.081,6.081,0,0,1,1.176.072v-.816a6.564,6.564,0,0,1-1.176.072h-4.86a5.59,5.59,0,0,1-1.044-.06ZM33.36,51.08v-.528a6.4,6.4,0,0,1,.072-1.26h-.864a6.62,6.62,0,0,1,.072,1.26v.528H31.7a6.611,6.611,0,0,1-1.1-.06v.792a6.627,6.627,0,0,1,1.092-.06h.948v2.172H31.008a6.114,6.114,0,0,1-1.14-.072v.828a7.927,7.927,0,0,1,1.164-.072H35a7.752,7.752,0,0,1,1.152.072v-.828A7.422,7.422,0,0,1,35,53.924H33.36V51.752h1.32a6.484,6.484,0,0,1,1.068.06V51.02a5.984,5.984,0,0,1-1.056.06Zm-5.1,1.968h1.1a5.264,5.264,0,0,1,1.044.072v-.756a5.846,5.846,0,0,1-1.032.06H28.26v-1.08h.612a11.107,11.107,0,0,1,1.212.048,11.382,11.382,0,0,1-.048-1.26V48.344a10.012,10.012,0,0,1,.048-1.224,10.459,10.459,0,0,1-1.2.048H28.26V46.1h.816a6.735,6.735,0,0,1,1.08.06V45.4a5.3,5.3,0,0,1-1.08.072H28.26a7.82,7.82,0,0,1,.072-1.26h-.816a7.82,7.82,0,0,1,.072,1.26h-1.02a5.359,5.359,0,0,1-1.092-.072v.756a7.085,7.085,0,0,1,1.092-.06h1.02v1.068h-.624a9.867,9.867,0,0,1-1.176-.048,11.494,11.494,0,0,1,.048,1.224v1.788a12.1,12.1,0,0,1-.048,1.26,11.1,11.1,0,0,1,1.176-.048h.624v1.08H26.52a6.717,6.717,0,0,1-1.092-.06v.756a5.644,5.644,0,0,1,1.092-.072h1.068v.78a8.683,8.683,0,0,1-.072,1.26h.816a8.062,8.062,0,0,1-.072-1.248Zm-.012-2.292v-1.3H29.4v1.3Zm0-1.848V47.756H29.4v1.152Zm-.66-1.152v1.152H26.472V47.756Zm0,1.7v1.3H26.472v-1.3Zm7.548-4.62a4.341,4.341,0,0,1-.816.06H31.38a6.32,6.32,0,0,1-1.056-.072V45.6a7.078,7.078,0,0,1,.744-.048,6.887,6.887,0,0,0,1.548,2.3,8.8,8.8,0,0,1-2.556,1.392,1.647,1.647,0,0,1,.468.624,10.227,10.227,0,0,0,2.58-1.56,9.333,9.333,0,0,0,2.808,1.584,2.152,2.152,0,0,1,.42-.684,8.2,8.2,0,0,1-2.712-1.356,9.356,9.356,0,0,0,1.632-2.04,4.043,4.043,0,0,1,.324-.468Zm-.528.708a7.794,7.794,0,0,1-1.5,1.872A5.484,5.484,0,0,1,31.8,45.548Zm4.8-.708a6.682,6.682,0,0,1-.168.96,19.852,19.852,0,0,0-.54,4.752,17.2,17.2,0,0,0,.312,3.4c.036.228.048.288.072.48l.864-.072v-.18a10.46,10.46,0,0,1,.972-3.3l-.576-.276a11.149,11.149,0,0,0-.78,2.34c-.048-.636-.072-1.344-.072-2.28a17.74,17.74,0,0,1,.36-3.756,17.051,17.051,0,0,1,.5-1.92Zm2.472,2.268a15.984,15.984,0,0,0,1.92.12,20.258,20.258,0,0,0,2.58-.156q.792-.108.828-.108l-.06-.852a12.876,12.876,0,0,1-3.216.324,8.15,8.15,0,0,1-2.04-.18Zm.876,2.34a3.315,3.315,0,0,0-1.044,2.232,1.7,1.7,0,0,0,.36,1.1,3.335,3.335,0,0,0,2.748.912,12.38,12.38,0,0,0,2.46-.24c.24-.036.264-.048.42-.06l-.12-.924a7.9,7.9,0,0,1-2.76.42c-1.548,0-2.3-.432-2.3-1.32a2.788,2.788,0,0,1,.9-1.764Zm8.64-1.056H53.58c.492,0,.948.012,1.212.036-.024-.288-.036-.624-.036-1.1V45.716c0-.468.012-.78.036-1.14a10.529,10.529,0,0,1-1.224.048H51.852a11,11,0,0,1-1.248-.048c.036.384.048.732.048,1.32v7.788a9.08,9.08,0,0,1-.072,1.344h.888a8.435,8.435,0,0,1-.072-1.344Zm0-3.18h2.676V46.2H51.4Zm0,1.572h2.676v1.008H51.4Zm8.88-.888a11.229,11.229,0,0,1,.06-1.32,11.244,11.244,0,0,1-1.26.048H57.132a10.529,10.529,0,0,1-1.224-.048c.024.36.036.72.036,1.14v1.608c0,.444-.012.756-.036,1.1.264-.024.72-.036,1.224-.036h2.4v5.424c0,.276-.084.348-.432.348a13.62,13.62,0,0,1-1.524-.12,2.277,2.277,0,0,1,.216.768c.528.036.96.048,1.428.048.828,0,1.056-.216,1.056-1Zm-3.636-.684h2.892V46.2H56.64Zm0,1.572h2.892v1.008H56.64Zm.924,3.444A6.789,6.789,0,0,1,57.6,49.5a8.612,8.612,0,0,1-.876.036H54.036a8.247,8.247,0,0,1-.828-.036,7.43,7.43,0,0,1,.036.756v2.4a7.423,7.423,0,0,1-.06,1.116h.78V52.82h2.88a6.941,6.941,0,0,1,.756.036,6.11,6.11,0,0,1-.036-.72Zm-3.6-.06h2.892v2.016H53.964Zm9.468-4.476a6.493,6.493,0,0,1,.036.708,18.029,18.029,0,0,0,.648,5.628c.408,1.152,1.032,1.824,1.7,1.824.852,0,1.4-.8,1.992-2.9a3.836,3.836,0,0,1-.708-.684,8.634,8.634,0,0,1-.624,2.052c-.18.4-.384.6-.6.6-.456,0-.948-.828-1.212-2.052a20.55,20.55,0,0,1-.312-3.732A8.7,8.7,0,0,1,64.44,45.7Zm6.072,1.02A10.6,10.6,0,0,1,72,52.628l.852-.348a11.49,11.49,0,0,0-.9-3.2,10.416,10.416,0,0,0-1.716-2.736Zm10.164-2.46A8.73,8.73,0,0,1,77.82,46.34a12.516,12.516,0,0,1-3.264,2.088,2.086,2.086,0,0,1,.5.684,13.875,13.875,0,0,0,2.544-1.56,11.181,11.181,0,0,0,2.52-2.628,10.081,10.081,0,0,0,1.848,2.016,16.774,16.774,0,0,0,3.384,2.208,3.106,3.106,0,0,1,.48-.756,12.584,12.584,0,0,1-3.288-1.968,8.244,8.244,0,0,1-1.98-2.172Zm-2.34,4.464a6.9,6.9,0,0,1,.936-.048H82A7.387,7.387,0,0,1,83,48.716V47.9A7.166,7.166,0,0,1,82,47.948h-3.72a6.133,6.133,0,0,1-.948-.048Zm-.084,6.264v-.7h5.8v.7H83.9a8.339,8.339,0,0,1-.072-1.176V51.152a7.253,7.253,0,0,1,.06-1.1,6.36,6.36,0,0,1-.936.048H77.328a6.359,6.359,0,0,1-.936-.048,7.547,7.547,0,0,1,.06,1.1V53.8a8.711,8.711,0,0,1-.072,1.176Zm0-4.152h5.8v2.748h-5.8Zm10.668,1.56a10.23,10.23,0,0,1,1.08-1.14,3.376,3.376,0,0,0,.624-.66h.024c-.024.288-.024.384-.036,1.848a12.811,12.811,0,0,1-.06,2.268h.948c-.06-.552-.072-1.152-.072-4.764,1.572-1.416,2.652-1.98,3.828-1.98a2.2,2.2,0,0,1,2.292,2.352,3.033,3.033,0,0,1-.336,1.44,2.672,2.672,0,0,1-2.4,1.356,5.255,5.255,0,0,1-2.124-.468,2.949,2.949,0,0,1,.1.7,1.567,1.567,0,0,1-.012.2,6.053,6.053,0,0,0,2.04.36,3.411,3.411,0,0,0,3.624-3.612,3.035,3.035,0,0,0-3.228-3.12,4.672,4.672,0,0,0-3.036,1.188,6.573,6.573,0,0,0-.7.612L90.432,49h-.024c0-.024.024-.432.06-1.212a3.548,3.548,0,0,1,.636-.78l-.312-.4a.7.7,0,0,1-.276.072c.012-.276.012-.276.024-.684a7.522,7.522,0,0,1,.12-1.392h-.948a2.159,2.159,0,0,1,.036.468c0,.468-.012.924-.048,1.668-.984.072-1.488.1-1.668.1-.1,0-.168,0-.336-.012l.06.828a10.482,10.482,0,0,1,1.32-.144c.444-.024.444-.024.612-.036-.036,1.02-.036,1.128-.06,2.124-.156.132-.156.132-.348.312-.408.372-.408.372-.816.756a8.88,8.88,0,0,1-1.032.888Zm14.04-7.32a12.76,12.76,0,0,1,.06,1.788v.78c-1.26.108-2,.156-2.22.156a2.56,2.56,0,0,1-.264-.012l.072.84a24.185,24.185,0,0,1,2.412-.252v1.5a12.662,12.662,0,0,0,.156,2.844c.312,1.08,1.224,1.488,3.36,1.488a20.391,20.391,0,0,0,3.036-.252c.288-.036.312-.048.48-.06l-.1-.924a10.879,10.879,0,0,1-3.336.444,6.667,6.667,0,0,1-1.872-.2,1.031,1.031,0,0,1-.8-.78,18.4,18.4,0,0,1-.12-3.024V48.32c1.6-.108,2.46-.156,3.912-.2a10.912,10.912,0,0,1-.144,1.848c-.108.588-.252.78-.588.78a3.408,3.408,0,0,1-1.572-.66c.012.24.024.36.024.492s-.012.18-.024.36a3.442,3.442,0,0,0,1.668.552,1.2,1.2,0,0,0,1.212-1.056,11.411,11.411,0,0,0,.216-2.34c.384,0,.648-.012.84-.012.4-.012.708-.012.816-.012.5,0,.576,0,.9.024l-.024-.852c-.4.048-1.332.084-2.508.108v-.324l.012-.78v-.5a6.493,6.493,0,0,1,.048-.924h-.924a11.5,11.5,0,0,1,.072,1.824c0,.144,0,.276-.012.408v.336c-1.5.06-1.98.084-3.924.192a13.887,13.887,0,0,1,.108-2.508Zm14.58.624v7.884a8.825,8.825,0,0,1-.084,1.416h1a8.727,8.727,0,0,1-.084-1.416V47.924a13.406,13.406,0,0,1,1.248.66,17.979,17.979,0,0,1,2.544,1.68l.468-.744a25.893,25.893,0,0,0-4.26-2.46V45.692h3.768a11.781,11.781,0,0,1,1.392.072v-.888a11.359,11.359,0,0,1-1.392.072h-7.776a11.165,11.165,0,0,1-1.4-.072v.888a11.712,11.712,0,0,1,1.4-.072Zm8.88,2.16a2.651,2.651,0,0,1,.468-.036,35.334,35.334,0,0,0,4.272-.312c.072.12.072.144.2.4a14.632,14.632,0,0,0,1.44,2.352,5.992,5.992,0,0,0-2.484-.432,5.1,5.1,0,0,0-2.328.444,2.243,2.243,0,0,0-1.356,1.956,1.935,1.935,0,0,0,.54,1.32,4.4,4.4,0,0,0,3.12.9,9.948,9.948,0,0,0,3.528-.648l-.132-.924a7.912,7.912,0,0,1-3.408.768,4.065,4.065,0,0,1-2.34-.552,1.2,1.2,0,0,1-.456-.936,1.363,1.363,0,0,1,.648-1.116,4.254,4.254,0,0,1,2.28-.5,6.5,6.5,0,0,1,2.1.312,2.4,2.4,0,0,1,.828.492l.8-.456a22.223,22.223,0,0,1-2.16-3.492l.408-.084c.756-.144.9-.18,1.62-.372.36-.1.456-.12.708-.168l-.12-.852a14.044,14.044,0,0,1-2.9.756,9.874,9.874,0,0,1-.432-1.056,3.824,3.824,0,0,1-.348-1.08l-.948.132c.108.216.18.384.312.7.216.54.408,1.02.588,1.428a28.01,28.01,0,0,1-3.576.252,5.261,5.261,0,0,1-.924-.06Zm12.18-2.16a6.49,6.49,0,0,1,.036.708,18.029,18.029,0,0,0,.648,5.628c.408,1.152,1.032,1.824,1.7,1.824.852,0,1.4-.8,1.992-2.9a3.836,3.836,0,0,1-.708-.684,8.634,8.634,0,0,1-.624,2.052c-.18.4-.384.6-.6.6-.456,0-.948-.828-1.212-2.052a20.55,20.55,0,0,1-.312-3.732A8.7,8.7,0,0,1,138.6,45.7Zm6.072,1.02a10.6,10.6,0,0,1,2.5,5.916l.852-.348a11.49,11.49,0,0,0-.9-3.2A10.416,10.416,0,0,0,144.4,46.34Zm7.116,4.668a1.8,1.8,0,1,0,1.8,1.8A1.8,1.8,0,0,0,150.78,51.38Zm0,.684a1.116,1.116,0,1,1-1.116,1.116A1.122,1.122,0,0,1,150.78,52.064ZM7.536,92.12a3.261,3.261,0,0,1-.408.9A7.818,7.818,0,0,1,6,94.556,11.378,11.378,0,0,1,4.764,92.84a4.838,4.838,0,0,1-.324-.708l-.732.372a9.623,9.623,0,0,0,1.764,2.58,7.875,7.875,0,0,1-1.74,1.272A12.017,12.017,0,0,1,.78,97.52a2.221,2.221,0,0,1,.444.744,12.126,12.126,0,0,0,3.216-1.44A9.995,9.995,0,0,0,6,95.624a8.883,8.883,0,0,0,1.5,1.152,12.914,12.914,0,0,0,3.444,1.488,2.138,2.138,0,0,1,.432-.792,12.148,12.148,0,0,1-3.312-1.3,9.944,9.944,0,0,1-1.512-1.092,13.667,13.667,0,0,0,1.764-2.568Zm-2-3.168H2.184A7.858,7.858,0,0,1,.84,88.868v.864a8.969,8.969,0,0,1,1.344-.072H9.84a8.9,8.9,0,0,1,1.368.072v-.864a7.831,7.831,0,0,1-1.356.084H6.312v-.54A4.23,4.23,0,0,1,6.4,87.4H5.448a5.1,5.1,0,0,1,.084,1.008ZM3.948,90.068a6.546,6.546,0,0,1-1.32,1.7A9.034,9.034,0,0,1,.888,93.08a2.314,2.314,0,0,1,.588.6A11.493,11.493,0,0,0,3.06,92.408a9.254,9.254,0,0,0,1.572-1.956Zm3.288.4a10.251,10.251,0,0,0,1.536,1.728,10.95,10.95,0,0,0,1.9,1.368,3.049,3.049,0,0,1,.528-.684,8.51,8.51,0,0,1-1.944-1.26,6.579,6.579,0,0,1-1.392-1.56Zm10.392-.408a9.441,9.441,0,0,1-1.3-.06,11.437,11.437,0,0,1,.048,1.356v3.792a8.027,8.027,0,0,1-.072,1.26h.852a7.618,7.618,0,0,1-.072-1.26V94.22h2.256v.756a8.673,8.673,0,0,1-.072,1.3H20.1a8.563,8.563,0,0,1-.072-1.3V94.22h2.508v1.164c0,.288-.06.336-.336.336a6.187,6.187,0,0,1-1-.084,2.57,2.57,0,0,1,.168.7c.36.024.564.024.84.024.84,0,1.032-.168,1.032-.924v-3.96A14.6,14.6,0,0,1,23.292,90a8.317,8.317,0,0,1-1.308.06h-1.56a13.581,13.581,0,0,0,2.388-1.6,2.846,2.846,0,0,1,.3-.228l-.3-.432a8.36,8.36,0,0,1-1.224.048H17.4a6.919,6.919,0,0,1-1.272-.072v.756a8.059,8.059,0,0,1,1.2-.06H21.78a10,10,0,0,1-1.86,1.26,17.724,17.724,0,0,0-1.608-1.068l-.54.384a11.66,11.66,0,0,1,1.6,1.008Zm2.4.6h2.508v1.188H20.028Zm-.684,0v1.188H17.088V90.656ZM17.088,92.42h2.256v1.212H17.088Zm5.448,1.212H20.028V92.42h2.508Zm-9.552-5.508a11.367,11.367,0,0,1,1.86,2.184l.612-.552a13.781,13.781,0,0,0-1.92-2.124Zm-.1,4.848a3.781,3.781,0,0,1,.8-.06h.72v2.88a6.489,6.489,0,0,1-1.7,1.4l.408.78c.168-.144.2-.18.336-.288.2-.192.252-.24.444-.408a8.663,8.663,0,0,0,.816-.876,3.245,3.245,0,0,0,1.152,1.068c.768.4,1.476.48,3.852.48,1.116,0,2.568-.036,3.876-.084a4.682,4.682,0,0,1,.276-.888,40.234,40.234,0,0,1-4.788.252,6.06,6.06,0,0,1-2.976-.42,2.029,2.029,0,0,1-.972-1.032V93.428a8.975,8.975,0,0,1,.06-1.26,5.14,5.14,0,0,1-.9.06H13.74a4.211,4.211,0,0,1-.852-.06Zm19.56-2.316v-.72h1.716c.456,0,.792.012,1.14.036a3.068,3.068,0,0,1-.036-.672v-.408a4.649,4.649,0,0,1,.048-.78,6.658,6.658,0,0,1-1.14.06H32.448v-.12a3.246,3.246,0,0,1,.06-.708h-.792a3.2,3.2,0,0,1,.06.7v.132H29.868c.024-.432.036-.708.048-.816h-.78a4.268,4.268,0,0,1,.06.816H27.084a7.228,7.228,0,0,1-1.188-.06v.7a8.487,8.487,0,0,1,1.188-.06h2.088a5.912,5.912,0,0,1-.06.648H27.564c-.552,0-.828-.012-1.092-.036a6.751,6.751,0,0,1-.672,1.884c.312-.024.612-.036,1.068-.036H28.4a5.33,5.33,0,0,1-3.144,1.4,1.75,1.75,0,0,1,.384.612,8.76,8.76,0,0,0,1.332-.456v2.664a9.786,9.786,0,0,1-.048,1.212A12.891,12.891,0,0,1,28.26,96.6h5.1a13,13,0,0,1,1.344.048,10.114,10.114,0,0,1-.048-1.236V93.476c0-.432.012-.8.024-1.1.132.012.228.012.312.012a.757.757,0,0,0,.612-.216,2.045,2.045,0,0,0,.276-.972c.048-.3.048-.312.108-.576a8.668,8.668,0,0,1-1.152.036Zm1,1.548H28.1a2.994,2.994,0,0,0,1.092-1h2.58v.12a2.647,2.647,0,0,1-.06.648h.792a2.69,2.69,0,0,1-.06-.66v-.108h2.736c-.084.624-.108.648-.384.648a2.551,2.551,0,0,1-.744-.156,2.825,2.825,0,0,1,.12.5Zm-4.428-2.268a3.382,3.382,0,0,1-.24.72H26.8c.084-.2.132-.324.264-.72Zm2.76,0v.72H29.484a2.938,2.938,0,0,0,.216-.72Zm0-1.188V89.4H29.784c.024-.24.024-.252.06-.648Zm.672,0H34.56V89.4H32.448ZM27.7,92.78h6.228v.708H27.7Zm0,1.26h6.228v.708H27.7Zm0,1.26h6.228v.72H27.7Zm1.248,1.4a9,9,0,0,1-3.456,1.068,2.234,2.234,0,0,1,.432.672,10.526,10.526,0,0,0,3.576-1.3Zm3.12.444a8.376,8.376,0,0,0,1.9.84,10.68,10.68,0,0,0,1.776.444,3.236,3.236,0,0,1,.456-.684,9.712,9.712,0,0,1-1.8-.324,6.787,6.787,0,0,1-1.764-.708Zm5.568-1.572A11.977,11.977,0,0,1,40,98.192l.672-.636a12.228,12.228,0,0,0-2.412-2.544ZM54.96,91.6H52.032V89.348a6.161,6.161,0,0,1,.048-.888h-.9a8.506,8.506,0,0,1,.06.924V91.76c0,.2-.012.384-.024.612.252-.012.528-.024.744-.024h3V96.74H51.54V94.52a6.031,6.031,0,0,1,.06-1.02h-.912a6.663,6.663,0,0,1,.06,1.068v2.64a6.308,6.308,0,0,1-.072,1.008h.864V97.5h7.8v.72H60.2a6,6,0,0,1-.072-1.008V94.5a6.663,6.663,0,0,1,.06-1.068H59.28a6.363,6.363,0,0,1,.06,1.032v2.28H55.764V92.348h3.228c.228,0,.5.012.744.024-.012-.2-.024-.372-.024-.612V89.372a5.919,5.919,0,0,1,.06-.912h-.9a6.532,6.532,0,0,1,.048.876V91.6H55.764V88.568a5.445,5.445,0,0,1,.084-1.092h-.972a4.853,4.853,0,0,1,.084,1.092Zm17.028,2.064a6.7,6.7,0,0,1,1.176.072v-.8a7.239,7.239,0,0,1-1.176.072H67.836V91.952h3.3a8.042,8.042,0,0,1,1.14.072v-.8a5.891,5.891,0,0,1-1.14.072h-3.3V90.26h3.3a7.469,7.469,0,0,1,1.14.072v-.8a7.148,7.148,0,0,1-1.14.072h-3.3V88.592H71.4a8.043,8.043,0,0,1,1.212.06V87.86a7.818,7.818,0,0,1-1.224.072H68.376a10.569,10.569,0,0,1-1.3-.06,8.724,8.724,0,0,1,.048,1.044v4.092a8.118,8.118,0,0,1-.936-.048v.756a6.6,6.6,0,0,1,.888-.048v3.5a8.5,8.5,0,0,1-1.236.18l.18.78c.24-.072.312-.084.576-.144,1.332-.3,2.28-.564,3.4-.924l-.024-.7a19.192,19.192,0,0,1-2.16.636V93.668h1.02a7.266,7.266,0,0,0,1.428,2.58,9.035,9.035,0,0,0,2.664,2.028,3.421,3.421,0,0,1,.444-.732A7.111,7.111,0,0,1,70.9,95.912a17.157,17.157,0,0,0,1.656-1.488l-.588-.468a7.507,7.507,0,0,1-1.488,1.476,5.071,5.071,0,0,1-.936-1.764Zm-8.448-.36a16.294,16.294,0,0,0,.252-1.968h1.38c.324,0,.612.012.852.036-.024-.312-.036-.588-.036-.948V88.844c0-.324.012-.576.036-.84q-.378.036-.792.036h-1.4a7.131,7.131,0,0,1-1.116-.072v.792a9.042,9.042,0,0,1,1.1-.048h1.452v1.956H64.224a8.143,8.143,0,0,1-1.14-.048,17.291,17.291,0,0,1-.4,3.384c.288-.024.444-.024.816-.024H65.16a10.979,10.979,0,0,1-.372,3.012c-.084.288-.24.372-.636.372a11.394,11.394,0,0,1-1.344-.12,3.087,3.087,0,0,1,.156.792c.5.036.912.06,1.272.06.7,0,1.02-.2,1.2-.72a12.434,12.434,0,0,0,.468-3.612c.012-.228.012-.3.036-.492a7.591,7.591,0,0,1-.864.036Zm18.348-2.652v-.72H83.6c.456,0,.792.012,1.14.036a3.069,3.069,0,0,1-.036-.672v-.408a4.649,4.649,0,0,1,.048-.78,6.658,6.658,0,0,1-1.14.06H81.888v-.12a3.246,3.246,0,0,1,.06-.708h-.792a3.2,3.2,0,0,1,.06.7v.132H79.308c.024-.432.036-.708.048-.816h-.78a4.268,4.268,0,0,1,.06.816H76.524a7.227,7.227,0,0,1-1.188-.06v.7a8.487,8.487,0,0,1,1.188-.06h2.088a5.909,5.909,0,0,1-.06.648H77c-.552,0-.828-.012-1.092-.036a6.751,6.751,0,0,1-.672,1.884c.312-.024.612-.036,1.068-.036h1.536a5.33,5.33,0,0,1-3.144,1.4,1.75,1.75,0,0,1,.384.612,8.76,8.76,0,0,0,1.332-.456v2.664a9.785,9.785,0,0,1-.048,1.212A12.891,12.891,0,0,1,77.7,96.6h5.1a13,13,0,0,1,1.344.048,10.113,10.113,0,0,1-.048-1.236V93.476c0-.432.012-.8.024-1.1.132.012.228.012.312.012a.758.758,0,0,0,.612-.216,2.046,2.046,0,0,0,.276-.972c.048-.3.048-.312.108-.576a8.668,8.668,0,0,1-1.152.036Zm1,1.548h-5.34a2.994,2.994,0,0,0,1.092-1h2.58v.12a2.647,2.647,0,0,1-.06.648h.792a2.69,2.69,0,0,1-.06-.66v-.108h2.736c-.084.624-.108.648-.384.648A2.551,2.551,0,0,1,83.5,91.7a2.825,2.825,0,0,1,.12.5Zm-4.428-2.268a3.382,3.382,0,0,1-.24.72h-1.98c.084-.2.132-.324.264-.72Zm2.76,0v.72H78.924a2.938,2.938,0,0,0,.216-.72Zm0-1.188V89.4H79.224c.024-.24.024-.252.06-.648Zm.672,0H84V89.4H81.888ZM77.136,92.78h6.228v.708H77.136Zm0,1.26h6.228v.708H77.136Zm0,1.26h6.228v.72H77.136Zm1.248,1.4a9,9,0,0,1-3.456,1.068,2.233,2.233,0,0,1,.432.672,10.526,10.526,0,0,0,3.576-1.3Zm3.12.444a8.376,8.376,0,0,0,1.9.84,10.68,10.68,0,0,0,1.776.444,3.236,3.236,0,0,1,.456-.684,9.712,9.712,0,0,1-1.8-.324,6.787,6.787,0,0,1-1.764-.708ZM94,94.292l1.728-1.512c.1-.084.168-.156.2-.18.06-.06.108-.1.12-.108a1.5,1.5,0,0,0,.12-.108l-.468-.468a5.575,5.575,0,0,1-.936.048H89.736a6.847,6.847,0,0,1-1.068-.06v.78a10.162,10.162,0,0,1,1.128-.06h5.112l-1.932,1.668H89.5a5.911,5.911,0,0,1-.864-.048,7.123,7.123,0,0,1,.06.912V97.28a7.378,7.378,0,0,1-.072,1.008h.84v-.564h6.192v.564h.84a6.873,6.873,0,0,1-.072-1.008V95.168a5.605,5.605,0,0,1,.06-.924,5.633,5.633,0,0,1-.852.048Zm-4.536.672h6.192V97.04H89.46Zm2.6-7.476a9.8,9.8,0,0,1-2.448,2.364A13.262,13.262,0,0,1,86.9,91.328a2.38,2.38,0,0,1,.528.672,15.883,15.883,0,0,0,2.676-1.584,11.926,11.926,0,0,0,2.376-2.268,14.515,14.515,0,0,0,5.232,3.8,2.491,2.491,0,0,1,.492-.708,11.273,11.273,0,0,1-2.472-1.224,10.132,10.132,0,0,1-2.856-2.532Zm-1.6,3.54a6.032,6.032,0,0,1,1.02-.06h2.16a5.794,5.794,0,0,1,1.008.06v-.756a5.481,5.481,0,0,1-1,.06H91.476a5.794,5.794,0,0,1-1.008-.06Zm11.076-2.5a2.8,2.8,0,0,1,.156.636c.108.6.252,1.308.336,1.692a4.616,4.616,0,0,0-1.2,1.224,4.309,4.309,0,0,0-.7,2.292c0,1.416.684,2.352,1.728,2.352A2.93,2.93,0,0,0,104,95.36a13.577,13.577,0,0,0,2.328-4.7c1.656.348,2.532,1.308,2.532,2.772a2.952,2.952,0,0,1-.528,1.7,3.9,3.9,0,0,1-1.8,1.308,5.438,5.438,0,0,1-1.788.444,1.983,1.983,0,0,1,.468.8c.516-.12.576-.132.756-.18A6.366,6.366,0,0,0,108.4,96.32a3.772,3.772,0,0,0,1.308-2.88,3.5,3.5,0,0,0-3.18-3.492c.06-.228.084-.36.144-.564a9.474,9.474,0,0,1,.324-1.26l-.9-.192a13.477,13.477,0,0,1-.372,1.932c-.168-.012-.312-.012-.4-.012a5.718,5.718,0,0,0-2.568.6,15.558,15.558,0,0,1-.324-2.088Zm.7,3.132a16.588,16.588,0,0,0,1.128,3.228c-.54.66-1.056,1.02-1.476,1.02-.588,0-.972-.624-.972-1.572a3.578,3.578,0,0,1,.48-1.68A3.54,3.54,0,0,1,102.24,91.664Zm1.668,2.568a1.934,1.934,0,0,0-.1-.276,17.013,17.013,0,0,1-.9-2.784,4.485,4.485,0,0,1,2.316-.612c.06,0,.168.012.3.012a13.7,13.7,0,0,1-1.464,3.4,1.963,1.963,0,0,0-.144.264ZM1.371,117.336v-4.049H5.42v4.049Zm9.141-4.108a14.158,14.158,0,0,1-3.348,2.5,2.014,2.014,0,0,1,.42.648c.552-.36.684-.468,1.2-.852v3.048a10.292,10.292,0,0,1-.072,1.308h.78v-.732h2.7v.54h.756A9.966,9.966,0,0,1,12.9,118.5v-2.784a10.477,10.477,0,0,1,.036-1.26,7.667,7.667,0,0,1-1.092.048H10.068a16.246,16.246,0,0,0,1.368-1.272h1.08a10.338,10.338,0,0,1,1.152.048v-.756a8.368,8.368,0,0,1-1.26.06h-.384a12.632,12.632,0,0,0,1.548-2.256,2.541,2.541,0,0,1,.288-.42l-.744-.432a4.073,4.073,0,0,1-.336.792,11.505,11.505,0,0,1-1.644,2.316h-.372v-1.524h.42a7.749,7.749,0,0,1,.936.048v-.768a4.257,4.257,0,0,1-.984.072h-.372v-.4a6.068,6.068,0,0,1,.06-1.056H9.96a6.32,6.32,0,0,1,.072,1.056v.4H9.144a5.087,5.087,0,0,1-1.092-.072v.78a6.9,6.9,0,0,1,1.092-.06h.888v1.524H8.8a6.493,6.493,0,0,1-1.224-.072v.792a6.492,6.492,0,0,1,1.224-.072Zm-1.02,1.9h2.7v1.308h-2.7Zm0,1.932h2.7v1.452h-2.7Zm8.34-7.728a5.593,5.593,0,0,1-.924.048H15.024c-.456,0-.672-.012-.984-.036.036.408.048.7.048,1.092v7.848a11.63,11.63,0,0,1-.072,1.644h.912a12.55,12.55,0,0,1-.084-1.632v-8.256h2.388a17.861,17.861,0,0,1-1.6,3.336,5.23,5.23,0,0,1,1.176,1.32,3.861,3.861,0,0,1,.564,1.932c0,.732-.228.972-.888.972a6.578,6.578,0,0,1-1.152-.1,2.532,2.532,0,0,1,.168.816c.336.024.624.036.816.036a2.5,2.5,0,0,0,1.2-.2,1.488,1.488,0,0,0,.66-1.416,4.182,4.182,0,0,0-.468-1.86,5.229,5.229,0,0,0-1.212-1.608c.528-.948.876-1.608,1.212-2.364.4-.912.4-.912.48-1.068Zm11.388,2.16v7.068c0,.276-.084.312-.648.312a8.746,8.746,0,0,1-1.644-.156,2.777,2.777,0,0,1,.192.828c.492.036.972.06,1.368.06,1.272,0,1.524-.144,1.524-.9v-6.936a8.557,8.557,0,0,1,.048-1.056,9.522,9.522,0,0,1-1.212.06h-3.3c.012-.288.024-.456.036-1a3.438,3.438,0,0,1,.084-.864h-.936a4.059,4.059,0,0,1,.084.864c0,.444,0,.588-.024,1h-3.18a9.366,9.366,0,0,1-1.188-.06,8.987,8.987,0,0,1,.048,1.08v6.7a8.369,8.369,0,0,1-.084,1.332h.936a8.778,8.778,0,0,1-.06-1.332v-7H24.72a5.638,5.638,0,0,1-1.176,3.12,6.226,6.226,0,0,1-2.076,1.608,2.277,2.277,0,0,1,.54.612,6.819,6.819,0,0,0,2.5-2.244,5.577,5.577,0,0,0,.672-1.512,8.159,8.159,0,0,0,3.3,3.648,2.6,2.6,0,0,1,.528-.7,8.052,8.052,0,0,1-2.376-1.9A7.214,7.214,0,0,1,25.416,112c.036-.2.048-.288.072-.516Zm2.916,5.688a11.976,11.976,0,0,1,2.364,2.616l.672-.636a12.227,12.227,0,0,0-2.412-2.544Zm21.624-6.228a12.346,12.346,0,0,1,1.236.06v-.768a8.5,8.5,0,0,1-1.248.072H51.78a5.915,5.915,0,0,0,.072-.7,3.587,3.587,0,0,1,.06-.564l-.828-.012a2.884,2.884,0,0,1,.036.444,3.707,3.707,0,0,1-.084.828H49.38a7.178,7.178,0,0,1-1.1-.072v.768a6.538,6.538,0,0,1,1.092-.06h1.488a2.814,2.814,0,0,1-1.14,1.272,6.139,6.139,0,0,1-1.512.612,1.866,1.866,0,0,1,.42.612,4.33,4.33,0,0,0,2.844-2.2,5.6,5.6,0,0,0,3.3,2.208,2.649,2.649,0,0,1,.408-.684,4.766,4.766,0,0,1-3.144-1.824ZM46.032,112.1h-.444a4.555,4.555,0,0,1-1.008-.072v.816a4.75,4.75,0,0,1,1.008-.072h.444v4.092a9.556,9.556,0,0,1-1.608.5l.216.8c.132-.06.216-.1.42-.18a21.99,21.99,0,0,0,3.108-1.38l-.048-.756c-.612.336-.84.456-1.344.684v-3.768h.276a7.287,7.287,0,0,1,.96.048v-.792a3.8,3.8,0,0,1-.96.072h-.276v-1.824a6.283,6.283,0,0,1,.072-1.128H45.96a7.805,7.805,0,0,1,.072,1.14Zm7.524,2.184v4.524c0,.24-.084.288-.516.288a12.954,12.954,0,0,1-1.4-.084,2.693,2.693,0,0,1,.192.756c.48.012.84.024,1.212.024a2.123,2.123,0,0,0,.924-.12c.228-.12.324-.348.324-.744v-4.644h.1a5.35,5.35,0,0,1,1.032.072v-.816a5.7,5.7,0,0,1-1.044.072H48.816a6.087,6.087,0,0,1-1.1-.072v.816a7.473,7.473,0,0,1,1.2-.072Zm-1.188,1.86c0-.444.012-.72.036-.972a9.059,9.059,0,0,1-.948.036H49.68a9.167,9.167,0,0,1-.96-.036c.024.348.036.552.036.96V117.8a7.416,7.416,0,0,1-.048,1h.756v-.828H51.48c.384,0,.672.012.924.036a9.6,9.6,0,0,1-.036-.972Zm-2.9-.312h2.208v1.5H49.464Zm12.276-5.268v3.048H59.5a7.963,7.963,0,0,1-1.284-.072v.852a12.163,12.163,0,0,1,1.284-.048H61.74v4.02H58.464a10.446,10.446,0,0,1-1.392-.072v.912a9.1,9.1,0,0,1,1.392-.084h7.8a7.951,7.951,0,0,1,1.308.084v-.912a7.808,7.808,0,0,1-1.284.072H62.556v-4.02h2.628a11.889,11.889,0,0,1,1.236.048v-.852a6.86,6.86,0,0,1-1.248.072H62.556v-3.048h3.2a11.222,11.222,0,0,1,1.392.072v-.9a8.563,8.563,0,0,1-1.4.084H58.86a7.741,7.741,0,0,1-1.356-.084v.9a10.217,10.217,0,0,1,1.356-.072Zm2.028,4.836a15.145,15.145,0,0,1,1.908,2.388l.636-.5a17.725,17.725,0,0,0-1.932-2.328Zm5.448,1.776a11.976,11.976,0,0,1,2.364,2.616l.672-.636a12.227,12.227,0,0,0-2.412-2.544Zm14.928-2.46a8.647,8.647,0,0,0,1.464,1.356,2.924,2.924,0,0,1,.384-.66,8.725,8.725,0,0,1-1.728-1.452,15.112,15.112,0,0,0,1.344-2.208,1.834,1.834,0,0,1,.168-.336l-.348-.42a4.192,4.192,0,0,1-.684.036h-.6v-1.116a4.9,4.9,0,0,1,.072-.948h-.888a6.032,6.032,0,0,1,.072.936v1.128h-.684a4.666,4.666,0,0,1-.9-.06v.792a5.323,5.323,0,0,1,.936-.06h2.1A9.617,9.617,0,0,1,81.4,115.82a2.39,2.39,0,0,1,.42.672,10.106,10.106,0,0,0,1.6-1.488v3.588a9.011,9.011,0,0,1-.072,1.3h.876a10.118,10.118,0,0,1-.072-1.3Zm4.488-3.852H87.276a8.886,8.886,0,0,1-1.176-.048,8.557,8.557,0,0,1,.048,1.056v4.068a8.95,8.95,0,0,1-.048,1.092h.768v-.78h1.764v2.3a10.8,10.8,0,0,1-.072,1.344h.864a10.418,10.418,0,0,1-.072-1.368v-2.28h1.932v.708h.78a8.825,8.825,0,0,1-.048-1.092v-4a7.619,7.619,0,0,1,.048-1.056,9,9,0,0,1-1.176.048H89.352v-.612a10.051,10.051,0,0,1,.072-1.284H88.56a9.47,9.47,0,0,1,.072,1.272Zm0,.672v1.644H86.868v-1.644Zm0,2.292v1.764H86.868v-1.764Zm.72,1.764v-1.764H91.3v1.764Zm0-2.412v-1.644H91.3v1.644Zm9.84-2.868c.156-.288.24-.492.372-.78a4.059,4.059,0,0,1,.228-.492l-.9-.144a4.548,4.548,0,0,1-.528,1.416H95.508a8.969,8.969,0,0,1-1.344-.072v.816A12.126,12.126,0,0,1,95.5,111h2.46a6.8,6.8,0,0,1-1.5,1.56,10.274,10.274,0,0,1-2.628,1.488,2.17,2.17,0,0,1,.5.648,12.691,12.691,0,0,0,3.012-1.956A7.556,7.556,0,0,0,98.8,111h1.224a8.654,8.654,0,0,0,1.728,1.98A10.183,10.183,0,0,0,104.6,114.7a3.715,3.715,0,0,1,.456-.72A8.021,8.021,0,0,1,100.848,111h2.412a12.2,12.2,0,0,1,1.32.06v-.816a9.267,9.267,0,0,1-1.356.072Zm-.072,5.508v2.88c0,.264-.108.336-.492.336a8.353,8.353,0,0,1-1.248-.108,2.308,2.308,0,0,1,.216.792c.384.012.72.024.984.024,1.068,0,1.32-.168,1.32-.888V115.82h3.108a8.707,8.707,0,0,1,1.2.072v-.828a7.381,7.381,0,0,1-1.164.072H95.808a7.445,7.445,0,0,1-1.176-.072v.828a8.707,8.707,0,0,1,1.2-.072Zm-2.148-1.932a5.431,5.431,0,0,1,.972-.06h2.88a5.192,5.192,0,0,1,.972.06V113.1a5.192,5.192,0,0,1-.972.06h-2.88a5.271,5.271,0,0,1-.972-.06Zm-.276,2.364a6.763,6.763,0,0,1-2.52,2.64,2.2,2.2,0,0,1,.612.588,9.087,9.087,0,0,0,2.592-2.856Zm4.668.372a9.672,9.672,0,0,0,2.724,2.844,3.547,3.547,0,0,1,.576-.66,7.029,7.029,0,0,1-2.652-2.532Zm7.212-6.336a5.021,5.021,0,0,1,.072-1.092h-.96a6.79,6.79,0,0,1,.072,1.068v2.364c0,3.456-.408,5.064-1.656,6.444a2.666,2.666,0,0,1,.684.636c1.344-1.74,1.788-3.48,1.788-7.044Zm2.88-.6a6.49,6.49,0,0,1,.072,1.128v6.348a9.5,9.5,0,0,1-.072,1.356h.96a9.382,9.382,0,0,1-.072-1.356v-6.348a7.632,7.632,0,0,1,.072-1.128Zm3.876-.456a6.017,6.017,0,0,1,.072,1.164v7.812a11.052,11.052,0,0,1-.072,1.5h.96a9.355,9.355,0,0,1-.072-1.5V110.4a5.944,5.944,0,0,1,.072-1.164Zm13.054,1.968H127.2v1.188h1.188Zm0,6.48v-1.188H127.2v1.188Zm20.746-3.876a10.437,10.437,0,0,1-1.584.084h-7.392a10.938,10.938,0,0,1-1.6-.084v1a11.267,11.267,0,0,1,1.6-.084h7.392a10.753,10.753,0,0,1,1.584.084Zm7.956-1.92h-1.836a6.371,6.371,0,0,1-1.272-.084v.8a8.24,8.24,0,0,1,1.26-.072h1.848v1.152h-1.6a6.426,6.426,0,0,1-1.116-.06v.744a8.2,8.2,0,0,1,1.1-.048h1.608v1.128h-1.752a5.818,5.818,0,0,1-1.14-.072v.78a7.36,7.36,0,0,1,1.14-.072h1.752v1.224h-2.172a6.938,6.938,0,0,1-1.248-.072v.8a9.2,9.2,0,0,1,1.308-.072h2.112v.5a10.68,10.68,0,0,1-.072,1.464h.864a11.139,11.139,0,0,1-.06-1.476v-.492H160.3a12.455,12.455,0,0,1,1.332.048v-.78a7.087,7.087,0,0,1-1.26.072H157.82v-1.224h1.932a10.632,10.632,0,0,1,1.188.048v-.756a6.459,6.459,0,0,1-1.176.072H157.82V114.32h1.86c.5,0,.768.012,1.056.024a5.3,5.3,0,0,1-.024-.756v-1.056h.084a7.326,7.326,0,0,1,.948.048v-.768a4.414,4.414,0,0,1-.948.072h-.084v-.924a7.4,7.4,0,0,1,.024-.828,10.192,10.192,0,0,1-1.068.036H157.82V110.1a6.184,6.184,0,0,1,.06-1.1h-.864a6.025,6.025,0,0,1,.072,1.092v.084h-1.6a6.452,6.452,0,0,1-1.092-.06v.744a8.524,8.524,0,0,1,1.068-.048h1.62Zm.732,0V110.8H160v1.08Zm0,.648H160v1.152H157.82Zm-4.644-3.576a3.343,3.343,0,0,1-.3.5,7.929,7.929,0,0,1-2.232,2.124,2.2,2.2,0,0,1,.516.66,11.461,11.461,0,0,0,2.316-2.34c.24-.324.288-.372.4-.5Zm-.2,4.728c.2-.324.372-.576.468-.756a7.036,7.036,0,0,1,.42-.708l-.7-.432a4.318,4.318,0,0,1-.456.948,8.792,8.792,0,0,1-2.148,2.568,2.429,2.429,0,0,1,.432.708,9.1,9.1,0,0,0,1.272-1.5c-.036.72-.036.876-.036,1.428v2.532a11.382,11.382,0,0,1-.072,1.476h.888a11.593,11.593,0,0,1-.072-1.488ZM162.947,119a4.894,4.894,0,0,1,.448-1.887,3.629,3.629,0,0,1,1.521-1.459l1.125-.65a5.3,5.3,0,0,0,1.061-.75,1.637,1.637,0,0,0,.041-2.276,1.6,1.6,0,0,0-1.172-.431,1.531,1.531,0,0,0-1.5.82,2.937,2.937,0,0,0-.246,1.219h-1.072a3.766,3.766,0,0,1,.4-1.787,2.537,2.537,0,0,1,2.42-1.219,2.49,2.49,0,0,1,2.771,2.514,2.358,2.358,0,0,1-.709,1.723,6.941,6.941,0,0,1-1.471,1.008l-.8.445a5.2,5.2,0,0,0-.9.6,2.2,2.2,0,0,0-.738,1.131h4.582v1Zm7.034,0a4.894,4.894,0,0,1,.448-1.887,3.629,3.629,0,0,1,1.521-1.459l1.125-.65a5.3,5.3,0,0,0,1.061-.75,1.637,1.637,0,0,0,.041-2.276,1.6,1.6,0,0,0-1.172-.431,1.531,1.531,0,0,0-1.5.82,2.937,2.937,0,0,0-.246,1.219h-1.072a3.766,3.766,0,0,1,.4-1.787,2.537,2.537,0,0,1,2.42-1.219,2.49,2.49,0,0,1,2.771,2.514,2.358,2.358,0,0,1-.709,1.723,6.941,6.941,0,0,1-1.471,1.008l-.8.445a5.2,5.2,0,0,0-.9.6,2.2,2.2,0,0,0-.738,1.131h4.582v1Zm9.9-8.391a2.479,2.479,0,0,1,2.355,1.342,6,6,0,0,1,.563,2.842,6.843,6.843,0,0,1-.51,2.83,2.5,2.5,0,0,1-2.414,1.605,2.417,2.417,0,0,1-2.25-1.312,6.01,6.01,0,0,1-.615-2.941,7.267,7.267,0,0,1,.369-2.455A2.526,2.526,0,0,1,179.886,110.609Zm-.012,7.658a1.5,1.5,0,0,0,1.307-.727,5.26,5.26,0,0,0,.486-2.707,6.688,6.688,0,0,0-.352-2.353,1.338,1.338,0,0,0-1.365-.923,1.427,1.427,0,0,0-1.362.876,6.049,6.049,0,0,0-.431,2.581,6.338,6.338,0,0,0,.275,2.063A1.5,1.5,0,0,0,179.874,118.268Zm7.046-7.658a2.479,2.479,0,0,1,2.355,1.342,6,6,0,0,1,.563,2.842,6.843,6.843,0,0,1-.51,2.83,2.5,2.5,0,0,1-2.414,1.605,2.417,2.417,0,0,1-2.25-1.312,6.01,6.01,0,0,1-.615-2.941,7.267,7.267,0,0,1,.369-2.455A2.526,2.526,0,0,1,186.919,110.609Zm-.012,7.658a1.5,1.5,0,0,0,1.307-.727,5.26,5.26,0,0,0,.486-2.707,6.688,6.688,0,0,0-.352-2.353,1.338,1.338,0,0,0-1.365-.923,1.427,1.427,0,0,0-1.362.876,6.049,6.049,0,0,0-.431,2.581,6.338,6.338,0,0,0,.275,2.063A1.5,1.5,0,0,0,186.908,118.268Zm5.9-3.432h7.824v3.732c0,.228-.108.276-.636.276a17.457,17.457,0,0,1-1.9-.144,2.969,2.969,0,0,1,.192.78c.576.048,1.236.072,1.716.072,1.164,0,1.428-.168,1.428-.888v-7.872a9.3,9.3,0,0,1,.048-1.1,8.673,8.673,0,0,1-1.1.048h-7.32a9.168,9.168,0,0,1-1.1-.048,9.028,9.028,0,0,1,.048,1.068v7.716a8.527,8.527,0,0,1-.072,1.308h.936a7.07,7.07,0,0,1-.06-1.272Zm3.42-.72h-3.42v-3.648h3.42Zm.78,0v-3.648h3.624v3.648ZM1.371,138.936v-4.049H5.42v4.049Zm8.493-6.424c.24-.024.288-.024.744-.048a29.08,29.08,0,0,0,3.756-.288,3.969,3.969,0,0,0-.4.336,25.446,25.446,0,0,1-3.984,3.1,15.879,15.879,0,0,1-2.1.24H7.8l.1.912a30.807,30.807,0,0,1,3.54-.54c.684-.084,1.752-.228,1.956-.252.492-.084.492-.084.66-.108-1.728.756-2.616,1.7-2.616,2.772a1.954,1.954,0,0,0,.708,1.512,4.923,4.923,0,0,0,3.024.78c.612.012.612.012.816.024l-.036-.924a4.3,4.3,0,0,1-.816.072c-1.824,0-2.856-.564-2.856-1.548a1.516,1.516,0,0,1,.384-1,4.243,4.243,0,0,1,1.5-1.14,7.971,7.971,0,0,1,3.3-.648h.264l-.084-.84a1.623,1.623,0,0,1-.348.048c-.24.024-.6.06-1.092.1-.912.084-1.644.156-2.136.192a27.814,27.814,0,0,0-2.88.324,23.322,23.322,0,0,0,3.936-3.06,3.9,3.9,0,0,1,.588-.5l-.5-.636a2.341,2.341,0,0,1-.672.144c-.852.1-2.58.168-3.66.168a9.38,9.38,0,0,1-1.08-.048Zm16.008.132a3.453,3.453,0,0,1,1.392.3,3.163,3.163,0,0,1,1.908,3.012,3.622,3.622,0,0,1-2.124,3.36,7.193,7.193,0,0,1-2,.564,1.907,1.907,0,0,1,.42.8,9.283,9.283,0,0,0,1.824-.552,4.369,4.369,0,0,0,2.748-4.14,4.017,4.017,0,0,0-1.164-2.928,4.645,4.645,0,0,0-3.3-1.188,4.873,4.873,0,0,0-5.136,4.908c0,1.68.852,2.928,1.992,2.928.864,0,1.572-.72,2.268-2.3A17.988,17.988,0,0,0,25.872,132.644Zm-.864.012a16.482,16.482,0,0,1-1.092,4.44c-.516,1.176-1,1.74-1.5,1.74-.648,0-1.152-.888-1.152-2.04a4.15,4.15,0,0,1,1.956-3.576A3.79,3.79,0,0,1,25.008,132.656Zm13.752,2v3.12a7.813,7.813,0,0,1-.072,1.164h.876a7.866,7.866,0,0,1-.072-1.152v-3.384l2.064-.732c-.024,1.056-.072,2-.144,2.676-.1.948-.132,1.032-.528,1.032a4.753,4.753,0,0,1-.96-.132,3.175,3.175,0,0,1,.2.768,7.638,7.638,0,0,0,.864.048c.768,0,.972-.228,1.092-1.236.084-.708.192-2.592.216-3.636,0-.156.012-.348.024-.528a6.73,6.73,0,0,1-.948.384l-1.884.648v-1.908a7.573,7.573,0,0,1,.072-1.116h-.876a7.806,7.806,0,0,1,.072,1.116v2.16l-1.752.612v-1.44a8.054,8.054,0,0,1,.072-1.188h-.9a8.714,8.714,0,0,1,.072,1.224v1.656l-.336.12a5.982,5.982,0,0,1-1.044.252l.168.828a6.557,6.557,0,0,1,1-.4l.216-.072v4.368a.886.886,0,0,0,.192.66,1.57,1.57,0,0,0,.984.36,16.8,16.8,0,0,0,1.74.072c1.848,0,2.64-.1,3.024-.36.324-.228.516-.768.708-1.98a2.5,2.5,0,0,1-.78-.3c-.084,1.056-.24,1.56-.516,1.716a6.256,6.256,0,0,1-2.388.216,9.177,9.177,0,0,1-1.764-.1c-.36-.072-.444-.168-.444-.468v-4.452Zm-5.22,5.4a12.017,12.017,0,0,1-.072,1.452h.9c-.036-.408-.06-.864-.06-1.428v-6.456a12.767,12.767,0,0,0,.924-2.136c.144-.408.18-.516.252-.684l-.84-.264a7.675,7.675,0,0,1-.5,1.7,10.84,10.84,0,0,1-2.316,3.576,3.7,3.7,0,0,1,.5.648,9.938,9.938,0,0,0,1.26-1.8c-.036.612-.048,1.008-.048,1.44Zm17.052-7.416a3.453,3.453,0,0,1,1.392.3,3.163,3.163,0,0,1,1.908,3.012,3.622,3.622,0,0,1-2.124,3.36,7.193,7.193,0,0,1-2,.564,1.907,1.907,0,0,1,.42.8,9.283,9.283,0,0,0,1.824-.552,4.369,4.369,0,0,0,2.748-4.14,4.017,4.017,0,0,0-1.164-2.928,4.645,4.645,0,0,0-3.3-1.188,4.873,4.873,0,0,0-5.136,4.908c0,1.68.852,2.928,1.992,2.928.864,0,1.572-.72,2.268-2.3A17.988,17.988,0,0,0,50.592,132.644Zm-.864.012a16.482,16.482,0,0,1-1.092,4.44c-.516,1.176-1,1.74-1.5,1.74-.648,0-1.152-.888-1.152-2.04a4.15,4.15,0,0,1,1.956-3.576A3.79,3.79,0,0,1,49.728,132.656Zm12.36,2.712,1.716-.576v3.048A7.814,7.814,0,0,1,63.732,139h.888a7.866,7.866,0,0,1-.072-1.152V134.54l1.992-.684a24.186,24.186,0,0,1-.192,3.036c-.06.348-.12.408-.4.408a4.291,4.291,0,0,1-.924-.108,2.794,2.794,0,0,1,.18.756c.276.024.42.036.528.036a1.641,1.641,0,0,0,.864-.168c.312-.18.468-.684.552-1.752.1-1.176.144-2.016.192-3.216a8.67,8.67,0,0,1-.948.372l-1.848.612v-1.968a7.984,7.984,0,0,1,.072-1.128h-.888a7.573,7.573,0,0,1,.072,1.116v2.22l-1.716.576v-1.68a8.522,8.522,0,0,1,.072-1.188h-.9A8.713,8.713,0,0,1,61.332,133v1.884l-.432.144a4.625,4.625,0,0,1-1.044.24l.216.816a6.614,6.614,0,0,1,1-.384l.264-.084v4.4c0,.936.492,1.116,2.976,1.116,3.12,0,3.336-.144,3.48-2.364a2.2,2.2,0,0,1-.768-.312,3.5,3.5,0,0,1-.252,1.62c-.192.276-.7.348-2.388.348a8.723,8.723,0,0,1-1.932-.108c-.288-.072-.36-.168-.36-.456Zm-3.672-1.476h-.444a4.428,4.428,0,0,1-1.008-.072v.816a4.555,4.555,0,0,1,1.008-.072h.444v4.1a6.759,6.759,0,0,1-1.608.54l.2.828c.132-.06.312-.144.48-.2a23.165,23.165,0,0,0,3.1-1.464l-.072-.732c-.624.348-.84.456-1.356.7v-3.768h.324a7.486,7.486,0,0,1,.972.048v-.78a4.535,4.535,0,0,1-.96.06H59.16V132.1a10.019,10.019,0,0,1,.072-1.344h-.888a9.822,9.822,0,0,1,.072,1.332Zm18.312-.576a19.884,19.884,0,0,0,.672,4.8,8.057,8.057,0,0,1-3.06,2.676,2.035,2.035,0,0,1,.588.564,9.228,9.228,0,0,0,2.712-2.424c.492,1.428,1.188,2.376,1.752,2.376.2,0,.4-.144.552-.432a4.923,4.923,0,0,0,.384-1.7,2.166,2.166,0,0,1-.636-.456,2.855,2.855,0,0,1-.348,1.656,4.417,4.417,0,0,1-1.176-2.22,13.635,13.635,0,0,0,1.212-2.6c.108-.324.144-.408.264-.7l-.78-.264a8.791,8.791,0,0,1-.936,2.64,20.8,20.8,0,0,1-.468-3.912h1.176c.468,0,.936.024,1.272.06v-.816a8.28,8.28,0,0,1-1.248.072H77.436v-.756a6.484,6.484,0,0,1,.072-1.236H76.62a13.6,13.6,0,0,1,.1,1.992H73.788a8.6,8.6,0,0,1-1.284-.072v.816a12.566,12.566,0,0,1,1.272-.06Zm-6.1.588h-.324a6.639,6.639,0,0,1-1.032-.06v.792a8.6,8.6,0,0,1,1.008-.06h.348v3.9a9.623,9.623,0,0,1-1.536.6l.24.816a2.436,2.436,0,0,1,.4-.2,31.266,31.266,0,0,0,2.976-1.536l-.06-.756a11.388,11.388,0,0,1-1.284.732v-3.552h.228a7.417,7.417,0,0,1,1,.048v-.768a7.414,7.414,0,0,1-1,.048h-.228v-1.836a8.285,8.285,0,0,1,.072-1.32H70.56a9.874,9.874,0,0,1,.072,1.32Zm2.436,3.012a6.632,6.632,0,0,1-.036.732,6.078,6.078,0,0,1,.792-.036h1.392c.336,0,.6.012.852.036a5.17,5.17,0,0,1-.024-.708v-2a4.184,4.184,0,0,1,.024-.612,7.582,7.582,0,0,1-.8.036H73.848a6.259,6.259,0,0,1-.816-.036c.012.2.036.48.036.744Zm.684-1.932h1.62v2h-1.62Zm2.6,3.156a20.627,20.627,0,0,1-4.224.972l.192.816c.156-.048.48-.132.744-.2,1.488-.36,2.232-.564,3.3-.912Zm3.36-6.24a7.969,7.969,0,0,0-1.416-1.116l-.468.408a5.682,5.682,0,0,1,1.392,1.2Zm11.59.9H90.118v1.188h1.188Zm0,6.48v-1.188H90.118v1.188Zm9.841,1.32a4.894,4.894,0,0,1,.448-1.887,3.629,3.629,0,0,1,1.521-1.459l1.125-.65a5.3,5.3,0,0,0,1.061-.75,1.637,1.637,0,0,0,.041-2.276,1.6,1.6,0,0,0-1.172-.431,1.531,1.531,0,0,0-1.5.82,2.937,2.937,0,0,0-.246,1.219h-1.072a3.766,3.766,0,0,1,.4-1.787,2.537,2.537,0,0,1,2.42-1.219,2.49,2.49,0,0,1,2.771,2.514,2.358,2.358,0,0,1-.709,1.723,6.941,6.941,0,0,1-1.471,1.008l-.8.445a5.2,5.2,0,0,0-.9.6,2.2,2.2,0,0,0-.738,1.131h4.582v1Zm7.034,0a4.894,4.894,0,0,1,.448-1.887,3.629,3.629,0,0,1,1.521-1.459l1.125-.65a5.3,5.3,0,0,0,1.061-.75,1.637,1.637,0,0,0,.041-2.276,1.6,1.6,0,0,0-1.172-.431,1.531,1.531,0,0,0-1.5.82,2.937,2.937,0,0,0-.246,1.219h-1.072a3.766,3.766,0,0,1,.4-1.787,2.537,2.537,0,0,1,2.42-1.219,2.49,2.49,0,0,1,2.771,2.514,2.358,2.358,0,0,1-.709,1.723,6.941,6.941,0,0,1-1.471,1.008l-.8.445a5.2,5.2,0,0,0-.9.6,2.2,2.2,0,0,0-.738,1.131h4.582v1Zm9.9-8.391a2.479,2.479,0,0,1,2.355,1.342,6,6,0,0,1,.563,2.842,6.843,6.843,0,0,1-.51,2.83,2.5,2.5,0,0,1-2.414,1.605,2.417,2.417,0,0,1-2.25-1.312,6.01,6.01,0,0,1-.615-2.941,7.267,7.267,0,0,1,.369-2.455A2.526,2.526,0,0,1,118.086,132.209Zm-.012,7.658a1.5,1.5,0,0,0,1.307-.727,5.26,5.26,0,0,0,.486-2.707,6.688,6.688,0,0,0-.352-2.353,1.338,1.338,0,0,0-1.365-.923,1.427,1.427,0,0,0-1.362.876,6.049,6.049,0,0,0-.431,2.581,6.338,6.338,0,0,0,.275,2.063A1.5,1.5,0,0,0,118.074,139.868Zm7.046-7.658a2.479,2.479,0,0,1,2.355,1.342,6,6,0,0,1,.562,2.842,6.843,6.843,0,0,1-.51,2.83,2.5,2.5,0,0,1-2.414,1.605,2.417,2.417,0,0,1-2.25-1.312,6.01,6.01,0,0,1-.615-2.941,7.267,7.267,0,0,1,.369-2.455A2.526,2.526,0,0,1,125.119,132.209Zm-.012,7.658a1.5,1.5,0,0,0,1.307-.727,5.26,5.26,0,0,0,.486-2.707,6.688,6.688,0,0,0-.352-2.353,1.338,1.338,0,0,0-1.365-.923,1.427,1.427,0,0,0-1.362.876,6.049,6.049,0,0,0-.431,2.581,6.338,6.338,0,0,0,.275,2.063A1.5,1.5,0,0,0,125.108,139.868Zm5.9-3.432h7.824v3.732c0,.228-.108.276-.636.276a17.455,17.455,0,0,1-1.9-.144,2.969,2.969,0,0,1,.192.78c.576.048,1.236.072,1.716.072,1.164,0,1.428-.168,1.428-.888v-7.872a9.3,9.3,0,0,1,.048-1.1,8.674,8.674,0,0,1-1.1.048h-7.32a9.17,9.17,0,0,1-1.1-.048,9.027,9.027,0,0,1,.048,1.068v7.716a8.527,8.527,0,0,1-.072,1.308h.936a7.07,7.07,0,0,1-.06-1.272Zm3.42-.72h-3.42v-3.648h3.42Zm.78,0v-3.648h3.624v3.648Zm10.224-3.192a16.791,16.791,0,0,1-2.568-.132l-.012.828a2.129,2.129,0,0,1,.264-.012h.192c.444.012,1.572.036,1.764.036a1.328,1.328,0,0,0,.228-.024l-.108.18a11.941,11.941,0,0,1-2.688,3.432l.672.672a3.971,3.971,0,0,1,.924-1,4.508,4.508,0,0,1,2.676-1.272c.564,0,.852.288.948.948a9.316,9.316,0,0,0-1.788.96,2.481,2.481,0,0,0-1.224,1.9c0,1.236,1.044,1.848,3.192,1.848a18.618,18.618,0,0,0,2.916-.24,4.717,4.717,0,0,1,.48-.06l-.108-.924a10.054,10.054,0,0,1-3.2.468c-1.692,0-2.436-.348-2.436-1.14,0-.72.624-1.284,2.256-2.052a3.151,3.151,0,0,1,.012.36,17.253,17.253,0,0,1-.072,1.728l.816-.012a2.608,2.608,0,0,1-.024-.432c0-.108,0-.276.012-.54.012-.24.012-.5.012-.66,0-.3,0-.42-.024-.732a19.924,19.924,0,0,1,3.2-1.056l-.384-.84a2.64,2.64,0,0,1-.816.348c-.528.192-1.212.444-2.088.792a1.456,1.456,0,0,0-1.584-1.332,3.193,3.193,0,0,0-1.812.588c-.12.084-.12.084-.552.42a.092.092,0,0,1-.024-.036v-.012a.012.012,0,0,0,.012-.012c.012-.012.072-.06.156-.12.048-.036.288-.312.408-.456a8.849,8.849,0,0,0,1.08-1.7,38.748,38.748,0,0,0,3.96-.312,3.74,3.74,0,0,1,.48-.06l-.072-.816a16.889,16.889,0,0,1-3.78.456,2.041,2.041,0,0,0-.252.012c.06-.108.216-.432.372-.816a2.548,2.548,0,0,1,.312-.648l-.96-.168a5.093,5.093,0,0,1-.576,1.644Zm11.328,6.936a4.586,4.586,0,0,1-1.08-1.416c.072-.6.1-.852.132-1.524a3.051,3.051,0,0,1,.024-.372l-.78-.072a3.534,3.534,0,0,1,.036.528,9.61,9.61,0,0,1-.3,2.436A6.1,6.1,0,0,1,154,141a2.212,2.212,0,0,1,.636.432,9.3,9.3,0,0,0,.912-2.544,4.217,4.217,0,0,0,1.644,1.692c.936.516,1.98.66,4.9.66,1.044,0,1.656-.012,2.892-.06a2.221,2.221,0,0,1,.264-.828,31.124,31.124,0,0,1-3.7.168c-2.436,0-3.276-.108-4.08-.552v-2.352h.768a5.506,5.506,0,0,1,.984.072v-.768a5.766,5.766,0,0,1-.972.06h-.78V135.26h.708a5.612,5.612,0,0,1,1.128.072v-.8a6.24,6.24,0,0,1-1.116.072h-.768v-1.608h.648a6.756,6.756,0,0,1,1.068.06v-.768a5.571,5.571,0,0,1-1.068.06h-.648v-.492a5.669,5.669,0,0,1,.084-1.176h-.876a5.792,5.792,0,0,1,.072,1.176v.492h-.96a5.5,5.5,0,0,1-1.056-.06v.768a6.779,6.779,0,0,1,1.056-.06h.96V134.6h-1.116a6.844,6.844,0,0,1-1.176-.072v.8a6.877,6.877,0,0,1,1.164-.072h1.188Zm4.44-7.5a3.038,3.038,0,0,1-1.9,3.072,1.788,1.788,0,0,1,.492.6,3.806,3.806,0,0,0,1.812-1.968,5.587,5.587,0,0,0,.324-1.7H163.8a9.65,9.65,0,0,1-.228,2.376c-.1.144-.228.192-.612.192a8.1,8.1,0,0,1-1.008-.084,1.988,1.988,0,0,1,.168.756c.336.012.492.024.7.024.768,0,1.044-.072,1.272-.348.264-.3.336-.732.42-2.4.06-1.032.06-1.032.084-1.236a8.215,8.215,0,0,1-1.14.06h-2.748a7.374,7.374,0,0,1-1.2-.072v.8a5.086,5.086,0,0,1,1.092-.072Zm-1.392,6.492a8.39,8.39,0,0,1-.048,1.128,9.061,9.061,0,0,1,1.272-.06h2.2a9.682,9.682,0,0,1,1.284.06,8.52,8.52,0,0,1-.048-1.188v-1.308a8.329,8.329,0,0,1,.048-1.164,9.231,9.231,0,0,1-1.3.06h-2.256a7.867,7.867,0,0,1-1.2-.06,7.169,7.169,0,0,1,.048,1.068Zm.72-1.824h3.2v2.244h-3.2Zm15.5-4.668a6.374,6.374,0,0,1,.048-.984,7.888,7.888,0,0,1-1.092.048h-3.012a9.479,9.479,0,0,1-1.056-.048,7.11,7.11,0,0,1,.048.984V134.5h-.12a5.782,5.782,0,0,1-.924-.048,6.758,6.758,0,0,1,.048.948v3.18a6.9,6.9,0,0,1-.06,1.092h.84a6.626,6.626,0,0,1-.06-1.092v-3.468h5.532v3.672c0,.156-.108.2-.42.2a7.239,7.239,0,0,1-1.176-.1,3.576,3.576,0,0,1,.168.708c.432.024.624.024.852.024,1.08,0,1.3-.12,1.3-.744V135.4a6.65,6.65,0,0,1,.048-.948,5.824,5.824,0,0,1-.96.048ZM173,134.5h-1.308V131.66h3.648v.888h-1.464a8.284,8.284,0,0,1-.912-.036,7.492,7.492,0,0,1,.036.852Zm.672,0v-1.38h1.668v1.38Zm1.464,2.076a5.242,5.242,0,0,1,.036-.708,6.166,6.166,0,0,1-.852.036h-1.644a6.166,6.166,0,0,1-.852-.036,6.331,6.331,0,0,1,.036.732v1.584a6.332,6.332,0,0,1-.036.732h.7v-.588h1.8a8.423,8.423,0,0,1,.852.036,4.775,4.775,0,0,1-.036-.708Zm-2.616-.108h1.956v1.284h-1.956Zm-5.8-5.124a11.351,11.351,0,0,1,1.824,2.232l.612-.54a14.332,14.332,0,0,0-1.872-2.16Zm-.192,4.848a4.76,4.76,0,0,1,.888-.06h.72v2.892a6.969,6.969,0,0,1-1.872,1.44l.408.78c.24-.2.312-.276.42-.36a12.56,12.56,0,0,0,1.392-1.248,3.021,3.021,0,0,0,1.02,1.008c.744.432,1.452.54,3.384.54,1.548,0,3.06-.024,4.38-.072a2.683,2.683,0,0,1,.276-.864,43.866,43.866,0,0,1-5.28.228,4.168,4.168,0,0,1-2.808-.66,1.684,1.684,0,0,1-.576-.792v-2.352a8.854,8.854,0,0,1,.06-1.272,5.43,5.43,0,0,1-.924.06h-.552a4.773,4.773,0,0,1-.936-.06Zm18.456-3.588c-.816.024-1.752.048-2.9.1-1.932.072-1.932.072-2.28.072-.18,0-.264,0-.48-.012l.036.876c.8-.132,3.228-.252,5.64-.3v.624c0,.144.012.264.012.312,0,.444,0,.492.012.66a1.842,1.842,0,0,0-1.392-.54,2,2,0,0,0-2.124,1.98,2.006,2.006,0,0,0,3.48,1.248,1.681,1.681,0,0,0,.324-.588,3.108,3.108,0,0,1-1.344,2.532,6.15,6.15,0,0,1-1.944.9,2.635,2.635,0,0,1,.528.756,7.632,7.632,0,0,0,1.9-.972,3.862,3.862,0,0,0,1.608-3.132,3.438,3.438,0,0,0-.288-1.416v-2.376c.972-.024,1.1-.024,1.284-.024a21.331,21.331,0,0,1,2.292.06v-.852c-.4.048-1.32.072-3.588.084v-.132a9.934,9.934,0,0,1,.06-1.5h-.9a4.043,4.043,0,0,1,.048.7Zm-.036,3.5a1.345,1.345,0,0,1-1.4,1.416,1.16,1.16,0,0,1-1.236-1.188,1.27,1.27,0,0,1,1.332-1.26,1.535,1.535,0,0,1,.8.192A.869.869,0,0,1,184.947,136.112Zm8.652-3.552a5.911,5.911,0,0,1,.648-.06c1.824-.06,3.264-.144,3.648-.216a.464.464,0,0,1,.108-.012l.024.024-.048.048-.048.048-.168.168c-.828.816-2.724,2.484-4.008,3.5a13.37,13.37,0,0,1-1.68,1.224l.54.768A7.7,7.7,0,0,1,197.667,136c1.62,0,2.58.684,2.58,1.836,0,1.02-.66,1.752-1.92,2.1a3.435,3.435,0,0,0-.552-1.152,2.417,2.417,0,0,0-1.98-.984,1.559,1.559,0,0,0-1.74,1.4c0,1.1.972,1.728,2.664,1.728,2.664,0,4.4-1.236,4.4-3.108,0-1.536-1.284-2.52-3.288-2.52a6.08,6.08,0,0,0-2.94.744l-.024-.036a30.791,30.791,0,0,0,3.948-3.408,2.215,2.215,0,0,1,.612-.5l-.5-.66a1.227,1.227,0,0,1-.576.132c-1.08.084-2.676.156-3.672.156a5.542,5.542,0,0,1-1.128-.072Zm3.936,7.6a4.32,4.32,0,0,1-.876.084,3.066,3.066,0,0,1-1.344-.276.819.819,0,0,1-.48-.732c0-.456.372-.744.972-.744C196.671,138.488,197.271,139.064,197.535,140.156Zm12.384-2.628a6.806,6.806,0,0,1-3.036,2.436,1.743,1.743,0,0,1,.516.564,8.271,8.271,0,0,0,3.3-3h1.188a5.852,5.852,0,0,1-.984,1.572,7.617,7.617,0,0,1-2.352,1.824,2.048,2.048,0,0,1,.552.564,9.743,9.743,0,0,0,.972-.672,12.248,12.248,0,0,0,1.476-1.476,6.948,6.948,0,0,0,1.068-1.812h.8a14.591,14.591,0,0,1-.264,2.3c-.156.72-.24.816-.72.816a8.289,8.289,0,0,1-1.428-.132,2.034,2.034,0,0,1,.24.78c.372.024.768.048,1.044.048.816,0,1.116-.12,1.332-.552a11.974,11.974,0,0,0,.528-3.2,5.443,5.443,0,0,1,.06-.708,9.365,9.365,0,0,1-1.176.048h-3.972a5.874,5.874,0,0,0,.552-.876h3.672a10.228,10.228,0,0,1,1.188.048v-.756a6.816,6.816,0,0,1-1.188.072h-5.124a5.908,5.908,0,0,1-1.1-.072v.78a5.874,5.874,0,0,1,1.08-.072h.732a5.761,5.761,0,0,1-2.784,2.532,2.134,2.134,0,0,1,.492.54,7.694,7.694,0,0,0,2.016-1.6Zm-4.692-3.816h-.492a6.707,6.707,0,0,1-1.044-.06v.792a8.65,8.65,0,0,1,1.02-.06h.516v3.432a5.979,5.979,0,0,1-1.548.588l.228.84c.108-.06.444-.228.636-.312a22.114,22.114,0,0,0,2.5-1.356l-.048-.72a10.374,10.374,0,0,1-1.02.612v-3.084h.288a9.375,9.375,0,0,1,1,.048v-.768a7.08,7.08,0,0,1-1,.048h-.288v-1.656a8.183,8.183,0,0,1,.072-1.332h-.888a9.507,9.507,0,0,1,.072,1.32Zm7.092.912c.468,0,.84.012,1.1.036a7.062,7.062,0,0,1-.048-1.068v-1.5a8.764,8.764,0,0,1,.048-1.116,8.79,8.79,0,0,1-1.248.06h-3.132a7.749,7.749,0,0,1-1.152-.06,8.076,8.076,0,0,1,.048,1.056v1.56a9.247,9.247,0,0,1-.048,1.08,8.46,8.46,0,0,1,1.092-.048Zm-3.672-2.964h4.02v.876h-4.02Zm0,1.464h4.02v.912h-4.02Zm12.288-2.472a8.73,8.73,0,0,1-1.848,2.088,12.516,12.516,0,0,1-3.264,2.088,2.086,2.086,0,0,1,.5.684,13.875,13.875,0,0,0,2.544-1.56,11.181,11.181,0,0,0,2.52-2.628,10.08,10.08,0,0,0,1.848,2.016,16.775,16.775,0,0,0,3.384,2.208,3.106,3.106,0,0,1,.48-.756,12.584,12.584,0,0,1-3.288-1.968,8.244,8.244,0,0,1-1.98-2.172Zm-2.34,4.464a6.9,6.9,0,0,1,.936-.048h3.732a7.385,7.385,0,0,1,1.008.048V134.3a7.164,7.164,0,0,1-1.008.048h-3.72a6.132,6.132,0,0,1-.948-.048Zm-.084,6.264v-.7h5.8v.7h.864a8.339,8.339,0,0,1-.072-1.176v-2.652a7.255,7.255,0,0,1,.06-1.1,6.36,6.36,0,0,1-.936.048H218.6a6.36,6.36,0,0,1-.936-.048,7.546,7.546,0,0,1,.06,1.1V140.2a8.709,8.709,0,0,1-.072,1.176Zm0-4.152h5.8v2.748h-5.8Zm13.68-2.82h.048a.551.551,0,0,1,.12.012,1.788,1.788,0,0,1,.2.012,3.147,3.147,0,0,1,.384.024c.42.024.864.036,1.356.036.456,0,.828-.012,1.368-.036.036,1.752.084,2.88.12,3.132a3.39,3.39,0,0,0-1.332-.24c-1.332,0-2.28.708-2.28,1.7,0,1.044.876,1.7,2.268,1.7a1.758,1.758,0,0,0,2.148-1.824,1.721,1.721,0,0,0-.024-.312.843.843,0,0,1,.108.072.771.771,0,0,0,.12.072,6.485,6.485,0,0,1,1.7,1.248l.372-.84c-.132-.084-.156-.108-.3-.2a8.686,8.686,0,0,0-2-1.176c-.1-1.6-.12-2.208-.132-3.4a11.475,11.475,0,0,0,1.272-.192c.816-.168.816-.168.84-.168l-.036-.816a8.179,8.179,0,0,1-2.076.444c-.012-.264-.012-.456-.012-.588a12.278,12.278,0,0,1,.084-1.884h-.9a2.662,2.662,0,0,1,.036.492c0,.912,0,.912.012,2.04-.492.024-.816.036-1.284.036a8.307,8.307,0,0,1-2.16-.192Zm3.612,3.912s.012.276.012.36a1.4,1.4,0,0,1-.228.936,1.654,1.654,0,0,1-1.224.42c-.84,0-1.392-.384-1.392-.972s.612-1,1.548-1A3.1,3.1,0,0,1,235.8,138.32Zm-5.736-7.14a5.526,5.526,0,0,1-.132.756,20.332,20.332,0,0,0-.624,4.932,19.1,19.1,0,0,0,.336,3.564c.048.276.06.336.072.444l.852-.084a1.307,1.307,0,0,1-.024-.24,10.362,10.362,0,0,1,1.032-3.408l-.588-.276a1.654,1.654,0,0,1-.1.24,10.653,10.653,0,0,0-.708,2.112l-.048-.012v-.228c-.012-.216-.012-.24-.012-.336-.024-.552-.048-1.26-.048-1.68a17.1,17.1,0,0,1,.924-5.628Zm20.184,6.732a7.863,7.863,0,0,1,1.128.072v-.8a6.819,6.819,0,0,1-1.116.072h-4.1a8.971,8.971,0,0,0,.18-1.152h2.424a5.763,5.763,0,0,1,1.032.06V135.4a5.763,5.763,0,0,1-1.032.06h-2.376c.024-.4.036-.684.048-1.068h2.52a6.331,6.331,0,0,1,1.152.072v-.78a7.008,7.008,0,0,1-1.152.072h-2.508a4.32,4.32,0,0,1,.06-.972h-.888a4.376,4.376,0,0,1,.072.972h-2.328a7.109,7.109,0,0,1-1.152-.072v.78a7.424,7.424,0,0,1,1.152-.072h2.316c-.012.468-.012.6-.036,1.068h-2.232a5.914,5.914,0,0,1-1.044-.06v.756a5.832,5.832,0,0,1,1.044-.06h2.172a7.045,7.045,0,0,1-.168,1.152h-3.288a6.657,6.657,0,0,1-1.1-.072v.8a7.927,7.927,0,0,1,1.116-.072h3.048a3.989,3.989,0,0,1-1.764,1.86,7.281,7.281,0,0,1-2.568.864,2.809,2.809,0,0,1,.444.756,8.275,8.275,0,0,0,2.724-1.1,4.629,4.629,0,0,0,1.884-2.244,7.953,7.953,0,0,0,5.172,3.372,3.1,3.1,0,0,1,.456-.78,9.137,9.137,0,0,1-3.324-1.224,5.612,5.612,0,0,1-1.56-1.5Zm-4.584-6.12h-3.3a11.832,11.832,0,0,1-1.212-.048,5.528,5.528,0,0,1,.048.816v.7a5.492,5.492,0,0,1-.048.828h.792v-1.632H250.4v1.632h.78a5.394,5.394,0,0,1-.048-.828v-.708a5.465,5.465,0,0,1,.048-.8,11.733,11.733,0,0,1-1.2.048h-3.528v-.456a3.816,3.816,0,0,1,.072-.744h-.936a3.145,3.145,0,0,1,.084.744Zm14.568,2.064v-.72h1.716c.456,0,.792.012,1.14.036a3.067,3.067,0,0,1-.036-.672v-.408a4.651,4.651,0,0,1,.048-.78,6.66,6.66,0,0,1-1.14.06h-1.728v-.12a3.246,3.246,0,0,1,.06-.708H259.5a3.2,3.2,0,0,1,.06.7v.132h-1.908c.024-.432.036-.708.048-.816h-.78a4.267,4.267,0,0,1,.06.816h-2.112a7.23,7.23,0,0,1-1.188-.06v.7a8.486,8.486,0,0,1,1.188-.06h2.088a5.923,5.923,0,0,1-.06.648h-1.548c-.552,0-.828-.012-1.092-.036a6.751,6.751,0,0,1-.672,1.884c.312-.024.612-.036,1.068-.036h1.536a5.33,5.33,0,0,1-3.144,1.4,1.75,1.75,0,0,1,.384.612,8.761,8.761,0,0,0,1.332-.456v2.664a9.783,9.783,0,0,1-.048,1.212,12.889,12.889,0,0,1,1.332-.048h5.1a13,13,0,0,1,1.344.048,10.118,10.118,0,0,1-.048-1.236v-1.932c0-.432.012-.8.024-1.1.132.012.228.012.312.012a.757.757,0,0,0,.612-.216,2.045,2.045,0,0,0,.276-.972c.048-.3.048-.312.108-.576a8.668,8.668,0,0,1-1.152.036Zm1,1.548h-5.34a3,3,0,0,0,1.092-1h2.58v.12a2.646,2.646,0,0,1-.06.648h.792a2.69,2.69,0,0,1-.06-.66v-.108h2.736c-.084.624-.108.648-.384.648a2.551,2.551,0,0,1-.744-.156,2.825,2.825,0,0,1,.12.5Zm-4.428-2.268a3.38,3.38,0,0,1-.24.72h-1.98c.084-.2.132-.324.264-.72Zm2.76,0v.72h-2.292a2.938,2.938,0,0,0,.216-.72Zm0-1.188v.648h-1.992c.024-.24.024-.252.06-.648Zm.672,0h2.112v.648h-2.112Zm-4.752,4.032h6.228v.708h-6.228Zm0,1.26h6.228v.708h-6.228Zm0,1.26h6.228v.72h-6.228Zm1.248,1.4a9,9,0,0,1-3.456,1.068,2.234,2.234,0,0,1,.432.672,10.526,10.526,0,0,0,3.576-1.3Zm3.12.444a8.376,8.376,0,0,0,1.9.84,10.681,10.681,0,0,0,1.776.444,3.236,3.236,0,0,1,.456-.684,9.711,9.711,0,0,1-1.8-.324,6.787,6.787,0,0,1-1.764-.708Zm9.72-4.692a5.81,5.81,0,0,1-.648,2.472,6.114,6.114,0,0,1-3.024,2.628,2.508,2.508,0,0,1,.528.672,7.042,7.042,0,0,0,3.024-2.616,6.834,6.834,0,0,0,.936-3.156h2.8a17.082,17.082,0,0,1-.4,4.44c-.084.228-.216.3-.6.3a9.245,9.245,0,0,1-1.692-.2,3.327,3.327,0,0,1,.192.852c.756.072,1.176.1,1.572.1.7,0,.984-.12,1.188-.48a15.252,15.252,0,0,0,.54-4.92,5.3,5.3,0,0,1,.048-.852,9.079,9.079,0,0,1-1.26.06h-3.948a9.21,9.21,0,0,1-1.248-.072v.852a9.662,9.662,0,0,1,1.236-.072Zm-.492-4.98a3.86,3.86,0,0,1-.516,1.26,9.888,9.888,0,0,1-3.288,3.516,2.641,2.641,0,0,1,.588.648,11.912,11.912,0,0,0,3.78-4.5,3.274,3.274,0,0,1,.336-.612Zm2.664.336c.06.1.132.228.192.336a12.158,12.158,0,0,0,4.044,4.824,2.96,2.96,0,0,1,.564-.732,10.008,10.008,0,0,1-3.54-3.732,4.86,4.86,0,0,1-.456-1.008Zm7.872,1.116v7.9c0,.216-.108.288-.42.288a7.372,7.372,0,0,1-1.272-.12,3.012,3.012,0,0,1,.168.792c.48.036.828.048,1.14.048.864,0,1.14-.24,1.14-.984v-7.92h.42a7.3,7.3,0,0,1,1,.048v-.792a7.3,7.3,0,0,1-1.008.06h-1.86a7.01,7.01,0,0,1-1.068-.072v.8a9.288,9.288,0,0,1,1.068-.048Zm5.1-.252a8.59,8.59,0,0,1-.5,1.224h-.936a5.859,5.859,0,0,1-1.008-.048,7.823,7.823,0,0,1,.048,1.068v3.912a10.635,10.635,0,0,1-.048,1.188,7.423,7.423,0,0,1,1.044-.048h3.54a8.827,8.827,0,0,1,1.092.048,10.224,10.224,0,0,1-.048-1.188v-3.864a8.409,8.409,0,0,1,.048-1.116,7.221,7.221,0,0,1-1.1.048h-1.86a6.876,6.876,0,0,0,.42-.96c.06-.168.06-.168.1-.264h1.944a7.925,7.925,0,0,1,1.116.06v-.816a5.6,5.6,0,0,1-1.14.072H283.2a8.056,8.056,0,0,1-1.188-.072v.8a10.766,10.766,0,0,1,1.188-.048Zm-1.68,1.86h4.128v1.128h-4.128Zm0,1.764h4.128v1.176h-4.128Zm0,1.812h4.128v1.224h-4.128Zm.576,2.076a6.278,6.278,0,0,1-2.628,1.512,2.759,2.759,0,0,1,.492.624,8.623,8.623,0,0,0,2.772-1.716Zm1.992.432a10.483,10.483,0,0,0,2.664,1.668,2.5,2.5,0,0,1,.5-.636,7.912,7.912,0,0,1-2.592-1.476ZM1.632,153.692a6.492,6.492,0,0,1,.036.708,18.029,18.029,0,0,0,.648,5.628c.408,1.152,1.032,1.824,1.7,1.824.852,0,1.4-.8,1.992-2.9a3.836,3.836,0,0,1-.708-.684,8.633,8.633,0,0,1-.624,2.052c-.18.4-.384.6-.6.6-.456,0-.948-.828-1.212-2.052a20.55,20.55,0,0,1-.312-3.732A8.7,8.7,0,0,1,2.64,153.7Zm6.072,1.02a10.6,10.6,0,0,1,2.5,5.916l.852-.348a11.49,11.49,0,0,0-.9-3.2,10.416,10.416,0,0,0-1.716-2.736Zm5.412.516a35.246,35.246,0,0,1,4.14-.4,23.252,23.252,0,0,0,2.64-.264,7.856,7.856,0,0,0-1.14.636,4.549,4.549,0,0,0-2.244,3.684,2.921,2.921,0,0,0,1.332,2.448,6.053,6.053,0,0,0,2.592.924c.192.036.24.048.372.072l.156-.972h-.12a6.15,6.15,0,0,1-1.8-.384,2.353,2.353,0,0,1-1.68-2.22,3.668,3.668,0,0,1,1.476-2.772,6.094,6.094,0,0,1,2.3-1.212,5.565,5.565,0,0,1,1.344-.156l-.072-.9a8.056,8.056,0,0,1-1.428.132c-1.548.072-5.388.288-6.816.4-.372.024-.516.036-.684.036h-.432Zm18.168-.936a12.127,12.127,0,0,1-2.448.516v-1.152a6.863,6.863,0,0,1,.06-1.116h-.888a7.971,7.971,0,0,1,.06,1.14v1.188c-.36.024-.828.036-1.152.036a6.8,6.8,0,0,1-1.224-.084v.792h.492c.132.012.456.012.636.012.348,0,.552,0,.768-.012.372-.024.372-.024.48-.036v2.268a6.419,6.419,0,0,0-1.692.984,2.172,2.172,0,0,0-.948,1.6,1.447,1.447,0,0,0,.552,1.128,3.169,3.169,0,0,0,1.98.768c.588,0,.876-.312.876-.96v-3a8.1,8.1,0,0,1,2.544-.468c1.572,0,2.568.732,2.568,1.908a1.593,1.593,0,0,1-1.608,1.692c-.876,0-1.236-.516-1.236-1.764a3.564,3.564,0,0,1,.024-.468,2.6,2.6,0,0,1-.792.312,4.379,4.379,0,0,0,.144,1.356,1.77,1.77,0,0,0,1.848,1.356,2.469,2.469,0,0,0,1.212-4.608,4.063,4.063,0,0,0-2.124-.5,8.5,8.5,0,0,0-2.58.432v-2.076a21.062,21.062,0,0,0,2.124-.36c.168-.036.216-.048.36-.072Zm-3.216,6.624c0,.516-.036.588-.276.588a2.241,2.241,0,0,1-1.068-.348c-.348-.228-.516-.468-.516-.72,0-.576.672-1.224,1.86-1.8Zm7.212-5.076a10.084,10.084,0,0,0-2.424-2.28l-.624.468a9.829,9.829,0,0,1,2.424,2.352Zm4.512-3.36a2.4,2.4,0,0,1-.036.384,30.333,30.333,0,0,0-.408,4.428v.276l.024,1.248.012.216v.132l.864-.036c-.012-.18-.012-.24-.012-.288a6.263,6.263,0,0,1,.648-2.676c.684-1.4,1.452-2.088,2.364-2.088,1.152,0,1.824,1.116,1.824,3.048a4.132,4.132,0,0,1-2.064,3.984,6.341,6.341,0,0,1-2.436.756,2.477,2.477,0,0,1,.48.816,9.083,9.083,0,0,0,2.136-.708,5.656,5.656,0,0,0,2.052-7.632,2.259,2.259,0,0,0-1.92-1.068,2.862,2.862,0,0,0-2.4,1.548,5.355,5.355,0,0,0-.732,1.788c-.06.252-.06.252-.084.348l-.048-.012c.036-.612.2-1.92.4-3.132a6.8,6.8,0,0,1,.276-1.236Zm19.668,8.76a4.1,4.1,0,0,1-.408-.276,10.5,10.5,0,0,0-3.348-1.752c-.048-1.164-.048-1.164-.072-1.836.888-.06,1.836-.156,2.664-.288.42-.06.54-.072.7-.084l-.048-.828a14.484,14.484,0,0,1-3.324.492c-.012-.636-.012-.636-.024-1.62a24.932,24.932,0,0,0,2.784-.288c.624-.084.624-.084.828-.1l-.06-.816a16.916,16.916,0,0,1-3.552.492,13.392,13.392,0,0,1,.084-1.692h-.924a9.4,9.4,0,0,1,.06,1.728c-.4,0-.8.012-1.044.012a14.908,14.908,0,0,1-3.072-.24l-.012.816a.981.981,0,0,1,.168-.012,1.457,1.457,0,0,1,.216.012c1.08.084,2.052.12,2.928.12.276,0,.468,0,.816-.012l.024,1.644c-.336.012-.756.012-1.068.012a14.728,14.728,0,0,1-2.748-.192l-.012.792h.1c.072,0,.168,0,.3.012.744.06,1.308.084,2.028.084.384,0,.984-.012,1.416-.024.012.312.012.54.024.7.012.348.012.6.024.708a.956.956,0,0,0,.012.132c0,.108,0,.108.012.144a5.337,5.337,0,0,0-1.08-.1,5.227,5.227,0,0,0-1.248.12c-1.056.24-1.68.864-1.68,1.656a1.569,1.569,0,0,0,.648,1.26,3.126,3.126,0,0,0,1.86.48,2.416,2.416,0,0,0,2.028-.756,2.084,2.084,0,0,0,.3-1.308,3.45,3.45,0,0,0-.024-.432c.324.132.6.252.8.36a9.656,9.656,0,0,1,2.448,1.716Zm-4.524-.972a1.572,1.572,0,0,1-.24,1.08,1.734,1.734,0,0,1-1.32.4c-1.044,0-1.644-.36-1.644-1s.78-1.068,1.968-1.068a4.405,4.405,0,0,1,1.224.132Zm13.02-6.06c-.816.024-1.752.048-2.9.1-1.932.072-1.932.072-2.28.072-.18,0-.264,0-.48-.012l.036.876c.8-.132,3.228-.252,5.64-.3v.624c0,.144.012.264.012.312,0,.444,0,.492.012.66A1.842,1.842,0,0,0,66.6,156a2,2,0,0,0-2.124,1.98,2.006,2.006,0,0,0,3.48,1.248,1.681,1.681,0,0,0,.324-.588,3.108,3.108,0,0,1-1.344,2.532,6.15,6.15,0,0,1-1.944.9,2.635,2.635,0,0,1,.528.756,7.633,7.633,0,0,0,1.9-.972,3.862,3.862,0,0,0,1.608-3.132,3.438,3.438,0,0,0-.288-1.416v-2.376c.972-.024,1.1-.024,1.284-.024a21.331,21.331,0,0,1,2.292.06v-.852c-.4.048-1.32.072-3.588.084v-.132a9.935,9.935,0,0,1,.06-1.5h-.9a4.044,4.044,0,0,1,.048.7Zm-.036,3.5a1.345,1.345,0,0,1-1.4,1.416,1.16,1.16,0,0,1-1.236-1.188,1.27,1.27,0,0,1,1.332-1.26,1.535,1.535,0,0,1,.8.192A.869.869,0,0,1,67.92,157.712Zm7.02,1.668a1.8,1.8,0,1,0,1.8,1.8A1.8,1.8,0,0,0,74.94,159.38Zm0,.684a1.116,1.116,0,1,1-1.116,1.116A1.122,1.122,0,0,1,74.94,160.064Z" transform="translate(39 2237.229)"/>
    <g id="グループ_1698" data-name="グループ 1698" transform="translate(15 2158.693)">
      <g id="グループ_583" data-name="グループ 583" transform="translate(0.817 158.348)">
        <g id="グループ_578" data-name="グループ 578" transform="translate(290.069)">
          <g id="グループ_577" data-name="グループ 577">
            <path id="パス_2909" data-name="パス 2909" d="M2885.156,1887.688v95.98h-48.562v-1.439h44.633c1.768,0,3.2-2.833,3.2-6.328v-88.212Z" transform="translate(-2831.042 -1870.552)" fill="#575656"/>
            <g id="グループ_575" data-name="グループ 575" transform="translate(53.385)">
              <rect id="長方形_133" data-name="長方形 133" width="0.728" height="12.265" fill="#575656"/>
            </g>
            <g id="グループ_576" data-name="グループ 576" transform="translate(0 111.676)">
              <rect id="長方形_134" data-name="長方形 134" width="3.599" height="1.44" fill="#575656"/>
            </g>
          </g>
        </g>
        <g id="グループ_582" data-name="グループ 582" transform="translate(0)">
          <g id="グループ_581" data-name="グループ 581">
            <path id="パス_2910" data-name="パス 2910" d="M611.051,1887.688v95.98h48.563v-1.439H614.981c-1.768,0-3.2-2.833-3.2-6.328v-88.212Z" transform="translate(-611.051 -1870.552)" fill="#575656"/>
            <g id="グループ_579" data-name="グループ 579" transform="translate(0)">
              <rect id="長方形_135" data-name="長方形 135" width="0.728" height="12.265" fill="#575656"/>
            </g>
            <g id="グループ_580" data-name="グループ 580" transform="translate(50.515 111.676)">
              <rect id="長方形_136" data-name="長方形 136" width="3.599" height="1.44" fill="#575656"/>
            </g>
          </g>
        </g>
      </g>
      <g id="グループ_592" data-name="グループ 592" transform="translate(0.817)">
        <g id="グループ_587" data-name="グループ 587" transform="translate(290.069)">
          <g id="グループ_586" data-name="グループ 586">
            <path id="パス_2911" data-name="パス 2911" d="M2885.156,626.01V530.03h-48.562v1.44h44.633c1.768,0,3.2,2.833,3.2,6.328V626.01Z" transform="translate(-2831.042 -530.03)" fill="#575656"/>
            <g id="グループ_584" data-name="グループ 584" transform="translate(53.385 100.851)">
              <rect id="長方形_137" data-name="長方形 137" width="0.728" height="12.265" fill="#575656"/>
            </g>
            <g id="グループ_585" data-name="グループ 585" transform="translate(0 0)">
              <rect id="長方形_138" data-name="長方形 138" width="3.599" height="1.44" fill="#575656"/>
            </g>
          </g>
        </g>
        <g id="グループ_591" data-name="グループ 591" transform="translate(0)">
          <g id="グループ_590" data-name="グループ 590">
            <path id="パス_2912" data-name="パス 2912" d="M611.051,626.01V530.03h48.563v1.44H614.981c-1.768,0-3.2,2.833-3.2,6.328V626.01Z" transform="translate(-611.051 -530.03)" fill="#575656"/>
            <g id="グループ_588" data-name="グループ 588" transform="translate(0 100.851)">
              <rect id="長方形_139" data-name="長方形 139" width="0.728" height="12.265" fill="#575656"/>
            </g>
            <g id="グループ_589" data-name="グループ 589" transform="translate(50.515 0)">
              <rect id="長方形_140" data-name="長方形 140" width="3.599" height="1.44" fill="#575656"/>
            </g>
          </g>
        </g>
      </g>
      <g id="グループ_609" data-name="グループ 609" transform="translate(344.264 -1.693)">
        <rect id="長方形_141" data-name="長方形 141" width="0.736" height="277.385" transform="translate(0)" fill="#575656"/>
      </g>
      <g id="グループ_610" data-name="グループ 610" transform="translate(0.081 93.146)">
        <rect id="長方形_142" data-name="長方形 142" width="0.736" height="85.853" transform="translate(0 0)" fill="#575656"/>
      </g>
      <g id="グループ_612" data-name="グループ 612" transform="translate(52.668 270.024)">
        <rect id="長方形_144" data-name="長方形 144" width="239.694" height="1.44" transform="translate(0)" fill="#575656"/>
      </g>
      <rect id="長方形_7" data-name="長方形 7" width="344.887" height="273.998" fill="none"/>
      <rect id="長方形_143" data-name="長方形 143" width="274.833" height="1.44" transform="translate(52.549 0)" fill="#575656"/>
    </g>
    <path id="パス_3890" data-name="パス 3890" d="M7.36,6.272h-3.9V3.264A8.214,8.214,0,0,1,3.52,2.08H2.32A11.341,11.341,0,0,1,2.4,3.312V6.48c0,.272-.016.512-.032.816.336-.016.7-.032.992-.032h4V13.12H2.8V10.16A8.041,8.041,0,0,1,2.88,8.8H1.664a8.884,8.884,0,0,1,.08,1.424v3.52a8.41,8.41,0,0,1-.1,1.344H2.8v-.96H13.2v.96h1.152a8,8,0,0,1-.1-1.344V10.128a8.884,8.884,0,0,1,.08-1.424H13.12a8.484,8.484,0,0,1,.08,1.376v3.04H8.432V7.264h4.3c.3,0,.672.016.992.032-.016-.272-.032-.5-.032-.816V3.3a7.892,7.892,0,0,1,.08-1.216h-1.2a8.709,8.709,0,0,1,.064,1.168V6.272H8.432V2.224A7.26,7.26,0,0,1,8.544.768h-1.3A6.471,6.471,0,0,1,7.36,2.224Zm22.7,2.752a8.928,8.928,0,0,1,1.568.1V8.048a9.652,9.652,0,0,1-1.568.1H24.528V6.736h4.4a10.722,10.722,0,0,1,1.52.1V5.76a7.854,7.854,0,0,1-1.52.1h-4.4V4.48h4.4a9.958,9.958,0,0,1,1.52.1V3.5a9.531,9.531,0,0,1-1.52.1h-4.4V2.256H29.28a10.723,10.723,0,0,1,1.616.08V1.28a10.424,10.424,0,0,1-1.632.1H25.248A14.091,14.091,0,0,1,23.52,1.3a11.631,11.631,0,0,1,.064,1.392V8.144a10.825,10.825,0,0,1-1.248-.064V9.088a8.8,8.8,0,0,1,1.184-.064V13.7a11.335,11.335,0,0,1-1.648.24l.24,1.04c.32-.1.416-.112.768-.192,1.776-.4,3.04-.752,4.528-1.232l-.032-.928a25.589,25.589,0,0,1-2.88.848V9.024h1.36a9.688,9.688,0,0,0,1.9,3.44,12.046,12.046,0,0,0,3.552,2.7,4.561,4.561,0,0,1,.592-.976,9.481,9.481,0,0,1-3.3-2.176,22.874,22.874,0,0,0,2.208-1.984l-.784-.624a10.01,10.01,0,0,1-1.984,1.968A6.761,6.761,0,0,1,26.8,9.024ZM18.8,8.544a21.725,21.725,0,0,0,.336-2.624h1.84c.432,0,.816.016,1.136.048-.032-.416-.048-.784-.048-1.264V2.592c0-.432.016-.768.048-1.12q-.5.048-1.056.048H19.184a9.507,9.507,0,0,1-1.488-.1V2.48a12.057,12.057,0,0,1,1.472-.064H21.1V5.024H19.712a10.855,10.855,0,0,1-1.52-.064,23.054,23.054,0,0,1-.528,4.512c.384-.032.592-.032,1.088-.032H20.96a14.639,14.639,0,0,1-.5,4.016c-.112.384-.32.5-.848.5a15.192,15.192,0,0,1-1.792-.16,4.116,4.116,0,0,1,.208,1.056c.672.048,1.216.08,1.7.08.928,0,1.36-.272,1.6-.96a16.579,16.579,0,0,0,.624-4.816c.016-.3.016-.4.048-.656a10.119,10.119,0,0,1-1.152.048ZM37.456,2.688A12.637,12.637,0,0,1,38.24,4.16H37.2a5.068,5.068,0,0,1,.1,1.088H35.184a5.7,5.7,0,0,1-1.28-.1v.96a7.376,7.376,0,0,1,1.28-.08H37.3v.976H36.128a13.2,13.2,0,0,1-1.552-.064A11.126,11.126,0,0,1,34.64,8.4v1.76a10.612,10.612,0,0,1-.064,1.408A12.6,12.6,0,0,1,36.1,11.5h1.2v1.1H35.232a7.071,7.071,0,0,1-1.264-.08v.96c.416-.048.96-.08,1.264-.08H37.3v.16a9.919,9.919,0,0,1-.1,1.616h1.072a8.076,8.076,0,0,1-.1-1.616v-.16h1.712a7.531,7.531,0,0,1,1.408.064v-.944a7.718,7.718,0,0,1-1.36.08h-1.76V11.5h1.28a13.861,13.861,0,0,1,1.408.048,11.711,11.711,0,0,1-.048-1.376V8.352c0-.688.016-.976.048-1.408a10.251,10.251,0,0,1-1.536.064H38.176V6.032h1.808a10.626,10.626,0,0,1,1.344.064V5.168a7.614,7.614,0,0,1-1.344.08H38.176a4.635,4.635,0,0,1,.08-1.04l.1.24.912-.336c-.4-.7-.528-.928-.864-1.424h1.056a12.624,12.624,0,0,1,1.456.064V1.744a9.606,9.606,0,0,1-1.584.1h-2.72c.208-.384.24-.448.592-1.2L36.176.368a6.528,6.528,0,0,1-.848,1.9A8.248,8.248,0,0,1,33.744,4.08a2.831,2.831,0,0,1,.736.64,10.921,10.921,0,0,0,1.648-2.032ZM37.3,7.744V8.88H35.488V7.744Zm.88,0h1.792V8.88H38.176ZM37.3,9.6v1.168H35.488V9.6Zm.88,0h1.792v1.168H38.176Zm5.44-6.912a11,11,0,0,1,.992,1.92l.88-.336a13.222,13.222,0,0,0-.9-1.584h1.7a12.979,12.979,0,0,1,1.68.08V1.744a9.541,9.541,0,0,1-1.7.1h-3.6c.24-.5.3-.656.528-1.168L42.208.4a5.922,5.922,0,0,1-.656,1.7,7.7,7.7,0,0,1-1.44,1.92,3.678,3.678,0,0,1,.752.56A10.393,10.393,0,0,0,42.24,2.688ZM46.4,6.048c0,1.424-.048,2.656-.1,3.184-.08.72-.16.848-.592.848a9.721,9.721,0,0,1-1.376-.144,2.931,2.931,0,0,1,.176.96,9.976,9.976,0,0,0,1.248.08c.9,0,1.28-.288,1.424-1.072a29.936,29.936,0,0,0,.16-3.2,12.972,12.972,0,0,1,.064-1.584,11.283,11.283,0,0,1-1.456.064H43.424a10.191,10.191,0,0,1-1.392-.064,8.779,8.779,0,0,1,.08,1.5V13.7c0,1.056.4,1.248,2.576,1.248,2.08,0,2.672-.144,2.976-.7a5.321,5.321,0,0,0,.384-2.32,4.635,4.635,0,0,1-.976-.464,5.54,5.54,0,0,1-.24,2.176c-.192.352-.544.416-2.192.416-1.408,0-1.568-.064-1.568-.608V6.048Zm8.592,3.408a3.152,3.152,0,0,1-.56,1.52A4.719,4.719,0,0,1,52.9,12.3a3.372,3.372,0,0,1,.752.688,4.586,4.586,0,0,0,2.288-3.536h2.8v1.9a8.527,8.527,0,0,1-.08,1.424h1.088a8.166,8.166,0,0,1-.08-1.44V9.456h1.312a7.685,7.685,0,0,1,1.376.08V8.528a7.155,7.155,0,0,1-1.376.08H59.664V5.9h1.072a7.29,7.29,0,0,1,1.344.08V4.976a7.08,7.08,0,0,1-1.344.08H59.664V4.144a6.364,6.364,0,0,1,.08-1.248H58.656a6.566,6.566,0,0,1,.08,1.248v.912H56.112V4.112a6.2,6.2,0,0,1,.08-1.216H55.1a10.892,10.892,0,0,1,.08,1.248v.912H54.128a6.977,6.977,0,0,1-1.344-.08V5.984a7.4,7.4,0,0,1,1.344-.08h1.056v.272c0,1.024-.016,1.6-.08,2.432H53.888a6.688,6.688,0,0,1-1.328-.08V9.536a7.1,7.1,0,0,1,1.328-.08ZM56.112,5.9h2.624v2.7h-2.72c.064-.976.1-1.552.1-2.352Zm7.968,9.328a12.687,12.687,0,0,1-.1-1.9V3.3a16.988,16.988,0,0,1,.1-1.968,16.061,16.061,0,0,1-1.9.08H52.608a15.484,15.484,0,0,1-1.872-.08,17.786,17.786,0,0,1,.1,1.968V13.312a13.706,13.706,0,0,1-.1,1.92h1.12v-.96h11.1v.96ZM51.856,2.32h11.1V13.36h-11.1Zm19.616.912a22.388,22.388,0,0,1-3.424-.176l-.016,1.1a2.837,2.837,0,0,1,.352-.016h.256c.592.016,2.1.048,2.352.048a1.772,1.772,0,0,0,.3-.032l-.144.24a15.921,15.921,0,0,1-3.584,4.576l.9.9A5.294,5.294,0,0,1,69.7,8.544a6.01,6.01,0,0,1,3.568-1.7c.752,0,1.136.384,1.264,1.264a12.421,12.421,0,0,0-2.384,1.28,3.308,3.308,0,0,0-1.632,2.528c0,1.648,1.392,2.464,4.256,2.464a24.822,24.822,0,0,0,3.888-.32,6.3,6.3,0,0,1,.64-.08l-.144-1.232a13.406,13.406,0,0,1-4.272.624c-2.256,0-3.248-.464-3.248-1.52,0-.96.832-1.712,3.008-2.736a4.2,4.2,0,0,1,.016.48,23.008,23.008,0,0,1-.1,2.3l1.088-.016a3.478,3.478,0,0,1-.032-.576c0-.144,0-.368.016-.72.016-.32.016-.672.016-.88,0-.4,0-.56-.032-.976a26.565,26.565,0,0,1,4.272-1.408l-.512-1.12a3.52,3.52,0,0,1-1.088.464c-.7.256-1.616.592-2.784,1.056a1.942,1.942,0,0,0-2.112-1.776,4.258,4.258,0,0,0-2.416.784c-.16.112-.16.112-.736.56a.123.123,0,0,1-.032-.048V7.232a.016.016,0,0,0,.016-.016c.016-.016.1-.08.208-.16.064-.048.384-.416.544-.608a11.8,11.8,0,0,0,1.44-2.272A51.662,51.662,0,0,0,77.7,3.76a4.988,4.988,0,0,1,.64-.08l-.1-1.088A22.519,22.519,0,0,1,73.2,3.2a2.724,2.724,0,0,0-.336.016c.08-.144.288-.576.5-1.088a3.4,3.4,0,0,1,.416-.864L72.5,1.04a6.791,6.791,0,0,1-.768,2.192Zm26.112.208a7.566,7.566,0,0,1-1.52.1H93.248c.144-.48.4-1.472.544-2.048.128-.48.128-.48.192-.688L92.9.56a10.954,10.954,0,0,1-.368,2.016A12.146,12.146,0,0,1,90.16,7.728a2.717,2.717,0,0,1,.72.688,12.525,12.525,0,0,0,1.168-1.84,16.518,16.518,0,0,0,1.424,4.144,10.7,10.7,0,0,1-4.128,3.5,2.918,2.918,0,0,1,.752.88,13.585,13.585,0,0,0,3.9-3.44,12.061,12.061,0,0,0,3.168,3.456,2.849,2.849,0,0,1,.768-.912,10.508,10.508,0,0,1-3.36-3.408A12.286,12.286,0,0,0,95.92,7.664,15.954,15.954,0,0,0,96.48,4.4a6.113,6.113,0,0,1,1.1.1ZM95.52,4.4a12.758,12.758,0,0,1-1.472,5.392A15.182,15.182,0,0,1,92.64,5.264c.144-.368.176-.448.32-.864ZM87.232,5.872A19.277,19.277,0,0,1,83.1,8.544a2.791,2.791,0,0,1,.64.72c.768-.416,1.1-.608,1.744-1.024h3.12a6.681,6.681,0,0,1-1.3,1.184h-.384a5.062,5.062,0,0,1,.064,1.072v.1c-1.136.128-2.576.224-3.136.224-.16,0-.336,0-.512-.016l.16,1.024a5.529,5.529,0,0,1,.784-.1c1.584-.128,1.84-.16,2.7-.24v2.128c0,.272-.08.336-.4.336a11.533,11.533,0,0,1-1.7-.144,3.5,3.5,0,0,1,.176.992c.5.048.96.064,1.344.064,1.232,0,1.52-.192,1.52-1.072V11.376c1.056-.144,1.568-.224,2.9-.464v-.9c-1.3.256-1.744.32-2.9.464V9.9a11.747,11.747,0,0,0,1.712-1.552c.208-.224.208-.224.3-.32l.064-.064-.528-.56a5.6,5.6,0,0,1-1.152.064h-1.76a20.83,20.83,0,0,0,1.872-1.6h1.408a6.5,6.5,0,0,1,1.072.064V5.008a5.687,5.687,0,0,1-1.072.064h-.624A20.021,20.021,0,0,0,91.68,1.856l-.96-.464a11.836,11.836,0,0,1-2.64,3.68h-.528V3.232h.9a8.743,8.743,0,0,1,.992.048V2.368a5.4,5.4,0,0,1-1.04.064h-.848V1.856a4.515,4.515,0,0,1,.1-1.184h-1.12a6.024,6.024,0,0,1,.1,1.168v.592H85.392a6.406,6.406,0,0,1-1.312-.08V3.3a8.39,8.39,0,0,1,1.3-.064h1.248v1.84H84.848a7.915,7.915,0,0,1-1.408-.1v.96c.3-.032.8-.064,1.392-.064Zm16.32-3.584a22.8,22.8,0,0,0,5.968,1.088l.224-1.072a19.566,19.566,0,0,1-5.792-.992Zm-1.376,4.128c.416-.048.752-.08,1.52-.128a30.69,30.69,0,0,0,4.768-.512c-1.152,1.1-1.968,1.9-2.432,2.368-1.3,1.28-2.624,2.56-3.776,3.632a11.528,11.528,0,0,1-1.728,1.472l.9.992c.56-.64,1.616-1.728,2.4-2.448,1.328-1.232,2.112-1.68,2.944-1.68a.782.782,0,0,1,.736.384,2.768,2.768,0,0,1,.176,1.1,4.048,4.048,0,0,0,.352,1.76c.336.624,1.04.912,2.24.912a12.723,12.723,0,0,0,2.192-.208c1.136-.176,1.136-.176,1.3-.192l-.176-1.232a8.628,8.628,0,0,1-3.232.592c-.736,0-1.1-.128-1.328-.432-.176-.256-.224-.5-.288-1.5-.064-.912-.176-1.28-.5-1.6a1.484,1.484,0,0,0-1.088-.416,3.4,3.4,0,0,0-1.6.528,35.5,35.5,0,0,0,3.168-2.88A14.736,14.736,0,0,1,110.144,5.6l-.7-.88a3.043,3.043,0,0,1-.768.176,54.555,54.555,0,0,1-5.616.384c-.352,0-.56,0-.96-.032ZM115.728,4.7a47,47,0,0,1,5.52-.528,31.006,31.006,0,0,0,3.52-.352,10.474,10.474,0,0,0-1.52.848,6.066,6.066,0,0,0-2.992,4.912,3.894,3.894,0,0,0,1.776,3.264,8.071,8.071,0,0,0,3.456,1.232c.256.048.32.064.5.1l.208-1.3h-.16a8.2,8.2,0,0,1-2.4-.512,3.137,3.137,0,0,1-2.24-2.96,4.89,4.89,0,0,1,1.968-3.7A8.125,8.125,0,0,1,126.432,4.1a7.421,7.421,0,0,1,1.792-.208l-.1-1.2a10.741,10.741,0,0,1-1.9.176c-2.064.1-7.184.384-9.088.528-.5.032-.688.048-.912.048h-.576Zm24.256-3.6A25.438,25.438,0,0,1,135.3,5.488a12.363,12.363,0,0,0-1.36,1.088,1.549,1.549,0,0,0-.464,1.072c0,.544.256.9,1.152,1.6,2.336,1.824,2.976,2.352,4.048,3.344a15.1,15.1,0,0,1,2.064,2.192l1.008-.992a4.073,4.073,0,0,1-.448-.4,47.175,47.175,0,0,0-5.12-4.368c-1.3-1.008-1.424-1.12-1.424-1.408,0-.224.112-.352.7-.8a46.61,46.61,0,0,0,3.68-3.024c1.664-1.6,1.792-1.712,1.968-1.856Zm8.208,3.968a2.382,2.382,0,0,1,.272-.016h.064c.624.032.768.032,1.328.032.592,0,.784,0,1.1-.016a32.563,32.563,0,0,1-3.008,8.848l1.168.5a42.78,42.78,0,0,0,2.96-9.408,21.348,21.348,0,0,0,2.7-.384l.288-.064.16-.016-.08-1.1a13.009,13.009,0,0,1-2.88.544c.08-.432.112-.656.208-1.216.1-.544.144-.864.16-.96.048-.224.064-.3.128-.56L151.5,1.12v.112a19.731,19.731,0,0,1-.352,2.832c-.464.032-.64.032-.96.032a11.034,11.034,0,0,1-2-.144Zm12.08.784c-1.2-.048-1.44-.048-1.744-.048a18.127,18.127,0,0,0-4.24.528l.112,1.088a13.926,13.926,0,0,1,4-.544,16.063,16.063,0,0,1,1.888.112Zm-5.824,3.456c-.848,1.088-1.072,1.584-1.072,2.3,0,1.584,1.36,2.4,3.984,2.4a17.517,17.517,0,0,0,2.848-.256l.5-.1.208-.032-.112-1.2a11.888,11.888,0,0,1-3.536.544c-1.824,0-2.8-.512-2.8-1.472a1.926,1.926,0,0,1,.4-1.136,5.362,5.362,0,0,1,.48-.608Zm2.64-7.5a11.712,11.712,0,0,1,1.648,2.528l.8-.48a12.146,12.146,0,0,0-1.648-2.48Zm1.824-.864a11.986,11.986,0,0,1,1.632,2.512l.8-.464A12.851,12.851,0,0,0,159.7.512Zm6.544,4.592a3.534,3.534,0,0,1,.624-.048,47.112,47.112,0,0,0,5.7-.416c.1.16.1.192.272.528a19.511,19.511,0,0,0,1.92,3.136,7.989,7.989,0,0,0-3.312-.576,6.8,6.8,0,0,0-3.1.592,2.99,2.99,0,0,0-1.808,2.608,2.581,2.581,0,0,0,.72,1.76c.736.768,2.208,1.2,4.16,1.2a13.264,13.264,0,0,0,4.7-.864l-.176-1.232a10.549,10.549,0,0,1-4.544,1.024,5.419,5.419,0,0,1-3.12-.736,1.6,1.6,0,0,1-.608-1.248,1.817,1.817,0,0,1,.864-1.488,5.672,5.672,0,0,1,3.04-.672,8.67,8.67,0,0,1,2.8.416,3.2,3.2,0,0,1,1.1.656l1.072-.608a29.63,29.63,0,0,1-2.88-4.656l.544-.112c1.008-.192,1.2-.24,2.16-.5.48-.128.608-.16.944-.224l-.16-1.136A18.725,18.725,0,0,1,172.5,3.952a13.162,13.162,0,0,1-.576-1.408,5.1,5.1,0,0,1-.464-1.44l-1.264.176c.144.288.24.512.416.928.288.72.544,1.36.784,1.9a37.346,37.346,0,0,1-4.768.336,7.015,7.015,0,0,1-1.232-.08Zm16.24-2.88a8.658,8.658,0,0,1,.048.944c.08,3.936.3,5.984.864,7.5.544,1.536,1.376,2.432,2.272,2.432,1.136,0,1.872-1.072,2.656-3.872a5.114,5.114,0,0,1-.944-.912,11.512,11.512,0,0,1-.832,2.736c-.24.528-.512.8-.8.8-.608,0-1.264-1.1-1.616-2.736a27.4,27.4,0,0,1-.416-4.976,11.6,11.6,0,0,1,.112-1.9Zm8.1,1.36A14.131,14.131,0,0,1,193.12,11.9l1.136-.464a15.32,15.32,0,0,0-1.2-4.272,13.888,13.888,0,0,0-2.288-3.648Z" transform="translate(37.586 2197.355)" fill="#f59c9c"/>
  </g>
</svg>
