<svg xmlns="http://www.w3.org/2000/svg" width="345" height="277.385" viewBox="0 0 345 277.385">
  <defs>
    <style>
      .cls-1 {
        font-size: 12px;
      }

      .cls-1, .cls-4 {
        font-family: YuMin-Medium, YuMincho;
        font-weight: 500;
        letter-spacing: 0.03em;
      }

      .cls-2 {
        fill: #575656;
      }

      .cls-3 {
        fill: none;
      }

      .cls-4 {
        fill: #f59c9c;
        font-size: 16px;
      }
    </style>
  </defs>
  <g id="グループ_1808" data-name="グループ 1808" transform="translate(-15 -2157)">
    <g id="グループ_1792" data-name="グループ 1792">
      <text id="関東圏ですが_ご依頼があれば全国出張も承っておりますので_お気軽に問い合わせ下さい_交通費_出張費含め_都内_埼玉_神奈川_一律2200円_その他の地域_2200円を超過する場合は実費分頂いております_" data-name="関東圏ですが、ご依頼があれば全国出張も承っておりますので
お気軽に問い合わせ下さい。

交通費、出張費含め
■都内、埼玉、神奈川 ： 一律2200円
■その他の地域 ： 2200円を超過する場合は実費分頂いております。" class="cls-1" transform="translate(39 2237.229)"><tspan x="0" y="11">関東圏ですが、ご依頼があれば全国出張も承っており</tspan><tspan x="0" y="32.6">ますので</tspan><tspan x="0" y="54.2">お気軽に問い合わせ下さい。</tspan><tspan x="0" y="75.8"></tspan><tspan x="0" y="97.4">交通費、出張費含め</tspan><tspan x="0" y="119">■都内、埼玉、神奈川 ： 一律2200円</tspan><tspan x="0" y="140.6">■その他の地域 ： 2200円を超過する場合は実費分頂</tspan><tspan x="0" y="162.2">いております。</tspan></text>
      <g id="グループ_1698" data-name="グループ 1698" transform="translate(15 2158.693)">
        <g id="グループ_583" data-name="グループ 583" transform="translate(0.817 158.348)">
          <g id="グループ_578" data-name="グループ 578" transform="translate(290.069)">
            <g id="グループ_577" data-name="グループ 577">
              <path id="パス_2909" data-name="パス 2909" class="cls-2" d="M2885.156,1887.688v95.98h-48.562v-1.439h44.633c1.768,0,3.2-2.833,3.2-6.328v-88.212Z" transform="translate(-2831.042 -1870.552)"/>
              <g id="グループ_575" data-name="グループ 575" transform="translate(53.385)">
                <rect id="長方形_133" data-name="長方形 133" class="cls-2" width="0.728" height="12.265"/>
              </g>
              <g id="グループ_576" data-name="グループ 576" transform="translate(0 111.676)">
                <rect id="長方形_134" data-name="長方形 134" class="cls-2" width="3.599" height="1.44"/>
              </g>
            </g>
          </g>
          <g id="グループ_582" data-name="グループ 582" transform="translate(0)">
            <g id="グループ_581" data-name="グループ 581">
              <path id="パス_2910" data-name="パス 2910" class="cls-2" d="M611.051,1887.688v95.98h48.563v-1.439H614.981c-1.768,0-3.2-2.833-3.2-6.328v-88.212Z" transform="translate(-611.051 -1870.552)"/>
              <g id="グループ_579" data-name="グループ 579" transform="translate(0)">
                <rect id="長方形_135" data-name="長方形 135" class="cls-2" width="0.728" height="12.265"/>
              </g>
              <g id="グループ_580" data-name="グループ 580" transform="translate(50.515 111.676)">
                <rect id="長方形_136" data-name="長方形 136" class="cls-2" width="3.599" height="1.44"/>
              </g>
            </g>
          </g>
        </g>
        <g id="グループ_592" data-name="グループ 592" transform="translate(0.817)">
          <g id="グループ_587" data-name="グループ 587" transform="translate(290.069)">
            <g id="グループ_586" data-name="グループ 586">
              <path id="パス_2911" data-name="パス 2911" class="cls-2" d="M2885.156,626.01V530.03h-48.562v1.44h44.633c1.768,0,3.2,2.833,3.2,6.328V626.01Z" transform="translate(-2831.042 -530.03)"/>
              <g id="グループ_584" data-name="グループ 584" transform="translate(53.385 100.851)">
                <rect id="長方形_137" data-name="長方形 137" class="cls-2" width="0.728" height="12.265"/>
              </g>
              <g id="グループ_585" data-name="グループ 585" transform="translate(0 0)">
                <rect id="長方形_138" data-name="長方形 138" class="cls-2" width="3.599" height="1.44"/>
              </g>
            </g>
          </g>
          <g id="グループ_591" data-name="グループ 591" transform="translate(0)">
            <g id="グループ_590" data-name="グループ 590">
              <path id="パス_2912" data-name="パス 2912" class="cls-2" d="M611.051,626.01V530.03h48.563v1.44H614.981c-1.768,0-3.2,2.833-3.2,6.328V626.01Z" transform="translate(-611.051 -530.03)"/>
              <g id="グループ_588" data-name="グループ 588" transform="translate(0 100.851)">
                <rect id="長方形_139" data-name="長方形 139" class="cls-2" width="0.728" height="12.265"/>
              </g>
              <g id="グループ_589" data-name="グループ 589" transform="translate(50.515 0)">
                <rect id="長方形_140" data-name="長方形 140" class="cls-2" width="3.599" height="1.44"/>
              </g>
            </g>
          </g>
        </g>
        <g id="グループ_609" data-name="グループ 609" transform="translate(344.264 -1.693)">
          <rect id="長方形_141" data-name="長方形 141" class="cls-2" width="0.736" height="277.385" transform="translate(0)"/>
        </g>
        <g id="グループ_610" data-name="グループ 610" transform="translate(0.081 93.146)">
          <rect id="長方形_142" data-name="長方形 142" class="cls-2" width="0.736" height="85.853" transform="translate(0 0)"/>
        </g>
        <g id="グループ_612" data-name="グループ 612" transform="translate(52.668 270.024)">
          <rect id="長方形_144" data-name="長方形 144" class="cls-2" width="239.694" height="1.44" transform="translate(0)"/>
        </g>
        <rect id="長方形_7" data-name="長方形 7" class="cls-3" width="344.887" height="273.998"/>
        <rect id="長方形_143" data-name="長方形 143" class="cls-2" width="274.833" height="1.44" transform="translate(52.549 0)"/>
      </g>
      <text id="出張範囲を教えてください" class="cls-4" transform="translate(37.586 2197.355)"><tspan x="0" y="14">出張範囲を教えてください</tspan></text>
    </g>
  </g>
</svg>
