<svg xmlns="http://www.w3.org/2000/svg" width="345" height="324.09" viewBox="0 0 345 324.09">
  <defs>
    <style>
      .cls-1 {
        font-size: 12px;
      }

      .cls-1, .cls-4 {
        font-family: YuMin-Medium, YuMincho;
        font-weight: 500;
        letter-spacing: 0.03em;
      }

      .cls-2 {
        fill: #575656;
      }

      .cls-3 {
        fill: none;
      }

      .cls-4 {
        fill: #f59c9c;
        font-size: 16px;
      }
    </style>
  </defs>
  <g id="グループ_1753" data-name="グループ 1753" transform="translate(-15 -2463)">
    <text id="万が一キャンセルの場合は6週間前よりかかってまいりますのでご注意くださいませ_延期の場合などはその都度ご相談ください_1週間前_前日_100_2週間前_60_3週間前_40_4週間前_30_5週間前_20_6週間前_10_" data-name="万が一キャンセルの場合は6週間前よりかかってまいりますのでご注意くださいませ。
延期の場合などはその都度ご相談ください。

1週間前～前日　100％
2週間前 60％
3週間前 40％
4週間前 30％
5週間前 20％
6週間前 10％" class="cls-1" transform="translate(39 2540.546)"><tspan x="0" y="11">万が一キャンセルの場合は6週間前よりかかってまい</tspan><tspan x="0" y="32.6">りますのでご注意くださいませ。</tspan><tspan x="0" y="54.2">延期の場合などはその都度ご相談ください。</tspan><tspan x="0" y="75.8"></tspan><tspan x="0" y="97.4">1週間前～前日　100％</tspan><tspan x="0" y="119">2週間前 60％</tspan><tspan x="0" y="140.6">3週間前 40％</tspan><tspan x="0" y="162.2">4週間前 30％</tspan><tspan x="0" y="183.8">5週間前 20％</tspan><tspan x="0" y="205.4">6週間前 10％</tspan></text>
    <g id="グループ_1655" data-name="グループ 1655" transform="translate(15 2463)">
      <g id="グループ_583" data-name="グループ 583" transform="translate(0.817 218.806)">
        <g id="グループ_578" data-name="グループ 578" transform="translate(290.069)">
          <g id="グループ_577" data-name="グループ 577">
            <path id="パス_2909" data-name="パス 2909" class="cls-2" d="M2885.156,1887.688v87.377h-48.562v-1.31h44.633c1.768,0,3.2-2.58,3.2-5.761v-80.305Z" transform="translate(-2831.042 -1872.088)"/>
            <g id="グループ_575" data-name="グループ 575" transform="translate(53.385)">
              <rect id="長方形_133" data-name="長方形 133" class="cls-2" width="0.728" height="11.166"/>
            </g>
            <g id="グループ_576" data-name="グループ 576" transform="translate(0 101.666)">
              <rect id="長方形_134" data-name="長方形 134" class="cls-2" width="3.599" height="1.311"/>
            </g>
          </g>
        </g>
        <g id="グループ_582" data-name="グループ 582" transform="translate(0)">
          <g id="グループ_581" data-name="グループ 581">
            <path id="パス_2910" data-name="パス 2910" class="cls-2" d="M611.051,1887.688v87.377h48.563v-1.31H614.981c-1.768,0-3.2-2.58-3.2-5.761v-80.305Z" transform="translate(-611.051 -1872.088)"/>
            <g id="グループ_579" data-name="グループ 579" transform="translate(0)">
              <rect id="長方形_135" data-name="長方形 135" class="cls-2" width="0.728" height="11.166"/>
            </g>
            <g id="グループ_580" data-name="グループ 580" transform="translate(50.515 101.666)">
              <rect id="長方形_136" data-name="長方形 136" class="cls-2" width="3.599" height="1.311"/>
            </g>
          </g>
        </g>
      </g>
      <g id="グループ_592" data-name="グループ 592" transform="translate(0.817)">
        <g id="グループ_587" data-name="グループ 587" transform="translate(290.069)">
          <g id="グループ_586" data-name="グループ 586">
            <path id="パス_2911" data-name="パス 2911" class="cls-2" d="M2885.156,617.407V530.03h-48.562v1.311h44.633c1.768,0,3.2,2.579,3.2,5.761v80.305Z" transform="translate(-2831.042 -530.03)"/>
            <g id="グループ_584" data-name="グループ 584" transform="translate(53.385 91.811)">
              <rect id="長方形_137" data-name="長方形 137" class="cls-2" width="0.728" height="11.166"/>
            </g>
            <g id="グループ_585" data-name="グループ 585" transform="translate(0 0)">
              <rect id="長方形_138" data-name="長方形 138" class="cls-2" width="3.599" height="1.311"/>
            </g>
          </g>
        </g>
        <g id="グループ_591" data-name="グループ 591" transform="translate(0)">
          <g id="グループ_590" data-name="グループ 590">
            <path id="パス_2912" data-name="パス 2912" class="cls-2" d="M611.051,617.407V530.03h48.563v1.311H614.981c-1.768,0-3.2,2.579-3.2,5.761v80.305Z" transform="translate(-611.051 -530.03)"/>
            <g id="グループ_588" data-name="グループ 588" transform="translate(0 91.811)">
              <rect id="長方形_139" data-name="長方形 139" class="cls-2" width="0.728" height="11.166"/>
            </g>
            <g id="グループ_589" data-name="グループ 589" transform="translate(50.515 0)">
              <rect id="長方形_140" data-name="長方形 140" class="cls-2" width="3.599" height="1.311"/>
            </g>
          </g>
        </g>
      </g>
      <g id="グループ_609" data-name="グループ 609" transform="translate(344.264 61.751)">
        <rect id="長方形_141" data-name="長方形 141" class="cls-2" width="0.736" height="131.485" transform="translate(0)"/>
      </g>
      <g id="グループ_610" data-name="グループ 610" transform="translate(0.081 121.704)">
        <rect id="長方形_142" data-name="長方形 142" class="cls-2" width="0.736" height="78.158" transform="translate(0 0)"/>
      </g>
      <g id="グループ_612" data-name="グループ 612" transform="translate(52.668 320.472)">
        <rect id="長方形_144" data-name="長方形 144" class="cls-2" width="239.694" height="1.311" transform="translate(0)"/>
      </g>
      <rect id="長方形_7" data-name="長方形 7" class="cls-3" width="344.887" height="324.09"/>
      <rect id="長方形_143" data-name="長方形 143" class="cls-2" width="274.833" height="1.311" transform="translate(52.549 0)"/>
    </g>
    <text id="キャンセル料はかかりますか_" data-name="キャンセル料はかかりますか？" class="cls-4" transform="translate(37.585 2503.662)"><tspan x="0" y="14">キャンセル料はかかりますか？</tspan></text>
  </g>
</svg>
