<svg xmlns="http://www.w3.org/2000/svg" xmlns:xlink="http://www.w3.org/1999/xlink" width="612.467" height="337.833" viewBox="0 0 612.467 337.833">
  <defs>
    <filter id="パス_3790" x="0" y="0" width="612.467" height="337.833" filterUnits="userSpaceOnUse">
      <feOffset dy="3" input="SourceAlpha"/>
      <feGaussianBlur stdDeviation="3" result="blur"/>
      <feFlood flood-color="#fff" flood-opacity="0.361"/>
      <feComposite operator="in" in2="blur"/>
      <feComposite in="SourceGraphic"/>
    </filter>
  </defs>
  <g transform="matrix(1, 0, 0, 1, 0, 0)" filter="url(#パス_3790)">
    <path id="パス_3790-2" data-name="パス 3790" d="M-205.7,9.57c-.66,0-3.3,3.63-11.88,3.63s-16.39-2.42-24.53-4.4l.33-1.1c.22-2.75,3.63-16.5,10.67-33.77,10.34-25.3,21.56-37.95,21.56-39.16,0-.44-.77-1.32-1.54-1.65,16.5,2.53,24.75,6.93,25.74,6.93a2.231,2.231,0,0,0,1.76-1.98c0-2.09-23.54-9.57-53.02-9.57-21.78,0-40.59,9.24-40.59,24.64s14.85,21.01,22.66,21.01c1.54,0,2.09-.22,2.09-.88,0-.44-.33-.66-1.32-.66-7.37,0-20.13-6.16-20.13-18.48,0-14.19,15.84-22.77,37.84-22.77a166.025,166.025,0,0,1,24.2,1.65c-1.76.33-13.64,18.26-22.22,39.05-7.81,18.92-10.67,32.56-10.67,34.43a3.371,3.371,0,0,0,.44,1.87,71.555,71.555,0,0,0-15.73-1.98c-15.62,0-19.91,9.79-19.91,15.18,0,.66.33,1.21.77,1.21s.66-.33.66-.99c0-4.73,4.4-12.65,17.6-12.65,16.83,0,28.49,7.15,42.68,7.15,9.46,0,13.09-4.73,13.09-6.16A.52.52,0,0,0-205.7,9.57Zm64.9-20.46a2.456,2.456,0,0,0,.55-1.1.923.923,0,0,0-.99-.99c-.55,0-1.1.66-1.1.66s-9.35,10.56-16.39,10.56c-2.09,0-3.08-.88-3.08-2.75,0-5.06,10.67-12.32,10.67-17.71,0-2.86-1.76-4.4-4.18-4.4-6.38,0-26.18,16.06-34.1,24.75,0,0,3.74-7.92,6.05-10.89,13.97-10.89,39.49-30.47,39.49-39.82a5.257,5.257,0,0,0-5.61-5.39c-11.11,0-24.09,18.59-34.65,38.83-4.4,8.47-9.68,19.58-9.68,20.68a1.879,1.879,0,0,0,1.76,1.65c.88,0,1.65-.88,2.75-2.09,9.02-9.68,28.49-24.97,33.44-24.97a1.557,1.557,0,0,1,1.65,1.65c0,4.4-10.67,11.22-10.67,17.82,0,3.19,2.2,5.06,5.39,5.06C-150.81.66-140.8-10.89-140.8-10.89Zm-8.47-44.66a2.633,2.633,0,0,1,2.75,2.64c0,8.69-24.53,27.61-35.86,36.52C-171.49-37.4-158.29-55.55-149.27-55.55Zm28.38,52.03c4.95,0,10.56-2.31,15.51-7.37a2.456,2.456,0,0,0,.55-1.1.986.986,0,0,0-.99-.99c-.55,0-1.1.66-1.1.66-4.07,4.29-8.8,6.49-13.42,6.49h-.77c4.18-4.51,7.37-10.34,7.37-15.84,0-7.48-4.18-11-9.46-11-6.38,0-13.53,5.06-14.74,11.77A19.717,19.717,0,0,0-143-7.59c0,6.05,3.63,9.24,8.36,9.24,3.52,0,7.7-2.09,11.33-5.28A17.031,17.031,0,0,0-120.89-3.52Zm-14.52-15.73a21.444,21.444,0,0,1,12.87-7.15c.77-.11,1.21-.22,1.21-.88s-.77-.88-1.76-.88a19.87,19.87,0,0,0-10.12,3.19c2.53-3.08,6.82-5.06,9.9-5.06,3.41,0,6.71,2.64,6.71,8.36,0,5.39-3.41,11.22-7.59,15.4C-130.9-7.92-135.41-13.53-135.41-19.25Zm1.32,18.26c-3.85,0-5.83-1.98-5.83-6.6a16.751,16.751,0,0,1,2.2-8.47c1.21,5.17,5.61,9.79,11.33,11.66C-129.03-2.31-131.78-.99-134.09-.99Zm66.77-9.9a2.456,2.456,0,0,0,.55-1.1.986.986,0,0,0-.99-.99c-.55,0-1.1.66-1.1.66A30.026,30.026,0,0,1-84.26-3.3c5.17-5.83,8.8-13.2,8.8-18.37,0-3.63-2.09-5.72-5.39-5.72-6.93,0-17.27,8.36-21.23,11.88a163.747,163.747,0,0,1,9.24-13.75c.55-.77.77-1.1.77-1.54a1.537,1.537,0,0,0-1.43-1.21c-.55,0-.99.44-1.76,1.43A156.317,156.317,0,0,0-111.54-3.19c-5.5,12.21-10.45,26.4-10.45,35.97,0,2.2,1.43,3.74,2.09,3.74s.77-.55.77-3.08c0-9.9,4.73-23.43,10.01-35.42a39.425,39.425,0,0,1,4.73-8.14c2.64-3.41,15.73-14.41,22.99-14.41,1.76,0,2.86.88,2.86,3.19,0,5.17-4.18,13.09-9.68,18.48-9.9.66-17.38-.66-17.38,4.4,0,2.42,2.2,3.96,5.83,3.96,4.62,0,9.35-2.75,13.31-6.49A31.237,31.237,0,0,0-67.32-10.89ZM-99.77,3.19c-1.98,0-3.19-.66-3.19-1.76,0-2.86,5.17-1.87,12.43-2.2C-93.5,1.65-96.69,3.19-99.77,3.19Zm64.9-14.08a2.456,2.456,0,0,0,.55-1.1.923.923,0,0,0-.99-.99c-.55,0-1.1.66-1.1.66S-47.3.77-59.73.77c-4.51,0-7.48-2.75-7.48-6.93a13.312,13.312,0,0,1,.11-2.09c9.24-2.2,24.31-8.36,24.31-14.85,0-2.75-2.09-4.73-5.5-4.73-8.36,0-22,11.11-22,21.34,0,6.27,4.84,9.79,10.56,9.79C-46.97,3.3-34.87-10.89-34.87-10.89ZM-47.85-25.41a2.174,2.174,0,0,1,2.42,1.98c0,5.06-12.54,10.67-20.9,12.65C-63.36-18.26-54.23-25.41-47.85-25.41ZM27.72-10.89a2.456,2.456,0,0,0,.55-1.1,1.016,1.016,0,0,0-1.1-.99c-.44,0-.99.66-.99.66C21.78-7.26,15.51-2.75,8.47,1.32l2.42-7.7c2.42-7.92,4.84-11.44,6.82-15.29a3.924,3.924,0,0,0,.66-1.43,1.537,1.537,0,0,0-1.43-1.43c-.44,0-.88.55-1.43,1.54-2.2,3.96-4.62,8.47-7.7,12.1C.99-3.3-5.17,1.1-10.45,1.1c-2.53,0-3.96-1.43-3.96-4.07,0-6.6,9.24-18.81,12.98-23.32.55-.66.66-.77.66-1.21a1.885,1.885,0,0,0-1.54-1.43c-1.76,0-15.4,18.15-15.4,25.96,0,4.18,2.75,6.71,6.6,6.71C-5.06,3.74,1.98-1.43,8.14-7.7,7.26-4.51,6.16-.66,4.84,3.41c-20.79,11.55-45.87,20.9-45.87,36.3,0,6.05,4.84,10.45,11.44,10.45C-10.78,50.16.88,23.87,7.48,4.4,15.29-.11,22.55-5.06,27.72-10.89ZM-29.92,47.52c-4.95,0-8.36-3.19-8.36-7.92,0-13.2,22.11-22,42.02-33.11C-2.53,24.86-13.53,47.52-29.92,47.52ZM47.63-3.52c4.95,0,10.56-2.31,15.51-7.37a2.456,2.456,0,0,0,.55-1.1.986.986,0,0,0-.99-.99c-.55,0-1.1.66-1.1.66-4.07,4.29-8.8,6.49-13.42,6.49h-.77c4.18-4.51,7.37-10.34,7.37-15.84,0-7.48-4.18-11-9.46-11-6.38,0-13.53,5.06-14.74,11.77A19.717,19.717,0,0,0,25.52-7.59c0,6.05,3.63,9.24,8.36,9.24,3.52,0,7.7-2.09,11.33-5.28A17.031,17.031,0,0,0,47.63-3.52ZM33.11-19.25A21.444,21.444,0,0,1,45.98-26.4c.77-.11,1.21-.22,1.21-.88s-.77-.88-1.76-.88a19.87,19.87,0,0,0-10.12,3.19c2.53-3.08,6.82-5.06,9.9-5.06,3.41,0,6.71,2.64,6.71,8.36,0,5.39-3.41,11.22-7.59,15.4C37.62-7.92,33.11-13.53,33.11-19.25ZM34.43-.99c-3.85,0-5.83-1.98-5.83-6.6a16.751,16.751,0,0,1,2.2-8.47c1.21,5.17,5.61,9.79,11.33,11.66C39.49-2.31,36.74-.99,34.43-.99Zm70.73-9.9a2.456,2.456,0,0,0,.55-1.1.986.986,0,0,0-.99-.99c-.55,0-1.1.66-1.1.66s-8.36,9.9-14.96,9.9A4.169,4.169,0,0,1,84.48-6.6a7.915,7.915,0,0,1,1.32-4.29,106.363,106.363,0,0,1,7.48-10.67c.55-.66.77-.99.77-1.32a1.774,1.774,0,0,0-1.54-1.32c-.44,0-.77.33-1.54,1.21-2.09,2.53-4.84,6.6-8.25,10.89C77.55-5.61,70.95,1.32,65.78,1.32c-2.31,0-3.96-1.54-3.96-4.29,0-8.58,10.45-20.35,13.09-23.21.55-.55.88-.99.88-1.32a1.673,1.673,0,0,0-1.65-1.43c-1.65,0-15.62,16.83-15.62,26.29a6.485,6.485,0,0,0,6.71,6.49c6.49,0,13.75-7.92,16.39-10.45A6.71,6.71,0,0,0,88.33,0C95.59,0,105.16-10.89,105.16-10.89Zm67.1,0a2.456,2.456,0,0,0,.55-1.1.923.923,0,0,0-.99-.99c-.55,0-1.1.66-1.1.66S161.37-1.76,154.33-1.76c-2.09,0-3.08-.88-3.08-2.75,0-5.06,10.67-12.32,10.67-17.71,0-2.86-1.76-4.4-4.18-4.4-6.38,0-26.18,16.06-34.1,24.75,0,0,3.74-7.92,6.05-10.89,13.97-10.89,39.49-30.47,39.49-39.82a5.257,5.257,0,0,0-5.61-5.39c-11.11,0-24.09,18.59-34.65,38.83-4.4,8.47-9.68,19.58-9.68,20.68A1.879,1.879,0,0,0,121,3.19c.88,0,1.65-.88,2.75-2.09,9.02-9.68,28.49-24.97,33.44-24.97a1.557,1.557,0,0,1,1.65,1.65c0,4.4-10.67,11.22-10.67,17.82,0,3.19,2.2,5.06,5.39,5.06C162.25.66,172.26-10.89,172.26-10.89Zm-8.47-44.66a2.633,2.633,0,0,1,2.75,2.64c0,8.69-24.53,27.61-35.86,36.52C141.57-37.4,154.77-55.55,163.79-55.55ZM198.22-.88c4.07,0,8.91-3.3,15.07-10.01a2.456,2.456,0,0,0,.55-1.1,1.016,1.016,0,0,0-1.1-.99c-.44,0-.99.66-.99.66-5.72,6.38-9.9,9.13-12.98,9.13-2.86,0-4.73-1.87-4.73-5.94,0-3.85,2.2-6.49,2.2-7.15a1.453,1.453,0,0,0-1.43-1.43c-.99,0-3.08,3.41-6.05,6.93-3.63,4.4-11,11.33-15.62,11.33-1.76,0-2.86-.88-2.86-3.19,0-9.02,13.53-23.21,25.63-23.21,3.3,0,4.18,2.2,4.18,3.74a19.556,19.556,0,0,1-.33,2.2.583.583,0,0,0,.66.66c.66,0,1.98-1.54,1.98-3.52,0-2.75-2.31-5.5-7.48-5.5-11.99,0-27.61,14.85-27.61,25.63a5.311,5.311,0,0,0,5.5,5.72c5.61,0,13.97-8.03,18.26-12.98C191.07-4.62,194.04-.88,198.22-.88Zm43.01-27.28c0-3.74-2.42-5.83-3.3-5.83a.616.616,0,0,0-.55.66c0,.55.88,1.87.88,4.18,0,6.38-4.18,13.09-9.13,18.48a.661.661,0,0,0-.44-.11,3.153,3.153,0,0,0-2.75,2.75v.55c-4.4,3.96-8.91,6.6-11,6.6a2.637,2.637,0,0,1-2.86-2.97c0-6.05,8.58-17.71,11.22-21.12a2.421,2.421,0,0,0,.66-1.32,1.553,1.553,0,0,0-1.54-1.32c-1.76,0-13.53,16.5-13.53,24.09a5.624,5.624,0,0,0,5.39,5.39c2.97,0,8.03-2.75,12.87-6.82a10.987,10.987,0,0,0,7.59,2.75c5.17,0,10.45-2.64,15.95-8.69a2.456,2.456,0,0,0,.55-1.1.986.986,0,0,0-.99-.99c-.55,0-1.1.66-1.1.66C244.2-6.6,239.58-4.4,235.29-4.4c-2.97,0-4.84-1.43-5.39-3.08C235.95-13.42,241.23-21.23,241.23-28.16Zm40.26,17.27a2.456,2.456,0,0,0,.55-1.1.923.923,0,0,0-.99-.99c-.55,0-1.1.66-1.1.66S269.06.77,256.63.77c-4.51,0-7.48-2.75-7.48-6.93a13.312,13.312,0,0,1,.11-2.09c9.24-2.2,24.31-8.36,24.31-14.85,0-2.75-2.09-4.73-5.5-4.73-8.36,0-22,11.11-22,21.34,0,6.27,4.84,9.79,10.56,9.79C269.39,3.3,281.49-10.89,281.49-10.89ZM268.51-25.41a2.174,2.174,0,0,1,2.42,1.98c0,5.06-12.54,10.67-20.9,12.65C253-18.26,262.13-25.41,268.51-25.41ZM-245.52,139.12c4.07,0,8.91-3.3,15.07-10.01a2.456,2.456,0,0,0,.55-1.1,1.016,1.016,0,0,0-1.1-.99c-.44,0-.99.66-.99.66-5.72,6.38-9.9,9.13-12.98,9.13-2.86,0-4.73-1.87-4.73-5.94,0-3.85,2.2-6.49,2.2-7.15a1.453,1.453,0,0,0-1.43-1.43c-.99,0-3.08,3.41-6.05,6.93-3.63,4.4-11,11.33-15.62,11.33-1.76,0-2.86-.88-2.86-3.19,0-9.02,13.53-23.21,25.63-23.21,3.3,0,4.18,2.2,4.18,3.74a19.555,19.555,0,0,1-.33,2.2.583.583,0,0,0,.66.66c.66,0,1.98-1.54,1.98-3.52,0-2.75-2.31-5.5-7.48-5.5-11.99,0-27.61,14.85-27.61,25.63a5.311,5.311,0,0,0,5.5,5.72c5.61,0,13.97-8.03,18.26-12.98C-252.67,135.38-249.7,139.12-245.52,139.12Zm57.2-9.02a7.675,7.675,0,0,0,7.7,8.8c2.53,0,5.5-1.32,8.25-3.52a10.69,10.69,0,0,0,7.26,2.42c5.17,0,10.45-2.64,15.95-8.69a2.456,2.456,0,0,0,.55-1.1.986.986,0,0,0-.99-.99c-.55,0-1.1.66-1.1.66-4.95,5.72-9.57,7.92-13.86,7.92-2.75,0-4.62-1.21-5.28-2.75,3.41-3.74,5.83-8.8,5.83-13.86,0-3.74-2.53-5.94-3.41-5.94a.634.634,0,0,0-.66.66c0,.55,1.21,1.98,1.21,4.4a20.222,20.222,0,0,1-3.74,11.33.84.84,0,0,0-.55-.22,3.153,3.153,0,0,0-2.75,2.75,3.391,3.391,0,0,0,.11,1.1c-2.09,1.98-4.4,3.19-6.27,3.19-3.3,0-5.06-1.87-5.06-5.5,0-5.17,5.06-10.23,5.06-11.22a1.586,1.586,0,0,0-1.43-1.65c-.99,0-3.08,3.85-8.8,10.45-5.5,6.27-11.55,11.66-15.29,11.66-2.31,0-3.41-1.32-3.41-4.18,0-9.13,11.22-21.34,15.4-23.98.55-.44.66-.77.66-.99a1.528,1.528,0,0,0-1.43-1.32c-3.41,0-17.93,15.84-17.93,26.73a6.035,6.035,0,0,0,6.38,6.27C-201.74,142.53-194.15,136.7-188.32,130.1Zm57.97,6.38c4.95,0,10.56-2.31,15.51-7.37a2.456,2.456,0,0,0,.55-1.1.986.986,0,0,0-.99-.99c-.55,0-1.1.66-1.1.66-4.07,4.29-8.8,6.49-13.42,6.49h-.77c4.18-4.51,7.37-10.34,7.37-15.84,0-7.48-4.18-11-9.46-11-6.38,0-13.53,5.06-14.74,11.77a19.717,19.717,0,0,0-5.06,13.31c0,6.05,3.63,9.24,8.36,9.24,3.52,0,7.7-2.09,11.33-5.28A17.031,17.031,0,0,0-130.35,136.48Zm-14.52-15.73A21.444,21.444,0,0,1-132,113.6c.77-.11,1.21-.22,1.21-.88s-.77-.88-1.76-.88a19.87,19.87,0,0,0-10.12,3.19c2.53-3.08,6.82-5.06,9.9-5.06,3.41,0,6.71,2.64,6.71,8.36,0,5.39-3.41,11.22-7.59,15.4C-140.36,132.08-144.87,126.47-144.87,120.75Zm1.32,18.26c-3.85,0-5.83-1.98-5.83-6.6a16.751,16.751,0,0,1,2.2-8.47c1.21,5.17,5.61,9.79,11.33,11.66C-138.49,137.69-141.24,139.01-143.55,139.01Zm74.69-9.9a2.456,2.456,0,0,0,.55-1.1,1.016,1.016,0,0,0-1.1-.99c-.44,0-.99.66-.99.66s-8.8,10.45-16.5,10.45a3.213,3.213,0,0,1-3.52-3.19c0-4.95,10.67-12.21,10.67-18.04a4.655,4.655,0,0,0-4.84-4.73c-8.14,0-23.54,12.54-31.9,22.22a121.158,121.158,0,0,1,13.09-18.15c.77-.88,1.1-1.21,1.1-1.65a1.774,1.774,0,0,0-1.54-1.32c-1.65,0-10.34,11.99-14.52,19.14-2.31,3.96-3.63,6.6-3.63,7.48a1.6,1.6,0,0,0,1.54,1.65c.66,0,1.1-.33,1.87-1.32,11.55-13.53,26.29-25.41,33.33-25.41a2.147,2.147,0,0,1,2.31,2.09c0,4.73-10.78,11.99-10.78,18.37,0,3.19,2.31,5.39,5.83,5.39C-78.87,140.66-68.86,129.11-68.86,129.11Zm23.54,2.86a16.28,16.28,0,0,1,.11-2.2c14.63-13.86,30.03-34.65,30.03-42.02,0-3.41-2.09-5.17-4.84-5.17-8.69,0-18.59,17.27-24.09,32.23a7.512,7.512,0,0,0-5.94-2.31c-8.69,0-22.66,12.54-22.66,23.32a6.981,6.981,0,0,0,6.93,7.26c4.07,0,10.56-4.29,17.6-10.56.11,5.72,3.3,8.14,7.59,8.14,8.25,0,18.26-11.55,18.26-11.55a2.456,2.456,0,0,0,.55-1.1,1.016,1.016,0,0,0-1.1-.99c-.44,0-.99.66-.99.66s-8.8,10.45-16.5,10.45C-42.68,138.13-45.32,136.92-45.32,131.97Zm-20.24,8.58a4.188,4.188,0,0,1-4.29-4.4c0-9.46,12.76-21.34,20.24-21.34,2.86,0,4.07,1.32,4.73,2.42a65.123,65.123,0,0,0-3.08,12.1C-55.11,135.93-61.71,140.55-65.56,140.55Zm45.32-55.44a2.338,2.338,0,0,1,2.53,2.42c0,6.93-13.64,25.3-26.84,38.5C-41.25,111.62-29.15,85.11-20.24,85.11Zm30.36,44a2.456,2.456,0,0,0,.55-1.1.923.923,0,0,0-.99-.99c-.55,0-1.1.66-1.1.66s-10.89,13.09-23.32,13.09c-4.51,0-7.48-2.75-7.48-6.93a13.312,13.312,0,0,1,.11-2.09c9.24-2.2,24.31-8.36,24.31-14.85,0-2.75-2.09-4.73-5.5-4.73-8.36,0-22,11.11-22,21.34,0,6.27,4.84,9.79,10.56,9.79C-1.98,143.3,10.12,129.11,10.12,129.11ZM-2.86,114.59a2.174,2.174,0,0,1,2.42,1.98c0,5.06-12.54,10.67-20.9,12.65C-18.37,121.74-9.24,114.59-2.86,114.59ZM8.58,127.68a2.456,2.456,0,0,0-.55,1.1.9.9,0,0,0,.99.88,1.92,1.92,0,0,0,1.1-.55c4.07-4.62,8.91-10.89,10.56-13.2.66-.88.88-1.21,1.32-1.21.66,0,2.64,1.21,4.84,2.75.77.55,1.32.88,1.32,1.54,0,4.18-9.13,10.78-9.13,17.6a5.431,5.431,0,0,0,5.72,5.5c5.83,0,13.31-6.27,19.47-12.98a2.456,2.456,0,0,0,.55-1.1.986.986,0,0,0-.99-.99c-.55,0-1.1.66-1.1.66-5.72,6.38-12.32,12.1-17.27,12.1a3.263,3.263,0,0,1-3.52-3.41c0-6.38,9.57-13.31,9.57-18.04,0-.88-.33-1.43-1.54-1.98-2.2-1.21-6.6-3.85-6.6-4.62,0-1.76,4.73-6.05,4.73-7.7a2.342,2.342,0,0,0-2.09-1.87c-2.31,0-4.4,7.04-5.72,9.68C18.48,115.25,12.32,123.5,8.58,127.68Zm36.85.55C59.95,118,86.35,97.76,86.35,87.42a5.257,5.257,0,0,0-5.61-5.39c-10.89,0-24.53,18.92-34.98,39.16-1.98,3.74-3.74,7.7-5.39,11.66-.22,0-.33-.11-.55-.11a2.834,2.834,0,0,0-2.42,2.75c0,.77.33,1.21,1.32,1.54-3.96,10.56-6.71,21.89-6.71,33.11,0,8.91,3.3,12.43,7.37,12.43,7.04,0,12.21-17.27,12.21-28.38,0-11.55-3.74-14.63-3.96-14.85,8.47,0,13.53-5.83,17.71-10.23a2.456,2.456,0,0,0,.55-1.1,1.016,1.016,0,0,0-1.1-.99c-.44,0-.99.66-.99.66-3.63,3.96-8.58,9.46-14.96,9.46a9.421,9.421,0,0,1-6.16-2.64C43.45,132.41,44.44,130.32,45.43,128.23Zm-3.41,9.68c3.08.66,7.04,4.07,7.04,16.06,0,10.34-4.73,26.29-9.68,26.29-2.53,0-4.73-2.64-4.73-9.9,0-11.22,2.64-22.22,6.71-32.56C41.58,137.8,41.8,137.91,42.02,137.91ZM80.96,84.45a2.633,2.633,0,0,1,2.75,2.64c0,8.69-25.08,28.82-35.86,36.52C58.74,102.6,71.94,84.45,80.96,84.45Zm26.4,44.66a2.456,2.456,0,0,0,.55-1.1.986.986,0,0,0-.99-.99c-.55,0-1.1.66-1.1.66s-8.36,9.9-14.96,9.9a4.169,4.169,0,0,1-4.18-4.18A7.915,7.915,0,0,1,88,129.11a106.363,106.363,0,0,1,7.48-10.67c.55-.66.77-.99.77-1.32a1.774,1.774,0,0,0-1.54-1.32c-.44,0-.77.33-1.54,1.21-2.09,2.53-4.84,6.6-8.25,10.89-5.17,6.49-11.77,13.42-16.94,13.42-2.31,0-3.96-1.54-3.96-4.29,0-8.58,10.45-20.35,13.09-23.21.55-.55.88-.99.88-1.32a1.673,1.673,0,0,0-1.65-1.43c-1.65,0-15.62,16.83-15.62,26.29a6.485,6.485,0,0,0,6.71,6.49c6.49,0,13.75-7.92,16.39-10.45a6.71,6.71,0,0,0,6.71,6.6C97.79,140,107.36,129.11,107.36,129.11Zm25.52,0a2.456,2.456,0,0,0,.55-1.1,1.016,1.016,0,0,0-1.1-.99c-.44,0-.99.66-.99.66-1.54,1.65-10.56,11.99-17.6,11.99-3.85,0-5.94-2.2-5.94-6.05,0-3.52.99-4.84.99-4.84,13.75-12.76,34.98-34.43,34.98-42.68a4.247,4.247,0,0,0-4.51-4.62c-9.9,0-34.21,33.77-34.21,52.14,0,5.39,3.52,8.58,8.14,8.58C121.22,142.2,131.34,130.76,132.88,129.11Zm6.49-45.32a1.733,1.733,0,0,1,1.87,1.87c0,7.48-20.9,28.82-32.23,39.71C114.4,108.98,132.22,83.79,139.37,83.79Zm39.05,48.18a16.28,16.28,0,0,1,.11-2.2c14.63-13.86,30.03-34.65,30.03-42.02,0-3.41-2.09-5.17-4.84-5.17-8.69,0-18.59,17.27-24.09,32.23a7.512,7.512,0,0,0-5.94-2.31c-8.69,0-22.66,12.54-22.66,23.32a6.981,6.981,0,0,0,6.93,7.26c4.07,0,10.56-4.29,17.6-10.56.11,5.72,3.3,8.14,7.59,8.14,8.25,0,18.26-11.55,18.26-11.55a2.456,2.456,0,0,0,.55-1.1,1.016,1.016,0,0,0-1.1-.99c-.44,0-.99.66-.99.66s-8.8,10.45-16.5,10.45C181.06,138.13,178.42,136.92,178.42,131.97Zm-20.24,8.58a4.188,4.188,0,0,1-4.29-4.4c0-9.46,12.76-21.34,20.24-21.34,2.86,0,4.07,1.32,4.73,2.42a65.122,65.122,0,0,0-3.08,12.1C168.63,135.93,162.03,140.55,158.18,140.55ZM203.5,85.11a2.338,2.338,0,0,1,2.53,2.42c0,6.93-13.64,25.3-26.84,38.5C182.49,111.62,194.59,85.11,203.5,85.11Zm23.87,54.01c4.07,0,8.91-3.3,15.07-10.01a2.456,2.456,0,0,0,.55-1.1,1.016,1.016,0,0,0-1.1-.99c-.44,0-.99.66-.99.66-5.72,6.38-9.9,9.13-12.98,9.13-2.86,0-4.73-1.87-4.73-5.94,0-3.85,2.2-6.49,2.2-7.15a1.453,1.453,0,0,0-1.43-1.43c-.99,0-3.08,3.41-6.05,6.93-3.63,4.4-11,11.33-15.62,11.33-1.76,0-2.86-.88-2.86-3.19,0-9.02,13.53-23.21,25.63-23.21,3.3,0,4.18,2.2,4.18,3.74a19.555,19.555,0,0,1-.33,2.2.583.583,0,0,0,.66.66c.66,0,1.98-1.54,1.98-3.52,0-2.75-2.31-5.5-7.48-5.5-11.99,0-27.61,14.85-27.61,25.63a5.311,5.311,0,0,0,5.5,5.72c5.61,0,13.97-8.03,18.26-12.98C220.22,135.38,223.19,139.12,227.37,139.12Zm55.66-10.01a2.456,2.456,0,0,0,.55-1.1,1.016,1.016,0,0,0-1.1-.99c-.44,0-.99.66-.99.66-4.4,5.06-10.67,9.57-17.71,13.64l2.42-7.7c2.42-7.92,4.84-11.44,6.82-15.29a3.923,3.923,0,0,0,.66-1.43,1.537,1.537,0,0,0-1.43-1.43c-.44,0-.88.55-1.43,1.54-2.2,3.96-4.62,8.47-7.7,12.1-6.82,7.59-12.98,11.99-18.26,11.99-2.53,0-3.96-1.43-3.96-4.07,0-6.6,9.24-18.81,12.98-23.32.55-.66.66-.77.66-1.21a1.885,1.885,0,0,0-1.54-1.43c-1.76,0-15.4,18.15-15.4,25.96,0,4.18,2.75,6.71,6.6,6.71,6.05,0,13.09-5.17,19.25-11.44-.88,3.19-1.98,7.04-3.3,11.11-20.79,11.55-45.87,20.9-45.87,36.3,0,6.05,4.84,10.45,11.44,10.45,18.81,0,30.47-26.29,37.07-45.76C270.6,139.89,277.86,134.94,283.03,129.11Zm-57.64,58.41c-4.95,0-8.36-3.19-8.36-7.92,0-13.2,22.11-22,42.02-33.11C252.78,164.86,241.78,187.52,225.39,187.52Zm58.96-49.17a2.4,2.4,0,0,0,2.42,2.53c1.65,0,3.52-2.53,3.52-4.62a2.4,2.4,0,0,0-2.42-2.53C286.22,133.73,284.35,136.26,284.35,138.35Z" transform="translate(294.89 107.45) rotate(-6)" fill="#f59c9c"/>
  </g>
</svg>
