<svg xmlns="http://www.w3.org/2000/svg" width="189.336" height="51.888" viewBox="0 0 189.336 51.888">
  <path id="パス_3799" data-name="パス 3799" d="M-52.681-35.259a4.538,4.538,0,0,0-2.484,1.1C-62.341-28.911-80.626-5.8-80.626,5.451A1.761,1.761,0,0,0-78.97,7.038a.7.7,0,0,0,.759-.621c0-11.937,18.906-34.914,24.978-39.33.966-.69,1.518-.966,1.518-1.38A.937.937,0,0,0-52.681-35.259Zm19.044,5.037c0,12.834-13.386,19.665-22.425,19.665a23.421,23.421,0,0,1-8.073-1.173c-.414,0-.759.552-.759.9,0,.483,3.726,1.932,8.694,1.932,11.247,0,24.909-7.8,24.909-21.39,0-8.763-8.142-14.559-23.529-14.559-20.907,0-39.192,10.9-39.192,22.356,0,5.589,3.933,8.28,8.28,8.28,3.588,0,5.865-1.794,5.865-2.277a.468.468,0,0,0-.483-.483c-.483,0-2.139,1.1-4.692,1.1-3.657,0-6.555-2.208-6.555-6.693,0-9.8,17.25-20.148,36.777-20.148C-40.813-42.711-33.637-37.674-33.637-30.222Zm13.8,29.808c2.553,0,5.727-2.07,9.591-6.279a1.541,1.541,0,0,0,.345-.69.886.886,0,0,0-.828-.759c-.276,0-.621.414-.621.414-3.588,4-6.141,5.52-8.142,5.52-1.518,0-2.76-1.035-2.76-3.519,0-2.346,1.38-4,1.38-4.485a1.187,1.187,0,0,0-1.1-1.1c-.759,0-1.932,2-3.8,4.209-2.277,2.76-6.9,7.038-9.8,7.038-.966,0-1.449-.621-1.449-1.587,0-5.451,8.418-14.214,15.732-14.214,2.07,0,2.415,1.38,2.415,2,0,.69-.207.966-.207,1.449a.544.544,0,0,0,.552.552c.483,0,1.449-.966,1.449-2.346,0-1.725-1.38-3.519-4.83-3.519-7.59,0-17.457,9.315-17.457,16.077a3.333,3.333,0,0,0,3.588,3.588c3.519,0,8.625-4.692,11.316-7.8C-24.46-2.76-22.528-.414-19.837-.414ZM-1.9-17.733c0-1.035,2.967-3.519,2.967-4.554A1.838,1.838,0,0,0-.448-23.736c-1.725,0-2.9,4.416-3.726,6.072A68.968,68.968,0,0,1-11.35-7.728a1.541,1.541,0,0,0-.345.69.813.813,0,0,0,.759.69,1.2,1.2,0,0,0,.69-.345c2.553-2.9,5.451-6.624,6.486-8.073.414-.552.621-.759.9-.759.414,0,1.242.552,2.691,1.587.483.345.828.621.828.966,0,2.415-5.589,6.555-5.589,10.833a3.446,3.446,0,0,0,3.726,3.45c3.657,0,8.487-3.795,12.351-8a1.541,1.541,0,0,0,.345-.69.879.879,0,0,0-.759-.759c-.345,0-.69.414-.69.414C6.452-3.726,2.45-.483-.793-.483A1.654,1.654,0,0,1-2.656-2.277c0-4,6-8.28,6-11.247,0-.69-.483-1.1-1.242-1.449C.725-15.732-1.9-17.319-1.9-17.733ZM12.11-20.079c1.035,0,2.346.138,3.726.276C12.248-14.49,9.074-8.349,9.074-3.45A3.711,3.711,0,0,0,13.007.414c5.658,0,12.075-7.107,12.075-7.107a1.541,1.541,0,0,0,.345-.69.886.886,0,0,0-.828-.759c-.276,0-.621.414-.621.414s-5.52,6.141-10.35,6.141a1.839,1.839,0,0,1-2-2c0-5.037,3.105-10.971,6.555-15.87,2.76.345,5.589.759,7.383.759.621,0,1.449-.69,1.449-1.173,0-.276-.138-.552-.966-.552a49.807,49.807,0,0,1-6.624-.759c3.174-4.209,6.21-7.59,7.107-8.625.552-.69.759-.828.759-1.173a1.312,1.312,0,0,0-1.173-1.242c-.276,0-.621.207-1.035.69a126.4,126.4,0,0,0-8.073,10,38.451,38.451,0,0,0-4.554-.345c-2.829,0-4.071,1.1-4.071,1.794a.7.7,0,0,0,.759.69C9.626-19.389,10.04-20.079,12.11-20.079ZM53.234-6.693a1.541,1.541,0,0,0,.345-.69.886.886,0,0,0-.828-.759c-.276,0-.621.414-.621.414s-5.037,6.141-10.35,6.141c-1.242,0-1.863-.552-1.863-1.587,0-3.174,6.486-7.521,6.486-11.316a3.039,3.039,0,0,0-3.174-2.967c-4.83,0-13.455,6.693-19.044,12.765A71.529,71.529,0,0,1,31.5-14.628c.483-.552.69-.828.69-1.035a1.134,1.134,0,0,0-1.173-1.1c-1.1,0-6.486,7.521-9.108,12.006-1.449,2.484-2.277,4.14-2.277,4.692a1.12,1.12,0,0,0,1.1,1.035A1.664,1.664,0,0,0,22.253.138C29.5-8.349,38.4-15.387,42.814-15.387a.972.972,0,0,1,1.1.9c0,3.036-6.624,7.383-6.624,11.523,0,2,1.587,3.381,3.864,3.381C46.817.414,53.234-6.693,53.234-6.693Zm20.355,0a1.541,1.541,0,0,0,.345-.69.816.816,0,0,0-.759-.759c-.345,0-.69.414-.69.414S66.137.069,57.857.069C55.3.069,53.51-1.449,53.51-3.864a3.821,3.821,0,0,1,.138-1.242C59.375-6.555,68.62-10.35,68.62-14.49c0-1.725-1.449-2.967-3.588-2.967-5.313,0-13.938,6.969-13.938,13.386,0,3.933,3.036,6.141,6.762,6.141C65.861,2.07,73.589-6.693,73.589-6.693Zm-8.28-8.832c1.035,0,1.242.621,1.242.828,0,2.9-7.038,6.21-12.282,7.59C56.27-11.385,61.514-15.525,65.309-15.525Zm16.629-2.208c0-1.035,2.967-3.519,2.967-4.554a1.838,1.838,0,0,0-1.518-1.449c-1.725,0-2.9,4.416-3.726,6.072a68.968,68.968,0,0,1-7.176,9.936,1.541,1.541,0,0,0-.345.69.813.813,0,0,0,.759.69,1.2,1.2,0,0,0,.69-.345c2.553-2.9,5.451-6.624,6.486-8.073.414-.552.621-.759.9-.759.414,0,1.242.552,2.691,1.587.483.345.828.621.828.966,0,2.415-5.589,6.555-5.589,10.833a3.446,3.446,0,0,0,3.726,3.45c3.657,0,8.487-3.795,12.351-8a1.541,1.541,0,0,0,.345-.69.879.879,0,0,0-.759-.759c-.345,0-.69.414-.69.414-3.588,4-7.59,7.245-10.833,7.245a1.654,1.654,0,0,1-1.863-1.794c0-4,6-8.28,6-11.247,0-.69-.483-1.1-1.242-1.449C84.559-15.732,81.938-17.319,81.938-17.733Z" transform="translate(94.013 44.85)" fill="#f59c9c"/>
</svg>
