<svg xmlns="http://www.w3.org/2000/svg" width="102.83" height="71.82" viewBox="0 0 102.83 71.82">
  <path id="パス_3797" data-name="パス 3797" d="M-2.31-12.6c0-.63-2.1-3.01-5.67-3.01a16,16,0,0,0-1.75.14C-6.58-23.31-3.08-30.8,2.31-35.7c2.8-.84,5.67-2.1,5.67-3.71a1.364,1.364,0,0,0-1.54-1.4c-1.05,0-3.08,1.33-4.62,2.8-9.87,0-21.7-8.89-34.3-8.89-9.45,0-18.27,4.48-18.27,13.86,0,6.86,5.81,10.64,12.18,10.64,1.05,0,1.33-.28,1.33-.63s-.21-.63-1.05-.63c-5.46,0-10.01-3.64-10.01-9.38,0-7.98,7.7-11.48,15.89-11.48,11.13,0,25.27,8.61,31.99,8.61-5.6,5.32-9.17,13.09-12.25,21a16.592,16.592,0,0,1-2.94.35c-2.31,0-3.78-.91-4.06-2.03-.14-.56-.35-.77-.77-.77-.56,0-1.19.77-1.19,1.47,0,1.96,2.17,3.64,5.67,3.64a14.29,14.29,0,0,0,2.38-.21c-5.18,13.65-9.38,26.95-20.58,26.95-5.32,0-7.7-3.5-7.7-7,0-5.11,4.62-7.77,4.62-8.19,0-.21-.21-.56-.42-.56-.63,0-6.72,3.29-6.72,9.24,0,4.62,3.5,8.68,10.22,8.68,13.09,0,17.85-14.98,23.52-29.68a9.759,9.759,0,0,1,2.24-.35c4.34,0,4.97,1.47,5.46,1.47A.645.645,0,0,0-2.31-12.6ZM16.87-.42c2.59,0,5.81-2.1,9.73-6.37a1.563,1.563,0,0,0,.35-.7.9.9,0,0,0-.84-.77c-.28,0-.63.42-.63.42-3.64,4.06-6.23,5.6-8.26,5.6-1.54,0-2.8-1.05-2.8-3.57,0-2.38,1.4-4.06,1.4-4.55a1.2,1.2,0,0,0-1.12-1.12c-.77,0-1.96,2.03-3.85,4.27C8.54-4.41,3.85-.07.91-.07-.07-.07-.56-.7-.56-1.68-.56-7.21,7.98-16.1,15.4-16.1c2.1,0,2.45,1.4,2.45,2.03,0,.7-.21.98-.21,1.47a.552.552,0,0,0,.56.56c.49,0,1.47-.98,1.47-2.38,0-1.75-1.4-3.57-4.9-3.57-7.7,0-17.71,9.45-17.71,16.31A3.381,3.381,0,0,0,.7,1.96c3.57,0,8.75-4.76,11.48-7.91C12.18-2.8,14.14-.42,16.87-.42ZM51.73-6.79a1.563,1.563,0,0,0,.35-.7.891.891,0,0,0-.77-.77c-.35,0-.7.42-.7.42S44.73-.91,39.69,0C38.22.28,37.1.49,37.1,2.73c0,7.42-3.78,20.09-7.63,20.09-.77,0-1.68-.42-1.68-2.52,0-6.58,10.29-22.82,12.25-25.76s2.73-3.64,2.73-4.06a1.349,1.349,0,0,0-1.19-1.05c-.35,0-1.54,1.4-4.13,3.78C34.93-4.48,30.38-.84,27.44-.84c-.77,0-1.61-.35-1.61-1.82,0-5.25,9.59-12.81,16.52-12.81,2.1,0,2.38.91,2.38,1.61,0,.63-.35,1.05-.35,1.4a.824.824,0,0,0,.77.7c.63,0,1.33-.77,1.33-2.1,0-1.54-1.26-3.64-4.83-3.64-7.35,0-18.27,8.33-18.27,14.77a3.726,3.726,0,0,0,3.78,3.85c3.29,0,7.91-3.78,10.08-5.74-.56.77-11.76,16.8-11.76,24.92,0,3.15,1.89,4.62,3.99,4.62,5.32,0,10.15-14.28,9.73-22.96C44.87.84,51.73-6.79,51.73-6.79Z" transform="translate(50.75 46.9)" fill="#f59c9c"/>
</svg>
