<svg xmlns="http://www.w3.org/2000/svg" width="189.42" height="91.14" viewBox="0 0 189.42 91.14"><path d="M-81.795-44.03c-6.3,0-12.25,3.85-12.25,10.64,0,9.03,9.52,14.56,20.37,16.31a31.044,31.044,0,0,0-3.57,13.72c0,9.1,5.95,14.14,14.63,14.14a23.255,23.255,0,0,0,9.38-2.17l-2.52,6.3h-.28c-15.4,0-35.7,9.87-35.7,22.19,0,5.04,3.99,8.54,9.1,8.54,14.56,0,22.82-14.56,28.7-28.63,4.41.35,9.8,1.96,10.57,7.28.07.49.21.91.7.91s.63-.35.63-1.54c0-5.67-5.74-7.98-11.06-8.61l3.15-8.12c7.21-4.27,12.53-11.13,12.53-15.05a2.906,2.906,0,0,0-3.08-2.94c-4.48,0-7.84,7.49-11.62,16.87A21.929,21.929,0,0,1-62.4,8.68c-7.77,0-12.32-4.69-12.32-12.32a28.377,28.377,0,0,1,3.71-13.09,40.546,40.546,0,0,0,5.04.28c17.92,0,39.62-10.5,39.62-22.82,0-3.71-2.73-6.23-7.63-6.23-13.02,0-30.38,12.04-38.57,26.39-10.22-1.47-19.04-6.37-19.04-14.14,0-5.32,4.9-8.47,9.94-8.47,7.84,0,11.13,4.83,11.76,4.83a.943.943,0,0,0,.98-.98C-68.915-38.57-74.1-44.03-81.795-44.03Zm47.88.7c2.94,0,5.11,1.4,5.11,3.78,0,11.55-21.7,20.93-36.82,20.93-1.4,0-2.87,0-4.27-.14C-61.845-31.99-45.6-43.33-33.915-43.33Zm-48.51,86.59c-4.13,0-6.86-2.31-6.86-6.09,0-11.2,19.04-20.09,32.69-20.23C-62.265,30.24-69.755,43.26-82.425,43.26Zm41.86-52.01a.683.683,0,0,1,.7.77c0,3.15-3.71,7.98-8.89,11.69C-45.955-3.5-43.435-8.75-40.565-8.75Zm25.2,8.33c2.59,0,5.81-2.1,9.73-6.37a1.563,1.563,0,0,0,.35-.7.9.9,0,0,0-.84-.77c-.28,0-.63.42-.63.42-3.64,4.06-6.23,5.6-8.26,5.6-1.54,0-2.8-1.05-2.8-3.57,0-2.38,1.4-4.06,1.4-4.55a1.2,1.2,0,0,0-1.12-1.12c-.77,0-1.96,2.03-3.85,4.27-2.31,2.8-7,7.14-9.94,7.14-.98,0-1.47-.63-1.47-1.61,0-5.53,8.54-14.42,15.96-14.42,2.1,0,2.45,1.4,2.45,2.03,0,.7-.21.98-.21,1.47a.552.552,0,0,0,.56.56c.49,0,1.47-.98,1.47-2.38,0-1.75-1.4-3.57-4.9-3.57-7.7,0-17.71,9.45-17.71,16.31a3.381,3.381,0,0,0,3.64,3.64c3.57,0,8.75-4.76,11.48-7.91C-20.055-2.8-18.095-.42-15.365-.42Zm25.97-6.37a1.563,1.563,0,0,0,.35-.7.9.9,0,0,0-.84-.77c-.28,0-.63.42-.63.42-.91,1.05-6.44,7.21-11.2,7.21-2.31,0-3.5-1.19-3.5-3.43a6.371,6.371,0,0,1,.63-3.22c8.82-8.12,22.12-21.77,22.12-27.02a2.811,2.811,0,0,0-3.01-2.94c-6.58,0-21.91,21.49-21.91,33.18A5.071,5.071,0,0,0-2.065,1.4C2.975,1.4,9.625-5.67,10.605-6.79ZM14.6-35.42a.823.823,0,0,1,.91.84c0,4.83-12.11,17.57-19.74,24.5C-.525-21.35,10.465-35.42,14.6-35.42ZM26.845-6.79a1.563,1.563,0,0,0,.35-.7.9.9,0,0,0-.84-.77c-.28,0-.63.42-.63.42-.91,1.05-6.44,7.21-11.2,7.21-2.31,0-3.5-1.19-3.5-3.43a6.371,6.371,0,0,1,.63-3.22c8.82-8.12,22.12-21.77,22.12-27.02a2.811,2.811,0,0,0-3.01-2.94c-6.58,0-21.91,21.49-21.91,33.18a5.071,5.071,0,0,0,5.32,5.46C19.215,1.4,25.865-5.67,26.845-6.79Zm3.99-28.63a.823.823,0,0,1,.91.84c0,4.83-12.11,17.57-19.74,24.5C15.715-21.35,26.705-35.42,30.835-35.42ZM47.495-6.79a1.563,1.563,0,0,0,.35-.7.827.827,0,0,0-.77-.77c-.35,0-.7.42-.7.42S39.935.07,31.535.07c-2.59,0-4.41-1.54-4.41-3.99a3.876,3.876,0,0,1,.14-1.26c5.81-1.47,15.19-5.32,15.19-9.52,0-1.75-1.47-3.01-3.64-3.01-5.39,0-14.14,7.07-14.14,13.58,0,3.99,3.08,6.23,6.86,6.23C39.655,2.1,47.495-6.79,47.495-6.79Zm-8.4-8.96c1.05,0,1.26.63,1.26.84,0,2.94-7.14,6.3-12.46,7.7C29.925-11.55,35.245-15.75,39.095-15.75Zm16.87-2.24c0-1.05,3.01-3.57,3.01-4.62a1.865,1.865,0,0,0-1.54-1.47c-1.75,0-2.94,4.48-3.78,6.16a69.967,69.967,0,0,1-7.28,10.08,1.563,1.563,0,0,0-.35.7.824.824,0,0,0,.77.7,1.222,1.222,0,0,0,.7-.35c2.59-2.94,5.53-6.72,6.58-8.19.42-.56.63-.77.91-.77.42,0,1.26.56,2.73,1.61.49.35.84.63.84.98,0,2.45-5.67,6.65-5.67,10.99a3.5,3.5,0,0,0,3.78,3.5c3.71,0,8.61-3.85,12.53-8.12a1.563,1.563,0,0,0,.35-.7.891.891,0,0,0-.77-.77c-.35,0-.7.42-.7.42-3.64,4.06-7.7,7.35-10.99,7.35a1.678,1.678,0,0,1-1.89-1.82c0-4.06,6.09-8.4,6.09-11.41,0-.7-.49-1.12-1.26-1.47C58.625-15.96,55.965-17.57,55.965-17.99Zm39.06,11.2a1.563,1.563,0,0,0,.35-.7.9.9,0,0,0-.84-.77c-.28,0-.63.42-.63.42-2.73,3.15-6.65,5.88-11.06,8.4.56-1.61,1.05-3.22,1.47-4.62a43.837,43.837,0,0,1,4.27-9.52,2.715,2.715,0,0,0,.42-.98,1.075,1.075,0,0,0-1.05-1.05c-.56,0-.77.35-1.12.98a43.6,43.6,0,0,1-4.9,7.56c-4.2,4.83-8.05,7.35-11.34,7.35a1.955,1.955,0,0,1-2.17-2.17c0-4.06,5.67-11.69,7.98-14.56.35-.42.49-.63.49-.77a1.4,1.4,0,0,0-1.19-1.19c-1.33,0-9.94,11.55-9.94,16.52a4.079,4.079,0,0,0,4.41,4.27c3.5,0,7.84-2.87,11.76-6.79-.56,1.96-1.26,4.27-2.1,6.65-13.16,7.21-28.84,13.23-28.84,23.03,0,3.85,3.01,6.65,7.42,6.65C70.455,31.92,77.8,15.47,82,3.08,87.045.14,91.735-3.01,95.025-6.79ZM58.2,29.82c-3.15,0-5.04-1.96-5.04-4.62,0-7.98,13.44-13.51,25.83-20.37C74.935,16.17,68.215,29.82,58.2,29.82Z" transform="translate(94.045 45.5)" fill="#f59c9c"/></svg>