<svg xmlns="http://www.w3.org/2000/svg" width="140.84" height="75.53" viewBox="0 0 140.84 75.53">
  <path id="パス_3798" data-name="パス 3798" d="M-19.81-37.8c0-4.83-3.71-7.63-10.22-7.63-10.78,0-22.26,8.75-22.26,19.11,0,12.39,16.94,16.52,16.94,30.31,0,11.13-12.32,23.94-25.27,23.94-8.96,0-13.37-5.04-13.37-11.9,0-11.9,10.5-19.67,16.87-19.67,3.36,0,5.18,1.75,5.18,5.04,0,6.51-4.9,10.43-6.44,11.62-.35.28-.49.42-.49.7a.677.677,0,0,0,.63.63,1.131,1.131,0,0,0,.7-.28c1.61-1.19,7.91-5.74,7.91-12.67,0-4.34-3.15-7.28-7.49-7.28-6.93,0-19.32,9.03-19.32,22.05,0,7.7,5.53,13.93,15.61,13.93,14.56,0,28.21-14.14,28.21-26.11,0-14.63-17.15-19.25-17.15-30.31,0-9.66,10.29-16.73,19.74-16.73,5.53,0,7.84,2.03,7.84,5.32,0,5.32-5.25,8.75-6.86,10.08-.42.35-.56.49-.56.77,0,.21.28.63.56.63a1.865,1.865,0,0,0,.91-.35C-26.11-27.79-19.81-31.99-19.81-37.8Zm-1.05,17.43c1.05,0,2.38.14,3.78.28C-20.72-14.7-23.94-8.47-23.94-3.5A3.765,3.765,0,0,0-19.95.42C-14.21.42-7.7-6.79-7.7-6.79a1.563,1.563,0,0,0,.35-.7.9.9,0,0,0-.84-.77c-.28,0-.63.42-.63.42s-5.6,6.23-10.5,6.23a1.865,1.865,0,0,1-2.03-2.03c0-5.11,3.15-11.13,6.65-16.1,2.8.35,5.67.77,7.49.77.63,0,1.47-.7,1.47-1.19,0-.28-.14-.56-.98-.56a50.528,50.528,0,0,1-6.72-.77c3.22-4.27,6.3-7.7,7.21-8.75.56-.7.77-.84.77-1.19a1.331,1.331,0,0,0-1.19-1.26c-.28,0-.63.21-1.05.7a128.231,128.231,0,0,0-8.19,10.15,39.009,39.009,0,0,0-4.62-.35c-2.87,0-4.13,1.12-4.13,1.82a.715.715,0,0,0,.77.7C-23.38-19.67-22.96-20.37-20.86-20.37ZM10.71-15.4c-.28,0-.56.28-1.05.84-1.33,1.61-3.01,4.2-5.25,6.86C1.12-3.71-2.87.42-6.16.42A2.063,2.063,0,0,1-8.33-1.89c0-5.18,6.51-12.67,8.19-14.49.35-.35.56-.63.56-.84A1.412,1.412,0,0,0-.84-18.41c-1.47,0-10.15,10.92-10.15,16.73A4.185,4.185,0,0,0-6.51,2.45c4.13,0,8.61-4.9,10.29-6.51A4.274,4.274,0,0,0,8.19,0c4.62,0,10.85-6.79,10.85-6.79a1.563,1.563,0,0,0,.35-.7.891.891,0,0,0-.77-.77c-.35,0-.7.42-.7.42S13.02-1.96,8.4-1.96A2.2,2.2,0,0,1,6.02-4.2a5.037,5.037,0,0,1,.84-2.73,62.188,62.188,0,0,1,4.55-6.51c.35-.42.49-.63.49-.84A1.151,1.151,0,0,0,10.71-15.4Zm9.03,3.43c-1.19,2.31-2.24,4.69-3.29,7.21a.631.631,0,0,0-.35-.07,2.036,2.036,0,0,0-1.75,1.96c0,.56.28.84.84,1.12a59.969,59.969,0,0,0-4.2,20.93c0,5.67,2.17,7.91,4.83,7.91,4.62,0,7.91-10.99,7.91-18.06,0-7.21-2.31-9.31-2.31-9.31,4.76,0,8.4-3.64,11.06-6.51a1.563,1.563,0,0,0,.35-.7.9.9,0,0,0-.84-.77c-.28,0-.63.42-.63.42-2.31,2.52-5.46,5.81-9.52,5.81a5.742,5.742,0,0,1-3.64-1.4l1.89-4.2c9.24-6.51,25.76-19.25,25.76-25.83a3.465,3.465,0,0,0-3.71-3.43C35.21-36.89,26.39-24.85,19.74-11.97ZM17.5-1.12c1.75.42,4.2,2.38,4.2,10.01,0,6.16-2.94,16.38-5.88,16.38-1.4,0-2.73-1.61-2.73-5.95A57.1,57.1,0,0,1,17.36-1.12ZM42.28-34.93a1.353,1.353,0,0,1,1.47,1.26c0,5.18-14.84,17.29-21.7,22.26C28.84-24.22,36.89-34.93,42.28-34.93Zm-9.1,22.96c-1.19,2.31-2.24,4.69-3.29,7.21a.631.631,0,0,0-.35-.07,2.036,2.036,0,0,0-1.75,1.96c0,.56.28.84.84,1.12a59.969,59.969,0,0,0-4.2,20.93c0,5.67,2.17,7.91,4.83,7.91,4.62,0,7.91-10.99,7.91-18.06,0-7.21-2.31-9.31-2.31-9.31,4.76,0,8.4-3.64,11.06-6.51a1.563,1.563,0,0,0,.35-.7.9.9,0,0,0-.84-.77c-.28,0-.63.42-.63.42-2.31,2.52-5.46,5.81-9.52,5.81a5.742,5.742,0,0,1-3.64-1.4l1.89-4.2c9.24-6.51,25.76-19.25,25.76-25.83a3.465,3.465,0,0,0-3.71-3.43C48.65-36.89,39.83-24.85,33.18-11.97ZM30.94-1.12c1.75.42,4.2,2.38,4.2,10.01,0,6.16-2.94,16.38-5.88,16.38-1.4,0-2.73-1.61-2.73-5.95A57.1,57.1,0,0,1,30.8-1.12ZM55.72-34.93a1.353,1.353,0,0,1,1.47,1.26c0,5.18-14.84,17.29-21.7,22.26C42.28-24.22,50.33-34.93,55.72-34.93ZM54.81-3.36c0-4.62-2.38-6.58-2.38-9.73,0-2.66,3.01-4.97,3.01-5.74a1.627,1.627,0,0,0-1.4-1.4c-.84,0-2.03,1.75-3.22,3.92A48.585,48.585,0,0,1,44.8-7.84a1.563,1.563,0,0,0-.35.7.824.824,0,0,0,.77.7,1.222,1.222,0,0,0,.7-.35,42.238,42.238,0,0,0,4.27-5.53c.14,3.01,2.45,5.18,2.45,8.89a6.165,6.165,0,0,1-.14,1.19,34.356,34.356,0,0,1-5.95.35c-2.17,0-3.71.84-3.71,2.8,0,1.47,1.68,3.08,4.34,3.08a7.686,7.686,0,0,0,7.21-5.04,17.55,17.55,0,0,0,9.66-5.74,1.563,1.563,0,0,0,.35-.7.9.9,0,0,0-.84-.77c-.28,0-.63.42-.63.42a15.8,15.8,0,0,1-8.19,5.18A2.158,2.158,0,0,0,54.81-3.36Zm-7.56,5.6c-1.68,0-2.38-.7-2.38-1.47,0-1.4,3.01-.84,7.07-1.33A5.478,5.478,0,0,1,47.25,2.24Z" transform="translate(76.44 45.43)" fill="#f59c9c"/>
</svg>
