<svg xmlns="http://www.w3.org/2000/svg" width="135.87" height="52.64" viewBox="0 0 135.87 52.64">
  <path id="パス_3801" data-name="パス 3801" d="M-25.34-35.77a4.6,4.6,0,0,0-2.52,1.12C-35.14-29.33-53.69-5.88-53.69,5.53a1.787,1.787,0,0,0,1.68,1.61.706.706,0,0,0,.77-.63c0-12.11,19.18-35.42,25.34-39.9.98-.7,1.54-.98,1.54-1.4A.951.951,0,0,0-25.34-35.77Zm19.32,5.11c0,13.02-13.58,19.95-22.75,19.95a23.761,23.761,0,0,1-8.19-1.19c-.42,0-.77.56-.77.91,0,.49,3.78,1.96,8.82,1.96,11.41,0,25.27-7.91,25.27-21.7,0-8.89-8.26-14.77-23.87-14.77-21.21,0-39.76,11.06-39.76,22.68,0,5.67,3.99,8.4,8.4,8.4,3.64,0,5.95-1.82,5.95-2.31a.475.475,0,0,0-.49-.49c-.49,0-2.17,1.12-4.76,1.12-3.71,0-6.65-2.24-6.65-6.79,0-9.94,17.5-20.44,37.31-20.44C-13.3-43.33-6.02-38.22-6.02-30.66ZM.77-17.99c0-1.05,3.01-3.57,3.01-4.62a1.865,1.865,0,0,0-1.54-1.47c-1.75,0-2.94,4.48-3.78,6.16A69.967,69.967,0,0,1-8.82-7.84a1.563,1.563,0,0,0-.35.7.824.824,0,0,0,.77.7,1.222,1.222,0,0,0,.7-.35c2.59-2.94,5.53-6.72,6.58-8.19.42-.56.63-.77.91-.77.42,0,1.26.56,2.73,1.61.49.35.84.63.84.98,0,2.45-5.67,6.65-5.67,10.99a3.5,3.5,0,0,0,3.78,3.5c3.71,0,8.61-3.85,12.53-8.12a1.563,1.563,0,0,0,.35-.7.891.891,0,0,0-.77-.77c-.35,0-.7.42-.7.42C9.24-3.78,5.18-.49,1.89-.49A1.678,1.678,0,0,1,0-2.31c0-4.06,6.09-8.4,6.09-11.41,0-.7-.49-1.12-1.26-1.47C3.43-15.96.77-17.57.77-17.99ZM27.86-6.79a1.563,1.563,0,0,0,.35-.7.9.9,0,0,0-.84-.77c-.28,0-.63.42-.63.42S20.79-1.12,16.1-1.12a2.113,2.113,0,0,1-2.31-2.24c0-3.92,5.04-10.29,6.72-12.32a1.794,1.794,0,0,0,.42-.84,1,1,0,0,0-1.12-1.05c-1.19,0-8.4,9.45-8.4,14.21A3.9,3.9,0,0,0,15.61.7C21,.7,27.86-6.79,27.86-6.79ZM26.25-27.23c-1.19,0-2.31,1.75-2.31,2.94a1.272,1.272,0,0,0,1.33,1.26c1.12,0,2.31-1.75,2.31-3.01A1.217,1.217,0,0,0,26.25-27.23ZM47.6-6.79a1.563,1.563,0,0,0,.35-.7.891.891,0,0,0-.77-.77c-.35,0-.7.42-.7.42C44.8-6.02,39.41-.14,32.27-.14c-2.52,0-4.13-1.33-4.13-3.71,0-5.81,6.93-12.11,11.48-12.11,1.05,0,1.4.63,1.4,1.19,0,1.19-1.19,1.96-1.19,2.31a.851.851,0,0,0,.84.84,3.791,3.791,0,0,0,2.31-3.15c0-1.82-1.61-3.01-3.85-3.01-5.39,0-13.44,7.28-13.44,13.86,0,3.15,2.31,5.6,6.3,5.6C39.41,1.68,45.92-4.97,47.6-6.79Zm20.65,0a1.563,1.563,0,0,0,.35-.7.827.827,0,0,0-.77-.77c-.35,0-.7.42-.7.42S60.69.07,52.29.07c-2.59,0-4.41-1.54-4.41-3.99a3.876,3.876,0,0,1,.14-1.26c5.81-1.47,15.19-5.32,15.19-9.52,0-1.75-1.47-3.01-3.64-3.01-5.39,0-14.14,7.07-14.14,13.58,0,3.99,3.08,6.23,6.86,6.23C60.41,2.1,68.25-6.79,68.25-6.79Zm-8.4-8.96c1.05,0,1.26.63,1.26.84,0,2.94-7.14,6.3-12.46,7.7C50.68-11.55,56-15.75,59.85-15.75Z" transform="translate(67.27 45.5)" fill="#f59c9c"/>
</svg>
