<svg xmlns="http://www.w3.org/2000/svg" width="314.419" height="70.751" viewBox="0 0 314.419 70.751">
  <g id="グループ_1680" data-name="グループ 1680" transform="translate(-102 -90.88)">
    <path id="パス_3804" data-name="パス 3804" d="M-46.249,6.668c0-.566-1.885-2.7-5.09-2.7a14.361,14.361,0,0,0-1.571.126C-50.082-2.945-46.94-9.668-42.1-14.067c2.513-.754,5.09-1.885,5.09-3.33A1.225,1.225,0,0,0-38.4-18.653c-.942,0-2.765,1.194-4.147,2.513-8.86,0-19.478-7.98-30.788-7.98-8.483,0-16.4,4.021-16.4,12.441,0,6.158,5.215,9.551,10.933,9.551.943,0,1.194-.251,1.194-.566s-.189-.566-.943-.566c-4.9,0-8.985-3.267-8.985-8.42,0-7.163,6.912-10.3,14.263-10.3,9.991,0,22.683,7.729,28.715,7.729-5.027,4.775-8.231,11.75-11,18.85a14.893,14.893,0,0,1-2.639.314c-2.073,0-3.393-.817-3.644-1.822-.126-.5-.314-.691-.691-.691-.5,0-1.068.691-1.068,1.32,0,1.759,1.948,3.267,5.09,3.267a12.827,12.827,0,0,0,2.136-.189c-4.65,12.253-8.42,24.191-18.473,24.191-4.775,0-6.912-3.142-6.912-6.283,0-4.587,4.147-6.975,4.147-7.352,0-.189-.189-.5-.377-.5-.565,0-6.032,2.953-6.032,8.294,0,4.147,3.142,7.791,9.174,7.791,11.75,0,16.023-13.446,21.112-26.641a8.76,8.76,0,0,1,2.011-.314c3.9,0,4.461,1.32,4.9,1.32A.579.579,0,0,0-46.249,6.668Zm17.091,5.215a1.4,1.4,0,0,0,.314-.628.807.807,0,0,0-.754-.691c-.251,0-.566.377-.566.377-.817.943-5.781,6.472-10.053,6.472-2.074,0-3.142-1.068-3.142-3.079a5.718,5.718,0,0,1,.566-2.89C-34.876,4.155-22.938-8.1-22.938-12.81a2.523,2.523,0,0,0-2.7-2.639c-5.906,0-19.667,19.29-19.667,29.783a4.552,4.552,0,0,0,4.775,4.9C-36.007,19.235-30.038,12.889-29.158,11.884Zm3.582-25.7a.738.738,0,0,1,.817.754c0,4.336-10.87,15.771-17.719,21.992C-39.149-1.186-29.284-13.815-25.577-13.815Zm7.729,28.4h-.063c2.513-2.576,4.4-6.095,4.4-9.488C-13.513,1.642-15.4-1-19.294-1-23.88-1-27.839,2.773-27.9,6.92a11.49,11.49,0,0,0-3.142,7.226,4.617,4.617,0,0,0,4.9,4.775,11.176,11.176,0,0,0,6.6-2.828,6.1,6.1,0,0,0,1.068.063c3.456,0,5.969-.88,9.174-4.273a1.4,1.4,0,0,0,.314-.628.8.8,0,0,0-.691-.691c-.314,0-.628.377-.628.377A9.746,9.746,0,0,1-17.848,14.585ZM-26.08,7.548a10.742,10.742,0,0,1,7.1-4.147c.44-.063.88-.189.88-.691,0-.377-.377-.566-1.194-.566a10.628,10.628,0,0,0-6.221,2.513A7.347,7.347,0,0,1-19.105.888c2.136,0,3.519,1.822,3.519,4.147,0,3.267-2.136,6.849-4.775,9.174A7.738,7.738,0,0,1-26.08,7.548Zm0,9.488a2.442,2.442,0,0,1-2.7-2.7,10.5,10.5,0,0,1,1.32-4.713A10.518,10.518,0,0,0-21.87,15.4,7.441,7.441,0,0,1-26.08,17.036ZM1.944,12.512A4.346,4.346,0,0,0,6.468,17.35a7.747,7.747,0,0,0,4.587-1.885,6.339,6.339,0,0,0,4.273,1.382c2.953,0,6.095-1.508,9.237-4.964a1.4,1.4,0,0,0,.314-.628.8.8,0,0,0-.691-.691c-.314,0-.628.377-.628.377-2.828,3.267-5.467,4.336-7.917,4.336a2.724,2.724,0,0,1-2.765-1.508,12.509,12.509,0,0,0,3.2-7.791c0-2.136-1.571-3.393-2.074-3.393a.537.537,0,0,0-.5.5,6.221,6.221,0,0,1,.5,2.388,11.32,11.32,0,0,1-1.948,6.095h-.188a2.069,2.069,0,0,0-1.822,1.759,1.74,1.74,0,0,0,.063.566,5.381,5.381,0,0,1-3.33,1.571c-1.508,0-2.576-.817-2.576-2.765,0-3.016,2.765-5.781,2.765-6.346A1.119,1.119,0,0,0,5.9,5.16c-.565,0-1.948,2.388-5.215,6.158C-2.454,14.9-5.847,17.6-7.8,17.6c-1.005,0-1.634-.44-1.634-2.011,0-5.215,6.283-11.938,8.545-13.446a.685.685,0,0,0,.377-.566A1.013,1.013,0,0,0-1.449.574c-2.136,0-10.368,9.237-10.368,15.269a3.569,3.569,0,0,0,3.833,3.582C-5.722,19.424-1.386,16.282,1.944,12.512Zm46.5,2.074h-.063c2.513-2.576,4.4-6.095,4.4-9.488C52.776,1.642,50.891-1,47-1c-4.587,0-8.545,3.77-8.608,7.917a11.49,11.49,0,0,0-3.142,7.226,4.617,4.617,0,0,0,4.9,4.775,11.176,11.176,0,0,0,6.6-2.828,6.1,6.1,0,0,0,1.068.063c3.456,0,5.969-.88,9.174-4.273a1.4,1.4,0,0,0,.314-.628.8.8,0,0,0-.691-.691c-.314,0-.628.377-.628.377A9.746,9.746,0,0,1,48.441,14.585ZM40.21,7.548A10.742,10.742,0,0,1,47.31,3.4c.44-.063.88-.189.88-.691,0-.377-.377-.566-1.194-.566a10.628,10.628,0,0,0-6.221,2.513A7.347,7.347,0,0,1,47.184.888C49.321.888,50.7,2.71,50.7,5.035c0,3.267-2.136,6.849-4.775,9.174A7.738,7.738,0,0,1,40.21,7.548Zm0,9.488a2.442,2.442,0,0,1-2.7-2.7,10.5,10.5,0,0,1,1.32-4.713A10.518,10.518,0,0,0,44.42,15.4,7.441,7.441,0,0,1,40.21,17.036Zm17.4-9.8c-1.068,2.074-2.011,4.21-2.953,6.472a.566.566,0,0,0-.314-.063A1.827,1.827,0,0,0,52.776,15.4c0,.5.251.754.754,1.005a53.829,53.829,0,0,0-3.77,18.787c0,5.09,1.948,7.1,4.336,7.1,4.147,0,7.1-9.865,7.1-16.211,0-6.472-2.074-8.357-2.074-8.357,4.273,0,7.54-3.267,9.928-5.844a1.4,1.4,0,0,0,.314-.628.807.807,0,0,0-.754-.691c-.251,0-.565.377-.565.377-2.074,2.262-4.9,5.215-8.545,5.215A5.155,5.155,0,0,1,56.232,14.9l1.7-3.77C66.223,5.286,81.052-6.15,81.052-12.056a3.111,3.111,0,0,0-3.33-3.079C71.5-15.135,63.584-4.327,57.615,7.234ZM55.6,16.973c1.571.377,3.77,2.136,3.77,8.985,0,5.529-2.639,14.7-5.278,14.7-1.257,0-2.451-1.445-2.451-5.341a51.256,51.256,0,0,1,3.833-18.347ZM77.847-13.375a1.215,1.215,0,0,1,1.32,1.131c0,4.65-13.321,15.52-19.478,19.981C65.783-3.762,73.009-13.375,77.847-13.375ZM82.5-.306c.943,0,2.136.126,3.393.251-3.267,4.838-6.158,10.43-6.158,14.892a3.38,3.38,0,0,0,3.582,3.519c5.152,0,11-6.472,11-6.472a1.4,1.4,0,0,0,.314-.628.807.807,0,0,0-.754-.691c-.251,0-.566.377-.566.377s-5.027,5.592-9.425,5.592a1.674,1.674,0,0,1-1.822-1.822c0-4.587,2.827-9.991,5.969-14.452,2.513.314,5.09.691,6.723.691.566,0,1.32-.628,1.32-1.068,0-.251-.126-.5-.88-.5a45.356,45.356,0,0,1-6.032-.691c2.89-3.833,5.655-6.912,6.472-7.854.5-.628.691-.754.691-1.068a1.2,1.2,0,0,0-1.068-1.131c-.251,0-.566.189-.943.628a115.1,115.1,0,0,0-7.352,9.111,35.015,35.015,0,0,0-4.147-.314C80.235-1.94,79.1-.934,79.1-.306a.642.642,0,0,0,.691.628A6.782,6.782,0,0,1,82.5-.306Zm37.637,12.19a1.4,1.4,0,0,0,.314-.628.743.743,0,0,0-.691-.691c-.314,0-.628.377-.628.377s-4.9,5.655-9.362,5.655c-1.131,0-1.445-.44-1.445-1.194,0-2.89,5.906-6.849,5.906-10.116a2.41,2.41,0,0,0-2.513-2.639c-3.456,0-14.012,8.42-18.787,13.384a47.846,47.846,0,0,1,2.828-5.09c7.98-6.221,22.62-17.531,22.62-23a3.075,3.075,0,0,0-3.33-3.079c-6.409,0-13.886,10.619-19.918,22.18C92.613,11.884,89.66,18.1,89.66,18.732A1.1,1.1,0,0,0,90.728,19.8c.943,0,1.194-.44,1.822-1.131C97.7,13.14,108.635,4.595,111.4,4.595c.188,0,.628.063.628.691,0,2.451-5.906,6.221-5.906,10.179,0,1.822,1.319,2.89,3.2,2.89C114.29,18.355,120.134,11.884,120.134,11.884ZM115.17-13.375c.943,0,1.32.5,1.32,1.131,0,4.587-13.132,15.143-19.6,20.232C103.106-4.013,110.52-13.375,115.17-13.375Zm23.437,25.259a1.4,1.4,0,0,0,.314-.628.743.743,0,0,0-.691-.691c-.314,0-.628.377-.628.377s-5.781,7.1-13.321,7.1c-2.325,0-3.959-1.382-3.959-3.582a3.479,3.479,0,0,1,.126-1.131c5.215-1.32,13.635-4.775,13.635-8.545,0-1.571-1.32-2.7-3.267-2.7-4.838,0-12.692,6.346-12.692,12.19,0,3.582,2.765,5.592,6.158,5.592C131.57,19.863,138.607,11.884,138.607,11.884Zm-7.54-8.043c.943,0,1.131.566,1.131.754,0,2.639-6.409,5.655-11.184,6.912C122.836,7.611,127.611,3.841,131.067,3.841Zm33.742,9.551a11.616,11.616,0,0,1,.063-1.445c8.294-7.98,16.965-19.6,16.965-23.814a2.786,2.786,0,0,0-2.89-2.953c-5.027,0-10.682,9.676-13.823,18.159a4.5,4.5,0,0,0-3.33-1.194c-5.215,0-13.069,7.352-13.069,13.446a3.978,3.978,0,0,0,4.084,4.147c2.325,0,5.969-2.388,9.928-5.844.126,3.142,2.074,4.461,4.461,4.461,4.713,0,10.556-6.472,10.556-6.472a1.4,1.4,0,0,0,.314-.628.807.807,0,0,0-.754-.691c-.251,0-.566.377-.566.377s-4.838,5.592-9.425,5.592C166,16.533,164.809,15.842,164.809,13.392Zm-11.876,4.524a2.012,2.012,0,0,1-2.136-2.136c0-5.09,6.849-12,11.247-12a2.757,2.757,0,0,1,2.513,1.194,47.189,47.189,0,0,0-1.7,6.66C158.9,15.339,155.2,17.916,152.933,17.916ZM178.82-13a1.05,1.05,0,0,1,1.194,1.005c0,3.77-7.226,13.761-14.515,21.112C167.573.762,174.234-13,178.82-13Zm13.635,30.6c2.325,0,5.215-1.885,8.734-5.718a1.4,1.4,0,0,0,.314-.628.807.807,0,0,0-.754-.691c-.251,0-.565.377-.565.377-3.267,3.644-5.592,5.027-7.414,5.027-1.382,0-2.513-.943-2.513-3.2,0-2.136,1.257-3.644,1.257-4.084a1.081,1.081,0,0,0-1.005-1.005c-.691,0-1.759,1.822-3.456,3.833-2.073,2.513-6.283,6.409-8.922,6.409-.88,0-1.319-.566-1.319-1.445,0-4.964,7.666-12.944,14.326-12.944,1.885,0,2.2,1.257,2.2,1.822,0,.628-.188.88-.188,1.32a.5.5,0,0,0,.5.5c.44,0,1.32-.88,1.32-2.136,0-1.571-1.257-3.2-4.4-3.2-6.912,0-15.9,8.483-15.9,14.64a3.035,3.035,0,0,0,3.267,3.267c3.2,0,7.854-4.273,10.3-7.1C188.245,15.465,190,17.6,192.455,17.6Zm31.919-5.718a1.4,1.4,0,0,0,.314-.628.807.807,0,0,0-.754-.691c-.251,0-.566.377-.566.377a38.179,38.179,0,0,1-9.928,7.54c.5-1.445.943-2.89,1.319-4.147a39.35,39.35,0,0,1,3.833-8.545,2.437,2.437,0,0,0,.377-.88.965.965,0,0,0-.943-.943c-.5,0-.691.314-1.005.88a39.132,39.132,0,0,1-4.4,6.786c-3.77,4.336-7.226,6.6-10.179,6.6a1.754,1.754,0,0,1-1.948-1.948c0-3.644,5.09-10.493,7.163-13.069.314-.377.44-.566.44-.691a1.255,1.255,0,0,0-1.068-1.068c-1.194,0-8.922,10.368-8.922,14.829a3.662,3.662,0,0,0,3.959,3.833c3.142,0,7.037-2.576,10.556-6.095-.5,1.759-1.131,3.833-1.885,5.969-11.813,6.472-25.887,11.876-25.887,20.672,0,3.456,2.7,5.969,6.66,5.969,10.807,0,17.4-14.766,21.175-25.887C217.212,18.1,221.422,15.277,224.375,11.884Zm-33.05,32.862c-2.828,0-4.524-1.759-4.524-4.147,0-7.163,12.064-12.127,23.186-18.285C206.342,32.493,200.31,44.746,191.324,44.746Z" transform="translate(191.73 115)" fill="#f59c9c"/>
  </g>
</svg>
