<svg xmlns="http://www.w3.org/2000/svg" width="215" height="64" viewBox="0 0 215 64">
  <g id="グループ_894" data-name="グループ 894" transform="translate(-970 -700)">
    <rect id="長方形_221" data-name="長方形 221" width="215" height="64" rx="10" transform="translate(970 700)" fill="#f0b7bf"/>
    <g id="グループ_863" data-name="グループ 863" transform="translate(164 -1168)">
      <path id="パス_3782" data-name="パス 3782" d="M14.352-8.528c0-2.736.032-3.648.032-3.744,0-.112-.016-.128-.128-.128-.08,0-.56.032-1.936.032H9.552C8.16-12.368,7.7-12.4,7.6-12.4c-.112,0-.128.016-.128.128,0,.1.032,1.008.032,4.192v3.2C7.5-.032,7.472.864,7.472.96s.016.112.128.112h.7c.112,0,.128-.016.128-.112V-.048h4.992V.9c0,.112.016.128.128.128h.7c.112,0,.128-.016.128-.128,0-.08-.032-.976-.032-5.808Zm-.928,7.6H8.432V-4.016h4.992Zm0-7.68H8.432v-2.864h4.992Zm0,3.728H8.432V-7.744h4.992ZM4.672-8.944c1.28,0,1.7.032,1.776.032.112,0,.128-.016.128-.128V-9.7c0-.112-.016-.128-.128-.128-.08,0-.5.032-1.776.032H4.48v-1.552a4.114,4.114,0,0,1,.1-1.376.745.745,0,0,0,.1-.32c0-.064-.08-.112-.208-.128a9.309,9.309,0,0,0-1.024-.1,10.309,10.309,0,0,1,.112,1.952v1.52H2.864c-1.3,0-1.7-.032-1.792-.032-.112,0-.128.016-.128.128v.656c0,.112.016.128.128.128.1,0,.5-.032,1.792-.032h.512A18.662,18.662,0,0,1,.48-3.328a2.329,2.329,0,0,1,.416.64c.048.112.1.176.144.176s.112-.064.176-.16A16.715,16.715,0,0,0,3.632-7.888c-.032,4.752-.144,8.64-.144,8.9,0,.112.016.128.144.128H4.4c.128,0,.144-.016.144-.128,0-.256-.128-4.144-.144-9.088A16.348,16.348,0,0,0,6.1-4.736c.064.112.112.176.16.176s.08-.08.128-.208a2.92,2.92,0,0,1,.4-.736,12.543,12.543,0,0,1-2.176-3.44ZM22.064-2.512c0-.736.032-1.088.032-1.168,0-.112-.016-.128-.128-.128-.1,0-.384.032-1.328.032H19.568c-.944,0-1.232-.032-1.312-.032-.112,0-.128.016-.128.128,0,.1.032.448.032,1.408v.96c0,1.936-.032,2.256-.032,2.352s.016.112.128.112h.64c.112,0,.128-.016.128-.112V.192h2.192V.736c0,.112.016.128.128.128h.624c.112,0,.128-.016.128-.128,0-.08-.032-.384-.032-2.24ZM21.216-.576H19.024V-2.992h2.192ZM31.808.24a6.412,6.412,0,0,1-4.4-5.728c.032-.5.08-.624.16-.72a.287.287,0,0,0,.08-.208c0-.08-.1-.128-.256-.16a7.151,7.151,0,0,0-.88-.112,6.654,6.654,0,0,1,.016,1.52A5.708,5.708,0,0,1,22.32.352a1.753,1.753,0,0,1,.5.528c.112.16.144.24.24.24a.806.806,0,0,0,.24-.08,6.454,6.454,0,0,0,3.84-4.608A7.036,7.036,0,0,0,30.88,1.024a.6.6,0,0,0,.24.1c.08,0,.112-.08.208-.256A2.094,2.094,0,0,1,31.808.24ZM31.664-6.9c-2-.64-3.984-1.872-4.256-4.992.016-.512.064-.624.144-.72a.287.287,0,0,0,.08-.208c0-.08-.1-.128-.256-.16-.224-.032-.48-.08-.864-.112a7.506,7.506,0,0,1,.016,1.5c-.16,2.4-1.2,4.016-4,4.9a1.484,1.484,0,0,1,.464.48c.112.176.16.24.24.24a.806.806,0,0,0,.24-.08,5.743,5.743,0,0,0,3.664-3.984,5.991,5.991,0,0,0,3.68,3.9.686.686,0,0,0,.24.08c.08,0,.112-.08.192-.288A1.9,1.9,0,0,1,31.664-6.9Zm-8.912-3.328c0-.112-.016-.112-.128-.112-.08,0-.432.032-1.6.032H19.216c-1.184,0-1.52-.032-1.6-.032-.112,0-.128,0-.128.112v.672c0,.128.016.144.128.144.08,0,.416-.032,1.6-.032h1.808c1.168,0,1.52.032,1.6.032.112,0,.128-.016.128-.144Zm-.528-2.112c0-.112-.016-.128-.128-.128-.08,0-.368.032-1.344.032h-1.2c-.976,0-1.264-.032-1.344-.032-.112,0-.128.016-.128.128v.624c0,.112.016.128.128.128.08,0,.368-.032,1.344-.032h1.2c.976,0,1.264.032,1.344.032.112,0,.128-.016.128-.128ZM21.9-5.824c0-.112-.016-.128-.144-.128-.08,0-.32.032-1.2.032H19.6c-.9,0-1.136-.032-1.216-.032-.112,0-.128.016-.128.128v.64c0,.1.016.112.128.112.08,0,.32-.032,1.216-.032h.96c.88,0,1.12.032,1.2.032.128,0,.144-.016.144-.112ZM21.9-8c0-.112-.016-.128-.144-.128-.08,0-.32.032-1.2.032H19.6c-.9,0-1.136-.032-1.216-.032-.112,0-.128.016-.128.128v.624c0,.112.016.128.128.128.08,0,.32-.032,1.216-.032h.96c.88,0,1.12.032,1.2.032.128,0,.144-.016.144-.128Zm9.3-3.28c0-.064-.048-.128-.176-.192a3.356,3.356,0,0,0-.768-.32,3.248,3.248,0,0,1-.352.64A6.816,6.816,0,0,1,28.368-9.7a2.368,2.368,0,0,1,.48.336c.128.112.192.176.256.176s.112-.048.224-.144A9.322,9.322,0,0,0,30.752-10.8a1.19,1.19,0,0,1,.272-.288C31.136-11.152,31.2-11.184,31.2-11.28Zm.016,6.624c0-.064-.048-.128-.176-.192a3.356,3.356,0,0,0-.768-.32,2.362,2.362,0,0,1-.352.64,6.585,6.585,0,0,1-1.552,1.44,1.867,1.867,0,0,1,.48.336c.128.128.192.176.256.176.048,0,.112-.048.224-.144a8.778,8.778,0,0,0,1.44-1.456,1.189,1.189,0,0,1,.272-.288C31.152-4.528,31.216-4.56,31.216-4.656Zm-6.64-.32c-.208-.112-.224-.112-.272,0A6.226,6.226,0,0,1,22.9-2.9c-.08.08-.08.112.1.256l.336.272c.176.144.208.144.3.032a7.136,7.136,0,0,0,1.456-2.208c.048-.128.032-.144-.16-.24Zm.24-6.656c-.224-.112-.224-.112-.272,0a5.552,5.552,0,0,1-1.312,2.048c-.08.08-.08.112.1.256l.336.272c.176.144.208.144.3.032a6.717,6.717,0,0,0,1.36-2.192c.048-.128.032-.144-.16-.24Zm22.832,1.488c0-.16-.032-.176-.176-.176-1.776,0-3.344,0-5.12.048,0-.7,0-1.008.032-1.36a.937.937,0,0,1,.112-.432.6.6,0,0,0,.112-.288c0-.112-.112-.192-.288-.24a8.075,8.075,0,0,0-1.216-.176,4.245,4.245,0,0,1,.16,1.072c.016.512.016.832.032,1.488-2.128.128-3.776.24-5.072.336a14.312,14.312,0,0,1-2.016.1,5.208,5.208,0,0,0,.256,1.024.187.187,0,0,0,.192.16c.128,0,.32-.112.7-.16,1.52-.192,3.68-.352,5.968-.48.016.752.016,1.472.032,2.256a2.02,2.02,0,0,0-1.5-.544A2.144,2.144,0,0,0,37.664-5.3,2.063,2.063,0,0,0,39.776-3.04a1.979,1.979,0,0,0,1.76-.912c-.144,1.616-1.2,3.088-3.488,4.032a2.382,2.382,0,0,1,.736.448.464.464,0,0,0,.288.128A.839.839,0,0,0,39.44.512a5.3,5.3,0,0,0,3.12-4.944,6.827,6.827,0,0,0-.192-1.68c-.016-1.072-.016-2.176-.016-3.184,1.808-.064,3.376-.048,5.088,0,.16,0,.208-.016.208-.16ZM39.936-6.72A1.337,1.337,0,0,1,41.36-5.36,1.411,1.411,0,0,1,39.9-3.952a1.265,1.265,0,0,1-1.3-1.376A1.321,1.321,0,0,1,39.936-6.72Zm14.784.672c1.6-1.632,2.672-2.752,4.1-4.256a1.735,1.735,0,0,1,.752-.56.331.331,0,0,0,.24-.3.432.432,0,0,0-.112-.272,3.942,3.942,0,0,0-.688-.672.48.48,0,0,0-.288-.128.493.493,0,0,0-.224.112,1.67,1.67,0,0,1-.5.144c-1.408.272-2.72.448-3.984.576a5.964,5.964,0,0,1-1.408-.016,5.062,5.062,0,0,0,.384,1.1.283.283,0,0,0,.256.192.951.951,0,0,0,.3-.08,2.6,2.6,0,0,1,.56-.144c1.424-.272,2.672-.512,4-.72-1.232,1.456-2.192,2.48-3.12,3.488a43.567,43.567,0,0,1-3.616,3.568c-.112.1-.128.16-.064.24a7.38,7.38,0,0,0,.592.64c.112.112.192.1.32-.032A15.379,15.379,0,0,1,53.632-4.48a7.371,7.371,0,0,1,4.4-1.808A2.592,2.592,0,0,1,60.8-3.664,2.951,2.951,0,0,1,58.464-.752a2.709,2.709,0,0,0-2.72-2.288,1.745,1.745,0,0,0-1.872,1.632c0,1.024.864,1.888,2.784,1.888,3.392,0,5.28-1.728,5.28-4.112a3.4,3.4,0,0,0-3.728-3.5A6.246,6.246,0,0,0,54.768-6Zm2.768,5.52a5.805,5.805,0,0,1-1.04.08C55.376-.448,54.8-.9,54.8-1.424c0-.5.464-.752.976-.752A1.856,1.856,0,0,1,57.488-.528Z" transform="translate(892 1906)" fill="#3a3a3a"/>
      <path id="パス_3716" data-name="パス 3716" d="M-2048.339,2668l5.571,6.077-5.571,5.923" transform="translate(3026.339 -774.5)" fill="none" stroke="#3a3a3a" stroke-linecap="round" stroke-width="2"/>
      <g id="グループ_862" data-name="グループ 862" transform="translate(-112 -95)">
        <g id="長方形_222" data-name="長方形 222" transform="translate(956 1984)" fill="none" stroke="#fff" stroke-width="2">
          <rect width="32" height="22.222" rx="2" stroke="none"/>
          <rect x="1" y="1" width="30" height="20.222" rx="1" fill="none"/>
        </g>
        <path id="パス_3717" data-name="パス 3717" d="M2765.213,1986.223l15.824,11.355,15.054-11.355" transform="translate(-1808.728 -0.03)" fill="none" stroke="#fff" stroke-width="2"/>
      </g>
    </g>
  </g>
</svg>
