<svg xmlns="http://www.w3.org/2000/svg" width="235.191" height="53.442" viewBox="0 0 235.191 53.442">
  <g id="グループ_13" data-name="グループ 13" transform="translate(-884.943 -189.214)">
    <g id="レイヤー_3" data-name="レイヤー 3" transform="translate(884.943 189.214)">
      <path id="パス_3" data-name="パス 3" d="M936.022,189.874c-.4-.433-2.239-.253-3.81,1.047a29.942,29.942,0,0,0-4.279,5.092c-1.9,2.658-15.6,30.335-29.9,36.835-2.572,1.169-5.041.443-7.114-.144-2.167-.614-4.659-2.376-4.532-5.164.108-2.384,1.282-3.467,2.762-3.413a2.317,2.317,0,0,1,2.438,1.787c0,.4-.144.686-.181.614a2.021,2.021,0,0,0-1.878-.632,1.51,1.51,0,0,0-1.12,1.39,1.9,1.9,0,0,0,1.553,1.914,2.28,2.28,0,0,0,2.451-.971c.623-1.03,1.07-5.4-3.336-5.638a3.292,3.292,0,0,0-3.07,1.336,4.806,4.806,0,0,0-1.047,3.033c-.361,5.94,5.72,7.728,9.064,7.728,16.576,0,26.077-20.663,27.193-22.751s5.706-12.351,8.306-15.492c.668-.807,1.114-.967,1.282-.849.307.217-.055.821-.271,1.268-2.564,5.322-4.171,11.877-6.175,18.485a79.9,79.9,0,0,1-5.272,11.61,31.438,31.438,0,0,1-4.55,5.6c-.528.469-1.228,1.02-.957,1.426s1.068.171,1.9-.271a48.175,48.175,0,0,0,6.8-4.171,50.4,50.4,0,0,0,8.126-8.531c2-2.952,4.929-7.178,6.961-9.859s4.74-6.717,7.909-10.184c4.536-4.962,8.14-7.292,13.353-9.073,2.14-.731,7.881-1.761,11.89-.135a16.978,16.978,0,0,1,4.117,2.085c.813.609,1.311.594,1.611.366.339-.257.366-.8-.406-1.449a19.155,19.155,0,0,0-9.98-3.539c-5.5-.172-14.625,1.778-24.593,12.152-3.224,3.356-7.258,10.13-9.642,13.786a99.272,99.272,0,0,1-6.243,9.019,24.1,24.1,0,0,1-3.345,3.3c-.284.217-.528-.068-.361-.361a106.092,106.092,0,0,0,5.182-10.852c2.058-5.9,2.329-10.508,8.342-24.231C935.679,190.929,936.422,190.311,936.022,189.874Z" transform="translate(-884.943 -189.214)" fill="#767676"/>
      <path id="パス_4" data-name="パス 4" d="M1037.159,203.144c-.292-.466-1.336.018-2.726.975s-4.189,2.979-9.1,8.739c-1.426,1.86-7.52,9.931-7.683,16.54s3.494,9.723,5.607,11.1a19.773,19.773,0,0,0,7.313,2.384,32.969,32.969,0,0,0,5.959.135c.84-.082.894-.488.84-.759s-.515-.352-.948-.325a20.7,20.7,0,0,1-5.985-1.056,12.933,12.933,0,0,1-6.717-5.5,14.047,14.047,0,0,1-.8-12.251,40.1,40.1,0,0,1,7.331-12.829,31.311,31.311,0,0,1,5.282-5.173C1036.121,204.7,1037.493,203.676,1037.159,203.144Z" transform="translate(-966.128 -197.627)" fill="#767676"/>
    </g>
    <g id="レイヤー_4" data-name="レイヤー 4" transform="translate(960.038 206.531)">
      <g id="グループ_13-2" data-name="グループ 13">
        <path id="パス_5" data-name="パス 5" d="M1090.292,233.821a1.581,1.581,0,0,1,1.535,1.535,1.609,1.609,0,0,1-1.535,1.535,1.506,1.506,0,0,1-1.553-1.517A1.429,1.429,0,0,1,1090.292,233.821Z" transform="translate(-1084.718 -233.821)" fill="#767676"/>
        <path id="パス_6" data-name="パス 6" d="M1080.849,255.622a1.387,1.387,0,0,0-1.12.795c-.144.4-.361.65-.722.65s-.46-.271-.424-.668a1.524,1.524,0,0,1,.6-1.273,16.135,16.135,0,0,0,2.952-1.814c.347-.34.795-1.084,1.219-1.03a1.15,1.15,0,0,1,1,.885,18.752,18.752,0,0,1-.108,2.311c-.172,1.553-2.221,6.717-2.058,11.231.018.507.542.722.722.505a13.758,13.758,0,0,0,1.047-1.516.538.538,0,0,1,.794-.181c.18.144.253.578-.036,1.264a10.275,10.275,0,0,1-1.625,2.311,5.9,5.9,0,0,1-3.034,1.228c-.722-.036-1.931-.159-1.625-1.047a90.436,90.436,0,0,0,2.961-12.1C1081.457,256.573,1081.282,255.658,1080.849,255.622Z" transform="translate(-1078.381 -245.113)" fill="#767676"/>
      </g>
    </g>
    <g id="レイヤー_5" data-name="レイヤー 5" transform="translate(973.929 199.398)">
      <path id="パス_7" data-name="パス 7" d="M1121.107,215.448c-.623.019-3.129,1.666-4.117,2.085a10.237,10.237,0,0,0-1.788,1.354.333.333,0,0,0,.217.569c.266,0,.768.009.97,0s.366-.2.519-.361.433-.469.663-.515a8.333,8.333,0,0,1,.962-.013c.25.013.352.188.289.487-.723,3.413-2.1,10.157-3.033,14.572a72.289,72.289,0,0,0-1.589,10.942,25.336,25.336,0,0,0,.014,2.966.441.441,0,0,0,.6.433c.271-.09,1.993-1.046,2.622-1.377a6.72,6.72,0,0,0,1.77-1.318,4.672,4.672,0,0,0,.559-1.228c.059-.234-.1-.582-.334-.6a.621.621,0,0,0-.6.42,1.31,1.31,0,0,1-.479.6,4.176,4.176,0,0,1-1.137.149.594.594,0,0,1-.6-.609,59.691,59.691,0,0,1,1.327-9.561c.921-4.334,1.751-7.873,3.087-14.572.236-1.182.756-3.583.792-3.8C1121.893,215.624,1121.541,215.434,1121.107,215.448Z" transform="translate(-1114.162 -215.447)" fill="#767676"/>
    </g>
    <g id="レイヤー_6" data-name="レイヤー 6" transform="translate(978.02 197.398)">
      <path id="パス_8" data-name="パス 8" d="M1144.324,213c.46.027.817.387.7.786-.1.352.162.7.632.7.957,0,2-1.453,2.131-2.329a1.438,1.438,0,0,0-1.156-1.751,4.043,4.043,0,0,0-2.957.451,11.327,11.327,0,0,0-5.092,6.338,38.488,38.488,0,0,0-1.562,6.6.7.7,0,0,1-.505.551,8.286,8.286,0,0,1-1.381,0,.7.7,0,0,0-.56.271c-.108.108-1.047,1.12-1.192,1.192s-.144.359-.018.361c1.056.018,2.228.038,2.9.038.379,0,.45.146.433.393a152.852,152.852,0,0,1-2.155,15.386c-.5,2.264-2.087,9.8-3.566,10.771a3.819,3.819,0,0,1-3.3.027c-.834-.484-.866-1.083-1.246-1.435a1.1,1.1,0,0,0-1.354-.082c-.379.3-.456,1.017-.271,2.14a3.118,3.118,0,0,0,3.142,2.14,6.5,6.5,0,0,0,5.48-2.763c2.448-3.255,3.5-8.5,3.9-10.545,1.047-5.381,1.481-10.87,2.009-15.592.027-.244.149-.379.393-.359.406.007,2.038.027,2.261.027s.658-.023.808-.309a1.6,1.6,0,0,1,1.038-.795c.16-.028.6-.135.614-.424s-.361-.352-.542-.352-3.794-.063-3.794-.063a.545.545,0,0,1-.372-.142.655.655,0,0,1-.108-.413c-.032-1.45.618-6.806,2.32-9.249A3.089,3.089,0,0,1,1144.324,213Z" transform="translate(-1124.699 -210.294)" fill="#767676"/>
    </g>
    <g id="レイヤー_7" data-name="レイヤー 7" transform="translate(1001.065 212.845)">
      <path id="パス_9" data-name="パス 9" d="M1196.021,262.914a1.313,1.313,0,0,0-1.214-.084c-.146.116.077.381-.517,1.144a5.886,5.886,0,0,1-4.983,2.164c-2.987-.209-2.4-5.739-2.3-6.062a.769.769,0,0,1,.651-.558,13.974,13.974,0,0,0,7.351-4.28,3.4,3.4,0,0,0,.614-4.039,2.671,2.671,0,0,0-2.14-1.112c-2.028-.053-4.057,1.205-5.527,2.545s-3.89,3.964-3.89,10.329c0,2.806.955,4.2,2.084,4.932a4.882,4.882,0,0,0,4.485.168c2.941-1.247,5.22-4.643,5.332-4.727A.3.3,0,0,0,1196.021,262.914Zm-6.969-9.054a6.687,6.687,0,0,1,2.852-2.042c.9-.247,1.5.044,1.689.591a2.87,2.87,0,0,1-.224,2.01,6.819,6.819,0,0,1-5.416,3.313C1186.963,257.731,1187.684,255.5,1189.052,253.859Z" transform="translate(-1184.064 -250.085)" fill="#767676"/>
    </g>
    <g id="レイヤー_8" data-name="レイヤー 8" transform="translate(1020.448 199.073)">
      <path id="パス_10" data-name="パス 10" d="M1240.938,214.611c-.623.019-3.128,1.665-4.117,2.085a10.239,10.239,0,0,0-1.788,1.354.333.333,0,0,0,.217.569c.266,0,.768.009.971,0s.365-.2.519-.361.433-.469.663-.514a8.336,8.336,0,0,1,.962-.014c.25.014.352.188.289.488-.722,3.412-2.1,10.156-3.033,14.571a72.38,72.38,0,0,0-1.589,10.942,25.352,25.352,0,0,0,.014,2.966.441.441,0,0,0,.6.433c.271-.09,1.993-1.046,2.623-1.377a6.733,6.733,0,0,0,1.77-1.318,4.686,4.686,0,0,0,.56-1.228c.059-.235-.1-.582-.334-.6a.622.622,0,0,0-.6.42,1.31,1.31,0,0,1-.479.6,4.162,4.162,0,0,1-1.137.149.594.594,0,0,1-.6-.609,59.7,59.7,0,0,1,1.327-9.561c.921-4.333,1.752-7.873,3.087-14.571.236-1.182.756-3.584.792-3.8C1241.724,214.787,1241.372,214.6,1240.938,214.611Z" transform="translate(-1233.993 -214.61)" fill="#767676"/>
    </g>
    <g id="レイヤー_9" data-name="レイヤー 9" transform="translate(1034.887 200.663)">
      <path id="パス_11" data-name="パス 11" d="M1274.181,219.842c-.609.161-2.939,2.077-2.993,3.033s.745,3.929,2.532,4.185c.474.068,1.309.122,1.327-.221s-1.087-.471-1.341-.714a3.919,3.919,0,0,1-1.151-3.006,20.107,20.107,0,0,1,2.058-2.9C1274.758,219.987,1274.795,219.68,1274.181,219.842Z" transform="translate(-1271.185 -219.373)" fill="#767676"/>
      <path id="パス_12" data-name="パス 12" d="M1280.93,226.88a6.323,6.323,0,0,0,1.95,1.558,4.865,4.865,0,0,0,1.6-.3,30.347,30.347,0,0,0,2.938-2.857,6.386,6.386,0,0,0,.2-2.3c-.135-.352-3.037-4.167-4.1-4.266-.582-.054-.677.149-.691.23s.271.393.46.556,1.462,1.462,1.5,2c.027.488-.176,1.03-.3,1.056s-.434-.054-.46-.2.013-1-.312-1.327a1.8,1.8,0,0,0-1.327-.352c-.46.014-1.043.135-1.205.135s-.555.271-.461.46.6.393.758.46.813-.243,1.111-.149.244.488.271.758a.978.978,0,0,0,.6.663c.217.054.312.6.109.772s.121.975.392.948a.849.849,0,0,0,.609-.664c.014-.257-.122-.433-.041-.609s.907-.244,1.124-.054a1.32,1.32,0,0,1,.257,1.083,9.446,9.446,0,0,1-2.126,2.085,8.185,8.185,0,0,1-2.519.217C1281.093,226.7,1280.876,226.758,1280.93,226.88Z" transform="translate(-1277.014 -218.705)" fill="#767676"/>
      <path id="パス_13" data-name="パス 13" d="M1279.827,226.63c-.322.046-.361.452-.307.849.026.189.521.662.614,1.138.1.526-.434.957-.036,1.119a9.247,9.247,0,0,0,2.438.451c.379-.09.361-.253.271-.505s-.271-.379-.307-.65-.542-.361-.776-.307-.4.162-.56.126-.343-.433-.271-.65a1.767,1.767,0,0,0-.018-1.1A1.8,1.8,0,0,0,1279.827,226.63Z" transform="translate(-1276.272 -223.552)" fill="#767676"/>
    </g>
    <g id="レイヤー_10" data-name="レイヤー 10" transform="translate(1034.019 212.399)">
      <path id="パス_14" data-name="パス 14" d="M1271.417,252.279a1.387,1.387,0,0,0-1.12.794c-.144.4-.361.65-.722.65s-.46-.271-.424-.668a1.523,1.523,0,0,1,.6-1.273,16.155,16.155,0,0,0,2.952-1.815c.347-.34.795-1.083,1.219-1.029a1.15,1.15,0,0,1,1,.885,18.754,18.754,0,0,1-.108,2.311c-.172,1.553-2.221,6.717-2.058,11.231.018.507.542.722.722.505a13.782,13.782,0,0,0,1.047-1.517.538.538,0,0,1,.794-.181c.18.144.253.578-.036,1.264a10.258,10.258,0,0,1-1.625,2.311,5.9,5.9,0,0,1-3.033,1.228c-.722-.036-1.931-.159-1.625-1.047a90.428,90.428,0,0,0,2.961-12.1C1272.025,253.23,1271.85,252.315,1271.417,252.279Z" transform="translate(-1268.949 -248.936)" fill="#767676"/>
    </g>
    <g id="レイヤー_11" data-name="レイヤー 11" transform="translate(1047.109 212.512)">
      <path id="パス_15" data-name="パス 15" d="M1312.138,249.3c-1.679-.325-4.171.271-6.681,3.792-2.025,2.841-4.632,11.709-.9,13.922,2.13,1.264,5.164-.054,7.295-2.257,1.039-1.074,1.462-2.04,1.282-2.311a.516.516,0,0,0-.831-.036c-.181.25-.034.637-.234.9-.668.885-2.939,2.667-5.128,1.769-2.112-.866-2.254-4.928-1.751-7.529.813-4.207,2.458-5.63,3.449-6.338.758-.542,2.022-.813,2.6-.2a1.26,1.26,0,0,1,.181.451,1.234,1.234,0,0,0,1.264,1.011c.831,0,1.246-1.246,1.228-1.715S1313.72,249.61,1312.138,249.3Z" transform="translate(-1302.667 -249.227)" fill="#767676"/>
    </g>
    <g id="レイヤー_12" data-name="レイヤー 12" transform="translate(1064.538 202.296)">
      <path id="パス_16" data-name="パス 16" d="M1398.519,238.64c-2,0-4.243,1.336-4.243,3.7s2.32,2.69,3.223,2.672a1.43,1.43,0,0,0,1.571-1.309,1.359,1.359,0,0,0-1.372-1.309,1.05,1.05,0,0,0-1.129.786c-.011.379-.122.467-.208.469a1.388,1.388,0,0,1-1.228-1.372,3.059,3.059,0,0,1,3.3-2.853,3.675,3.675,0,0,1,3.4,3.648,6.76,6.76,0,0,1-3.643,5.8,8.963,8.963,0,0,1-6.568.176c-.281-.179.108-.67.23-.759.09-.065.881-.623.542-1.11a.864.864,0,0,0-.148-.166.666.666,0,0,0-.989.166,1.046,1.046,0,0,0-.068.623,1.152,1.152,0,0,1,0,.5c-.163.434-1.043.325-1.436.108s-6.758-3.508-8.18-3.589a2.168,2.168,0,0,0-1.178.108c-.23.176-.46.095-.447-.108s.975-1.49,1.436-1.517,1.693.149,2.383-.433,2.065-1.821,2.573-2.329a12.785,12.785,0,0,0,2.411-3.318,4.677,4.677,0,0,0,.23-1.706c.014-.2-.23-.163-.271-.081a7.247,7.247,0,0,1-.934,1.219c-.772.691-1.991.542-2.776,1.368s-1.307,3.731-1.625,4.049a2.311,2.311,0,0,1-1.882.7,1.557,1.557,0,0,0-1.137.244.823.823,0,0,1-.88,0,.881.881,0,0,1,.108-.826c.19-.176,2.384-1.463,2.573-2.275a9.963,9.963,0,0,1,.6-1.761,4.51,4.51,0,0,0,.5-1.029c.027-.284.054-.866-.176-.894s-.189.2-.217.325-.154.615-.311.663c-.745.23-2.262-.027-3.48.569a5.4,5.4,0,0,0-2.045,3.128,8.678,8.678,0,0,0-.108,1.923c-.027.163-.108.488-.474.433s-4.97-.745-4.916-1.165.165-.76.325-.8a4.916,4.916,0,0,0,1.5-.866c.257-.285,2.394-3.33,2.6-3.616.243-.339,1.6-2.289,1.638-3.277a25.874,25.874,0,0,0-.392-5.038c-.271-.745-1.719-3.257-1.8-3.6-.068-.284-.122-.46-.3-.488s-.23.367-.2.556a5.524,5.524,0,0,1-.366,1.95,3.45,3.45,0,0,0-.8,2.925,12.563,12.563,0,0,0,.948,3.914,5.558,5.558,0,0,1,.19,2.79,27.605,27.605,0,0,1-1.882,2.98,1.222,1.222,0,0,1-1.043.569c-.479-.044-.623-.556-.65-.948a22.563,22.563,0,0,0,.447-3.1,16.006,16.006,0,0,0-.786-3.358,14.769,14.769,0,0,0-1.422-1.72c-.082-.176-.244-.257-.312-.217a.379.379,0,0,0-.108.3,20.944,20.944,0,0,1-.068,2.235,24.127,24.127,0,0,0-.338,3.345c.068.677,1.1,1.574,1.232,1.815a3.7,3.7,0,0,1,.285,1.327,2.5,2.5,0,0,1-.42,1.246c-.207.245-.731.23-.921.406s-.441,1-.691,1.2a2.044,2.044,0,0,1-1.652.332c-.183-.135-.127-.543-.068-.813.183-.833,1.134-1.706,1.151-2.559.054-2.776-1.449-7.191-1.354-7.841a2.567,2.567,0,0,1,.406-1.178,5.173,5.173,0,0,0,.853-2.8c-.095-.989-2-3.088-2.14-3.535s-.406-1.354-.731-1.327-.515,1.03-.637,1.395a9.415,9.415,0,0,0-.488,2.235,13,13,0,0,0,.663,3.006c.135.285-.067.2-.121.149a8.5,8.5,0,0,0-.853-1.137c-.718-.582-1.341-.609-1.314-.8s.19-1.815-.135-2.085-1.76-.325-1.909-.65-.312-.88-.434-.934-.487-.176-.528-.054.081.189.2.325a.617.617,0,0,1,.108.515c-.027.189-.433.894-.393,1.165s.582.487.65.582a.232.232,0,0,1-.014.291,1.648,1.648,0,0,1-1.165.44,4.4,4.4,0,0,1-1.693-.162,1.963,1.963,0,0,0-1.327-.041,17.61,17.61,0,0,0-1.327,2.262c-.143.115-.108.2-.088.243s.122.054.2.027a2.818,2.818,0,0,1,1.1-.034,5.668,5.668,0,0,0,1.11.339,1.889,1.889,0,0,0,1.09-1.219,2.04,2.04,0,0,1,.108-.752.572.572,0,0,1,.332-.122c1.429-.217,1.551.365,3.108.2a3.565,3.565,0,0,1,1.8.691c.217.23.556,1.314.786,1.462a9.862,9.862,0,0,1,1.408.813c.731.948,1.205,3.291,1.408,4.076a24.257,24.257,0,0,1,.393,4.09,13.5,13.5,0,0,1-2.1,4.55c-.978,1.388-4.11,3.87-7.994,5.313a8.652,8.652,0,0,1-3.683.433c-2.888-.315-2.546-6.175-2.51-6.5s.311-.483.632-.542a13.558,13.558,0,0,0,7.133-4.153c1.986-2.311.487-5-1.481-5a8.518,8.518,0,0,0-5.363,2.469c-1.427,1.3-3.774,3.846-3.774,10.021s4.622,5.958,6.681,5.633,6.3-2.835,7.6-3.81,5.3-3.828,6.518-3.882,7.168.163,7.764.163.758.379.731.6.054,1-.163,1.11a2.4,2.4,0,0,0-1.056,1.219,5.356,5.356,0,0,0,.785,3.386,1.642,1.642,0,0,1-.009,1.869c-.244.189-.126.307-.108.343a3.1,3.1,0,0,0,.849-.234,1.6,1.6,0,0,0,1.264-1.246c.219-1.172-.415-3.142-.036-3.792.147-.252.343-.452.505-.469a.814.814,0,0,1,.795.325,3.51,3.51,0,0,1,.505,1.625,4.958,4.958,0,0,0,.235,2.4c.325.415,2.779,1.174,3.087,1.517a1.817,1.817,0,0,1,.4,1.065c.018.217.109.433.181.433s.144-.126.2-.379.054-1.228.072-1.716a4.856,4.856,0,0,0-1.083-3.033c-.867-.831-2.51-1.5-2.8-1.914a1.089,1.089,0,0,1-.181-.975c.108-.253.689-.282.993-.234,3.593.559,7.523,5.105,12.531,5.272,4.334.144,9.228-2.059,9.335-7.764A4.8,4.8,0,0,0,1398.519,238.64Zm-46.206-1.634a6.661,6.661,0,0,1,2.858-1.991c1.738-.479,1.891,1.368,1.3,2.4-.569.991-2.394,3.341-5.133,3.341C1350.376,240.753,1350.986,238.6,1352.313,237.006Z" transform="translate(-1347.564 -222.913)" fill="#767676"/>
    </g>
  </g>
</svg>
