<svg xmlns="http://www.w3.org/2000/svg" width="561.25" height="212.657" viewBox="0 0 561.25 212.657">
  <path id="パス_3772" data-name="パス 3772" d="M-187.2-64.8c0-8.28-6.36-13.08-17.52-13.08-18.48,0-38.16,15-38.16,32.76,0,21.24,29.04,28.32,29.04,51.96,0,19.08-21.12,41.04-43.32,41.04-15.36,0-22.92-8.64-22.92-20.4,0-20.4,18-33.72,28.92-33.72,5.76,0,8.88,3,8.88,8.64,0,11.16-8.4,17.88-11.04,19.92-.6.48-.84.72-.84,1.2a1.16,1.16,0,0,0,1.08,1.08,1.94,1.94,0,0,0,1.2-.48c2.76-2.04,13.56-9.84,13.56-21.72,0-7.44-5.4-12.48-12.84-12.48-11.88,0-33.12,15.48-33.12,37.8,0,13.2,9.48,23.88,26.76,23.88,24.96,0,48.36-24.24,48.36-44.76,0-25.08-29.4-33-29.4-51.96,0-16.56,17.64-28.68,33.84-28.68,9.48,0,13.44,3.48,13.44,9.12,0,9.12-9,15-11.76,17.28-.72.6-.96.84-.96,1.32,0,.36.48,1.08.96,1.08a3.2,3.2,0,0,0,1.56-.6C-198-47.64-187.2-54.84-187.2-64.8ZM-189-34.92c1.8,0,4.08.24,6.48.48C-188.76-25.2-194.28-14.52-194.28-6c0,4.2,3,6.72,6.84,6.72,9.84,0,21-12.36,21-12.36a2.679,2.679,0,0,0,.6-1.2,1.541,1.541,0,0,0-1.44-1.32c-.48,0-1.08.72-1.08.72s-9.6,10.68-18,10.68a3.2,3.2,0,0,1-3.48-3.48c0-8.76,5.4-19.08,11.4-27.6,4.8.6,9.72,1.32,12.84,1.32,1.08,0,2.52-1.2,2.52-2.04,0-.48-.24-.96-1.68-.96a86.62,86.62,0,0,1-11.52-1.32c5.52-7.32,10.8-13.2,12.36-15,.96-1.2,1.32-1.44,1.32-2.04a2.282,2.282,0,0,0-2.04-2.16c-.48,0-1.08.36-1.8,1.2a219.826,219.826,0,0,0-14.04,17.4,66.872,66.872,0,0,0-7.92-.6c-4.92,0-7.08,1.92-7.08,3.12a1.225,1.225,0,0,0,1.32,1.2C-193.32-33.72-192.6-34.92-189-34.92Zm66.84,23.28a2.679,2.679,0,0,0,.6-1.2A1.541,1.541,0,0,0-123-14.16c-.48,0-1.08.72-1.08.72-4.68,5.4-11.4,10.08-18.96,14.4.96-2.76,1.8-5.52,2.52-7.92,2.64-8.64,5.16-12.12,7.32-16.32a4.654,4.654,0,0,0,.72-1.68,1.843,1.843,0,0,0-1.8-1.8c-.96,0-1.32.6-1.92,1.68-2.4,4.32-5.04,9.12-8.4,12.96C-151.8-3.84-158.4.48-164.04.48c-2.64,0-3.72-1.56-3.72-3.72,0-6.96,9.72-20.04,13.68-24.96.6-.72.84-1.08.84-1.32a2.4,2.4,0,0,0-2.04-2.04c-2.28,0-17.04,19.8-17.04,28.32,0,4.56,3.12,7.32,7.56,7.32,6,0,13.44-4.92,20.16-11.64-.96,3.36-2.16,7.32-3.6,11.4-22.56,12.36-49.44,22.68-49.44,39.48,0,6.6,5.16,11.4,12.72,11.4,20.64,0,33.24-28.2,40.44-49.44C-135.84.24-127.8-5.16-122.16-11.64Zm-63.12,62.76c-5.4,0-8.64-3.36-8.64-7.92,0-13.68,23.04-23.16,44.28-34.92C-156.6,27.72-168.12,51.12-185.28,51.12Zm90.96-62.76a2.679,2.679,0,0,0,.6-1.2,1.541,1.541,0,0,0-1.44-1.32c-.48,0-1.08.72-1.08.72-1.56,1.8-11.04,12.36-19.2,12.36-3.96,0-6-2.04-6-5.88s1.08-5.52,1.08-5.52C-105.24-26.4-82.44-49.8-82.44-58.8a4.818,4.818,0,0,0-5.16-5.04c-11.28,0-37.56,36.84-37.56,56.88,0,5.88,3.84,9.36,9.12,9.36C-107.4,2.4-96-9.72-94.32-11.64Zm6.84-49.08a1.41,1.41,0,0,1,1.56,1.44c0,8.28-20.76,30.12-33.84,42C-113.4-36.6-94.56-60.72-87.48-60.72Zm28.56,49.08a2.679,2.679,0,0,0,.6-1.2,1.418,1.418,0,0,0-1.32-1.32c-.6,0-1.2.72-1.2.72S-71.88.12-86.28.12c-4.44,0-7.56-2.64-7.56-6.84a6.645,6.645,0,0,1,.24-2.16C-83.64-11.4-67.56-18-67.56-25.2c0-3-2.52-5.16-6.24-5.16-9.24,0-24.24,12.12-24.24,23.28,0,6.84,5.28,10.68,11.76,10.68C-72.36,3.6-58.92-11.64-58.92-11.64ZM-73.32-27c1.8,0,2.16,1.08,2.16,1.44,0,5.04-12.24,10.8-21.36,13.2C-89.04-19.8-79.92-27-73.32-27Zm33.24-48.48c-10.8,0-21,6.6-21,18.24,0,15.48,16.32,24.96,34.92,27.96C-30-21.6-32.28-13.56-32.28-5.76c0,15.6,10.2,24.24,25.08,24.24A39.866,39.866,0,0,0,8.88,14.76L4.56,25.56H4.08c-26.4,0-61.2,16.92-61.2,38.04,0,8.64,6.84,14.64,15.6,14.64,24.96,0,39.12-24.96,49.2-49.08,7.56.6,16.8,3.36,18.12,12.48.12.84.36,1.56,1.2,1.56s1.08-.6,1.08-2.64c0-9.72-9.84-13.68-18.96-14.76l5.4-13.92C26.88,4.56,36-7.2,36-13.92a4.982,4.982,0,0,0-5.28-5.04c-7.68,0-13.44,12.84-19.92,28.92A37.592,37.592,0,0,1-6.84,14.88c-13.32,0-21.12-8.04-21.12-21.12,0-7.32,2.4-15,6.36-22.44a69.508,69.508,0,0,0,8.64.48c30.72,0,67.92-18,67.92-39.12C54.96-73.68,50.28-78,41.88-78,19.56-78-10.2-57.36-24.24-32.76-41.76-35.28-56.88-43.68-56.88-57c0-9.12,8.4-14.52,17.04-14.52,13.44,0,19.08,8.28,20.16,8.28A1.616,1.616,0,0,0-18-64.92C-18-66.12-26.88-75.48-40.08-75.48ZM42-74.28c5.04,0,8.76,2.4,8.76,6.48,0,19.8-37.2,35.88-63.12,35.88-2.4,0-4.92,0-7.32-.24C-5.88-54.84,21.96-74.28,42-74.28ZM-41.16,74.16c-7.08,0-11.76-3.96-11.76-10.44,0-19.2,32.64-34.44,56.04-34.68C-6.6,51.84-19.44,74.16-41.16,74.16ZM30.6-15a1.17,1.17,0,0,1,1.2,1.32C31.8-8.28,25.44,0,16.56,6.36,21.36-6,25.68-15,30.6-15ZM73.8-.72c4.44,0,9.96-3.6,16.68-10.92a2.679,2.679,0,0,0,.6-1.2,1.541,1.541,0,0,0-1.44-1.32c-.48,0-1.08.72-1.08.72-6.24,6.96-10.68,9.6-14.16,9.6-2.64,0-4.8-1.8-4.8-6.12,0-4.08,2.4-6.96,2.4-7.8a2.065,2.065,0,0,0-1.92-1.92c-1.32,0-3.36,3.48-6.6,7.32C59.52-7.56,51.48-.12,46.44-.12c-1.68,0-2.52-1.08-2.52-2.76,0-9.48,14.64-24.72,27.36-24.72,3.6,0,4.2,2.4,4.2,3.48,0,1.2-.36,1.68-.36,2.52a.946.946,0,0,0,.96.96c.84,0,2.52-1.68,2.52-4.08,0-3-2.4-6.12-8.4-6.12-13.2,0-30.36,16.2-30.36,27.96,0,4.08,2.64,6.24,6.24,6.24,6.12,0,15-8.16,19.68-13.56C65.76-4.8,69.12-.72,73.8-.72Zm44.52-10.92a2.679,2.679,0,0,0,.6-1.2,1.541,1.541,0,0,0-1.44-1.32c-.48,0-1.08.72-1.08.72-1.56,1.8-11.04,12.36-19.2,12.36-3.96,0-6-2.04-6-5.88s1.08-5.52,1.08-5.52C107.4-26.4,130.2-49.8,130.2-58.8a4.818,4.818,0,0,0-5.16-5.04C113.76-63.84,87.48-27,87.48-6.96c0,5.88,3.84,9.36,9.12,9.36C105.24,2.4,116.64-9.72,118.32-11.64Zm6.84-49.08a1.41,1.41,0,0,1,1.56,1.44c0,8.28-20.76,30.12-33.84,42C99.24-36.6,118.08-60.72,125.16-60.72Zm21,49.08a2.679,2.679,0,0,0,.6-1.2,1.541,1.541,0,0,0-1.44-1.32c-.48,0-1.08.72-1.08.72-1.56,1.8-11.04,12.36-19.2,12.36-3.96,0-6-2.04-6-5.88s1.08-5.52,1.08-5.52C135.24-26.4,158.04-49.8,158.04-58.8a4.818,4.818,0,0,0-5.16-5.04c-11.28,0-37.56,36.84-37.56,56.88,0,5.88,3.84,9.36,9.12,9.36C133.08,2.4,144.48-9.72,146.16-11.64ZM153-60.72a1.41,1.41,0,0,1,1.56,1.44c0,8.28-20.76,30.12-33.84,42C127.08-36.6,145.92-60.72,153-60.72Zm28.56,49.08a2.679,2.679,0,0,0,.6-1.2,1.418,1.418,0,0,0-1.32-1.32c-.6,0-1.2.72-1.2.72S168.6.12,154.2.12c-4.44,0-7.56-2.64-7.56-6.84a6.644,6.644,0,0,1,.24-2.16c9.96-2.52,26.04-9.12,26.04-16.32,0-3-2.52-5.16-6.24-5.16-9.24,0-24.24,12.12-24.24,23.28,0,6.84,5.28,10.68,11.76,10.68C168.12,3.6,181.56-11.64,181.56-11.64ZM167.16-27c1.8,0,2.16,1.08,2.16,1.44,0,5.04-12.24,10.8-21.36,13.2C151.44-19.8,160.56-27,167.16-27Zm28.92-3.84c0-1.8,5.16-6.12,5.16-7.92a3.2,3.2,0,0,0-2.64-2.52c-3,0-5.04,7.68-6.48,10.56C190.2-27,183.72-18,179.64-13.44a2.679,2.679,0,0,0-.6,1.2,1.413,1.413,0,0,0,1.32,1.2,2.1,2.1,0,0,0,1.2-.6c4.44-5.04,9.48-11.52,11.28-14.04.72-.96,1.08-1.32,1.56-1.32.72,0,2.16.96,4.68,2.76.84.6,1.44,1.08,1.44,1.68,0,4.2-9.72,11.4-9.72,18.84,0,3.72,2.88,6,6.48,6,6.36,0,14.76-6.6,21.48-13.92a2.679,2.679,0,0,0,.6-1.2,1.528,1.528,0,0,0-1.32-1.32c-.6,0-1.2.72-1.2.72C210.6-6.48,203.64-.84,198-.84c-1.92,0-3.24-.96-3.24-3.12,0-6.96,10.44-14.4,10.44-19.56,0-1.2-.84-1.92-2.16-2.52C200.64-27.36,196.08-30.12,196.08-30.84Zm66.96,19.2a2.679,2.679,0,0,0,.6-1.2,1.541,1.541,0,0,0-1.44-1.32c-.48,0-1.08.72-1.08.72-4.68,5.4-11.4,10.08-18.96,14.4.96-2.76,1.8-5.52,2.52-7.92,2.64-8.64,5.16-12.12,7.32-16.32a4.654,4.654,0,0,0,.72-1.68,1.843,1.843,0,0,0-1.8-1.8c-.96,0-1.32.6-1.92,1.68-2.4,4.32-5.04,9.12-8.4,12.96C233.4-3.84,226.8.48,221.16.48c-2.64,0-3.72-1.56-3.72-3.72,0-6.96,9.72-20.04,13.68-24.96.6-.72.84-1.08.84-1.32a2.4,2.4,0,0,0-2.04-2.04c-2.28,0-17.04,19.8-17.04,28.32,0,4.56,3.12,7.32,7.56,7.32,6,0,13.44-4.92,20.16-11.64-.96,3.36-2.16,7.32-3.6,11.4-22.56,12.36-49.44,22.68-49.44,39.48,0,6.6,5.16,11.4,12.72,11.4,20.64,0,33.24-28.2,40.44-49.44C249.36.24,257.4-5.16,263.04-11.64ZM199.92,51.12c-5.4,0-8.64-3.36-8.64-7.92,0-13.68,23.04-23.16,44.28-34.92C228.6,27.72,217.08,51.12,199.92,51.12Z" transform="matrix(0.995, -0.105, 0.105, 0.995, 290.876, 105.131)" fill="#f59c9c"/>
</svg>
