<svg xmlns="http://www.w3.org/2000/svg" width="590.625" height="269" viewBox="0 0 590.625 269">
  <g id="グループ_1527" data-name="グループ 1527" transform="translate(-120 -1704)">
    <g id="グループ_583" data-name="グループ 583" transform="translate(121.098 1876.954)">
      <g id="グループ_578" data-name="グループ 578" transform="translate(508.725)">
        <g id="グループ_577" data-name="グループ 577">
          <path id="パス_2909" data-name="パス 2909" d="M2909.106,1887.688v79.545h-72.513v-1.193h66.645a5.029,5.029,0,0,0,4.78-5.245v-73.107Z" transform="translate(-2828.304 -1873.486)" fill="#575656"/>
          <g id="グループ_575" data-name="グループ 575" transform="translate(79.714)">
            <rect id="長方形_133" data-name="長方形 133" width="1.087" height="10.165" fill="#575656"/>
          </g>
          <g id="グループ_576" data-name="グループ 576" transform="translate(0 92.553)">
            <rect id="長方形_134" data-name="長方形 134" width="5.374" height="1.193" fill="#575656"/>
          </g>
        </g>
      </g>
      <g id="グループ_582" data-name="グループ 582">
        <g id="グループ_581" data-name="グループ 581">
          <path id="パス_2910" data-name="パス 2910" d="M611.051,1887.688v79.545h72.513v-1.193H616.919a5.029,5.029,0,0,1-4.781-5.245v-73.107Z" transform="translate(-611.051 -1873.486)" fill="#575656"/>
          <g id="グループ_579" data-name="グループ 579" transform="translate(0)">
            <rect id="長方形_135" data-name="長方形 135" width="1.088" height="10.165" fill="#575656"/>
          </g>
          <g id="グループ_580" data-name="グループ 580" transform="translate(75.428 92.553)">
            <rect id="長方形_136" data-name="長方形 136" width="5.374" height="1.193" fill="#575656"/>
          </g>
        </g>
      </g>
    </g>
    <g id="グループ_592" data-name="グループ 592" transform="translate(121.098 1704)">
      <g id="グループ_587" data-name="グループ 587" transform="translate(508.725)">
        <g id="グループ_586" data-name="グループ 586">
          <path id="パス_2911" data-name="パス 2911" d="M2909.106,609.575V530.03h-72.513v1.193h66.645a5.029,5.029,0,0,1,4.78,5.245v73.107Z" transform="translate(-2828.304 -530.03)" fill="#575656"/>
          <g id="グループ_584" data-name="グループ 584" transform="translate(79.714 83.581)">
            <rect id="長方形_137" data-name="長方形 137" width="1.087" height="10.165" fill="#575656"/>
          </g>
          <g id="グループ_585" data-name="グループ 585" transform="translate(0 0)">
            <rect id="長方形_138" data-name="長方形 138" width="5.374" height="1.193" fill="#575656"/>
          </g>
        </g>
      </g>
      <g id="グループ_591" data-name="グループ 591">
        <g id="グループ_590" data-name="グループ 590">
          <path id="パス_2912" data-name="パス 2912" d="M611.051,609.575V530.03h72.513v1.193H616.919a5.029,5.029,0,0,0-4.781,5.245v73.107Z" transform="translate(-611.051 -530.03)" fill="#575656"/>
          <g id="グループ_588" data-name="グループ 588" transform="translate(0 83.581)">
            <rect id="長方形_139" data-name="長方形 139" width="1.088" height="10.165" fill="#575656"/>
          </g>
          <g id="グループ_589" data-name="グループ 589" transform="translate(75.428 0)">
            <rect id="長方形_140" data-name="長方形 140" width="5.374" height="1.193" fill="#575656"/>
          </g>
        </g>
      </g>
    </g>
    <g id="グループ_610" data-name="グループ 610" transform="translate(120 1801.789)">
      <rect id="長方形_142" data-name="長方形 142" width="1.098" height="71.152" transform="translate(0 0)" fill="#575656"/>
    </g>
    <g id="グループ_612" data-name="グループ 612" transform="translate(214.609 1969.507)">
      <rect id="長方形_144" data-name="長方形 144" width="407.254" height="1.193" transform="translate(0)" fill="#575656"/>
    </g>
    <rect id="長方形_7" data-name="長方形 7" width="590" height="269" transform="translate(120 1704)" fill="none"/>
    <rect id="長方形_143" data-name="長方形 143" width="441.034" height="1.193" transform="translate(180.829 1704)" fill="#575656"/>
    <g id="グループ_595" data-name="グループ 595" transform="translate(125.734 1708.852)">
      <path id="パス_2913" data-name="パス 2913" d="M855.207,660.2a13.559,13.559,0,0,1,1.539,5.483c0,.04.025.055.043.048s.039-.008.042-.048a13.415,13.415,0,0,1,1.581-5.55,1.2,1.2,0,0,0,.037-1.081l-.035-.073a1.064,1.064,0,0,0-.575-.6,2.619,2.619,0,0,1-.591-.291.813.813,0,0,0-.861-.021,3.65,3.65,0,0,1-.656.315,1.068,1.068,0,0,0-.568.6l0,.011A1.384,1.384,0,0,0,855.207,660.2Z" transform="translate(-828.762 -645.471)" fill="#575656"/>
      <g id="グループ_593" data-name="グループ 593" transform="translate(1.248 1.508)">
        <path id="パス_2914" data-name="パス 2914" d="M661.042,602.888l-.125-.107.1.086Z" transform="translate(-660.539 -599.285)" fill="#575656"/>
        <path id="パス_2915" data-name="パス 2915" d="M660.372,602.338l.069.06Z" transform="translate(-660.063 -598.902)" fill="#575656"/>
        <path id="パス_2916" data-name="パス 2916" d="M659.307,581.269q.706.534,1.45,1a19.761,19.761,0,0,0,3.1,1.612,15.752,15.752,0,0,0,3.318.962,12.73,12.73,0,0,0,3.429.123,11.786,11.786,0,0,0,3.34-.844c.313-.128.62-.27.923-.424l.006.005c-.3.154-.612.3-.927.425a11.789,11.789,0,0,1-3.342.844,12.739,12.739,0,0,1-3.43-.124,15.73,15.73,0,0,1-3.319-.964,19.831,19.831,0,0,1-3.1-1.614q-.743-.471-1.449-1.006c-.364-.277-.722-.563-1.066-.868l.011.01c-.1-.092-.207-.185-.308-.28l.032.031c.061.057.209.2.444.4.316.271.788.66,1.414,1.115a22.905,22.905,0,0,0,2.343,1.5,18.618,18.618,0,0,0,3.278,1.444,14.74,14.74,0,0,0,1.982.5,13.12,13.12,0,0,0,2.181.215,12.325,12.325,0,0,0,2.321-.188,12.669,12.669,0,0,0,2.365-.671c.319-.126.637-.267.95-.42a21.8,21.8,0,0,0,1.921,1.541l.423.293c.071.051.144.1.219.143l.224.14c.3.194.617.361.939.539a9.65,9.65,0,0,0,2.15.815,6.429,6.429,0,0,0,1.222.171c.105,0,.213,0,.32,0a2.417,2.417,0,0,0,.324-.019l.328-.039c.11-.02.22-.047.33-.071a1.6,1.6,0,0,1,2.162,0c.11.024.22.051.329.071l.328.039a2.426,2.426,0,0,0,.324.019c.108,0,.215.006.321,0a6.433,6.433,0,0,0,1.222-.171,9.654,9.654,0,0,0,2.15-.815c.323-.178.643-.345.939-.539l.224-.14c.075-.045.148-.092.219-.143l.423-.293a21.691,21.691,0,0,0,1.92-1.541c.314.154.631.295.951.42a12.669,12.669,0,0,0,2.365.671,12.327,12.327,0,0,0,2.321.188,13.118,13.118,0,0,0,2.181-.215,14.731,14.731,0,0,0,1.982-.5,18.606,18.606,0,0,0,3.278-1.444,22.817,22.817,0,0,0,2.342-1.5c.626-.455,1.1-.844,1.415-1.115.234-.2.382-.34.444-.4l.032-.031c-.1.1-.2.188-.309.28l.011-.01c-.344.3-.7.591-1.066.868q-.706.534-1.449,1.006a19.839,19.839,0,0,1-3.1,1.614,15.732,15.732,0,0,1-3.318.964,12.744,12.744,0,0,1-3.431.124,11.8,11.8,0,0,1-3.342-.844c-.315-.128-.623-.271-.927-.425l.006-.005c.3.154.61.3.923.424a11.787,11.787,0,0,0,3.34.844,12.73,12.73,0,0,0,3.429-.123,15.753,15.753,0,0,0,3.318-.962,19.773,19.773,0,0,0,3.1-1.612q.743-.471,1.451-1c.292-.222.58-.452.861-.69-.318.268-.785.641-1.4,1.069a19.65,19.65,0,0,1-2.379,1.406,16.879,16.879,0,0,1-3.3,1.251,13.246,13.246,0,0,1-4.075.431,11.8,11.8,0,0,1-2.2-.333,12.21,12.21,0,0,1-2.186-.785c-.173-.082-.344-.168-.514-.259l.151-.145.292-.281.275-.281.518-.53c.323-.351.623-.667.887-.961l.7-.788.509-.589c.277-.319.43-.483.43-.483l-.614.654-.308.327-.315.318c-.21.212-.418.427-.631.635l-.643.62q-.744.7-1.517,1.358l0,0c.517-.438,1.023-.892,1.519-1.358l.644-.619c.213-.208.421-.424.631-.635l.315-.318.308-.326.615-.653s-.155.163-.454.457c-.15.146-.334.328-.555.535l-.77.7c-.291.259-.621.534-.976.839l-.566.458-.3.241-.314.24c-.121.093-.245.187-.372.282a15.675,15.675,0,0,1-2.944-2.294q-.456-.448-.889-.932l-.461-.5c-.155-.174-.327-.335-.5-.5l-.127-.123c-.043-.041-.089-.078-.133-.117l-.269-.233c-.087-.08-.187-.148-.281-.222s-.19-.146-.289-.215a6.434,6.434,0,0,0-1.3-.695,3.761,3.761,0,0,0-1.533-.237,2.161,2.161,0,0,1-1.937,0,3.76,3.76,0,0,0-1.533.237,6.44,6.44,0,0,0-1.3.695c-.1.068-.192.143-.289.215s-.193.142-.281.222l-.269.233c-.045.039-.091.077-.133.117l-.127.123c-.168.165-.34.325-.495.5l-.461.5c-.288.323-.585.633-.889.932a15.659,15.659,0,0,1-2.944,2.294c-.126-.095-.251-.189-.371-.282l-.315-.24-.3-.241-.566-.458c-.354-.305-.684-.581-.975-.839l-.771-.7c-.221-.208-.4-.389-.555-.535-.3-.294-.455-.457-.455-.457l.616.653.308.326.315.318c.211.211.418.427.631.635l.644.619c.5.465,1,.92,1.519,1.358l0,0q-.775-.657-1.518-1.358l-.644-.62c-.213-.209-.42-.424-.63-.635l-.315-.318-.307-.327-.615-.654s.153.165.43.483l.51.589.7.788c.263.294.564.611.886.961l.519.53.275.281.292.281.151.145c-.17.09-.342.177-.515.259a12.211,12.211,0,0,1-2.186.785,11.791,11.791,0,0,1-2.2.333,13.246,13.246,0,0,1-4.075-.431,16.9,16.9,0,0,1-3.3-1.251,19.667,19.667,0,0,1-2.379-1.406c-.619-.428-1.086-.8-1.4-1.068C658.727,580.817,659.015,581.047,659.307,581.269ZM682.226,587a6.343,6.343,0,0,1-1.694-.3c-.069-.022-.14-.038-.207-.063l-.2-.074-.2-.073c-.068-.024-.136-.049-.2-.079-.266-.116-.535-.225-.793-.361a18.628,18.628,0,0,1-2.967-1.884q-.183-.14-.365-.284l0,0q.18.143.364.282a18.67,18.67,0,0,0,2.966,1.883c.258.136.527.245.793.361.066.03.134.055.2.079l.2.074.2.074c.068.025.138.041.207.063a6.32,6.32,0,0,0,1.693.3,4.266,4.266,0,0,0,1.69-.271c.047-.018.093-.038.139-.058l.006.005c-.047.02-.095.041-.143.059A4.265,4.265,0,0,1,682.226,587Zm4.81-6.8a5.73,5.73,0,0,0-.619-1.464c-.047-.078-.1-.155-.151-.231a2.949,2.949,0,0,1,.55.121,5.155,5.155,0,0,1,1.028.505c.084.053.166.115.249.171s.168.111.247.179l.242.192c.04.033.081.063.121.1l.117.1c.156.14.315.275.463.428s.3.292.464.459q.481.49.99.939a16.108,16.108,0,0,0,2.794,2c-.524.364-1.085.727-1.687,1.072l-.424.238c-.071.041-.143.079-.217.115l-.221.111c-.293.156-.6.284-.909.423a9.252,9.252,0,0,1-1.952.579,5.693,5.693,0,0,1-1.01.079c-.083,0-.166-.012-.25-.018a1.707,1.707,0,0,1-.247-.027l-.245-.041c-.08-.019-.159-.043-.238-.064-.039-.011-.08-.019-.118-.034l-.051-.02.064-.077a5.257,5.257,0,0,0,.757-1.3,6.719,6.719,0,0,0,.407-1.465A7.3,7.3,0,0,0,687.036,580.2Zm-1.471-1.4a4.031,4.031,0,0,1,.468.782c.07.136.118.284.176.426.026.073.047.147.071.221s.047.147.065.223a6.476,6.476,0,0,1,.206,1.849,6.25,6.25,0,0,1-.32,1.829,4.673,4.673,0,0,1-.887,1.587l-.054.058-.006,0,.055-.06a4.664,4.664,0,0,0,.885-1.585,6.25,6.25,0,0,0,.319-1.826,6.474,6.474,0,0,0-.206-1.846c-.017-.076-.041-.149-.065-.222s-.045-.148-.071-.221c-.058-.142-.106-.289-.176-.425a4.015,4.015,0,0,0-.467-.78c-.056-.073-.116-.142-.178-.209l.008,0C685.451,578.656,685.51,578.725,685.565,578.8Zm-.831.2a3.529,3.529,0,0,1,.9,1.651,5.81,5.81,0,0,1,.119,2.349,4.508,4.508,0,0,1-.807,2.047c-.066.087-.137.169-.209.248-.073-.079-.143-.161-.209-.248a4.5,4.5,0,0,1-.808-2.047,5.812,5.812,0,0,1,.118-2.349A3.528,3.528,0,0,1,684.734,579Zm.006,7.277-.006,0-.006,0,.006,0Zm0-8.213-.009,0-.008,0,.008,0Zm-.655.534a2.717,2.717,0,0,0-.178.209,4.02,4.02,0,0,0-.467.78c-.07.136-.118.283-.176.425-.025.073-.047.147-.071.221s-.048.147-.064.222a6.459,6.459,0,0,0-.206,1.846,6.246,6.246,0,0,0,.319,1.826,4.669,4.669,0,0,0,.885,1.585l.055.06-.006,0-.054-.058a4.671,4.671,0,0,1-.887-1.587,6.262,6.262,0,0,1-.32-1.829,6.468,6.468,0,0,1,.206-1.849c.017-.076.041-.149.065-.223s.045-.148.07-.221c.058-.143.106-.29.176-.426a4.03,4.03,0,0,1,.468-.782c.055-.073.114-.141.176-.207Zm-1.037.141a5.726,5.726,0,0,0-.618,1.464,7.305,7.305,0,0,0-.153,3.063,6.766,6.766,0,0,0,.406,1.465,5.273,5.273,0,0,0,.758,1.3l.064.077-.051.02c-.038.015-.079.023-.118.034-.08.021-.158.045-.238.064l-.245.041a1.707,1.707,0,0,1-.247.027c-.084.005-.166.016-.25.018a5.693,5.693,0,0,1-1.01-.079,9.253,9.253,0,0,1-1.952-.579c-.309-.139-.616-.268-.909-.423l-.22-.111c-.074-.036-.147-.073-.217-.115l-.424-.238c-.6-.345-1.163-.708-1.687-1.072a16.116,16.116,0,0,0,2.794-2q.508-.447.99-.939c.166-.168.312-.309.464-.459s.307-.288.463-.428l.117-.1c.039-.034.081-.065.121-.1l.242-.192c.079-.068.164-.119.247-.179s.165-.118.249-.171a5.151,5.151,0,0,1,1.029-.505,2.949,2.949,0,0,1,.549-.121C683.15,578.579,683.1,578.656,683.051,578.734Zm10.463,5.434a18.632,18.632,0,0,1-2.967,1.884c-.258.136-.527.245-.793.361-.066.03-.134.055-.2.079l-.2.073-.2.074c-.068.025-.138.042-.207.063a6.342,6.342,0,0,1-1.694.3,4.264,4.264,0,0,1-1.693-.271c-.048-.018-.1-.039-.143-.059l.006-.005c.046.02.092.04.139.058a4.266,4.266,0,0,0,1.69.271,6.32,6.32,0,0,0,1.693-.3c.069-.021.139-.037.207-.063l.2-.074.2-.074c.068-.024.136-.049.2-.079.266-.116.535-.224.793-.361a18.643,18.643,0,0,0,2.966-1.883q.184-.14.364-.282l0,0Q693.7,584.028,693.514,584.168Zm.786-.623-.006,0,0,0,.006-.005Zm-7.273-5.627a5.663,5.663,0,0,1,1.522.859l.09.065c.029.022.057.047.085.07l.171.142.17.142c.057.048.109.1.164.151l.326.305.311.323a19.556,19.556,0,0,0,2.624,2.409,15.124,15.124,0,0,0,1.5.987l-.007,0a15.043,15.043,0,0,1-1.494-.985,19.476,19.476,0,0,1-2.625-2.409l-.311-.322-.326-.305c-.055-.05-.108-.1-.164-.151l-.171-.142-.171-.142c-.029-.024-.057-.048-.086-.07l-.089-.065a5.674,5.674,0,0,0-1.52-.858,3.077,3.077,0,0,0-1.413-.165l-.011-.008A3.059,3.059,0,0,1,687.027,577.919Zm-10.049,4.466a19.589,19.589,0,0,0,2.623-2.409l.312-.323.326-.305c.055-.05.108-.1.164-.151l.171-.142.171-.142c.028-.023.056-.048.085-.07l.089-.065a5.665,5.665,0,0,1,1.522-.859,3.058,3.058,0,0,1,1.426-.166l-.01.008a3.078,3.078,0,0,0-1.414.165,5.673,5.673,0,0,0-1.52.858l-.089.065c-.029.022-.057.047-.086.07l-.171.142-.17.142c-.057.048-.11.1-.164.151l-.326.305-.311.322a19.5,19.5,0,0,1-2.625,2.409,15,15,0,0,1-1.494.985l-.007,0A15.155,15.155,0,0,0,676.978,582.384Zm-1.806,1.159.006.005,0,0-.006,0Z" transform="translate(-657.943 -576.976)" fill="#575656"/>
        <path id="パス_2917" data-name="パス 2917" d="M1076.859,602.4l.07-.06Z" transform="translate(-1023.654 -598.904)" fill="#575656"/>
        <path id="パス_2918" data-name="パス 2918" d="M1076,602.785l-.125.106.025-.021Z" transform="translate(-1022.798 -599.289)" fill="#575656"/>
      </g>
      <path id="パス_2919" data-name="パス 2919" d="M740.647,779.627a11.064,11.064,0,0,1,5.049-1.672c.038,0,.051-.027.045-.046s-.007-.042-.045-.046a10.955,10.955,0,0,1-5.11-1.717.957.957,0,0,0-1-.04l-.067.038a1.082,1.082,0,0,0-.556.625,3.073,3.073,0,0,1-.268.642,1.016,1.016,0,0,0-.018.935,4.368,4.368,0,0,1,.289.712,1.085,1.085,0,0,0,.553.617l.01.006A1.1,1.1,0,0,0,740.647,779.627Z" transform="translate(-727.087 -747.517)" fill="#575656"/>
      <g id="グループ_594" data-name="グループ 594" transform="translate(1.389 1.281)">
        <path id="パス_2920" data-name="パス 2920" d="M684.494,1000.828l-.1.136.079-.109Z" transform="translate(-681.177 -943.181)" fill="#575656"/>
        <path id="パス_2921" data-name="パス 2921" d="M683.958,1001.91l.056-.075Z" transform="translate(-680.794 -944.051)" fill="#575656"/>
        <path id="パス_2922" data-name="パス 2922" d="M663,632.014q.492-.766.925-1.575a23.125,23.125,0,0,0,1.484-3.366,19.512,19.512,0,0,0,.886-3.6,16.255,16.255,0,0,0,.113-3.724,15.181,15.181,0,0,0-.275-1.843,14.8,14.8,0,0,0-.5-1.785c-.117-.34-.249-.674-.39-1l0-.007c.142.33.274.665.392,1.007a14.95,14.95,0,0,1,.5,1.786,15.347,15.347,0,0,1,.274,1.844,16.27,16.27,0,0,1-.114,3.726,19.472,19.472,0,0,1-.887,3.6,23.043,23.043,0,0,1-1.486,3.366q-.434.807-.926,1.574c-.255.4-.519.784-.8,1.158l.009-.012c-.084.113-.17.225-.258.335l.028-.035c.053-.066.18-.227.366-.482.25-.344.607-.856,1.027-1.536a25.634,25.634,0,0,0,1.379-2.544,22.2,22.2,0,0,0,1.33-3.56,18.243,18.243,0,0,0,.463-2.152,16.668,16.668,0,0,0,.2-2.369,15.436,15.436,0,0,0-.791-5.089q-.174-.521-.387-1.032a23.392,23.392,0,0,0,1.419-2.086l.27-.459c.047-.077.09-.156.132-.237l.129-.244c.179-.322.332-.67.5-1.02a11.713,11.713,0,0,0,.75-2.336,8.184,8.184,0,0,0,.157-1.328c0-.115,0-.231,0-.348a3.082,3.082,0,0,0-.017-.353l-.036-.356c-.018-.119-.043-.238-.065-.358a1.973,1.973,0,0,1,0-2.348c.022-.12.047-.239.065-.358l.036-.356a3.075,3.075,0,0,0,.017-.352c0-.116.006-.233,0-.348a8.189,8.189,0,0,0-.157-1.328,11.709,11.709,0,0,0-.75-2.335c-.164-.35-.318-.7-.5-1.02l-.129-.243c-.042-.081-.085-.161-.132-.238l-.27-.459a23.377,23.377,0,0,0-1.419-2.086q.212-.512.387-1.032a15.444,15.444,0,0,0,.791-5.09,16.676,16.676,0,0,0-.2-2.369,18.27,18.27,0,0,0-.463-2.152,22.178,22.178,0,0,0-1.33-3.56,25.628,25.628,0,0,0-1.379-2.544c-.419-.68-.777-1.193-1.027-1.536-.186-.255-.313-.416-.366-.482l-.028-.035q.132.165.258.335l-.009-.012c.28.374.544.763.8,1.158q.492.766.926,1.574a23.028,23.028,0,0,1,1.486,3.366,19.466,19.466,0,0,1,.887,3.6,16.273,16.273,0,0,1,.114,3.726,15.342,15.342,0,0,1-.274,1.844,14.958,14.958,0,0,1-.5,1.786c-.118.341-.25.676-.392,1.006l0-.006c.141-.329.273-.663.39-1a14.788,14.788,0,0,0,.5-1.785,15.177,15.177,0,0,0,.275-1.843,16.254,16.254,0,0,0-.113-3.724,19.506,19.506,0,0,0-.886-3.6,23.132,23.132,0,0,0-1.484-3.366q-.433-.807-.925-1.575-.306-.477-.636-.935c.247.345.59.853.984,1.526a22.426,22.426,0,0,1,1.3,2.584,20.515,20.515,0,0,1,1.152,3.586,16.864,16.864,0,0,1,.4,4.426,14.6,14.6,0,0,1-1.028,4.76q-.114.282-.238.559l-.134-.164-.259-.317-.258-.3-.489-.563c-.323-.35-.614-.676-.885-.963l-.725-.76-.542-.553c-.294-.3-.445-.467-.445-.467l.6.668.3.334.293.342c.2.228.393.454.585.685l.571.7q.643.807,1.25,1.648v0q-.6-.842-1.251-1.65l-.57-.7c-.192-.231-.39-.456-.585-.685l-.293-.342-.3-.334-.6-.668s.15.168.42.493c.134.163.3.362.493.6l.645.837c.238.316.492.675.772,1.06l.421.614.222.324.221.342q.128.2.259.4a16.914,16.914,0,0,1-2.113,3.2c-.275.33-.56.653-.858.966l-.463.5c-.161.168-.308.355-.46.538l-.113.137c-.038.047-.072.1-.108.145l-.214.292c-.074.1-.137.2-.2.3s-.135.206-.2.314a7.469,7.469,0,0,0-.64,1.408,4.766,4.766,0,0,0-.218,1.665,2.725,2.725,0,0,1,0,2.1,4.765,4.765,0,0,0,.218,1.665,7.474,7.474,0,0,0,.64,1.408c.063.108.132.209.2.314s.131.21.2.3l.214.292c.036.048.071.1.108.144l.113.138c.152.183.3.37.46.538l.463.5c.3.312.583.636.858.965a16.928,16.928,0,0,1,2.113,3.2c-.087.137-.174.272-.259.4l-.221.342-.222.324-.421.614c-.28.385-.535.743-.772,1.06l-.645.837c-.191.24-.359.44-.493.6-.27.325-.42.493-.42.493l.6-.668.3-.334.293-.342c.195-.229.392-.454.585-.685l.57-.7q.644-.808,1.251-1.65v0q-.605.841-1.25,1.648l-.571.7c-.192.231-.39.456-.585.685l-.293.341-.3.334-.6.668s.151-.166.445-.467l.542-.553.725-.76c.271-.287.562-.612.885-.963l.489-.563.258-.3.259-.317.134-.164q.125.278.238.559a14.6,14.6,0,0,1,1.028,4.76,16.861,16.861,0,0,1-.4,4.426,20.5,20.5,0,0,1-1.152,3.586,22.43,22.43,0,0,1-1.3,2.584c-.394.672-.737,1.18-.983,1.525Q662.7,632.492,663,632.014Zm5.278-24.891a7.98,7.98,0,0,1-.274,1.84c-.02.075-.034.151-.058.225l-.068.222-.068.222c-.022.074-.044.148-.072.22-.107.289-.207.581-.333.862a21.049,21.049,0,0,1-1.735,3.221c-.086.133-.174.265-.261.4l0,0q.131-.2.26-.4a21.02,21.02,0,0,0,1.733-3.221c.126-.28.226-.572.333-.861.028-.072.05-.146.073-.219l.068-.222.068-.222c.024-.073.038-.15.058-.225a7.989,7.989,0,0,0,.273-1.839,5.392,5.392,0,0,0-.25-1.835c-.016-.051-.035-.1-.054-.151l0-.006c.019.051.038.1.055.155A5.394,5.394,0,0,1,668.28,607.123Zm-6.264-5.224a4.872,4.872,0,0,0-1.348.671c-.072.052-.143.107-.213.164a3.76,3.76,0,0,1,.111-.6,6.088,6.088,0,0,1,.465-1.117c.049-.091.106-.18.157-.27s.1-.182.164-.268l.177-.263c.03-.044.058-.089.089-.131l.1-.128c.129-.169.253-.342.394-.5s.269-.323.423-.5q.451-.522.865-1.075a17.721,17.721,0,0,0,1.839-3.035c.335.569.669,1.179.987,1.833l.219.461c.038.077.073.156.106.236s.068.159.1.24c.143.318.261.652.39.987a11.446,11.446,0,0,1,.533,2.12,7.236,7.236,0,0,1,.072,1.1c0,.091-.011.18-.016.271a2.293,2.293,0,0,1-.025.269l-.038.266c-.018.087-.04.172-.059.259-.01.042-.018.087-.031.128l-.018.055c-.024-.023-.047-.047-.071-.069a4.718,4.718,0,0,0-1.2-.823,5.47,5.47,0,0,0-1.35-.442A5.729,5.729,0,0,0,662.016,601.9Zm-1.29,1.6a3.645,3.645,0,0,1,.72-.509c.126-.076.261-.128.392-.191.067-.027.136-.051.2-.077a2.152,2.152,0,0,1,.205-.07,5.1,5.1,0,0,1,1.7-.223,4.971,4.971,0,0,1,1.684.347,4.183,4.183,0,0,1,1.461.963c.018.019.036.04.054.059l0,.006c-.019-.02-.036-.041-.056-.06a4.157,4.157,0,0,0-1.459-.961,4.97,4.97,0,0,0-1.681-.347,5.089,5.089,0,0,0-1.7.224,1.993,1.993,0,0,0-.2.07c-.068.026-.136.049-.2.077a4.351,4.351,0,0,0-.392.191,3.614,3.614,0,0,0-.719.507,2.724,2.724,0,0,0-.193.194s0-.007,0-.01C660.6,603.621,660.659,603.557,660.726,603.5Zm.182.9a3.142,3.142,0,0,1,1.52-.975,4.562,4.562,0,0,1,2.163-.129,3.813,3.813,0,0,1,1.885.877c.081.072.156.148.229.227-.073.079-.148.155-.229.227a3.817,3.817,0,0,1-1.885.877,4.569,4.569,0,0,1-2.163-.128A3.149,3.149,0,0,1,660.908,604.4Zm6.7-.007,0,.007,0,.006,0-.006Zm-7.563,0,0,.009,0,.009,0-.009Zm.492.712a2.67,2.67,0,0,0,.193.193,3.638,3.638,0,0,0,.719.508c.125.076.26.128.392.191.067.027.135.051.2.077a2.1,2.1,0,0,0,.2.07,5.092,5.092,0,0,0,1.7.223,4.965,4.965,0,0,0,1.681-.347,4.168,4.168,0,0,0,1.459-.962c.019-.019.037-.04.056-.06l0,.007c-.018.019-.035.04-.054.059a4.175,4.175,0,0,1-1.461.964,4.98,4.98,0,0,1-1.684.347,5.106,5.106,0,0,1-1.7-.223,2.1,2.1,0,0,1-.205-.07c-.068-.026-.136-.05-.2-.077-.131-.063-.267-.115-.392-.191a3.655,3.655,0,0,1-.72-.508c-.067-.06-.13-.124-.191-.191C660.536,605.108,660.537,605.1,660.538,605.1Zm.13,1.126a4.887,4.887,0,0,0,1.348.672,5.731,5.731,0,0,0,2.82.166,5.488,5.488,0,0,0,1.35-.441,4.738,4.738,0,0,0,1.2-.823c.024-.022.048-.046.071-.069l.018.055c.013.042.02.086.031.129.019.086.042.171.059.258l.038.266a2.283,2.283,0,0,1,.025.269c0,.091.014.18.016.271a7.232,7.232,0,0,1-.072,1.1,11.43,11.43,0,0,1-.533,2.12c-.129.335-.247.669-.39.988l-.1.24c-.033.08-.067.159-.106.236l-.219.461c-.318.654-.652,1.263-.987,1.832a17.74,17.74,0,0,0-1.839-3.034q-.413-.553-.865-1.075c-.154-.181-.284-.339-.423-.5s-.265-.334-.394-.5l-.1-.127c-.032-.043-.059-.088-.089-.131l-.177-.263c-.062-.086-.11-.179-.164-.268s-.108-.179-.157-.27a6.1,6.1,0,0,1-.465-1.117,3.765,3.765,0,0,1-.111-.6C660.525,606.12,660.6,606.175,660.668,606.227Zm5-11.364a21.049,21.049,0,0,1,1.735,3.222c.126.28.226.572.333.861.028.072.051.146.072.219l.068.222.068.222c.024.074.038.15.058.225a7.976,7.976,0,0,1,.274,1.84,5.391,5.391,0,0,1-.249,1.838c-.017.052-.036.1-.055.155l0-.007c.018-.05.037-.1.054-.151a5.391,5.391,0,0,0,.25-1.835,7.984,7.984,0,0,0-.273-1.838c-.02-.075-.034-.152-.058-.225l-.068-.222-.068-.221c-.022-.074-.044-.148-.073-.22-.107-.289-.207-.581-.333-.861a20.991,20.991,0,0,0-1.733-3.221q-.129-.2-.26-.4l0,0Q665.542,594.664,665.671,594.864Zm-.574-.854,0,.007,0,0,0-.007Zm-5.181,7.9a6.526,6.526,0,0,1,.79-1.653l.06-.1c.021-.032.043-.062.065-.093l.131-.186.131-.186c.044-.061.093-.119.139-.178l.281-.354.3-.338a20.306,20.306,0,0,0,2.218-2.849,16.891,16.891,0,0,0,.909-1.626l0,.008a17,17,0,0,1-.907,1.623,20.355,20.355,0,0,1-2.218,2.85l-.3.338-.281.354c-.046.059-.1.117-.139.178l-.131.185-.131.186c-.022.031-.044.061-.065.093l-.06.1a6.527,6.527,0,0,0-.789,1.651,3.875,3.875,0,0,0-.152,1.535l-.008.011A3.9,3.9,0,0,1,659.917,601.909Zm4.112,10.914a20.275,20.275,0,0,0-2.218-2.849l-.3-.338-.281-.354c-.047-.06-.1-.117-.139-.179l-.131-.185-.131-.186c-.022-.031-.044-.061-.065-.093l-.06-.1a6.526,6.526,0,0,1-.79-1.654,3.9,3.9,0,0,1-.153-1.548l.008.011a3.875,3.875,0,0,0,.152,1.535,6.54,6.54,0,0,0,.789,1.651l.06.1c.021.032.043.062.065.093l.131.185.131.185c.044.062.093.119.139.178l.281.353.3.338a20.335,20.335,0,0,1,2.218,2.851,16.931,16.931,0,0,1,.907,1.623l0,.007A16.886,16.886,0,0,0,664.029,612.823Zm1.067,1.961,0-.007,0,0,0,.006Z" transform="translate(-659.049 -575.302)" fill="#575656"/>
        <path id="パス_2923" data-name="パス 2923" d="M684.014,577.853l-.056-.076Z" transform="translate(-680.794 -577.442)" fill="#575656"/>
        <path id="パス_2924" data-name="パス 2924" d="M684.4,578.335c.033.044.065.09.1.135l-.019-.027Z" transform="translate(-681.177 -577.924)" fill="#575656"/>
      </g>
      <path id="パス_2925" data-name="パス 2925" d="M648.115,566.344v61.948a.463.463,0,1,0,.922,0v-61.4a.049.049,0,0,1,.047-.05h56.532a.5.5,0,0,0,0-1h-57.04A.483.483,0,0,0,648.115,566.344Z" transform="translate(-648.115 -565.843)" fill="#575656"/>
    </g>
    <g id="グループ_598" data-name="グループ 598" transform="translate(125.734 1902.928)">
      <path id="パス_2926" data-name="パス 2926" d="M855.207,2295.242a13.559,13.559,0,0,0,1.539-5.483c0-.041.025-.056.043-.049s.039.008.042.049a13.415,13.415,0,0,0,1.581,5.55,1.2,1.2,0,0,1,.037,1.081l-.035.073a1.067,1.067,0,0,1-.575.6,2.582,2.582,0,0,0-.591.291.811.811,0,0,1-.861.02,3.663,3.663,0,0,0-.656-.315,1.068,1.068,0,0,1-.568-.6l0-.01A1.385,1.385,0,0,1,855.207,2295.242Z" transform="translate(-828.762 -2247.019)" fill="#575656"/>
      <g id="グループ_596" data-name="グループ 596" transform="translate(1.248 50.721)">
        <path id="パス_2927" data-name="パス 2927" d="M661.042,2401.53l-.125.107.1-.085Z" transform="translate(-660.539 -2394.411)" fill="#575656"/>
        <path id="パス_2928" data-name="パス 2928" d="M660.372,2402.378l.069-.06Z" transform="translate(-660.063 -2395.093)" fill="#575656"/>
        <path id="パス_2929" data-name="パス 2929" d="M658.446,2356.1c.318-.268.785-.641,1.4-1.069a19.667,19.667,0,0,1,2.379-1.406,16.9,16.9,0,0,1,3.3-1.252,13.257,13.257,0,0,1,4.075-.431,11.837,11.837,0,0,1,2.2.333,12.279,12.279,0,0,1,2.186.785q.259.123.515.259l-.151.145-.292.281-.275.28-.519.53c-.323.35-.623.668-.886.961l-.7.788-.51.589c-.277.319-.43.483-.43.483l.615-.653.307-.326.315-.319c.21-.212.418-.427.63-.636l.644-.619q.744-.7,1.518-1.359l0,0c-.518.438-1.023.892-1.519,1.358l-.644.619c-.213.209-.42.424-.631.635l-.315.318-.308.327-.616.653s.155-.163.455-.456c.15-.146.334-.328.555-.535l.771-.7c.291-.258.621-.534.975-.839l.566-.458.3-.241.315-.24c.121-.093.245-.187.371-.282a15.634,15.634,0,0,1,2.944,2.295c.3.3.6.608.889.932l.461.5c.154.174.327.335.495.5l.127.123c.043.041.089.078.133.117l.269.233c.087.081.186.148.281.222s.189.146.289.214a6.409,6.409,0,0,0,1.3.695,3.761,3.761,0,0,0,1.533.237,2.161,2.161,0,0,1,1.937,0,3.763,3.763,0,0,0,1.533-.237,6.4,6.4,0,0,0,1.3-.695c.1-.068.193-.143.289-.214s.194-.142.281-.222l.269-.233c.044-.039.091-.077.133-.117l.127-.123c.168-.165.341-.326.5-.5l.461-.5q.431-.486.889-.932a15.649,15.649,0,0,1,2.944-2.295c.126.095.251.189.372.282l.314.24.3.241.566.458c.354.305.684.581.976.839l.77.7c.222.207.405.389.555.535.3.293.454.456.454.456l-.615-.653-.308-.327-.315-.318c-.21-.212-.418-.427-.631-.635l-.644-.619c-.5-.466-1-.92-1.519-1.358l0,0q.775.657,1.517,1.359l.643.619c.213.209.421.424.631.636l.315.319.308.326.614.653s-.152-.164-.43-.483l-.509-.589-.7-.788c-.263-.294-.564-.611-.887-.961l-.518-.53-.275-.28-.292-.281-.151-.145q.255-.135.514-.259a12.278,12.278,0,0,1,2.186-.785,11.841,11.841,0,0,1,2.2-.333,13.257,13.257,0,0,1,4.075.431,16.875,16.875,0,0,1,3.3,1.252,19.65,19.65,0,0,1,2.379,1.406c.619.428,1.087.8,1.4,1.069-.281-.239-.569-.469-.861-.691q-.707-.534-1.451-1a19.8,19.8,0,0,0-3.1-1.612,15.724,15.724,0,0,0-3.318-.962,12.733,12.733,0,0,0-3.429-.123,11.812,11.812,0,0,0-3.34.844q-.47.192-.923.424l-.006-.005c.3-.154.612-.3.927-.425a11.75,11.75,0,0,1,3.342-.844,12.742,12.742,0,0,1,3.431.124,15.782,15.782,0,0,1,3.318.964,19.85,19.85,0,0,1,3.1,1.614q.743.472,1.449,1.006c.364.276.722.563,1.066.868l-.011-.01c.1.092.207.185.309.28l-.032-.031c-.061-.058-.209-.2-.444-.4-.316-.271-.788-.66-1.415-1.115a22.809,22.809,0,0,0-2.342-1.5,18.637,18.637,0,0,0-3.278-1.445,14.7,14.7,0,0,0-1.982-.5,13.1,13.1,0,0,0-2.181-.215,12.362,12.362,0,0,0-2.321.188,12.751,12.751,0,0,0-2.365.671c-.32.125-.637.267-.951.42a21.747,21.747,0,0,0-1.92-1.542l-.423-.292c-.071-.051-.144-.1-.219-.143l-.224-.14c-.3-.195-.616-.361-.939-.54a9.654,9.654,0,0,0-2.15-.815,6.5,6.5,0,0,0-1.222-.171c-.106,0-.213,0-.321,0a2.31,2.31,0,0,0-.324.019l-.328.038c-.109.02-.219.047-.329.071a1.6,1.6,0,0,1-2.162,0c-.11-.024-.22-.051-.33-.071l-.328-.038a2.3,2.3,0,0,0-.324-.019c-.107,0-.215-.007-.32,0a6.5,6.5,0,0,0-1.222.171,9.65,9.65,0,0,0-2.15.815c-.322.178-.643.345-.939.54l-.224.14c-.074.045-.148.092-.219.143l-.423.292a21.857,21.857,0,0,0-1.921,1.542c-.314-.154-.631-.295-.95-.42a12.75,12.75,0,0,0-2.365-.671,12.36,12.36,0,0,0-2.321-.187,13.1,13.1,0,0,0-2.181.215,14.713,14.713,0,0,0-1.982.5,18.649,18.649,0,0,0-3.278,1.445,22.9,22.9,0,0,0-2.343,1.5c-.626.456-1.1.844-1.414,1.115-.235.2-.383.339-.444.4l-.032.031c.1-.1.2-.189.308-.28l-.011.01c.345-.305.7-.591,1.066-.868q.706-.534,1.449-1.006a19.842,19.842,0,0,1,3.1-1.614,15.78,15.78,0,0,1,3.319-.964,12.737,12.737,0,0,1,3.43-.124,11.738,11.738,0,0,1,3.342.844c.314.127.623.271.927.425l-.006.005q-.454-.231-.923-.424a11.811,11.811,0,0,0-3.34-.844,12.732,12.732,0,0,0-3.429.123,15.722,15.722,0,0,0-3.318.962,19.791,19.791,0,0,0-3.1,1.612q-.743.471-1.45,1C659.015,2355.635,658.727,2355.864,658.446,2356.1Zm25.472-6.152c.048.018.1.039.143.059l-.006.006c-.046-.02-.092-.04-.139-.059a4.258,4.258,0,0,0-1.69-.271,6.32,6.32,0,0,0-1.693.3c-.069.021-.14.037-.207.063l-.2.074-.2.073c-.068.024-.136.049-.2.079-.266.116-.535.225-.793.361a18.662,18.662,0,0,0-2.966,1.883q-.183.14-.364.282l0,0c.121-.095.243-.19.365-.283a18.606,18.606,0,0,1,2.967-1.884c.258-.137.527-.246.793-.362.066-.03.134-.054.2-.079l.2-.074.2-.074c.068-.025.138-.041.207-.063a6.365,6.365,0,0,1,1.694-.3A4.272,4.272,0,0,1,683.918,2349.952Zm3.271,3.469a6.713,6.713,0,0,0-.407-1.465,5.248,5.248,0,0,0-.757-1.3c-.021-.026-.042-.051-.064-.077l.051-.02c.038-.015.079-.022.118-.034.079-.021.158-.045.238-.064l.245-.041a1.77,1.77,0,0,1,.247-.028c.084,0,.166-.015.25-.017a5.653,5.653,0,0,1,1.01.078,9.248,9.248,0,0,1,1.952.579c.309.14.616.268.909.424l.221.111c.074.036.146.073.217.114l.424.238c.6.345,1.163.708,1.687,1.071a16.143,16.143,0,0,0-2.794,2c-.339.3-.67.613-.99.938-.166.168-.312.309-.464.459s-.307.288-.463.428l-.117.1c-.039.034-.081.064-.121.1l-.242.191c-.079.067-.165.119-.247.178s-.165.118-.249.17a5.172,5.172,0,0,1-1.028.506,2.972,2.972,0,0,1-.55.121c.053-.076.1-.153.151-.231a5.726,5.726,0,0,0,.619-1.464A7.3,7.3,0,0,0,687.189,2353.421Zm-1.8,4.671-.008,0c.062-.067.122-.136.178-.209a4.022,4.022,0,0,0,.467-.78c.07-.136.118-.284.176-.426.026-.073.048-.147.071-.22s.048-.147.065-.222a6.475,6.475,0,0,0,.206-1.846,6.247,6.247,0,0,0-.319-1.826,4.662,4.662,0,0,0-.885-1.585c-.018-.021-.037-.04-.055-.06l.006,0,.054.058a4.674,4.674,0,0,1,.887,1.587,6.251,6.251,0,0,1,.32,1.829,6.475,6.475,0,0,1-.206,1.849c-.017.076-.041.149-.065.223s-.045.148-.071.221c-.058.142-.106.29-.176.427a4.059,4.059,0,0,1-.468.781C685.51,2357.957,685.451,2358.026,685.39,2358.092Zm-1.553-2.055a5.813,5.813,0,0,1-.118-2.349,4.5,4.5,0,0,1,.808-2.047c.066-.087.136-.169.209-.248.072.079.143.161.209.248a4.508,4.508,0,0,1,.807,2.047,5.811,5.811,0,0,1-.119,2.349,1.07,1.07,0,1,1-1.8,0Zm.9-5.622-.006,0,.006,0,.006,0Zm0,8.214-.008-.005.008,0,.009,0Zm-.655-.536c-.061-.066-.121-.135-.176-.207a4.058,4.058,0,0,1-.468-.781c-.07-.136-.118-.284-.176-.427-.025-.073-.047-.147-.07-.221s-.048-.147-.065-.223a6.466,6.466,0,0,1-.206-1.849,6.262,6.262,0,0,1,.32-1.829,4.672,4.672,0,0,1,.887-1.587l.054-.058.006,0c-.018.02-.037.039-.055.06a4.667,4.667,0,0,0-.885,1.585,6.243,6.243,0,0,0-.319,1.826,6.46,6.46,0,0,0,.206,1.846c.017.075.041.149.064.222s.045.147.071.22c.058.142.106.289.176.426a4.028,4.028,0,0,0,.467.78,2.71,2.71,0,0,0,.178.209Zm-.877.087a2.971,2.971,0,0,1-.549-.121,5.168,5.168,0,0,1-1.029-.506c-.084-.053-.165-.114-.249-.17s-.167-.111-.247-.178l-.242-.191c-.04-.033-.081-.063-.121-.1l-.117-.1c-.156-.14-.315-.274-.463-.428s-.3-.291-.464-.459c-.32-.326-.651-.64-.99-.938a16.151,16.151,0,0,0-2.794-2c.524-.364,1.085-.727,1.687-1.071l.424-.238c.071-.041.143-.079.217-.114l.22-.111c.293-.156.6-.284.909-.424a9.249,9.249,0,0,1,1.952-.579,5.653,5.653,0,0,1,1.01-.078c.083,0,.166.012.25.017a1.77,1.77,0,0,1,.247.028l.245.041c.08.019.158.043.238.064.039.011.08.019.118.034l.051.02c-.021.026-.043.051-.064.077a5.264,5.264,0,0,0-.758,1.3,6.761,6.761,0,0,0-.406,1.465,7.3,7.3,0,0,0,.153,3.063,5.721,5.721,0,0,0,.618,1.464C683.1,2358.026,683.15,2358.1,683.2,2358.179Zm10.677-5.382,0,0q-.181-.143-.364-.282a18.635,18.635,0,0,0-2.966-1.883c-.258-.136-.527-.245-.793-.361-.066-.03-.134-.055-.2-.079l-.2-.073-.2-.074c-.068-.025-.138-.042-.207-.063a6.319,6.319,0,0,0-1.693-.3,4.258,4.258,0,0,0-1.69.271c-.047.018-.093.039-.139.059l-.006-.006c.047-.02.095-.042.143-.059a4.271,4.271,0,0,1,1.693-.272,6.364,6.364,0,0,1,1.694.3c.069.022.139.038.207.063l.2.074.2.074c.069.024.137.048.2.079.266.116.535.225.793.362a18.61,18.61,0,0,1,2.967,1.884C693.636,2352.607,693.758,2352.7,693.88,2352.8Zm.417.342-.006,0,0,0,.006.005Zm-8.7,5.791.011-.008a3.069,3.069,0,0,0,1.413-.165,5.668,5.668,0,0,0,1.52-.858l.089-.065c.029-.022.057-.046.086-.07l.171-.141.171-.143c.057-.048.109-.1.164-.151l.326-.305.311-.322a19.521,19.521,0,0,1,2.625-2.409,15.161,15.161,0,0,1,1.494-.985l.007,0a15.038,15.038,0,0,0-1.5.987,19.5,19.5,0,0,0-2.624,2.409l-.311.323-.326.3c-.055.051-.107.1-.164.151l-.17.143-.171.142c-.028.024-.056.049-.085.071l-.09.065a5.674,5.674,0,0,1-1.522.859A3.07,3.07,0,0,1,685.6,2358.929Zm-10.12-5.618.007,0a15.12,15.12,0,0,1,1.494.985,19.55,19.55,0,0,1,2.625,2.409l.311.322.326.305c.055.05.107.1.164.151l.17.143.171.141c.029.024.056.049.086.07l.089.065a5.667,5.667,0,0,0,1.52.858,3.07,3.07,0,0,0,1.414.165l.01.008a3.069,3.069,0,0,1-1.426-.165,5.677,5.677,0,0,1-1.522-.859l-.089-.065c-.029-.022-.057-.047-.085-.071l-.171-.142-.171-.143c-.056-.048-.109-.1-.164-.151l-.326-.3-.312-.323a19.527,19.527,0,0,0-2.623-2.409A15.069,15.069,0,0,0,675.48,2353.311Zm-.312-.174.006-.005,0,0-.006,0Z" transform="translate(-657.943 -2348.985)" fill="#575656"/>
        <path id="パス_2930" data-name="パス 2930" d="M1076.859,2402.314l.07.061Z" transform="translate(-1023.654 -2395.089)" fill="#575656"/>
        <path id="パス_2931" data-name="パス 2931" d="M1076,2401.638l-.125-.106.025.021Z" transform="translate(-1022.798 -2394.414)" fill="#575656"/>
      </g>
      <path id="パス_2932" data-name="パス 2932" d="M740.647,2201.1a11.054,11.054,0,0,0,5.049,1.672c.038,0,.051.027.045.047s-.007.043-.045.046a10.957,10.957,0,0,0-5.11,1.717.958.958,0,0,1-1,.04l-.067-.038a1.082,1.082,0,0,1-.556-.625,3.068,3.068,0,0,0-.268-.642,1.016,1.016,0,0,1-.018-.935,4.357,4.357,0,0,0,.289-.712,1.082,1.082,0,0,1,.553-.617l.01-.006A1.1,1.1,0,0,1,740.647,2201.1Z" transform="translate(-727.087 -2170.257)" fill="#575656"/>
      <g id="グループ_597" data-name="グループ 597" transform="translate(1.389 3.474)">
        <path id="パス_2933" data-name="パス 2933" d="M684.494,2003.4l-.1-.136.079.109Z" transform="translate(-681.177 -2002.854)" fill="#575656"/>
        <path id="パス_2934" data-name="パス 2934" d="M683.958,2002.709l.056.075Z" transform="translate(-680.794 -2002.374)" fill="#575656"/>
        <path id="パス_2935" data-name="パス 2935" d="M662.366,2000.782c.246.345.589.853.983,1.525a22.364,22.364,0,0,1,1.3,2.584,20.5,20.5,0,0,1,1.152,3.586,16.863,16.863,0,0,1,.4,4.426,14.6,14.6,0,0,1-1.028,4.761q-.114.282-.238.559l-.134-.164-.259-.317-.258-.3-.489-.562c-.323-.351-.614-.677-.885-.963l-.725-.76-.542-.553c-.294-.3-.445-.467-.445-.467l.6.668.3.334.293.342c.2.229.393.454.585.685l.571.7q.643.807,1.25,1.648v0q-.6-.843-1.251-1.65l-.57-.7c-.192-.231-.39-.456-.585-.685l-.293-.342-.3-.334-.6-.668s.15.168.42.493c.134.163.3.363.493.6l.645.837c.238.316.492.675.772,1.059l.421.615.222.324.221.342c.086.132.172.266.259.4a16.919,16.919,0,0,1-2.113,3.2c-.275.33-.56.653-.858.965l-.463.5c-.161.168-.308.355-.46.538l-.113.138c-.038.046-.072.1-.108.145l-.214.292c-.074.095-.137.2-.2.3s-.135.206-.2.314a7.467,7.467,0,0,0-.64,1.408,4.764,4.764,0,0,0-.218,1.665,2.726,2.726,0,0,1,0,2.1,4.768,4.768,0,0,0,.218,1.665,7.481,7.481,0,0,0,.64,1.407c.063.108.132.209.2.313s.131.21.2.305l.214.292c.036.048.071.1.108.145l.113.138c.152.182.3.37.46.538l.463.5c.3.313.583.636.858.966a16.923,16.923,0,0,1,2.113,3.2c-.087.137-.174.272-.259.4l-.221.342-.222.324-.421.614c-.28.385-.535.743-.772,1.06l-.645.837c-.191.24-.359.44-.493.6-.27.325-.42.493-.42.493l.6-.668.3-.334.293-.342c.195-.229.392-.454.585-.685l.57-.7q.644-.809,1.251-1.65v0q-.605.842-1.25,1.648l-.571.7c-.192.231-.39.457-.585.685l-.293.342-.3.334-.6.668s.151-.165.445-.467l.542-.553.725-.76c.271-.286.562-.612.885-.963l.489-.563.258-.3.259-.317.134-.164q.125.278.238.559a14.6,14.6,0,0,1,1.028,4.76,16.863,16.863,0,0,1-.4,4.426,20.5,20.5,0,0,1-1.152,3.586,22.45,22.45,0,0,1-1.3,2.584c-.394.672-.737,1.18-.984,1.525q.33-.458.636-.936.492-.767.925-1.575a23.129,23.129,0,0,0,1.484-3.366,19.513,19.513,0,0,0,.886-3.6,16.256,16.256,0,0,0,.113-3.724,15.182,15.182,0,0,0-.275-1.842,14.816,14.816,0,0,0-.5-1.785c-.117-.34-.249-.674-.39-1l0-.007c.142.33.274.665.392,1.006a14.96,14.96,0,0,1,.5,1.787,15.344,15.344,0,0,1,.274,1.844,16.271,16.271,0,0,1-.114,3.726,19.464,19.464,0,0,1-.887,3.6,23.038,23.038,0,0,1-1.486,3.366q-.434.807-.926,1.574c-.255.4-.519.784-.8,1.158l.009-.013c-.084.113-.17.226-.258.335l.028-.035c.053-.066.18-.228.366-.483.25-.343.607-.855,1.027-1.536a25.654,25.654,0,0,0,1.379-2.544,22.19,22.19,0,0,0,1.33-3.56,18.251,18.251,0,0,0,.463-2.152,16.674,16.674,0,0,0,.2-2.369,15.446,15.446,0,0,0-.791-5.09q-.174-.52-.387-1.032a23.485,23.485,0,0,0,1.419-2.086l.27-.459c.047-.077.09-.156.132-.238l.129-.243c.179-.322.332-.67.5-1.02a11.7,11.7,0,0,0,.75-2.336,8.179,8.179,0,0,0,.157-1.327c0-.115,0-.232,0-.349a3.064,3.064,0,0,0-.017-.352l-.036-.356c-.018-.119-.043-.239-.065-.358a1.973,1.973,0,0,1,0-2.348c.022-.12.047-.239.065-.358l.036-.356a3.07,3.07,0,0,0,.017-.352c0-.117.006-.233,0-.348a8.182,8.182,0,0,0-.157-1.328,11.705,11.705,0,0,0-.75-2.335c-.164-.35-.318-.7-.5-1.02l-.129-.243c-.042-.081-.085-.16-.132-.237l-.27-.459a23.378,23.378,0,0,0-1.419-2.086q.212-.511.387-1.032a15.438,15.438,0,0,0,.791-5.09,16.66,16.66,0,0,0-.2-2.368,18.236,18.236,0,0,0-.463-2.152,22.214,22.214,0,0,0-1.33-3.561,25.689,25.689,0,0,0-1.379-2.544c-.419-.679-.777-1.192-1.027-1.536-.186-.255-.313-.416-.366-.482l-.028-.035c.088.11.173.222.258.335l-.009-.013c.28.375.544.763.8,1.159q.492.766.926,1.574a23.072,23.072,0,0,1,1.486,3.366,19.466,19.466,0,0,1,.887,3.6,16.27,16.27,0,0,1,.114,3.726,15.34,15.34,0,0,1-.274,1.843,14.914,14.914,0,0,1-.5,1.786c-.118.342-.25.677-.392,1.007l0-.006c.141-.329.273-.663.39-1a14.8,14.8,0,0,0,.5-1.784,15.18,15.18,0,0,0,.275-1.843,16.254,16.254,0,0,0-.113-3.724,19.513,19.513,0,0,0-.886-3.6,23.123,23.123,0,0,0-1.484-3.366q-.433-.807-.925-1.575Q662.7,2001.241,662.366,2000.782Zm5.664,27.665c-.017.052-.036.1-.055.155l0-.007c.018-.05.037-.1.054-.151a5.394,5.394,0,0,0,.25-1.836,7.984,7.984,0,0,0-.273-1.838c-.02-.075-.034-.152-.058-.225l-.068-.221-.068-.222c-.022-.074-.044-.147-.073-.22-.107-.289-.207-.581-.333-.861a20.991,20.991,0,0,0-1.733-3.221q-.129-.2-.26-.4l0,0c.088.132.175.263.261.4a21.036,21.036,0,0,1,1.735,3.222c.126.28.226.572.333.861.028.072.051.146.072.22l.068.221.068.222c.024.073.038.15.058.225a7.978,7.978,0,0,1,.274,1.84A5.4,5.4,0,0,1,668.031,2028.447ZM664.836,2032a5.465,5.465,0,0,0,1.35-.442,4.717,4.717,0,0,0,1.2-.823l.071-.069.018.055c.013.042.02.086.031.129.019.086.042.171.059.258l.038.266a2.279,2.279,0,0,1,.025.269c0,.09.014.18.016.271a7.241,7.241,0,0,1-.072,1.1,11.443,11.443,0,0,1-.533,2.12c-.129.335-.247.669-.39.988l-.1.24c-.033.08-.067.159-.106.236l-.219.461c-.318.654-.652,1.263-.987,1.832a17.713,17.713,0,0,0-1.839-3.034q-.413-.553-.865-1.075c-.154-.18-.284-.338-.423-.5s-.265-.334-.394-.5l-.1-.127c-.032-.043-.059-.087-.089-.131l-.177-.263c-.062-.086-.11-.179-.164-.269s-.108-.179-.157-.27a6.093,6.093,0,0,1-.465-1.117,3.764,3.764,0,0,1-.111-.6c.07.057.141.112.213.164a4.868,4.868,0,0,0,1.348.671A5.727,5.727,0,0,0,664.836,2032Zm-4.3-1.954,0-.009c.062.067.125.132.193.193a3.6,3.6,0,0,0,.719.507c.125.076.26.128.392.191.067.028.135.051.2.077a2.007,2.007,0,0,0,.2.07,5.073,5.073,0,0,0,1.7.223,4.961,4.961,0,0,0,1.681-.347,4.156,4.156,0,0,0,1.459-.961l.056-.06,0,.006c-.018.02-.035.04-.054.059a4.181,4.181,0,0,1-1.461.964,4.978,4.978,0,0,1-1.684.347,5.079,5.079,0,0,1-1.7-.223c-.07-.019-.138-.044-.205-.07s-.136-.05-.2-.077c-.131-.063-.267-.115-.392-.191a3.647,3.647,0,0,1-.72-.509C660.659,2030.176,660.6,2030.111,660.535,2030.044Zm1.893-1.687a4.572,4.572,0,0,1,2.163-.129,3.819,3.819,0,0,1,1.885.877c.081.072.156.148.229.227a3.2,3.2,0,0,1-.229.227,3.816,3.816,0,0,1-1.885.877,4.565,4.565,0,0,1-2.163-.128,1.073,1.073,0,1,1,0-1.951Zm5.177.975,0-.006,0,.006,0,.007Zm-7.563,0,0-.009,0,.009,0,.01Zm.493-.712c.061-.066.124-.131.191-.191a3.646,3.646,0,0,1,.72-.508c.126-.076.261-.128.392-.191.067-.027.136-.051.2-.077s.136-.051.205-.07a5.1,5.1,0,0,1,1.7-.223,4.978,4.978,0,0,1,1.684.347,4.174,4.174,0,0,1,1.461.963l.054.059,0,.007-.056-.06a4.162,4.162,0,0,0-1.459-.961,4.949,4.949,0,0,0-1.681-.347,5.08,5.08,0,0,0-1.7.223,2.005,2.005,0,0,0-.2.069c-.068.026-.136.05-.2.077-.131.063-.266.115-.392.191a3.629,3.629,0,0,0-.719.507c-.068.061-.131.126-.193.193A.063.063,0,0,1,660.535,2028.621Zm-.08-.952a3.754,3.754,0,0,1,.111-.6,6.081,6.081,0,0,1,.465-1.117c.049-.092.106-.18.157-.271s.1-.182.164-.268l.177-.263c.03-.043.058-.088.089-.131l.1-.127c.129-.169.253-.342.394-.5s.269-.323.423-.5q.451-.522.865-1.075a17.734,17.734,0,0,0,1.839-3.034c.335.569.669,1.178.987,1.833l.219.461c.038.077.073.156.106.236l.1.24c.143.318.261.652.39.987a11.436,11.436,0,0,1,.533,2.12,7.239,7.239,0,0,1,.072,1.1c0,.091-.011.18-.016.271a2.28,2.28,0,0,1-.025.269l-.038.266c-.018.087-.04.172-.059.258-.01.042-.018.087-.031.128l-.018.055-.071-.068a4.737,4.737,0,0,0-1.2-.823,5.475,5.475,0,0,0-1.35-.441,5.733,5.733,0,0,0-2.82.166,4.877,4.877,0,0,0-1.348.672C660.6,2027.556,660.525,2027.612,660.455,2027.669Zm4.955,11.6,0,0c.087-.131.174-.262.26-.4a21,21,0,0,0,1.733-3.221c.126-.28.226-.572.333-.861.028-.072.05-.146.073-.22l.068-.221.068-.222c.024-.073.038-.15.058-.225a7.992,7.992,0,0,0,.273-1.839,5.393,5.393,0,0,0-.25-1.835c-.016-.051-.035-.1-.054-.151l0-.007c.019.052.038.1.055.155a5.39,5.39,0,0,1,.249,1.838,7.974,7.974,0,0,1-.274,1.84c-.02.075-.034.152-.058.225l-.068.221-.068.221c-.022.074-.044.148-.072.22-.107.289-.207.581-.333.861a21.036,21.036,0,0,1-1.735,3.222Q665.542,2039.067,665.41,2039.265Zm-.314.453,0-.006,0,0,0,.007Zm-5.332-9.444.008.011a3.874,3.874,0,0,0,.152,1.535,6.519,6.519,0,0,0,.789,1.651l.06.1c.021.032.043.062.065.094l.131.185.131.185c.044.061.093.119.139.178l.281.353.3.338a20.343,20.343,0,0,1,2.218,2.851,16.916,16.916,0,0,1,.907,1.623l0,.008a16.918,16.918,0,0,0-.909-1.626,20.32,20.32,0,0,0-2.218-2.849l-.3-.338-.281-.354c-.047-.06-.1-.116-.139-.178l-.131-.186-.131-.185c-.022-.031-.044-.062-.065-.094l-.06-.1a6.53,6.53,0,0,1-.79-1.653A3.9,3.9,0,0,1,659.764,2030.274Zm5.173-10.991,0,.008a16.912,16.912,0,0,1-.907,1.623,20.3,20.3,0,0,1-2.218,2.851l-.3.338-.281.353c-.046.06-.1.117-.139.178l-.131.185-.131.186c-.022.031-.044.062-.065.093l-.06.1a6.531,6.531,0,0,0-.789,1.651,3.875,3.875,0,0,0-.152,1.535l-.008.011a3.9,3.9,0,0,1,.153-1.548,6.541,6.541,0,0,1,.79-1.654l.06-.1c.021-.032.043-.062.065-.094l.131-.185.131-.186c.044-.061.093-.119.139-.178l.281-.354.3-.338a20.29,20.29,0,0,0,2.218-2.849A16.856,16.856,0,0,0,664.937,2019.283Zm.16-.339,0,.007,0,0,0-.007Z" transform="translate(-659.049 -2000.236)" fill="#575656"/>
        <path id="パス_2936" data-name="パス 2936" d="M684.014,2426.764l-.056.075Z" transform="translate(-680.794 -2368.981)" fill="#575656"/>
        <path id="パス_2937" data-name="パス 2937" d="M684.4,2425.9l.1-.135-.019.028Z" transform="translate(-681.177 -2368.118)" fill="#575656"/>
      </g>
      <path id="パス_2938" data-name="パス 2938" d="M648.115,2037.039v-61.948a.463.463,0,1,1,.922,0v61.4a.049.049,0,0,0,.047.051h56.532a.5.5,0,0,1,0,1h-57.04A.482.482,0,0,1,648.115,2037.039Z" transform="translate(-648.115 -1974.59)" fill="#575656"/>
    </g>
    <g id="グループ_601" data-name="グループ 601" transform="translate(647.881 1708.852)">
      <path id="パス_2939" data-name="パス 2939" d="M3139.2,660.2a13.56,13.56,0,0,0-1.539,5.483c0,.04-.025.055-.042.048s-.039-.008-.043-.048a13.424,13.424,0,0,0-1.581-5.55,1.2,1.2,0,0,1-.037-1.081c.012-.023.024-.048.036-.073a1.064,1.064,0,0,1,.575-.6,2.62,2.62,0,0,0,.591-.291.813.813,0,0,1,.861-.021,3.649,3.649,0,0,0,.655.315,1.07,1.07,0,0,1,.569.6l0,.011A1.387,1.387,0,0,1,3139.2,660.2Z" transform="translate(-3107.685 -645.471)" fill="#575656"/>
      <g id="グループ_599" data-name="グループ 599" transform="translate(3.131 1.508)">
        <path id="パス_2940" data-name="パス 2940" d="M3356.679,602.888c.042-.036.084-.071.125-.107l-.1.086Z" transform="translate(-3303.599 -599.285)" fill="#575656"/>
        <path id="パス_2941" data-name="パス 2941" d="M3357.734,602.338l-.069.06Z" transform="translate(-3304.459 -598.902)" fill="#575656"/>
        <path id="パス_2942" data-name="パス 2942" d="M2991.827,580.579c-.318.268-.785.641-1.4,1.068a19.654,19.654,0,0,1-2.378,1.406,16.9,16.9,0,0,1-3.3,1.251,13.247,13.247,0,0,1-4.075.431,11.8,11.8,0,0,1-2.2-.333,12.21,12.21,0,0,1-2.186-.785c-.173-.082-.345-.168-.515-.259l.151-.145.292-.281.274-.281.519-.53c.323-.351.623-.667.887-.961l.7-.788.51-.589c.277-.319.43-.483.43-.483l-.615.654-.308.327-.314.318c-.211.212-.418.427-.631.635l-.644.62q-.743.7-1.518,1.358l0,0c.517-.438,1.023-.892,1.519-1.358l.644-.619c.213-.208.42-.424.631-.635l.314-.318.308-.326.615-.653s-.155.163-.455.457c-.15.146-.334.328-.555.535l-.77.7c-.292.259-.621.534-.976.839l-.565.458-.3.241-.315.24c-.121.093-.245.187-.372.282a15.679,15.679,0,0,1-2.944-2.294q-.456-.448-.889-.932l-.461-.5c-.155-.174-.327-.335-.5-.5l-.126-.123c-.043-.041-.089-.078-.133-.117l-.269-.233c-.087-.08-.187-.148-.281-.222s-.189-.146-.289-.215a6.422,6.422,0,0,0-1.3-.695,3.765,3.765,0,0,0-1.534-.237,2.16,2.16,0,0,1-1.937,0,3.763,3.763,0,0,0-1.533.237,6.431,6.431,0,0,0-1.3.695c-.1.068-.193.143-.289.215s-.194.142-.281.222l-.269.233c-.044.039-.091.077-.133.117l-.127.123c-.168.165-.34.325-.495.5l-.461.5q-.432.485-.889.932a15.66,15.66,0,0,1-2.945,2.294c-.126-.095-.25-.189-.371-.282l-.315-.24-.3-.241-.565-.458c-.355-.305-.684-.581-.976-.839l-.771-.7c-.221-.208-.405-.389-.555-.535-.3-.294-.455-.457-.455-.457l.615.653.308.326.314.318c.211.211.419.427.631.635l.644.619c.5.465,1,.92,1.519,1.358l0,0q-.776-.657-1.518-1.358l-.644-.62c-.213-.209-.42-.424-.631-.635l-.314-.318-.308-.327-.615-.654s.153.165.43.483l.51.589.7.788c.264.294.564.611.887.961l.518.53.275.281.292.281.151.145c-.171.09-.342.177-.515.259a12.183,12.183,0,0,1-2.187.785,11.781,11.781,0,0,1-2.2.333,13.243,13.243,0,0,1-4.074-.431,16.894,16.894,0,0,1-3.3-1.251,19.608,19.608,0,0,1-2.38-1.406c-.619-.428-1.087-.8-1.4-1.069.281.239.569.469.861.69q.706.534,1.45,1a19.774,19.774,0,0,0,3.1,1.612,15.745,15.745,0,0,0,3.318.962,12.727,12.727,0,0,0,3.429.123,11.8,11.8,0,0,0,3.34-.844c.313-.128.62-.27.923-.424l.005.005c-.3.154-.612.3-.926.425a11.8,11.8,0,0,1-3.342.844,12.747,12.747,0,0,1-3.431-.124,15.723,15.723,0,0,1-3.318-.964,19.812,19.812,0,0,1-3.1-1.614q-.744-.471-1.45-1.006c-.364-.277-.722-.563-1.065-.868l.011.01c-.1-.092-.207-.185-.309-.28l.032.031c.061.057.209.2.444.4.316.271.788.66,1.414,1.115a22.8,22.8,0,0,0,2.343,1.5,18.577,18.577,0,0,0,3.277,1.444,14.763,14.763,0,0,0,1.982.5,13.116,13.116,0,0,0,2.181.215,12.337,12.337,0,0,0,2.322-.188,12.692,12.692,0,0,0,2.365-.671c.319-.126.636-.267.95-.42a21.839,21.839,0,0,0,1.921,1.541l.423.293c.07.051.144.1.219.143l.224.14c.3.194.617.361.939.539a9.652,9.652,0,0,0,2.15.815,6.435,6.435,0,0,0,1.222.171c.106,0,.213,0,.321,0a2.413,2.413,0,0,0,.324-.019l.328-.039c.109-.02.219-.047.329-.071a1.6,1.6,0,0,1,2.163,0c.11.024.219.051.329.071l.329.039a2.412,2.412,0,0,0,.323.019c.108,0,.215.006.321,0a6.432,6.432,0,0,0,1.222-.171,9.666,9.666,0,0,0,2.151-.815c.322-.178.642-.345.939-.539l.223-.14c.075-.045.148-.092.219-.143l.422-.293a21.665,21.665,0,0,0,1.921-1.541c.314.154.631.295.951.42a12.675,12.675,0,0,0,2.365.671,12.334,12.334,0,0,0,2.322.188,13.128,13.128,0,0,0,2.181-.215,14.752,14.752,0,0,0,1.981-.5,18.588,18.588,0,0,0,3.277-1.444,22.89,22.89,0,0,0,2.344-1.5c.626-.455,1.1-.844,1.414-1.115.234-.2.383-.34.444-.4l.032-.031c-.1.1-.2.188-.309.28l.012-.01c-.344.3-.7.591-1.066.868q-.706.534-1.45,1.006a19.81,19.81,0,0,1-3.1,1.614,15.734,15.734,0,0,1-3.319.964,12.741,12.741,0,0,1-3.43.124,11.791,11.791,0,0,1-3.342-.844c-.314-.128-.623-.271-.927-.425l.006-.005c.3.154.61.3.923.424a11.8,11.8,0,0,0,3.34.844,12.729,12.729,0,0,0,3.429-.123,15.753,15.753,0,0,0,3.318-.962,19.8,19.8,0,0,0,3.1-1.612q.743-.471,1.45-1Q2991.4,580.936,2991.827,580.579Zm-25.473,6.152c-.048-.018-.1-.039-.143-.059l.006-.005c.046.02.092.04.138.058a4.269,4.269,0,0,0,1.69.271,6.323,6.323,0,0,0,1.693-.3c.069-.021.139-.037.207-.063l.2-.074.2-.074c.068-.024.136-.049.2-.079.266-.116.535-.224.793-.361a18.649,18.649,0,0,0,2.966-1.883q.183-.14.364-.282l0,0c-.121.1-.243.19-.365.284a18.643,18.643,0,0,1-2.967,1.884c-.258.136-.527.245-.793.361-.066.03-.135.055-.2.079l-.2.073-.2.074c-.067.025-.138.042-.207.063a6.343,6.343,0,0,1-1.695.3A4.266,4.266,0,0,1,2966.354,586.73Zm-3.271-3.469a6.767,6.767,0,0,0,.407,1.465,5.275,5.275,0,0,0,.757,1.3l.064.077-.051.02c-.038.015-.079.023-.118.034-.08.021-.158.045-.238.064l-.244.041a1.73,1.73,0,0,1-.248.027c-.083.005-.166.016-.25.018a5.7,5.7,0,0,1-1.01-.079,9.267,9.267,0,0,1-1.952-.579c-.309-.139-.616-.268-.909-.423l-.221-.111c-.074-.036-.146-.073-.217-.115l-.424-.238c-.6-.345-1.164-.708-1.688-1.072a16.094,16.094,0,0,0,2.794-2q.509-.447.99-.939c.166-.168.312-.309.464-.459s.307-.288.463-.428l.117-.1c.039-.034.081-.065.12-.1l.242-.192c.079-.068.164-.119.247-.179s.165-.118.249-.171a5.143,5.143,0,0,1,1.029-.505,2.927,2.927,0,0,1,.549-.121c-.053.076-.1.153-.152.231a5.749,5.749,0,0,0-.618,1.464A7.308,7.308,0,0,0,2963.084,583.261Zm1.8-4.671.008,0a2.724,2.724,0,0,0-.178.209,3.99,3.99,0,0,0-.467.78c-.07.136-.118.283-.176.425-.026.073-.047.147-.071.221s-.047.147-.064.222a6.468,6.468,0,0,0-.206,1.846,6.234,6.234,0,0,0,.32,1.826,4.667,4.667,0,0,0,.885,1.585l.055.06-.006,0-.055-.058a4.675,4.675,0,0,1-.887-1.587,6.254,6.254,0,0,1-.32-1.829,6.476,6.476,0,0,1,.206-1.849c.017-.076.041-.149.065-.223s.045-.148.071-.221c.058-.143.106-.29.176-.426a4.062,4.062,0,0,1,.468-.782C2964.763,578.725,2964.823,578.656,2964.884,578.591Zm1.553,2.055a5.8,5.8,0,0,1,.119,2.349,4.508,4.508,0,0,1-.808,2.047c-.066.087-.136.169-.209.248-.073-.079-.143-.161-.209-.248a4.5,4.5,0,0,1-.807-2.047,5.819,5.819,0,0,1,.118-2.349,1.07,1.07,0,1,1,1.8,0Zm-.9,5.622.006,0-.006,0-.006,0Zm0-8.214.009,0-.009,0-.009,0Zm.655.536a2.682,2.682,0,0,1,.176.207,4.051,4.051,0,0,1,.468.782c.07.136.117.284.176.426.025.073.047.147.071.221s.048.147.065.223a6.468,6.468,0,0,1,.206,1.849,6.23,6.23,0,0,1-.32,1.829,4.67,4.67,0,0,1-.887,1.587c-.018.02-.037.039-.055.058l-.006,0c.018-.02.037-.039.055-.06a4.668,4.668,0,0,0,.885-1.585,6.233,6.233,0,0,0,.319-1.826,6.442,6.442,0,0,0-.206-1.846c-.017-.076-.041-.149-.064-.222s-.045-.148-.071-.221c-.058-.142-.106-.289-.176-.425a3.967,3.967,0,0,0-.467-.78c-.055-.073-.116-.142-.177-.209Zm.877-.087a2.939,2.939,0,0,1,.549.121,5.139,5.139,0,0,1,1.029.505c.084.053.166.115.249.171s.167.111.247.179l.242.192c.04.033.082.063.12.1l.117.1c.156.14.315.275.463.428s.3.292.463.459q.48.49.99.939a16.109,16.109,0,0,0,2.794,2c-.524.364-1.085.727-1.687,1.072l-.424.238c-.071.041-.144.079-.217.115l-.22.111c-.293.156-.6.284-.91.423a9.25,9.25,0,0,1-1.952.579,5.688,5.688,0,0,1-1.01.079c-.083,0-.166-.012-.249-.018a1.718,1.718,0,0,1-.248-.027l-.244-.041c-.08-.019-.158-.043-.238-.064-.039-.011-.081-.019-.119-.034l-.051-.02c.021-.026.043-.051.064-.077a5.246,5.246,0,0,0,.758-1.3,6.753,6.753,0,0,0,.406-1.465,7.308,7.308,0,0,0-.153-3.063,5.74,5.74,0,0,0-.618-1.464C2967.175,578.656,2967.123,578.579,2967.071,578.5Zm-10.677,5.381,0,0q.181.143.364.282a18.651,18.651,0,0,0,2.966,1.883c.258.136.527.245.793.361.066.03.134.055.2.079l.2.074.2.074c.068.025.138.041.207.063a6.32,6.32,0,0,0,1.693.3,4.266,4.266,0,0,0,1.69-.271c.047-.018.093-.038.139-.058l.006.005c-.047.02-.094.041-.142.059a4.267,4.267,0,0,1-1.693.271,6.343,6.343,0,0,1-1.694-.3c-.069-.022-.14-.038-.207-.063l-.2-.074-.2-.073c-.068-.024-.136-.049-.2-.079-.266-.116-.535-.225-.792-.361a18.619,18.619,0,0,1-2.966-1.884Q2956.575,584.028,2956.394,583.884Zm-.417-.341.006.005,0,0-.007,0Zm8.7-5.79-.01.008a3.076,3.076,0,0,0-1.413.165,5.665,5.665,0,0,0-1.521.858l-.089.065c-.029.022-.057.047-.086.07l-.171.142-.171.142c-.056.048-.109.1-.164.151l-.325.305-.311.322a19.516,19.516,0,0,1-2.625,2.409,15.086,15.086,0,0,1-1.495.985l-.007,0a15.175,15.175,0,0,0,1.5-.987,19.605,19.605,0,0,0,2.624-2.409l.311-.323.326-.305c.055-.05.107-.1.164-.151l.171-.142.171-.142c.028-.023.056-.048.085-.07l.09-.065a5.658,5.658,0,0,1,1.522-.859A3.059,3.059,0,0,1,2964.672,577.753Zm10.12,5.619-.007,0a15.143,15.143,0,0,1-1.495-.985,19.5,19.5,0,0,1-2.625-2.409l-.311-.322-.326-.305c-.055-.05-.108-.1-.164-.151l-.171-.142-.17-.142c-.029-.024-.056-.048-.086-.07l-.089-.065a5.672,5.672,0,0,0-1.52-.858,3.078,3.078,0,0,0-1.414-.165l-.01-.008a3.061,3.061,0,0,1,1.427.166,5.66,5.66,0,0,1,1.522.859l.089.065c.029.022.057.047.086.07l.171.142.171.142c.056.048.109.1.164.151l.326.305.311.323a19.544,19.544,0,0,0,2.624,2.409A15.108,15.108,0,0,0,2974.792,583.371Zm.313.174-.006,0,0,0,.006-.005Z" transform="translate(-2938.747 -576.976)" fill="#575656"/>
        <path id="パス_2943" data-name="パス 2943" d="M2941.246,602.4l-.069-.06Z" transform="translate(-2940.869 -598.904)" fill="#575656"/>
        <path id="パス_2944" data-name="パス 2944" d="M2941.726,602.785l.125.106-.025-.021Z" transform="translate(-2941.348 -599.289)" fill="#575656"/>
      </g>
      <path id="パス_2945" data-name="パス 2945" d="M3228.685,779.627a11.066,11.066,0,0,0-5.049-1.672c-.037,0-.051-.027-.045-.046s.008-.042.045-.046a10.951,10.951,0,0,0,5.11-1.717.958.958,0,0,1,1-.04l.067.038a1.078,1.078,0,0,1,.556.625,3.056,3.056,0,0,0,.268.642,1.021,1.021,0,0,1,.019.935,4.4,4.4,0,0,0-.29.712,1.084,1.084,0,0,1-.553.617l-.009.006A1.1,1.1,0,0,1,3228.685,779.627Z" transform="translate(-3184.283 -747.517)" fill="#575656"/>
      <g id="グループ_600" data-name="グループ 600" transform="translate(46.702 1.281)">
        <path id="パス_2946" data-name="パス 2946" d="M3333.417,1000.828c.032.046.064.091.1.136l-.079-.109Z" transform="translate(-3326.862 -943.181)" fill="#575656"/>
        <path id="パス_2947" data-name="パス 2947" d="M3334.245,1001.91l-.055-.075Z" transform="translate(-3327.537 -944.051)" fill="#575656"/>
        <path id="パス_2948" data-name="パス 2948" d="M3288.363,632.949c-.247-.345-.591-.853-.984-1.525a22.382,22.382,0,0,1-1.3-2.584,20.509,20.509,0,0,1-1.153-3.586,16.888,16.888,0,0,1-.4-4.426,14.548,14.548,0,0,1,1.029-4.76q.112-.282.238-.559l.134.164.258.317.258.3.489.563c.323.351.615.677.885.963l.725.76.543.553c.293.3.445.467.445.467l-.6-.668-.3-.334-.294-.341c-.194-.229-.393-.454-.585-.685l-.57-.7c-.428-.538-.847-1.087-1.25-1.648v0c.4.562.821,1.111,1.25,1.65l.57.7c.192.231.39.457.584.685l.293.342.3.334.6.668s-.15-.168-.42-.493c-.134-.163-.3-.363-.492-.6l-.645-.837c-.238-.316-.492-.675-.773-1.06l-.421-.614-.222-.324c-.072-.112-.146-.226-.221-.342-.085-.131-.172-.266-.259-.4a16.9,16.9,0,0,1,2.112-3.2c.275-.33.561-.653.858-.965l.463-.5c.16-.168.309-.355.46-.538l.113-.138c.038-.046.073-.1.109-.144l.214-.292c.074-.095.137-.2.2-.3s.135-.206.2-.314a7.447,7.447,0,0,0,.639-1.408,4.755,4.755,0,0,0,.219-1.665,2.728,2.728,0,0,1,0-2.1,4.756,4.756,0,0,0-.219-1.665,7.441,7.441,0,0,0-.639-1.408c-.063-.108-.131-.209-.2-.314s-.131-.21-.2-.3l-.214-.292c-.036-.048-.071-.1-.109-.145l-.113-.137c-.151-.182-.3-.37-.46-.538l-.463-.5c-.3-.312-.583-.635-.858-.966a16.886,16.886,0,0,1-2.112-3.2c.087-.137.174-.272.259-.4.075-.115.149-.229.221-.342s.149-.217.222-.324l.421-.614c.281-.385.534-.743.773-1.06l.645-.837c.191-.24.359-.44.492-.6.271-.325.42-.493.42-.493l-.6.668-.3.334-.293.342c-.195.229-.393.454-.584.685l-.57.7c-.429.539-.848,1.088-1.25,1.65v0c.4-.561.822-1.11,1.25-1.648l.57-.7c.192-.231.391-.457.585-.685l.294-.342.3-.334.6-.668s-.151.166-.445.467l-.543.553-.725.76c-.271.286-.562.612-.885.963l-.489.563-.258.3-.258.317-.134.164q-.125-.278-.238-.559a14.549,14.549,0,0,1-1.029-4.76,16.891,16.891,0,0,1,.4-4.426,20.524,20.524,0,0,1,1.153-3.586,22.377,22.377,0,0,1,1.3-2.584c.393-.673.737-1.181.984-1.526q-.33.458-.636.935-.491.767-.924,1.575a23.041,23.041,0,0,0-1.484,3.366,19.448,19.448,0,0,0-.886,3.6,16.23,16.23,0,0,0-.113,3.724,15.273,15.273,0,0,0,.274,1.843,14.723,14.723,0,0,0,.5,1.785c.117.34.249.674.39,1l0,.006c-.142-.33-.274-.665-.392-1.006a14.992,14.992,0,0,1-.5-1.786,15.281,15.281,0,0,1-.274-1.844,16.26,16.26,0,0,1,.115-3.726,19.471,19.471,0,0,1,.887-3.6,23.071,23.071,0,0,1,1.485-3.366q.434-.807.926-1.574c.255-.4.519-.784.8-1.158l-.008.012q.126-.17.258-.335l-.029.035c-.053.066-.179.227-.366.482-.25.343-.607.856-1.026,1.536a25.668,25.668,0,0,0-1.379,2.544,22.16,22.16,0,0,0-1.33,3.56,18.494,18.494,0,0,0-.463,2.152,16.894,16.894,0,0,0-.2,2.369,15.46,15.46,0,0,0,.791,5.09c.116.347.246.691.387,1.032a23.468,23.468,0,0,0-1.419,2.086l-.27.459c-.046.077-.09.157-.132.238s-.085.162-.128.243c-.178.322-.332.67-.5,1.02a11.72,11.72,0,0,0-.75,2.335,8.222,8.222,0,0,0-.157,1.328c0,.115,0,.232,0,.348a3.117,3.117,0,0,0,.017.352q.018.177.036.356c.018.119.043.238.064.358a1.973,1.973,0,0,1,0,2.348c-.022.12-.047.239-.064.358s-.024.238-.036.356a3.125,3.125,0,0,0-.017.353c0,.116-.005.233,0,.348a8.217,8.217,0,0,0,.157,1.328,11.724,11.724,0,0,0,.75,2.336c.165.35.319.7.5,1.02l.128.244c.042.081.085.16.132.237l.27.459a23.483,23.483,0,0,0,1.419,2.086c-.141.341-.271.685-.387,1.032a15.452,15.452,0,0,0-.791,5.089,16.885,16.885,0,0,0,.2,2.369,18.466,18.466,0,0,0,.463,2.152,22.184,22.184,0,0,0,1.33,3.56,25.673,25.673,0,0,0,1.379,2.544c.419.68.777,1.192,1.026,1.536.187.255.313.416.366.482l.029.035c-.088-.11-.174-.222-.258-.335l.008.012c-.28-.374-.543-.763-.8-1.158q-.492-.766-.926-1.574a23.086,23.086,0,0,1-1.485-3.366,19.476,19.476,0,0,1-.887-3.6,16.256,16.256,0,0,1-.115-3.726,15.286,15.286,0,0,1,.274-1.844,14.984,14.984,0,0,1,.5-1.786c.118-.341.25-.676.392-1.007a.025.025,0,0,0,0,.007c-.141.329-.273.663-.39,1a14.732,14.732,0,0,0-.5,1.785,15.277,15.277,0,0,0-.274,1.843,16.231,16.231,0,0,0,.113,3.724,19.454,19.454,0,0,0,.886,3.6,23.034,23.034,0,0,0,1.484,3.366q.434.807.924,1.575Q3288.034,632.491,3288.363,632.949Zm-5.665-27.664c.017-.052.036-.1.055-.155l.005.006c-.019.05-.037.1-.053.151a5.391,5.391,0,0,0-.25,1.835,8.032,8.032,0,0,0,.273,1.839c.02.075.034.151.058.225l.068.222.068.222c.022.074.045.148.073.219.107.289.207.581.333.861a21.1,21.1,0,0,0,1.733,3.221q.129.2.26.4l0,0q-.132-.2-.261-.4a21.008,21.008,0,0,1-1.735-3.221c-.126-.28-.226-.572-.333-.862-.028-.071-.05-.146-.073-.22l-.068-.222-.068-.222c-.024-.074-.038-.15-.058-.225a7.994,7.994,0,0,1-.274-1.84A5.4,5.4,0,0,1,3282.7,605.285Zm3.194-3.552a5.481,5.481,0,0,0-1.35.442,4.731,4.731,0,0,0-1.2.823l-.071.069-.018-.055c-.013-.041-.021-.086-.031-.128-.019-.087-.042-.172-.059-.259s-.025-.177-.038-.266a2.181,2.181,0,0,1-.026-.269c0-.09-.014-.18-.017-.271a7.324,7.324,0,0,1,.073-1.1,11.438,11.438,0,0,1,.534-2.12c.127-.335.246-.669.39-.987l.1-.24c.033-.08.068-.159.106-.236l.219-.461c.318-.654.652-1.264.986-1.833a17.772,17.772,0,0,0,1.84,3.035q.412.553.864,1.075c.154.18.285.339.423.5s.265.334.395.5l.1.128c.031.042.059.087.089.131l.177.263c.062.086.11.179.164.268s.108.179.157.27a6.064,6.064,0,0,1,.465,1.117,3.8,3.8,0,0,1,.112.6c-.071-.057-.141-.113-.213-.164a4.88,4.88,0,0,0-1.348-.671A5.729,5.729,0,0,0,3285.893,601.733Zm4.3,1.954a.083.083,0,0,1,0,.01,2.672,2.672,0,0,0-.193-.194,3.609,3.609,0,0,0-.718-.507c-.125-.076-.261-.128-.392-.191-.067-.028-.135-.051-.2-.077a1.993,1.993,0,0,0-.205-.07,5.087,5.087,0,0,0-1.7-.224,4.977,4.977,0,0,0-1.682.347,4.16,4.16,0,0,0-1.459.961c-.019.019-.037.04-.055.06l0-.006.054-.059a4.184,4.184,0,0,1,1.461-.963,4.971,4.971,0,0,1,1.684-.347,5.1,5.1,0,0,1,1.7.223,2.144,2.144,0,0,1,.205.07c.068.025.137.049.2.077.131.063.267.115.392.191a3.665,3.665,0,0,1,.721.509C3290.07,603.557,3290.133,603.621,3290.194,603.687Zm-1.893,1.687a4.571,4.571,0,0,1-2.164.128,3.814,3.814,0,0,1-1.884-.877c-.081-.072-.156-.148-.229-.227.073-.079.148-.155.229-.227a3.809,3.809,0,0,1,1.884-.877,4.563,4.563,0,0,1,2.164.129,1.073,1.073,0,1,1,0,1.951Zm-5.177-.975,0,.006,0-.006,0-.007Zm7.562,0,0,.009,0-.009,0-.009Zm-.493.711c-.062.067-.124.131-.191.191a3.674,3.674,0,0,1-.721.508c-.125.076-.261.128-.392.191-.067.027-.135.051-.2.077a2.093,2.093,0,0,1-.205.07,5.105,5.105,0,0,1-1.7.223,4.98,4.98,0,0,1-1.684-.347,4.176,4.176,0,0,1-1.461-.964l-.054-.059,0-.007c.018.02.036.041.055.06a4.17,4.17,0,0,0,1.459.962,4.972,4.972,0,0,0,1.682.347,5.09,5.09,0,0,0,1.7-.223,2.1,2.1,0,0,0,.205-.07c.067-.026.136-.05.2-.077.131-.063.267-.115.392-.191a3.633,3.633,0,0,0,.718-.508,2.62,2.62,0,0,0,.193-.193A.066.066,0,0,1,3290.194,605.11Zm.08.953a3.8,3.8,0,0,1-.112.6,6.076,6.076,0,0,1-.465,1.117c-.049.091-.105.18-.157.27s-.1.182-.164.268l-.177.263c-.03.043-.058.088-.089.131l-.1.127c-.13.169-.253.342-.395.5s-.269.323-.423.5q-.45.522-.864,1.075a17.79,17.79,0,0,0-1.84,3.034c-.335-.569-.669-1.179-.986-1.832l-.219-.461c-.038-.077-.073-.156-.106-.236l-.1-.24c-.144-.318-.262-.652-.39-.988a11.422,11.422,0,0,1-.534-2.12,7.32,7.32,0,0,1-.073-1.1c0-.09.012-.18.017-.271a2.172,2.172,0,0,1,.026-.269q.018-.132.038-.266c.018-.087.04-.172.059-.258.01-.043.018-.087.031-.129l.018-.055.071.069a4.751,4.751,0,0,0,1.2.823,5.5,5.5,0,0,0,1.35.441,5.731,5.731,0,0,0,2.82-.166,4.895,4.895,0,0,0,1.348-.672C3290.133,606.175,3290.2,606.12,3290.274,606.063Zm-4.955-11.6,0,0q-.131.2-.26.4a21.075,21.075,0,0,0-1.733,3.221c-.126.28-.226.572-.333.861-.028.072-.051.146-.073.22l-.068.221-.068.222c-.024.074-.039.15-.058.225a8.028,8.028,0,0,0-.273,1.838,5.39,5.39,0,0,0,.25,1.835c.016.051.035.1.053.151l-.005.007c-.018-.052-.038-.1-.055-.155a5.4,5.4,0,0,1-.25-1.838,7.989,7.989,0,0,1,.274-1.84c.02-.075.034-.151.058-.225l.068-.222.068-.222c.023-.073.045-.148.073-.219.107-.289.207-.581.333-.861a21.008,21.008,0,0,1,1.735-3.222Q3285.187,594.664,3285.319,594.467Zm.314-.453,0,.007,0,0,0-.007Zm5.332,9.444-.008-.011a3.872,3.872,0,0,0-.152-1.535,6.51,6.51,0,0,0-.789-1.651l-.06-.1c-.021-.032-.043-.062-.064-.093l-.13-.186-.131-.185c-.044-.061-.093-.119-.139-.178l-.281-.354-.3-.338a20.363,20.363,0,0,1-2.218-2.85,16.725,16.725,0,0,1-.907-1.623l0-.008a16.918,16.918,0,0,0,.909,1.626,20.331,20.331,0,0,0,2.219,2.849l.3.338.281.354c.047.06.1.117.139.178l.131.186.131.186c.021.031.044.061.065.093l.06.1a6.524,6.524,0,0,1,.791,1.653A3.893,3.893,0,0,1,3290.965,603.458Zm-5.174,10.992,0-.007a16.656,16.656,0,0,1,.907-1.623,20.343,20.343,0,0,1,2.218-2.851l.3-.338.281-.353c.046-.06.095-.117.139-.178l.131-.185.13-.185c.022-.031.044-.062.064-.093l.06-.1a6.523,6.523,0,0,0,.789-1.651,3.872,3.872,0,0,0,.152-1.535l.008-.011a3.893,3.893,0,0,1-.153,1.548,6.525,6.525,0,0,1-.791,1.654l-.06.1c-.021.032-.043.062-.065.093l-.131.186-.131.185c-.044.061-.093.119-.139.179l-.281.354-.3.338a20.3,20.3,0,0,0-2.219,2.849A16.913,16.913,0,0,0,3285.792,614.449Zm-.16.338,0-.006,0,0,0,.007Z" transform="translate(-3281.809 -575.302)" fill="#575656"/>
        <path id="パス_2949" data-name="パス 2949" d="M3334.185,577.853l.056-.076Z" transform="translate(-3327.533 -577.442)" fill="#575656"/>
        <path id="パス_2950" data-name="パス 2950" d="M3333.516,578.335c-.033.044-.065.09-.1.135l.019-.027Z" transform="translate(-3326.864 -577.924)" fill="#575656"/>
      </g>
      <path id="パス_2951" data-name="パス 2951" d="M2972.058,566.344v61.948a.463.463,0,1,1-.922,0v-61.4a.049.049,0,0,0-.047-.05h-56.532a.5.5,0,0,1,0-1h57.04A.483.483,0,0,1,2972.058,566.344Z" transform="translate(-2914.096 -565.843)" fill="#575656"/>
    </g>
    <g id="グループ_604" data-name="グループ 604" transform="translate(647.881 1902.928)">
      <path id="パス_2952" data-name="パス 2952" d="M3139.2,2295.242a13.56,13.56,0,0,1-1.539-5.483c0-.041-.025-.056-.042-.049s-.039.008-.043.049a13.424,13.424,0,0,1-1.581,5.55,1.2,1.2,0,0,0-.037,1.081c.012.023.024.047.036.073a1.066,1.066,0,0,0,.575.6,2.584,2.584,0,0,1,.591.291.811.811,0,0,0,.861.02,3.662,3.662,0,0,1,.655-.315,1.07,1.07,0,0,0,.569-.6l0-.01A1.387,1.387,0,0,0,3139.2,2295.242Z" transform="translate(-3107.685 -2247.019)" fill="#575656"/>
      <g id="グループ_602" data-name="グループ 602" transform="translate(3.131 50.721)">
        <path id="パス_2953" data-name="パス 2953" d="M3356.679,2401.53c.042.036.084.071.125.107l-.1-.085Z" transform="translate(-3303.599 -2394.411)" fill="#575656"/>
        <path id="パス_2954" data-name="パス 2954" d="M3357.734,2402.378c-.022-.021-.046-.041-.069-.06Z" transform="translate(-3304.459 -2395.093)" fill="#575656"/>
        <path id="パス_2955" data-name="パス 2955" d="M2990.966,2355.413q-.706-.534-1.45-1a19.826,19.826,0,0,0-3.1-1.612,15.724,15.724,0,0,0-3.318-.962,12.732,12.732,0,0,0-3.429-.123,11.829,11.829,0,0,0-3.34.844q-.469.192-.923.424l-.006-.005c.3-.154.613-.3.927-.425a11.74,11.74,0,0,1,3.342-.844,12.739,12.739,0,0,1,3.43.124,15.784,15.784,0,0,1,3.319.964,19.82,19.82,0,0,1,3.1,1.614q.743.472,1.45,1.006c.364.276.722.563,1.066.868l-.012-.01c.1.092.208.185.309.28l-.032-.031c-.061-.058-.209-.2-.444-.4-.317-.271-.788-.66-1.414-1.115a22.883,22.883,0,0,0-2.344-1.5,18.619,18.619,0,0,0-3.277-1.445,14.725,14.725,0,0,0-1.981-.5,13.108,13.108,0,0,0-2.181-.215,12.369,12.369,0,0,0-2.322.188,12.756,12.756,0,0,0-2.365.671c-.32.125-.637.267-.951.42a21.721,21.721,0,0,0-1.921-1.542l-.422-.292c-.071-.051-.144-.1-.219-.143l-.223-.14c-.3-.195-.617-.361-.939-.54a9.666,9.666,0,0,0-2.151-.815,6.5,6.5,0,0,0-1.222-.171c-.106,0-.213,0-.321,0a2.3,2.3,0,0,0-.323.019l-.329.038c-.109.02-.219.047-.329.071a1.6,1.6,0,0,1-2.163,0c-.11-.024-.22-.051-.329-.071l-.328-.038a2.3,2.3,0,0,0-.324-.019c-.107,0-.215-.007-.321,0a6.5,6.5,0,0,0-1.222.171,9.652,9.652,0,0,0-2.15.815c-.322.178-.643.345-.939.54l-.224.14c-.074.045-.148.092-.219.143l-.423.292a21.9,21.9,0,0,0-1.921,1.542c-.314-.154-.631-.295-.95-.42a12.774,12.774,0,0,0-2.365-.671,12.372,12.372,0,0,0-2.322-.187,13.1,13.1,0,0,0-2.181.215,14.736,14.736,0,0,0-1.982.5,18.609,18.609,0,0,0-3.277,1.445,22.79,22.79,0,0,0-2.343,1.5c-.626.456-1.1.844-1.414,1.115-.235.2-.383.339-.444.4l-.032.031c.1-.1.2-.189.309-.28l-.011.01c.344-.305.7-.591,1.065-.868q.706-.534,1.45-1.006a19.823,19.823,0,0,1,3.1-1.614,15.774,15.774,0,0,1,3.318-.964,12.744,12.744,0,0,1,3.431-.124,11.747,11.747,0,0,1,3.342.844c.314.127.623.271.926.425l-.005.005c-.3-.154-.61-.3-.923-.424a11.825,11.825,0,0,0-3.34-.844,12.73,12.73,0,0,0-3.429.123,15.715,15.715,0,0,0-3.318.962,19.8,19.8,0,0,0-3.1,1.612q-.743.471-1.45,1c-.292.222-.58.452-.861.691.317-.268.785-.641,1.4-1.069a19.608,19.608,0,0,1,2.38-1.406,16.889,16.889,0,0,1,3.3-1.252,13.255,13.255,0,0,1,4.074-.431,11.826,11.826,0,0,1,2.2.333,12.251,12.251,0,0,1,2.187.785q.26.123.515.259l-.151.145-.292.281-.275.28-.518.53c-.323.35-.623.668-.887.961l-.7.788-.51.589c-.277.319-.43.483-.43.483l.615-.653.308-.326.314-.319c.21-.212.418-.427.631-.636l.644-.619q.743-.7,1.518-1.359l0,0c-.517.438-1.023.892-1.519,1.358l-.644.619c-.212.209-.42.424-.631.635l-.314.318-.308.327-.615.653s.155-.163.455-.456c.15-.146.334-.328.555-.535l.771-.7c.291-.258.621-.534.976-.839l.565-.458.3-.241.315-.24c.121-.093.245-.187.371-.282a15.634,15.634,0,0,1,2.945,2.295q.456.448.889.932l.461.5c.155.174.327.335.495.5l.127.123c.042.041.089.078.133.117l.269.233c.087.081.186.148.281.222s.19.146.289.214a6.4,6.4,0,0,0,1.3.695,3.764,3.764,0,0,0,1.533.237,2.16,2.16,0,0,1,1.937,0,3.766,3.766,0,0,0,1.534-.237,6.391,6.391,0,0,0,1.3-.695c.1-.068.193-.143.289-.214s.194-.142.281-.222l.269-.233c.044-.039.091-.077.133-.117l.126-.123c.168-.165.34-.326.5-.5l.461-.5q.432-.486.889-.932a15.653,15.653,0,0,1,2.944-2.295c.126.095.251.189.372.282l.315.24.3.241.565.458c.354.305.684.581.976.839l.77.7c.222.207.406.389.555.535.3.293.455.456.455.456l-.615-.653-.308-.327-.314-.318c-.211-.212-.418-.427-.631-.635l-.644-.619c-.5-.466-1-.92-1.519-1.358l0,0q.776.657,1.518,1.359l.644.619c.213.209.42.424.631.636l.314.319.308.326.615.653s-.153-.164-.43-.483l-.51-.589-.7-.788c-.263-.294-.563-.611-.887-.961-.167-.172-.34-.348-.519-.53l-.274-.28-.292-.281-.151-.145c.17-.09.342-.177.515-.259a12.278,12.278,0,0,1,2.186-.785,11.843,11.843,0,0,1,2.2-.333,13.258,13.258,0,0,1,4.075.431,16.9,16.9,0,0,1,3.3,1.252,19.654,19.654,0,0,1,2.378,1.406c.619.428,1.087.8,1.4,1.069C2991.546,2355.864,2991.258,2355.635,2990.966,2355.413Zm-22.919-5.733a6.365,6.365,0,0,1,1.695.3c.069.022.14.038.207.063l.2.074.2.074c.068.024.136.048.2.079.266.116.535.225.793.362a18.621,18.621,0,0,1,2.967,1.884c.122.093.244.188.365.283l0,0q-.181-.143-.364-.282a18.64,18.64,0,0,0-2.966-1.883c-.258-.136-.527-.245-.793-.361-.066-.03-.134-.055-.2-.079l-.2-.073-.2-.074c-.067-.025-.138-.042-.207-.063a6.323,6.323,0,0,0-1.693-.3,4.261,4.261,0,0,0-1.69.271c-.046.018-.092.039-.138.059l-.006-.006c.047-.02.095-.042.143-.059A4.272,4.272,0,0,1,2968.047,2349.68Zm-4.81,6.8a5.744,5.744,0,0,0,.618,1.464c.048.079.1.155.152.231a2.949,2.949,0,0,1-.549-.121,5.16,5.16,0,0,1-1.029-.506c-.084-.053-.166-.114-.249-.17s-.168-.111-.247-.178l-.242-.191c-.04-.033-.081-.063-.12-.1l-.117-.1c-.156-.14-.315-.274-.463-.428s-.3-.291-.464-.459c-.32-.326-.65-.64-.99-.938a16.129,16.129,0,0,0-2.794-2c.524-.364,1.086-.727,1.688-1.071l.424-.238c.071-.041.144-.079.217-.114l.221-.111c.293-.156.6-.284.909-.424a9.263,9.263,0,0,1,1.952-.579,5.655,5.655,0,0,1,1.01-.078c.084,0,.167.012.25.017a1.8,1.8,0,0,1,.248.028l.244.041c.08.019.158.043.238.064.039.011.08.019.118.034l.051.02-.064.077a5.267,5.267,0,0,0-.757,1.3,6.762,6.762,0,0,0-.407,1.465A7.306,7.306,0,0,0,2963.237,2356.483Zm1.471,1.4a4.091,4.091,0,0,1-.468-.781c-.07-.136-.118-.284-.176-.427-.025-.073-.047-.147-.071-.221s-.048-.147-.065-.223a6.475,6.475,0,0,1-.206-1.849,6.255,6.255,0,0,1,.32-1.829,4.676,4.676,0,0,1,.887-1.587l.055-.058.006,0c-.019.02-.037.039-.055.06a4.665,4.665,0,0,0-.885,1.585,6.231,6.231,0,0,0-.32,1.826,6.469,6.469,0,0,0,.206,1.846c.017.075.041.149.064.222s.045.147.071.22c.058.142.106.289.176.426a4,4,0,0,0,.467.78,2.718,2.718,0,0,0,.178.209l-.008,0C2964.823,2358.026,2964.763,2357.957,2964.708,2357.885Zm.831-.2a3.531,3.531,0,0,1-.9-1.651,5.82,5.82,0,0,1-.118-2.349,4.5,4.5,0,0,1,.807-2.047c.066-.087.136-.169.209-.248.073.079.143.161.209.248a4.507,4.507,0,0,1,.808,2.047,5.8,5.8,0,0,1-.119,2.349A3.531,3.531,0,0,1,2965.539,2357.687Zm-.006-7.277.006,0,.006,0-.006,0Zm0,8.213.009,0,.009,0-.009.005Zm.656-.534c.061-.067.122-.136.177-.209a3.974,3.974,0,0,0,.467-.78c.07-.136.118-.284.176-.426.026-.073.047-.147.071-.22s.047-.147.064-.222a6.443,6.443,0,0,0,.206-1.846,6.23,6.23,0,0,0-.319-1.826,4.666,4.666,0,0,0-.885-1.585c-.018-.021-.037-.04-.055-.06l.006,0c.018.02.037.038.055.058a4.671,4.671,0,0,1,.887,1.587,6.231,6.231,0,0,1,.32,1.829,6.466,6.466,0,0,1-.206,1.849c-.017.076-.041.149-.065.223s-.045.148-.071.221c-.059.142-.106.29-.176.427a4.079,4.079,0,0,1-.468.781c-.055.072-.115.141-.176.207Zm1.036-.141a5.735,5.735,0,0,0,.618-1.464,7.306,7.306,0,0,0,.153-3.062,6.747,6.747,0,0,0-.406-1.465,5.237,5.237,0,0,0-.758-1.3c-.021-.026-.042-.051-.064-.077l.051-.02c.038-.015.079-.022.119-.034.079-.021.157-.045.238-.064l.244-.041a1.78,1.78,0,0,1,.248-.028c.083,0,.166-.015.249-.017a5.648,5.648,0,0,1,1.01.078,9.246,9.246,0,0,1,1.952.579c.309.14.617.268.91.424l.22.111c.073.036.146.073.217.114l.424.238c.6.345,1.163.708,1.687,1.071a16.145,16.145,0,0,0-2.794,2c-.339.3-.669.613-.99.938-.167.168-.311.309-.463.459s-.307.288-.463.428l-.117.1c-.039.034-.08.064-.12.1l-.242.191c-.079.067-.165.119-.247.178s-.165.118-.249.17a5.157,5.157,0,0,1-1.029.506,2.962,2.962,0,0,1-.549.121C2967.123,2358.1,2967.175,2358.026,2967.222,2357.947Zm-10.463-5.433a18.6,18.6,0,0,1,2.966-1.884c.258-.137.527-.246.792-.362.067-.03.135-.054.2-.079l.2-.074.2-.074c.067-.025.138-.041.207-.063a6.365,6.365,0,0,1,1.694-.3,4.274,4.274,0,0,1,1.693.272c.048.018.1.039.142.059l-.006.006c-.046-.02-.092-.04-.139-.059a4.258,4.258,0,0,0-1.69-.271,6.32,6.32,0,0,0-1.693.3c-.069.021-.139.037-.207.063l-.2.074-.2.073c-.068.024-.136.049-.2.079-.266.116-.535.225-.793.361a18.643,18.643,0,0,0-2.966,1.883q-.183.14-.364.282l0,0C2956.515,2352.7,2956.637,2352.607,2956.759,2352.514Zm-.787.623.007-.005,0,0-.006,0Zm7.273,5.627a5.669,5.669,0,0,1-1.522-.859l-.09-.065c-.029-.022-.057-.047-.085-.071l-.171-.142-.171-.143c-.057-.048-.109-.1-.164-.151l-.326-.3-.311-.323a19.544,19.544,0,0,0-2.624-2.409,15.089,15.089,0,0,0-1.5-.987l.007,0a15.2,15.2,0,0,1,1.495.985,19.562,19.562,0,0,1,2.625,2.409l.311.322.325.305c.055.05.108.1.164.151l.171.143.171.141c.028.024.056.049.086.07l.089.065a5.66,5.66,0,0,0,1.521.858,3.068,3.068,0,0,0,1.413.165l.01.008A3.07,3.07,0,0,1,2963.246,2358.764Zm10.049-4.466a19.483,19.483,0,0,0-2.624,2.409l-.311.323-.326.3c-.055.051-.108.1-.164.151l-.171.143-.171.142c-.028.024-.056.049-.086.071l-.089.065a5.672,5.672,0,0,1-1.522.859,3.072,3.072,0,0,1-1.427.165l.01-.008a3.07,3.07,0,0,0,1.414-.165,5.666,5.666,0,0,0,1.52-.858l.089-.065c.03-.022.057-.046.086-.07l.17-.141.171-.143c.056-.048.109-.1.164-.151l.326-.305.311-.322a19.547,19.547,0,0,1,2.625-2.409,15.262,15.262,0,0,1,1.495-.985l.007,0A15.022,15.022,0,0,0,2973.3,2354.3Zm1.806-1.159-.006,0,0,0,.006.005Z" transform="translate(-2938.747 -2348.985)" fill="#575656"/>
        <path id="パス_2956" data-name="パス 2956" d="M2941.246,2402.314l-.069.061Z" transform="translate(-2940.869 -2395.089)" fill="#575656"/>
        <path id="パス_2957" data-name="パス 2957" d="M2941.726,2401.638l.125-.106-.025.021Z" transform="translate(-2941.348 -2394.414)" fill="#575656"/>
      </g>
      <path id="パス_2958" data-name="パス 2958" d="M3228.685,2201.1a11.056,11.056,0,0,1-5.049,1.672c-.037,0-.051.027-.045.047s.008.043.045.046a10.953,10.953,0,0,1,5.11,1.717.959.959,0,0,0,1,.04l.067-.038a1.078,1.078,0,0,0,.556-.625,3.052,3.052,0,0,1,.268-.642,1.021,1.021,0,0,0,.019-.935,4.385,4.385,0,0,1-.29-.712,1.081,1.081,0,0,0-.553-.617l-.009-.006A1.1,1.1,0,0,0,3228.685,2201.1Z" transform="translate(-3184.283 -2170.257)" fill="#575656"/>
      <g id="グループ_603" data-name="グループ 603" transform="translate(46.702 3.474)">
        <path id="パス_2959" data-name="パス 2959" d="M3333.417,2003.4c.032-.046.064-.091.1-.136l-.079.109Z" transform="translate(-3326.862 -2002.854)" fill="#575656"/>
        <path id="パス_2960" data-name="パス 2960" d="M3334.245,2002.709l-.055.075Z" transform="translate(-3327.537 -2002.374)" fill="#575656"/>
        <path id="パス_2961" data-name="パス 2961" d="M3287.727,2001.718q-.491.766-.924,1.575a23.032,23.032,0,0,0-1.484,3.366,19.455,19.455,0,0,0-.886,3.6,16.23,16.23,0,0,0-.113,3.724,15.276,15.276,0,0,0,.274,1.843,14.736,14.736,0,0,0,.5,1.784c.117.34.249.674.39,1a.022.022,0,0,0,0,.006c-.142-.33-.274-.665-.392-1.007a14.948,14.948,0,0,1-.5-1.786,15.279,15.279,0,0,1-.274-1.843,16.256,16.256,0,0,1,.115-3.726,19.471,19.471,0,0,1,.887-3.6,23.115,23.115,0,0,1,1.485-3.366q.434-.806.926-1.574c.255-.4.519-.784.8-1.159a.087.087,0,0,1-.008.013c.084-.113.17-.225.258-.335l-.029.035c-.053.066-.179.227-.366.482-.25.344-.607.856-1.026,1.536a25.729,25.729,0,0,0-1.379,2.544,22.2,22.2,0,0,0-1.33,3.561,18.459,18.459,0,0,0-.463,2.152,16.877,16.877,0,0,0-.2,2.368,15.454,15.454,0,0,0,.791,5.09c.116.347.246.692.387,1.032a23.469,23.469,0,0,0-1.419,2.086l-.27.459c-.046.077-.09.156-.132.237s-.085.162-.128.243c-.178.322-.332.67-.5,1.02a11.717,11.717,0,0,0-.75,2.335,8.216,8.216,0,0,0-.157,1.328c0,.115,0,.231,0,.348a3.113,3.113,0,0,0,.017.352q.018.178.036.356c.018.119.043.238.064.358a1.973,1.973,0,0,1,0,2.348c-.022.12-.047.239-.064.358s-.024.238-.036.356a3.107,3.107,0,0,0-.017.352c0,.117-.005.234,0,.349a8.213,8.213,0,0,0,.157,1.327,11.714,11.714,0,0,0,.75,2.336c.165.35.319.7.5,1.02.043.082.086.162.128.243s.085.161.132.238l.27.459a23.577,23.577,0,0,0,1.419,2.086c-.141.34-.271.685-.387,1.032a15.462,15.462,0,0,0-.791,5.09,16.891,16.891,0,0,0,.2,2.369,18.475,18.475,0,0,0,.463,2.152,22.171,22.171,0,0,0,1.33,3.56,25.694,25.694,0,0,0,1.379,2.544c.419.68.777,1.193,1.026,1.536.187.255.313.416.366.483l.029.035c-.088-.11-.174-.222-.258-.335a.087.087,0,0,1,.008.013c-.28-.375-.543-.763-.8-1.158q-.492-.767-.926-1.574a23.081,23.081,0,0,1-1.485-3.366,19.469,19.469,0,0,1-.887-3.6,16.257,16.257,0,0,1-.115-3.726,15.283,15.283,0,0,1,.274-1.844,14.994,14.994,0,0,1,.5-1.787c.118-.341.25-.676.392-1.006l0,.007c-.141.328-.273.662-.39,1a14.751,14.751,0,0,0-.5,1.785,15.278,15.278,0,0,0-.274,1.842,16.232,16.232,0,0,0,.113,3.724,19.455,19.455,0,0,0,.886,3.6,23.038,23.038,0,0,0,1.484,3.366q.434.806.924,1.575.307.477.636.936c-.247-.345-.591-.853-.984-1.525a22.4,22.4,0,0,1-1.3-2.584,20.514,20.514,0,0,1-1.153-3.586,16.889,16.889,0,0,1-.4-4.426,14.547,14.547,0,0,1,1.029-4.76q.112-.282.238-.559l.134.164.258.317.258.3.489.563c.323.351.615.677.885.963l.725.76.543.553c.293.3.445.467.445.467l-.6-.668-.3-.334-.294-.342c-.194-.228-.393-.454-.585-.685l-.57-.7c-.428-.538-.847-1.087-1.25-1.648v0c.4.562.821,1.111,1.25,1.65l.57.7c.192.231.39.456.584.685l.293.342.3.334.6.668s-.15-.168-.42-.493c-.134-.163-.3-.363-.492-.6l-.645-.837c-.238-.317-.492-.675-.773-1.06q-.2-.3-.421-.614c-.073-.107-.147-.215-.222-.324s-.146-.227-.221-.342c-.085-.132-.172-.267-.259-.4a16.9,16.9,0,0,1,2.112-3.2c.275-.33.561-.653.858-.966l.463-.5c.16-.168.309-.355.46-.538l.113-.138c.038-.046.073-.1.109-.145l.214-.292c.074-.095.137-.2.2-.305s.135-.206.2-.313a7.454,7.454,0,0,0,.639-1.407,4.758,4.758,0,0,0,.219-1.665,2.729,2.729,0,0,1,0-2.1,4.754,4.754,0,0,0-.219-1.665,7.439,7.439,0,0,0-.639-1.408c-.063-.108-.131-.209-.2-.314s-.131-.21-.2-.3l-.214-.292c-.036-.048-.071-.1-.109-.145l-.113-.138c-.151-.183-.3-.37-.46-.538l-.463-.5c-.3-.312-.583-.635-.858-.965a16.891,16.891,0,0,1-2.112-3.2c.087-.137.174-.271.259-.4.075-.116.149-.229.221-.342l.222-.324.421-.615c.281-.385.534-.743.773-1.059l.645-.837c.191-.24.359-.44.492-.6.271-.325.42-.493.42-.493l-.6.668-.3.334-.293.342c-.195.229-.393.454-.584.685l-.57.7c-.429.539-.848,1.088-1.25,1.65v0c.4-.561.822-1.11,1.25-1.648l.57-.7c.192-.231.391-.456.585-.685l.294-.342.3-.334.6-.668s-.151.166-.445.467l-.543.553-.725.76c-.271.287-.562.612-.885.963l-.489.563-.258.3-.258.317-.134.164q-.125-.278-.238-.559a14.55,14.55,0,0,1-1.029-4.761,16.889,16.889,0,0,1,.4-4.426,20.511,20.511,0,0,1,1.153-3.586,22.316,22.316,0,0,1,1.3-2.584c.393-.672.737-1.18.984-1.525Q3288.033,2001.24,3287.727,2001.718Zm-5.278,24.891a7.992,7.992,0,0,1,.274-1.84c.02-.075.034-.151.058-.225l.068-.222.068-.221c.023-.074.045-.148.073-.22.107-.289.207-.581.333-.861a20.994,20.994,0,0,1,1.735-3.222c.085-.133.173-.265.261-.4l0,0q-.131.2-.26.4a21.076,21.076,0,0,0-1.733,3.221c-.126.28-.226.572-.333.861-.028.072-.051.146-.073.22l-.068.222-.068.221c-.024.073-.039.15-.058.225a8.027,8.027,0,0,0-.273,1.838,5.393,5.393,0,0,0,.25,1.836c.016.051.035.1.053.151l-.005.007c-.018-.051-.038-.1-.055-.155A5.4,5.4,0,0,1,3282.449,2026.609Zm6.264,5.224a4.876,4.876,0,0,0,1.348-.671c.072-.052.142-.107.213-.164a3.8,3.8,0,0,1-.112.6,6.068,6.068,0,0,1-.465,1.117c-.049.091-.105.18-.157.27s-.1.182-.164.269l-.177.263c-.03.044-.058.088-.089.131l-.1.127c-.13.169-.253.342-.395.5s-.269.323-.423.5q-.45.523-.864,1.075a17.764,17.764,0,0,0-1.84,3.034c-.335-.569-.669-1.178-.986-1.832l-.219-.461c-.038-.077-.073-.156-.106-.236l-.1-.24c-.144-.318-.262-.652-.39-.988a11.435,11.435,0,0,1-.534-2.12,7.329,7.329,0,0,1-.073-1.1c0-.091.012-.18.017-.271a2.168,2.168,0,0,1,.026-.269q.018-.132.038-.266c.018-.087.04-.172.059-.258.01-.043.018-.087.031-.129l.018-.055.071.069a4.73,4.73,0,0,0,1.2.823,5.476,5.476,0,0,0,1.35.442A5.727,5.727,0,0,0,3288.713,2031.833Zm1.29-1.6a3.667,3.667,0,0,1-.721.509c-.125.076-.261.128-.392.191-.067.027-.135.051-.2.077s-.135.051-.205.07a5.079,5.079,0,0,1-1.7.223,4.978,4.978,0,0,1-1.684-.347,4.182,4.182,0,0,1-1.461-.964c-.018-.019-.036-.039-.054-.059l0-.006.055.06a4.158,4.158,0,0,0,1.459.961,4.967,4.967,0,0,0,1.682.347,5.071,5.071,0,0,0,1.7-.223,2.007,2.007,0,0,0,.205-.07c.067-.026.136-.049.2-.077.131-.063.267-.115.392-.191a3.593,3.593,0,0,0,.718-.507c.068-.061.131-.126.193-.193l0,.009C3290.133,2030.111,3290.07,2030.176,3290,2030.235Zm-.182-.9a3.145,3.145,0,0,1-1.52.976,4.567,4.567,0,0,1-2.164.128,3.813,3.813,0,0,1-1.884-.877,3.19,3.19,0,0,1-.229-.227c.073-.079.148-.155.229-.227a3.816,3.816,0,0,1,1.884-.877,4.573,4.573,0,0,1,2.164.129A3.148,3.148,0,0,1,3289.821,2029.333Zm-6.7.007,0-.007,0-.006,0,.006Zm7.563,0,0-.01,0-.009,0,.009Zm-.492-.712c-.062-.067-.125-.132-.193-.193a3.623,3.623,0,0,0-.718-.507c-.125-.076-.261-.128-.392-.191-.067-.027-.135-.051-.2-.077a2.005,2.005,0,0,0-.205-.069,5.078,5.078,0,0,0-1.7-.223,4.956,4.956,0,0,0-1.682.347,4.165,4.165,0,0,0-1.459.961l-.055.06,0-.007.054-.059a4.175,4.175,0,0,1,1.461-.963,4.978,4.978,0,0,1,1.684-.347,5.1,5.1,0,0,1,1.7.223c.07.019.137.044.205.07s.137.05.2.077c.131.063.267.115.392.191a3.666,3.666,0,0,1,.721.508c.066.06.129.125.191.191A.035.035,0,0,1,3290.191,2028.63Zm-.129-1.125a4.884,4.884,0,0,0-1.348-.672,5.732,5.732,0,0,0-2.82-.166,5.486,5.486,0,0,0-1.35.441,4.751,4.751,0,0,0-1.2.823l-.071.068-.018-.055c-.013-.041-.021-.086-.031-.128-.019-.086-.042-.171-.059-.258s-.025-.178-.038-.266a2.169,2.169,0,0,1-.026-.269c0-.091-.014-.18-.017-.271a7.327,7.327,0,0,1,.073-1.1,11.428,11.428,0,0,1,.534-2.12c.127-.335.246-.67.39-.987l.1-.24c.033-.079.068-.159.106-.236l.219-.461c.318-.654.652-1.263.986-1.833a17.785,17.785,0,0,0,1.84,3.034q.412.553.864,1.075c.154.181.285.339.423.5s.265.334.395.5l.1.127c.031.043.059.088.089.131l.177.263c.062.086.11.178.164.268s.108.179.157.271a6.057,6.057,0,0,1,.465,1.117,3.79,3.79,0,0,1,.112.6C3290.2,2027.612,3290.133,2027.556,3290.062,2027.5Zm-5,11.364a20.994,20.994,0,0,1-1.735-3.222c-.126-.28-.226-.572-.333-.861-.028-.072-.05-.146-.073-.22l-.068-.221-.068-.221c-.024-.074-.038-.151-.058-.225a7.988,7.988,0,0,1-.274-1.84,5.4,5.4,0,0,1,.25-1.838c.017-.053.036-.1.055-.155l.005.007c-.019.05-.037.1-.053.151a5.392,5.392,0,0,0-.25,1.835,8.035,8.035,0,0,0,.273,1.839c.02.074.034.151.058.225l.068.222.068.221c.022.074.045.148.073.22.107.289.207.581.333.861a21.085,21.085,0,0,0,1.733,3.221c.086.133.173.264.26.4l0,0Q3285.187,2039.067,3285.058,2038.868Zm.573.854,0-.007,0,0,0,.006Zm5.181-7.9a6.529,6.529,0,0,1-.791,1.653l-.06.1c-.021.032-.043.062-.065.094l-.131.185-.131.186c-.044.062-.093.119-.139.178l-.281.354-.3.338a20.346,20.346,0,0,0-2.219,2.849,16.946,16.946,0,0,0-.909,1.626l0-.008a16.642,16.642,0,0,1,.907-1.623,20.351,20.351,0,0,1,2.218-2.851l.3-.338.281-.353c.046-.06.095-.117.139-.178l.131-.185.13-.185c.022-.031.044-.061.064-.094l.06-.1a6.5,6.5,0,0,0,.789-1.651,3.871,3.871,0,0,0,.152-1.535l.008-.011A3.894,3.894,0,0,1,3290.813,2031.823Zm-4.112-10.914a20.315,20.315,0,0,0,2.219,2.849l.3.338.281.354c.047.06.1.117.139.178l.131.186.131.185c.021.031.044.062.065.094l.06.1a6.54,6.54,0,0,1,.791,1.654,3.893,3.893,0,0,1,.153,1.548l-.008-.011a3.871,3.871,0,0,0-.152-1.535,6.514,6.514,0,0,0-.789-1.651l-.06-.1c-.021-.032-.043-.062-.064-.093l-.13-.186-.131-.185c-.044-.061-.093-.118-.139-.178l-.281-.353-.3-.338a20.309,20.309,0,0,1-2.218-2.851,16.638,16.638,0,0,1-.907-1.623l0-.008A16.883,16.883,0,0,0,3286.7,2020.909Zm-1.067-1.961,0,.007,0,0,0-.007Z" transform="translate(-3281.809 -2000.236)" fill="#575656"/>
        <path id="パス_2962" data-name="パス 2962" d="M3334.185,2426.764l.056.075Z" transform="translate(-3327.533 -2368.981)" fill="#575656"/>
        <path id="パス_2963" data-name="パス 2963" d="M3333.516,2425.9c-.033-.045-.065-.09-.1-.135l.019.028Z" transform="translate(-3326.864 -2368.118)" fill="#575656"/>
      </g>
      <path id="パス_2964" data-name="パス 2964" d="M2972.058,2037.039v-61.948a.463.463,0,1,0-.922,0v61.4a.049.049,0,0,1-.047.051h-56.532a.5.5,0,0,0,0,1h57.04A.483.483,0,0,0,2972.058,2037.039Z" transform="translate(-2914.096 -1974.59)" fill="#575656"/>
    </g>
  </g>
  <text id="ヘアスタイルは花嫁にとって一番重要です_輪郭やヘアカラーの色により_似合う髪形はそれぞれ_Milfeliceからお好みに合わせて_様々なヘアスタイルを提案させていただきます_美容師の視点から_髪の悩みや普段のお手入れなどもアドバイスできたらと思います_" data-name="ヘアスタイルは花嫁にとって一番重要です。
輪郭やヘアカラーの色により、似合う髪形はそれぞれ。Milfeliceからお好みに合わせて、様々なヘアスタイルを提案させていただきます。美容師の視点から、髪の悩みや普段のお手入れなどもアドバイスできたらと思います。" transform="translate(56 102)" fill="#3a3a3a" font-size="16" font-family="YuGo-Medium, YuGothic" font-weight="500" letter-spacing="0.03em"><tspan x="0" y="14">ヘアスタイルは花嫁にとって一番重要です。</tspan><tspan x="0" y="42.8">輪郭やヘアカラーの色により、似合う髪形はそれぞれ。</tspan><tspan x="0" y="71.6">Milfeliceからお好みに合わせて、様々なヘアスタイルを提案さ</tspan><tspan x="0" y="100.4">せていただきます。美容師の視点から、髪の悩みや普段のお手入</tspan><tspan x="0" y="129.2">れなどもアドバイスできたらと思います。</tspan></text>
  <text id="自分に似合う髪形がわからない" transform="translate(56 47)" fill="#575656" font-size="22" font-family="YuGo-Bold, YuGothic" font-weight="700" letter-spacing="0.03em"><tspan x="0" y="19">自分に似合う髪形がわからない</tspan></text>
</svg>
