<svg xmlns="http://www.w3.org/2000/svg" width="345.03" height="230.462" viewBox="0 0 345.03 230.462">
  <g id="グループ_1616" data-name="グループ 1616">
    <g id="グループ_583" data-name="グループ 583" transform="translate(0.642 148.477)">
      <g id="グループ_578" data-name="グループ 578" transform="translate(297.186)">
        <g id="グループ_577" data-name="グループ 577">
          <path id="パス_2909" data-name="パス 2909" d="M2878.953,1887.688v67.905h-42.36v-1.018h38.932c1.542,0,2.792-2.005,2.792-4.478v-62.409Z" transform="translate(-2831.751 -1875.564)" fill="#575656"/>
          <g id="グループ_575" data-name="グループ 575" transform="translate(46.567)">
            <rect id="長方形_133" data-name="長方形 133" width="0.635" height="8.678" fill="#575656"/>
          </g>
          <g id="グループ_576" data-name="グループ 576" transform="translate(0 79.01)">
            <rect id="長方形_134" data-name="長方形 134" width="3.139" height="1.019" fill="#575656"/>
          </g>
        </g>
      </g>
      <g id="グループ_582" data-name="グループ 582">
        <g id="グループ_581" data-name="グループ 581">
          <path id="パス_2910" data-name="パス 2910" d="M611.051,1887.688v67.905h42.36v-1.018H614.479c-1.542,0-2.793-2.005-2.793-4.478v-62.409Z" transform="translate(-611.051 -1875.564)" fill="#575656"/>
          <g id="グループ_579" data-name="グループ 579" transform="translate(0)">
            <rect id="長方形_135" data-name="長方形 135" width="0.635" height="8.678" fill="#575656"/>
          </g>
          <g id="グループ_580" data-name="グループ 580" transform="translate(44.064 79.01)">
            <rect id="長方形_136" data-name="長方形 136" width="3.139" height="1.019" fill="#575656"/>
          </g>
        </g>
      </g>
    </g>
    <g id="グループ_592" data-name="グループ 592" transform="translate(0.642 0.831)">
      <g id="グループ_587" data-name="グループ 587" transform="translate(297.186)">
        <g id="グループ_586" data-name="グループ 586">
          <path id="パス_2911" data-name="パス 2911" d="M2878.953,597.935V530.03h-42.36v1.019h38.932c1.542,0,2.792,2,2.792,4.477v62.41Z" transform="translate(-2831.751 -530.03)" fill="#575656"/>
          <g id="グループ_584" data-name="グループ 584" transform="translate(46.567 71.351)">
            <rect id="長方形_137" data-name="長方形 137" width="0.635" height="8.678" fill="#575656"/>
          </g>
          <g id="グループ_585" data-name="グループ 585" transform="translate(0 0)">
            <rect id="長方形_138" data-name="長方形 138" width="3.139" height="1.019" fill="#575656"/>
          </g>
        </g>
      </g>
      <g id="グループ_591" data-name="グループ 591">
        <g id="グループ_590" data-name="グループ 590">
          <path id="パス_2912" data-name="パス 2912" d="M611.051,597.935V530.03h42.36v1.019H614.479c-1.542,0-2.793,2-2.793,4.477v62.41Z" transform="translate(-611.051 -530.03)" fill="#575656"/>
          <g id="グループ_588" data-name="グループ 588" transform="translate(0 71.351)">
            <rect id="長方形_139" data-name="長方形 139" width="0.635" height="8.678" fill="#575656"/>
          </g>
          <g id="グループ_589" data-name="グループ 589" transform="translate(44.064 0)">
            <rect id="長方形_140" data-name="長方形 140" width="3.139" height="1.019" fill="#575656"/>
          </g>
        </g>
      </g>
    </g>
    <g id="グループ_610" data-name="グループ 610" transform="translate(0 84.311)">
      <rect id="長方形_142" data-name="長方形 142" width="0.642" height="60.741" transform="translate(0 0)" fill="#575656"/>
    </g>
    <g id="グループ_612" data-name="グループ 612" transform="translate(55.268 227.487)">
      <rect id="長方形_144" data-name="長方形 144" width="237.909" height="1.019" transform="translate(0)" fill="#575656"/>
    </g>
    <rect id="長方形_7" data-name="長方形 7" width="343.999" height="230.462" transform="translate(0.704 0)" fill="none"/>
    <rect id="長方形_143" data-name="長方形 143" width="257.642" height="1.019" transform="translate(35.535 0.831)" fill="#575656"/>
    <g id="グループ_595" data-name="グループ 595" transform="translate(4.349 4.972)">
      <path id="パス_2913" data-name="パス 2913" d="M855.175,659.8a11.426,11.426,0,0,1,1.237,4.525c0,.033.02.046.034.04s.031-.007.034-.04a11.3,11.3,0,0,1,1.271-4.58,1.014,1.014,0,0,0,.029-.892l-.028-.06a.868.868,0,0,0-.462-.5,2.086,2.086,0,0,1-.475-.24.639.639,0,0,0-.692-.017,2.9,2.9,0,0,1-.527.26.871.871,0,0,0-.457.5l0,.009A1.169,1.169,0,0,0,855.175,659.8Z" transform="translate(-833.92 -647.651)" fill="#575656"/>
      <g id="グループ_593" data-name="グループ 593" transform="translate(1.003 1.245)">
        <path id="パス_2914" data-name="パス 2914" d="M661.018,602.869l-.1-.088.081.071Z" transform="translate(-660.613 -599.896)" fill="#575656"/>
        <path id="パス_2915" data-name="パス 2915" d="M660.372,602.338l.056.05Z" transform="translate(-660.124 -599.502)" fill="#575656"/>
        <path id="パス_2916" data-name="パス 2916" d="M659.039,580.519q.568.44,1.166.829a15.715,15.715,0,0,0,2.491,1.33,12.419,12.419,0,0,0,2.667.794,9.97,9.97,0,0,0,2.756.1,9.28,9.28,0,0,0,2.685-.7c.252-.105.5-.223.742-.35l0,0c-.244.128-.492.245-.745.351a9.3,9.3,0,0,1-2.686.7,9.981,9.981,0,0,1-2.757-.1,12.4,12.4,0,0,1-2.667-.8,15.776,15.776,0,0,1-2.491-1.332q-.6-.389-1.165-.83c-.293-.228-.58-.464-.857-.716l.009.008q-.126-.113-.248-.231l.026.025c.049.047.168.161.357.328.254.224.634.544,1.136.92a18.373,18.373,0,0,0,1.883,1.235,14.774,14.774,0,0,0,2.635,1.192,11.613,11.613,0,0,0,1.593.415,10.281,10.281,0,0,0,1.753.177,9.658,9.658,0,0,0,1.866-.155,9.977,9.977,0,0,0,1.9-.554c.257-.1.512-.22.764-.347a17.59,17.59,0,0,0,1.544,1.272l.34.241c.057.042.116.081.176.118l.18.115c.238.16.5.3.755.445a7.63,7.63,0,0,0,1.728.673,5.044,5.044,0,0,0,.982.141c.085,0,.171,0,.258,0a1.894,1.894,0,0,0,.26-.015l.264-.032c.088-.016.176-.039.265-.058a1.261,1.261,0,0,1,1.738,0c.089.02.177.042.265.058l.263.032a1.9,1.9,0,0,0,.261.015c.086,0,.173.005.258,0a5.051,5.051,0,0,0,.983-.141,7.636,7.636,0,0,0,1.728-.673c.259-.147.517-.285.755-.445l.18-.115c.06-.038.119-.076.176-.118l.34-.241a17.445,17.445,0,0,0,1.543-1.272c.253.127.507.243.764.347a9.975,9.975,0,0,0,1.9.554,9.658,9.658,0,0,0,1.866.155,10.278,10.278,0,0,0,1.753-.177,11.6,11.6,0,0,0,1.593-.415,14.759,14.759,0,0,0,2.635-1.192,18.285,18.285,0,0,0,1.883-1.235c.5-.376.883-.7,1.137-.92.188-.166.307-.28.357-.328l.026-.025c-.081.079-.164.155-.248.231l.009-.008c-.277.252-.564.488-.857.716q-.567.441-1.165.83a15.8,15.8,0,0,1-2.491,1.332,12.406,12.406,0,0,1-2.667.8,9.985,9.985,0,0,1-2.757.1,9.307,9.307,0,0,1-2.686-.7c-.253-.106-.5-.224-.745-.351l0,0c.243.127.49.245.742.35a9.279,9.279,0,0,0,2.685.7,9.97,9.97,0,0,0,2.756-.1,12.417,12.417,0,0,0,2.667-.794,15.728,15.728,0,0,0,2.491-1.33q.6-.388,1.166-.829c.235-.183.466-.373.692-.57-.256.221-.631.529-1.129.882a15.717,15.717,0,0,1-1.912,1.16,13.349,13.349,0,0,1-2.654,1.033,10.377,10.377,0,0,1-3.275.355,9.254,9.254,0,0,1-1.766-.274,9.643,9.643,0,0,1-1.757-.648c-.139-.068-.277-.139-.413-.213l.121-.12.235-.232.221-.232.417-.438c.259-.289.5-.551.712-.793l.562-.65.409-.486c.223-.263.345-.4.345-.4l-.494.539-.247.27-.253.263c-.169.175-.336.352-.507.524L688.7,581c-.4.384-.8.759-1.22,1.121l0,0c.416-.361.822-.736,1.221-1.12l.518-.511c.171-.172.338-.35.507-.524l.253-.263.247-.269.494-.539s-.124.134-.365.377c-.121.12-.269.27-.446.442l-.619.578c-.234.214-.5.441-.784.693l-.455.378-.24.2-.253.2-.3.233a12.64,12.64,0,0,1-2.367-1.894q-.367-.37-.714-.769l-.371-.415c-.124-.144-.263-.276-.4-.412l-.1-.1c-.034-.034-.071-.065-.107-.1l-.216-.192c-.07-.066-.15-.123-.226-.183s-.152-.12-.232-.177a5.128,5.128,0,0,0-1.041-.573,2.95,2.95,0,0,0-1.232-.2,1.7,1.7,0,0,1-1.557,0,2.948,2.948,0,0,0-1.232.2,5.143,5.143,0,0,0-1.042.573c-.08.057-.154.118-.232.177s-.156.117-.226.183l-.216.192c-.036.032-.073.063-.107.1l-.1.1c-.135.136-.273.268-.4.412l-.371.415c-.231.267-.47.523-.715.769a12.628,12.628,0,0,1-2.366,1.894l-.3-.233-.253-.2-.24-.2-.455-.378c-.285-.252-.55-.479-.784-.693l-.619-.578c-.178-.171-.325-.321-.446-.442-.241-.243-.365-.377-.365-.377l.495.539.247.269.253.263c.169.174.336.352.507.524l.518.511c.4.384.805.759,1.221,1.12l0,0c-.415-.361-.821-.736-1.22-1.121l-.518-.511c-.171-.172-.338-.35-.507-.524l-.253-.263-.247-.27-.494-.539s.123.136.346.4l.409.486.562.65c.212.243.453.5.712.793l.417.438.221.232.235.232.121.12c-.137.074-.275.146-.414.213a9.632,9.632,0,0,1-1.757.648,9.248,9.248,0,0,1-1.766.274,10.377,10.377,0,0,1-3.275-.355,13.364,13.364,0,0,1-2.654-1.033,15.751,15.751,0,0,1-1.912-1.16c-.5-.353-.873-.661-1.129-.882Q658.686,580.245,659.039,580.519Zm18.42,4.731A4.977,4.977,0,0,1,676.1,585c-.055-.018-.112-.031-.167-.052l-.164-.061-.164-.061c-.055-.02-.11-.041-.163-.065-.214-.1-.43-.186-.637-.3a14.942,14.942,0,0,1-2.384-1.555q-.147-.116-.293-.234l0,0q.145.118.292.233a14.963,14.963,0,0,0,2.384,1.554c.208.113.424.2.638.3.053.025.107.045.162.065l.164.061.164.061c.054.021.111.034.166.052a4.961,4.961,0,0,0,1.361.245,3.35,3.35,0,0,0,1.358-.224c.038-.015.074-.032.112-.048l0,0c-.038.017-.076.034-.115.049A3.347,3.347,0,0,1,677.459,585.25Zm3.866-5.614a4.8,4.8,0,0,0-.5-1.208c-.038-.065-.079-.128-.121-.191a2.313,2.313,0,0,1,.442.1,4.1,4.1,0,0,1,.827.417c.068.044.133.095.2.141s.135.092.2.147l.194.158c.032.027.065.052.1.08l.094.086c.125.116.253.227.372.353s.239.241.372.379q.386.4.8.775a12.965,12.965,0,0,0,2.245,1.649c-.421.3-.872.6-1.356.884l-.341.2c-.057.034-.115.065-.174.094l-.177.092c-.236.128-.483.234-.731.35a7.305,7.305,0,0,1-1.569.478,4.473,4.473,0,0,1-.812.065c-.067,0-.133-.01-.2-.014a1.354,1.354,0,0,1-.2-.023l-.2-.034c-.064-.016-.127-.036-.191-.053-.032-.009-.065-.016-.1-.028l-.041-.017.051-.063a4.361,4.361,0,0,0,.609-1.076,5.655,5.655,0,0,0,.327-1.209A6.181,6.181,0,0,0,681.326,579.636Zm-1.182-1.156a3.374,3.374,0,0,1,.376.645c.056.112.095.234.141.352.021.06.038.121.057.182s.038.121.052.184a5.489,5.489,0,0,1,.165,1.526,5.291,5.291,0,0,1-.257,1.509,3.888,3.888,0,0,1-.713,1.31l-.044.048,0,0,.044-.049a3.879,3.879,0,0,0,.711-1.308,5.278,5.278,0,0,0,.257-1.507,5.469,5.469,0,0,0-.165-1.523c-.013-.062-.033-.123-.052-.183s-.036-.122-.057-.182c-.047-.117-.085-.239-.141-.351a3.335,3.335,0,0,0-.375-.644c-.045-.061-.093-.117-.143-.173l.007,0C680.051,578.363,680.1,578.419,680.143,578.479Zm-.668.163A2.934,2.934,0,0,1,680.2,580a4.924,4.924,0,0,1,.1,1.939,3.776,3.776,0,0,1-.649,1.689c-.053.072-.11.14-.168.2-.058-.065-.115-.132-.168-.2a3.773,3.773,0,0,1-.649-1.689,4.92,4.92,0,0,1,.1-1.939A2.935,2.935,0,0,1,679.475,578.643Zm0,6.006,0,0,0,0,0,0Zm0-6.778-.007,0-.007,0,.007,0Zm-.527.441c-.05.055-.1.112-.143.173a3.341,3.341,0,0,0-.375.644c-.056.112-.095.234-.141.351-.02.06-.038.121-.057.182s-.038.121-.052.183a5.469,5.469,0,0,0-.165,1.523,5.276,5.276,0,0,0,.257,1.507,3.879,3.879,0,0,0,.711,1.308l.044.049,0,0-.043-.048a3.883,3.883,0,0,1-.713-1.31,5.3,5.3,0,0,1-.257-1.509,5.48,5.48,0,0,1,.165-1.526c.014-.062.033-.123.052-.184s.036-.122.057-.182c.047-.118.085-.24.142-.352a3.339,3.339,0,0,1,.376-.645c.044-.06.092-.117.141-.171Zm-.833.116a4.789,4.789,0,0,0-.5,1.208,6.184,6.184,0,0,0-.123,2.528,5.694,5.694,0,0,0,.327,1.209,4.376,4.376,0,0,0,.609,1.076l.051.063-.041.017c-.03.012-.063.018-.095.028-.064.017-.127.037-.191.053l-.2.034a1.356,1.356,0,0,1-.2.023c-.067,0-.134.013-.2.014a4.47,4.47,0,0,1-.812-.065,7.3,7.3,0,0,1-1.569-.478c-.248-.115-.5-.221-.731-.35l-.177-.092c-.059-.03-.118-.06-.175-.094l-.341-.2c-.484-.285-.935-.584-1.356-.884a12.962,12.962,0,0,0,2.246-1.649q.409-.369.8-.775c.134-.138.25-.255.372-.379s.247-.237.372-.353l.094-.086c.032-.028.065-.053.1-.08l.194-.158c.064-.056.132-.1.2-.147s.133-.1.2-.141a4.086,4.086,0,0,1,.827-.417,2.317,2.317,0,0,1,.442-.1C678.2,578.3,678.161,578.363,678.122,578.427Zm8.409,4.485a14.939,14.939,0,0,1-2.384,1.555c-.207.113-.423.2-.637.3-.053.025-.108.045-.163.065l-.164.061-.164.061c-.054.021-.111.034-.166.052a4.975,4.975,0,0,1-1.362.245,3.346,3.346,0,0,1-1.36-.224c-.039-.015-.077-.032-.115-.049l0,0c.037.017.074.033.112.048a3.349,3.349,0,0,0,1.358.224,4.96,4.96,0,0,0,1.361-.245c.055-.018.112-.031.166-.052l.164-.061.164-.061c.055-.02.109-.04.163-.065.214-.1.43-.185.637-.3a14.938,14.938,0,0,0,2.384-1.554q.147-.115.293-.233l0,0Q686.68,582.8,686.532,582.912Zm.632-.514-.005,0h0l.005,0Zm-5.846-4.643a4.51,4.51,0,0,1,1.224.709l.072.054c.023.019.046.039.069.058l.138.117.137.117c.046.04.088.083.132.125l.262.252.25.266a15.85,15.85,0,0,0,2.109,1.988,12.141,12.141,0,0,0,1.2.815l-.005,0a12.025,12.025,0,0,1-1.2-.813,15.82,15.82,0,0,1-2.11-1.988l-.25-.266-.262-.252c-.044-.041-.086-.085-.132-.125l-.137-.117-.137-.117c-.023-.019-.046-.04-.069-.058l-.072-.054a4.534,4.534,0,0,0-1.222-.708,2.412,2.412,0,0,0-1.136-.136l-.009-.007A2.4,2.4,0,0,1,681.318,577.754Zm-8.076,3.685a15.9,15.9,0,0,0,2.108-1.988l.25-.266.262-.252c.044-.041.087-.085.132-.125l.137-.117.138-.117c.023-.02.045-.04.068-.058l.072-.054a4.514,4.514,0,0,1,1.223-.709,2.4,2.4,0,0,1,1.146-.137l-.008.007a2.412,2.412,0,0,0-1.136.136,4.536,4.536,0,0,0-1.222.708l-.072.054c-.024.018-.046.039-.069.058l-.137.117-.137.117c-.046.04-.088.083-.132.125l-.262.252-.25.266a15.825,15.825,0,0,1-2.11,1.988,12.025,12.025,0,0,1-1.2.813l-.005,0A12.166,12.166,0,0,0,673.242,581.439Zm-1.451.956,0,0h0l0,0Z" transform="translate(-657.943 -576.976)" fill="#575656"/>
        <path id="パス_2917" data-name="パス 2917" d="M1076.859,602.389l.055-.049Z" transform="translate(-1034.098 -599.504)" fill="#575656"/>
        <path id="パス_2918" data-name="パス 2918" d="M1075.978,602.785l-.1.088.02-.017Z" transform="translate(-1033.217 -599.9)" fill="#575656"/>
      </g>
      <path id="パス_2919" data-name="パス 2919" d="M740.24,778.99a8.73,8.73,0,0,1,4.057-1.38c.03,0,.041-.022.036-.038s-.006-.035-.036-.038a8.652,8.652,0,0,1-4.107-1.417.752.752,0,0,0-.8-.033l-.054.031a.886.886,0,0,0-.446.516,2.566,2.566,0,0,1-.216.53.86.86,0,0,0-.015.772,3.664,3.664,0,0,1,.232.588.89.89,0,0,0,.444.509l.008,0A.867.867,0,0,0,740.24,778.99Z" transform="translate(-729.342 -752.491)" fill="#575656"/>
      <g id="グループ_594" data-name="グループ 594" transform="translate(1.116 1.058)">
        <path id="パス_2920" data-name="パス 2920" d="M684.475,1000.828l-.079.113.063-.09Z" transform="translate(-681.809 -953.253)" fill="#575656"/>
        <path id="パス_2921" data-name="パス 2921" d="M683.958,1001.9l.045-.062Z" transform="translate(-681.415 -954.147)" fill="#575656"/>
        <path id="パス_2922" data-name="パス 2922" d="M662.226,622.106q.395-.633.743-1.3a19.356,19.356,0,0,0,1.193-2.778,16.464,16.464,0,0,0,.712-2.974,13.784,13.784,0,0,0,.091-3.074,12.814,12.814,0,0,0-.221-1.521,12.43,12.43,0,0,0-.4-1.473c-.094-.281-.2-.556-.314-.828l0-.005c.114.273.22.549.315.831a12.579,12.579,0,0,1,.4,1.474,12.956,12.956,0,0,1,.22,1.522,13.778,13.778,0,0,1-.092,3.075,16.415,16.415,0,0,1-.713,2.974,19.274,19.274,0,0,1-1.194,2.778q-.349.666-.744,1.3c-.2.326-.417.647-.642.956l.007-.01c-.068.093-.136.186-.207.277l.023-.029c.043-.055.145-.188.294-.4.2-.283.488-.706.825-1.267a21.328,21.328,0,0,0,1.108-2.1A18.637,18.637,0,0,0,664.7,616.6a15.425,15.425,0,0,0,.372-1.776,14.1,14.1,0,0,0,.159-1.955,13.046,13.046,0,0,0-.635-4.2q-.14-.43-.311-.852a19.347,19.347,0,0,0,1.141-1.721l.217-.379c.037-.064.072-.129.106-.2l.1-.2c.144-.265.267-.553.4-.841a9.854,9.854,0,0,0,.6-1.927,6.947,6.947,0,0,0,.126-1.1c0-.095,0-.191,0-.287a2.631,2.631,0,0,0-.014-.291q-.014-.146-.029-.294c-.015-.1-.034-.2-.052-.3a1.663,1.663,0,0,1,0-1.938c.018-.1.037-.2.052-.3s.019-.2.029-.294a2.622,2.622,0,0,0,.014-.291c0-.1,0-.192,0-.287a6.95,6.95,0,0,0-.126-1.1,9.85,9.85,0,0,0-.6-1.927c-.132-.289-.256-.576-.4-.842l-.1-.2c-.034-.067-.069-.133-.106-.2l-.217-.379a19.32,19.32,0,0,0-1.141-1.721q.17-.423.311-.852a13.051,13.051,0,0,0,.635-4.2,14.105,14.105,0,0,0-.159-1.955,15.435,15.435,0,0,0-.372-1.776,18.609,18.609,0,0,0-1.069-2.938,21.32,21.32,0,0,0-1.108-2.1c-.337-.561-.624-.984-.825-1.267-.149-.21-.251-.343-.294-.4l-.023-.029c.071.091.139.183.207.277l-.007-.01c.225.309.438.629.642.956q.4.632.744,1.3a19.269,19.269,0,0,1,1.194,2.778,16.41,16.41,0,0,1,.713,2.974,13.782,13.782,0,0,1,.092,3.075,12.946,12.946,0,0,1-.22,1.521,12.587,12.587,0,0,1-.4,1.474c-.095.281-.2.558-.315.83l0-.005c.114-.272.219-.547.314-.828a12.422,12.422,0,0,0,.4-1.473,12.809,12.809,0,0,0,.221-1.521,13.781,13.781,0,0,0-.091-3.073,16.462,16.462,0,0,0-.712-2.974,19.359,19.359,0,0,0-1.193-2.778q-.349-.666-.743-1.3-.246-.393-.511-.772c.2.285.474.7.791,1.259a18.686,18.686,0,0,1,1.041,2.132,17.278,17.278,0,0,1,.926,2.96,14.279,14.279,0,0,1,.319,3.653,12.325,12.325,0,0,1-.826,3.929q-.091.233-.191.461l-.108-.135-.208-.262-.208-.247-.393-.465c-.259-.289-.494-.558-.711-.794l-.583-.627-.436-.457c-.236-.248-.358-.385-.358-.385l.484.551.242.276.236.282c.157.188.316.375.47.565l.459.577q.517.666,1,1.36v0q-.486-.7-1.005-1.361l-.458-.577c-.155-.191-.314-.377-.47-.565l-.236-.282-.242-.276-.483-.552s.12.139.338.407c.108.134.242.3.4.5l.518.69c.191.261.4.557.621.875l.339.507.178.268.178.282q.1.163.208.333a14,14,0,0,1-1.7,2.639c-.221.273-.451.539-.689.8l-.372.413c-.129.138-.248.293-.37.444l-.091.113c-.03.039-.058.08-.087.12l-.172.241c-.059.078-.11.167-.164.251s-.108.17-.159.259a6.256,6.256,0,0,0-.514,1.162,4.031,4.031,0,0,0-.175,1.374,2.306,2.306,0,0,1,0,1.736,4.031,4.031,0,0,0,.175,1.374,6.255,6.255,0,0,0,.514,1.162c.051.089.106.173.159.259s.105.173.164.251l.172.241c.029.04.057.081.087.119l.091.113c.122.151.241.305.37.444l.372.413c.239.258.468.525.689.8a14.012,14.012,0,0,1,1.7,2.639c-.07.113-.14.224-.208.332l-.178.282-.178.268-.339.507c-.225.317-.43.614-.621.875l-.518.691c-.154.2-.288.363-.4.5-.217.269-.338.407-.338.407l.483-.551.242-.276.236-.282c.156-.189.315-.375.47-.566l.458-.577q.517-.667,1.005-1.361v0q-.487.694-1,1.36l-.459.577c-.155.191-.314.377-.47.565l-.236.282-.242.276-.484.551s.121-.137.358-.385l.436-.456.583-.627c.218-.236.452-.505.711-.8l.393-.464.208-.247.208-.262.108-.135q.1.229.191.461a12.323,12.323,0,0,1,.826,3.929,14.277,14.277,0,0,1-.319,3.652,17.264,17.264,0,0,1-.926,2.96,18.678,18.678,0,0,1-1.041,2.132c-.316.555-.592.974-.79,1.258Q661.98,622.5,662.226,622.106Zm4.242-20.542a6.751,6.751,0,0,1-.22,1.518c-.016.062-.027.125-.046.185l-.055.183-.055.183c-.018.061-.036.122-.058.181-.086.239-.167.48-.267.711a17.54,17.54,0,0,1-1.395,2.659c-.069.11-.139.219-.21.327v0q.105-.162.209-.326a17.508,17.508,0,0,0,1.393-2.658c.1-.231.182-.472.268-.711.023-.059.04-.12.058-.181l.055-.183.055-.183c.019-.06.031-.123.047-.185a6.755,6.755,0,0,0,.22-1.517,4.557,4.557,0,0,0-.2-1.515c-.013-.042-.028-.083-.043-.125l0-.005c.015.042.031.085.044.128A4.563,4.563,0,0,1,666.468,601.564Zm-5.034-4.311a3.886,3.886,0,0,0-1.083.554c-.058.043-.115.088-.171.136a3.171,3.171,0,0,1,.089-.492,5.117,5.117,0,0,1,.374-.922c.039-.075.085-.149.126-.223s.082-.15.132-.221l.142-.217c.024-.036.046-.073.072-.108l.078-.105c.1-.139.2-.282.316-.415s.216-.267.34-.416q.362-.431.695-.887a14.723,14.723,0,0,0,1.478-2.5c.269.47.538.973.793,1.512l.176.38c.03.063.058.129.085.195l.082.2c.115.263.21.538.313.815a9.671,9.671,0,0,1,.429,1.75,6.157,6.157,0,0,1,.058.905c0,.075-.009.149-.013.223a1.88,1.88,0,0,1-.02.222c-.01.073-.02.146-.03.219s-.032.142-.048.214c-.008.035-.014.072-.025.106l-.015.046-.057-.057a3.793,3.793,0,0,0-.965-.679,4.319,4.319,0,0,0-1.085-.365A4.488,4.488,0,0,0,661.433,597.252ZM660.4,598.57a2.931,2.931,0,0,1,.579-.42c.1-.063.21-.106.315-.158.054-.023.109-.042.163-.063a1.726,1.726,0,0,1,.165-.058,4,4,0,0,1,1.368-.184,3.906,3.906,0,0,1,1.354.287,3.36,3.36,0,0,1,1.174.795c.015.016.029.033.043.049l0,.005c-.015-.016-.029-.034-.045-.049a3.337,3.337,0,0,0-1.172-.793,3.9,3.9,0,0,0-1.351-.287,3.992,3.992,0,0,0-1.366.185,1.565,1.565,0,0,0-.165.057c-.054.021-.109.041-.163.064a3.455,3.455,0,0,0-.315.158,2.914,2.914,0,0,0-.577.419c-.055.05-.105.1-.155.16l0-.008C660.293,598.673,660.343,598.62,660.4,598.57Zm.146.745a2.519,2.519,0,0,1,1.221-.8,3.575,3.575,0,0,1,1.739-.106,3.029,3.029,0,0,1,1.515.724,2.6,2.6,0,0,1,.184.187c-.058.065-.119.128-.184.187a3.03,3.03,0,0,1-1.515.724,3.584,3.584,0,0,1-1.739-.106A2.528,2.528,0,0,1,660.543,599.315Zm5.386-.006,0,.006,0,.005,0-.005Zm-6.078,0,0,.008,0,.008,0-.008Zm.4.587a2.19,2.19,0,0,0,.155.16,2.935,2.935,0,0,0,.577.419c.1.063.21.106.315.158.054.023.109.042.163.064a1.684,1.684,0,0,0,.165.057,4,4,0,0,0,1.366.184,3.9,3.9,0,0,0,1.351-.286,3.345,3.345,0,0,0,1.172-.794c.015-.016.03-.033.045-.05l0,.006-.043.049a3.354,3.354,0,0,1-1.174.8,3.915,3.915,0,0,1-1.354.287,4,4,0,0,1-1.368-.184,1.613,1.613,0,0,1-.165-.058c-.054-.021-.109-.041-.163-.063-.105-.052-.214-.1-.315-.158a2.942,2.942,0,0,1-.579-.42,2.188,2.188,0,0,1-.153-.158Zm.1.929a3.894,3.894,0,0,0,1.083.554,4.491,4.491,0,0,0,2.267.137,4.333,4.333,0,0,0,1.085-.364,3.806,3.806,0,0,0,.965-.679l.057-.057.015.045c.011.034.016.071.025.106.016.071.034.141.048.213s.02.147.03.219a1.872,1.872,0,0,1,.02.222c0,.075.011.149.013.223a6.155,6.155,0,0,1-.058.905,9.656,9.656,0,0,1-.429,1.75c-.1.277-.2.552-.313.815l-.082.2c-.026.066-.054.131-.085.195l-.176.38c-.255.54-.524,1.043-.793,1.512a14.742,14.742,0,0,0-1.478-2.5q-.332-.456-.695-.887c-.124-.149-.229-.28-.34-.415s-.213-.276-.316-.415l-.078-.105c-.026-.036-.048-.073-.072-.108l-.142-.217c-.05-.071-.088-.147-.132-.221s-.087-.148-.126-.223a5.136,5.136,0,0,1-.374-.922,3.18,3.18,0,0,1-.089-.492C660.236,600.736,660.293,600.781,660.35,600.824Zm4.021-9.378a17.523,17.523,0,0,1,1.395,2.659c.1.231.181.472.267.711.022.059.041.121.058.181l.055.183.055.183c.019.061.031.124.046.186a6.746,6.746,0,0,1,.22,1.519,4.56,4.56,0,0,1-.2,1.517c-.013.043-.029.085-.044.128l0-.005c.015-.041.03-.083.043-.125a4.556,4.556,0,0,0,.2-1.515,6.753,6.753,0,0,0-.22-1.517c-.016-.062-.028-.125-.047-.186l-.055-.183-.055-.183c-.018-.061-.036-.122-.058-.181-.086-.239-.166-.48-.268-.711a17.487,17.487,0,0,0-1.393-2.659q-.1-.164-.209-.326v0Q664.268,591.281,664.371,591.446Zm-.461-.7,0,.006,0,0,0-.006Zm-4.164,6.519a5.447,5.447,0,0,1,.635-1.364l.048-.08c.017-.026.035-.051.052-.077l.105-.153.105-.153c.035-.051.074-.1.112-.147l.226-.292.239-.279a16.712,16.712,0,0,0,1.783-2.352,14.07,14.07,0,0,0,.73-1.342l0,.006a14.138,14.138,0,0,1-.729,1.34,16.758,16.758,0,0,1-1.783,2.352l-.239.279-.226.292c-.037.049-.076.1-.112.147l-.1.153-.105.153c-.017.026-.035.051-.052.077l-.048.08a5.446,5.446,0,0,0-.635,1.363,3.283,3.283,0,0,0-.122,1.267l-.007.009A3.3,3.3,0,0,1,659.746,597.26Zm3.3,9.007a16.691,16.691,0,0,0-1.783-2.351l-.239-.279-.226-.292c-.037-.049-.076-.1-.112-.147l-.105-.153-.105-.153c-.017-.026-.035-.05-.052-.077l-.048-.08a5.446,5.446,0,0,1-.635-1.365,3.3,3.3,0,0,1-.123-1.278l.007.009a3.284,3.284,0,0,0,.122,1.267,5.461,5.461,0,0,0,.635,1.363l.048.08c.017.026.035.051.052.077l.105.153.1.153c.035.051.075.1.112.147l.226.292.239.279a16.743,16.743,0,0,1,1.783,2.353,14.089,14.089,0,0,1,.729,1.339l0,.006A14.113,14.113,0,0,0,663.051,606.267Zm.858,1.619,0-.006,0,0,0,.005Z" transform="translate(-659.049 -575.302)" fill="#575656"/>
        <path id="パス_2923" data-name="パス 2923" d="M684,577.839l-.045-.062Z" transform="translate(-681.415 -577.5)" fill="#575656"/>
        <path id="パス_2924" data-name="パス 2924" d="M684.4,578.335c.026.036.052.074.078.112l-.015-.023Z" transform="translate(-681.809 -577.996)" fill="#575656"/>
      </g>
      <path id="パス_2925" data-name="パス 2925" d="M648.115,566.256v51.125a.373.373,0,1,0,.741,0v-50.67a.04.04,0,0,1,.037-.042h45.435a.416.416,0,0,0,0-.827H648.485A.394.394,0,0,0,648.115,566.256Z" transform="translate(-648.115 -565.843)" fill="#575656"/>
    </g>
    <g id="グループ_1613" data-name="グループ 1613" transform="translate(294.349 4.972)">
      <path id="パス_2913-2" data-name="パス 2913" d="M857.737,659.8a11.426,11.426,0,0,0-1.237,4.525c0,.033-.02.046-.034.04s-.031-.007-.034-.04a11.3,11.3,0,0,0-1.271-4.58,1.014,1.014,0,0,1-.029-.892l.028-.06a.868.868,0,0,1,.462-.5,2.086,2.086,0,0,0,.475-.24.639.639,0,0,1,.692-.017,2.9,2.9,0,0,0,.527.26.871.871,0,0,1,.457.5l0,.009A1.169,1.169,0,0,1,857.737,659.8Z" transform="translate(-832.407 -647.651)" fill="#575656"/>
      <g id="グループ_593-2" data-name="グループ 593" transform="translate(2.517 1.245)">
        <path id="パス_2914-2" data-name="パス 2914" d="M660.917,602.869l.1-.088-.081.071Z" transform="translate(-618.256 -599.896)" fill="#575656"/>
        <path id="パス_2915-2" data-name="パス 2915" d="M660.428,602.338l-.056.05Z" transform="translate(-617.611 -599.502)" fill="#575656"/>
        <path id="パス_2916-2" data-name="パス 2916" d="M699.912,580.519q-.568.44-1.166.829a15.715,15.715,0,0,1-2.491,1.33,12.419,12.419,0,0,1-2.667.794,9.97,9.97,0,0,1-2.756.1,9.28,9.28,0,0,1-2.685-.7c-.252-.105-.5-.223-.742-.35l0,0c.244.128.492.245.745.351a9.3,9.3,0,0,0,2.686.7,9.981,9.981,0,0,0,2.757-.1,12.4,12.4,0,0,0,2.667-.8,15.776,15.776,0,0,0,2.491-1.332q.6-.389,1.165-.83c.293-.228.58-.464.857-.716l-.009.008q.126-.113.248-.231l-.026.025c-.049.047-.168.161-.357.328-.254.224-.634.544-1.136.92a18.373,18.373,0,0,1-1.883,1.235,14.774,14.774,0,0,1-2.635,1.192,11.613,11.613,0,0,1-1.593.415,10.281,10.281,0,0,1-1.753.177,9.658,9.658,0,0,1-1.866-.155,9.977,9.977,0,0,1-1.9-.554c-.257-.1-.512-.22-.764-.347a17.59,17.59,0,0,1-1.544,1.272l-.34.241c-.057.042-.116.081-.176.118l-.18.115c-.238.16-.5.3-.755.445a7.63,7.63,0,0,1-1.728.673,5.044,5.044,0,0,1-.982.141c-.085,0-.171,0-.258,0a1.894,1.894,0,0,1-.26-.015l-.264-.032c-.088-.016-.176-.039-.265-.058a1.261,1.261,0,0,0-1.738,0c-.089.02-.177.042-.265.058l-.263.032a1.9,1.9,0,0,1-.261.015c-.086,0-.173.005-.258,0a5.051,5.051,0,0,1-.983-.141,7.636,7.636,0,0,1-1.728-.673c-.259-.147-.517-.285-.755-.445l-.18-.115c-.06-.038-.119-.076-.176-.118l-.34-.241a17.445,17.445,0,0,1-1.543-1.272c-.253.127-.507.243-.764.347a9.975,9.975,0,0,1-1.9.554,9.658,9.658,0,0,1-1.866.155,10.278,10.278,0,0,1-1.753-.177,11.6,11.6,0,0,1-1.593-.415,14.759,14.759,0,0,1-2.635-1.192,18.285,18.285,0,0,1-1.883-1.235c-.5-.376-.883-.7-1.137-.92-.188-.166-.307-.28-.357-.328l-.026-.025c.081.079.164.155.248.231l-.009-.008c.277.252.564.488.857.716q.567.441,1.165.83a15.8,15.8,0,0,0,2.491,1.332,12.406,12.406,0,0,0,2.667.8,9.985,9.985,0,0,0,2.757.1,9.307,9.307,0,0,0,2.686-.7c.253-.106.5-.224.745-.351l0,0c-.243.127-.49.245-.742.35a9.279,9.279,0,0,1-2.685.7,9.97,9.97,0,0,1-2.756-.1,12.417,12.417,0,0,1-2.667-.794,15.728,15.728,0,0,1-2.491-1.33q-.6-.388-1.166-.829c-.235-.183-.466-.373-.692-.57.256.221.631.529,1.129.882a15.717,15.717,0,0,0,1.912,1.16,13.349,13.349,0,0,0,2.654,1.033,10.377,10.377,0,0,0,3.275.355,9.254,9.254,0,0,0,1.766-.274,9.643,9.643,0,0,0,1.757-.648c.139-.068.277-.139.413-.213l-.121-.12-.235-.232-.221-.232-.417-.438c-.259-.289-.5-.551-.712-.793l-.562-.65-.409-.486c-.223-.263-.345-.4-.345-.4l.494.539.247.27.253.263c.169.175.336.352.507.524l.517.511c.4.384.8.759,1.22,1.121l0,0c-.416-.361-.822-.736-1.221-1.12l-.518-.511c-.171-.172-.338-.35-.507-.524l-.253-.263-.247-.269-.494-.539s.124.134.365.377c.121.12.269.27.446.442l.619.578c.234.214.5.441.784.693l.455.378.24.2.253.2.3.233a12.64,12.64,0,0,0,2.367-1.894q.367-.37.714-.769l.371-.415c.124-.144.263-.276.4-.412l.1-.1c.034-.034.071-.065.107-.1l.216-.192c.07-.066.15-.123.226-.183s.152-.12.232-.177a5.128,5.128,0,0,1,1.041-.573,2.95,2.95,0,0,1,1.232-.2,1.7,1.7,0,0,0,1.557,0,2.948,2.948,0,0,1,1.232.2,5.143,5.143,0,0,1,1.042.573c.08.057.154.118.232.177s.156.117.226.183l.216.192c.036.032.073.063.107.1l.1.1c.135.136.273.268.4.412l.371.415c.231.267.47.523.715.769a12.628,12.628,0,0,0,2.366,1.894l.3-.233.253-.2.24-.2.455-.378c.285-.252.55-.479.784-.693l.619-.578c.178-.171.325-.321.446-.442.241-.243.365-.377.365-.377l-.495.539-.247.269-.253.263c-.169.174-.336.352-.507.524L688.7,581c-.4.384-.805.759-1.221,1.12l0,0c.415-.361.821-.736,1.22-1.121l.518-.511c.171-.172.338-.35.507-.524l.253-.263.247-.27.494-.539s-.123.136-.346.4l-.409.486-.562.65c-.212.243-.453.5-.712.793l-.417.438-.221.232-.235.232-.121.12c.137.074.275.146.414.213a9.632,9.632,0,0,0,1.757.648,9.248,9.248,0,0,0,1.766.274,10.377,10.377,0,0,0,3.275-.355,13.364,13.364,0,0,0,2.654-1.033,15.751,15.751,0,0,0,1.912-1.16c.5-.353.873-.661,1.129-.882Q700.265,580.245,699.912,580.519Zm-18.42,4.731a4.977,4.977,0,0,0,1.362-.245c.055-.018.112-.031.167-.052l.164-.061.164-.061c.055-.02.11-.041.163-.065.214-.1.43-.186.637-.3a14.942,14.942,0,0,0,2.384-1.555q.147-.116.293-.234l0,0q-.145.118-.292.233a14.963,14.963,0,0,1-2.384,1.554c-.208.113-.424.2-.638.3-.053.025-.107.045-.162.065l-.164.061-.164.061c-.054.021-.111.034-.166.052a4.961,4.961,0,0,1-1.361.245,3.35,3.35,0,0,1-1.358-.224c-.038-.015-.074-.032-.112-.048l0,0c.038.017.076.034.115.049A3.347,3.347,0,0,0,681.492,585.25Zm-3.866-5.614a4.8,4.8,0,0,1,.5-1.208c.038-.065.079-.128.121-.191a2.313,2.313,0,0,0-.442.1,4.1,4.1,0,0,0-.827.417c-.068.044-.133.095-.2.141s-.135.092-.2.147l-.194.158c-.032.027-.065.052-.1.08l-.094.086c-.125.116-.253.227-.372.353s-.239.241-.372.379q-.386.4-.8.775a12.965,12.965,0,0,1-2.245,1.649c.421.3.872.6,1.356.884l.341.2c.057.034.115.065.174.094l.177.092c.236.128.483.234.731.35a7.305,7.305,0,0,0,1.569.478,4.473,4.473,0,0,0,.812.065c.067,0,.133-.01.2-.014a1.354,1.354,0,0,0,.2-.023l.2-.034c.064-.016.127-.036.191-.053.032-.009.065-.016.1-.028l.041-.017-.051-.063a4.361,4.361,0,0,1-.609-1.076,5.655,5.655,0,0,1-.327-1.209A6.181,6.181,0,0,1,677.625,579.636Zm1.182-1.156a3.374,3.374,0,0,0-.376.645c-.056.112-.095.234-.141.352-.021.06-.038.121-.057.182s-.038.121-.052.184a5.489,5.489,0,0,0-.165,1.526,5.291,5.291,0,0,0,.257,1.509,3.888,3.888,0,0,0,.713,1.31l.044.048,0,0-.044-.049a3.879,3.879,0,0,1-.711-1.308,5.278,5.278,0,0,1-.257-1.507,5.469,5.469,0,0,1,.165-1.523c.013-.062.033-.123.052-.183s.036-.122.057-.182c.047-.117.085-.239.141-.351a3.335,3.335,0,0,1,.375-.644c.045-.061.093-.117.143-.173l-.007,0C678.9,578.363,678.852,578.419,678.807,578.479Zm.668.163a2.934,2.934,0,0,0-.722,1.362,4.924,4.924,0,0,0-.1,1.939,3.776,3.776,0,0,0,.649,1.689c.053.072.11.14.168.2.058-.065.115-.132.168-.2a3.773,3.773,0,0,0,.649-1.689,4.92,4.92,0,0,0-.1-1.939A2.935,2.935,0,0,0,679.476,578.643Zm0,6.006,0,0,0,0,0,0Zm0-6.778.007,0,.007,0-.007,0Zm.527.441c.05.055.1.112.143.173a3.341,3.341,0,0,1,.375.644c.056.112.095.234.141.351.02.06.038.121.057.182s.038.121.052.183a5.469,5.469,0,0,1,.165,1.523,5.276,5.276,0,0,1-.257,1.507,3.879,3.879,0,0,1-.711,1.308l-.044.049,0,0,.043-.048a3.883,3.883,0,0,0,.713-1.31,5.3,5.3,0,0,0,.257-1.509,5.48,5.48,0,0,0-.165-1.526c-.014-.062-.033-.123-.052-.184s-.036-.122-.057-.182c-.047-.118-.085-.24-.142-.352a3.339,3.339,0,0,0-.376-.645c-.044-.06-.092-.117-.141-.171Zm.833.116a4.789,4.789,0,0,1,.5,1.208,6.184,6.184,0,0,1,.123,2.528,5.694,5.694,0,0,1-.327,1.209,4.376,4.376,0,0,1-.609,1.076l-.051.063.041.017c.03.012.063.018.095.028.064.017.127.037.191.053l.2.034a1.356,1.356,0,0,0,.2.023c.067,0,.134.013.2.014a4.47,4.47,0,0,0,.812-.065,7.3,7.3,0,0,0,1.569-.478c.248-.115.5-.221.731-.35l.177-.092c.059-.03.118-.06.175-.094l.341-.2c.484-.285.935-.584,1.356-.884a12.962,12.962,0,0,1-2.246-1.649q-.409-.369-.8-.775c-.134-.138-.25-.255-.372-.379s-.247-.237-.372-.353l-.094-.086c-.032-.028-.065-.053-.1-.08l-.194-.158c-.064-.056-.132-.1-.2-.147s-.133-.1-.2-.141a4.086,4.086,0,0,0-.827-.417,2.317,2.317,0,0,0-.442-.1C680.749,578.3,680.79,578.363,680.829,578.427Zm-8.409,4.485a14.939,14.939,0,0,0,2.384,1.555c.207.113.423.2.637.3.053.025.108.045.163.065l.164.061.164.061c.054.021.111.034.166.052a4.975,4.975,0,0,0,1.362.245,3.346,3.346,0,0,0,1.36-.224c.039-.015.077-.032.115-.049l0,0c-.037.017-.074.033-.112.048a3.349,3.349,0,0,1-1.358.224A4.96,4.96,0,0,1,676.1,585c-.055-.018-.112-.031-.166-.052l-.164-.061-.164-.061c-.055-.02-.109-.04-.163-.065-.214-.1-.43-.185-.637-.3a14.938,14.938,0,0,1-2.384-1.554q-.147-.115-.293-.233l0,0Q672.271,582.8,672.419,582.912Zm-.632-.514.005,0h0l-.005,0Zm5.846-4.643a4.51,4.51,0,0,0-1.224.709l-.072.054c-.023.019-.046.039-.069.058l-.138.117-.137.117c-.046.04-.088.083-.132.125l-.262.252-.25.266a15.85,15.85,0,0,1-2.109,1.988,12.141,12.141,0,0,1-1.2.815l.005,0a12.025,12.025,0,0,0,1.2-.813,15.82,15.82,0,0,0,2.11-1.988l.25-.266.262-.252c.044-.041.086-.085.132-.125l.137-.117.137-.117c.023-.019.046-.04.069-.058l.072-.054a4.534,4.534,0,0,1,1.222-.708,2.412,2.412,0,0,1,1.136-.136l.009-.007A2.4,2.4,0,0,0,677.633,577.754Zm8.076,3.685a15.9,15.9,0,0,1-2.108-1.988l-.25-.266-.262-.252c-.044-.041-.087-.085-.132-.125l-.137-.117-.138-.117c-.023-.02-.045-.04-.068-.058l-.072-.054a4.514,4.514,0,0,0-1.223-.709,2.4,2.4,0,0,0-1.146-.137l.008.007a2.412,2.412,0,0,1,1.136.136,4.536,4.536,0,0,1,1.222.708l.072.054c.024.018.046.039.069.058l.137.117.137.117c.046.04.088.083.132.125l.262.252.25.266a15.825,15.825,0,0,0,2.11,1.988,12.025,12.025,0,0,0,1.2.813l.005,0A12.166,12.166,0,0,1,685.709,581.439Zm1.451.956,0,0h0l0,0Z" transform="translate(-657.943 -576.976)" fill="#575656"/>
        <path id="パス_2917-2" data-name="パス 2917" d="M1076.915,602.389l-.055-.049Z" transform="translate(-1076.611 -599.504)" fill="#575656"/>
        <path id="パス_2918-2" data-name="パス 2918" d="M1075.878,602.785l.1.088-.02-.017Z" transform="translate(-1075.574 -599.9)" fill="#575656"/>
      </g>
      <path id="パス_2919-2" data-name="パス 2919" d="M742.671,778.99a8.73,8.73,0,0,0-4.057-1.38c-.03,0-.041-.022-.036-.038s.006-.035.036-.038a8.652,8.652,0,0,0,4.107-1.417.752.752,0,0,1,.8-.033l.054.031a.886.886,0,0,1,.446.516,2.566,2.566,0,0,0,.216.53.86.86,0,0,1,.015.772,3.664,3.664,0,0,0-.232.588.89.89,0,0,1-.444.509l-.008,0A.867.867,0,0,1,742.671,778.99Z" transform="translate(-706.984 -752.491)" fill="#575656"/>
      <g id="グループ_594-2" data-name="グループ 594" transform="translate(37.535 1.058)">
        <path id="パス_2920-2" data-name="パス 2920" d="M684.4,1000.828l.079.113-.063-.09Z" transform="translate(-679.128 -953.253)" fill="#575656"/>
        <path id="パス_2921-2" data-name="パス 2921" d="M684,1001.9l-.045-.062Z" transform="translate(-678.611 -954.147)" fill="#575656"/>
        <path id="パス_2922-2" data-name="パス 2922" d="M663.806,622.106q-.395-.633-.743-1.3a19.356,19.356,0,0,1-1.193-2.778,16.464,16.464,0,0,1-.712-2.974,13.784,13.784,0,0,1-.091-3.074,12.814,12.814,0,0,1,.221-1.521,12.43,12.43,0,0,1,.4-1.473c.094-.281.2-.556.314-.828l0-.005c-.114.273-.22.549-.315.831a12.579,12.579,0,0,0-.4,1.474,12.956,12.956,0,0,0-.22,1.522,13.778,13.778,0,0,0,.092,3.075,16.415,16.415,0,0,0,.713,2.974,19.274,19.274,0,0,0,1.194,2.778q.349.666.744,1.3c.2.326.417.647.642.956l-.007-.01c.068.093.136.186.207.277l-.023-.029c-.043-.055-.145-.188-.294-.4-.2-.283-.488-.706-.825-1.267a21.328,21.328,0,0,1-1.108-2.1,18.637,18.637,0,0,1-1.069-2.938,15.425,15.425,0,0,1-.372-1.776,14.1,14.1,0,0,1-.159-1.955,13.046,13.046,0,0,1,.635-4.2q.14-.43.311-.852a19.347,19.347,0,0,1-1.141-1.721l-.217-.379c-.037-.064-.072-.129-.106-.2l-.1-.2c-.144-.265-.267-.553-.4-.841a9.854,9.854,0,0,1-.6-1.927,6.947,6.947,0,0,1-.126-1.1c0-.095,0-.191,0-.287a2.631,2.631,0,0,1,.014-.291q.014-.146.029-.294c.015-.1.034-.2.052-.3a1.663,1.663,0,0,0,0-1.938c-.018-.1-.037-.2-.052-.3s-.019-.2-.029-.294a2.622,2.622,0,0,1-.014-.291c0-.1,0-.192,0-.287a6.95,6.95,0,0,1,.126-1.1,9.85,9.85,0,0,1,.6-1.927c.132-.289.256-.576.4-.842l.1-.2c.034-.067.069-.133.106-.2l.217-.379a19.32,19.32,0,0,1,1.141-1.721q-.17-.423-.311-.852a13.051,13.051,0,0,1-.635-4.2,14.105,14.105,0,0,1,.159-1.955,15.435,15.435,0,0,1,.372-1.776A18.609,18.609,0,0,1,662.4,579.1a21.32,21.32,0,0,1,1.108-2.1c.337-.561.624-.984.825-1.267.149-.21.251-.343.294-.4l.023-.029c-.071.091-.139.183-.207.277l.007-.01c-.225.309-.438.629-.642.956q-.4.632-.744,1.3a19.269,19.269,0,0,0-1.194,2.778,16.41,16.41,0,0,0-.713,2.974,13.782,13.782,0,0,0-.092,3.075,12.946,12.946,0,0,0,.22,1.521,12.587,12.587,0,0,0,.4,1.474c.095.281.2.558.315.83l0-.005c-.114-.272-.219-.547-.314-.828a12.422,12.422,0,0,1-.4-1.473,12.809,12.809,0,0,1-.221-1.521,13.781,13.781,0,0,1,.091-3.073,16.462,16.462,0,0,1,.712-2.974,19.359,19.359,0,0,1,1.193-2.778q.349-.666.743-1.3.246-.393.511-.772c-.2.285-.474.7-.791,1.259a18.686,18.686,0,0,0-1.041,2.132,17.278,17.278,0,0,0-.926,2.96,14.279,14.279,0,0,0-.319,3.653,12.325,12.325,0,0,0,.826,3.929q.091.233.191.461l.108-.135.208-.262.208-.247.393-.465c.259-.289.494-.558.711-.794l.583-.627.436-.457c.236-.248.358-.385.358-.385l-.484.551-.242.276-.236.282c-.157.188-.316.375-.47.565l-.459.577q-.517.666-1,1.36v0q.486-.7,1.005-1.361l.458-.577c.155-.191.314-.377.47-.565l.236-.282.242-.276.483-.552s-.12.139-.338.407c-.108.134-.242.3-.4.5l-.518.69c-.191.261-.4.557-.621.875l-.339.507-.178.268-.178.282q-.1.163-.208.333a14,14,0,0,0,1.7,2.639c.221.273.451.539.689.8l.372.413c.129.138.248.293.37.444l.091.113c.03.039.058.08.087.12l.172.241c.059.078.11.167.164.251s.108.17.159.259a6.256,6.256,0,0,1,.514,1.162,4.031,4.031,0,0,1,.175,1.374,2.306,2.306,0,0,0,0,1.736,4.031,4.031,0,0,1-.175,1.374,6.255,6.255,0,0,1-.514,1.162c-.051.089-.106.173-.159.259s-.105.173-.164.251l-.172.241c-.029.04-.057.081-.087.119l-.091.113c-.122.151-.241.305-.37.444l-.372.413c-.239.258-.468.525-.689.8a14.012,14.012,0,0,0-1.7,2.639c.07.113.14.224.208.332l.178.282.178.268.339.507c.225.317.43.614.621.875l.518.691c.154.2.288.363.4.5.217.269.338.407.338.407l-.483-.551-.242-.276-.236-.282c-.156-.189-.315-.375-.47-.566l-.458-.577q-.517-.667-1.005-1.361v0q.487.694,1,1.36l.459.577c.155.191.314.377.47.565l.236.282.242.276.484.551s-.121-.137-.358-.385l-.436-.456-.583-.627c-.218-.236-.452-.505-.711-.8l-.393-.464-.208-.247-.208-.262-.108-.135q-.1.229-.191.461a12.323,12.323,0,0,0-.826,3.929,14.277,14.277,0,0,0,.319,3.652,17.264,17.264,0,0,0,.926,2.96,18.678,18.678,0,0,0,1.041,2.132c.316.555.592.974.79,1.258Q664.052,622.5,663.806,622.106Zm-4.242-20.542a6.751,6.751,0,0,0,.22,1.518c.016.062.027.125.046.185l.055.183.055.183c.018.061.036.122.058.181.086.239.167.48.267.711a17.54,17.54,0,0,0,1.395,2.659c.069.11.139.219.21.327v0q-.105-.162-.209-.326a17.508,17.508,0,0,1-1.393-2.658c-.1-.231-.182-.472-.268-.711-.023-.059-.04-.12-.058-.181l-.055-.183-.055-.183c-.019-.06-.031-.123-.047-.185a6.755,6.755,0,0,1-.22-1.517,4.557,4.557,0,0,1,.2-1.515c.013-.042.028-.083.043-.125l0-.005c-.015.042-.031.085-.044.128A4.563,4.563,0,0,0,659.564,601.564Zm5.034-4.311a3.886,3.886,0,0,1,1.083.554c.058.043.115.088.171.136a3.171,3.171,0,0,0-.089-.492,5.117,5.117,0,0,0-.374-.922c-.039-.075-.085-.149-.126-.223s-.082-.15-.132-.221l-.142-.217c-.024-.036-.046-.073-.072-.108l-.078-.105c-.1-.139-.2-.282-.316-.415s-.216-.267-.34-.416q-.362-.431-.695-.887a14.723,14.723,0,0,1-1.478-2.5c-.269.47-.538.973-.793,1.512l-.176.38c-.03.063-.058.129-.085.195l-.082.2c-.115.263-.21.538-.313.815a9.671,9.671,0,0,0-.429,1.75,6.157,6.157,0,0,0-.058.905c0,.075.009.149.013.223a1.88,1.88,0,0,0,.02.222c.01.073.02.146.03.219s.032.142.048.214c.008.035.014.072.025.106l.015.046.057-.057a3.793,3.793,0,0,1,.965-.679,4.319,4.319,0,0,1,1.085-.365A4.488,4.488,0,0,1,664.6,597.252Zm1.037,1.318a2.931,2.931,0,0,0-.579-.42c-.1-.063-.21-.106-.315-.158-.054-.023-.109-.042-.163-.063a1.726,1.726,0,0,0-.165-.058,4,4,0,0,0-1.368-.184,3.906,3.906,0,0,0-1.354.287,3.36,3.36,0,0,0-1.174.795c-.015.016-.029.033-.043.049l0,.005c.015-.016.029-.034.045-.049a3.337,3.337,0,0,1,1.172-.793,3.9,3.9,0,0,1,1.351-.287,3.992,3.992,0,0,1,1.366.185,1.565,1.565,0,0,1,.165.057c.054.021.109.041.163.064a3.455,3.455,0,0,1,.315.158,2.914,2.914,0,0,1,.577.419c.055.05.105.1.155.16l0-.008C665.739,598.673,665.689,598.62,665.635,598.57Zm-.146.745a2.519,2.519,0,0,0-1.221-.8,3.575,3.575,0,0,0-1.739-.106,3.029,3.029,0,0,0-1.515.724,2.6,2.6,0,0,0-.184.187c.058.065.119.128.184.187a3.03,3.03,0,0,0,1.515.724,3.584,3.584,0,0,0,1.739-.106A2.528,2.528,0,0,0,665.489,599.315Zm-5.386-.006,0,.006,0,.005,0-.005Zm6.078,0,0,.008,0,.008,0-.008Zm-.4.587a2.19,2.19,0,0,1-.155.16,2.935,2.935,0,0,1-.577.419c-.1.063-.21.106-.315.158-.054.023-.109.042-.163.064a1.684,1.684,0,0,1-.165.057,4,4,0,0,1-1.366.184,3.9,3.9,0,0,1-1.351-.286,3.345,3.345,0,0,1-1.172-.794c-.015-.016-.03-.033-.045-.05l0,.006.043.049a3.354,3.354,0,0,0,1.174.8,3.915,3.915,0,0,0,1.354.287,4,4,0,0,0,1.368-.184,1.613,1.613,0,0,0,.165-.058c.054-.021.109-.041.163-.063.105-.052.214-.1.315-.158a2.942,2.942,0,0,0,.579-.42,2.188,2.188,0,0,0,.153-.158Zm-.1.929a3.894,3.894,0,0,1-1.083.554,4.491,4.491,0,0,1-2.267.137,4.333,4.333,0,0,1-1.085-.364,3.806,3.806,0,0,1-.965-.679l-.057-.057-.015.045c-.011.034-.016.071-.025.106-.016.071-.034.141-.048.213s-.02.147-.03.219a1.872,1.872,0,0,0-.02.222c0,.075-.011.149-.013.223a6.155,6.155,0,0,0,.058.905,9.656,9.656,0,0,0,.429,1.75c.1.277.2.552.313.815l.082.2c.026.066.054.131.085.195l.176.38c.255.54.524,1.043.793,1.512a14.742,14.742,0,0,1,1.478-2.5q.332-.456.695-.887c.124-.149.229-.28.34-.415s.213-.276.316-.415l.078-.105c.026-.036.048-.073.072-.108l.142-.217c.05-.071.088-.147.132-.221s.087-.148.126-.223a5.136,5.136,0,0,0,.374-.922,3.18,3.18,0,0,0,.089-.492C665.8,600.736,665.739,600.781,665.682,600.824Zm-4.021-9.378a17.523,17.523,0,0,0-1.395,2.659c-.1.231-.181.472-.267.711-.022.059-.041.121-.058.181l-.055.183-.055.183c-.019.061-.031.124-.046.186a6.746,6.746,0,0,0-.22,1.519,4.56,4.56,0,0,0,.2,1.517c.013.043.029.085.044.128l0-.005c-.015-.041-.03-.083-.043-.125a4.556,4.556,0,0,1-.2-1.515,6.753,6.753,0,0,1,.22-1.517c.016-.062.028-.125.047-.186l.055-.183.055-.183c.018-.061.036-.122.058-.181.086-.239.166-.48.268-.711a17.487,17.487,0,0,1,1.393-2.659q.1-.164.209-.326v0Q661.764,591.281,661.66,591.446Zm.461-.7,0,.006,0,0,0-.006Zm4.164,6.519a5.447,5.447,0,0,0-.635-1.364l-.048-.08c-.017-.026-.035-.051-.052-.077l-.105-.153-.105-.153c-.035-.051-.074-.1-.112-.147l-.226-.292-.239-.279a16.712,16.712,0,0,1-1.783-2.352,14.07,14.07,0,0,1-.73-1.342l0,.006a14.138,14.138,0,0,0,.729,1.34,16.758,16.758,0,0,0,1.783,2.352L665,595l.226.292c.037.049.076.1.112.147l.1.153.105.153c.017.026.035.051.052.077l.048.08a5.446,5.446,0,0,1,.635,1.363,3.283,3.283,0,0,1,.122,1.267l.007.009A3.3,3.3,0,0,0,666.285,597.26Zm-3.3,9.007a16.691,16.691,0,0,1,1.783-2.351l.239-.279.226-.292c.037-.049.076-.1.112-.147l.105-.153.105-.153c.017-.026.035-.05.052-.077l.048-.08a5.446,5.446,0,0,0,.635-1.365,3.3,3.3,0,0,0,.123-1.278l-.007.009a3.284,3.284,0,0,1-.122,1.267,5.461,5.461,0,0,1-.635,1.363l-.048.08c-.017.026-.035.051-.052.077l-.105.153-.1.153c-.035.051-.075.1-.112.147l-.226.292-.239.279a16.743,16.743,0,0,0-1.783,2.353,14.089,14.089,0,0,0-.729,1.339l0,.006A14.113,14.113,0,0,1,662.981,606.267Zm-.858,1.619,0-.006,0,0,0,.005Z" transform="translate(-659.049 -575.302)" fill="#575656"/>
        <path id="パス_2923-2" data-name="パス 2923" d="M683.958,577.839l.045-.062Z" transform="translate(-678.611 -577.5)" fill="#575656"/>
        <path id="パス_2924-2" data-name="パス 2924" d="M684.475,578.335c-.026.036-.052.074-.078.112l.015-.023Z" transform="translate(-679.129 -577.996)" fill="#575656"/>
      </g>
      <path id="パス_2925-2" data-name="パス 2925" d="M694.7,566.256v51.125a.373.373,0,1,1-.741,0v-50.67a.04.04,0,0,0-.037-.042H648.486a.416.416,0,0,1,0-.827h45.843A.394.394,0,0,1,694.7,566.256Z" transform="translate(-648.115 -565.843)" fill="#575656"/>
    </g>
    <g id="グループ_1614" data-name="グループ 1614" transform="translate(4.349 171.119)">
      <path id="パス_2913-3" data-name="パス 2913" d="M855.175,662.516a11.426,11.426,0,0,0,1.237-4.525c0-.033.02-.046.034-.04s.031.007.034.04a11.3,11.3,0,0,0,1.271,4.58,1.014,1.014,0,0,1,.029.892l-.028.06a.868.868,0,0,1-.462.5,2.084,2.084,0,0,0-.475.24.639.639,0,0,1-.692.017,2.9,2.9,0,0,0-.527-.26.871.871,0,0,1-.457-.5l0-.009A1.169,1.169,0,0,1,855.175,662.516Z" transform="translate(-833.92 -622.718)" fill="#575656"/>
      <g id="グループ_593-3" data-name="グループ 593" transform="translate(1.003 41.859)">
        <path id="パス_2914-3" data-name="パス 2914" d="M661.018,602.781l-.1.088L661,602.8Z" transform="translate(-660.613 -596.906)" fill="#575656"/>
        <path id="パス_2915-3" data-name="パス 2915" d="M660.372,602.387l.056-.05Z" transform="translate(-660.124 -596.375)" fill="#575656"/>
        <path id="パス_2916-3" data-name="パス 2916" d="M659.039,582.281q.568-.441,1.166-.829a15.714,15.714,0,0,1,2.491-1.33,12.412,12.412,0,0,1,2.667-.794,9.97,9.97,0,0,1,2.756-.1,9.28,9.28,0,0,1,2.685.7c.252.105.5.223.742.35l0,0c-.244-.127-.492-.245-.745-.351a9.3,9.3,0,0,0-2.686-.7,9.981,9.981,0,0,0-2.757.1,12.4,12.4,0,0,0-2.667.8,15.776,15.776,0,0,0-2.491,1.332q-.6.389-1.165.83c-.293.228-.58.464-.857.716l.009-.008q-.126.113-.248.231l.026-.025c.049-.047.168-.161.357-.328.254-.224.634-.544,1.136-.92a18.383,18.383,0,0,1,1.883-1.235,14.779,14.779,0,0,1,2.635-1.192,11.613,11.613,0,0,1,1.593-.415,10.281,10.281,0,0,1,1.753-.177,9.658,9.658,0,0,1,1.866.155,9.977,9.977,0,0,1,1.9.554q.385.156.764.347a17.579,17.579,0,0,1,1.544-1.272l.34-.241c.057-.042.116-.081.176-.118l.18-.115c.238-.16.5-.3.755-.445a7.63,7.63,0,0,1,1.728-.673,5.049,5.049,0,0,1,.982-.141c.085,0,.171,0,.258,0a1.885,1.885,0,0,1,.26.015l.264.032c.088.016.176.039.265.058a1.261,1.261,0,0,0,1.738,0c.089-.02.177-.042.265-.058l.263-.032a1.891,1.891,0,0,1,.261-.015c.086,0,.173-.005.258,0a5.056,5.056,0,0,1,.983.141,7.636,7.636,0,0,1,1.728.673c.259.147.517.285.755.445l.18.115c.06.038.119.076.176.118l.34.241a17.435,17.435,0,0,1,1.543,1.272q.379-.19.764-.347a9.975,9.975,0,0,1,1.9-.554,9.658,9.658,0,0,1,1.866-.155,10.278,10.278,0,0,1,1.753.177,11.6,11.6,0,0,1,1.593.415,14.763,14.763,0,0,1,2.635,1.192,18.3,18.3,0,0,1,1.883,1.235c.5.376.883.7,1.137.92.188.166.307.28.357.328l.026.025c-.081-.079-.164-.155-.248-.231l.009.008c-.277-.252-.564-.488-.857-.716q-.567-.441-1.165-.83a15.8,15.8,0,0,0-2.491-1.332,12.4,12.4,0,0,0-2.667-.8,9.985,9.985,0,0,0-2.757-.1,9.307,9.307,0,0,0-2.686.7c-.253.106-.5.224-.745.351l0,0c.243-.127.49-.245.742-.35a9.279,9.279,0,0,1,2.685-.7,9.97,9.97,0,0,1,2.756.1,12.41,12.41,0,0,1,2.667.794,15.727,15.727,0,0,1,2.491,1.33q.6.388,1.166.829c.235.183.466.372.692.57-.256-.221-.631-.529-1.129-.882a15.716,15.716,0,0,0-1.912-1.161,13.346,13.346,0,0,0-2.654-1.033,10.377,10.377,0,0,0-3.275-.356,9.254,9.254,0,0,0-1.766.274,9.643,9.643,0,0,0-1.757.648q-.209.1-.413.213l.121.12.235.232.221.232.417.438c.259.289.5.551.712.793l.562.65.409.486c.223.263.345.4.345.4l-.494-.539-.247-.27-.253-.263c-.169-.175-.336-.352-.507-.524l-.517-.511c-.4-.384-.8-.759-1.22-1.121l0,0c.416.361.822.736,1.221,1.12l.518.511c.171.172.338.35.507.524l.253.263.247.269.494.539s-.124-.134-.365-.377c-.121-.12-.269-.27-.446-.442l-.619-.578c-.234-.214-.5-.441-.784-.693l-.455-.378-.24-.2-.253-.2-.3-.233a12.639,12.639,0,0,0-2.367,1.894q-.367.37-.714.769l-.371.415c-.124.144-.263.276-.4.412l-.1.1c-.034.034-.071.065-.107.1l-.216.192c-.07.066-.15.123-.226.183s-.152.12-.232.177a5.128,5.128,0,0,1-1.041.573,2.95,2.95,0,0,1-1.232.2,1.7,1.7,0,0,0-1.557,0,2.948,2.948,0,0,1-1.232-.2,5.143,5.143,0,0,1-1.042-.573c-.08-.057-.154-.118-.232-.177s-.156-.117-.226-.183l-.216-.192c-.036-.032-.073-.063-.107-.1l-.1-.1c-.135-.136-.273-.268-.4-.412l-.371-.415c-.231-.267-.47-.523-.715-.769a12.627,12.627,0,0,0-2.366-1.894l-.3.233-.253.2-.24.2-.455.378c-.285.252-.55.479-.784.693l-.619.578c-.178.171-.325.321-.446.442-.241.243-.365.377-.365.377l.495-.539.247-.269.253-.263c.169-.174.336-.352.507-.524l.518-.511c.4-.384.805-.759,1.221-1.12l0,0c-.415.361-.821.736-1.22,1.121l-.518.511c-.171.172-.338.35-.507.524l-.253.263-.247.27-.494.539s.123-.136.346-.4l.409-.486.562-.65c.212-.243.453-.5.712-.793l.417-.438.221-.232.235-.232.121-.12q-.206-.112-.414-.213a9.632,9.632,0,0,0-1.757-.648,9.248,9.248,0,0,0-1.766-.274,10.377,10.377,0,0,0-3.275.356,13.36,13.36,0,0,0-2.654,1.033,15.75,15.75,0,0,0-1.912,1.161c-.5.353-.873.661-1.129.882Q658.686,582.555,659.039,582.281Zm18.42-4.731a4.977,4.977,0,0,0-1.362.245c-.055.018-.112.031-.167.052l-.164.061-.164.061c-.055.02-.11.041-.163.065-.214.1-.43.186-.637.3a14.942,14.942,0,0,0-2.384,1.555q-.147.116-.293.234l0,0q.145-.118.292-.233a14.959,14.959,0,0,1,2.384-1.554c.208-.113.424-.2.638-.3.053-.025.107-.045.162-.065l.164-.061.164-.061c.054-.021.111-.034.166-.052a4.961,4.961,0,0,1,1.361-.245,3.351,3.351,0,0,1,1.358.224c.038.015.074.032.112.048l0,0c-.038-.017-.076-.034-.115-.049A3.347,3.347,0,0,0,677.459,577.55Zm3.866,5.614a4.8,4.8,0,0,1-.5,1.208c-.038.065-.079.128-.121.191a2.313,2.313,0,0,0,.442-.1,4.1,4.1,0,0,0,.827-.417c.068-.044.133-.095.2-.141s.135-.092.2-.147l.194-.158c.032-.027.065-.052.1-.08l.094-.086c.125-.116.253-.227.372-.353s.239-.241.372-.379q.386-.4.8-.775a12.965,12.965,0,0,1,2.245-1.649c-.421-.3-.872-.6-1.356-.884l-.341-.2c-.057-.034-.115-.065-.174-.094l-.177-.092c-.236-.128-.483-.234-.731-.35a7.3,7.3,0,0,0-1.569-.478,4.468,4.468,0,0,0-.812-.065c-.067,0-.133.01-.2.014a1.354,1.354,0,0,0-.2.023l-.2.034c-.064.016-.127.036-.191.053-.032.009-.065.016-.1.028l-.041.016.051.063a4.36,4.36,0,0,1,.609,1.076,5.656,5.656,0,0,1,.327,1.209A6.182,6.182,0,0,1,681.326,583.164Zm-1.182,1.156a3.377,3.377,0,0,0,.376-.645c.056-.113.095-.234.141-.352.021-.06.038-.121.057-.182s.038-.121.052-.184a5.488,5.488,0,0,0,.165-1.526,5.29,5.29,0,0,0-.257-1.509,3.888,3.888,0,0,0-.713-1.31l-.044-.048,0,0,.044.049a3.879,3.879,0,0,1,.711,1.308,5.279,5.279,0,0,1,.257,1.507,5.469,5.469,0,0,1-.165,1.523c-.013.062-.033.123-.052.183s-.036.122-.057.182c-.047.117-.085.239-.141.351a3.335,3.335,0,0,1-.375.644c-.045.061-.093.117-.143.173l.007,0C680.051,584.437,680.1,584.38,680.143,584.321Zm-.668-.163a2.934,2.934,0,0,0,.722-1.362,4.924,4.924,0,0,0,.1-1.939,3.777,3.777,0,0,0-.649-1.689c-.053-.072-.11-.14-.168-.2-.058.065-.115.133-.168.2a3.774,3.774,0,0,0-.649,1.689,4.92,4.92,0,0,0,.1,1.939A2.934,2.934,0,0,0,679.475,584.157Zm0-6.006,0,0,0,0,0,0Zm0,6.778-.007,0-.007,0,.007,0Zm-.527-.441c-.05-.055-.1-.112-.143-.173a3.341,3.341,0,0,1-.375-.644c-.056-.112-.095-.234-.141-.351-.02-.06-.038-.121-.057-.182s-.038-.121-.052-.183a5.469,5.469,0,0,1-.165-1.523,5.277,5.277,0,0,1,.257-1.507,3.879,3.879,0,0,1,.711-1.308l.044-.049,0,0-.043.048a3.883,3.883,0,0,0-.713,1.31,5.3,5.3,0,0,0-.257,1.509,5.479,5.479,0,0,0,.165,1.526c.014.062.033.123.052.184s.036.122.057.182c.047.118.085.24.142.352a3.343,3.343,0,0,0,.376.645c.044.06.092.117.141.171Zm-.833-.116a4.789,4.789,0,0,1-.5-1.208,6.184,6.184,0,0,1-.123-2.528,5.7,5.7,0,0,1,.327-1.209,4.375,4.375,0,0,1,.609-1.076l.051-.063-.041-.016c-.03-.012-.063-.019-.095-.028-.064-.017-.127-.037-.191-.053l-.2-.034a1.356,1.356,0,0,0-.2-.023c-.067,0-.134-.013-.2-.014a4.465,4.465,0,0,0-.812.065,7.291,7.291,0,0,0-1.569.478c-.248.115-.5.221-.731.35l-.177.092c-.059.03-.118.06-.175.094l-.341.2c-.484.285-.935.584-1.356.884a12.962,12.962,0,0,1,2.246,1.649q.409.369.8.775c.134.138.25.255.372.379s.247.237.372.353l.094.086c.032.028.065.053.1.08l.194.158c.064.056.132.1.2.147s.133.1.2.141a4.086,4.086,0,0,0,.827.417,2.317,2.317,0,0,0,.442.1C678.2,584.5,678.161,584.437,678.122,584.373Zm8.409-4.485a14.939,14.939,0,0,0-2.384-1.555c-.207-.113-.423-.2-.637-.3-.053-.025-.108-.045-.163-.065l-.164-.061-.164-.061c-.054-.021-.111-.034-.166-.052a4.975,4.975,0,0,0-1.362-.245,3.346,3.346,0,0,0-1.36.224c-.039.015-.077.032-.115.049l0,0c.037-.017.074-.033.112-.048a3.35,3.35,0,0,1,1.358-.224,4.96,4.96,0,0,1,1.361.245c.055.018.112.031.166.052l.164.061.164.061c.055.02.109.04.163.065.214.1.43.185.637.3a14.934,14.934,0,0,1,2.384,1.554q.147.115.293.233l0,0Q686.68,580,686.532,579.888Zm.632.514-.005,0h0l.005,0Zm-5.846,4.643a4.509,4.509,0,0,0,1.224-.709l.072-.054c.023-.019.046-.039.069-.058l.138-.117.137-.117c.046-.04.088-.083.132-.124l.262-.252.25-.266a15.85,15.85,0,0,1,2.109-1.988,12.151,12.151,0,0,1,1.2-.815l-.005,0a12.035,12.035,0,0,0-1.2.813,15.82,15.82,0,0,0-2.11,1.988l-.25.266-.262.252c-.044.041-.086.085-.132.125l-.137.117-.137.117c-.023.019-.046.04-.069.058l-.072.054a4.532,4.532,0,0,1-1.222.708,2.412,2.412,0,0,1-1.136.136l-.009.007A2.4,2.4,0,0,0,681.318,585.046Zm-8.076-3.685a15.9,15.9,0,0,1,2.108,1.988l.25.266.262.252c.044.041.087.085.132.124l.137.117.138.117c.023.02.045.04.068.058l.072.054a4.512,4.512,0,0,0,1.223.709,2.4,2.4,0,0,0,1.146.137l-.008-.007a2.412,2.412,0,0,1-1.136-.136,4.535,4.535,0,0,1-1.222-.708l-.072-.054c-.024-.018-.046-.039-.069-.058l-.137-.117-.137-.117c-.046-.04-.088-.083-.132-.125l-.262-.252-.25-.266a15.825,15.825,0,0,0-2.11-1.988,12.035,12.035,0,0,0-1.2-.813l-.005,0A12.177,12.177,0,0,1,673.242,581.361Zm-1.451-.956,0,0h0l0,0Z" transform="translate(-657.943 -576.976)" fill="#575656"/>
        <path id="パス_2917-3" data-name="パス 2917" d="M1076.859,602.34l.055.049Z" transform="translate(-1034.098 -596.378)" fill="#575656"/>
        <path id="パス_2918-3" data-name="パス 2918" d="M1075.978,602.873l-.1-.088.02.017Z" transform="translate(-1033.217 -596.91)" fill="#575656"/>
      </g>
      <path id="パス_2919-3" data-name="パス 2919" d="M740.24,776.133a8.73,8.73,0,0,0,4.057,1.38c.03,0,.041.022.036.038s-.006.035-.036.038a8.652,8.652,0,0,0-4.107,1.417.752.752,0,0,1-.8.033l-.054-.031a.886.886,0,0,1-.446-.516,2.566,2.566,0,0,0-.216-.53.86.86,0,0,1-.015-.772,3.664,3.664,0,0,0,.232-.588.89.89,0,0,1,.444-.509l.008,0A.867.867,0,0,1,740.24,776.133Z" transform="translate(-729.342 -750.681)" fill="#575656"/>
      <g id="グループ_594-3" data-name="グループ 594" transform="translate(1.116 2.867)">
        <path id="パス_2920-3" data-name="パス 2920" d="M684.475,1000.941l-.079-.113.063.09Z" transform="translate(-681.809 -1000.49)" fill="#575656"/>
        <path id="パス_2921-3" data-name="パス 2921" d="M683.958,1001.835l.045.062Z" transform="translate(-681.415 -1001.558)" fill="#575656"/>
        <path id="パス_2922-3" data-name="パス 2922" d="M662.226,576.525q.395.633.743,1.3a19.356,19.356,0,0,1,1.193,2.778,16.464,16.464,0,0,1,.712,2.974,13.784,13.784,0,0,1,.091,3.074,12.814,12.814,0,0,1-.221,1.521,12.43,12.43,0,0,1-.4,1.473c-.094.281-.2.556-.314.828l0,.005c.114-.273.22-.549.315-.831a12.579,12.579,0,0,0,.4-1.474,12.956,12.956,0,0,0,.22-1.522,13.778,13.778,0,0,0-.092-3.075,16.415,16.415,0,0,0-.713-2.974,19.274,19.274,0,0,0-1.194-2.778q-.349-.666-.744-1.3c-.2-.326-.417-.647-.642-.956l.007.01c-.068-.093-.136-.186-.207-.277l.023.029c.043.055.145.188.294.4.2.283.488.706.825,1.267a21.328,21.328,0,0,1,1.108,2.1,18.637,18.637,0,0,1,1.069,2.938,15.425,15.425,0,0,1,.372,1.776,14.1,14.1,0,0,1,.159,1.955,13.046,13.046,0,0,1-.635,4.2q-.14.43-.311.852a19.347,19.347,0,0,1,1.141,1.721l.217.379c.037.064.072.129.106.2l.1.2c.144.265.267.553.4.841a9.853,9.853,0,0,1,.6,1.928,6.945,6.945,0,0,1,.126,1.1c0,.095,0,.191,0,.287a2.631,2.631,0,0,1-.014.291q-.014.146-.029.294c-.015.1-.034.2-.052.3a1.663,1.663,0,0,0,0,1.938c.018.1.037.2.052.3s.019.2.029.294a2.622,2.622,0,0,1,.014.291c0,.1,0,.192,0,.287a6.95,6.95,0,0,1-.126,1.1,9.85,9.85,0,0,1-.6,1.927c-.132.289-.256.576-.4.842l-.1.2c-.034.067-.069.133-.106.2l-.217.379a19.32,19.32,0,0,1-1.141,1.721q.17.423.311.852a13.051,13.051,0,0,1,.635,4.2,14.105,14.105,0,0,1-.159,1.955,15.435,15.435,0,0,1-.372,1.776,18.609,18.609,0,0,1-1.069,2.938,21.32,21.32,0,0,1-1.108,2.1c-.337.561-.624.984-.825,1.267-.149.21-.251.343-.294.4l-.023.029c.071-.091.139-.183.207-.277l-.007.01c.225-.309.438-.629.642-.956q.4-.632.744-1.3a19.269,19.269,0,0,0,1.194-2.778,16.41,16.41,0,0,0,.713-2.974,13.782,13.782,0,0,0,.092-3.075,12.943,12.943,0,0,0-.22-1.521,12.585,12.585,0,0,0-.4-1.474c-.095-.281-.2-.558-.315-.83l0,.005c.114.272.219.547.314.828a12.426,12.426,0,0,1,.4,1.473,12.809,12.809,0,0,1,.221,1.521,13.781,13.781,0,0,1-.091,3.073,16.462,16.462,0,0,1-.712,2.974,19.356,19.356,0,0,1-1.193,2.778q-.349.666-.743,1.3-.246.393-.511.772c.2-.285.474-.7.791-1.259a18.686,18.686,0,0,0,1.041-2.132,17.278,17.278,0,0,0,.926-2.96,14.279,14.279,0,0,0,.319-3.653,12.324,12.324,0,0,0-.826-3.929q-.091-.233-.191-.461l-.108.135-.208.262-.208.247-.393.465c-.259.289-.494.558-.711.794l-.583.627-.436.457c-.236.248-.358.385-.358.385l.484-.551.242-.276.236-.282c.157-.188.316-.375.47-.565l.459-.577q.517-.666,1-1.36v0q-.486.7-1.005,1.361l-.458.577c-.155.191-.314.377-.47.565l-.236.282-.242.276-.483.552s.12-.139.338-.407c.108-.134.242-.3.4-.5l.518-.69c.191-.261.4-.557.621-.875l.339-.507.178-.268.178-.282q.1-.163.208-.333a14,14,0,0,0-1.7-2.639c-.221-.273-.451-.539-.689-.8l-.372-.413c-.129-.138-.248-.293-.37-.444l-.091-.113c-.03-.039-.058-.08-.087-.12l-.172-.241c-.059-.079-.11-.167-.164-.252s-.108-.17-.159-.259a6.256,6.256,0,0,1-.514-1.162,4.031,4.031,0,0,1-.175-1.374,2.306,2.306,0,0,0,0-1.736,4.031,4.031,0,0,1,.175-1.374,6.255,6.255,0,0,1,.514-1.162c.051-.089.106-.173.159-.259s.105-.173.164-.251l.172-.241c.029-.04.057-.081.087-.119l.091-.113c.122-.151.241-.305.37-.444l.372-.413c.239-.258.468-.525.689-.8a14.012,14.012,0,0,0,1.7-2.639c-.07-.113-.14-.224-.208-.332l-.178-.282-.178-.268-.339-.507c-.225-.317-.43-.614-.621-.875l-.518-.691c-.154-.2-.288-.363-.4-.5-.217-.269-.338-.407-.338-.407l.483.551.242.276.236.282c.156.189.315.375.47.566l.458.577q.517.667,1.005,1.361v0q-.487-.694-1-1.36l-.459-.577c-.155-.191-.314-.377-.47-.565l-.236-.282-.242-.276-.484-.551s.121.137.358.385l.436.456.583.627c.218.236.452.505.711.8l.393.464.208.247.208.262.108.135q.1-.229.191-.461a12.323,12.323,0,0,0,.826-3.929,14.277,14.277,0,0,0-.319-3.652,17.264,17.264,0,0,0-.926-2.96,18.683,18.683,0,0,0-1.041-2.132c-.316-.555-.592-.974-.79-1.258Q661.98,576.131,662.226,576.525Zm4.242,20.542a6.751,6.751,0,0,0-.22-1.518c-.016-.062-.027-.125-.046-.185l-.055-.183-.055-.183c-.018-.061-.036-.122-.058-.181-.086-.239-.167-.48-.267-.711a17.54,17.54,0,0,0-1.395-2.659c-.069-.11-.139-.219-.21-.327v0q.105.162.209.326a17.508,17.508,0,0,1,1.393,2.658c.1.231.182.472.268.711.023.059.04.12.058.181l.055.183.055.183c.019.06.031.123.047.185a6.755,6.755,0,0,1,.22,1.517,4.557,4.557,0,0,1-.2,1.515c-.013.042-.028.083-.043.125l0,.005c.015-.042.031-.085.044-.128A4.563,4.563,0,0,0,666.468,597.067Zm-5.034,4.311a3.886,3.886,0,0,1-1.083-.554c-.058-.043-.115-.088-.171-.136a3.171,3.171,0,0,0,.089.492,5.117,5.117,0,0,0,.374.922c.039.075.085.149.126.223s.082.15.132.221l.142.217c.024.036.046.073.072.108l.078.105c.1.139.2.282.316.415s.216.267.34.416q.362.431.695.887a14.723,14.723,0,0,1,1.478,2.5c.269-.47.538-.973.793-1.512l.176-.38c.03-.063.058-.129.085-.195l.082-.2c.115-.263.21-.538.313-.815a9.67,9.67,0,0,0,.429-1.75,6.157,6.157,0,0,0,.058-.905c0-.075-.009-.149-.013-.223a1.88,1.88,0,0,0-.02-.222c-.01-.073-.02-.146-.03-.219s-.032-.142-.048-.214c-.008-.035-.014-.072-.025-.106l-.015-.046-.057.057a3.791,3.791,0,0,1-.965.679,4.319,4.319,0,0,1-1.085.365A4.488,4.488,0,0,1,661.433,601.378ZM660.4,600.06a2.934,2.934,0,0,0,.579.42c.1.063.21.106.315.158.054.023.109.042.163.063a1.726,1.726,0,0,0,.165.058,4,4,0,0,0,1.368.184,3.906,3.906,0,0,0,1.354-.287,3.36,3.36,0,0,0,1.174-.795c.015-.016.029-.033.043-.049l0-.005c-.015.016-.029.034-.045.049a3.337,3.337,0,0,1-1.172.793,3.9,3.9,0,0,1-1.351.287,3.992,3.992,0,0,1-1.366-.185,1.565,1.565,0,0,1-.165-.057c-.054-.021-.109-.041-.163-.064a3.455,3.455,0,0,1-.315-.158,2.911,2.911,0,0,1-.577-.419c-.055-.05-.105-.1-.155-.16l0,.008C660.293,599.957,660.343,600.01,660.4,600.06Zm.146-.745a2.519,2.519,0,0,0,1.221.8,3.575,3.575,0,0,0,1.739.106,3.029,3.029,0,0,0,1.515-.724,2.6,2.6,0,0,0,.184-.187c-.058-.065-.119-.128-.184-.187a3.031,3.031,0,0,0-1.515-.724,3.583,3.583,0,0,0-1.739.106A2.527,2.527,0,0,0,660.543,599.315Zm5.386.006,0-.006,0-.005,0,.005Zm-6.078,0,0-.008,0-.008,0,.008Zm.4-.587a2.179,2.179,0,0,1,.155-.16,2.935,2.935,0,0,1,.577-.419c.1-.062.21-.106.315-.158.054-.023.109-.042.163-.064a1.7,1.7,0,0,1,.165-.057,4,4,0,0,1,1.366-.184,3.9,3.9,0,0,1,1.351.286,3.346,3.346,0,0,1,1.172.794c.015.016.03.033.045.05l0-.006-.043-.049a3.355,3.355,0,0,0-1.174-.8,3.916,3.916,0,0,0-1.354-.287,4,4,0,0,0-1.368.184,1.613,1.613,0,0,0-.165.058c-.054.021-.109.041-.163.063-.105.052-.214.1-.315.158a2.942,2.942,0,0,0-.579.42,2.188,2.188,0,0,0-.153.158Zm.1-.929a3.894,3.894,0,0,1,1.083-.554,4.491,4.491,0,0,1,2.267-.137,4.333,4.333,0,0,1,1.085.364,3.806,3.806,0,0,1,.965.679l.057.057.015-.045c.011-.034.016-.071.025-.106.016-.071.034-.141.048-.213s.02-.147.03-.219a1.872,1.872,0,0,0,.02-.222c0-.075.011-.149.013-.223a6.155,6.155,0,0,0-.058-.905,9.656,9.656,0,0,0-.429-1.75c-.1-.277-.2-.552-.313-.815l-.082-.2c-.026-.066-.054-.131-.085-.195l-.176-.38c-.255-.54-.524-1.043-.793-1.512a14.742,14.742,0,0,1-1.478,2.5q-.332.456-.695.887c-.124.149-.229.28-.34.415s-.213.276-.316.415l-.078.105c-.026.036-.048.073-.072.108l-.142.217c-.05.071-.088.147-.132.221s-.087.148-.126.223a5.136,5.136,0,0,0-.374.922,3.18,3.18,0,0,0-.089.492C660.236,597.895,660.293,597.849,660.35,597.806Zm4.021,9.378a17.523,17.523,0,0,0,1.395-2.659c.1-.231.181-.472.267-.711.022-.059.041-.121.058-.181l.055-.183.055-.183c.019-.061.031-.124.046-.186a6.746,6.746,0,0,0,.22-1.519,4.56,4.56,0,0,0-.2-1.517c-.013-.043-.029-.085-.044-.128l0,.005c.015.041.03.083.043.125a4.556,4.556,0,0,1,.2,1.515,6.754,6.754,0,0,1-.22,1.517c-.016.062-.028.125-.047.186l-.055.183-.055.183c-.018.061-.036.122-.058.181-.086.239-.166.48-.268.711a17.487,17.487,0,0,1-1.393,2.659q-.1.164-.209.326v0Q664.268,607.349,664.371,607.185Zm-.461.7,0-.006,0,0,0,.006Zm-4.164-6.519a5.447,5.447,0,0,0,.635,1.364l.048.08c.017.026.035.051.052.077l.105.153.105.153c.035.051.074.1.112.147l.226.292.239.279a16.712,16.712,0,0,1,1.783,2.352,14.07,14.07,0,0,1,.73,1.342l0-.006a14.138,14.138,0,0,0-.729-1.34,16.762,16.762,0,0,0-1.783-2.352l-.239-.279-.226-.292c-.037-.049-.076-.1-.112-.147l-.1-.153-.105-.153c-.017-.026-.035-.051-.052-.077l-.048-.08a5.446,5.446,0,0,1-.635-1.363,3.283,3.283,0,0,1-.122-1.267l-.007-.009A3.3,3.3,0,0,0,659.746,601.37Zm3.3-9.007a16.688,16.688,0,0,1-1.783,2.351l-.239.279-.226.292c-.037.049-.076.1-.112.147l-.105.153-.105.153c-.017.026-.035.05-.052.077l-.048.08a5.446,5.446,0,0,0-.635,1.365,3.3,3.3,0,0,0-.123,1.278l.007-.009a3.284,3.284,0,0,1,.122-1.267,5.461,5.461,0,0,1,.635-1.363l.048-.08c.017-.026.035-.051.052-.077l.105-.153.1-.153c.035-.051.075-.1.112-.147l.226-.292.239-.279a16.743,16.743,0,0,0,1.783-2.353,14.089,14.089,0,0,0,.729-1.339l0-.006A14.105,14.105,0,0,1,663.051,592.363Zm.858-1.619,0,.006,0,0,0-.005Z" transform="translate(-659.049 -575.302)" fill="#575656"/>
        <path id="パス_2923-3" data-name="パス 2923" d="M684,577.777l-.045.063Z" transform="translate(-681.415 -530.09)" fill="#575656"/>
        <path id="パス_2924-3" data-name="パス 2924" d="M684.4,578.447c.026-.036.052-.074.078-.112l-.015.023Z" transform="translate(-681.809 -530.76)" fill="#575656"/>
      </g>
      <path id="パス_2925-3" data-name="パス 2925" d="M648.115,617.381V566.256a.373.373,0,1,1,.741,0v50.67a.04.04,0,0,0,.037.042h45.435a.416.416,0,0,1,0,.827H648.485A.394.394,0,0,1,648.115,617.381Z" transform="translate(-648.115 -565.843)" fill="#575656"/>
    </g>
    <g id="グループ_1615" data-name="グループ 1615" transform="translate(294.349 171.119)">
      <path id="パス_2913-4" data-name="パス 2913" d="M857.737,662.516a11.426,11.426,0,0,1-1.237-4.525c0-.033-.02-.046-.034-.04s-.031.007-.034.04a11.3,11.3,0,0,1-1.271,4.58,1.014,1.014,0,0,0-.029.892l.028.06a.868.868,0,0,0,.462.5,2.084,2.084,0,0,1,.475.24.639.639,0,0,0,.692.017,2.9,2.9,0,0,1,.527-.26.871.871,0,0,0,.457-.5l0-.009A1.169,1.169,0,0,0,857.737,662.516Z" transform="translate(-832.407 -622.718)" fill="#575656"/>
      <g id="グループ_593-4" data-name="グループ 593" transform="translate(2.517 41.859)">
        <path id="パス_2914-4" data-name="パス 2914" d="M660.917,602.781l.1.088-.081-.071Z" transform="translate(-618.256 -596.906)" fill="#575656"/>
        <path id="パス_2915-4" data-name="パス 2915" d="M660.428,602.387l-.056-.05Z" transform="translate(-617.611 -596.375)" fill="#575656"/>
        <path id="パス_2916-4" data-name="パス 2916" d="M699.912,582.281q-.568-.441-1.166-.829a15.714,15.714,0,0,0-2.491-1.33,12.412,12.412,0,0,0-2.667-.794,9.97,9.97,0,0,0-2.756-.1,9.28,9.28,0,0,0-2.685.7c-.252.105-.5.223-.742.35l0,0c.244-.127.492-.245.745-.351a9.3,9.3,0,0,1,2.686-.7,9.981,9.981,0,0,1,2.757.1,12.4,12.4,0,0,1,2.667.8,15.776,15.776,0,0,1,2.491,1.332q.6.389,1.165.83c.293.228.58.464.857.716l-.009-.008q.126.113.248.231l-.026-.025c-.049-.047-.168-.161-.357-.328-.254-.224-.634-.544-1.136-.92a18.383,18.383,0,0,0-1.883-1.235,14.779,14.779,0,0,0-2.635-1.192,11.613,11.613,0,0,0-1.593-.415,10.281,10.281,0,0,0-1.753-.177,9.658,9.658,0,0,0-1.866.155,9.977,9.977,0,0,0-1.9.554q-.385.156-.764.347a17.579,17.579,0,0,0-1.544-1.272l-.34-.241c-.057-.042-.116-.081-.176-.118l-.18-.115c-.238-.16-.5-.3-.755-.445a7.63,7.63,0,0,0-1.728-.673,5.049,5.049,0,0,0-.982-.141c-.085,0-.171,0-.258,0a1.885,1.885,0,0,0-.26.015l-.264.032c-.088.016-.176.039-.265.058a1.261,1.261,0,0,1-1.738,0c-.089-.02-.177-.042-.265-.058l-.263-.032a1.891,1.891,0,0,0-.261-.015c-.086,0-.173-.005-.258,0a5.056,5.056,0,0,0-.983.141,7.636,7.636,0,0,0-1.728.673c-.259.147-.517.285-.755.445l-.18.115c-.06.038-.119.076-.176.118l-.34.241a17.435,17.435,0,0,0-1.543,1.272q-.379-.19-.764-.347a9.975,9.975,0,0,0-1.9-.554,9.658,9.658,0,0,0-1.866-.155,10.278,10.278,0,0,0-1.753.177,11.6,11.6,0,0,0-1.593.415,14.763,14.763,0,0,0-2.635,1.192,18.3,18.3,0,0,0-1.883,1.235c-.5.376-.883.7-1.137.92-.188.166-.307.28-.357.328l-.026.025c.081-.079.164-.155.248-.231l-.009.008c.277-.252.564-.488.857-.716q.567-.441,1.165-.83a15.8,15.8,0,0,1,2.491-1.332,12.4,12.4,0,0,1,2.667-.8,9.985,9.985,0,0,1,2.757-.1,9.307,9.307,0,0,1,2.686.7c.253.106.5.224.745.351l0,0c-.243-.127-.49-.245-.742-.35a9.279,9.279,0,0,0-2.685-.7,9.97,9.97,0,0,0-2.756.1,12.41,12.41,0,0,0-2.667.794,15.727,15.727,0,0,0-2.491,1.33q-.6.388-1.166.829c-.235.183-.466.372-.692.57.256-.221.631-.529,1.129-.882a15.716,15.716,0,0,1,1.912-1.161,13.346,13.346,0,0,1,2.654-1.033,10.377,10.377,0,0,1,3.275-.356,9.254,9.254,0,0,1,1.766.274,9.643,9.643,0,0,1,1.757.648q.209.1.413.213l-.121.12-.235.232-.221.232-.417.438c-.259.289-.5.551-.712.793l-.562.65-.409.486c-.223.263-.345.4-.345.4l.494-.539.247-.27.253-.263c.169-.175.336-.352.507-.524l.517-.511c.4-.384.8-.759,1.22-1.121l0,0c-.416.361-.822.736-1.221,1.12l-.518.511c-.171.172-.338.35-.507.524l-.253.263-.247.269-.494.539s.124-.134.365-.377c.121-.12.269-.27.446-.442l.619-.578c.234-.214.5-.441.784-.693l.455-.378.24-.2.253-.2.3-.233a12.639,12.639,0,0,1,2.367,1.894q.367.37.714.769l.371.415c.124.144.263.276.4.412l.1.1c.034.034.071.065.107.1l.216.192c.07.066.15.123.226.183s.152.12.232.177a5.128,5.128,0,0,0,1.041.573,2.95,2.95,0,0,0,1.232.2,1.7,1.7,0,0,1,1.557,0,2.948,2.948,0,0,0,1.232-.2,5.143,5.143,0,0,0,1.042-.573c.08-.057.154-.118.232-.177s.156-.117.226-.183l.216-.192c.036-.032.073-.063.107-.1l.1-.1c.135-.136.273-.268.4-.412l.371-.415c.231-.267.47-.523.715-.769a12.627,12.627,0,0,1,2.366-1.894l.3.233.253.2.24.2.455.378c.285.252.55.479.784.693l.619.578c.178.171.325.321.446.442.241.243.365.377.365.377l-.495-.539-.247-.269-.253-.263c-.169-.174-.336-.352-.507-.524l-.518-.511c-.4-.384-.805-.759-1.221-1.12l0,0c.415.361.821.736,1.22,1.121l.518.511c.171.172.338.35.507.524l.253.263.247.27.494.539s-.123-.136-.346-.4l-.409-.486-.562-.65c-.212-.243-.453-.5-.712-.793l-.417-.438-.221-.232-.235-.232-.121-.12q.206-.112.414-.213a9.632,9.632,0,0,1,1.757-.648,9.248,9.248,0,0,1,1.766-.274,10.377,10.377,0,0,1,3.275.356,13.36,13.36,0,0,1,2.654,1.033,15.75,15.75,0,0,1,1.912,1.161c.5.353.873.661,1.129.882Q700.265,582.555,699.912,582.281Zm-18.42-4.731a4.977,4.977,0,0,1,1.362.245c.055.018.112.031.167.052l.164.061.164.061c.055.02.11.041.163.065.214.1.43.186.637.3a14.942,14.942,0,0,1,2.384,1.555q.147.116.293.234l0,0q-.145-.118-.292-.233a14.959,14.959,0,0,0-2.384-1.554c-.208-.113-.424-.2-.638-.3-.053-.025-.107-.045-.162-.065l-.164-.061-.164-.061c-.054-.021-.111-.034-.166-.052a4.961,4.961,0,0,0-1.361-.245,3.351,3.351,0,0,0-1.358.224c-.038.015-.074.032-.112.048l0,0c.038-.017.076-.034.115-.049A3.347,3.347,0,0,1,681.492,577.55Zm-3.866,5.614a4.8,4.8,0,0,0,.5,1.208c.038.065.079.128.121.191a2.313,2.313,0,0,1-.442-.1,4.1,4.1,0,0,1-.827-.417c-.068-.044-.133-.095-.2-.141s-.135-.092-.2-.147l-.194-.158c-.032-.027-.065-.052-.1-.08l-.094-.086c-.125-.116-.253-.227-.372-.353s-.239-.241-.372-.379q-.386-.4-.8-.775a12.965,12.965,0,0,0-2.245-1.649c.421-.3.872-.6,1.356-.884l.341-.2c.057-.034.115-.065.174-.094l.177-.092c.236-.128.483-.234.731-.35a7.3,7.3,0,0,1,1.569-.478,4.468,4.468,0,0,1,.812-.065c.067,0,.133.01.2.014a1.354,1.354,0,0,1,.2.023l.2.034c.064.016.127.036.191.053.032.009.065.016.1.028l.041.016-.051.063a4.36,4.36,0,0,0-.609,1.076,5.656,5.656,0,0,0-.327,1.209A6.182,6.182,0,0,0,677.625,583.164Zm1.182,1.156a3.377,3.377,0,0,1-.376-.645c-.056-.113-.095-.234-.141-.352-.021-.06-.038-.121-.057-.182s-.038-.121-.052-.184a5.488,5.488,0,0,1-.165-1.526,5.29,5.29,0,0,1,.257-1.509,3.888,3.888,0,0,1,.713-1.31l.044-.048,0,0-.044.049a3.879,3.879,0,0,0-.711,1.308,5.279,5.279,0,0,0-.257,1.507,5.469,5.469,0,0,0,.165,1.523c.013.062.033.123.052.183s.036.122.057.182c.047.117.085.239.141.351a3.335,3.335,0,0,0,.375.644c.045.061.093.117.143.173l-.007,0C678.9,584.437,678.852,584.38,678.807,584.321Zm.668-.163a2.934,2.934,0,0,1-.722-1.362,4.924,4.924,0,0,1-.1-1.939,3.777,3.777,0,0,1,.649-1.689c.053-.072.11-.14.168-.2.058.065.115.133.168.2a3.774,3.774,0,0,1,.649,1.689,4.92,4.92,0,0,1-.1,1.939A2.934,2.934,0,0,1,679.476,584.157Zm0-6.006,0,0,0,0,0,0Zm0,6.778.007,0,.007,0-.007,0Zm.527-.441c.05-.055.1-.112.143-.173a3.341,3.341,0,0,0,.375-.644c.056-.112.095-.234.141-.351.02-.06.038-.121.057-.182s.038-.121.052-.183a5.469,5.469,0,0,0,.165-1.523,5.277,5.277,0,0,0-.257-1.507,3.879,3.879,0,0,0-.711-1.308l-.044-.049,0,0,.043.048a3.883,3.883,0,0,1,.713,1.31,5.3,5.3,0,0,1,.257,1.509,5.479,5.479,0,0,1-.165,1.526c-.014.062-.033.123-.052.184s-.036.122-.057.182c-.047.118-.085.24-.142.352a3.343,3.343,0,0,1-.376.645c-.044.06-.092.117-.141.171Zm.833-.116a4.789,4.789,0,0,0,.5-1.208,6.184,6.184,0,0,0,.123-2.528,5.7,5.7,0,0,0-.327-1.209,4.375,4.375,0,0,0-.609-1.076l-.051-.063.041-.016c.03-.012.063-.019.095-.028.064-.017.127-.037.191-.053l.2-.034a1.356,1.356,0,0,1,.2-.023c.067,0,.134-.013.2-.014a4.465,4.465,0,0,1,.812.065,7.291,7.291,0,0,1,1.569.478c.248.115.5.221.731.35l.177.092c.059.03.118.06.175.094l.341.2c.484.285.935.584,1.356.884a12.962,12.962,0,0,0-2.246,1.649q-.409.369-.8.775c-.134.138-.25.255-.372.379s-.247.237-.372.353l-.094.086c-.032.028-.065.053-.1.08l-.194.158c-.064.056-.132.1-.2.147s-.133.1-.2.141a4.086,4.086,0,0,1-.827.417,2.317,2.317,0,0,1-.442.1C680.749,584.5,680.79,584.437,680.829,584.373Zm-8.409-4.485a14.939,14.939,0,0,1,2.384-1.555c.207-.113.423-.2.637-.3.053-.025.108-.045.163-.065l.164-.061.164-.061c.054-.021.111-.034.166-.052a4.975,4.975,0,0,1,1.362-.245,3.346,3.346,0,0,1,1.36.224c.039.015.077.032.115.049l0,0c-.037-.017-.074-.033-.112-.048a3.35,3.35,0,0,0-1.358-.224,4.96,4.96,0,0,0-1.361.245c-.055.018-.112.031-.166.052l-.164.061-.164.061c-.055.02-.109.04-.163.065-.214.1-.43.185-.637.3a14.934,14.934,0,0,0-2.384,1.554q-.147.115-.293.233l0,0Q672.271,580,672.419,579.888Zm-.632.514.005,0h0l-.005,0Zm5.846,4.643a4.509,4.509,0,0,1-1.224-.709l-.072-.054c-.023-.019-.046-.039-.069-.058l-.138-.117-.137-.117c-.046-.04-.088-.083-.132-.124l-.262-.252-.25-.266a15.85,15.85,0,0,0-2.109-1.988,12.151,12.151,0,0,0-1.2-.815l.005,0a12.035,12.035,0,0,1,1.2.813,15.82,15.82,0,0,1,2.11,1.988l.25.266.262.252c.044.041.086.085.132.125l.137.117.137.117c.023.019.046.04.069.058l.072.054a4.532,4.532,0,0,0,1.222.708,2.412,2.412,0,0,0,1.136.136l.009.007A2.4,2.4,0,0,1,677.633,585.046Zm8.076-3.685a15.9,15.9,0,0,0-2.108,1.988l-.25.266-.262.252c-.044.041-.087.085-.132.124l-.137.117-.138.117c-.023.02-.045.04-.068.058l-.072.054a4.512,4.512,0,0,1-1.223.709,2.4,2.4,0,0,1-1.146.137l.008-.007a2.412,2.412,0,0,0,1.136-.136,4.535,4.535,0,0,0,1.222-.708l.072-.054c.024-.018.046-.039.069-.058l.137-.117.137-.117c.046-.04.088-.083.132-.125l.262-.252.25-.266a15.825,15.825,0,0,1,2.11-1.988,12.035,12.035,0,0,1,1.2-.813l.005,0A12.177,12.177,0,0,0,685.709,581.361Zm1.451-.956,0,0h0l0,0Z" transform="translate(-657.943 -576.976)" fill="#575656"/>
        <path id="パス_2917-4" data-name="パス 2917" d="M1076.915,602.34l-.055.049Z" transform="translate(-1076.611 -596.378)" fill="#575656"/>
        <path id="パス_2918-4" data-name="パス 2918" d="M1075.878,602.873l.1-.088-.02.017Z" transform="translate(-1075.574 -596.91)" fill="#575656"/>
      </g>
      <path id="パス_2919-4" data-name="パス 2919" d="M742.671,776.133a8.73,8.73,0,0,1-4.057,1.38c-.03,0-.041.022-.036.038s.006.035.036.038a8.652,8.652,0,0,1,4.107,1.417.752.752,0,0,0,.8.033l.054-.031a.886.886,0,0,0,.446-.516,2.566,2.566,0,0,1,.216-.53.86.86,0,0,0,.015-.772,3.664,3.664,0,0,1-.232-.588.89.89,0,0,0-.444-.509l-.008,0A.867.867,0,0,0,742.671,776.133Z" transform="translate(-706.984 -750.681)" fill="#575656"/>
      <g id="グループ_594-4" data-name="グループ 594" transform="translate(37.535 2.867)">
        <path id="パス_2920-4" data-name="パス 2920" d="M684.4,1000.941l.079-.113-.063.09Z" transform="translate(-679.128 -1000.49)" fill="#575656"/>
        <path id="パス_2921-4" data-name="パス 2921" d="M684,1001.835l-.045.062Z" transform="translate(-678.611 -1001.558)" fill="#575656"/>
        <path id="パス_2922-4" data-name="パス 2922" d="M663.806,576.525q-.395.633-.743,1.3a19.356,19.356,0,0,0-1.193,2.778,16.464,16.464,0,0,0-.712,2.974,13.784,13.784,0,0,0-.091,3.074,12.814,12.814,0,0,0,.221,1.521,12.43,12.43,0,0,0,.4,1.473c.094.281.2.556.314.828l0,.005c-.114-.273-.22-.549-.315-.831a12.579,12.579,0,0,1-.4-1.474,12.956,12.956,0,0,1-.22-1.522,13.778,13.778,0,0,1,.092-3.075,16.415,16.415,0,0,1,.713-2.974,19.274,19.274,0,0,1,1.194-2.778q.349-.666.744-1.3c.2-.326.417-.647.642-.956l-.007.01c.068-.093.136-.186.207-.277l-.023.029c-.043.055-.145.188-.294.4-.2.283-.488.706-.825,1.267a21.328,21.328,0,0,0-1.108,2.1,18.637,18.637,0,0,0-1.069,2.938,15.425,15.425,0,0,0-.372,1.776,14.1,14.1,0,0,0-.159,1.955,13.046,13.046,0,0,0,.635,4.2q.14.43.311.852a19.347,19.347,0,0,0-1.141,1.721l-.217.379c-.037.064-.072.129-.106.2l-.1.2c-.144.265-.267.553-.4.841a9.853,9.853,0,0,0-.6,1.928,6.945,6.945,0,0,0-.126,1.1c0,.095,0,.191,0,.287a2.631,2.631,0,0,0,.014.291q.014.146.029.294c.015.1.034.2.052.3a1.663,1.663,0,0,1,0,1.938c-.018.1-.037.2-.052.3s-.019.2-.029.294a2.622,2.622,0,0,0-.014.291c0,.1,0,.192,0,.287a6.95,6.95,0,0,0,.126,1.1,9.85,9.85,0,0,0,.6,1.927c.132.289.256.576.4.842l.1.2c.034.067.069.133.106.2l.217.379a19.32,19.32,0,0,0,1.141,1.721q-.17.423-.311.852a13.051,13.051,0,0,0-.635,4.2,14.105,14.105,0,0,0,.159,1.955,15.435,15.435,0,0,0,.372,1.776,18.609,18.609,0,0,0,1.069,2.938,21.32,21.32,0,0,0,1.108,2.1c.337.561.624.984.825,1.267.149.21.251.343.294.4l.023.029c-.071-.091-.139-.183-.207-.277l.007.01c-.225-.309-.438-.629-.642-.956q-.4-.632-.744-1.3a19.269,19.269,0,0,1-1.194-2.778,16.41,16.41,0,0,1-.713-2.974,13.782,13.782,0,0,1-.092-3.075,12.943,12.943,0,0,1,.22-1.521,12.585,12.585,0,0,1,.4-1.474c.095-.281.2-.558.315-.83l0,.005c-.114.272-.219.547-.314.828a12.426,12.426,0,0,0-.4,1.473,12.809,12.809,0,0,0-.221,1.521,13.781,13.781,0,0,0,.091,3.073,16.462,16.462,0,0,0,.712,2.974,19.356,19.356,0,0,0,1.193,2.778q.349.666.743,1.3.246.393.511.772c-.2-.285-.474-.7-.791-1.259a18.686,18.686,0,0,1-1.041-2.132,17.278,17.278,0,0,1-.926-2.96,14.279,14.279,0,0,1-.319-3.653,12.324,12.324,0,0,1,.826-3.929q.091-.233.191-.461l.108.135.208.262.208.247.393.465c.259.289.494.558.711.794l.583.627.436.457c.236.248.358.385.358.385l-.484-.551-.242-.276-.236-.282c-.157-.188-.316-.375-.47-.565l-.459-.577q-.517-.666-1-1.36v0q.486.7,1.005,1.361l.458.577c.155.191.314.377.47.565l.236.282.242.276.483.552s-.12-.139-.338-.407c-.108-.134-.242-.3-.4-.5l-.518-.69c-.191-.261-.4-.557-.621-.875l-.339-.507-.178-.268-.178-.282q-.1-.163-.208-.333a14,14,0,0,1,1.7-2.639c.221-.273.451-.539.689-.8l.372-.413c.129-.138.248-.293.37-.444l.091-.113c.03-.039.058-.08.087-.12l.172-.241c.059-.079.11-.167.164-.252s.108-.17.159-.259a6.256,6.256,0,0,0,.514-1.162,4.031,4.031,0,0,0,.175-1.374,2.306,2.306,0,0,1,0-1.736,4.031,4.031,0,0,0-.175-1.374,6.255,6.255,0,0,0-.514-1.162c-.051-.089-.106-.173-.159-.259s-.105-.173-.164-.251l-.172-.241c-.029-.04-.057-.081-.087-.119l-.091-.113c-.122-.151-.241-.305-.37-.444l-.372-.413c-.239-.258-.468-.525-.689-.8a14.012,14.012,0,0,1-1.7-2.639c.07-.113.14-.224.208-.332l.178-.282.178-.268.339-.507c.225-.317.43-.614.621-.875l.518-.691c.154-.2.288-.363.4-.5.217-.269.338-.407.338-.407l-.483.551-.242.276-.236.282c-.156.189-.315.375-.47.566l-.458.577q-.517.667-1.005,1.361v0q.487-.694,1-1.36l.459-.577c.155-.191.314-.377.47-.565l.236-.282.242-.276.484-.551s-.121.137-.358.385l-.436.456-.583.627c-.218.236-.452.505-.711.8l-.393.464-.208.247-.208.262-.108.135q-.1-.229-.191-.461a12.323,12.323,0,0,1-.826-3.929,14.277,14.277,0,0,1,.319-3.652,17.264,17.264,0,0,1,.926-2.96,18.683,18.683,0,0,1,1.041-2.132c.316-.555.592-.974.79-1.258Q664.052,576.131,663.806,576.525Zm-4.242,20.542a6.751,6.751,0,0,1,.22-1.518c.016-.062.027-.125.046-.185l.055-.183.055-.183c.018-.061.036-.122.058-.181.086-.239.167-.48.267-.711a17.54,17.54,0,0,1,1.395-2.659c.069-.11.139-.219.21-.327v0q-.105.162-.209.326a17.508,17.508,0,0,0-1.393,2.658c-.1.231-.182.472-.268.711-.023.059-.04.12-.058.181l-.055.183-.055.183c-.019.06-.031.123-.047.185a6.755,6.755,0,0,0-.22,1.517,4.557,4.557,0,0,0,.2,1.515c.013.042.028.083.043.125l0,.005c-.015-.042-.031-.085-.044-.128A4.563,4.563,0,0,1,659.564,597.067Zm5.034,4.311a3.886,3.886,0,0,0,1.083-.554c.058-.043.115-.088.171-.136a3.171,3.171,0,0,1-.089.492,5.117,5.117,0,0,1-.374.922c-.039.075-.085.149-.126.223s-.082.15-.132.221l-.142.217c-.024.036-.046.073-.072.108l-.078.105c-.1.139-.2.282-.316.415s-.216.267-.34.416q-.362.431-.695.887a14.723,14.723,0,0,0-1.478,2.5c-.269-.47-.538-.973-.793-1.512l-.176-.38c-.03-.063-.058-.129-.085-.195l-.082-.2c-.115-.263-.21-.538-.313-.815a9.67,9.67,0,0,1-.429-1.75,6.157,6.157,0,0,1-.058-.905c0-.075.009-.149.013-.223a1.88,1.88,0,0,1,.02-.222c.01-.073.02-.146.03-.219s.032-.142.048-.214c.008-.035.014-.072.025-.106l.015-.046.057.057a3.791,3.791,0,0,0,.965.679,4.319,4.319,0,0,0,1.085.365A4.488,4.488,0,0,0,664.6,601.378Zm1.037-1.318a2.934,2.934,0,0,1-.579.42c-.1.063-.21.106-.315.158-.054.023-.109.042-.163.063a1.726,1.726,0,0,1-.165.058,4,4,0,0,1-1.368.184,3.906,3.906,0,0,1-1.354-.287,3.36,3.36,0,0,1-1.174-.795c-.015-.016-.029-.033-.043-.049l0-.005c.015.016.029.034.045.049a3.337,3.337,0,0,0,1.172.793,3.9,3.9,0,0,0,1.351.287,3.992,3.992,0,0,0,1.366-.185,1.565,1.565,0,0,0,.165-.057c.054-.021.109-.041.163-.064a3.455,3.455,0,0,0,.315-.158,2.911,2.911,0,0,0,.577-.419c.055-.05.105-.1.155-.16l0,.008C665.739,599.957,665.689,600.01,665.635,600.06Zm-.146-.745a2.519,2.519,0,0,1-1.221.8,3.575,3.575,0,0,1-1.739.106,3.029,3.029,0,0,1-1.515-.724,2.6,2.6,0,0,1-.184-.187c.058-.065.119-.128.184-.187a3.031,3.031,0,0,1,1.515-.724,3.583,3.583,0,0,1,1.739.106A2.527,2.527,0,0,1,665.489,599.315Zm-5.386.006,0-.006,0-.005,0,.005Zm6.078,0,0-.008,0-.008,0,.008Zm-.4-.587a2.179,2.179,0,0,0-.155-.16,2.935,2.935,0,0,0-.577-.419c-.1-.062-.21-.106-.315-.158-.054-.023-.109-.042-.163-.064a1.7,1.7,0,0,0-.165-.057,4,4,0,0,0-1.366-.184,3.9,3.9,0,0,0-1.351.286,3.346,3.346,0,0,0-1.172.794c-.015.016-.03.033-.045.05l0-.006.043-.049a3.355,3.355,0,0,1,1.174-.8,3.916,3.916,0,0,1,1.354-.287,4,4,0,0,1,1.368.184,1.613,1.613,0,0,1,.165.058c.054.021.109.041.163.063.105.052.214.1.315.158a2.942,2.942,0,0,1,.579.42,2.188,2.188,0,0,1,.153.158Zm-.1-.929a3.894,3.894,0,0,0-1.083-.554,4.491,4.491,0,0,0-2.267-.137,4.333,4.333,0,0,0-1.085.364,3.806,3.806,0,0,0-.965.679l-.057.057-.015-.045c-.011-.034-.016-.071-.025-.106-.016-.071-.034-.141-.048-.213s-.02-.147-.03-.219a1.872,1.872,0,0,1-.02-.222c0-.075-.011-.149-.013-.223a6.155,6.155,0,0,1,.058-.905,9.656,9.656,0,0,1,.429-1.75c.1-.277.2-.552.313-.815l.082-.2c.026-.066.054-.131.085-.195l.176-.38c.255-.54.524-1.043.793-1.512a14.742,14.742,0,0,0,1.478,2.5q.332.456.695.887c.124.149.229.28.34.415s.213.276.316.415l.078.105c.026.036.048.073.072.108l.142.217c.05.071.088.147.132.221s.087.148.126.223a5.136,5.136,0,0,1,.374.922,3.18,3.18,0,0,1,.089.492C665.8,597.895,665.739,597.849,665.682,597.806Zm-4.021,9.378a17.523,17.523,0,0,1-1.395-2.659c-.1-.231-.181-.472-.267-.711-.022-.059-.041-.121-.058-.181l-.055-.183-.055-.183c-.019-.061-.031-.124-.046-.186a6.746,6.746,0,0,1-.22-1.519,4.56,4.56,0,0,1,.2-1.517c.013-.043.029-.085.044-.128l0,.005c-.015.041-.03.083-.043.125a4.556,4.556,0,0,0-.2,1.515,6.754,6.754,0,0,0,.22,1.517c.016.062.028.125.047.186l.055.183.055.183c.018.061.036.122.058.181.086.239.166.48.268.711a17.487,17.487,0,0,0,1.393,2.659q.1.164.209.326v0Q661.764,607.349,661.66,607.185Zm.461.7,0-.006,0,0,0,.006Zm4.164-6.519a5.447,5.447,0,0,1-.635,1.364l-.048.08c-.017.026-.035.051-.052.077l-.105.153-.105.153c-.035.051-.074.1-.112.147l-.226.292-.239.279a16.712,16.712,0,0,0-1.783,2.352,14.07,14.07,0,0,0-.73,1.342l0-.006a14.138,14.138,0,0,1,.729-1.34,16.762,16.762,0,0,1,1.783-2.352l.239-.279.226-.292c.037-.049.076-.1.112-.147l.1-.153.105-.153c.017-.026.035-.051.052-.077l.048-.08a5.446,5.446,0,0,0,.635-1.363,3.283,3.283,0,0,0,.122-1.267l.007-.009A3.3,3.3,0,0,1,666.285,601.37Zm-3.3-9.007a16.688,16.688,0,0,0,1.783,2.351l.239.279.226.292c.037.049.076.1.112.147l.105.153.105.153c.017.026.035.05.052.077l.048.08a5.446,5.446,0,0,1,.635,1.365,3.3,3.3,0,0,1,.123,1.278l-.007-.009a3.284,3.284,0,0,0-.122-1.267,5.461,5.461,0,0,0-.635-1.363l-.048-.08c-.017-.026-.035-.051-.052-.077l-.105-.153-.1-.153c-.035-.051-.075-.1-.112-.147L665,595l-.239-.279a16.743,16.743,0,0,1-1.783-2.353,14.089,14.089,0,0,1-.729-1.339l0-.006A14.105,14.105,0,0,0,662.981,592.363Zm-.858-1.619,0,.006,0,0,0-.005Z" transform="translate(-659.049 -575.302)" fill="#575656"/>
        <path id="パス_2923-4" data-name="パス 2923" d="M683.958,577.777l.045.063Z" transform="translate(-678.611 -530.09)" fill="#575656"/>
        <path id="パス_2924-4" data-name="パス 2924" d="M684.475,578.447c-.026-.036-.052-.074-.078-.112l.015.023Z" transform="translate(-679.129 -530.76)" fill="#575656"/>
      </g>
      <path id="パス_2925-4" data-name="パス 2925" d="M694.7,617.381V566.256a.373.373,0,1,0-.741,0v50.67a.04.04,0,0,1-.037.042H648.486a.416.416,0,0,0,0,.827h45.843A.394.394,0,0,0,694.7,617.381Z" transform="translate(-648.115 -565.843)" fill="#575656"/>
    </g>
  </g>
  <text id="Milfeliceでは素肌に近いナチュラルメイクを心掛けています_作りこんだメイクよりも普段の私よりもちょっときれい_を目指し10年先も20年先もアルバムを開いたときに_美しい_と感じられるヘアメイクになるようお手伝いさせていただきます_" data-name="Milfeliceでは素肌に近いナチュラルメイクを心掛けています。作りこんだメイクよりも普段の私よりもちょっときれい♪を目指し10年先も20年先もアルバムを開いたときに「美しい」と感じられるヘアメイクになるようお手伝いさせていただきます。" transform="translate(21 86.219)" fill="#3a3a3a" font-size="12" font-family="YuGo-Medium, YuGothic" font-weight="500" letter-spacing="0.02em"><tspan x="0" y="11">Milfeliceでは素肌に近いナチュラルメイクを心掛けて</tspan><tspan x="0" y="32.6">います。作りこんだメイクよりも普段の私よりもちょ</tspan><tspan x="0" y="54.2">っときれい♪を目指し10年先も20年先もアルバムを開</tspan><tspan x="0" y="75.8">いたときに「美しい」と感じられるヘアメイクになる</tspan><tspan x="0" y="97.4">ようお手伝いさせていただきます。</tspan></text>
  <text id="いつもよりきれい_素肌に近い_ナチュラルメイク" data-name="いつもよりきれい、素肌に近い
ナチュラルメイク" transform="translate(170 25.219)" fill="#575656" font-size="16" font-family="YuGo-Bold, YuGothic" font-weight="700" letter-spacing="0.02em"><tspan x="-114.08" y="14">いつもよりきれい、素肌に近い</tspan><tspan x="-64.56" y="42.8">ナチュラルメイク</tspan></text>
</svg>
