<svg xmlns="http://www.w3.org/2000/svg" width="345.03" height="215" viewBox="0 0 345.03 215">
  <g id="グループ_1751" data-name="グループ 1751" transform="translate(-15 -1069.781)">
    <g id="グループ_874" data-name="グループ 874" transform="translate(15 1069.781)">
      <g id="グループ_583" data-name="グループ 583" transform="translate(0.642 138.515)">
        <g id="グループ_578" data-name="グループ 578" transform="translate(297.186)">
          <g id="グループ_577" data-name="グループ 577">
            <path id="パス_2909" data-name="パス 2909" d="M2878.953,1887.688v63.349h-42.36v-.95h38.932c1.542,0,2.792-1.871,2.792-4.177v-58.222Z" transform="translate(-2831.751 -1876.378)" fill="#575656"/>
            <g id="グループ_575" data-name="グループ 575" transform="translate(46.567)">
              <rect id="長方形_133" data-name="長方形 133" width="0.635" height="8.095" fill="#575656"/>
            </g>
            <g id="グループ_576" data-name="グループ 576" transform="translate(0 73.709)">
              <rect id="長方形_134" data-name="長方形 134" width="3.139" height="0.95" fill="#575656"/>
            </g>
          </g>
        </g>
        <g id="グループ_582" data-name="グループ 582">
          <g id="グループ_581" data-name="グループ 581">
            <path id="パス_2910" data-name="パス 2910" d="M611.051,1887.688v63.349h42.36v-.95H614.479c-1.542,0-2.793-1.871-2.793-4.177v-58.222Z" transform="translate(-611.051 -1876.378)" fill="#575656"/>
            <g id="グループ_579" data-name="グループ 579" transform="translate(0)">
              <rect id="長方形_135" data-name="長方形 135" width="0.635" height="8.095" fill="#575656"/>
            </g>
            <g id="グループ_580" data-name="グループ 580" transform="translate(44.064 73.709)">
              <rect id="長方形_136" data-name="長方形 136" width="3.139" height="0.95" fill="#575656"/>
            </g>
          </g>
        </g>
      </g>
      <g id="グループ_592" data-name="グループ 592" transform="translate(0.642 0.775)">
        <g id="グループ_587" data-name="グループ 587" transform="translate(297.186)">
          <g id="グループ_586" data-name="グループ 586">
            <path id="パス_2911" data-name="パス 2911" d="M2878.953,593.38V530.03h-42.36v.95h38.932c1.542,0,2.792,1.87,2.792,4.177V593.38Z" transform="translate(-2831.751 -530.03)" fill="#575656"/>
            <g id="グループ_584" data-name="グループ 584" transform="translate(46.567 66.564)">
              <rect id="長方形_137" data-name="長方形 137" width="0.635" height="8.095" fill="#575656"/>
            </g>
            <g id="グループ_585" data-name="グループ 585" transform="translate(0 0)">
              <rect id="長方形_138" data-name="長方形 138" width="3.139" height="0.95" fill="#575656"/>
            </g>
          </g>
        </g>
        <g id="グループ_591" data-name="グループ 591">
          <g id="グループ_590" data-name="グループ 590">
            <path id="パス_2912" data-name="パス 2912" d="M611.051,593.38V530.03h42.36v.95H614.479c-1.542,0-2.793,1.87-2.793,4.177V593.38Z" transform="translate(-611.051 -530.03)" fill="#575656"/>
            <g id="グループ_588" data-name="グループ 588" transform="translate(0 66.564)">
              <rect id="長方形_139" data-name="長方形 139" width="0.635" height="8.095" fill="#575656"/>
            </g>
            <g id="グループ_589" data-name="グループ 589" transform="translate(44.064 0)">
              <rect id="長方形_140" data-name="長方形 140" width="3.139" height="0.95" fill="#575656"/>
            </g>
          </g>
        </g>
      </g>
      <g id="グループ_610" data-name="グループ 610" transform="translate(0 78.654)">
        <rect id="長方形_142" data-name="長方形 142" width="0.642" height="56.666" transform="translate(0 0)" fill="#575656"/>
      </g>
      <g id="グループ_612" data-name="グループ 612" transform="translate(55.268 212.225)">
        <rect id="長方形_144" data-name="長方形 144" width="237.909" height="0.95" transform="translate(0)" fill="#575656"/>
      </g>
      <rect id="長方形_7" data-name="長方形 7" width="343.999" height="215" transform="translate(0.704 0)" fill="none"/>
      <rect id="長方形_143" data-name="長方形 143" width="257.642" height="0.95" transform="translate(35.535 0.775)" fill="#575656"/>
      <g id="グループ_595" data-name="グループ 595" transform="translate(4.349 4.639)">
        <path id="パス_2913" data-name="パス 2913" d="M855.175,659.68a10.106,10.106,0,0,1,1.237,4.222c0,.031.02.042.034.037s.031-.006.034-.037a10,10,0,0,1,1.271-4.273.889.889,0,0,0,.029-.832l-.028-.056a.838.838,0,0,0-.462-.464,2.145,2.145,0,0,1-.475-.224.678.678,0,0,0-.692-.016,2.994,2.994,0,0,1-.527.242.84.84,0,0,0-.457.462l0,.008A1.025,1.025,0,0,0,855.175,659.68Z" transform="translate(-833.92 -648.342)" fill="#575656"/>
        <g id="グループ_593" data-name="グループ 593" transform="translate(1.003 1.161)">
          <path id="パス_2914" data-name="パス 2914" d="M661.018,602.863l-.1-.082.081.066Z" transform="translate(-660.613 -600.089)" fill="#575656"/>
          <path id="パス_2915" data-name="パス 2915" d="M660.372,602.338l.056.046Z" transform="translate(-660.124 -599.692)" fill="#575656"/>
          <path id="パス_2916" data-name="パス 2916" d="M659.039,580.281q.568.411,1.166.773A16.121,16.121,0,0,0,662.7,582.3a13.092,13.092,0,0,0,2.667.741,10.678,10.678,0,0,0,2.756.094,9.818,9.818,0,0,0,2.685-.65c.252-.1.5-.208.742-.326l0,0c-.244.119-.492.229-.745.328a9.841,9.841,0,0,1-2.686.65,10.69,10.69,0,0,1-2.757-.1,13.079,13.079,0,0,1-2.667-.742,16.186,16.186,0,0,1-2.491-1.242q-.6-.363-1.165-.774c-.293-.213-.58-.433-.857-.668l.009.008q-.126-.106-.248-.215l.026.024c.049.044.168.15.357.306.254.209.634.508,1.136.859a18.55,18.55,0,0,0,1.883,1.153,15.314,15.314,0,0,0,2.635,1.112,12.3,12.3,0,0,0,1.593.387,11,11,0,0,0,1.753.165,10.336,10.336,0,0,0,1.866-.144,10.527,10.527,0,0,0,1.9-.517q.385-.145.764-.324a17.38,17.38,0,0,0,1.544,1.187l.34.225c.057.039.116.075.176.11l.18.108c.238.149.5.278.755.415a7.967,7.967,0,0,0,1.728.627,5.388,5.388,0,0,0,.982.131c.085,0,.171,0,.258,0a2.026,2.026,0,0,0,.26-.014l.264-.03c.088-.015.176-.036.265-.054a1.328,1.328,0,0,1,1.738,0c.089.018.177.039.265.054l.263.03a2.033,2.033,0,0,0,.261.014c.086,0,.173,0,.258,0a5.4,5.4,0,0,0,.983-.131,7.973,7.973,0,0,0,1.728-.627c.259-.137.517-.266.755-.415l.18-.108c.06-.035.119-.071.176-.11l.34-.225a17.237,17.237,0,0,0,1.543-1.187q.379.178.764.324a10.526,10.526,0,0,0,1.9.517,10.336,10.336,0,0,0,1.866.144,10.992,10.992,0,0,0,1.753-.165,12.277,12.277,0,0,0,1.593-.387,15.3,15.3,0,0,0,2.635-1.112,18.46,18.46,0,0,0,1.883-1.153c.5-.351.883-.649,1.137-.859.188-.155.307-.262.357-.306l.026-.024c-.081.073-.164.145-.248.216l.009-.008c-.277.235-.564.455-.857.668q-.567.411-1.165.774a16.206,16.206,0,0,1-2.491,1.242,13.081,13.081,0,0,1-2.667.742,10.7,10.7,0,0,1-2.757.1,10.073,10.073,0,0,1-1.364-.23,9.965,9.965,0,0,1-1.321-.42c-.253-.1-.5-.209-.745-.328l0,0c.243.118.49.228.742.326a9.817,9.817,0,0,0,2.685.65,10.678,10.678,0,0,0,2.756-.094,13.09,13.09,0,0,0,2.667-.741,16.135,16.135,0,0,0,2.491-1.241q.6-.362,1.166-.773c.235-.171.466-.348.692-.532-.256.206-.631.493-1.129.823a15.971,15.971,0,0,1-1.912,1.083,13.937,13.937,0,0,1-2.654.963,11.088,11.088,0,0,1-3.275.332,9.871,9.871,0,0,1-1.766-.256,10.1,10.1,0,0,1-1.757-.6q-.209-.094-.413-.2l.121-.112.235-.216.221-.216.417-.408c.259-.27.5-.514.712-.74l.562-.607.409-.453c.223-.245.345-.372.345-.372l-.494.5-.247.252-.253.245c-.169.163-.336.328-.507.489l-.517.477q-.6.538-1.22,1.046h0c.416-.337.822-.687,1.221-1.045l.518-.477c.171-.161.338-.326.507-.489l.253-.245.247-.251.494-.5s-.124.125-.365.352c-.121.112-.269.252-.446.412l-.619.539c-.234.2-.5.411-.784.646l-.455.353-.24.186-.253.185-.3.217a12.534,12.534,0,0,1-2.367-1.767q-.367-.345-.714-.717l-.371-.387c-.124-.134-.263-.258-.4-.385l-.1-.095c-.034-.031-.071-.06-.107-.09l-.216-.179c-.07-.062-.15-.114-.226-.171s-.152-.112-.232-.165a5.249,5.249,0,0,0-1.041-.535,3.143,3.143,0,0,0-1.232-.182,1.8,1.8,0,0,1-1.557,0,3.141,3.141,0,0,0-1.232.182,5.265,5.265,0,0,0-1.042.535c-.08.053-.154.11-.232.165s-.156.109-.226.171l-.216.179c-.036.03-.073.059-.107.09l-.1.095c-.135.127-.273.25-.4.385l-.371.387c-.231.249-.47.487-.715.717a12.521,12.521,0,0,1-2.366,1.767l-.3-.217-.253-.185-.24-.186-.455-.353c-.285-.235-.55-.447-.784-.646l-.619-.539c-.178-.16-.325-.3-.446-.412-.241-.227-.365-.352-.365-.352l.495.5.247.251.253.245c.169.163.336.328.507.489l.518.477c.4.358.805.708,1.221,1.045h0q-.623-.506-1.22-1.046l-.518-.477c-.171-.161-.338-.326-.507-.489l-.253-.245-.247-.252-.494-.5s.123.127.346.372l.409.453.562.607c.212.226.453.47.712.74l.417.408.221.216.235.216.121.112q-.206.1-.414.2a10.083,10.083,0,0,1-1.757.6,9.865,9.865,0,0,1-1.766.256,11.089,11.089,0,0,1-3.275-.332,13.953,13.953,0,0,1-2.654-.963,16.005,16.005,0,0,1-1.912-1.083c-.5-.33-.873-.616-1.129-.823Q658.686,580.026,659.039,580.281Zm18.42,4.414a5.3,5.3,0,0,1-1.362-.229c-.055-.017-.112-.029-.167-.049l-.164-.057-.164-.057c-.055-.019-.11-.038-.163-.061-.214-.089-.43-.173-.637-.278a15.092,15.092,0,0,1-2.384-1.451q-.147-.108-.293-.219h0q.145.11.292.217a15.114,15.114,0,0,0,2.384,1.449c.208.105.424.188.638.278.053.023.107.042.162.061l.164.057.164.057c.054.02.111.032.166.048a5.282,5.282,0,0,0,1.361.229,3.568,3.568,0,0,0,1.358-.209c.038-.014.074-.029.112-.045l0,0c-.038.016-.076.032-.115.046A3.564,3.564,0,0,1,677.459,584.695Zm3.866-5.237a4.313,4.313,0,0,0-.5-1.127c-.038-.06-.079-.12-.121-.178a2.452,2.452,0,0,1,.442.094,4.22,4.22,0,0,1,.827.389c.068.041.133.088.2.131s.135.085.2.137l.194.148c.032.025.065.049.1.075l.094.08c.125.108.253.211.372.329s.239.224.372.353q.386.377.8.723a12.961,12.961,0,0,0,2.245,1.538c-.421.28-.872.559-1.356.825l-.341.183c-.057.032-.115.061-.174.088l-.177.086c-.236.12-.483.219-.731.326a7.7,7.7,0,0,1-1.569.446,4.784,4.784,0,0,1-.812.06c-.067,0-.133-.01-.2-.013a1.441,1.441,0,0,1-.2-.021l-.2-.032c-.064-.015-.127-.033-.191-.049-.032-.009-.065-.015-.1-.026l-.041-.015.051-.059a4,4,0,0,0,.609-1,5,5,0,0,0,.327-1.128A5.391,5.391,0,0,0,681.326,579.457Zm-1.182-1.079a3.106,3.106,0,0,1,.376.6c.056.1.095.219.141.328.021.056.038.113.057.17s.038.113.052.172a4.793,4.793,0,0,1,.165,1.423,4.637,4.637,0,0,1-.257,1.408,3.561,3.561,0,0,1-.713,1.222l-.044.045,0,0,.044-.046a3.552,3.552,0,0,0,.711-1.22,4.626,4.626,0,0,0,.257-1.406,4.776,4.776,0,0,0-.165-1.421c-.013-.058-.033-.115-.052-.171s-.036-.114-.057-.17c-.047-.109-.085-.223-.141-.327a3.068,3.068,0,0,0-.375-.6c-.045-.057-.093-.11-.143-.161l.007,0C680.051,578.27,680.1,578.323,680.143,578.378Zm-.668.152a2.685,2.685,0,0,1,.722,1.271,4.294,4.294,0,0,1,.1,1.809,3.388,3.388,0,0,1-.649,1.576c-.053.067-.11.13-.168.191-.058-.061-.115-.124-.168-.191a3.386,3.386,0,0,1-.649-1.576,4.29,4.29,0,0,1,.1-1.809A2.685,2.685,0,0,1,679.475,578.531Zm0,5.6,0,0,0,0,0,0Zm0-6.323-.007,0-.007,0,.007,0Zm-.527.411c-.05.051-.1.1-.143.161a3.074,3.074,0,0,0-.375.6c-.056.1-.095.218-.141.327-.02.056-.038.113-.057.17s-.038.113-.052.171a4.776,4.776,0,0,0-.165,1.421,4.624,4.624,0,0,0,.257,1.406,3.552,3.552,0,0,0,.711,1.22l.044.046,0,0-.043-.045a3.556,3.556,0,0,1-.713-1.222,4.644,4.644,0,0,1-.257-1.408,4.785,4.785,0,0,1,.165-1.423c.014-.058.033-.115.052-.172s.036-.114.057-.17c.047-.11.085-.223.142-.328a3.075,3.075,0,0,1,.376-.6c.044-.056.092-.109.141-.159Zm-.833.108a4.3,4.3,0,0,0-.5,1.127,5.393,5.393,0,0,0-.123,2.358,5.034,5.034,0,0,0,.327,1.128,4.018,4.018,0,0,0,.609,1l.051.059-.041.015c-.03.011-.063.017-.095.026-.064.016-.127.035-.191.049l-.2.032a1.443,1.443,0,0,1-.2.021c-.067,0-.134.012-.2.013a4.781,4.781,0,0,1-.812-.06,7.685,7.685,0,0,1-1.569-.446c-.248-.107-.5-.206-.731-.326l-.177-.086c-.059-.028-.118-.056-.175-.088l-.341-.183c-.484-.266-.935-.545-1.356-.825a12.958,12.958,0,0,0,2.246-1.538q.409-.345.8-.723c.134-.129.25-.238.372-.353s.247-.222.372-.329l.094-.08c.032-.026.065-.05.1-.075l.194-.148c.064-.052.132-.092.2-.137s.133-.09.2-.131a4.211,4.211,0,0,1,.827-.389,2.456,2.456,0,0,1,.442-.094C678.2,578.21,678.161,578.27,678.122,578.33Zm8.409,4.184a15.089,15.089,0,0,1-2.384,1.451c-.207.1-.423.189-.637.278-.053.023-.108.042-.163.061l-.164.057-.164.057c-.054.019-.111.032-.166.049a5.3,5.3,0,0,1-1.362.229,3.563,3.563,0,0,1-1.36-.209c-.039-.014-.077-.03-.115-.046l0,0c.037.015.074.031.112.045a3.567,3.567,0,0,0,1.358.209,5.282,5.282,0,0,0,1.361-.229c.055-.016.112-.029.166-.048l.164-.057.164-.057c.055-.019.109-.037.163-.061.214-.089.43-.173.637-.278a15.089,15.089,0,0,0,2.384-1.449q.147-.107.293-.217h0Q686.68,582.405,686.532,582.513Zm.632-.48-.005,0h0l.005,0Zm-5.846-4.332a4.6,4.6,0,0,1,1.224.661l.072.05c.023.017.046.036.069.055l.138.109.137.109c.046.037.088.078.132.116l.262.235.25.248a15.462,15.462,0,0,0,2.109,1.855,12.235,12.235,0,0,0,1.2.76l-.005,0a12.113,12.113,0,0,1-1.2-.759,15.432,15.432,0,0,1-2.11-1.855l-.25-.248-.262-.235c-.044-.039-.086-.079-.132-.116l-.137-.109-.137-.109c-.023-.018-.046-.037-.069-.054l-.072-.05a4.621,4.621,0,0,0-1.222-.661,2.574,2.574,0,0,0-1.136-.127l-.009-.006A2.556,2.556,0,0,1,681.318,577.7Zm-8.076,3.438a15.507,15.507,0,0,0,2.108-1.855l.25-.248.262-.235c.044-.039.087-.079.132-.116l.137-.109.138-.109c.023-.018.045-.037.068-.055l.072-.05a4.6,4.6,0,0,1,1.223-.661,2.556,2.556,0,0,1,1.146-.128l-.008.006a2.574,2.574,0,0,0-1.136.127,4.623,4.623,0,0,0-1.222.661l-.072.05c-.024.017-.046.036-.069.054l-.137.109-.137.109c-.046.037-.088.078-.132.116l-.262.235-.25.248a15.437,15.437,0,0,1-2.11,1.855,12.113,12.113,0,0,1-1.2.759l-.005,0A12.261,12.261,0,0,0,673.242,581.14Zm-1.451.892,0,0h0l0,0Z" transform="translate(-657.943 -576.976)" fill="#575656"/>
          <path id="パス_2917" data-name="パス 2917" d="M1076.859,602.386l.055-.046Z" transform="translate(-1034.098 -599.694)" fill="#575656"/>
          <path id="パス_2918" data-name="パス 2918" d="M1075.978,602.785l-.1.082.02-.016Z" transform="translate(-1033.217 -600.093)" fill="#575656"/>
        </g>
        <path id="パス_2919" data-name="パス 2919" d="M740.24,778.789A9.164,9.164,0,0,1,744.3,777.5c.03,0,.041-.02.036-.035s-.006-.033-.036-.036a9.076,9.076,0,0,1-4.107-1.322.8.8,0,0,0-.8-.031l-.054.029a.844.844,0,0,0-.446.481,2.307,2.307,0,0,1-.216.494.755.755,0,0,0-.015.72,3.287,3.287,0,0,1,.232.548.848.848,0,0,0,.444.475l.008,0A.92.92,0,0,0,740.24,778.789Z" transform="translate(-729.342 -754.067)" fill="#575656"/>
        <g id="グループ_594" data-name="グループ 594" transform="translate(1.116 0.987)">
          <path id="パス_2920" data-name="パス 2920" d="M684.475,1000.828l-.079.105.063-.084Z" transform="translate(-681.809 -956.444)" fill="#575656"/>
          <path id="パス_2921" data-name="パス 2921" d="M683.958,1001.893l.045-.058Z" transform="translate(-681.415 -957.346)" fill="#575656"/>
          <path id="パス_2922" data-name="パス 2922" d="M662.226,618.965q.395-.59.743-1.213a17.436,17.436,0,0,0,1.193-2.592,14.506,14.506,0,0,0,.712-2.774,12,12,0,0,0,.091-2.867,11.2,11.2,0,0,0-.221-1.419,10.989,10.989,0,0,0-.4-1.374c-.094-.262-.2-.519-.314-.772l0-.005c.114.254.22.512.315.775a11.12,11.12,0,0,1,.4,1.375,11.329,11.329,0,0,1,.22,1.42,12,12,0,0,1-.092,2.868,14.464,14.464,0,0,1-.713,2.775,17.369,17.369,0,0,1-1.194,2.591q-.349.621-.744,1.212c-.2.3-.417.6-.642.892l.007-.009c-.068.087-.136.173-.207.258l.023-.027c.043-.051.145-.175.294-.371.2-.264.488-.659.825-1.182a19.478,19.478,0,0,0,1.108-1.959,16.655,16.655,0,0,0,1.069-2.741,13.551,13.551,0,0,0,.372-1.657,12.293,12.293,0,0,0,.159-1.824,11.421,11.421,0,0,0-.635-3.918q-.14-.4-.311-.795a18,18,0,0,0,1.141-1.606l.217-.353c.037-.059.072-.12.106-.183l.1-.188c.144-.248.267-.516.4-.785a8.752,8.752,0,0,0,.6-1.8,6.064,6.064,0,0,0,.126-1.022c0-.088,0-.178,0-.268a2.292,2.292,0,0,0-.014-.272q-.014-.136-.029-.274c-.015-.091-.034-.183-.052-.275a1.468,1.468,0,0,1,0-1.808c.018-.092.037-.184.052-.275s.019-.183.029-.274a2.283,2.283,0,0,0,.014-.271c0-.09,0-.18,0-.268a6.067,6.067,0,0,0-.126-1.022,8.748,8.748,0,0,0-.6-1.8c-.132-.27-.256-.537-.4-.785l-.1-.187c-.034-.062-.069-.124-.106-.183l-.217-.353a17.977,17.977,0,0,0-1.141-1.606q.17-.394.311-.795a11.741,11.741,0,0,0,.5-1.978,11.611,11.611,0,0,0,.139-1.941,12.3,12.3,0,0,0-.159-1.824,13.563,13.563,0,0,0-.372-1.657,16.63,16.63,0,0,0-1.069-2.741,19.469,19.469,0,0,0-1.108-1.959c-.337-.524-.624-.918-.825-1.182-.149-.2-.251-.32-.294-.371l-.023-.027c.071.085.139.171.207.258l-.007-.01c.225.288.438.587.642.891q.4.59.744,1.212a17.361,17.361,0,0,1,1.194,2.592,14.459,14.459,0,0,1,.713,2.774,12,12,0,0,1,.092,2.869,11.319,11.319,0,0,1-.22,1.419,11.124,11.124,0,0,1-.4,1.375c-.095.263-.2.521-.315.775l0,0c.114-.253.219-.51.314-.772a10.986,10.986,0,0,0,.4-1.374,11.2,11.2,0,0,0,.221-1.419,12,12,0,0,0-.091-2.867,14.5,14.5,0,0,0-.712-2.774,17.438,17.438,0,0,0-1.193-2.592q-.349-.621-.743-1.213-.246-.367-.511-.72c.2.266.474.656.791,1.174a16.975,16.975,0,0,1,1.041,1.989,15.346,15.346,0,0,1,.926,2.761,12.457,12.457,0,0,1,.319,3.407,11.02,11.02,0,0,1-.246,1.837,11.15,11.15,0,0,1-.58,1.828q-.091.217-.191.43l-.108-.126-.208-.244-.208-.23-.393-.434c-.259-.27-.494-.521-.711-.741l-.583-.585-.436-.426c-.236-.232-.358-.359-.358-.359l.484.514.242.257.236.263c.157.176.316.349.47.527l.459.538q.517.621,1,1.269v0q-.486-.648-1.005-1.27l-.458-.539c-.155-.178-.314-.351-.47-.527l-.236-.263-.242-.257L660.77,586s.12.13.338.38c.108.125.242.279.4.464l.518.644c.191.244.4.519.621.816l.339.473.178.25.178.263q.1.152.208.311a12.991,12.991,0,0,1-1.7,2.462c-.221.254-.451.5-.689.744l-.372.385c-.129.129-.248.274-.37.414l-.091.106c-.03.036-.058.074-.087.112l-.172.225c-.059.073-.11.156-.164.235s-.108.159-.159.242a5.649,5.649,0,0,0-.514,1.084,3.525,3.525,0,0,0-.175,1.282,2.018,2.018,0,0,1,0,1.62,3.525,3.525,0,0,0,.175,1.282,5.648,5.648,0,0,0,.514,1.084c.051.083.106.161.159.242s.105.162.164.234l.172.225c.029.037.057.076.087.111l.091.106c.122.141.241.285.37.414l.372.385c.239.24.468.489.689.743a13,13,0,0,1,1.7,2.462c-.07.105-.14.209-.208.31l-.178.263-.178.25-.339.473c-.225.3-.43.572-.621.816l-.518.644c-.154.185-.288.339-.4.464-.217.251-.338.38-.338.38l.483-.514.242-.257.236-.263c.156-.176.315-.35.47-.528l.458-.539q.517-.622,1.005-1.27v0q-.487.648-1,1.269l-.459.538c-.155.178-.314.352-.47.527l-.236.263-.242.257-.484.514s.121-.128.358-.359l.436-.426.583-.585c.218-.221.452-.471.711-.742l.393-.433.208-.23.208-.244.108-.126q.1.214.191.43a11.167,11.167,0,0,1,.58,1.828,11.019,11.019,0,0,1,.246,1.837,12.455,12.455,0,0,1-.319,3.407,15.333,15.333,0,0,1-.926,2.761,16.968,16.968,0,0,1-1.041,1.989c-.316.518-.592.908-.79,1.174Q661.98,619.333,662.226,618.965Zm4.242-19.164a5.905,5.905,0,0,1-.22,1.417c-.016.058-.027.116-.046.173l-.055.171-.055.171c-.018.057-.036.114-.058.169-.086.223-.167.448-.267.664a16.012,16.012,0,0,1-1.395,2.48c-.069.1-.139.2-.21.305v0q.105-.151.209-.3a15.981,15.981,0,0,0,1.393-2.48c.1-.216.182-.441.268-.663.023-.055.04-.112.058-.169l.055-.171.055-.171c.019-.056.031-.115.047-.173a5.908,5.908,0,0,0,.22-1.416,3.986,3.986,0,0,0-.2-1.413c-.013-.039-.028-.078-.043-.116l0,0c.015.039.031.079.044.119A3.99,3.99,0,0,1,666.468,599.8Zm-5.034-4.022a4,4,0,0,0-1.083.517c-.058.04-.115.082-.171.127a2.781,2.781,0,0,1,.089-.459,4.6,4.6,0,0,1,.374-.86c.039-.07.085-.139.126-.208s.082-.14.132-.207l.142-.2c.024-.034.046-.068.072-.1l.078-.1c.1-.13.2-.263.316-.387s.216-.249.34-.388q.362-.4.695-.828a13.56,13.56,0,0,0,1.478-2.336c.269.438.538.908.793,1.411l.176.355c.03.059.058.12.085.182l.082.185c.115.245.21.5.313.76a8.525,8.525,0,0,1,.429,1.632,5.364,5.364,0,0,1,.058.844c0,.07-.009.139-.013.208a1.639,1.639,0,0,1-.02.207c-.01.068-.02.136-.03.2s-.032.133-.048.2c-.008.033-.014.067-.025.1l-.015.043-.057-.053a3.8,3.8,0,0,0-.965-.633,4.537,4.537,0,0,0-1.085-.34A4.8,4.8,0,0,0,661.433,595.779Zm-1.037,1.23a2.935,2.935,0,0,1,.579-.392c.1-.059.21-.1.315-.147.054-.021.109-.04.163-.059s.109-.04.165-.054a4.267,4.267,0,0,1,1.368-.172,4.149,4.149,0,0,1,1.354.267,3.382,3.382,0,0,1,1.174.742l.043.046,0,0c-.015-.015-.029-.031-.045-.046a3.359,3.359,0,0,0-1.172-.74,4.146,4.146,0,0,0-1.351-.267,4.261,4.261,0,0,0-1.366.172,1.643,1.643,0,0,0-.165.054c-.054.02-.109.038-.163.059-.105.048-.214.089-.315.147a2.914,2.914,0,0,0-.577.391c-.055.047-.105.1-.155.149l0-.007C660.293,597.105,660.343,597.056,660.4,597.009Zm.146.695a2.538,2.538,0,0,1,1.221-.751,3.821,3.821,0,0,1,1.739-.1,3.125,3.125,0,0,1,1.515.675,2.517,2.517,0,0,1,.184.175c-.058.06-.119.12-.184.175a3.126,3.126,0,0,1-1.515.675,3.831,3.831,0,0,1-1.739-.1A2.547,2.547,0,0,1,660.543,597.7Zm5.386-.005,0,.005,0,0,0,0Zm-6.078,0,0,.007,0,.007,0-.007Zm.4.548a2.112,2.112,0,0,0,.155.149,2.936,2.936,0,0,0,.577.391c.1.058.21.1.315.147.054.021.109.039.163.059s.109.039.165.054a4.267,4.267,0,0,0,1.366.172,4.145,4.145,0,0,0,1.351-.267,3.367,3.367,0,0,0,1.172-.741c.015-.015.03-.031.045-.046l0,.005-.043.045a3.376,3.376,0,0,1-1.174.742,4.159,4.159,0,0,1-1.354.267,4.274,4.274,0,0,1-1.368-.172,1.7,1.7,0,0,1-.165-.054c-.054-.02-.109-.038-.163-.059-.105-.049-.214-.089-.315-.147a2.944,2.944,0,0,1-.579-.392,2.111,2.111,0,0,1-.153-.147Zm.1.867a4,4,0,0,0,1.083.517,4.8,4.8,0,0,0,2.267.128,4.55,4.55,0,0,0,1.085-.34,3.819,3.819,0,0,0,.965-.634l.057-.053.015.042c.011.032.016.066.025.1.016.066.034.132.048.2s.02.137.03.2a1.633,1.633,0,0,1,.02.207c0,.07.011.139.013.208a5.363,5.363,0,0,1-.058.845,8.512,8.512,0,0,1-.429,1.632c-.1.258-.2.515-.313.761l-.082.185c-.026.062-.054.122-.085.182l-.176.355c-.255.5-.524.973-.793,1.411a13.579,13.579,0,0,0-1.478-2.336q-.332-.426-.695-.828c-.124-.139-.229-.261-.34-.388s-.213-.257-.316-.387l-.078-.1c-.026-.033-.048-.068-.072-.1l-.142-.2c-.05-.066-.088-.137-.132-.206s-.087-.138-.126-.208a4.611,4.611,0,0,1-.374-.86,2.789,2.789,0,0,1-.089-.459C660.236,599.029,660.293,599.072,660.35,599.112Zm4.021-8.749a16,16,0,0,1,1.395,2.48c.1.216.181.441.267.663.022.055.041.112.058.169l.055.17.055.171c.019.057.031.116.046.173a5.9,5.9,0,0,1,.22,1.417,3.988,3.988,0,0,1-.2,1.415c-.013.04-.029.08-.044.12l0-.005c.015-.039.03-.077.043-.117a3.985,3.985,0,0,0,.2-1.413,5.907,5.907,0,0,0-.22-1.415c-.016-.057-.028-.117-.047-.173l-.055-.171-.055-.17c-.018-.057-.036-.114-.058-.169-.086-.223-.166-.447-.268-.663a15.961,15.961,0,0,0-1.393-2.48q-.1-.153-.209-.3v0Q664.268,590.209,664.371,590.363Zm-.461-.657,0,.005,0,0,0-.005Zm-4.164,6.082a4.933,4.933,0,0,1,.635-1.273l.048-.075c.017-.024.035-.048.052-.072l.105-.143.105-.143c.035-.047.074-.091.112-.137l.226-.272.239-.26a15.749,15.749,0,0,0,1.783-2.194,12.88,12.88,0,0,0,.73-1.252l0,.006a12.938,12.938,0,0,1-.729,1.25,15.794,15.794,0,0,1-1.783,2.194l-.239.26-.226.272c-.037.046-.076.09-.112.137l-.1.142-.105.143c-.017.024-.035.047-.052.072l-.048.075a4.932,4.932,0,0,0-.635,1.271,2.867,2.867,0,0,0-.122,1.182l-.007.008A2.881,2.881,0,0,1,659.746,595.787Zm3.3,8.4A15.728,15.728,0,0,0,661.269,602l-.239-.26-.226-.272c-.037-.046-.076-.09-.112-.138l-.105-.143-.105-.143c-.017-.024-.035-.047-.052-.072l-.048-.075a4.932,4.932,0,0,1-.635-1.273,2.88,2.88,0,0,1-.123-1.192l.007.008a2.868,2.868,0,0,0,.122,1.182,4.945,4.945,0,0,0,.635,1.271l.048.075c.017.024.035.048.052.072l.105.143.1.143c.035.047.075.091.112.137l.226.272.239.26a15.777,15.777,0,0,1,1.783,2.195,12.9,12.9,0,0,1,.729,1.25l0,.006A12.913,12.913,0,0,0,663.051,604.19Zm.858,1.51,0-.005,0,0,0,0Z" transform="translate(-659.049 -575.302)" fill="#575656"/>
          <path id="パス_2923" data-name="パス 2923" d="M684,577.835l-.045-.058Z" transform="translate(-681.415 -577.519)" fill="#575656"/>
          <path id="パス_2924" data-name="パス 2924" d="M684.4,578.335c.026.034.052.069.078.1l-.015-.021Z" transform="translate(-681.809 -578.018)" fill="#575656"/>
        </g>
        <path id="パス_2925" data-name="パス 2925" d="M648.115,566.228v47.7a.371.371,0,1,0,.741,0V566.653a.038.038,0,0,1,.037-.039h45.435a.386.386,0,0,0,0-.771H648.485A.379.379,0,0,0,648.115,566.228Z" transform="translate(-648.115 -565.843)" fill="#575656"/>
      </g>
      <g id="グループ_1613" data-name="グループ 1613" transform="translate(294.349 4.639)">
        <path id="パス_2913-2" data-name="パス 2913" d="M857.737,659.68A10.106,10.106,0,0,0,856.5,663.9c0,.031-.02.042-.034.037s-.031-.006-.034-.037a10,10,0,0,0-1.271-4.273.889.889,0,0,1-.029-.832l.028-.056a.838.838,0,0,1,.462-.464,2.145,2.145,0,0,0,.475-.224.678.678,0,0,1,.692-.016,2.994,2.994,0,0,0,.527.242.84.84,0,0,1,.457.462l0,.008A1.025,1.025,0,0,1,857.737,659.68Z" transform="translate(-832.407 -648.342)" fill="#575656"/>
        <g id="グループ_593-2" data-name="グループ 593" transform="translate(2.517 1.161)">
          <path id="パス_2914-2" data-name="パス 2914" d="M660.917,602.863l.1-.082-.081.066Z" transform="translate(-618.256 -600.089)" fill="#575656"/>
          <path id="パス_2915-2" data-name="パス 2915" d="M660.428,602.338l-.056.046Z" transform="translate(-617.611 -599.692)" fill="#575656"/>
          <path id="パス_2916-2" data-name="パス 2916" d="M699.912,580.281q-.568.411-1.166.773a16.121,16.121,0,0,1-2.491,1.241,13.092,13.092,0,0,1-2.667.741,10.678,10.678,0,0,1-2.756.094,9.818,9.818,0,0,1-2.685-.65c-.252-.1-.5-.208-.742-.326l0,0c.244.119.492.229.745.328a9.841,9.841,0,0,0,2.686.65,10.69,10.69,0,0,0,2.757-.1,13.079,13.079,0,0,0,2.667-.742,16.186,16.186,0,0,0,2.491-1.242q.6-.363,1.165-.774c.293-.213.58-.433.857-.668l-.009.008q.126-.106.248-.215l-.026.024c-.049.044-.168.15-.357.306-.254.209-.634.508-1.136.859a18.55,18.55,0,0,1-1.883,1.153,15.314,15.314,0,0,1-2.635,1.112,12.3,12.3,0,0,1-1.593.387,11,11,0,0,1-1.753.165,10.336,10.336,0,0,1-1.866-.144,10.527,10.527,0,0,1-1.9-.517q-.385-.145-.764-.324a17.38,17.38,0,0,1-1.544,1.187l-.34.225c-.057.039-.116.075-.176.11l-.18.108c-.238.149-.5.278-.755.415a7.967,7.967,0,0,1-1.728.627,5.388,5.388,0,0,1-.982.131c-.085,0-.171,0-.258,0a2.026,2.026,0,0,1-.26-.014l-.264-.03c-.088-.015-.176-.036-.265-.054a1.328,1.328,0,0,0-1.738,0c-.089.018-.177.039-.265.054l-.263.03a2.033,2.033,0,0,1-.261.014c-.086,0-.173,0-.258,0a5.4,5.4,0,0,1-.983-.131,7.973,7.973,0,0,1-1.728-.627c-.259-.137-.517-.266-.755-.415l-.18-.108c-.06-.035-.119-.071-.176-.11l-.34-.225a17.237,17.237,0,0,1-1.543-1.187q-.379.178-.764.324a10.526,10.526,0,0,1-1.9.517,10.336,10.336,0,0,1-1.866.144,10.992,10.992,0,0,1-1.753-.165,12.277,12.277,0,0,1-1.593-.387,15.3,15.3,0,0,1-2.635-1.112,18.46,18.46,0,0,1-1.883-1.153c-.5-.351-.883-.649-1.137-.859-.188-.155-.307-.262-.357-.306l-.026-.024c.081.073.164.145.248.216l-.009-.008c.277.235.564.455.857.668q.567.411,1.165.774a16.206,16.206,0,0,0,2.491,1.242,13.081,13.081,0,0,0,2.667.742,10.7,10.7,0,0,0,2.757.1,10.073,10.073,0,0,0,1.364-.23,9.965,9.965,0,0,0,1.321-.42c.253-.1.5-.209.745-.328l0,0c-.243.118-.49.228-.742.326a9.817,9.817,0,0,1-2.685.65,10.678,10.678,0,0,1-2.756-.094,13.09,13.09,0,0,1-2.667-.741,16.135,16.135,0,0,1-2.491-1.241q-.6-.362-1.166-.773c-.235-.171-.466-.348-.692-.532.256.206.631.493,1.129.823a15.971,15.971,0,0,0,1.912,1.083,13.937,13.937,0,0,0,2.654.963,11.088,11.088,0,0,0,3.275.332,9.871,9.871,0,0,0,1.766-.256,10.1,10.1,0,0,0,1.757-.6q.209-.094.413-.2l-.121-.112-.235-.216-.221-.216-.417-.408c-.259-.27-.5-.514-.712-.74l-.562-.607-.409-.453c-.223-.245-.345-.372-.345-.372l.494.5.247.252.253.245c.169.163.336.328.507.489l.517.477q.6.538,1.22,1.046h0c-.416-.337-.822-.687-1.221-1.045l-.518-.477c-.171-.161-.338-.326-.507-.489l-.253-.245-.247-.251-.494-.5s.124.125.365.352c.121.112.269.252.446.412l.619.539c.234.2.5.411.784.646l.455.353.24.186.253.185.3.217a12.534,12.534,0,0,0,2.367-1.767q.367-.345.714-.717l.371-.387c.124-.134.263-.258.4-.385l.1-.095c.034-.031.071-.06.107-.09l.216-.179c.07-.062.15-.114.226-.171s.152-.112.232-.165a5.249,5.249,0,0,1,1.041-.535,3.143,3.143,0,0,1,1.232-.182,1.8,1.8,0,0,0,1.557,0,3.141,3.141,0,0,1,1.232.182,5.265,5.265,0,0,1,1.042.535c.08.053.154.11.232.165s.156.109.226.171l.216.179c.036.03.073.059.107.09l.1.095c.135.127.273.25.4.385l.371.387c.231.249.47.487.715.717a12.521,12.521,0,0,0,2.366,1.767l.3-.217.253-.185.24-.186.455-.353c.285-.235.55-.447.784-.646l.619-.539c.178-.16.325-.3.446-.412.241-.227.365-.352.365-.352l-.495.5-.247.251-.253.245c-.169.163-.336.328-.507.489l-.518.477c-.4.358-.805.708-1.221,1.045h0q.623-.506,1.22-1.046l.518-.477c.171-.161.338-.326.507-.489l.253-.245.247-.252.494-.5s-.123.127-.346.372l-.409.453-.562.607c-.212.226-.453.47-.712.74l-.417.408-.221.216-.235.216-.121.112q.206.1.414.2a10.083,10.083,0,0,0,1.757.6,9.865,9.865,0,0,0,1.766.256,11.089,11.089,0,0,0,3.275-.332,13.953,13.953,0,0,0,2.654-.963,16.005,16.005,0,0,0,1.912-1.083c.5-.33.873-.616,1.129-.823Q700.265,580.026,699.912,580.281Zm-18.42,4.414a5.3,5.3,0,0,0,1.362-.229c.055-.017.112-.029.167-.049l.164-.057.164-.057c.055-.019.11-.038.163-.061.214-.089.43-.173.637-.278a15.092,15.092,0,0,0,2.384-1.451q.147-.108.293-.219h0q-.145.11-.292.217a15.114,15.114,0,0,1-2.384,1.449c-.208.105-.424.188-.638.278-.053.023-.107.042-.162.061l-.164.057-.164.057c-.054.02-.111.032-.166.048a5.282,5.282,0,0,1-1.361.229,3.568,3.568,0,0,1-1.358-.209c-.038-.014-.074-.029-.112-.045l0,0c.038.016.076.032.115.046A3.564,3.564,0,0,0,681.492,584.695Zm-3.866-5.237a4.313,4.313,0,0,1,.5-1.127c.038-.06.079-.12.121-.178a2.452,2.452,0,0,0-.442.094,4.22,4.22,0,0,0-.827.389c-.068.041-.133.088-.2.131s-.135.085-.2.137l-.194.148c-.032.025-.065.049-.1.075l-.094.08c-.125.108-.253.211-.372.329s-.239.224-.372.353q-.386.377-.8.723a12.961,12.961,0,0,1-2.245,1.538c.421.28.872.559,1.356.825l.341.183c.057.032.115.061.174.088l.177.086c.236.12.483.219.731.326a7.7,7.7,0,0,0,1.569.446,4.784,4.784,0,0,0,.812.06c.067,0,.133-.01.2-.013a1.441,1.441,0,0,0,.2-.021l.2-.032c.064-.015.127-.033.191-.049.032-.009.065-.015.1-.026l.041-.015-.051-.059a4,4,0,0,1-.609-1,5,5,0,0,1-.327-1.128A5.391,5.391,0,0,1,677.625,579.457Zm1.182-1.079a3.106,3.106,0,0,0-.376.6c-.056.1-.095.219-.141.328-.021.056-.038.113-.057.17s-.038.113-.052.172a4.793,4.793,0,0,0-.165,1.423,4.637,4.637,0,0,0,.257,1.408,3.561,3.561,0,0,0,.713,1.222l.044.045,0,0-.044-.046a3.552,3.552,0,0,1-.711-1.22,4.626,4.626,0,0,1-.257-1.406,4.776,4.776,0,0,1,.165-1.421c.013-.058.033-.115.052-.171s.036-.114.057-.17c.047-.109.085-.223.141-.327a3.068,3.068,0,0,1,.375-.6c.045-.057.093-.11.143-.161l-.007,0C678.9,578.27,678.852,578.323,678.807,578.378Zm.668.152a2.685,2.685,0,0,0-.722,1.271,4.294,4.294,0,0,0-.1,1.809,3.388,3.388,0,0,0,.649,1.576c.053.067.11.13.168.191.058-.061.115-.124.168-.191a3.386,3.386,0,0,0,.649-1.576,4.29,4.29,0,0,0-.1-1.809A2.685,2.685,0,0,0,679.476,578.531Zm0,5.6,0,0,0,0,0,0Zm0-6.323.007,0,.007,0-.007,0Zm.527.411c.05.051.1.1.143.161a3.074,3.074,0,0,1,.375.6c.056.1.095.218.141.327.02.056.038.113.057.17s.038.113.052.171a4.776,4.776,0,0,1,.165,1.421,4.624,4.624,0,0,1-.257,1.406,3.552,3.552,0,0,1-.711,1.22l-.044.046,0,0,.043-.045a3.556,3.556,0,0,0,.713-1.222,4.644,4.644,0,0,0,.257-1.408,4.785,4.785,0,0,0-.165-1.423c-.014-.058-.033-.115-.052-.172s-.036-.114-.057-.17c-.047-.11-.085-.223-.142-.328a3.075,3.075,0,0,0-.376-.6c-.044-.056-.092-.109-.141-.159Zm.833.108a4.3,4.3,0,0,1,.5,1.127,5.393,5.393,0,0,1,.123,2.358,5.034,5.034,0,0,1-.327,1.128,4.018,4.018,0,0,1-.609,1l-.051.059.041.015c.03.011.063.017.095.026.064.016.127.035.191.049l.2.032a1.443,1.443,0,0,0,.2.021c.067,0,.134.012.2.013a4.781,4.781,0,0,0,.812-.06,7.685,7.685,0,0,0,1.569-.446c.248-.107.5-.206.731-.326l.177-.086c.059-.028.118-.056.175-.088l.341-.183c.484-.266.935-.545,1.356-.825a12.958,12.958,0,0,1-2.246-1.538q-.409-.345-.8-.723c-.134-.129-.25-.238-.372-.353s-.247-.222-.372-.329l-.094-.08c-.032-.026-.065-.05-.1-.075l-.194-.148c-.064-.052-.132-.092-.2-.137s-.133-.09-.2-.131a4.211,4.211,0,0,0-.827-.389,2.456,2.456,0,0,0-.442-.094C680.749,578.21,680.79,578.27,680.829,578.33Zm-8.409,4.184a15.089,15.089,0,0,0,2.384,1.451c.207.1.423.189.637.278.053.023.108.042.163.061l.164.057.164.057c.054.019.111.032.166.049a5.3,5.3,0,0,0,1.362.229,3.563,3.563,0,0,0,1.36-.209c.039-.014.077-.03.115-.046l0,0c-.037.015-.074.031-.112.045a3.567,3.567,0,0,1-1.358.209,5.282,5.282,0,0,1-1.361-.229c-.055-.016-.112-.029-.166-.048l-.164-.057-.164-.057c-.055-.019-.109-.037-.163-.061-.214-.089-.43-.173-.637-.278a15.089,15.089,0,0,1-2.384-1.449q-.147-.107-.293-.217h0Q672.271,582.405,672.419,582.513Zm-.632-.48.005,0h0l-.005,0Zm5.846-4.332a4.6,4.6,0,0,0-1.224.661l-.072.05c-.023.017-.046.036-.069.055l-.138.109-.137.109c-.046.037-.088.078-.132.116l-.262.235-.25.248a15.462,15.462,0,0,1-2.109,1.855,12.235,12.235,0,0,1-1.2.76l.005,0a12.113,12.113,0,0,0,1.2-.759,15.432,15.432,0,0,0,2.11-1.855l.25-.248.262-.235c.044-.039.086-.079.132-.116l.137-.109.137-.109c.023-.018.046-.037.069-.054l.072-.05a4.621,4.621,0,0,1,1.222-.661,2.574,2.574,0,0,1,1.136-.127l.009-.006A2.556,2.556,0,0,0,677.633,577.7Zm8.076,3.438a15.507,15.507,0,0,1-2.108-1.855l-.25-.248-.262-.235c-.044-.039-.087-.079-.132-.116l-.137-.109-.138-.109c-.023-.018-.045-.037-.068-.055l-.072-.05a4.6,4.6,0,0,0-1.223-.661,2.556,2.556,0,0,0-1.146-.128l.008.006a2.574,2.574,0,0,1,1.136.127,4.623,4.623,0,0,1,1.222.661l.072.05c.024.017.046.036.069.054l.137.109.137.109c.046.037.088.078.132.116l.262.235.25.248a15.437,15.437,0,0,0,2.11,1.855,12.113,12.113,0,0,0,1.2.759l.005,0A12.261,12.261,0,0,1,685.709,581.14Zm1.451.892,0,0h0l0,0Z" transform="translate(-657.943 -576.976)" fill="#575656"/>
          <path id="パス_2917-2" data-name="パス 2917" d="M1076.915,602.386l-.055-.046Z" transform="translate(-1076.611 -599.694)" fill="#575656"/>
          <path id="パス_2918-2" data-name="パス 2918" d="M1075.878,602.785l.1.082-.02-.016Z" transform="translate(-1075.574 -600.093)" fill="#575656"/>
        </g>
        <path id="パス_2919-2" data-name="パス 2919" d="M742.671,778.789a9.164,9.164,0,0,0-4.057-1.287c-.03,0-.041-.02-.036-.035s.006-.033.036-.036a9.076,9.076,0,0,0,4.107-1.322.8.8,0,0,1,.8-.031l.054.029a.844.844,0,0,1,.446.481,2.307,2.307,0,0,0,.216.494.755.755,0,0,1,.015.72,3.287,3.287,0,0,0-.232.548.848.848,0,0,1-.444.475l-.008,0A.92.92,0,0,1,742.671,778.789Z" transform="translate(-706.984 -754.067)" fill="#575656"/>
        <g id="グループ_594-2" data-name="グループ 594" transform="translate(37.535 0.987)">
          <path id="パス_2920-2" data-name="パス 2920" d="M684.4,1000.828l.079.105-.063-.084Z" transform="translate(-679.128 -956.444)" fill="#575656"/>
          <path id="パス_2921-2" data-name="パス 2921" d="M684,1001.893l-.045-.058Z" transform="translate(-678.611 -957.346)" fill="#575656"/>
          <path id="パス_2922-2" data-name="パス 2922" d="M663.806,618.965q-.395-.59-.743-1.213a17.436,17.436,0,0,1-1.193-2.592,14.506,14.506,0,0,1-.712-2.774,12,12,0,0,1-.091-2.867,11.2,11.2,0,0,1,.221-1.419,10.989,10.989,0,0,1,.4-1.374c.094-.262.2-.519.314-.772l0-.005c-.114.254-.22.512-.315.775a11.12,11.12,0,0,0-.4,1.375,11.329,11.329,0,0,0-.22,1.42,12,12,0,0,0,.092,2.868,14.464,14.464,0,0,0,.713,2.775,17.369,17.369,0,0,0,1.194,2.591q.349.621.744,1.212c.2.3.417.6.642.892l-.007-.009c.068.087.136.173.207.258l-.023-.027c-.043-.051-.145-.175-.294-.371-.2-.264-.488-.659-.825-1.182a19.478,19.478,0,0,1-1.108-1.959,16.655,16.655,0,0,1-1.069-2.741,13.551,13.551,0,0,1-.372-1.657,12.293,12.293,0,0,1-.159-1.824,11.421,11.421,0,0,1,.635-3.918q.14-.4.311-.795a18,18,0,0,1-1.141-1.606l-.217-.353c-.037-.059-.072-.12-.106-.183l-.1-.188c-.144-.248-.267-.516-.4-.785a8.752,8.752,0,0,1-.6-1.8,6.064,6.064,0,0,1-.126-1.022c0-.088,0-.178,0-.268a2.292,2.292,0,0,1,.014-.272q.014-.136.029-.274c.015-.091.034-.183.052-.275a1.468,1.468,0,0,0,0-1.808c-.018-.092-.037-.184-.052-.275s-.019-.183-.029-.274a2.283,2.283,0,0,1-.014-.271c0-.09,0-.18,0-.268a6.067,6.067,0,0,1,.126-1.022,8.748,8.748,0,0,1,.6-1.8c.132-.27.256-.537.4-.785l.1-.187c.034-.062.069-.124.106-.183l.217-.353a17.977,17.977,0,0,1,1.141-1.606q-.17-.394-.311-.795a11.741,11.741,0,0,1-.5-1.978,11.611,11.611,0,0,1-.139-1.941,12.3,12.3,0,0,1,.159-1.824,13.563,13.563,0,0,1,.372-1.657,16.63,16.63,0,0,1,1.069-2.741,19.469,19.469,0,0,1,1.108-1.959c.337-.524.624-.918.825-1.182.149-.2.251-.32.294-.371l.023-.027c-.071.085-.139.171-.207.258l.007-.01c-.225.288-.438.587-.642.891q-.4.59-.744,1.212a17.361,17.361,0,0,0-1.194,2.592,14.459,14.459,0,0,0-.713,2.774,12,12,0,0,0-.092,2.869,11.319,11.319,0,0,0,.22,1.419,11.124,11.124,0,0,0,.4,1.375c.095.263.2.521.315.775l0,0c-.114-.253-.219-.51-.314-.772a10.986,10.986,0,0,1-.4-1.374,11.2,11.2,0,0,1-.221-1.419,12,12,0,0,1,.091-2.867,14.5,14.5,0,0,1,.712-2.774,17.438,17.438,0,0,1,1.193-2.592q.349-.621.743-1.213.246-.367.511-.72c-.2.266-.474.656-.791,1.174a16.975,16.975,0,0,0-1.041,1.989,15.346,15.346,0,0,0-.926,2.761,12.457,12.457,0,0,0-.319,3.407,11.02,11.02,0,0,0,.246,1.837,11.15,11.15,0,0,0,.58,1.828q.091.217.191.43l.108-.126.208-.244.208-.23.393-.434c.259-.27.494-.521.711-.741l.583-.585.436-.426c.236-.232.358-.359.358-.359l-.484.514-.242.257-.236.263c-.157.176-.316.349-.47.527l-.459.538q-.517.621-1,1.269v0q.486-.648,1.005-1.27l.458-.539c.155-.178.314-.351.47-.527l.236-.263.242-.257.483-.515s-.12.13-.338.38c-.108.125-.242.279-.4.464l-.518.644c-.191.244-.4.519-.621.816l-.339.473-.178.25-.178.263q-.1.152-.208.311a12.991,12.991,0,0,0,1.7,2.462c.221.254.451.5.689.744l.372.385c.129.129.248.274.37.414l.091.106c.03.036.058.074.087.112l.172.225c.059.073.11.156.164.235s.108.159.159.242a5.649,5.649,0,0,1,.514,1.084,3.525,3.525,0,0,1,.175,1.282,2.018,2.018,0,0,0,0,1.62,3.525,3.525,0,0,1-.175,1.282,5.648,5.648,0,0,1-.514,1.084c-.051.083-.106.161-.159.242s-.105.162-.164.234l-.172.225c-.029.037-.057.076-.087.111l-.091.106c-.122.141-.241.285-.37.414l-.372.385c-.239.24-.468.489-.689.743a13,13,0,0,0-1.7,2.462c.07.105.14.209.208.31l.178.263.178.25.339.473c.225.3.43.572.621.816l.518.644c.154.185.288.339.4.464.217.251.338.38.338.38l-.483-.514-.242-.257-.236-.263c-.156-.176-.315-.35-.47-.528l-.458-.539q-.517-.622-1.005-1.27v0q.487.648,1,1.269l.459.538c.155.178.314.352.47.527l.236.263.242.257.484.514s-.121-.128-.358-.359l-.436-.426-.583-.585c-.218-.221-.452-.471-.711-.742l-.393-.433-.208-.23-.208-.244-.108-.126q-.1.214-.191.43a11.167,11.167,0,0,0-.58,1.828,11.019,11.019,0,0,0-.246,1.837,12.455,12.455,0,0,0,.319,3.407,15.333,15.333,0,0,0,.926,2.761,16.968,16.968,0,0,0,1.041,1.989c.316.518.592.908.79,1.174Q664.052,619.333,663.806,618.965ZM659.564,599.8a5.905,5.905,0,0,0,.22,1.417c.016.058.027.116.046.173l.055.171.055.171c.018.057.036.114.058.169.086.223.167.448.267.664a16.012,16.012,0,0,0,1.395,2.48c.069.1.139.2.21.305v0q-.105-.151-.209-.3a15.981,15.981,0,0,1-1.393-2.48c-.1-.216-.182-.441-.268-.663-.023-.055-.04-.112-.058-.169l-.055-.171-.055-.171c-.019-.056-.031-.115-.047-.173a5.908,5.908,0,0,1-.22-1.416,3.986,3.986,0,0,1,.2-1.413c.013-.039.028-.078.043-.116l0,0c-.015.039-.031.079-.044.119A3.99,3.99,0,0,0,659.564,599.8Zm5.034-4.022a4,4,0,0,1,1.083.517c.058.04.115.082.171.127a2.781,2.781,0,0,0-.089-.459,4.6,4.6,0,0,0-.374-.86c-.039-.07-.085-.139-.126-.208s-.082-.14-.132-.207l-.142-.2c-.024-.034-.046-.068-.072-.1l-.078-.1c-.1-.13-.2-.263-.316-.387s-.216-.249-.34-.388q-.362-.4-.695-.828a13.56,13.56,0,0,1-1.478-2.336c-.269.438-.538.908-.793,1.411l-.176.355c-.03.059-.058.12-.085.182l-.082.185c-.115.245-.21.5-.313.76a8.525,8.525,0,0,0-.429,1.632,5.364,5.364,0,0,0-.058.844c0,.07.009.139.013.208a1.639,1.639,0,0,0,.02.207c.01.068.02.136.03.2s.032.133.048.2c.008.033.014.067.025.1l.015.043.057-.053a3.8,3.8,0,0,1,.965-.633,4.537,4.537,0,0,1,1.085-.34A4.8,4.8,0,0,1,664.6,595.779Zm1.037,1.23a2.935,2.935,0,0,0-.579-.392c-.1-.059-.21-.1-.315-.147-.054-.021-.109-.04-.163-.059s-.109-.04-.165-.054a4.267,4.267,0,0,0-1.368-.172,4.149,4.149,0,0,0-1.354.267,3.382,3.382,0,0,0-1.174.742l-.043.046,0,0c.015-.015.029-.031.045-.046a3.359,3.359,0,0,1,1.172-.74,4.146,4.146,0,0,1,1.351-.267,4.261,4.261,0,0,1,1.366.172,1.643,1.643,0,0,1,.165.054c.054.02.109.038.163.059.105.048.214.089.315.147a2.914,2.914,0,0,1,.577.391c.055.047.105.1.155.149l0-.007C665.739,597.105,665.689,597.056,665.635,597.009Zm-.146.695a2.538,2.538,0,0,0-1.221-.751,3.821,3.821,0,0,0-1.739-.1,3.125,3.125,0,0,0-1.515.675,2.517,2.517,0,0,0-.184.175c.058.06.119.12.184.175a3.126,3.126,0,0,0,1.515.675,3.831,3.831,0,0,0,1.739-.1A2.547,2.547,0,0,0,665.489,597.7ZM660.1,597.7l0,.005,0,0,0,0Zm6.078,0,0,.007,0,.007,0-.007Zm-.4.548a2.112,2.112,0,0,1-.155.149,2.936,2.936,0,0,1-.577.391c-.1.058-.21.1-.315.147-.054.021-.109.039-.163.059s-.109.039-.165.054a4.267,4.267,0,0,1-1.366.172,4.145,4.145,0,0,1-1.351-.267,3.367,3.367,0,0,1-1.172-.741c-.015-.015-.03-.031-.045-.046l0,.005.043.045a3.376,3.376,0,0,0,1.174.742,4.159,4.159,0,0,0,1.354.267,4.274,4.274,0,0,0,1.368-.172,1.7,1.7,0,0,0,.165-.054c.054-.02.109-.038.163-.059.105-.049.214-.089.315-.147a2.944,2.944,0,0,0,.579-.392,2.111,2.111,0,0,0,.153-.147Zm-.1.867a4,4,0,0,1-1.083.517,4.8,4.8,0,0,1-2.267.128,4.55,4.55,0,0,1-1.085-.34,3.819,3.819,0,0,1-.965-.634l-.057-.053-.015.042c-.011.032-.016.066-.025.1-.016.066-.034.132-.048.2s-.02.137-.03.2a1.633,1.633,0,0,0-.02.207c0,.07-.011.139-.013.208a5.363,5.363,0,0,0,.058.845,8.512,8.512,0,0,0,.429,1.632c.1.258.2.515.313.761l.082.185c.026.062.054.122.085.182l.176.355c.255.5.524.973.793,1.411a13.579,13.579,0,0,1,1.478-2.336q.332-.426.695-.828c.124-.139.229-.261.34-.388s.213-.257.316-.387l.078-.1c.026-.033.048-.068.072-.1l.142-.2c.05-.066.088-.137.132-.206s.087-.138.126-.208a4.611,4.611,0,0,0,.374-.86,2.789,2.789,0,0,0,.089-.459C665.8,599.029,665.739,599.072,665.682,599.112Zm-4.021-8.749a16,16,0,0,0-1.395,2.48c-.1.216-.181.441-.267.663-.022.055-.041.112-.058.169l-.055.17-.055.171c-.019.057-.031.116-.046.173a5.9,5.9,0,0,0-.22,1.417,3.988,3.988,0,0,0,.2,1.415c.013.04.029.08.044.12l0-.005c-.015-.039-.03-.077-.043-.117a3.985,3.985,0,0,1-.2-1.413,5.907,5.907,0,0,1,.22-1.415c.016-.057.028-.117.047-.173l.055-.171.055-.17c.018-.057.036-.114.058-.169.086-.223.166-.447.268-.663a15.961,15.961,0,0,1,1.393-2.48q.1-.153.209-.3v0Q661.764,590.209,661.66,590.363Zm.461-.657,0,.005,0,0,0-.005Zm4.164,6.082a4.933,4.933,0,0,0-.635-1.273l-.048-.075c-.017-.024-.035-.048-.052-.072l-.105-.143-.105-.143c-.035-.047-.074-.091-.112-.137l-.226-.272-.239-.26a15.749,15.749,0,0,1-1.783-2.194,12.88,12.88,0,0,1-.73-1.252l0,.006a12.938,12.938,0,0,0,.729,1.25,15.794,15.794,0,0,0,1.783,2.194l.239.26.226.272c.037.046.076.09.112.137l.1.142.105.143c.017.024.035.047.052.072l.048.075a4.932,4.932,0,0,1,.635,1.271,2.867,2.867,0,0,1,.122,1.182l.007.008A2.881,2.881,0,0,0,666.285,595.787Zm-3.3,8.4A15.728,15.728,0,0,1,664.763,602l.239-.26.226-.272c.037-.046.076-.09.112-.138l.105-.143.105-.143c.017-.024.035-.047.052-.072l.048-.075a4.932,4.932,0,0,0,.635-1.273,2.88,2.88,0,0,0,.123-1.192l-.007.008a2.868,2.868,0,0,1-.122,1.182,4.945,4.945,0,0,1-.635,1.271l-.048.075c-.017.024-.035.048-.052.072l-.105.143-.1.143c-.035.047-.075.091-.112.137l-.226.272-.239.26a15.777,15.777,0,0,0-1.783,2.195,12.9,12.9,0,0,0-.729,1.25l0,.006A12.913,12.913,0,0,1,662.981,604.19Zm-.858,1.51,0-.005,0,0,0,0Z" transform="translate(-659.049 -575.302)" fill="#575656"/>
          <path id="パス_2923-2" data-name="パス 2923" d="M683.958,577.835l.045-.058Z" transform="translate(-678.611 -577.519)" fill="#575656"/>
          <path id="パス_2924-2" data-name="パス 2924" d="M684.475,578.335c-.026.034-.052.069-.078.1l.015-.021Z" transform="translate(-679.129 -578.018)" fill="#575656"/>
        </g>
        <path id="パス_2925-2" data-name="パス 2925" d="M694.7,566.228v47.7a.371.371,0,1,1-.741,0V566.653a.038.038,0,0,0-.037-.039H648.486a.386.386,0,0,1,0-.771h45.843A.379.379,0,0,1,694.7,566.228Z" transform="translate(-648.115 -565.843)" fill="#575656"/>
      </g>
      <g id="グループ_1614" data-name="グループ 1614" transform="translate(4.349 159.639)">
        <path id="パス_2913-3" data-name="パス 2913" d="M855.175,662.209a10.106,10.106,0,0,0,1.237-4.222c0-.031.02-.042.034-.037s.031.006.034.037a10,10,0,0,0,1.271,4.273.889.889,0,0,1,.029.832l-.028.056a.838.838,0,0,1-.462.464,2.145,2.145,0,0,0-.475.224.678.678,0,0,1-.692.016,2.994,2.994,0,0,0-.527-.242.84.84,0,0,1-.457-.462l0-.008A1.025,1.025,0,0,1,855.175,662.209Z" transform="translate(-833.92 -625.081)" fill="#575656"/>
        <g id="グループ_593-3" data-name="グループ 593" transform="translate(1.003 39.05)">
          <path id="パス_2914-3" data-name="パス 2914" d="M661.018,602.781l-.1.082L661,602.8Z" transform="translate(-660.613 -597.3)" fill="#575656"/>
          <path id="パス_2915-3" data-name="パス 2915" d="M660.372,602.384l.056-.046Z" transform="translate(-660.124 -596.775)" fill="#575656"/>
          <path id="パス_2916-3" data-name="パス 2916" d="M659.039,581.925q.568-.411,1.166-.773a16.121,16.121,0,0,1,2.491-1.241,13.092,13.092,0,0,1,2.667-.741,10.678,10.678,0,0,1,2.756-.094,9.818,9.818,0,0,1,2.685.65c.252.1.5.208.742.326l0,0c-.244-.119-.492-.229-.745-.328a9.841,9.841,0,0,0-2.686-.65,10.69,10.69,0,0,0-2.757.1,13.079,13.079,0,0,0-2.667.742,16.186,16.186,0,0,0-2.491,1.242q-.6.363-1.165.774c-.293.213-.58.433-.857.668l.009-.008q-.126.106-.248.215l.026-.024c.049-.044.168-.15.357-.306.254-.209.634-.508,1.136-.859a18.55,18.55,0,0,1,1.883-1.153,15.314,15.314,0,0,1,2.635-1.112,12.3,12.3,0,0,1,1.593-.387,11,11,0,0,1,1.753-.165,10.336,10.336,0,0,1,1.866.144,10.527,10.527,0,0,1,1.9.517q.385.145.764.324a17.38,17.38,0,0,1,1.544-1.187l.34-.225c.057-.039.116-.075.176-.11l.18-.108c.238-.149.5-.278.755-.415a7.967,7.967,0,0,1,1.728-.627,5.388,5.388,0,0,1,.982-.131c.085,0,.171,0,.258,0a2.026,2.026,0,0,1,.26.014l.264.03c.088.015.176.036.265.054a1.328,1.328,0,0,0,1.738,0c.089-.018.177-.039.265-.054l.263-.03a2.033,2.033,0,0,1,.261-.014c.086,0,.173,0,.258,0a5.4,5.4,0,0,1,.983.131,7.973,7.973,0,0,1,1.728.627c.259.137.517.266.755.415l.18.108c.06.035.119.071.176.11l.34.225a17.237,17.237,0,0,1,1.543,1.187q.379-.178.764-.324a10.526,10.526,0,0,1,1.9-.517,10.336,10.336,0,0,1,1.866-.144,10.992,10.992,0,0,1,1.753.165,12.277,12.277,0,0,1,1.593.387,15.3,15.3,0,0,1,2.635,1.112,18.46,18.46,0,0,1,1.883,1.153c.5.351.883.649,1.137.859.188.155.307.262.357.306l.026.024c-.081-.073-.164-.145-.248-.216l.009.008c-.277-.235-.564-.455-.857-.668q-.567-.411-1.165-.774a16.206,16.206,0,0,0-2.491-1.242,13.081,13.081,0,0,0-2.667-.742,10.7,10.7,0,0,0-2.757-.1,10.073,10.073,0,0,0-1.364.23,9.965,9.965,0,0,0-1.321.42c-.253.1-.5.209-.745.328l0,0c.243-.118.49-.228.742-.326a9.817,9.817,0,0,1,2.685-.65,10.678,10.678,0,0,1,2.756.094,13.09,13.09,0,0,1,2.667.741,16.135,16.135,0,0,1,2.491,1.241q.6.362,1.166.773c.235.171.466.348.692.532-.256-.206-.631-.493-1.129-.823a15.971,15.971,0,0,0-1.912-1.083,13.937,13.937,0,0,0-2.654-.963,11.088,11.088,0,0,0-3.275-.332,9.871,9.871,0,0,0-1.766.256,10.1,10.1,0,0,0-1.757.6q-.209.094-.413.2l.121.112.235.216.221.216.417.408c.259.27.5.514.712.74l.562.607.409.453c.223.245.345.372.345.372l-.494-.5-.247-.252-.253-.245c-.169-.163-.336-.328-.507-.489l-.517-.477q-.6-.538-1.22-1.046h0c.416.337.822.687,1.221,1.045l.518.477c.171.161.338.326.507.489l.253.245.247.251.494.5s-.124-.125-.365-.352c-.121-.112-.269-.252-.446-.412l-.619-.539c-.234-.2-.5-.411-.784-.646l-.455-.353-.24-.186-.253-.185-.3-.217a12.534,12.534,0,0,0-2.367,1.767q-.367.345-.714.717l-.371.387c-.124.134-.263.258-.4.385l-.1.095c-.034.031-.071.06-.107.09l-.216.179c-.07.062-.15.114-.226.171s-.152.112-.232.165a5.249,5.249,0,0,1-1.041.535,3.143,3.143,0,0,1-1.232.182,1.8,1.8,0,0,0-1.557,0,3.141,3.141,0,0,1-1.232-.182,5.265,5.265,0,0,1-1.042-.535c-.08-.053-.154-.11-.232-.165s-.156-.109-.226-.171l-.216-.179c-.036-.03-.073-.059-.107-.09l-.1-.095c-.135-.127-.273-.25-.4-.385l-.371-.387c-.231-.249-.47-.487-.715-.717a12.521,12.521,0,0,0-2.366-1.767l-.3.217-.253.185-.24.186-.455.353c-.285.235-.55.447-.784.646l-.619.539c-.178.16-.325.3-.446.412-.241.227-.365.352-.365.352l.495-.5.247-.251.253-.245c.169-.163.336-.328.507-.489l.518-.477c.4-.358.805-.708,1.221-1.045h0q-.623.506-1.22,1.046l-.518.477c-.171.161-.338.326-.507.489l-.253.245-.247.252-.494.5s.123-.127.346-.372l.409-.453.562-.607c.212-.226.453-.47.712-.74l.417-.408.221-.216.235-.216.121-.112q-.206-.1-.414-.2a10.083,10.083,0,0,0-1.757-.6,9.865,9.865,0,0,0-1.766-.256,11.089,11.089,0,0,0-3.275.332,13.953,13.953,0,0,0-2.654.963,16.005,16.005,0,0,0-1.912,1.083c-.5.33-.873.616-1.129.823Q658.686,582.181,659.039,581.925Zm18.42-4.414a5.3,5.3,0,0,0-1.362.229c-.055.017-.112.029-.167.049l-.164.057-.164.057c-.055.019-.11.038-.163.061-.214.089-.43.173-.637.278a15.092,15.092,0,0,0-2.384,1.451q-.147.108-.293.219h0q.145-.11.292-.217a15.114,15.114,0,0,1,2.384-1.449c.208-.105.424-.188.638-.278.053-.023.107-.042.162-.061l.164-.057.164-.057c.054-.02.111-.032.166-.048a5.282,5.282,0,0,1,1.361-.229,3.568,3.568,0,0,1,1.358.209c.038.014.074.029.112.045l0,0c-.038-.016-.076-.032-.115-.046A3.564,3.564,0,0,0,677.459,577.512Zm3.866,5.237a4.313,4.313,0,0,1-.5,1.127c-.038.06-.079.12-.121.178a2.452,2.452,0,0,0,.442-.094,4.22,4.22,0,0,0,.827-.389c.068-.041.133-.088.2-.131s.135-.085.2-.137l.194-.148c.032-.025.065-.049.1-.075l.094-.08c.125-.108.253-.211.372-.329s.239-.224.372-.353q.386-.377.8-.723a12.961,12.961,0,0,1,2.245-1.538c-.421-.28-.872-.559-1.356-.825l-.341-.183c-.057-.032-.115-.061-.174-.088l-.177-.086c-.236-.12-.483-.219-.731-.326a7.7,7.7,0,0,0-1.569-.446,4.784,4.784,0,0,0-.812-.06c-.067,0-.133.01-.2.013a1.441,1.441,0,0,0-.2.021l-.2.032c-.064.015-.127.033-.191.049-.032.009-.065.015-.1.026l-.041.015.051.059a4,4,0,0,1,.609,1,5,5,0,0,1,.327,1.128A5.391,5.391,0,0,1,681.326,582.749Zm-1.182,1.079a3.106,3.106,0,0,0,.376-.6c.056-.1.095-.219.141-.328.021-.056.038-.113.057-.17s.038-.113.052-.172a4.793,4.793,0,0,0,.165-1.423,4.637,4.637,0,0,0-.257-1.408,3.561,3.561,0,0,0-.713-1.222l-.044-.045,0,0,.044.046a3.552,3.552,0,0,1,.711,1.22,4.626,4.626,0,0,1,.257,1.406,4.776,4.776,0,0,1-.165,1.421c-.013.058-.033.115-.052.171s-.036.114-.057.17c-.047.109-.085.223-.141.327a3.068,3.068,0,0,1-.375.6c-.045.057-.093.11-.143.161l.007,0C680.051,583.937,680.1,583.884,680.143,583.828Zm-.668-.152a2.685,2.685,0,0,0,.722-1.271,4.294,4.294,0,0,0,.1-1.809,3.388,3.388,0,0,0-.649-1.576c-.053-.067-.11-.13-.168-.191-.058.061-.115.124-.168.191a3.386,3.386,0,0,0-.649,1.576,4.29,4.29,0,0,0,.1,1.809A2.685,2.685,0,0,0,679.475,583.676Zm0-5.6,0,0,0,0,0,0Zm0,6.323-.007,0-.007,0,.007,0Zm-.527-.411c-.05-.051-.1-.1-.143-.161a3.074,3.074,0,0,1-.375-.6c-.056-.1-.095-.218-.141-.327-.02-.056-.038-.113-.057-.17s-.038-.113-.052-.171a4.776,4.776,0,0,1-.165-1.421,4.624,4.624,0,0,1,.257-1.406,3.552,3.552,0,0,1,.711-1.22l.044-.046,0,0-.043.045a3.556,3.556,0,0,0-.713,1.222,4.644,4.644,0,0,0-.257,1.408,4.785,4.785,0,0,0,.165,1.423c.014.058.033.115.052.172s.036.114.057.17c.047.11.085.223.142.328a3.075,3.075,0,0,0,.376.6c.044.056.092.109.141.159Zm-.833-.108a4.3,4.3,0,0,1-.5-1.127,5.393,5.393,0,0,1-.123-2.358,5.034,5.034,0,0,1,.327-1.128,4.018,4.018,0,0,1,.609-1l.051-.059-.041-.015c-.03-.011-.063-.017-.095-.026-.064-.016-.127-.035-.191-.049l-.2-.032a1.443,1.443,0,0,0-.2-.021c-.067,0-.134-.012-.2-.013a4.781,4.781,0,0,0-.812.06,7.685,7.685,0,0,0-1.569.446c-.248.107-.5.206-.731.326l-.177.086c-.059.028-.118.056-.175.088l-.341.183c-.484.266-.935.545-1.356.825a12.958,12.958,0,0,1,2.246,1.538q.409.345.8.723c.134.129.25.238.372.353s.247.222.372.329l.094.08c.032.026.065.05.1.075l.194.148c.064.052.132.092.2.137s.133.09.2.131a4.211,4.211,0,0,0,.827.389,2.456,2.456,0,0,0,.442.094C678.2,584,678.161,583.937,678.122,583.877Zm8.409-4.184a15.089,15.089,0,0,0-2.384-1.451c-.207-.1-.423-.189-.637-.278-.053-.023-.108-.042-.163-.061l-.164-.057-.164-.057c-.054-.019-.111-.032-.166-.049a5.3,5.3,0,0,0-1.362-.229,3.563,3.563,0,0,0-1.36.209c-.039.014-.077.03-.115.046l0,0c.037-.015.074-.031.112-.045a3.567,3.567,0,0,1,1.358-.209,5.282,5.282,0,0,1,1.361.229c.055.016.112.029.166.048l.164.057.164.057c.055.019.109.037.163.061.214.089.43.173.637.278a15.089,15.089,0,0,1,2.384,1.449q.147.107.293.217h0Q686.68,579.8,686.532,579.693Zm.632.48-.005,0h0l.005,0Zm-5.846,4.332a4.6,4.6,0,0,0,1.224-.661l.072-.05c.023-.017.046-.036.069-.055l.138-.109.137-.109c.046-.037.088-.078.132-.116l.262-.235.25-.248a15.462,15.462,0,0,1,2.109-1.855,12.235,12.235,0,0,1,1.2-.76l-.005,0a12.113,12.113,0,0,0-1.2.759,15.432,15.432,0,0,0-2.11,1.855l-.25.248-.262.235c-.044.039-.086.079-.132.116l-.137.109-.137.109c-.023.018-.046.037-.069.054l-.072.05a4.621,4.621,0,0,1-1.222.661,2.574,2.574,0,0,1-1.136.127l-.009.006A2.556,2.556,0,0,0,681.318,584.5Zm-8.076-3.438a15.507,15.507,0,0,1,2.108,1.855l.25.248.262.235c.044.039.087.079.132.116l.137.109.138.109c.023.018.045.037.068.055l.072.05a4.6,4.6,0,0,0,1.223.661,2.556,2.556,0,0,0,1.146.128l-.008-.006a2.574,2.574,0,0,1-1.136-.127,4.623,4.623,0,0,1-1.222-.661l-.072-.05c-.024-.017-.046-.036-.069-.054l-.137-.109-.137-.109c-.046-.037-.088-.078-.132-.116l-.262-.235-.25-.248a15.437,15.437,0,0,0-2.11-1.855,12.113,12.113,0,0,0-1.2-.759l-.005,0A12.261,12.261,0,0,1,673.242,581.066Zm-1.451-.892,0,0h0l0,0Z" transform="translate(-657.943 -576.976)" fill="#575656"/>
          <path id="パス_2917-3" data-name="パス 2917" d="M1076.859,602.34l.055.046Z" transform="translate(-1034.098 -596.778)" fill="#575656"/>
          <path id="パス_2918-3" data-name="パス 2918" d="M1075.978,602.867l-.1-.082.02.016Z" transform="translate(-1033.217 -597.305)" fill="#575656"/>
        </g>
        <path id="パス_2919-3" data-name="パス 2919" d="M740.24,776.123a9.164,9.164,0,0,0,4.057,1.287c.03,0,.041.02.036.035s-.006.033-.036.036a9.076,9.076,0,0,0-4.107,1.322.8.8,0,0,1-.8.031l-.054-.029a.844.844,0,0,1-.446-.481,2.307,2.307,0,0,0-.216-.494.755.755,0,0,1-.015-.72,3.287,3.287,0,0,0,.232-.548.848.848,0,0,1,.444-.475l.008,0A.92.92,0,0,1,740.24,776.123Z" transform="translate(-729.342 -752.379)" fill="#575656"/>
        <g id="グループ_594-3" data-name="グループ 594" transform="translate(1.116 2.675)">
          <path id="パス_2920-3" data-name="パス 2920" d="M684.475,1000.933l-.079-.105.063.084Z" transform="translate(-681.809 -1000.512)" fill="#575656"/>
          <path id="パス_2921-3" data-name="パス 2921" d="M683.958,1001.835l.045.058Z" transform="translate(-681.415 -1001.577)" fill="#575656"/>
          <path id="パス_2922-3" data-name="パス 2922" d="M662.226,576.443q.395.59.743,1.213a17.436,17.436,0,0,1,1.193,2.592,14.506,14.506,0,0,1,.712,2.774,12,12,0,0,1,.091,2.867,11.2,11.2,0,0,1-.221,1.419,10.989,10.989,0,0,1-.4,1.374c-.094.262-.2.519-.314.772l0,.005c.114-.254.22-.512.315-.775a11.12,11.12,0,0,0,.4-1.375,11.329,11.329,0,0,0,.22-1.42,12,12,0,0,0-.092-2.868,14.464,14.464,0,0,0-.713-2.775,17.369,17.369,0,0,0-1.194-2.591q-.349-.621-.744-1.212c-.2-.3-.417-.6-.642-.892l.007.009c-.068-.087-.136-.173-.207-.258l.023.027c.043.051.145.175.294.371.2.264.488.659.825,1.182a19.478,19.478,0,0,1,1.108,1.959,16.655,16.655,0,0,1,1.069,2.741,13.551,13.551,0,0,1,.372,1.657,12.293,12.293,0,0,1,.159,1.824,11.421,11.421,0,0,1-.635,3.918q-.14.4-.311.795a18,18,0,0,1,1.141,1.606l.217.353c.037.059.072.12.106.183l.1.188c.144.248.267.516.4.785a8.752,8.752,0,0,1,.6,1.8,6.064,6.064,0,0,1,.126,1.022c0,.088,0,.178,0,.268a2.292,2.292,0,0,1-.014.272q-.014.136-.029.274c-.015.091-.034.183-.052.275a1.468,1.468,0,0,0,0,1.808c.018.092.037.184.052.275s.019.183.029.274a2.283,2.283,0,0,1,.014.271c0,.09,0,.18,0,.268a6.067,6.067,0,0,1-.126,1.022,8.748,8.748,0,0,1-.6,1.8c-.132.27-.256.537-.4.785l-.1.187c-.034.062-.069.124-.106.183l-.217.353a17.977,17.977,0,0,1-1.141,1.606q.17.394.311.795a11.741,11.741,0,0,1,.5,1.978,11.611,11.611,0,0,1,.139,1.941,12.3,12.3,0,0,1-.159,1.824,13.563,13.563,0,0,1-.372,1.657,16.63,16.63,0,0,1-1.069,2.741,19.469,19.469,0,0,1-1.108,1.959c-.337.524-.624.918-.825,1.182-.149.2-.251.32-.294.371l-.023.027c.071-.085.139-.171.207-.258l-.007.01c.225-.288.438-.587.642-.891q.4-.59.744-1.212a17.361,17.361,0,0,0,1.194-2.592,14.459,14.459,0,0,0,.713-2.774,12,12,0,0,0,.092-2.869,11.319,11.319,0,0,0-.22-1.419,11.124,11.124,0,0,0-.4-1.375c-.095-.263-.2-.521-.315-.775l0,0c.114.253.219.51.314.772a10.986,10.986,0,0,1,.4,1.374,11.2,11.2,0,0,1,.221,1.419,12,12,0,0,1-.091,2.867,14.5,14.5,0,0,1-.712,2.774,17.438,17.438,0,0,1-1.193,2.592q-.349.621-.743,1.213-.246.367-.511.72c.2-.266.474-.656.791-1.174a16.975,16.975,0,0,0,1.041-1.989,15.346,15.346,0,0,0,.926-2.761,12.457,12.457,0,0,0,.319-3.407,11.02,11.02,0,0,0-.246-1.837,11.15,11.15,0,0,0-.58-1.828q-.091-.217-.191-.43l-.108.126-.208.244-.208.23-.393.434c-.259.27-.494.521-.711.741l-.583.585-.436.426c-.236.232-.358.359-.358.359l.484-.514.242-.257.236-.263c.157-.176.316-.349.47-.527l.459-.538q.517-.621,1-1.269v0q-.486.648-1.005,1.27l-.458.539c-.155.178-.314.351-.47.527l-.236.263-.242.257-.483.515s.12-.13.338-.38c.108-.125.242-.279.4-.464l.518-.644c.191-.244.4-.519.621-.816l.339-.473.178-.25.178-.263q.1-.152.208-.311a12.991,12.991,0,0,0-1.7-2.462c-.221-.254-.451-.5-.689-.744l-.372-.385c-.129-.129-.248-.274-.37-.414l-.091-.106c-.03-.036-.058-.074-.087-.112l-.172-.225c-.059-.073-.11-.156-.164-.235s-.108-.159-.159-.242a5.649,5.649,0,0,1-.514-1.084,3.525,3.525,0,0,1-.175-1.282,2.018,2.018,0,0,0,0-1.62,3.525,3.525,0,0,1,.175-1.282,5.648,5.648,0,0,1,.514-1.084c.051-.083.106-.161.159-.242s.105-.162.164-.234l.172-.225c.029-.037.057-.076.087-.111l.091-.106c.122-.141.241-.285.37-.414l.372-.385c.239-.24.468-.489.689-.743a13,13,0,0,0,1.7-2.462c-.07-.105-.14-.209-.208-.31l-.178-.263-.178-.25-.339-.473c-.225-.3-.43-.572-.621-.816l-.518-.644c-.154-.185-.288-.339-.4-.464-.217-.251-.338-.38-.338-.38l.483.514.242.257.236.263c.156.176.315.35.47.528l.458.539q.517.622,1.005,1.27v0q-.487-.648-1-1.269l-.459-.538c-.155-.178-.314-.352-.47-.527l-.236-.263-.242-.257L660.77,586s.121.128.358.359l.436.426.583.585c.218.221.452.471.711.742l.393.433.208.23.208.244.108.126q.1-.214.191-.43a11.167,11.167,0,0,0,.58-1.828,11.019,11.019,0,0,0,.246-1.837,12.455,12.455,0,0,0-.319-3.407,15.333,15.333,0,0,0-.926-2.761,16.968,16.968,0,0,0-1.041-1.989c-.316-.518-.592-.908-.79-1.174Q661.98,576.075,662.226,576.443Zm4.242,19.164a5.905,5.905,0,0,0-.22-1.417c-.016-.058-.027-.116-.046-.173l-.055-.171-.055-.171c-.018-.057-.036-.114-.058-.169-.086-.223-.167-.448-.267-.664a16.012,16.012,0,0,0-1.395-2.48c-.069-.1-.139-.2-.21-.305v0q.105.151.209.3a15.981,15.981,0,0,1,1.393,2.48c.1.216.182.441.268.663.023.055.04.112.058.169l.055.171.055.171c.019.056.031.115.047.173a5.908,5.908,0,0,1,.22,1.416,3.986,3.986,0,0,1-.2,1.413c-.013.039-.028.078-.043.116l0,0c.015-.039.031-.079.044-.119A3.99,3.99,0,0,0,666.468,595.607Zm-5.034,4.022a4,4,0,0,1-1.083-.517c-.058-.04-.115-.082-.171-.127a2.781,2.781,0,0,0,.089.459,4.6,4.6,0,0,0,.374.86c.039.07.085.139.126.208s.082.14.132.207l.142.2c.024.034.046.068.072.1l.078.1c.1.13.2.263.316.387s.216.249.34.388q.362.4.695.828a13.56,13.56,0,0,1,1.478,2.336c.269-.438.538-.908.793-1.411l.176-.355c.03-.059.058-.12.085-.182l.082-.185c.115-.245.21-.5.313-.76a8.525,8.525,0,0,0,.429-1.632,5.364,5.364,0,0,0,.058-.844c0-.07-.009-.139-.013-.208a1.639,1.639,0,0,0-.02-.207c-.01-.068-.02-.136-.03-.2s-.032-.133-.048-.2c-.008-.033-.014-.067-.025-.1l-.015-.043-.057.053a3.8,3.8,0,0,1-.965.633,4.537,4.537,0,0,1-1.085.34A4.8,4.8,0,0,1,661.433,599.629ZM660.4,598.4a2.935,2.935,0,0,0,.579.392c.1.059.21.1.315.147.054.021.109.04.163.059s.109.04.165.054a4.267,4.267,0,0,0,1.368.172,4.149,4.149,0,0,0,1.354-.267,3.382,3.382,0,0,0,1.174-.742l.043-.046,0,0c-.015.015-.029.031-.045.046a3.359,3.359,0,0,1-1.172.74,4.146,4.146,0,0,1-1.351.267,4.261,4.261,0,0,1-1.366-.172,1.643,1.643,0,0,1-.165-.054c-.054-.02-.109-.038-.163-.059-.105-.048-.214-.089-.315-.147a2.914,2.914,0,0,1-.577-.391c-.055-.047-.105-.1-.155-.149l0,.007C660.293,598.3,660.343,598.353,660.4,598.4Zm.146-.695a2.538,2.538,0,0,0,1.221.751,3.821,3.821,0,0,0,1.739.1,3.125,3.125,0,0,0,1.515-.675,2.517,2.517,0,0,0,.184-.175c-.058-.06-.119-.12-.184-.175a3.126,3.126,0,0,0-1.515-.675,3.831,3.831,0,0,0-1.739.1A2.547,2.547,0,0,0,660.543,597.7Zm5.386.005,0-.005,0,0,0,0Zm-6.078,0,0-.007,0-.007,0,.007Zm.4-.548a2.112,2.112,0,0,1,.155-.149,2.936,2.936,0,0,1,.577-.391c.1-.058.21-.1.315-.147.054-.021.109-.039.163-.059s.109-.039.165-.054a4.267,4.267,0,0,1,1.366-.172,4.145,4.145,0,0,1,1.351.267,3.367,3.367,0,0,1,1.172.741c.015.015.03.031.045.046l0-.005-.043-.045a3.376,3.376,0,0,0-1.174-.742,4.159,4.159,0,0,0-1.354-.267,4.274,4.274,0,0,0-1.368.172,1.7,1.7,0,0,0-.165.054c-.054.02-.109.038-.163.059-.105.049-.214.089-.315.147a2.944,2.944,0,0,0-.579.392,2.111,2.111,0,0,0-.153.147Zm.1-.867a4,4,0,0,1,1.083-.517,4.8,4.8,0,0,1,2.267-.128,4.55,4.55,0,0,1,1.085.34,3.819,3.819,0,0,1,.965.634l.057.053.015-.042c.011-.032.016-.066.025-.1.016-.066.034-.132.048-.2s.02-.137.03-.2a1.633,1.633,0,0,0,.02-.207c0-.07.011-.139.013-.208a5.363,5.363,0,0,0-.058-.845,8.512,8.512,0,0,0-.429-1.632c-.1-.258-.2-.515-.313-.761l-.082-.185c-.026-.062-.054-.122-.085-.182l-.176-.355c-.255-.5-.524-.973-.793-1.411a13.579,13.579,0,0,1-1.478,2.336q-.332.426-.695.828c-.124.139-.229.261-.34.388s-.213.257-.316.387l-.078.1c-.026.033-.048.068-.072.1l-.142.2c-.05.066-.088.137-.132.206s-.087.138-.126.208a4.611,4.611,0,0,0-.374.86,2.789,2.789,0,0,0-.089.459C660.236,596.379,660.293,596.337,660.35,596.3Zm4.021,8.749a16,16,0,0,0,1.395-2.48c.1-.216.181-.441.267-.663.022-.055.041-.112.058-.169l.055-.17.055-.171c.019-.057.031-.116.046-.173a5.9,5.9,0,0,0,.22-1.417,3.988,3.988,0,0,0-.2-1.415c-.013-.04-.029-.08-.044-.12l0,.005c.015.039.03.077.043.117a3.985,3.985,0,0,1,.2,1.413,5.907,5.907,0,0,1-.22,1.415c-.016.057-.028.117-.047.173l-.055.171-.055.17c-.018.057-.036.114-.058.169-.086.223-.166.447-.268.663a15.961,15.961,0,0,1-1.393,2.48q-.1.153-.209.3v0Q664.268,605.2,664.371,605.046Zm-.461.657,0-.005,0,0,0,.005Zm-4.164-6.082a4.933,4.933,0,0,0,.635,1.273l.048.075c.017.024.035.048.052.072l.105.143.105.143c.035.047.074.091.112.137l.226.272.239.26a15.749,15.749,0,0,1,1.783,2.194,12.88,12.88,0,0,1,.73,1.252l0-.006a12.938,12.938,0,0,0-.729-1.25,15.794,15.794,0,0,0-1.783-2.194l-.239-.26-.226-.272c-.037-.046-.076-.09-.112-.137l-.1-.142-.105-.143c-.017-.024-.035-.047-.052-.072l-.048-.075a4.932,4.932,0,0,1-.635-1.271,2.867,2.867,0,0,1-.122-1.182l-.007-.008A2.881,2.881,0,0,0,659.746,599.621Zm3.3-8.4a15.728,15.728,0,0,1-1.783,2.193l-.239.26-.226.272c-.037.046-.076.09-.112.138l-.105.143-.105.143c-.017.024-.035.047-.052.072l-.048.075a4.932,4.932,0,0,0-.635,1.273,2.88,2.88,0,0,0-.123,1.192l.007-.008a2.868,2.868,0,0,1,.122-1.182,4.945,4.945,0,0,1,.635-1.271l.048-.075c.017-.024.035-.048.052-.072l.105-.143.1-.143c.035-.047.075-.091.112-.137l.226-.272.239-.26a15.777,15.777,0,0,0,1.783-2.195,12.9,12.9,0,0,0,.729-1.25l0-.006A12.913,12.913,0,0,1,663.051,591.219Zm.858-1.51,0,.005,0,0,0,0Z" transform="translate(-659.049 -575.302)" fill="#575656"/>
          <path id="パス_2923-3" data-name="パス 2923" d="M684,577.777l-.045.058Z" transform="translate(-681.415 -533.289)" fill="#575656"/>
          <path id="パス_2924-3" data-name="パス 2924" d="M684.4,578.439c.026-.034.052-.069.078-.1l-.015.021Z" transform="translate(-681.809 -533.952)" fill="#575656"/>
        </g>
        <path id="パス_2925-3" data-name="パス 2925" d="M648.115,613.923v-47.7a.371.371,0,1,1,.741,0V613.5a.038.038,0,0,0,.037.039h45.435a.386.386,0,0,1,0,.771H648.485A.379.379,0,0,1,648.115,613.923Z" transform="translate(-648.115 -565.843)" fill="#575656"/>
      </g>
      <g id="グループ_1615" data-name="グループ 1615" transform="translate(294.349 159.639)">
        <path id="パス_2913-4" data-name="パス 2913" d="M857.737,662.209a10.106,10.106,0,0,1-1.237-4.222c0-.031-.02-.042-.034-.037s-.031.006-.034.037a10,10,0,0,1-1.271,4.273.889.889,0,0,0-.029.832l.028.056a.838.838,0,0,0,.462.464,2.145,2.145,0,0,1,.475.224.678.678,0,0,0,.692.016,2.994,2.994,0,0,1,.527-.242.84.84,0,0,0,.457-.462l0-.008A1.025,1.025,0,0,0,857.737,662.209Z" transform="translate(-832.407 -625.081)" fill="#575656"/>
        <g id="グループ_593-4" data-name="グループ 593" transform="translate(2.517 39.05)">
          <path id="パス_2914-4" data-name="パス 2914" d="M660.917,602.781l.1.082-.081-.066Z" transform="translate(-618.256 -597.3)" fill="#575656"/>
          <path id="パス_2915-4" data-name="パス 2915" d="M660.428,602.384l-.056-.046Z" transform="translate(-617.611 -596.775)" fill="#575656"/>
          <path id="パス_2916-4" data-name="パス 2916" d="M699.912,581.925q-.568-.411-1.166-.773a16.121,16.121,0,0,0-2.491-1.241,13.092,13.092,0,0,0-2.667-.741,10.678,10.678,0,0,0-2.756-.094,9.818,9.818,0,0,0-2.685.65c-.252.1-.5.208-.742.326l0,0c.244-.119.492-.229.745-.328a9.841,9.841,0,0,1,2.686-.65,10.69,10.69,0,0,1,2.757.1,13.079,13.079,0,0,1,2.667.742,16.186,16.186,0,0,1,2.491,1.242q.6.363,1.165.774c.293.213.58.433.857.668l-.009-.008q.126.106.248.215l-.026-.024c-.049-.044-.168-.15-.357-.306-.254-.209-.634-.508-1.136-.859a18.55,18.55,0,0,0-1.883-1.153,15.314,15.314,0,0,0-2.635-1.112,12.3,12.3,0,0,0-1.593-.387,11,11,0,0,0-1.753-.165,10.336,10.336,0,0,0-1.866.144,10.527,10.527,0,0,0-1.9.517q-.385.145-.764.324a17.38,17.38,0,0,0-1.544-1.187l-.34-.225c-.057-.039-.116-.075-.176-.11l-.18-.108c-.238-.149-.5-.278-.755-.415a7.967,7.967,0,0,0-1.728-.627,5.388,5.388,0,0,0-.982-.131c-.085,0-.171,0-.258,0a2.026,2.026,0,0,0-.26.014l-.264.03c-.088.015-.176.036-.265.054a1.328,1.328,0,0,1-1.738,0c-.089-.018-.177-.039-.265-.054l-.263-.03a2.033,2.033,0,0,0-.261-.014c-.086,0-.173,0-.258,0a5.4,5.4,0,0,0-.983.131,7.973,7.973,0,0,0-1.728.627c-.259.137-.517.266-.755.415l-.18.108c-.06.035-.119.071-.176.11l-.34.225a17.237,17.237,0,0,0-1.543,1.187q-.379-.178-.764-.324a10.526,10.526,0,0,0-1.9-.517,10.336,10.336,0,0,0-1.866-.144,10.992,10.992,0,0,0-1.753.165,12.277,12.277,0,0,0-1.593.387,15.3,15.3,0,0,0-2.635,1.112,18.46,18.46,0,0,0-1.883,1.153c-.5.351-.883.649-1.137.859-.188.155-.307.262-.357.306l-.026.024c.081-.073.164-.145.248-.216l-.009.008c.277-.235.564-.455.857-.668q.567-.411,1.165-.774a16.206,16.206,0,0,1,2.491-1.242,13.081,13.081,0,0,1,2.667-.742,10.7,10.7,0,0,1,2.757-.1,10.073,10.073,0,0,1,1.364.23,9.965,9.965,0,0,1,1.321.42c.253.1.5.209.745.328l0,0c-.243-.118-.49-.228-.742-.326a9.817,9.817,0,0,0-2.685-.65,10.678,10.678,0,0,0-2.756.094,13.09,13.09,0,0,0-2.667.741,16.135,16.135,0,0,0-2.491,1.241q-.6.362-1.166.773c-.235.171-.466.348-.692.532.256-.206.631-.493,1.129-.823a15.971,15.971,0,0,1,1.912-1.083,13.937,13.937,0,0,1,2.654-.963,11.088,11.088,0,0,1,3.275-.332,9.871,9.871,0,0,1,1.766.256,10.1,10.1,0,0,1,1.757.6q.209.094.413.2l-.121.112-.235.216-.221.216-.417.408c-.259.27-.5.514-.712.74l-.562.607-.409.453c-.223.245-.345.372-.345.372l.494-.5.247-.252.253-.245c.169-.163.336-.328.507-.489l.517-.477q.6-.538,1.22-1.046h0c-.416.337-.822.687-1.221,1.045l-.518.477c-.171.161-.338.326-.507.489l-.253.245-.247.251-.494.5s.124-.125.365-.352c.121-.112.269-.252.446-.412l.619-.539c.234-.2.5-.411.784-.646l.455-.353.24-.186.253-.185.3-.217a12.534,12.534,0,0,1,2.367,1.767q.367.345.714.717l.371.387c.124.134.263.258.4.385l.1.095c.034.031.071.06.107.09l.216.179c.07.062.15.114.226.171s.152.112.232.165a5.249,5.249,0,0,0,1.041.535,3.143,3.143,0,0,0,1.232.182,1.8,1.8,0,0,1,1.557,0,3.141,3.141,0,0,0,1.232-.182,5.265,5.265,0,0,0,1.042-.535c.08-.053.154-.11.232-.165s.156-.109.226-.171l.216-.179c.036-.03.073-.059.107-.09l.1-.095c.135-.127.273-.25.4-.385l.371-.387c.231-.249.47-.487.715-.717a12.521,12.521,0,0,1,2.366-1.767l.3.217.253.185.24.186.455.353c.285.235.55.447.784.646l.619.539c.178.16.325.3.446.412.241.227.365.352.365.352l-.495-.5-.247-.251-.253-.245c-.169-.163-.336-.328-.507-.489l-.518-.477c-.4-.358-.805-.708-1.221-1.045h0q.623.506,1.22,1.046l.518.477c.171.161.338.326.507.489l.253.245.247.252.494.5s-.123-.127-.346-.372l-.409-.453-.562-.607c-.212-.226-.453-.47-.712-.74l-.417-.408-.221-.216-.235-.216-.121-.112q.206-.1.414-.2a10.083,10.083,0,0,1,1.757-.6,9.865,9.865,0,0,1,1.766-.256,11.089,11.089,0,0,1,3.275.332,13.953,13.953,0,0,1,2.654.963,16.005,16.005,0,0,1,1.912,1.083c.5.33.873.616,1.129.823Q700.265,582.181,699.912,581.925Zm-18.42-4.414a5.3,5.3,0,0,1,1.362.229c.055.017.112.029.167.049l.164.057.164.057c.055.019.11.038.163.061.214.089.43.173.637.278a15.092,15.092,0,0,1,2.384,1.451q.147.108.293.219h0q-.145-.11-.292-.217a15.114,15.114,0,0,0-2.384-1.449c-.208-.105-.424-.188-.638-.278-.053-.023-.107-.042-.162-.061l-.164-.057-.164-.057c-.054-.02-.111-.032-.166-.048a5.282,5.282,0,0,0-1.361-.229,3.568,3.568,0,0,0-1.358.209c-.038.014-.074.029-.112.045l0,0c.038-.016.076-.032.115-.046A3.564,3.564,0,0,1,681.492,577.512Zm-3.866,5.237a4.313,4.313,0,0,0,.5,1.127c.038.06.079.12.121.178a2.452,2.452,0,0,1-.442-.094,4.22,4.22,0,0,1-.827-.389c-.068-.041-.133-.088-.2-.131s-.135-.085-.2-.137l-.194-.148c-.032-.025-.065-.049-.1-.075l-.094-.08c-.125-.108-.253-.211-.372-.329s-.239-.224-.372-.353q-.386-.377-.8-.723a12.961,12.961,0,0,0-2.245-1.538c.421-.28.872-.559,1.356-.825l.341-.183c.057-.032.115-.061.174-.088l.177-.086c.236-.12.483-.219.731-.326a7.7,7.7,0,0,1,1.569-.446,4.784,4.784,0,0,1,.812-.06c.067,0,.133.01.2.013a1.441,1.441,0,0,1,.2.021l.2.032c.064.015.127.033.191.049.032.009.065.015.1.026l.041.015-.051.059a4,4,0,0,0-.609,1,5,5,0,0,0-.327,1.128A5.391,5.391,0,0,0,677.625,582.749Zm1.182,1.079a3.106,3.106,0,0,1-.376-.6c-.056-.1-.095-.219-.141-.328-.021-.056-.038-.113-.057-.17s-.038-.113-.052-.172a4.793,4.793,0,0,1-.165-1.423,4.637,4.637,0,0,1,.257-1.408,3.561,3.561,0,0,1,.713-1.222l.044-.045,0,0-.044.046a3.552,3.552,0,0,0-.711,1.22,4.626,4.626,0,0,0-.257,1.406,4.776,4.776,0,0,0,.165,1.421c.013.058.033.115.052.171s.036.114.057.17c.047.109.085.223.141.327a3.068,3.068,0,0,0,.375.6c.045.057.093.11.143.161l-.007,0C678.9,583.937,678.852,583.884,678.807,583.828Zm.668-.152a2.685,2.685,0,0,1-.722-1.271,4.294,4.294,0,0,1-.1-1.809,3.388,3.388,0,0,1,.649-1.576c.053-.067.11-.13.168-.191.058.061.115.124.168.191a3.386,3.386,0,0,1,.649,1.576,4.29,4.29,0,0,1-.1,1.809A2.685,2.685,0,0,1,679.476,583.676Zm0-5.6,0,0,0,0,0,0Zm0,6.323.007,0,.007,0-.007,0Zm.527-.411c.05-.051.1-.1.143-.161a3.074,3.074,0,0,0,.375-.6c.056-.1.095-.218.141-.327.02-.056.038-.113.057-.17s.038-.113.052-.171a4.776,4.776,0,0,0,.165-1.421,4.624,4.624,0,0,0-.257-1.406,3.552,3.552,0,0,0-.711-1.22l-.044-.046,0,0,.043.045a3.556,3.556,0,0,1,.713,1.222,4.644,4.644,0,0,1,.257,1.408,4.785,4.785,0,0,1-.165,1.423c-.014.058-.033.115-.052.172s-.036.114-.057.17c-.047.11-.085.223-.142.328a3.075,3.075,0,0,1-.376.6c-.044.056-.092.109-.141.159Zm.833-.108a4.3,4.3,0,0,0,.5-1.127,5.393,5.393,0,0,0,.123-2.358,5.034,5.034,0,0,0-.327-1.128,4.018,4.018,0,0,0-.609-1l-.051-.059.041-.015c.03-.011.063-.017.095-.026.064-.016.127-.035.191-.049l.2-.032a1.443,1.443,0,0,1,.2-.021c.067,0,.134-.012.2-.013a4.781,4.781,0,0,1,.812.06,7.685,7.685,0,0,1,1.569.446c.248.107.5.206.731.326l.177.086c.059.028.118.056.175.088l.341.183c.484.266.935.545,1.356.825a12.958,12.958,0,0,0-2.246,1.538q-.409.345-.8.723c-.134.129-.25.238-.372.353s-.247.222-.372.329l-.094.08c-.032.026-.065.05-.1.075l-.194.148c-.064.052-.132.092-.2.137s-.133.09-.2.131a4.211,4.211,0,0,1-.827.389,2.456,2.456,0,0,1-.442.094C680.749,584,680.79,583.937,680.829,583.877Zm-8.409-4.184a15.089,15.089,0,0,1,2.384-1.451c.207-.1.423-.189.637-.278.053-.023.108-.042.163-.061l.164-.057.164-.057c.054-.019.111-.032.166-.049a5.3,5.3,0,0,1,1.362-.229,3.563,3.563,0,0,1,1.36.209c.039.014.077.03.115.046l0,0c-.037-.015-.074-.031-.112-.045a3.567,3.567,0,0,0-1.358-.209,5.282,5.282,0,0,0-1.361.229c-.055.016-.112.029-.166.048l-.164.057-.164.057c-.055.019-.109.037-.163.061-.214.089-.43.173-.637.278a15.089,15.089,0,0,0-2.384,1.449q-.147.107-.293.217h0Q672.271,579.8,672.419,579.693Zm-.632.48.005,0h0l-.005,0Zm5.846,4.332a4.6,4.6,0,0,1-1.224-.661l-.072-.05c-.023-.017-.046-.036-.069-.055l-.138-.109-.137-.109c-.046-.037-.088-.078-.132-.116l-.262-.235-.25-.248a15.462,15.462,0,0,0-2.109-1.855,12.235,12.235,0,0,0-1.2-.76l.005,0a12.113,12.113,0,0,1,1.2.759,15.432,15.432,0,0,1,2.11,1.855l.25.248.262.235c.044.039.086.079.132.116l.137.109.137.109c.023.018.046.037.069.054l.072.05a4.621,4.621,0,0,0,1.222.661,2.574,2.574,0,0,0,1.136.127l.009.006A2.556,2.556,0,0,1,677.633,584.5Zm8.076-3.438a15.507,15.507,0,0,0-2.108,1.855l-.25.248-.262.235c-.044.039-.087.079-.132.116l-.137.109-.138.109c-.023.018-.045.037-.068.055l-.072.05a4.6,4.6,0,0,1-1.223.661,2.556,2.556,0,0,1-1.146.128l.008-.006a2.574,2.574,0,0,0,1.136-.127,4.623,4.623,0,0,0,1.222-.661l.072-.05c.024-.017.046-.036.069-.054l.137-.109.137-.109c.046-.037.088-.078.132-.116l.262-.235.25-.248a15.437,15.437,0,0,1,2.11-1.855,12.113,12.113,0,0,1,1.2-.759l.005,0A12.261,12.261,0,0,0,685.709,581.066Zm1.451-.892,0,0h0l0,0Z" transform="translate(-657.943 -576.976)" fill="#575656"/>
          <path id="パス_2917-4" data-name="パス 2917" d="M1076.915,602.34l-.055.046Z" transform="translate(-1076.611 -596.778)" fill="#575656"/>
          <path id="パス_2918-4" data-name="パス 2918" d="M1075.878,602.867l.1-.082-.02.016Z" transform="translate(-1075.574 -597.305)" fill="#575656"/>
        </g>
        <path id="パス_2919-4" data-name="パス 2919" d="M742.671,776.123a9.164,9.164,0,0,1-4.057,1.287c-.03,0-.041.02-.036.035s.006.033.036.036a9.076,9.076,0,0,1,4.107,1.322.8.8,0,0,0,.8.031l.054-.029a.844.844,0,0,0,.446-.481,2.307,2.307,0,0,1,.216-.494.755.755,0,0,0,.015-.72,3.287,3.287,0,0,1-.232-.548.848.848,0,0,0-.444-.475l-.008,0A.92.92,0,0,0,742.671,776.123Z" transform="translate(-706.984 -752.379)" fill="#575656"/>
        <g id="グループ_594-4" data-name="グループ 594" transform="translate(37.535 2.675)">
          <path id="パス_2920-4" data-name="パス 2920" d="M684.4,1000.933l.079-.105-.063.084Z" transform="translate(-679.128 -1000.512)" fill="#575656"/>
          <path id="パス_2921-4" data-name="パス 2921" d="M684,1001.835l-.045.058Z" transform="translate(-678.611 -1001.577)" fill="#575656"/>
          <path id="パス_2922-4" data-name="パス 2922" d="M663.806,576.443q-.395.59-.743,1.213a17.436,17.436,0,0,0-1.193,2.592,14.506,14.506,0,0,0-.712,2.774,12,12,0,0,0-.091,2.867,11.2,11.2,0,0,0,.221,1.419,10.989,10.989,0,0,0,.4,1.374c.094.262.2.519.314.772l0,.005c-.114-.254-.22-.512-.315-.775a11.12,11.12,0,0,1-.4-1.375,11.329,11.329,0,0,1-.22-1.42,12,12,0,0,1,.092-2.868,14.464,14.464,0,0,1,.713-2.775,17.369,17.369,0,0,1,1.194-2.591q.349-.621.744-1.212c.2-.3.417-.6.642-.892l-.007.009c.068-.087.136-.173.207-.258l-.023.027c-.043.051-.145.175-.294.371-.2.264-.488.659-.825,1.182a19.478,19.478,0,0,0-1.108,1.959,16.655,16.655,0,0,0-1.069,2.741,13.551,13.551,0,0,0-.372,1.657,12.293,12.293,0,0,0-.159,1.824,11.421,11.421,0,0,0,.635,3.918q.14.4.311.795a18,18,0,0,0-1.141,1.606l-.217.353c-.037.059-.072.12-.106.183l-.1.188c-.144.248-.267.516-.4.785a8.752,8.752,0,0,0-.6,1.8,6.064,6.064,0,0,0-.126,1.022c0,.088,0,.178,0,.268a2.292,2.292,0,0,0,.014.272q.014.136.029.274c.015.091.034.183.052.275a1.468,1.468,0,0,1,0,1.808c-.018.092-.037.184-.052.275s-.019.183-.029.274a2.283,2.283,0,0,0-.014.271c0,.09,0,.18,0,.268a6.067,6.067,0,0,0,.126,1.022,8.748,8.748,0,0,0,.6,1.8c.132.27.256.537.4.785l.1.187c.034.062.069.124.106.183l.217.353a17.977,17.977,0,0,0,1.141,1.606q-.17.394-.311.795a11.741,11.741,0,0,0-.5,1.978,11.611,11.611,0,0,0-.139,1.941,12.3,12.3,0,0,0,.159,1.824,13.563,13.563,0,0,0,.372,1.657,16.63,16.63,0,0,0,1.069,2.741,19.469,19.469,0,0,0,1.108,1.959c.337.524.624.918.825,1.182.149.2.251.32.294.371l.023.027c-.071-.085-.139-.171-.207-.258l.007.01c-.225-.288-.438-.587-.642-.891q-.4-.59-.744-1.212a17.361,17.361,0,0,1-1.194-2.592,14.459,14.459,0,0,1-.713-2.774,12,12,0,0,1-.092-2.869,11.319,11.319,0,0,1,.22-1.419,11.124,11.124,0,0,1,.4-1.375c.095-.263.2-.521.315-.775l0,0c-.114.253-.219.51-.314.772a10.986,10.986,0,0,0-.4,1.374,11.2,11.2,0,0,0-.221,1.419,12,12,0,0,0,.091,2.867,14.5,14.5,0,0,0,.712,2.774,17.438,17.438,0,0,0,1.193,2.592q.349.621.743,1.213.246.367.511.72c-.2-.266-.474-.656-.791-1.174a16.975,16.975,0,0,1-1.041-1.989,15.346,15.346,0,0,1-.926-2.761,12.457,12.457,0,0,1-.319-3.407,11.02,11.02,0,0,1,.246-1.837,11.15,11.15,0,0,1,.58-1.828q.091-.217.191-.43l.108.126.208.244.208.23.393.434c.259.27.494.521.711.741l.583.585.436.426c.236.232.358.359.358.359l-.484-.514-.242-.257-.236-.263c-.157-.176-.316-.349-.47-.527l-.459-.538q-.517-.621-1-1.269v0q.486.648,1.005,1.27l.458.539c.155.178.314.351.47.527l.236.263.242.257.483.515s-.12-.13-.338-.38c-.108-.125-.242-.279-.4-.464l-.518-.644c-.191-.244-.4-.519-.621-.816l-.339-.473-.178-.25-.178-.263q-.1-.152-.208-.311a12.991,12.991,0,0,1,1.7-2.462c.221-.254.451-.5.689-.744l.372-.385c.129-.129.248-.274.37-.414l.091-.106c.03-.036.058-.074.087-.112l.172-.225c.059-.073.11-.156.164-.235s.108-.159.159-.242a5.649,5.649,0,0,0,.514-1.084,3.525,3.525,0,0,0,.175-1.282,2.018,2.018,0,0,1,0-1.62,3.525,3.525,0,0,0-.175-1.282,5.648,5.648,0,0,0-.514-1.084c-.051-.083-.106-.161-.159-.242s-.105-.162-.164-.234l-.172-.225c-.029-.037-.057-.076-.087-.111l-.091-.106c-.122-.141-.241-.285-.37-.414l-.372-.385c-.239-.24-.468-.489-.689-.743a13,13,0,0,1-1.7-2.462c.07-.105.14-.209.208-.31l.178-.263.178-.25.339-.473c.225-.3.43-.572.621-.816l.518-.644c.154-.185.288-.339.4-.464.217-.251.338-.38.338-.38l-.483.514-.242.257-.236.263c-.156.176-.315.35-.47.528l-.458.539q-.517.622-1.005,1.27v0q.487-.648,1-1.269l.459-.538c.155-.178.314-.352.47-.527l.236-.263.242-.257.484-.514s-.121.128-.358.359l-.436.426-.583.585c-.218.221-.452.471-.711.742l-.393.433-.208.23-.208.244-.108.126q-.1-.214-.191-.43a11.167,11.167,0,0,1-.58-1.828,11.019,11.019,0,0,1-.246-1.837,12.455,12.455,0,0,1,.319-3.407,15.333,15.333,0,0,1,.926-2.761,16.968,16.968,0,0,1,1.041-1.989c.316-.518.592-.908.79-1.174Q664.052,576.075,663.806,576.443Zm-4.242,19.164a5.905,5.905,0,0,1,.22-1.417c.016-.058.027-.116.046-.173l.055-.171.055-.171c.018-.057.036-.114.058-.169.086-.223.167-.448.267-.664a16.012,16.012,0,0,1,1.395-2.48c.069-.1.139-.2.21-.305v0q-.105.151-.209.3a15.981,15.981,0,0,0-1.393,2.48c-.1.216-.182.441-.268.663-.023.055-.04.112-.058.169l-.055.171-.055.171c-.019.056-.031.115-.047.173a5.908,5.908,0,0,0-.22,1.416,3.986,3.986,0,0,0,.2,1.413c.013.039.028.078.043.116l0,0c-.015-.039-.031-.079-.044-.119A3.99,3.99,0,0,1,659.564,595.607Zm5.034,4.022a4,4,0,0,0,1.083-.517c.058-.04.115-.082.171-.127a2.781,2.781,0,0,1-.089.459,4.6,4.6,0,0,1-.374.86c-.039.07-.085.139-.126.208s-.082.14-.132.207l-.142.2c-.024.034-.046.068-.072.1l-.078.1c-.1.13-.2.263-.316.387s-.216.249-.34.388q-.362.4-.695.828a13.56,13.56,0,0,0-1.478,2.336c-.269-.438-.538-.908-.793-1.411l-.176-.355c-.03-.059-.058-.12-.085-.182l-.082-.185c-.115-.245-.21-.5-.313-.76a8.525,8.525,0,0,1-.429-1.632,5.364,5.364,0,0,1-.058-.844c0-.07.009-.139.013-.208a1.639,1.639,0,0,1,.02-.207c.01-.068.02-.136.03-.2s.032-.133.048-.2c.008-.033.014-.067.025-.1l.015-.043.057.053a3.8,3.8,0,0,0,.965.633,4.537,4.537,0,0,0,1.085.34A4.8,4.8,0,0,0,664.6,599.629Zm1.037-1.23a2.935,2.935,0,0,1-.579.392c-.1.059-.21.1-.315.147-.054.021-.109.04-.163.059s-.109.04-.165.054a4.267,4.267,0,0,1-1.368.172,4.149,4.149,0,0,1-1.354-.267,3.382,3.382,0,0,1-1.174-.742l-.043-.046,0,0c.015.015.029.031.045.046a3.359,3.359,0,0,0,1.172.74,4.146,4.146,0,0,0,1.351.267,4.261,4.261,0,0,0,1.366-.172,1.643,1.643,0,0,0,.165-.054c.054-.02.109-.038.163-.059.105-.048.214-.089.315-.147a2.914,2.914,0,0,0,.577-.391c.055-.047.105-.1.155-.149l0,.007C665.739,598.3,665.689,598.353,665.635,598.4Zm-.146-.695a2.538,2.538,0,0,1-1.221.751,3.821,3.821,0,0,1-1.739.1,3.125,3.125,0,0,1-1.515-.675,2.517,2.517,0,0,1-.184-.175c.058-.06.119-.12.184-.175a3.126,3.126,0,0,1,1.515-.675,3.831,3.831,0,0,1,1.739.1A2.547,2.547,0,0,1,665.489,597.7Zm-5.386.005,0-.005,0,0,0,0Zm6.078,0,0-.007,0-.007,0,.007Zm-.4-.548a2.112,2.112,0,0,0-.155-.149,2.936,2.936,0,0,0-.577-.391c-.1-.058-.21-.1-.315-.147-.054-.021-.109-.039-.163-.059s-.109-.039-.165-.054a4.267,4.267,0,0,0-1.366-.172,4.145,4.145,0,0,0-1.351.267,3.367,3.367,0,0,0-1.172.741c-.015.015-.03.031-.045.046l0-.005.043-.045a3.376,3.376,0,0,1,1.174-.742,4.159,4.159,0,0,1,1.354-.267,4.274,4.274,0,0,1,1.368.172,1.7,1.7,0,0,1,.165.054c.054.02.109.038.163.059.105.049.214.089.315.147a2.944,2.944,0,0,1,.579.392,2.111,2.111,0,0,1,.153.147Zm-.1-.867a4,4,0,0,0-1.083-.517,4.8,4.8,0,0,0-2.267-.128,4.55,4.55,0,0,0-1.085.34,3.819,3.819,0,0,0-.965.634l-.057.053-.015-.042c-.011-.032-.016-.066-.025-.1-.016-.066-.034-.132-.048-.2s-.02-.137-.03-.2a1.633,1.633,0,0,1-.02-.207c0-.07-.011-.139-.013-.208a5.363,5.363,0,0,1,.058-.845,8.512,8.512,0,0,1,.429-1.632c.1-.258.2-.515.313-.761l.082-.185c.026-.062.054-.122.085-.182l.176-.355c.255-.5.524-.973.793-1.411a13.579,13.579,0,0,0,1.478,2.336q.332.426.695.828c.124.139.229.261.34.388s.213.257.316.387l.078.1c.026.033.048.068.072.1l.142.2c.05.066.088.137.132.206s.087.138.126.208a4.611,4.611,0,0,1,.374.86,2.789,2.789,0,0,1,.089.459C665.8,596.379,665.739,596.337,665.682,596.3Zm-4.021,8.749a16,16,0,0,1-1.395-2.48c-.1-.216-.181-.441-.267-.663-.022-.055-.041-.112-.058-.169l-.055-.17-.055-.171c-.019-.057-.031-.116-.046-.173a5.9,5.9,0,0,1-.22-1.417,3.988,3.988,0,0,1,.2-1.415c.013-.04.029-.08.044-.12l0,.005c-.015.039-.03.077-.043.117a3.985,3.985,0,0,0-.2,1.413,5.907,5.907,0,0,0,.22,1.415c.016.057.028.117.047.173l.055.171.055.17c.018.057.036.114.058.169.086.223.166.447.268.663a15.961,15.961,0,0,0,1.393,2.48q.1.153.209.3v0Q661.764,605.2,661.66,605.046Zm.461.657,0-.005,0,0,0,.005Zm4.164-6.082a4.933,4.933,0,0,1-.635,1.273l-.048.075c-.017.024-.035.048-.052.072l-.105.143-.105.143c-.035.047-.074.091-.112.137l-.226.272-.239.26a15.749,15.749,0,0,0-1.783,2.194,12.88,12.88,0,0,0-.73,1.252l0-.006a12.938,12.938,0,0,1,.729-1.25,15.794,15.794,0,0,1,1.783-2.194l.239-.26.226-.272c.037-.046.076-.09.112-.137l.1-.142.105-.143c.017-.024.035-.047.052-.072l.048-.075a4.932,4.932,0,0,0,.635-1.271,2.867,2.867,0,0,0,.122-1.182l.007-.008A2.881,2.881,0,0,1,666.285,599.621Zm-3.3-8.4a15.728,15.728,0,0,0,1.783,2.193l.239.26.226.272c.037.046.076.09.112.138l.105.143.105.143c.017.024.035.047.052.072l.048.075a4.932,4.932,0,0,1,.635,1.273,2.88,2.88,0,0,1,.123,1.192l-.007-.008a2.868,2.868,0,0,0-.122-1.182,4.945,4.945,0,0,0-.635-1.271l-.048-.075c-.017-.024-.035-.048-.052-.072l-.105-.143-.1-.143c-.035-.047-.075-.091-.112-.137l-.226-.272-.239-.26a15.777,15.777,0,0,1-1.783-2.195,12.9,12.9,0,0,1-.729-1.25l0-.006A12.913,12.913,0,0,0,662.981,591.219Zm-.858-1.51,0,.005,0,0,0,0Z" transform="translate(-659.049 -575.302)" fill="#575656"/>
          <path id="パス_2923-4" data-name="パス 2923" d="M683.958,577.777l.045.058Z" transform="translate(-678.611 -533.289)" fill="#575656"/>
          <path id="パス_2924-4" data-name="パス 2924" d="M684.475,578.439c-.026-.034-.052-.069-.078-.1l.015.021Z" transform="translate(-679.129 -533.952)" fill="#575656"/>
        </g>
        <path id="パス_2925-4" data-name="パス 2925" d="M694.7,613.923v-47.7a.371.371,0,1,0-.741,0V613.5a.038.038,0,0,1-.037.039H648.486a.386.386,0,0,0,0,.771h45.843A.379.379,0,0,0,694.7,613.923Z" transform="translate(-648.115 -565.843)" fill="#575656"/>
      </g>
    </g>
    <text id="ヘアスタイルは花嫁にとって一番重要です_輪郭やヘアカラーの色により_似合う髪形はそれぞれ_Milfeliceからお好みに合わせて_様々なヘアスタイルを提案させていただきます_美容師の視点から_髪の悩みや普段のお手入れなどもアドバイスできたらと思います_" data-name="ヘアスタイルは花嫁にとって一番重要です。
輪郭やヘアカラーの色により、似合う髪形はそれぞれ。Milfeliceからお好みに合わせて、様々なヘアスタイルを提案させていただきます。美容師の視点から、髪の悩みや普段のお手入れなどもアドバイスできたらと思います。" transform="translate(36 1127)" fill="#3a3a3a" font-size="12" font-family="YuGo-Medium, YuGothic" font-weight="500" letter-spacing="0.03em"><tspan x="0" y="11">ヘアスタイルは花嫁にとって一番重要です。</tspan><tspan x="0" y="32.6">輪郭やヘアカラーの色により、似合う髪形はそれぞ</tspan><tspan x="0" y="54.2">れ。Milfeliceからお好みに合わせて、様々なヘアスタ</tspan><tspan x="0" y="75.8">イルを提案させていただきます。美容師の視点から、</tspan><tspan x="0" y="97.4">髪の悩みや普段のお手入れなどもアドバイスできたら</tspan><tspan x="0" y="119">と思います。</tspan></text>
    <text id="自分に似合う髪形がわからない" transform="translate(193 1095)" fill="#575656" font-size="16" font-family="YuGo-Bold, YuGothic" font-weight="700" letter-spacing="0.02em"><tspan x="-114.08" y="14">自分に似合う髪形がわからない</tspan></text>
  </g>
</svg>
