<svg xmlns="http://www.w3.org/2000/svg" width="565.703" height="148.491" viewBox="0 0 565.703 148.491">
  <g id="コンポーネント_11_1" data-name="コンポーネント 11 – 1" transform="translate(0 1.437)">
    <g id="グループ_868" data-name="グループ 868" transform="translate(-651.251 -1481.946)">
      <path id="パス_3789" data-name="パス 3789" d="M-205.93,5.865c-.414,0-1.863,2.07-7.452,2.07-5.313,0-10.074-1.38-15.111-2.553.138-.138.138-.345.207-.552.138-1.725,2.277-10.35,6.693-21.183,6.486-15.87,13.524-23.805,13.524-24.564a1.166,1.166,0,0,0-.138-.345,79.7,79.7,0,0,1,15.042,4.14,2.02,2.02,0,0,0,1.449-1.656c0-1.311-15.111-6.072-33.6-6.072-13.662,0-25.668,5.8-25.668,15.456s9.453,13.248,14.421,13.248c1.035,0,1.518-.207,1.518-.621,0-.276-.138-.621-1.035-.621-4.278,0-12.282-3.657-12.282-11.385,0-8.625,9.591-13.8,23.391-13.8a105.167,105.167,0,0,1,14.352.966c-2.346,2.553-8.694,12.765-13.386,24.081-4.9,11.868-6.693,20.424-6.693,21.6a1.91,1.91,0,0,0,.207.9,46.75,46.75,0,0,0-9.522-1.1c-9.8,0-12.558,6.279-12.558,9.66,0,.621.276.759.552.759s.552-.138.552-.621c0-2.9,2.622-7.659,10.9-7.659C-230.011,6-222.7,10.35-213.8,10.35c6.141,0,8.349-3.105,8.349-4A.468.468,0,0,0-205.93,5.865ZM-178.882-6A4.773,4.773,0,0,0-173.914-.69a8.508,8.508,0,0,0,5.037-2.07,6.961,6.961,0,0,0,4.692,1.518c3.243,0,6.693-1.656,10.143-5.451a1.541,1.541,0,0,0,.345-.69.879.879,0,0,0-.759-.759c-.345,0-.69.414-.69.414-3.1,3.588-6,4.761-8.694,4.761a2.992,2.992,0,0,1-3.036-1.656,13.737,13.737,0,0,0,3.519-8.556c0-2.346-1.725-3.726-2.277-3.726a.59.59,0,0,0-.552.552,6.831,6.831,0,0,1,.552,2.622,12.431,12.431,0,0,1-2.139,6.693h-.207a2.272,2.272,0,0,0-2,1.932,1.91,1.91,0,0,0,.069.621,5.91,5.91,0,0,1-3.657,1.725c-1.656,0-2.829-.9-2.829-3.036,0-3.312,3.036-6.348,3.036-6.969a1.229,1.229,0,0,0-1.173-1.311c-.621,0-2.139,2.622-5.727,6.762-3.45,3.933-7.176,6.9-9.315,6.9-1.1,0-1.794-.483-1.794-2.208,0-5.727,6.9-13.11,9.384-14.766a.752.752,0,0,0,.414-.621,1.113,1.113,0,0,0-1.035-1.1c-2.346,0-11.385,10.143-11.385,16.767a3.919,3.919,0,0,0,4.209,3.933C-187.3,1.587-182.539-1.863-178.882-6Zm38.5-.69a1.541,1.541,0,0,0,.345-.69.886.886,0,0,0-.828-.759c-.276,0-.621.414-.621.414S-147.349-1.1-151.972-1.1a2.083,2.083,0,0,1-2.277-2.208c0-3.864,4.968-10.143,6.624-12.144a1.768,1.768,0,0,0,.414-.828.987.987,0,0,0-1.1-1.035c-1.173,0-8.28,9.315-8.28,14.007a3.84,3.84,0,0,0,4.14,4C-147.142.69-140.38-6.693-140.38-6.693Zm-1.587-20.148c-1.173,0-2.277,1.725-2.277,2.9a1.254,1.254,0,0,0,1.311,1.242c1.1,0,2.277-1.725,2.277-2.967A1.2,1.2,0,0,0-141.967-26.841Zm10.35,23.529c0-4.554-2.346-6.486-2.346-9.591,0-2.622,2.967-4.9,2.967-5.658a1.6,1.6,0,0,0-1.38-1.38c-.828,0-2,1.725-3.174,3.864a47.891,47.891,0,0,1-5.934,8.349,1.541,1.541,0,0,0-.345.69.813.813,0,0,0,.759.69,1.2,1.2,0,0,0,.69-.345,41.635,41.635,0,0,0,4.209-5.451c.138,2.967,2.415,5.106,2.415,8.763a6.077,6.077,0,0,1-.138,1.173,33.865,33.865,0,0,1-5.865.345c-2.139,0-3.657.828-3.657,2.76,0,1.449,1.656,3.036,4.278,3.036a7.577,7.577,0,0,0,7.107-4.968,17.3,17.3,0,0,0,9.522-5.658,1.541,1.541,0,0,0,.345-.69.886.886,0,0,0-.828-.759c-.276,0-.621.414-.621.414a15.576,15.576,0,0,1-8.073,5.106A2.127,2.127,0,0,0-131.617-3.312Zm-7.452,5.52c-1.656,0-2.346-.69-2.346-1.449,0-1.38,2.967-.828,6.969-1.311A5.4,5.4,0,0,1-139.07,2.208Zm44.919-8.9a1.541,1.541,0,0,0,.345-.69.816.816,0,0,0-.759-.759c-.345,0-.69.414-.69.414s-5.382,6.21-10.281,6.21c-1.242,0-1.587-.483-1.587-1.311,0-3.174,6.486-7.521,6.486-11.109a2.647,2.647,0,0,0-2.76-2.9c-3.8,0-15.387,9.246-20.631,14.7a52.54,52.54,0,0,1,3.105-5.589c8.763-6.831,24.84-19.251,24.84-25.254a3.377,3.377,0,0,0-3.657-3.381c-7.038,0-15.249,11.661-21.873,24.357-2.76,5.313-6,12.144-6,12.834A1.209,1.209,0,0,0-126.442,2c1.035,0,1.311-.483,2-1.242,5.658-6.072,17.664-15.456,20.7-15.456.207,0,.69.069.69.759,0,2.691-6.486,6.831-6.486,11.178,0,2,1.449,3.174,3.519,3.174C-100.567.414-94.15-6.693-94.15-6.693ZM-99.6-34.431c1.035,0,1.449.552,1.449,1.242,0,5.037-14.421,16.629-21.528,22.218C-112.849-24.15-104.707-34.431-99.6-34.431ZM-54.958-6.693a1.541,1.541,0,0,0,.345-.69.886.886,0,0,0-.828-.759c-.276,0-.621.414-.621.414-2.691,3.105-6.555,5.8-10.9,8.28.552-1.587,1.035-3.174,1.449-4.554a43.211,43.211,0,0,1,4.209-9.384,2.676,2.676,0,0,0,.414-.966,1.06,1.06,0,0,0-1.035-1.035c-.552,0-.759.345-1.1.966a42.973,42.973,0,0,1-4.83,7.452C-72-2.208-75.8.276-79.039.276a1.927,1.927,0,0,1-2.139-2.139c0-4,5.589-11.523,7.866-14.352.345-.414.483-.621.483-.759A1.378,1.378,0,0,0-74-18.147c-1.311,0-9.8,11.385-9.8,16.284a4.021,4.021,0,0,0,4.347,4.209c3.45,0,7.728-2.829,11.592-6.693-.552,1.932-1.242,4.209-2.07,6.555C-82.9,9.315-98.359,15.249-98.359,24.909c0,3.8,2.967,6.555,7.314,6.555,11.868,0,19.113-16.215,23.253-28.428C-62.825.138-58.2-2.967-54.958-6.693ZM-91.253,29.394c-3.1,0-4.968-1.932-4.968-4.554,0-7.866,13.248-13.317,25.461-20.079C-74.761,15.939-81.385,29.394-91.253,29.394Zm48.714-33.12h-.069c2.76-2.829,4.83-6.693,4.83-10.419,0-3.795-2.07-6.693-6.348-6.693-5.037,0-9.384,4.14-9.453,8.694a12.617,12.617,0,0,0-3.45,7.935,5.07,5.07,0,0,0,5.382,5.244A12.272,12.272,0,0,0-44.4-2.07,6.694,6.694,0,0,0-43.229-2c3.795,0,6.555-.966,10.074-4.692a1.541,1.541,0,0,0,.345-.69.879.879,0,0,0-.759-.759c-.345,0-.69.414-.69.414C-36.812-4.9-39.5-3.726-42.539-3.726Zm-9.039-7.728a11.8,11.8,0,0,1,7.8-4.554c.483-.069.966-.207.966-.759,0-.414-.414-.621-1.311-.621a11.671,11.671,0,0,0-6.831,2.76,8.068,8.068,0,0,1,7.038-4.14c2.346,0,3.864,2,3.864,4.554,0,3.588-2.346,7.521-5.244,10.074A8.5,8.5,0,0,1-51.577-11.454Zm0,10.419A2.682,2.682,0,0,1-54.544-4,11.528,11.528,0,0,1-53.1-9.177a11.55,11.55,0,0,0,6.141,6.348A8.171,8.171,0,0,1-51.577-1.035Zm36.57-14.145c-.276,0-.552.276-1.035.828-1.311,1.587-2.967,4.14-5.175,6.762-3.243,3.933-7.176,8-10.419,8a2.034,2.034,0,0,1-2.139-2.277c0-5.106,6.417-12.489,8.073-14.283.345-.345.552-.621.552-.828a1.392,1.392,0,0,0-1.242-1.173C-27.841-18.147-36.4-7.383-36.4-1.656a4.126,4.126,0,0,0,4.416,4.071c4.071,0,8.487-4.83,10.143-6.417a4.213,4.213,0,0,0,4.347,4C-12.937,0-6.8-6.693-6.8-6.693a1.541,1.541,0,0,0,.345-.69.879.879,0,0,0-.759-.759c-.345,0-.69.414-.69.414s-4.83,5.8-9.384,5.8A2.172,2.172,0,0,1-19.63-4.14,4.965,4.965,0,0,1-18.8-6.831a61.3,61.3,0,0,1,4.485-6.417c.345-.414.483-.621.483-.828A1.134,1.134,0,0,0-15.007-15.18Zm22.977-4.9c1.035,0,2.346.138,3.726.276C8.108-14.49,4.934-8.349,4.934-3.45A3.711,3.711,0,0,0,8.867.414c5.658,0,12.075-7.107,12.075-7.107a1.541,1.541,0,0,0,.345-.69.886.886,0,0,0-.828-.759c-.276,0-.621.414-.621.414s-5.52,6.141-10.35,6.141a1.839,1.839,0,0,1-2-2c0-5.037,3.105-10.971,6.555-15.87,2.76.345,5.589.759,7.383.759.621,0,1.449-.69,1.449-1.173,0-.276-.138-.552-.966-.552a49.807,49.807,0,0,1-6.624-.759c3.174-4.209,6.21-7.59,7.107-8.625.552-.69.759-.828.759-1.173a1.312,1.312,0,0,0-1.173-1.242c-.276,0-.621.207-1.035.69a126.4,126.4,0,0,0-8.073,10,38.451,38.451,0,0,0-4.554-.345c-2.829,0-4.071,1.1-4.071,1.794a.7.7,0,0,0,.759.69C5.486-19.389,5.9-20.079,7.97-20.079ZM49.3-6.693a1.541,1.541,0,0,0,.345-.69.816.816,0,0,0-.759-.759c-.345,0-.69.414-.69.414s-5.382,6.21-10.281,6.21c-1.242,0-1.587-.483-1.587-1.311,0-3.174,6.486-7.521,6.486-11.109a2.647,2.647,0,0,0-2.76-2.9c-3.8,0-15.387,9.246-20.631,14.7a52.541,52.541,0,0,1,3.1-5.589c8.763-6.831,24.84-19.251,24.84-25.254a3.377,3.377,0,0,0-3.657-3.381c-7.038,0-15.249,11.661-21.873,24.357-2.76,5.313-6,12.144-6,12.834A1.209,1.209,0,0,0,17.008,2c1.035,0,1.311-.483,2-1.242C24.667-5.313,36.673-14.7,39.709-14.7c.207,0,.69.069.69.759,0,2.691-6.486,6.831-6.486,11.178,0,2,1.449,3.174,3.519,3.174C42.883.414,49.3-6.693,49.3-6.693ZM43.849-34.431c1.035,0,1.449.552,1.449,1.242,0,5.037-14.421,16.629-21.528,22.218C30.6-24.15,38.743-34.431,43.849-34.431ZM69.587-6.693a1.541,1.541,0,0,0,.345-.69.816.816,0,0,0-.759-.759c-.345,0-.69.414-.69.414S62.135.069,53.855.069c-2.553,0-4.347-1.518-4.347-3.933a3.821,3.821,0,0,1,.138-1.242c5.727-1.449,14.973-5.244,14.973-9.384,0-1.725-1.449-2.967-3.588-2.967-5.313,0-13.938,6.969-13.938,13.386,0,3.933,3.036,6.141,6.762,6.141C61.859,2.07,69.587-6.693,69.587-6.693Zm-8.28-8.832c1.035,0,1.242.621,1.242.828,0,2.9-7.038,6.21-12.282,7.59C52.268-11.385,57.512-15.525,61.307-15.525ZM107.26-6.693a1.541,1.541,0,0,0,.345-.69.879.879,0,0,0-.759-.759c-.345,0-.69.414-.69.414A17.681,17.681,0,0,1,96.7-2.277C99.049-4.9,100.637-8,100.637-10.833c0-2.277-1.311-3.726-3.519-3.726-3.174,0-9.8,5.106-12.972,8A19.683,19.683,0,0,1,85.87-9.591c8.073-6.348,23.46-18.354,23.46-23.874a3.443,3.443,0,0,0-3.657-3.519c-7.176,0-14.9,12.144-21.528,24.978C81.454-6.831,80.7-4.071,80.7-3.243A1.553,1.553,0,0,0,81.938-2.07c.483,0,.9-.621,2.277-2,3.312-3.381,9.729-8.211,12.558-8.211.9,0,1.449.414,1.449,1.656,0,2.967-1.863,6.21-4.554,8.694-6.279.414-13.041.069-13.041,3.519,0,1.518,1.311,2.691,3.726,2.691,3.588,0,7.521-2,10.626-4.761A19.743,19.743,0,0,0,107.26-6.693Zm-1.587-28.29a1.352,1.352,0,0,1,1.518,1.311c0,4.692-13.869,15.8-20.424,21.045C93.737-25.185,100.43-34.983,105.674-34.983ZM84.353,2.484C83.111,2.484,82.7,2,82.7,1.518,82.7,0,87.044,0,91.667-.207A13.439,13.439,0,0,1,84.353,2.484Zm43.263-9.177a1.541,1.541,0,0,0,.345-.69.816.816,0,0,0-.759-.759c-.345,0-.69.414-.69.414s-6.348,7.8-14.628,7.8c-2.553,0-4.347-1.518-4.347-3.933a3.821,3.821,0,0,1,.138-1.242c5.727-1.449,14.973-5.244,14.973-9.384,0-1.725-1.449-2.967-3.588-2.967-5.313,0-13.938,6.969-13.938,13.386,0,3.933,3.036,6.141,6.762,6.141C119.887,2.07,127.615-6.693,127.615-6.693Zm-8.28-8.832c1.035,0,1.242.621,1.242.828,0,2.9-7.038,6.21-12.282,7.59C110.3-11.385,115.54-15.525,119.335-15.525ZM136.379-3.312c0-4.554-2.346-6.486-2.346-9.591,0-2.622,2.967-4.9,2.967-5.658a1.6,1.6,0,0,0-1.38-1.38c-.828,0-2,1.725-3.174,3.864a47.891,47.891,0,0,1-5.934,8.349,1.541,1.541,0,0,0-.345.69.813.813,0,0,0,.759.69,1.2,1.2,0,0,0,.69-.345,41.635,41.635,0,0,0,4.209-5.451c.138,2.967,2.415,5.106,2.415,8.763a6.077,6.077,0,0,1-.138,1.173,33.865,33.865,0,0,1-5.865.345c-2.139,0-3.657.828-3.657,2.76,0,1.449,1.656,3.036,4.278,3.036a7.577,7.577,0,0,0,7.107-4.968,17.3,17.3,0,0,0,9.522-5.658,1.541,1.541,0,0,0,.345-.69A.886.886,0,0,0,145-8.142c-.276,0-.621.414-.621.414a15.576,15.576,0,0,1-8.073,5.106A2.127,2.127,0,0,0,136.379-3.312Zm-7.452,5.52c-1.656,0-2.346-.69-2.346-1.449,0-1.38,2.967-.828,6.969-1.311A5.4,5.4,0,0,1,128.926,2.208Zm17.526-22.287c1.035,0,2.346.138,3.726.276-3.588,5.313-6.762,11.454-6.762,16.353A3.711,3.711,0,0,0,147.35.414c5.658,0,12.075-7.107,12.075-7.107a1.541,1.541,0,0,0,.345-.69.886.886,0,0,0-.828-.759c-.276,0-.621.414-.621.414s-5.52,6.141-10.35,6.141a1.839,1.839,0,0,1-2-2c0-5.037,3.1-10.971,6.555-15.87,2.76.345,5.589.759,7.383.759.621,0,1.449-.69,1.449-1.173,0-.276-.138-.552-.966-.552a49.807,49.807,0,0,1-6.624-.759c3.174-4.209,6.21-7.59,7.107-8.625.552-.69.759-.828.759-1.173a1.312,1.312,0,0,0-1.173-1.242c-.276,0-.621.207-1.035.69a126.4,126.4,0,0,0-8.073,10,38.451,38.451,0,0,0-4.554-.345c-2.829,0-4.071,1.1-4.071,1.794a.7.7,0,0,0,.759.69C143.969-19.389,144.383-20.079,146.453-20.079ZM188.2-5.037a12.754,12.754,0,0,1,.069-1.587c9.108-8.763,18.63-21.528,18.63-26.151a3.06,3.06,0,0,0-3.174-3.243c-5.52,0-11.73,10.626-15.18,19.941a4.939,4.939,0,0,0-3.657-1.311c-5.727,0-14.352,8.073-14.352,14.766a4.368,4.368,0,0,0,4.485,4.554c2.553,0,6.555-2.622,10.9-6.417.138,3.45,2.277,4.9,4.9,4.9,5.175,0,11.592-7.107,11.592-7.107a1.541,1.541,0,0,0,.345-.69.886.886,0,0,0-.828-.759c-.276,0-.621.414-.621.414s-5.313,6.141-10.35,6.141C189.509-1.587,188.2-2.346,188.2-5.037ZM175.157-.069a2.209,2.209,0,0,1-2.346-2.346c0-5.589,7.521-13.179,12.351-13.179a3.028,3.028,0,0,1,2.76,1.311,51.818,51.818,0,0,0-1.863,7.314C181.712-2.9,177.641-.069,175.157-.069Zm28.428-33.948a1.153,1.153,0,0,1,1.311,1.1c0,4.14-7.935,15.111-15.939,23.184C191.234-18.906,198.548-34.017,203.585-34.017Zm14.973,33.6c2.553,0,5.727-2.07,9.591-6.279a1.541,1.541,0,0,0,.345-.69.886.886,0,0,0-.828-.759c-.276,0-.621.414-.621.414-3.588,4-6.141,5.52-8.142,5.52-1.518,0-2.76-1.035-2.76-3.519,0-2.346,1.38-4,1.38-4.485a1.187,1.187,0,0,0-1.1-1.1c-.759,0-1.932,2-3.795,4.209-2.277,2.76-6.9,7.038-9.8,7.038-.966,0-1.449-.621-1.449-1.587,0-5.451,8.418-14.214,15.732-14.214,2.07,0,2.415,1.38,2.415,2,0,.69-.207.966-.207,1.449a.544.544,0,0,0,.552.552c.483,0,1.449-.966,1.449-2.346,0-1.725-1.38-3.519-4.83-3.519-7.59,0-17.457,9.315-17.457,16.077a3.333,3.333,0,0,0,3.588,3.588c3.519,0,8.625-4.692,11.316-7.8C213.934-2.76,215.867-.414,218.557-.414Zm35.052-6.279a1.541,1.541,0,0,0,.345-.69.886.886,0,0,0-.828-.759c-.276,0-.621.414-.621.414-2.691,3.105-6.555,5.8-10.9,8.28.552-1.587,1.035-3.174,1.449-4.554a43.212,43.212,0,0,1,4.209-9.384,2.676,2.676,0,0,0,.414-.966,1.06,1.06,0,0,0-1.035-1.035c-.552,0-.759.345-1.1.966a42.974,42.974,0,0,1-4.83,7.452c-4.14,4.761-7.935,7.245-11.178,7.245a1.927,1.927,0,0,1-2.139-2.139c0-4,5.589-11.523,7.866-14.352.345-.414.483-.621.483-.759a1.378,1.378,0,0,0-1.173-1.173c-1.311,0-9.8,11.385-9.8,16.284a4.021,4.021,0,0,0,4.347,4.209c3.45,0,7.728-2.829,11.592-6.693-.552,1.932-1.242,4.209-2.07,6.555-12.972,7.107-28.428,13.041-28.428,22.7,0,3.8,2.967,6.555,7.314,6.555,11.868,0,19.113-16.215,23.253-28.428C245.743.138,250.367-2.967,253.609-6.693ZM217.315,29.394c-3.1,0-4.968-1.932-4.968-4.554,0-7.866,13.248-13.317,25.461-20.079C233.806,15.939,227.182,29.394,217.315,29.394Z" transform="translate(963 1564)" fill="#f59c9c"/>
      <text id="_1番素敵な日になりますように" data-name="1番素敵な日になりますように" transform="translate(968 1625)" fill="#f59c9c" font-size="18" font-family="Helvetica" letter-spacing="0.03em"><tspan x="-124.795" y="0">1</tspan><tspan y="0" font-family="HiraginoSans-W3, Hiragino Sans">番素敵な日になりますように</tspan></text>
    </g>
    <g id="グループ_904" data-name="グループ 904" transform="matrix(0.985, -0.174, 0.174, 0.985, -674.788, -1402.5)">
      <line id="線_5" data-name="線 5" x2="11.201" y2="10.434" transform="translate(428.5 1517.5)" fill="none" stroke="#f59c9c" stroke-linecap="round" stroke-width="2"/>
      <line id="線_7" data-name="線 7" y1="6.619" x2="14.931" transform="translate(419.569 1553.5)" fill="none" stroke="#f59c9c" stroke-linecap="round" stroke-width="2"/>
      <line id="線_9" data-name="線 9" x1="4.571" y2="15.654" transform="translate(464.5 1506.846)" fill="none" stroke="#f59c9c" stroke-linecap="round" stroke-width="2"/>
      <line id="線_6" data-name="線 6" x2="15" y2="2" transform="translate(419.5 1538.5)" fill="none" stroke="#f59c9c" stroke-linecap="round" stroke-width="2"/>
      <line id="線_8" data-name="線 8" x2="3.642" y2="14.663" transform="translate(448.5 1507.5)" fill="none" stroke="#f59c9c" stroke-linecap="round" stroke-width="2"/>
    </g>
  </g>
</svg>
