<svg xmlns="http://www.w3.org/2000/svg" width="561.508" height="146.075" viewBox="0 0 561.508 146.075">
  <path id="パス_3778" data-name="パス 3778" d="M-205.93,5.865c-.414,0-1.863,2.07-7.452,2.07-5.313,0-10.074-1.38-15.111-2.553.138-.138.138-.345.207-.552.138-1.725,2.277-10.35,6.693-21.183,6.486-15.87,13.524-23.805,13.524-24.564a1.166,1.166,0,0,0-.138-.345,79.7,79.7,0,0,1,15.042,4.14,2.02,2.02,0,0,0,1.449-1.656c0-1.311-15.111-6.072-33.6-6.072-13.662,0-25.668,5.8-25.668,15.456s9.453,13.248,14.421,13.248c1.035,0,1.518-.207,1.518-.621,0-.276-.138-.621-1.035-.621-4.278,0-12.282-3.657-12.282-11.385,0-8.625,9.591-13.8,23.391-13.8a105.167,105.167,0,0,1,14.352.966c-2.346,2.553-8.694,12.765-13.386,24.081-4.9,11.868-6.693,20.424-6.693,21.6a1.91,1.91,0,0,0,.207.9,46.75,46.75,0,0,0-9.522-1.1c-9.8,0-12.558,6.279-12.558,9.66,0,.621.276.759.552.759s.552-.138.552-.621c0-2.9,2.622-7.659,10.9-7.659C-230.011,6-222.7,10.35-213.8,10.35c6.141,0,8.349-3.105,8.349-4A.468.468,0,0,0-205.93,5.865ZM-178.882-6A4.773,4.773,0,0,0-173.914-.69a8.508,8.508,0,0,0,5.037-2.07,6.961,6.961,0,0,0,4.692,1.518c3.243,0,6.693-1.656,10.143-5.451a1.541,1.541,0,0,0,.345-.69.879.879,0,0,0-.759-.759c-.345,0-.69.414-.69.414-3.1,3.588-6,4.761-8.694,4.761a2.992,2.992,0,0,1-3.036-1.656,13.737,13.737,0,0,0,3.519-8.556c0-2.346-1.725-3.726-2.277-3.726a.59.59,0,0,0-.552.552,6.831,6.831,0,0,1,.552,2.622,12.431,12.431,0,0,1-2.139,6.693h-.207a2.272,2.272,0,0,0-2,1.932,1.91,1.91,0,0,0,.069.621,5.91,5.91,0,0,1-3.657,1.725c-1.656,0-2.829-.9-2.829-3.036,0-3.312,3.036-6.348,3.036-6.969a1.229,1.229,0,0,0-1.173-1.311c-.621,0-2.139,2.622-5.727,6.762-3.45,3.933-7.176,6.9-9.315,6.9-1.1,0-1.794-.483-1.794-2.208,0-5.727,6.9-13.11,9.384-14.766a.752.752,0,0,0,.414-.621,1.113,1.113,0,0,0-1.035-1.1c-2.346,0-11.385,10.143-11.385,16.767a3.919,3.919,0,0,0,4.209,3.933C-187.3,1.587-182.539-1.863-178.882-6Zm38.5-.69a1.541,1.541,0,0,0,.345-.69.886.886,0,0,0-.828-.759c-.276,0-.621.414-.621.414S-147.349-1.1-151.972-1.1a2.083,2.083,0,0,1-2.277-2.208c0-3.864,4.968-10.143,6.624-12.144a1.768,1.768,0,0,0,.414-.828.987.987,0,0,0-1.1-1.035c-1.173,0-8.28,9.315-8.28,14.007a3.84,3.84,0,0,0,4.14,4C-147.142.69-140.38-6.693-140.38-6.693Zm-1.587-20.148c-1.173,0-2.277,1.725-2.277,2.9a1.254,1.254,0,0,0,1.311,1.242c1.1,0,2.277-1.725,2.277-2.967A1.2,1.2,0,0,0-141.967-26.841Zm10.35,23.529c0-4.554-2.346-6.486-2.346-9.591,0-2.622,2.967-4.9,2.967-5.658a1.6,1.6,0,0,0-1.38-1.38c-.828,0-2,1.725-3.174,3.864a47.891,47.891,0,0,1-5.934,8.349,1.541,1.541,0,0,0-.345.69.813.813,0,0,0,.759.69,1.2,1.2,0,0,0,.69-.345,41.635,41.635,0,0,0,4.209-5.451c.138,2.967,2.415,5.106,2.415,8.763a6.077,6.077,0,0,1-.138,1.173,33.865,33.865,0,0,1-5.865.345c-2.139,0-3.657.828-3.657,2.76,0,1.449,1.656,3.036,4.278,3.036a7.577,7.577,0,0,0,7.107-4.968,17.3,17.3,0,0,0,9.522-5.658,1.541,1.541,0,0,0,.345-.69.886.886,0,0,0-.828-.759c-.276,0-.621.414-.621.414a15.576,15.576,0,0,1-8.073,5.106A2.127,2.127,0,0,0-131.617-3.312Zm-7.452,5.52c-1.656,0-2.346-.69-2.346-1.449,0-1.38,2.967-.828,6.969-1.311A5.4,5.4,0,0,1-139.07,2.208Zm44.919-8.9a1.541,1.541,0,0,0,.345-.69.816.816,0,0,0-.759-.759c-.345,0-.69.414-.69.414s-5.382,6.21-10.281,6.21c-1.242,0-1.587-.483-1.587-1.311,0-3.174,6.486-7.521,6.486-11.109a2.647,2.647,0,0,0-2.76-2.9c-3.8,0-15.387,9.246-20.631,14.7a52.54,52.54,0,0,1,3.105-5.589c8.763-6.831,24.84-19.251,24.84-25.254a3.377,3.377,0,0,0-3.657-3.381c-7.038,0-15.249,11.661-21.873,24.357-2.76,5.313-6,12.144-6,12.834A1.209,1.209,0,0,0-126.442,2c1.035,0,1.311-.483,2-1.242,5.658-6.072,17.664-15.456,20.7-15.456.207,0,.69.069.69.759,0,2.691-6.486,6.831-6.486,11.178,0,2,1.449,3.174,3.519,3.174C-100.567.414-94.15-6.693-94.15-6.693ZM-99.6-34.431c1.035,0,1.449.552,1.449,1.242,0,5.037-14.421,16.629-21.528,22.218C-112.849-24.15-104.707-34.431-99.6-34.431ZM-54.958-6.693a1.541,1.541,0,0,0,.345-.69.886.886,0,0,0-.828-.759c-.276,0-.621.414-.621.414-2.691,3.105-6.555,5.8-10.9,8.28.552-1.587,1.035-3.174,1.449-4.554a43.211,43.211,0,0,1,4.209-9.384,2.676,2.676,0,0,0,.414-.966,1.06,1.06,0,0,0-1.035-1.035c-.552,0-.759.345-1.1.966a42.973,42.973,0,0,1-4.83,7.452C-72-2.208-75.8.276-79.039.276a1.927,1.927,0,0,1-2.139-2.139c0-4,5.589-11.523,7.866-14.352.345-.414.483-.621.483-.759A1.378,1.378,0,0,0-74-18.147c-1.311,0-9.8,11.385-9.8,16.284a4.021,4.021,0,0,0,4.347,4.209c3.45,0,7.728-2.829,11.592-6.693-.552,1.932-1.242,4.209-2.07,6.555C-82.9,9.315-98.359,15.249-98.359,24.909c0,3.8,2.967,6.555,7.314,6.555,11.868,0,19.113-16.215,23.253-28.428C-62.825.138-58.2-2.967-54.958-6.693ZM-91.253,29.394c-3.1,0-4.968-1.932-4.968-4.554,0-7.866,13.248-13.317,25.461-20.079C-74.761,15.939-81.385,29.394-91.253,29.394Zm48.714-33.12h-.069c2.76-2.829,4.83-6.693,4.83-10.419,0-3.795-2.07-6.693-6.348-6.693-5.037,0-9.384,4.14-9.453,8.694a12.617,12.617,0,0,0-3.45,7.935,5.07,5.07,0,0,0,5.382,5.244A12.272,12.272,0,0,0-44.4-2.07,6.694,6.694,0,0,0-43.229-2c3.795,0,6.555-.966,10.074-4.692a1.541,1.541,0,0,0,.345-.69.879.879,0,0,0-.759-.759c-.345,0-.69.414-.69.414C-36.812-4.9-39.5-3.726-42.539-3.726Zm-9.039-7.728a11.8,11.8,0,0,1,7.8-4.554c.483-.069.966-.207.966-.759,0-.414-.414-.621-1.311-.621a11.671,11.671,0,0,0-6.831,2.76,8.068,8.068,0,0,1,7.038-4.14c2.346,0,3.864,2,3.864,4.554,0,3.588-2.346,7.521-5.244,10.074A8.5,8.5,0,0,1-51.577-11.454Zm0,10.419A2.682,2.682,0,0,1-54.544-4,11.528,11.528,0,0,1-53.1-9.177a11.55,11.55,0,0,0,6.141,6.348A8.171,8.171,0,0,1-51.577-1.035Zm36.57-14.145c-.276,0-.552.276-1.035.828-1.311,1.587-2.967,4.14-5.175,6.762-3.243,3.933-7.176,8-10.419,8a2.034,2.034,0,0,1-2.139-2.277c0-5.106,6.417-12.489,8.073-14.283.345-.345.552-.621.552-.828a1.392,1.392,0,0,0-1.242-1.173C-27.841-18.147-36.4-7.383-36.4-1.656a4.126,4.126,0,0,0,4.416,4.071c4.071,0,8.487-4.83,10.143-6.417a4.213,4.213,0,0,0,4.347,4C-12.937,0-6.8-6.693-6.8-6.693a1.541,1.541,0,0,0,.345-.69.879.879,0,0,0-.759-.759c-.345,0-.69.414-.69.414s-4.83,5.8-9.384,5.8A2.172,2.172,0,0,1-19.63-4.14,4.965,4.965,0,0,1-18.8-6.831a61.3,61.3,0,0,1,4.485-6.417c.345-.414.483-.621.483-.828A1.134,1.134,0,0,0-15.007-15.18Zm22.977-4.9c1.035,0,2.346.138,3.726.276C8.108-14.49,4.934-8.349,4.934-3.45A3.711,3.711,0,0,0,8.867.414c5.658,0,12.075-7.107,12.075-7.107a1.541,1.541,0,0,0,.345-.69.886.886,0,0,0-.828-.759c-.276,0-.621.414-.621.414s-5.52,6.141-10.35,6.141a1.839,1.839,0,0,1-2-2c0-5.037,3.105-10.971,6.555-15.87,2.76.345,5.589.759,7.383.759.621,0,1.449-.69,1.449-1.173,0-.276-.138-.552-.966-.552a49.807,49.807,0,0,1-6.624-.759c3.174-4.209,6.21-7.59,7.107-8.625.552-.69.759-.828.759-1.173a1.312,1.312,0,0,0-1.173-1.242c-.276,0-.621.207-1.035.69a126.4,126.4,0,0,0-8.073,10,38.451,38.451,0,0,0-4.554-.345c-2.829,0-4.071,1.1-4.071,1.794a.7.7,0,0,0,.759.69C5.486-19.389,5.9-20.079,7.97-20.079ZM49.3-6.693a1.541,1.541,0,0,0,.345-.69.816.816,0,0,0-.759-.759c-.345,0-.69.414-.69.414s-5.382,6.21-10.281,6.21c-1.242,0-1.587-.483-1.587-1.311,0-3.174,6.486-7.521,6.486-11.109a2.647,2.647,0,0,0-2.76-2.9c-3.8,0-15.387,9.246-20.631,14.7a52.541,52.541,0,0,1,3.1-5.589c8.763-6.831,24.84-19.251,24.84-25.254a3.377,3.377,0,0,0-3.657-3.381c-7.038,0-15.249,11.661-21.873,24.357-2.76,5.313-6,12.144-6,12.834A1.209,1.209,0,0,0,17.008,2c1.035,0,1.311-.483,2-1.242C24.667-5.313,36.673-14.7,39.709-14.7c.207,0,.69.069.69.759,0,2.691-6.486,6.831-6.486,11.178,0,2,1.449,3.174,3.519,3.174C42.883.414,49.3-6.693,49.3-6.693ZM43.849-34.431c1.035,0,1.449.552,1.449,1.242,0,5.037-14.421,16.629-21.528,22.218C30.6-24.15,38.743-34.431,43.849-34.431ZM69.587-6.693a1.541,1.541,0,0,0,.345-.69.816.816,0,0,0-.759-.759c-.345,0-.69.414-.69.414S62.135.069,53.855.069c-2.553,0-4.347-1.518-4.347-3.933a3.821,3.821,0,0,1,.138-1.242c5.727-1.449,14.973-5.244,14.973-9.384,0-1.725-1.449-2.967-3.588-2.967-5.313,0-13.938,6.969-13.938,13.386,0,3.933,3.036,6.141,6.762,6.141C61.859,2.07,69.587-6.693,69.587-6.693Zm-8.28-8.832c1.035,0,1.242.621,1.242.828,0,2.9-7.038,6.21-12.282,7.59C52.268-11.385,57.512-15.525,61.307-15.525ZM107.26-6.693a1.541,1.541,0,0,0,.345-.69.879.879,0,0,0-.759-.759c-.345,0-.69.414-.69.414A17.681,17.681,0,0,1,96.7-2.277C99.049-4.9,100.637-8,100.637-10.833c0-2.277-1.311-3.726-3.519-3.726-3.174,0-9.8,5.106-12.972,8A19.683,19.683,0,0,1,85.87-9.591c8.073-6.348,23.46-18.354,23.46-23.874a3.443,3.443,0,0,0-3.657-3.519c-7.176,0-14.9,12.144-21.528,24.978C81.454-6.831,80.7-4.071,80.7-3.243A1.553,1.553,0,0,0,81.938-2.07c.483,0,.9-.621,2.277-2,3.312-3.381,9.729-8.211,12.558-8.211.9,0,1.449.414,1.449,1.656,0,2.967-1.863,6.21-4.554,8.694-6.279.414-13.041.069-13.041,3.519,0,1.518,1.311,2.691,3.726,2.691,3.588,0,7.521-2,10.626-4.761A19.743,19.743,0,0,0,107.26-6.693Zm-1.587-28.29a1.352,1.352,0,0,1,1.518,1.311c0,4.692-13.869,15.8-20.424,21.045C93.737-25.185,100.43-34.983,105.674-34.983ZM84.353,2.484C83.111,2.484,82.7,2,82.7,1.518,82.7,0,87.044,0,91.667-.207A13.439,13.439,0,0,1,84.353,2.484Zm43.263-9.177a1.541,1.541,0,0,0,.345-.69.816.816,0,0,0-.759-.759c-.345,0-.69.414-.69.414s-6.348,7.8-14.628,7.8c-2.553,0-4.347-1.518-4.347-3.933a3.821,3.821,0,0,1,.138-1.242c5.727-1.449,14.973-5.244,14.973-9.384,0-1.725-1.449-2.967-3.588-2.967-5.313,0-13.938,6.969-13.938,13.386,0,3.933,3.036,6.141,6.762,6.141C119.887,2.07,127.615-6.693,127.615-6.693Zm-8.28-8.832c1.035,0,1.242.621,1.242.828,0,2.9-7.038,6.21-12.282,7.59C110.3-11.385,115.54-15.525,119.335-15.525ZM136.379-3.312c0-4.554-2.346-6.486-2.346-9.591,0-2.622,2.967-4.9,2.967-5.658a1.6,1.6,0,0,0-1.38-1.38c-.828,0-2,1.725-3.174,3.864a47.891,47.891,0,0,1-5.934,8.349,1.541,1.541,0,0,0-.345.69.813.813,0,0,0,.759.69,1.2,1.2,0,0,0,.69-.345,41.635,41.635,0,0,0,4.209-5.451c.138,2.967,2.415,5.106,2.415,8.763a6.077,6.077,0,0,1-.138,1.173,33.865,33.865,0,0,1-5.865.345c-2.139,0-3.657.828-3.657,2.76,0,1.449,1.656,3.036,4.278,3.036a7.577,7.577,0,0,0,7.107-4.968,17.3,17.3,0,0,0,9.522-5.658,1.541,1.541,0,0,0,.345-.69A.886.886,0,0,0,145-8.142c-.276,0-.621.414-.621.414a15.576,15.576,0,0,1-8.073,5.106A2.127,2.127,0,0,0,136.379-3.312Zm-7.452,5.52c-1.656,0-2.346-.69-2.346-1.449,0-1.38,2.967-.828,6.969-1.311A5.4,5.4,0,0,1,128.926,2.208Zm17.526-22.287c1.035,0,2.346.138,3.726.276-3.588,5.313-6.762,11.454-6.762,16.353A3.711,3.711,0,0,0,147.35.414c5.658,0,12.075-7.107,12.075-7.107a1.541,1.541,0,0,0,.345-.69.886.886,0,0,0-.828-.759c-.276,0,2.122-1.225-.621.414s-5.52,6.141-10.35,6.141a1.839,1.839,0,0,1-2-2c0-5.037,3.1-10.971,6.555-15.87,2.76.345,5.589.759,7.383.759.621,0,1.449-.69,1.449-1.173,0-.276-.138-.552-.966-.552a49.807,49.807,0,0,1-6.624-.759c3.174-4.209,6.21-7.59,7.107-8.625.552-.69.759-.828.759-1.173a1.312,1.312,0,0,0-1.173-1.242c-.276,0-.621.207-1.035.69a126.4,126.4,0,0,0-8.073,10,38.451,38.451,0,0,0-4.554-.345c-2.829,0-4.071,1.1-4.071,1.794a.7.7,0,0,0,.759.69C143.969-19.389,144.383-20.079,146.453-20.079ZM188.2-5.037a12.754,12.754,0,0,1,.069-1.587c9.108-8.763,18.63-21.528,18.63-26.151a3.06,3.06,0,0,0-3.174-3.243c-5.52,0-11.73,10.626-15.18,19.941a4.939,4.939,0,0,0-3.657-1.311c-5.727,0-14.352,8.073-14.352,14.766a4.368,4.368,0,0,0,4.485,4.554c2.553,0,6.555-2.622,10.9-6.417.138,3.45,2.277,4.9,4.9,4.9,5.175,0,11.592-7.107,11.592-7.107a1.541,1.541,0,0,0,.345-.69.886.886,0,0,0-.828-.759c-.276,0-.621.414-.621.414s-5.313,6.141-10.35,6.141C189.509-1.587,188.2-2.346,188.2-5.037ZM175.157-.069a2.209,2.209,0,0,1-2.346-2.346c0-5.589,7.521-13.179,12.351-13.179a3.028,3.028,0,0,1,2.76,1.311,51.818,51.818,0,0,0-1.863,7.314C181.712-2.9,177.641-.069,175.157-.069Zm28.428-33.948a1.153,1.153,0,0,1,1.311,1.1c0,4.14-7.935,15.111-15.939,23.184C191.234-18.906,198.548-34.017,203.585-34.017Zm14.973,33.6c2.553,0,5.727-2.07,9.591-6.279a1.541,1.541,0,0,0,.345-.69.886.886,0,0,0-.828-.759c-.276,0-.621.414-.621.414-3.588,4-6.141,5.52-8.142,5.52-1.518,0-2.76-1.035-2.76-3.519,0-2.346,1.38-4,1.38-4.485a1.187,1.187,0,0,0-1.1-1.1c-.759,0-1.932,2-3.795,4.209-2.277,2.76-6.9,7.038-9.8,7.038-.966,0-1.449-.621-1.449-1.587,0-5.451,8.418-14.214,15.732-14.214,2.07,0,2.415,1.38,2.415,2,0,.69-.207.966-.207,1.449a.544.544,0,0,0,.552.552c.483,0,1.449-.966,1.449-2.346,0-1.725-1.38-3.519-4.83-3.519-7.59,0-17.457,9.315-17.457,16.077a3.333,3.333,0,0,0,3.588,3.588c3.519,0,8.625-4.692,11.316-7.8C213.934-2.76,215.867-.414,218.557-.414Zm35.052-6.279a1.541,1.541,0,0,0,.345-.69.886.886,0,0,0-.828-.759c-.276,0-.621.414-.621.414-2.691,3.105-6.555,5.8-10.9,8.28.552-1.587,1.035-3.174,1.449-4.554a43.212,43.212,0,0,1,4.209-9.384,2.676,2.676,0,0,0,.414-.966,1.06,1.06,0,0,0-1.035-1.035c-.552,0-.759.345-1.1.966a42.974,42.974,0,0,1-4.83,7.452c-4.14,4.761-7.935,7.245-11.178,7.245a1.927,1.927,0,0,1-2.139-2.139c0-4,5.589-11.523,7.866-14.352.345-.414.483-.621.483-.759a1.378,1.378,0,0,0-1.173-1.173c-1.311,0-9.8,11.385-9.8,16.284a4.021,4.021,0,0,0,4.347,4.209c3.45,0,7.728-2.829,11.592-6.693-.552,1.932-1.242,4.209-2.07,6.555-12.972,7.107-28.428,13.041-28.428,22.7,0,3.8,2.967,6.555,7.314,6.555,11.868,0,19.113-16.215,23.253-28.428C245.743.138,250.367-2.967,253.609-6.693ZM217.315,29.394c-3.1,0-4.968-1.932-4.968-4.554,0-7.866,13.248-13.317,25.461-20.079C233.806,15.939,227.182,29.394,217.315,29.394Z" transform="translate(307.553 83.491)" fill="#f59c9c"/>
  <path id="パス_3779" data-name="パス 3779" d="M-122.346-11.646a2.116,2.116,0,0,1,.648-.126.512.512,0,0,1,.468.216,2.828,2.828,0,0,1,.2,1.332v6.372a6.712,6.712,0,0,1-.2,2.358c-.216.378-.846.4-1.566.45-.126.018-.18.072-.18.27,0,.216.036.252.18.252.846-.036,1.728-.072,2.592-.072.756,0,1.728.036,2.52.072.126,0,.162-.036.162-.252,0-.2-.036-.252-.162-.27-.738-.072-1.4-.09-1.6-.45-.18-.36-.2-.576-.2-2.358V-9.378c0-1.458.054-2.484.072-3.906,0-.108-.108-.216-.288-.216a28.4,28.4,0,0,1-3.474,1.548c-.216.072-.234.108-.18.324.072.234.144.252.324.2Zm11.88,12.1h7.7V.9c0,.324.162.468.522.468.558,0,.81-.2.81-.612,0-.324-.072-1.512-.072-3.78V-4.338c.342-.18.432-.27.432-.414,0-.108-.072-.216-.378-.468-.576-.45-.684-.5-.81-.5-.108,0-.2.054-.648.522h-7.362c-.45-.252-.7-.4-1.026-.54a19.008,19.008,0,0,0,4.05-3.024c-.054,1.476-.09,2.142-.09,2.394,0,.324.162.486.54.486.558,0,.81-.162.81-.558,0-.36-.036-.99-.09-2.628a13.142,13.142,0,0,0,3.312,2.9,15.5,15.5,0,0,0,2.754,1.35,3,3,0,0,0,.738.2c.162,0,.234-.072.342-.4.216-.558.36-.7.81-.846.072-.018.072-.2,0-.2a14.987,14.987,0,0,1-4.266-1.08,13.125,13.125,0,0,1-3.366-2.106h7c.18,0,.234-.054.234-.162,0-.126-.09-.252-.45-.558-.828-.648-.954-.738-1.08-.738-.108,0-.234.09-1.044,1.008h-2.88a11.892,11.892,0,0,0,2-2.034c.522-.054.7-.144.7-.36,0-.18-.234-.324-1.71-.9a6.837,6.837,0,0,1-.4,1.224,12.722,12.722,0,0,1-1.08,2.07h-1.6v-3.384a37.539,37.539,0,0,0,4.068-.684,2.744,2.744,0,0,0,.7.126c.27,0,.36-.09.36-.2,0-.18-.252-.432-1.476-1.278a8.387,8.387,0,0,1-1.944.72,49.782,49.782,0,0,1-8.91,1.332c-.126.018-.108.324.018.324,2.124,0,4.1-.054,5.958-.216V-9.7h-5.8a6.179,6.179,0,0,1-1.35-.126l.18.684a7.658,7.658,0,0,1,1.206-.108h4.536a18.84,18.84,0,0,1-6.372,4.644c-.108.054-.036.324.09.288a20.207,20.207,0,0,0,3.042-1.206c.036.63.036,1.116.036,2.106,0,2.826-.072,3.762-.072,4.32,0,.4.126.522.54.522.558,0,.774-.18.774-.63Zm0-.45V-2.268h3.186V0Zm7.7,0h-3.276V-2.268h3.276Zm0-2.718h-3.276V-4.752h3.276Zm-4.518-2.034v2.034h-3.186V-4.752Zm-2.538-5.2a.727.727,0,0,0,.7-.792c0-.684-.738-1.332-2.088-1.728-.072-.018-.18.072-.126.126a3.964,3.964,0,0,1,.9,1.692C-110.3-10.152-110.142-9.954-109.818-9.954Zm29.844,1.512c.18,0,.234-.054.234-.162s-.09-.216-.45-.5c-.81-.684-.936-.756-1.062-.756-.108,0-.234.072-1.026.972h-5.13v-1.656h5.652c.18,0,.234-.054.234-.162s-.09-.216-.4-.468c-.756-.594-.9-.684-1.008-.684s-.252.09-.936.864h-3.546v-1.566h6.534c.18,0,.234-.072.234-.18s-.072-.234-.45-.54c-.756-.612-.918-.666-1.044-.666-.108,0-.234.072-1.026.936h-4.248v-1.17c.468-.18.594-.306.594-.45,0-.18-.2-.324-2-.5a18.9,18.9,0,0,1,.072,2.124h-4.9a6.664,6.664,0,0,1-1.278-.126l.18.684a5.071,5.071,0,0,1,1.116-.108h4.878V-11h-4.05a5.191,5.191,0,0,1-1.242-.126l.18.684a6.44,6.44,0,0,1,1.1-.108h4.014v1.656H-94.7a5.746,5.746,0,0,1-1.332-.126l.18.684a7.1,7.1,0,0,1,1.188-.108h5.274a5.783,5.783,0,0,1-.378.738,10.988,10.988,0,0,1-.684.954,7.425,7.425,0,0,0-2.178-.666c-.072-.018-.126.144-.072.18a5.706,5.706,0,0,1,2.07,1.944c.234.378.378.468.63.468a.62.62,0,0,0,.63-.648A1.358,1.358,0,0,0-90.054-6.5,9.113,9.113,0,0,0-88.38-7.632c.576,0,.774-.054.774-.252,0-.162-.144-.27-.882-.558Zm-8.784,7.254C-88.758.2-88.812.9-88.812,1.1c0,.342.162.486.594.486.558,0,.828-.18.828-.594,0-.306-.054-1.35-.054-2.574V-3.636c1.584-.162,3.168-.4,4.734-.666a7.586,7.586,0,0,1,.63.864c.432.72.576.846.918.846a.678.678,0,0,0,.666-.72c0-1.026-1.53-2.232-3.978-2.682-.108-.018-.216.162-.126.216a7.159,7.159,0,0,1,1.53,1.116c-1.818.18-3.654.288-5.49.342a21.326,21.326,0,0,0,3.492-2.394c.63.018.756-.072.756-.216,0-.18-.234-.342-1.584-1.044A7.909,7.909,0,0,1-86.76-6.75,18.108,18.108,0,0,1-89.3-4.284c-1.188.036-2.43.054-3.708.054a19.6,19.6,0,0,1-2.286-.108c.342,1.638.414,1.746.576,1.746.126,0,.234-.108.378-.5,2.178-.126,4-.27,5.58-.414Zm-6.8,2.268a11.814,11.814,0,0,0,4.662-2.5c.648.018.81-.09.81-.288,0-.18-.324-.378-1.566-1.026a5.655,5.655,0,0,1-.9,1.224A12.479,12.479,0,0,1-95.688.846C-95.778.9-95.67,1.116-95.562,1.08ZM-81.918.63a.626.626,0,0,0,.63-.7c0-1.134-1.818-2.232-4.626-2.574-.108-.018-.18.216-.072.252a7.863,7.863,0,0,1,3.132,2.3C-82.35.54-82.224.63-81.918.63Zm20.97-11.124c.18,0,.252-.054.252-.18,0-.108-.09-.234-.414-.5-.738-.648-.864-.738-.99-.738-.108,0-.252.09-.954.972H-65.9a28.674,28.674,0,0,0,.918-2.934c.486-.108.612-.2.612-.4,0-.216-.468-.4-1.872-.72a18.265,18.265,0,0,1-.252,2.088A18.046,18.046,0,0,1-68.58-7.02c-.054.072.126.2.18.126A12.116,12.116,0,0,0-67.068-8.64,17.968,17.968,0,0,0-65.52-3.366,14.282,14.282,0,0,1-69.048,1.17c-.09.09.108.27.216.2a12.4,12.4,0,0,0,3.906-3.69A11.028,11.028,0,0,0-62.352.648a1.889,1.889,0,0,0,.7.4c.108,0,.162-.072.252-.324.216-.684.306-.792.666-.918.09-.036.144-.162.054-.2A9.859,9.859,0,0,1-64.26-3.24c-.018-.036-.054-.072-.072-.108A19.6,19.6,0,0,0-62.5-10.494Zm-2.844,0a21.935,21.935,0,0,1-1.26,6.084A14.532,14.532,0,0,1-66.78-9.09a12.653,12.653,0,0,0,.684-1.4Zm-8.01.882a10.818,10.818,0,0,0,1.368-1.512c.5-.054.648-.108.648-.324,0-.18-.522-.432-1.656-.774a7.568,7.568,0,0,1-.234,1.1,14.339,14.339,0,0,1-.576,1.512h-3.456a8.045,8.045,0,0,0-1.422-.7,27.5,27.5,0,0,1,.108,3.366c0,6.12-.09,6.93-.09,7.848,0,.36.144.486.54.486.5,0,.738-.18.738-.54,0-1.908-.018-4.176-.018-6.318v-3.69h5.832V-.54c0,.234-.09.306-.234.306A15.356,15.356,0,0,1-71.982-.36c-.108-.018-.126.216-.018.234C-70.776.18-70.65.414-70.578.9c.018.2.126.252.288.252A1.57,1.57,0,0,0-69.264.81,1.28,1.28,0,0,0-68.8-.27c0-.882-.054-2.25-.054-6.156v-2.34c.432-.27.5-.36.5-.522,0-.072-.054-.2-.27-.4-.558-.5-.684-.576-.81-.576-.108,0-.216.054-.72.648Zm-2.016,7.56h1.782v.324c0,.27.18.378.432.378.414,0,.612-.144.612-.468-.018-.324-.036-.612-.036-1.53V-4.3c.342-.234.4-.306.4-.414,0-.09-.108-.252-.342-.45a1.283,1.283,0,0,0-.576-.36c-.108,0-.126,0-.558.5h-.342V-6.786h2c.162,0,.234-.054.234-.18a.606.606,0,0,0-.234-.36c-.5-.486-.612-.576-.738-.576-.09,0-.216.09-.612.666h-.648v-.738c.4-.18.5-.288.5-.4,0-.162-.18-.27-1.6-.432a12.469,12.469,0,0,1,.09,1.566h-1.008a4.6,4.6,0,0,1-1.062-.126l.18.666a4.408,4.408,0,0,1,.882-.09h1.008v1.764H-73.8a7.353,7.353,0,0,0-1.062-.54,14.4,14.4,0,0,1,.054,1.692c0,1.476-.054,2.43-.054,2.61,0,.27.144.4.45.4.324,0,.594-.144.594-.468Zm1.782-.45h-1.782v-2.07h1.782Zm-.18-10.368v-1.206c.468-.2.576-.342.576-.486,0-.2-.2-.342-1.944-.54a9.856,9.856,0,0,1,.09,1.332v.9h-2.934a5.751,5.751,0,0,1-1.314-.144l.18.684a6.589,6.589,0,0,1,1.152-.09h8.388c.18,0,.252-.054.252-.18,0-.108-.09-.216-.432-.522-.7-.594-.828-.684-.954-.684-.108,0-.234.09-.936.936Zm-2.142,3.1a.659.659,0,0,0,.612-.72c0-.63-.7-1.332-1.692-1.656-.072-.018-.144.072-.108.126a3.691,3.691,0,0,1,.612,1.476C-74.79-9.882-74.7-9.774-74.358-9.774Zm20.7.2A48.4,48.4,0,0,1-56.97-3.312a1,1,0,0,0-.234.594.611.611,0,0,0,.648.648.72.72,0,0,0,.648-.486c1.188-2.412,2.268-4.68,3.312-7.218,1.1-.252,2.2-.558,2.826-.774.486-.162.666-.306.666-.612s-.252-.54-.72-.54a2.448,2.448,0,0,0-.864.27,11.413,11.413,0,0,1-1.458.558c.144-.36.306-.738.432-1.008a2,2,0,0,1,.486-.792.549.549,0,0,0,.288-.468c0-.27-.162-.4-.432-.576a3.845,3.845,0,0,0-1.53-.5,1.079,1.079,0,0,0-.666.162c-.072.054-.144.126-.144.2,0,.054.036.072.108.09a3.81,3.81,0,0,1,.738.234.473.473,0,0,1,.342.432,2.544,2.544,0,0,1-.108.63,16.186,16.186,0,0,1-.612,1.89,11.461,11.461,0,0,1-2.358.306,2.308,2.308,0,0,1-1.512-.486.275.275,0,0,0-.216-.108.172.172,0,0,0-.144.144.356.356,0,0,0,.036.18,1.974,1.974,0,0,0,.9.864,2.681,2.681,0,0,0,1.26.252A15.483,15.483,0,0,0-53.658-9.576ZM-47.106-8.3a2.3,2.3,0,0,0-2.142,2.52c0,.882.162,1.854.234,2.79a7.974,7.974,0,0,0-1.4-.108c-1.548,0-2.736.684-2.736,1.854,0,1.134,1.044,1.89,2.52,1.89a2.915,2.915,0,0,0,2.106-.63,2.086,2.086,0,0,0,.684-1.728A9.631,9.631,0,0,1-45.5-.234a1.044,1.044,0,0,0,.666.306.572.572,0,0,0,.594-.612.868.868,0,0,0-.36-.7,11.936,11.936,0,0,0-3.276-1.53,20.586,20.586,0,0,1-.612-3.366c0-1.422.882-1.674,1.746-1.674a2.45,2.45,0,0,1,1.494.774.868.868,0,0,0,.54.234.545.545,0,0,0,.54-.558,1.47,1.47,0,0,0-.81-1.062,6.061,6.061,0,0,0-3.1-.864,4.791,4.791,0,0,0-1.674.306c-.108.036-.18.108-.18.18a.183.183,0,0,0,.162.2,1.291,1.291,0,0,0,.234-.018,5.9,5.9,0,0,1,.846-.054,3.56,3.56,0,0,1,1.584.306Zm-1.818,6.246a1.554,1.554,0,0,1,.018.27,1.405,1.405,0,0,1-.486,1.1,2.014,2.014,0,0,1-1.422.45c-1.242,0-1.746-.45-1.746-.99,0-.738.882-1.134,1.89-1.134A5.554,5.554,0,0,1-48.924-2.052ZM-36.252-.54H-28.4V.288c0,.36.162.5.594.5.594,0,.882-.18.882-.612,0-.792-.09-3.312-.09-9.09v-3.582c.414-.27.5-.378.5-.54,0-.108-.054-.216-.342-.468-.648-.54-.756-.594-.9-.594-.108,0-.2.054-.828.72h-7.452a8.953,8.953,0,0,0-1.674-.81c.09,1.458.108,3.06.108,6.354,0,6.03-.108,7.344-.108,8.28,0,.36.162.486.594.486.576,0,.864-.162.864-.594Zm0-6.336H-28.4V-.99h-7.848Zm7.848-.45h-7.848v-5.6H-28.4Zm16.47-3.024A14.736,14.736,0,0,0-13.3-8.838a.332.332,0,0,0-.108.234.211.211,0,0,0,.18.162.275.275,0,0,0,.216-.108,7.153,7.153,0,0,1,1.908-1.44,3.075,3.075,0,0,1,1.152-.2c.288,0,.774.054,1.026.054.468,0,.72-.09.72-.54,0-.4-.252-.792-1.494-.792a10.32,10.32,0,0,0-2.718.342,9.555,9.555,0,0,0-2.43,1.08c-.144.09-.216.162-.216.288a.2.2,0,0,0,.216.2.772.772,0,0,0,.27-.09,12.292,12.292,0,0,1,2.52-.792C-11.9-10.476-11.88-10.4-11.934-10.35Zm-3.438,5.922a2.748,2.748,0,0,0,.9,2.106c1.08.972,2.844,1.08,4.338,1.08a10.032,10.032,0,0,0,2.5-.234.538.538,0,0,0,.45-.54.707.707,0,0,0-.486-.612,2.635,2.635,0,0,0-.738-.144,2.849,2.849,0,0,0-.684.09,5.214,5.214,0,0,1-.666.144,8.449,8.449,0,0,1-1.278.072A5,5,0,0,1-14.112-3.2,2.036,2.036,0,0,1-14.778-4.9a6.032,6.032,0,0,1,.18-1.188c0-.108-.09-.162-.2-.162-.09,0-.144.054-.216.18A4.033,4.033,0,0,0-15.372-4.428ZM-17.3-6.588c-.432,1.116-.864,2.286-1.278,3.348-.036.09-.09.126-.126.126-.054,0-.108-.036-.126-.126A6.034,6.034,0,0,1-18.954-4.7a14.758,14.758,0,0,1,.9-4.644,2.8,2.8,0,0,1,.414-.792.794.794,0,0,0,.252-.594,2.305,2.305,0,0,0-.486-1.242,2.036,2.036,0,0,0-1.314-.954.145.145,0,0,0-.162.126.243.243,0,0,0,.09.18,1.833,1.833,0,0,1,.54,1.278,7.663,7.663,0,0,1-.27,1.476,23.89,23.89,0,0,0-.81,5.292,9.842,9.842,0,0,0,.594,3.4c.27.648.5.846.828.846.234,0,.432-.144.432-.5C-17.946-1.08-18-1.674-18-2a5.446,5.446,0,0,1,.18-1.152c.162-.7.5-1.836.936-3.276a.792.792,0,0,0,.036-.18.23.23,0,0,0-.216-.2C-17.154-6.8-17.244-6.75-17.3-6.588ZM1.962-9.576A48.4,48.4,0,0,1-1.35-3.312a1,1,0,0,0-.234.594.611.611,0,0,0,.648.648.72.72,0,0,0,.648-.486C.9-4.968,1.98-7.236,3.024-9.774c1.1-.252,2.2-.558,2.826-.774.486-.162.666-.306.666-.612s-.252-.54-.72-.54a2.448,2.448,0,0,0-.864.27,11.414,11.414,0,0,1-1.458.558c.144-.36.306-.738.432-1.008a2,2,0,0,1,.486-.792.549.549,0,0,0,.288-.468c0-.27-.162-.4-.432-.576a3.845,3.845,0,0,0-1.53-.5,1.079,1.079,0,0,0-.666.162c-.072.054-.144.126-.144.2,0,.054.036.072.108.09a3.81,3.81,0,0,1,.738.234A.473.473,0,0,1,3.1-13.1a2.544,2.544,0,0,1-.108.63,16.187,16.187,0,0,1-.612,1.89,11.461,11.461,0,0,1-2.358.306,2.308,2.308,0,0,1-1.512-.486.275.275,0,0,0-.216-.108.172.172,0,0,0-.144.144.356.356,0,0,0,.036.18,1.974,1.974,0,0,0,.9.864,2.681,2.681,0,0,0,1.26.252A15.483,15.483,0,0,0,1.962-9.576ZM8.514-8.3a2.3,2.3,0,0,0-2.142,2.52c0,.882.162,1.854.234,2.79A7.974,7.974,0,0,0,5.2-3.1c-1.548,0-2.736.684-2.736,1.854,0,1.134,1.044,1.89,2.52,1.89A2.915,2.915,0,0,0,7.092.018,2.086,2.086,0,0,0,7.776-1.71a9.631,9.631,0,0,1,2.34,1.476,1.044,1.044,0,0,0,.666.306.572.572,0,0,0,.594-.612.868.868,0,0,0-.36-.7A11.935,11.935,0,0,0,7.74-2.772a20.586,20.586,0,0,1-.612-3.366c0-1.422.882-1.674,1.746-1.674a2.45,2.45,0,0,1,1.494.774.868.868,0,0,0,.54.234.545.545,0,0,0,.54-.558,1.47,1.47,0,0,0-.81-1.062,6.061,6.061,0,0,0-3.1-.864,4.791,4.791,0,0,0-1.674.306c-.108.036-.18.108-.18.18a.183.183,0,0,0,.162.2,1.291,1.291,0,0,0,.234-.018,5.9,5.9,0,0,1,.846-.054,3.56,3.56,0,0,1,1.584.306ZM6.7-2.052a1.555,1.555,0,0,1,.018.27,1.405,1.405,0,0,1-.486,1.1,2.014,2.014,0,0,1-1.422.45c-1.242,0-1.746-.45-1.746-.99,0-.738.882-1.134,1.89-1.134A5.555,5.555,0,0,1,6.7-2.052ZM20.79-6.318c-.036-.486-.054-.828-.054-.99A12.39,12.39,0,0,1,21.4-11.16a1.385,1.385,0,0,1,.27-.522.847.847,0,0,0,.18-.5,2.169,2.169,0,0,0-.414-1.17,1.994,1.994,0,0,0-1.152-.99c-.126,0-.324.054-.324.144,0,.072.072.108.126.18a2.112,2.112,0,0,1,.486,1.242,8.055,8.055,0,0,1-.2,1.476,21.711,21.711,0,0,0-.522,4,8.177,8.177,0,0,0,.252,2.16c.2.756.576,1.242,1.008,1.242.288,0,.5-.18.5-.594,0-.126-.018-.288-.036-.468a2.707,2.707,0,0,1-.054-.522,7.75,7.75,0,0,1,.324-1.782,13.729,13.729,0,0,1,1.494-3.906c.306-.4.612-.666.954-.666.45,0,.738.324,1.062,1.17a9.267,9.267,0,0,1,.36,3.06,8.048,8.048,0,0,1-1.386,4.932A8.543,8.543,0,0,1,20.592.306c-.18.072-.234.162-.234.234,0,.126.072.18.216.18a1.737,1.737,0,0,0,.432-.072,8.513,8.513,0,0,0,4.356-2.862,7.99,7.99,0,0,0,1.656-5.364,8.278,8.278,0,0,0-.774-3.546,2.176,2.176,0,0,0-1.782-1.368,1.729,1.729,0,0,0-1.368.774,12.275,12.275,0,0,0-1.4,2.844c-.252.756-.522,1.458-.792,2.556ZM42.732-1.764A12.281,12.281,0,0,1,46.17.306.92.92,0,0,0,46.8.54a.633.633,0,0,0,.558-.684,1.052,1.052,0,0,0-.594-.882,14.131,14.131,0,0,0-4.122-1.782c-.054-.99-.126-2.3-.144-3.33a14.841,14.841,0,0,0,3.168-.774c.414-.162.612-.342.612-.612,0-.288-.306-.468-.846-.468a1.32,1.32,0,0,0-.774.216,2.114,2.114,0,0,1-.576.324,10.309,10.309,0,0,1-1.6.36c0-.972,0-1.818.018-2.754a37.33,37.33,0,0,0,3.762-.684c.792-.18.99-.324.99-.648,0-.414-.666-.612-1.116-.612a1.453,1.453,0,0,0-.81.2,3.094,3.094,0,0,1-.864.342,18.764,18.764,0,0,1-1.962.414c0-.342.018-.7.072-1.278a.828.828,0,0,1,.288-.612.533.533,0,0,0,.216-.432c0-.2-.18-.522-.72-.828a2.521,2.521,0,0,0-1.206-.4,1.266,1.266,0,0,0-.666.2c-.162.108-.252.18-.252.288a.128.128,0,0,0,.126.144,3.915,3.915,0,0,1,.45.018.853.853,0,0,1,.486.216c.144.144.162.324.18.756.018.558.018,1.458.018,2.088A27.933,27.933,0,0,1,38-10.35a3.24,3.24,0,0,1-2.088-.612.312.312,0,0,0-.216-.09.155.155,0,0,0-.144.126.436.436,0,0,0,.072.234,2.665,2.665,0,0,0,2.5,1.224,26.552,26.552,0,0,0,3.4-.234c.018.972.036,1.782.036,2.754-.576.054-1.332.09-1.908.09-1.1,0-1.44-.216-1.44-.666a1.109,1.109,0,0,1,.09-.486.687.687,0,0,0,.072-.234c0-.072-.09-.126-.162-.126-.09,0-.18.072-.27.2a1.6,1.6,0,0,0-.306.972c0,.774.666,1.242,2.358,1.242.486,0,1.17-.018,1.584-.054.018.9.018,1.98.036,3.006a14.239,14.239,0,0,0-1.836-.126c-1.3,0-2.916.486-2.916,1.854,0,1.3,1.494,1.89,3.006,1.89A3.2,3.2,0,0,0,42.03.036a1.952,1.952,0,0,0,.7-1.638ZM41.616-2.07a1.669,1.669,0,0,1-.4,1.314,2.236,2.236,0,0,1-1.62.45c-1.044,0-2.106-.27-2.106-1.044s1.044-1.044,1.89-1.044A8.907,8.907,0,0,1,41.616-2.07Zm20.232-8.712c.018-.558.036-.99.054-1.332a.784.784,0,0,1,.2-.522.7.7,0,0,0,.234-.5c0-.216-.144-.378-.5-.648a2.292,2.292,0,0,0-1.314-.54,1.547,1.547,0,0,0-.9.36c-.126.108-.162.162-.162.27,0,.072.072.108.18.108a4.951,4.951,0,0,1,.522.054.559.559,0,0,1,.5.288,2.5,2.5,0,0,1,.108.792c.018.63.018,1.1.018,1.764-1.656.2-3.474.468-5.2.756a6.592,6.592,0,0,1-1.152.144c-.522,0-.792-.144-1.35-.684a.194.194,0,0,0-.126-.054c-.09,0-.144.126-.144.342a1.856,1.856,0,0,0,.738,1.17,1.638,1.638,0,0,0,1.062.522.913.913,0,0,0,.522-.18,3.894,3.894,0,0,1,1.224-.432A35.844,35.844,0,0,1,60.8-9.9c.018.774.036,1.494.036,2.268a2.148,2.148,0,0,0-1.152-.288,2.117,2.117,0,0,0-2.034,2.2A1.946,1.946,0,0,0,59.616-3.51a1.85,1.85,0,0,0,1.242-.414A4.88,4.88,0,0,1,59.148-1.3,9.846,9.846,0,0,1,56.268.378c-.18.072-.234.162-.234.252,0,.108.09.2.252.2A2.237,2.237,0,0,0,56.844.72,10.093,10.093,0,0,0,59.922-.72a5.021,5.021,0,0,0,2.16-4.032,5.387,5.387,0,0,0-.306-1.98c0-1.026.018-1.962.036-3.276.99-.072,1.854-.072,2.808-.072a12.251,12.251,0,0,1,2.178.2,5.86,5.86,0,0,0,.954.162.428.428,0,0,0,.414-.45.773.773,0,0,0-.45-.666,3.249,3.249,0,0,0-1.4-.468,1.277,1.277,0,0,0-.558.126,2.232,2.232,0,0,1-.918.18C63.936-10.944,62.946-10.89,61.848-10.782Zm-2.214,3.4c.846,0,1.242.684,1.3,1.476-.018.864-.486,1.386-1.242,1.386a1.22,1.22,0,0,1-1.26-1.332C58.428-6.876,59-7.38,59.634-7.38ZM79.6-2.286A14.529,14.529,0,0,1,83.34-.108a1.518,1.518,0,0,0,.828.378.625.625,0,0,0,.54-.72,1.16,1.16,0,0,0-.648-.9,15.762,15.762,0,0,0-4.482-1.926A57.192,57.192,0,0,1,79.254-9.2a1.557,1.557,0,0,0,1.026.324,6.907,6.907,0,0,0,1.512-.27A14.694,14.694,0,0,0,83.34-9.63c.27-.108.45-.234.45-.558,0-.36-.414-.576-1.044-.576a1.269,1.269,0,0,0-.882.36,3.785,3.785,0,0,1-1.152.522,4.518,4.518,0,0,1-1.026.234c-.27,0-.414-.018-.414-.252,0-.306.036-1.008.072-1.44a.825.825,0,0,1,.252-.594.6.6,0,0,0,.2-.432c0-.324-.234-.5-.63-.81a2.693,2.693,0,0,0-1.44-.558,1.543,1.543,0,0,0-.774.27.218.218,0,0,0-.126.216c0,.108.072.144.18.162s.2.018.378.054a1.054,1.054,0,0,1,.648.4c.144.18.162.414.162,1.026.018,2.934.108,5.31.252,8.136a11.062,11.062,0,0,0-1.53-.108c-1.674,0-3.294.612-3.294,2.034,0,1.44,1.44,1.962,2.988,1.962C78.12.414,79.6-.108,79.6-1.98Zm-1.152-.306a2.023,2.023,0,0,1-.414,1.53,2.2,2.2,0,0,1-1.71.576c-1.386,0-2.07-.288-2.07-1.08,0-.9,1.224-1.224,2.628-1.224A7.56,7.56,0,0,1,78.444-2.592Zm18.648-9.864c-.522.342-1.062.7-1.512,1.008-.126.09-.18.144-.18.216s.072.2.162.2a.542.542,0,0,0,.252-.072c.414-.18,1.08-.5,1.476-.648a3.578,3.578,0,0,1,1.26-.27c.378,0,.666.018.846.018.306,0,.558-.126.558-.432a.679.679,0,0,0-.432-.684,2.95,2.95,0,0,0-1.53-.234,3.167,3.167,0,0,1-2.646-.954.219.219,0,0,0-.18-.09.165.165,0,0,0-.144.18.477.477,0,0,0,.054.18A2.9,2.9,0,0,0,97.092-12.456ZM98.226-9.81a6.145,6.145,0,0,0-2.862.954,3.5,3.5,0,0,1-1.17.45.394.394,0,0,1-.342-.216,2.262,2.262,0,0,1-.234-.558.139.139,0,0,0-.144-.126.374.374,0,0,0-.216.2,1.54,1.54,0,0,0-.09.54,2.071,2.071,0,0,0,.5,1.134,1.328,1.328,0,0,0,.828.5c.234,0,.4-.144.882-.666a4.26,4.26,0,0,1,2.7-1.494,1.535,1.535,0,0,1,1.368.756,4.166,4.166,0,0,1,.486,2.088A6.134,6.134,0,0,1,98.622-2.34,9.018,9.018,0,0,1,95.184.27c-.144.072-.252.144-.252.252,0,.144.072.216.18.216a1.7,1.7,0,0,0,.54-.108,9.036,9.036,0,0,0,4.122-2.61,6,6,0,0,0,1.566-3.978,4.334,4.334,0,0,0-.72-2.574A2.768,2.768,0,0,0,98.226-9.81Zm19.62-.54a14.736,14.736,0,0,0-1.368,1.512.332.332,0,0,0-.108.234.211.211,0,0,0,.18.162.274.274,0,0,0,.216-.108,7.153,7.153,0,0,1,1.908-1.44,3.075,3.075,0,0,1,1.152-.2c.288,0,.774.054,1.026.054.468,0,.72-.09.72-.54,0-.4-.252-.792-1.494-.792a10.32,10.32,0,0,0-2.718.342,9.555,9.555,0,0,0-2.43,1.08c-.144.09-.216.162-.216.288a.2.2,0,0,0,.216.2.772.772,0,0,0,.27-.09,12.292,12.292,0,0,1,2.52-.792C117.882-10.476,117.9-10.4,117.846-10.35Zm-3.438,5.922a2.748,2.748,0,0,0,.9,2.106c1.08.972,2.844,1.08,4.338,1.08a10.032,10.032,0,0,0,2.5-.234.538.538,0,0,0,.45-.54.707.707,0,0,0-.486-.612,2.635,2.635,0,0,0-.738-.144,2.849,2.849,0,0,0-.684.09,5.214,5.214,0,0,1-.666.144,8.449,8.449,0,0,1-1.278.072,5,5,0,0,1-3.078-.738A2.036,2.036,0,0,1,115-4.9a6.032,6.032,0,0,1,.18-1.188c0-.108-.09-.162-.2-.162-.09,0-.144.054-.216.18A4.032,4.032,0,0,0,114.408-4.428Zm-1.926-2.16c-.432,1.116-.864,2.286-1.278,3.348-.036.09-.09.126-.126.126-.054,0-.108-.036-.126-.126a6.033,6.033,0,0,1-.126-1.458,14.758,14.758,0,0,1,.9-4.644,2.8,2.8,0,0,1,.414-.792.794.794,0,0,0,.252-.594,2.305,2.305,0,0,0-.486-1.242,2.036,2.036,0,0,0-1.314-.954.145.145,0,0,0-.162.126.243.243,0,0,0,.09.18,1.833,1.833,0,0,1,.54,1.278,7.663,7.663,0,0,1-.27,1.476,23.89,23.89,0,0,0-.81,5.292,9.841,9.841,0,0,0,.594,3.4c.27.648.5.846.828.846.234,0,.432-.144.432-.5,0-.252-.054-.846-.054-1.17a5.446,5.446,0,0,1,.18-1.152c.162-.7.5-1.836.936-3.276a.792.792,0,0,0,.036-.18.23.23,0,0,0-.216-.2C112.626-6.8,112.536-6.75,112.482-6.588Z" transform="translate(312.553 144.491)" fill="#f59c9c"/>
  <g id="グループ_904" data-name="グループ 904" transform="matrix(0.985, -0.174, 0.174, 0.985, -678.983, -1401.063)">
    <line id="線_5" data-name="線 5" x2="11.201" y2="10.434" transform="translate(428.5 1517.5)" fill="none" stroke="#f59c9c" stroke-linecap="round" stroke-width="2"/>
    <line id="線_7" data-name="線 7" y1="6.619" x2="14.931" transform="translate(419.569 1553.5)" fill="none" stroke="#f59c9c" stroke-linecap="round" stroke-width="2"/>
    <line id="線_9" data-name="線 9" x1="4.571" y2="15.654" transform="translate(464.5 1506.846)" fill="none" stroke="#f59c9c" stroke-linecap="round" stroke-width="2"/>
    <line id="線_6" data-name="線 6" x2="15" y2="2" transform="translate(419.5 1538.5)" fill="none" stroke="#f59c9c" stroke-linecap="round" stroke-width="2"/>
    <line id="線_8" data-name="線 8" x2="3.642" y2="14.663" transform="translate(448.5 1507.5)" fill="none" stroke="#f59c9c" stroke-linecap="round" stroke-width="2"/>
  </g>
</svg>
