<svg xmlns="http://www.w3.org/2000/svg" width="710.562" height="155.429" viewBox="0 0 710.562 155.429">
  <g id="グループ_1529" data-name="グループ 1529" transform="translate(-69.475 -3535.584)">
    <path id="パス_3774" data-name="パス 3774" d="M-187.62-71.64c-17.64,0-35.04,10.56-35.04,29.16,0,15.72,13.44,24.72,28.8,27.96a53.876,53.876,0,0,0-3.36,17.76c0,17.28,10.56,27.24,26.52,27.24,12.12,0,25.2-5.88,34.32-13.68.84-.72,1.32-1.32,1.32-1.92a1.374,1.374,0,0,0-1.44-1.44,4.137,4.137,0,0,0-2.04,1.08c-8.28,6.24-20.28,11.88-32.04,11.88-13.32,0-21.6-8.64-21.6-23.16a51.153,51.153,0,0,1,3.12-16.92,56.715,56.715,0,0,0,9,.6c30.72,0,76.32-29.16,76.32-51.96,0-7.8-4.92-12.84-14.52-12.84-27.24,0-61.8,30-74.28,59.88-13.8-2.88-25.56-10.44-25.56-24.84,0-15.96,15.72-25.08,29.76-25.08,9.96,0,14.76,3.24,15.72,3.24a1.2,1.2,0,0,0,1.2-1.2C-171.42-67.32-178.02-71.64-187.62-71.64Zm69.36-2.64c6.6,0,10.32,3.48,10.32,9.48,0,21.12-43.8,48-71.64,48a60.846,60.846,0,0,1-8.16-.48C-176.1-45.96-143.58-74.28-118.26-74.28ZM-87.42-26.4c-.48,0-.96.48-1.8,1.44-2.28,2.76-5.16,7.2-9,11.76C-103.86-6.36-110.7.72-116.34.72c-2.16,0-3.72-1.32-3.72-3.96,0-8.88,11.16-21.72,14.04-24.84.6-.6.96-1.08.96-1.44a2.421,2.421,0,0,0-2.16-2.04c-2.52,0-17.4,18.72-17.4,28.68,0,3.96,3.12,7.08,7.68,7.08,7.08,0,14.76-8.4,17.64-11.16A7.326,7.326,0,0,0-91.74,0c7.92,0,18.6-11.64,18.6-11.64a2.679,2.679,0,0,0,.6-1.2,1.528,1.528,0,0,0-1.32-1.32c-.6,0-1.2.72-1.2.72S-83.46-3.36-91.38-3.36A3.777,3.777,0,0,1-95.46-7.2a8.634,8.634,0,0,1,1.44-4.68,106.607,106.607,0,0,1,7.8-11.16c.6-.72.84-1.08.84-1.44A1.973,1.973,0,0,0-87.42-26.4ZM-57.9-5.76c0-7.92-4.08-11.28-4.08-16.68,0-4.56,5.16-8.52,5.16-9.84a2.789,2.789,0,0,0-2.4-2.4c-1.44,0-3.48,3-5.52,6.72A83.288,83.288,0,0,1-75.06-13.44a2.679,2.679,0,0,0-.6,1.2,1.413,1.413,0,0,0,1.32,1.2,2.1,2.1,0,0,0,1.2-.6,72.408,72.408,0,0,0,7.32-9.48c.24,5.16,4.2,8.88,4.2,15.24a10.568,10.568,0,0,1-.24,2.04,58.9,58.9,0,0,1-10.2.6c-3.72,0-6.36,1.44-6.36,4.8,0,2.52,2.88,5.28,7.44,5.28A13.177,13.177,0,0,0-58.62-1.8a30.086,30.086,0,0,0,16.56-9.84,2.679,2.679,0,0,0,.6-1.2,1.541,1.541,0,0,0-1.44-1.32c-.48,0-1.08.72-1.08.72A27.088,27.088,0,0,1-58.02-4.56,3.7,3.7,0,0,0-57.9-5.76Zm-12.96,9.6c-2.88,0-4.08-1.2-4.08-2.52,0-2.4,5.16-1.44,12.12-2.28A9.391,9.391,0,0,1-70.86,3.84Zm30.48-38.76c1.8,0,4.08.24,6.48.48C-40.14-25.2-45.66-14.52-45.66-6c0,4.2,3,6.72,6.84,6.72,9.84,0,21-12.36,21-12.36a2.679,2.679,0,0,0,.6-1.2,1.541,1.541,0,0,0-1.44-1.32c-.48,0-1.08.72-1.08.72s-9.6,10.68-18,10.68a3.2,3.2,0,0,1-3.48-3.48c0-8.76,5.4-19.08,11.4-27.6,4.8.6,9.72,1.32,12.84,1.32,1.08,0,2.52-1.2,2.52-2.04,0-.48-.24-.96-1.68-.96a86.62,86.62,0,0,1-11.52-1.32c5.52-7.32,10.8-13.2,12.36-15,.96-1.2,1.32-1.44,1.32-2.04a2.282,2.282,0,0,0-2.04-2.16c-.48,0-1.08.36-1.8,1.2a219.825,219.825,0,0,0-14.04,17.4,66.872,66.872,0,0,0-7.92-.6c-4.92,0-7.08,1.92-7.08,3.12a1.225,1.225,0,0,0,1.32,1.2C-44.7-33.72-43.98-34.92-40.38-34.92ZM3.78-6.48H3.66c4.8-4.92,8.4-11.64,8.4-18.12,0-6.6-3.6-11.64-11.04-11.64-8.76,0-16.32,7.2-16.44,15.12-3.6,4.08-6,9.12-6,13.8,0,5.64,4.08,9.12,9.36,9.12C-8.22,1.8-3.54-.24.54-3.6a11.642,11.642,0,0,0,2.04.12c6.6,0,11.4-1.68,17.52-8.16a2.679,2.679,0,0,0,.6-1.2,1.528,1.528,0,0,0-1.32-1.32c-.6,0-1.2.72-1.2.72C13.74-8.52,9.06-6.48,3.78-6.48ZM-11.94-19.92c3.48-4.32,8.4-7.44,13.56-7.92.84-.12,1.68-.36,1.68-1.32,0-.72-.72-1.08-2.28-1.08-3.96,0-8.16,1.92-11.88,4.8a14.032,14.032,0,0,1,12.24-7.2c4.08,0,6.72,3.48,6.72,7.92,0,6.24-4.08,13.08-9.12,17.52C-6.54-8.88-11.46-13.44-11.94-19.92Zm0,18.12c-3.84,0-5.16-2.4-5.16-5.16a20.049,20.049,0,0,1,2.52-9A20.087,20.087,0,0,0-3.9-4.92,14.21,14.21,0,0,1-11.94-1.8Zm107.4-9.84a2.679,2.679,0,0,0,.6-1.2,1.528,1.528,0,0,0-1.32-1.32c-.6,0-1.2.72-1.2.72S84.3-2.4,75.66-2.4c-2.28,0-3.36-1.2-3.36-2.88,0-4.8,4.92-10.68,4.92-15a4.9,4.9,0,0,0-4.92-4.68c-7.08,0-18.72,10.68-22.44,14.16,2.04-3.48,10.2-11.16,10.2-15.84a5.588,5.588,0,0,0-5.64-5.4c-9,0-25.92,14.16-35.64,25.2C28.02-21,31.02-23.28,35.22-27.72c.72-.72,1.2-1.2,1.2-1.68a1.888,1.888,0,0,0-1.92-2.04c-1.32,0-11.52,11.28-16.56,19.68C14.1-5.4,12.18-2.4,12.18-1.08a2.312,2.312,0,0,0,2.04,2.16c1.68,0,2.04-.72,3.36-2.28,9.84-11.64,28.68-27.36,36.24-27.36q2.16,0,2.16,1.8c0,4.2-13.8,18.12-13.8,21.96a1.8,1.8,0,0,0,1.8,1.92c1.44,0,2.4-1.08,4.08-2.64,6.24-5.76,18-15.96,23.28-15.96,1.2,0,1.8.72,1.8,1.44,0,4.32-5.04,9.12-5.04,15,0,3.6,3.36,5.76,6.48,5.76C84.42.72,95.46-11.64,95.46-11.64Zm35.4,0a2.679,2.679,0,0,0,.6-1.2,1.418,1.418,0,0,0-1.32-1.32c-.6,0-1.2.72-1.2.72S117.9.12,103.5.12c-4.44,0-7.56-2.64-7.56-6.84a6.645,6.645,0,0,1,.24-2.16c9.96-2.52,26.04-9.12,26.04-16.32,0-3-2.52-5.16-6.24-5.16-9.24,0-24.24,12.12-24.24,23.28C91.74-.24,97.02,3.6,103.5,3.6,117.42,3.6,130.86-11.64,130.86-11.64ZM116.46-27c1.8,0,2.16,1.08,2.16,1.44,0,5.04-12.24,10.8-21.36,13.2C100.74-19.8,109.86-27,116.46-27Zm28.92-3.84c0-1.8,5.16-6.12,5.16-7.92a3.2,3.2,0,0,0-2.64-2.52c-3,0-5.04,7.68-6.48,10.56C139.5-27,133.02-18,128.94-13.44a2.679,2.679,0,0,0-.6,1.2,1.413,1.413,0,0,0,1.32,1.2,2.1,2.1,0,0,0,1.2-.6c4.44-5.04,9.48-11.52,11.28-14.04.72-.96,1.08-1.32,1.56-1.32.72,0,2.16.96,4.68,2.76.84.6,1.44,1.08,1.44,1.68,0,4.2-9.72,11.4-9.72,18.84,0,3.72,2.88,6,6.48,6,6.36,0,14.76-6.6,21.48-13.92a2.679,2.679,0,0,0,.6-1.2,1.528,1.528,0,0,0-1.32-1.32c-.6,0-1.2.72-1.2.72C159.9-6.48,152.94-.84,147.3-.84c-1.92,0-3.24-.96-3.24-3.12,0-6.96,10.44-14.4,10.44-19.56,0-1.2-.84-1.92-2.16-2.52C149.94-27.36,145.38-30.12,145.38-30.84Zm21.36-21.72a.946.946,0,0,0,.96.96c2.28,0,10.32-7.2,10.32-13.2,0-1.92-.72-3.6-2.88-3.6-2.88,0-3.72,2.52-3.72,6.12C171.42-55.08,166.74-53.52,166.74-52.56Zm17.64,46.8c0-7.92-4.08-11.28-4.08-16.68,0-4.56,5.16-8.52,5.16-9.84a2.789,2.789,0,0,0-2.4-2.4c-1.44,0-3.48,3-5.52,6.72a83.289,83.289,0,0,1-10.32,14.52,2.679,2.679,0,0,0-.6,1.2,1.413,1.413,0,0,0,1.32,1.2,2.1,2.1,0,0,0,1.2-.6,72.409,72.409,0,0,0,7.32-9.48c.24,5.16,4.2,8.88,4.2,15.24a10.568,10.568,0,0,1-.24,2.04,58.9,58.9,0,0,1-10.2.6c-3.72,0-6.36,1.44-6.36,4.8,0,2.52,2.88,5.28,7.44,5.28A13.177,13.177,0,0,0,183.66-1.8a30.086,30.086,0,0,0,16.56-9.84,2.679,2.679,0,0,0,.6-1.2,1.541,1.541,0,0,0-1.44-1.32c-.48,0-1.08.72-1.08.72a27.088,27.088,0,0,1-14.04,8.88A3.7,3.7,0,0,0,184.38-5.76Zm-12.96,9.6c-2.88,0-4.08-1.2-4.08-2.52,0-2.4,5.16-1.44,12.12-2.28A9.391,9.391,0,0,1,171.42,3.84Z" transform="matrix(0.995, -0.105, 0.105, 0.995, 299.056, 3637.426)" fill="#f59c9c"/>
    <path id="パス_3773" data-name="パス 3773" d="M-107.28-35.16c-6.6,0-14.04-6-14.04-15.12,0-14.52,15.84-24.12,35.88-24.12,12.12,0,23.76,4.68,33.96,10.8C-58.44-51.72-67.92-29.4-67.92.24c0,14.04,3.6,21,5.04,21a7.126,7.126,0,0,0,4.56-1.44c21.24-12.48,69.6-58.92,69.6-94.08,0-10.08-5.88-14.76-6.6-14.76a.9.9,0,0,0-.84.84c0,.84,2.88,3.12,2.88,13.56,0,33-46.56,79.44-67.44,91.56,0,0-2.52-4.92-2.52-15.84a146.279,146.279,0,0,1,14.64-63l2.4,1.56c.72.48,1.08.72,1.44.72a1.541,1.541,0,0,0,1.2-1.2c0-.36-.36-.72-.72-.96l-3.24-2.28c2.52-5.04,4.32-7.8,4.32-8.04a1.659,1.659,0,0,0-1.44-1.32c-.36,0-2.52,2.64-5.52,7.56-10.68-6.96-22.92-12-36.24-12-22.44,0-39.12,10.92-39.12,26.52,0,10.08,8.76,18.12,17.64,18.12,1.08,0,1.92-.48,1.92-1.08C-105.96-34.68-106.08-35.16-107.28-35.16ZM17.88-6.48h-.12c4.8-4.92,8.4-11.64,8.4-18.12,0-6.6-3.6-11.64-11.04-11.64-8.76,0-16.32,7.2-16.44,15.12-3.6,4.08-6,9.12-6,13.8,0,5.64,4.08,9.12,9.36,9.12,3.84,0,8.52-2.04,12.6-5.4a11.642,11.642,0,0,0,2.04.12c6.6,0,11.4-1.68,17.52-8.16a2.679,2.679,0,0,0,.6-1.2,1.528,1.528,0,0,0-1.32-1.32c-.6,0-1.2.72-1.2.72C27.84-8.52,23.16-6.48,17.88-6.48ZM2.16-19.92c3.48-4.32,8.4-7.44,13.56-7.92.84-.12,1.68-.36,1.68-1.32,0-.72-.72-1.08-2.28-1.08-3.96,0-8.16,1.92-11.88,4.8a14.032,14.032,0,0,1,12.24-7.2c4.08,0,6.72,3.48,6.72,7.92,0,6.24-4.08,13.08-9.12,17.52C7.56-8.88,2.64-13.44,2.16-19.92Zm0,18.12C-1.68-1.8-3-4.2-3-6.96a20.049,20.049,0,0,1,2.52-9A20.087,20.087,0,0,0,10.2-4.92,14.21,14.21,0,0,1,2.16-1.8Zm55.8-9.84a2.679,2.679,0,0,0,.6-1.2,1.541,1.541,0,0,0-1.44-1.32c-.48,0-1.08.72-1.08.72S45.84-1.92,37.8-1.92a3.623,3.623,0,0,1-3.96-3.84c0-6.72,8.64-17.64,11.52-21.12a3.076,3.076,0,0,0,.72-1.44,1.717,1.717,0,0,0-1.92-1.8c-2.04,0-14.4,16.2-14.4,24.36,0,4.32,3,6.96,7.2,6.96C46.2,1.2,57.96-11.64,57.96-11.64ZM55.2-46.68c-2.04,0-3.96,3-3.96,5.04a2.181,2.181,0,0,0,2.28,2.16c1.92,0,3.96-3,3.96-5.16A2.086,2.086,0,0,0,55.2-46.68ZM91.8-11.64a2.679,2.679,0,0,0,.6-1.2,1.528,1.528,0,0,0-1.32-1.32c-.6,0-1.2.72-1.2.72C87-10.32,77.76-.24,65.52-.24c-4.32,0-7.08-2.28-7.08-6.36,0-9.96,11.88-20.76,19.68-20.76,1.8,0,2.4,1.08,2.4,2.04,0,2.04-2.04,3.36-2.04,3.96a1.459,1.459,0,0,0,1.44,1.44c.84,0,3.96-2.52,3.96-5.4,0-3.12-2.76-5.16-6.6-5.16C68.04-30.48,54.24-18,54.24-6.72c0,5.4,3.96,9.6,10.8,9.6C77.76,2.88,88.92-8.52,91.8-11.64Zm35.4,0a2.679,2.679,0,0,0,.6-1.2,1.418,1.418,0,0,0-1.32-1.32c-.6,0-1.2.72-1.2.72S114.24.12,99.84.12c-4.44,0-7.56-2.64-7.56-6.84a6.645,6.645,0,0,1,.24-2.16c9.96-2.52,26.04-9.12,26.04-16.32,0-3-2.52-5.16-6.24-5.16-9.24,0-24.24,12.12-24.24,23.28C88.08-.24,93.36,3.6,99.84,3.6,113.76,3.6,127.2-11.64,127.2-11.64ZM112.8-27c1.8,0,2.16,1.08,2.16,1.44,0,5.04-12.24,10.8-21.36,13.2C97.08-19.8,106.2-27,112.8-27Z" transform="matrix(0.995, -0.105, 0.105, 0.995, 650.717, 3637.495)" fill="#f59c9c"/>
  </g>
</svg>
