<svg xmlns="http://www.w3.org/2000/svg" width="145" height="44" viewBox="0 0 145 44">
  <g id="グループ_1672" data-name="グループ 1672" transform="translate(-230 -971)">
    <g id="グループ_1516" data-name="グループ 1516" transform="translate(-10)">
      <rect id="長方形_1435" data-name="長方形 1435" width="145" height="44" rx="8" transform="translate(240 971)" fill="#f0b7bf"/>
      <path id="長方形_1461" data-name="長方形 1461" d="M0,0H64a8,8,0,0,1,8,8V36a8,8,0,0,1-8,8H0a0,0,0,0,1,0,0V0A0,0,0,0,1,0,0Z" transform="translate(313 971)" fill="#b7e3f0"/>
    </g>
    <path id="パス_3823" data-name="パス 3823" d="M-98.12-13.706a28.765,28.765,0,0,0,2.486-3.08c.77-.088.924-.2.924-.4,0-.264-.484-.506-2.332-1.1a11.184,11.184,0,0,1-.506,1.76,16.7,16.7,0,0,1-1.21,2.816h-5.28a8.459,8.459,0,0,1-1.738-.176l.22.858a9.886,9.886,0,0,1,1.518-.132h3.52v3.674h-3.212a8.807,8.807,0,0,1-1.628-.154l.22.836a8.389,8.389,0,0,1,1.408-.132h3.212v3.916h-4.29a11.356,11.356,0,0,1-1.848-.176l.22.836a11.024,11.024,0,0,1,1.628-.11h4.29c0,3.586-.11,5.17-.11,5.632,0,.418.176.616.7.616.748,0,1.1-.22,1.1-.77,0-.726-.066-2.794-.088-5.478h7.194c.22,0,.308-.066.308-.22,0-.132-.088-.286-.572-.682-.99-.792-1.188-.858-1.342-.858-.132,0-.286.088-1.188,1.21h-4.4V-8.932h5.654c.2,0,.286-.066.286-.22,0-.132-.088-.286-.506-.638-.88-.748-1.1-.814-1.232-.814s-.33.088-1.188,1.122h-3.014v-3.674h6.468c.22,0,.286-.066.286-.2s-.088-.286-.506-.682c-.924-.77-1.1-.88-1.232-.88s-.308.11-1.232,1.21Zm-3.762-.528a.976.976,0,0,0,.946-1.078c0-1.1-1.034-2.09-2.926-2.794-.088-.022-.22.11-.154.176a5.01,5.01,0,0,1,1.386,2.684C-102.5-14.52-102.3-14.234-101.882-14.234Zm-7.172,15.8c.7,0,1.188-.55,1.188-1.408,0-1.122-.792-2.134-.792-3.212a4.547,4.547,0,0,1,.264-1.408c.946-2.53,1.672-4.686,2.706-7.612.044-.132-.242-.242-.286-.11a73.081,73.081,0,0,1-3.5,7.37.974.974,0,0,1-.9.638,7.468,7.468,0,0,1-1.078-.088c-.132-.022-.176.242-.044.286,1.452.44,1.738.792,1.738,2.112,0,.77-.132,1.672-.132,2.354S-109.6,1.562-109.054,1.562Zm1.628-16.192c.4,0,.77-.352.77-.968,0-1.1-1.3-2.068-3.432-2.354-.088-.022-.176.132-.11.176a5.382,5.382,0,0,1,1.87,2.266C-108.02-14.828-107.866-14.63-107.426-14.63ZM-108.9-9.5a.879.879,0,0,0,.814-.99c0-1.056-1.32-2-3.388-2.288-.088-.022-.176.154-.11.2a5.092,5.092,0,0,1,1.826,2.178C-109.472-9.746-109.274-9.5-108.9-9.5ZM-79.178-5.9A10.816,10.816,0,0,0-75.13-.462a14.781,14.781,0,0,0,3.5,1.848,4.13,4.13,0,0,0,1.122.308c.22,0,.352-.132.462-.484A1.424,1.424,0,0,1-68.838.154c.088-.022.088-.242,0-.242A15.111,15.111,0,0,1-74.316-1.65a12.6,12.6,0,0,1-1.3-.77A17.093,17.093,0,0,0-72.8-3.872c.726.088,1.012-.022,1.012-.242,0-.242-.55-.638-1.826-1.342a6.152,6.152,0,0,1-.814,1.166,16.371,16.371,0,0,1-1.628,1.562A10.168,10.168,0,0,1-78.694-5.9h9.328c.22,0,.308-.066.308-.2s-.11-.308-.55-.66C-70.62-7.59-70.8-7.7-70.928-7.7s-.308.11-1.276,1.254h-6.182V-7.612c.55-.2.7-.352.7-.528,0-.242-.242-.418-2.354-.638.044.484.088,1.012.088,1.5v.836h-7.084A7.894,7.894,0,0,1-88.748-6.6l.22.836a10.154,10.154,0,0,1,1.54-.132h5.566a21.6,21.6,0,0,1-7.7,4.444c-.154.044-.066.352.088.33a20.953,20.953,0,0,0,5.742-1.87v2.64c-.462.066-.924.088-1.386.132a15.7,15.7,0,0,1-1.87.044c.484,1.958.638,2.31.9,2.31.2,0,.308-.132.484-.7a37.071,37.071,0,0,0,8.03-2.53c.11-.066.044-.308-.088-.286A46.1,46.1,0,0,1-81.8-.528V-3.872A17.115,17.115,0,0,0-79.288-5.9Zm3.74-4.026V-14.08h5.918c.22,0,.286-.066.286-.2,0-.154-.088-.308-.506-.638-.99-.792-1.166-.88-1.32-.88-.132,0-.286.11-1.166,1.166h-3.212v-2.376c.572-.242.77-.4.77-.594,0-.242-.264-.418-2.4-.638a19.562,19.562,0,0,1,.088,2.42v1.188h-3.278a6.744,6.744,0,0,1-1.54-.154l.22.836a8.084,8.084,0,0,1,1.342-.132h3.256v4.158h-2.9a6.7,6.7,0,0,1-1.562-.154l.242.836a7.669,7.669,0,0,1,1.342-.132h9.812c.22,0,.286-.066.286-.22,0-.132-.11-.286-.528-.616-.968-.748-1.122-.858-1.276-.858-.132,0-.286.11-1.144,1.144Zm-8.734-2.2a15.315,15.315,0,0,1-3.1,1.012,8.808,8.808,0,0,1-1.584.264c.814,2.09.924,2.156,1.144,2.156s.33-.2.4-.88a12.136,12.136,0,0,0,3.124-2c-.022,1.87-.066,2.794-.066,3.146,0,.418.154.572.638.572.726,0,1.012-.2,1.012-.726,0-.572-.066-2.486-.066-6.248v-2.178c.572-.242.682-.374.682-.572,0-.308-.286-.418-2.288-.638a34.433,34.433,0,0,1,.11,4.07Zm-1.87-1.166a.916.916,0,0,0,.858-1.012c0-.924-.88-1.716-2.794-2.464-.11-.044-.264.11-.176.2A5.165,5.165,0,0,1-86.746-14.1C-86.592-13.508-86.394-13.288-86.042-13.288ZM-56.826-15.4v6.534h-6.512V-7.9h6.512v6.556h.99V-7.9h6.512v-.968h-6.512V-15.4Zm18.942,4.18h3.894c.22,0,.286-.066.286-.2s-.088-.308-.506-.616c-.858-.7-1.012-.814-1.166-.814-.132,0-.286.11-1.122,1.078h-1.386v-3.982a22.719,22.719,0,0,0,2.684-.924c.7.176,1.034.088,1.034-.176,0-.22-.2-.374-1.65-1.518a6.371,6.371,0,0,1-1.562,1.056,26.541,26.541,0,0,1-6.138,2.068c-.154.022-.088.374.066.352a37.115,37.115,0,0,0,4.026-.506v3.63h-2.882a6.769,6.769,0,0,1-1.584-.154l.22.836a7.946,7.946,0,0,1,1.386-.132h2.552a24.615,24.615,0,0,1-4.29,8.14c-.088.11.11.308.22.22a16.665,16.665,0,0,0,4.488-5.566c-.088,5.808-.264,8.866-.264,9.57,0,.4.22.594.726.594.726,0,1.034-.264,1.034-.726,0-.792-.066-3.7-.066-7.986V-9.042A6.293,6.293,0,0,1-35.948-6.6c.352.792.506.946.88.946a.851.851,0,0,0,.77-.924c0-1.056-1.276-2.09-3.586-2.794ZM-31.526-.55h4.994V.374c0,.418.22.594.726.594.594,0,.99-.22.99-.726,0-.88-.11-3.806-.11-10.076v-3.828c.528-.374.594-.484.594-.66,0-.132-.088-.264-.4-.572-.748-.638-.858-.7-1.012-.7-.132,0-.242.066-.968.858h-4.62a15.422,15.422,0,0,0-1.914-.946c.11,1.5.11,2.662.11,6.336,0,6.468-.11,9.174-.11,9.856,0,.374.2.572.7.572.616,0,1.012-.2,1.012-.7Zm4.994-.55h-4.994V-14.19h4.994ZM-11.2-5.9A10.816,10.816,0,0,0-7.15-.462a14.781,14.781,0,0,0,3.5,1.848,4.13,4.13,0,0,0,1.122.308c.22,0,.352-.132.462-.484A1.424,1.424,0,0,1-.858.154c.088-.022.088-.242,0-.242A15.111,15.111,0,0,1-6.336-1.65a12.6,12.6,0,0,1-1.3-.77A17.093,17.093,0,0,0-4.818-3.872c.726.088,1.012-.022,1.012-.242,0-.242-.55-.638-1.826-1.342A6.152,6.152,0,0,1-6.446-4.29,16.37,16.37,0,0,1-8.074-2.728,10.168,10.168,0,0,1-10.714-5.9h9.328c.22,0,.308-.066.308-.2s-.11-.308-.55-.66C-2.64-7.59-2.816-7.7-2.948-7.7s-.308.11-1.276,1.254h-6.182V-7.612c.55-.2.7-.352.7-.528,0-.242-.242-.418-2.354-.638.044.484.088,1.012.088,1.5v.836h-7.084A7.894,7.894,0,0,1-20.768-6.6l.22.836a10.154,10.154,0,0,1,1.54-.132h5.566a21.6,21.6,0,0,1-7.7,4.444c-.154.044-.066.352.088.33a20.953,20.953,0,0,0,5.742-1.87v2.64c-.462.066-.924.088-1.386.132a15.7,15.7,0,0,1-1.87.044c.484,1.958.638,2.31.9,2.31.2,0,.308-.132.484-.7A37.071,37.071,0,0,0-9.152-1.1c.11-.066.044-.308-.088-.286a46.1,46.1,0,0,1-4.576.858V-3.872A17.115,17.115,0,0,0-11.308-5.9Zm3.74-4.026V-14.08H-1.54c.22,0,.286-.066.286-.2,0-.154-.088-.308-.506-.638-.99-.792-1.166-.88-1.32-.88-.132,0-.286.11-1.166,1.166H-7.458v-2.376c.572-.242.77-.4.77-.594,0-.242-.264-.418-2.4-.638A19.561,19.561,0,0,1-9-15.818v1.188h-3.278a6.744,6.744,0,0,1-1.54-.154l.22.836a8.084,8.084,0,0,1,1.342-.132H-9v4.158h-2.9a6.7,6.7,0,0,1-1.562-.154l.242.836a7.669,7.669,0,0,1,1.342-.132h9.812c.22,0,.286-.066.286-.22,0-.132-.11-.286-.528-.616-.968-.748-1.122-.858-1.276-.858-.132,0-.286.11-1.144,1.144Zm-8.734-2.2a15.315,15.315,0,0,1-3.1,1.012,8.808,8.808,0,0,1-1.584.264c.814,2.09.924,2.156,1.144,2.156s.33-.2.4-.88a12.136,12.136,0,0,0,3.124-2c-.022,1.87-.066,2.794-.066,3.146,0,.418.154.572.638.572.726,0,1.012-.2,1.012-.726,0-.572-.066-2.486-.066-6.248v-2.178c.572-.242.682-.374.682-.572,0-.308-.286-.418-2.288-.638a34.433,34.433,0,0,1,.11,4.07Zm-1.87-1.166A.916.916,0,0,0-17.2-14.3c0-.924-.88-1.716-2.794-2.464-.11-.044-.264.11-.176.2A5.165,5.165,0,0,1-18.766-14.1C-18.612-13.508-18.414-13.288-18.062-13.288Z" transform="translate(359 1002)" fill="#3a3a3a"/>
  </g>
</svg>
