<svg xmlns="http://www.w3.org/2000/svg" width="156.03" height="68.74" viewBox="0 0 156.03 68.74">
  <path id="パス_3800" data-name="パス 3800" d="M-40.005-45.5c-19.32,0-37.38,18.76-37.38,33.6a12.926,12.926,0,0,0,2.52,7.98,32.412,32.412,0,0,0-.63,6.44c0,7.07,4.13,12.32,11.69,12.32,17.22,0,39.13-27.86,39.13-45.5C-24.675-39.69-30.485-45.5-40.005-45.5ZM-65.835.35c4.06,0,6.72-2.31,6.72-2.66a.675.675,0,0,0-.56-.63c-.42,0-2.03,1.61-5.6,1.61-2.94,0-5.32-.77-7-2.52,3.92-17.57,22.05-31.78,32.97-31.78a8.454,8.454,0,0,1,5.67,1.82.753.753,0,0,0,.56-.63c0-.98-2.31-3.22-6.02-3.22-11.76,0-29.82,13.51-35,30.66a15.686,15.686,0,0,1-.63-4.76c0-13.3,17.22-31.71,34.3-31.71,7.7,0,13.3,4.2,13.3,12.6,0,17.01-21.28,43.75-36.4,43.75-6.44,0-9.45-4.34-9.45-10.01a25.972,25.972,0,0,1,.35-4.69A11.222,11.222,0,0,0-65.835.35Zm46.62-19.81A100.373,100.373,0,0,0-29.505-2.03c-3.5,7.77-6.65,16.8-6.65,22.89a2.457,2.457,0,0,0,1.47,2.38c.42,0,.84-.35.84-1.96,0-6.3,3.01-14.91,6.37-22.54a26.147,26.147,0,0,1,3.01-5.18c1.47-1.89,9.66-8.82,14.28-8.82,1.05,0,1.47.63,1.47,1.68,0,3.29-2.66,8.33-6.16,11.69-6.16.35-10.85-.49-10.85,2.87,0,1.61,1.47,2.52,3.85,2.52,2.87,0,5.81-1.61,8.4-3.92A20.136,20.136,0,0,0-1.085-6.79a1.563,1.563,0,0,0,.35-.7.891.891,0,0,0-.77-.77c-.35,0-.7.42-.7.42a18.836,18.836,0,0,1-9.52,5.6c3.22-3.64,5.46-8.33,5.46-11.55,0-2.31-1.33-3.78-3.57-3.78-3.99,0-10.15,4.62-12.67,6.86a90.505,90.505,0,0,1,5.25-7.7c.35-.49.49-.7.49-.98a1.244,1.244,0,0,0-1.26-.98C-18.515-20.37-18.725-20.09-19.215-19.46Zm-2.66,21.14c-1.26,0-1.75-.42-1.75-.77,0-1.4,2.73-1.05,6.79-1.12A9.182,9.182,0,0,1-21.875,1.68ZM-.105-20.37c1.05,0,2.38.14,3.78.28C.035-14.7-3.185-8.47-3.185-3.5A3.765,3.765,0,0,0,.8.42c5.74,0,12.25-7.21,12.25-7.21a1.563,1.563,0,0,0,.35-.7.9.9,0,0,0-.84-.77c-.28,0-.63.42-.63.42s-5.6,6.23-10.5,6.23A1.865,1.865,0,0,1-.6-3.64c0-5.11,3.15-11.13,6.65-16.1,2.8.35,5.67.77,7.49.77.63,0,1.47-.7,1.47-1.19,0-.28-.14-.56-.98-.56a50.528,50.528,0,0,1-6.72-.77c3.22-4.27,6.3-7.7,7.21-8.75.56-.7.77-.84.77-1.19a1.331,1.331,0,0,0-1.19-1.26c-.28,0-.63.21-1.05.7a128.231,128.231,0,0,0-8.19,10.15,39.009,39.009,0,0,0-4.62-.35c-2.87,0-4.13,1.12-4.13,1.82a.715.715,0,0,0,.77.7C-2.625-19.67-2.205-20.37-.105-20.37ZM26.915-6.79a1.563,1.563,0,0,0,.35-.7.9.9,0,0,0-.84-.77c-.28,0-.63.42-.63.42s-5.95,6.72-10.64,6.72a2.113,2.113,0,0,1-2.31-2.24c0-3.92,5.04-10.29,6.72-12.32a1.794,1.794,0,0,0,.42-.84,1,1,0,0,0-1.12-1.05c-1.19,0-8.4,9.45-8.4,14.21A3.9,3.9,0,0,0,14.665.7C20.055.7,26.915-6.79,26.915-6.79ZM25.3-27.23c-1.19,0-2.31,1.75-2.31,2.94a1.272,1.272,0,0,0,1.33,1.26c1.12,0,2.31-1.75,2.31-3.01A1.217,1.217,0,0,0,25.3-27.23ZM39.515-3.78h-.07c2.8-2.87,4.9-6.79,4.9-10.57,0-3.85-2.1-6.79-6.44-6.79-5.11,0-9.52,4.2-9.59,8.82a12.8,12.8,0,0,0-3.5,8.05,5.144,5.144,0,0,0,5.46,5.32,12.45,12.45,0,0,0,7.35-3.15,6.791,6.791,0,0,0,1.19.07c3.85,0,6.65-.98,10.22-4.76a1.563,1.563,0,0,0,.35-.7.891.891,0,0,0-.77-.77c-.35,0-.7.42-.7.42C45.325-4.97,42.595-3.78,39.515-3.78Zm-9.17-7.84a11.967,11.967,0,0,1,7.91-4.62c.49-.07.98-.21.98-.77,0-.42-.42-.63-1.33-.63a11.84,11.84,0,0,0-6.93,2.8,8.185,8.185,0,0,1,7.14-4.2c2.38,0,3.92,2.03,3.92,4.62,0,3.64-2.38,7.63-5.32,10.22A8.621,8.621,0,0,1,30.345-11.62Zm0,10.57a2.721,2.721,0,0,1-3.01-3.01A11.7,11.7,0,0,1,28.8-9.31a11.717,11.717,0,0,0,6.23,6.44A8.289,8.289,0,0,1,30.345-1.05Zm47.95-5.74a1.563,1.563,0,0,0,.35-.7.9.9,0,0,0-.84-.77c-.28,0-.63.42-.63.42s-5.11,6.23-10.5,6.23c-1.26,0-1.89-.56-1.89-1.61,0-3.22,6.58-7.63,6.58-11.48a3.083,3.083,0,0,0-3.22-3.01c-4.9,0-13.65,6.79-19.32,12.95a72.565,72.565,0,0,1,7.42-10.08c.49-.56.7-.84.7-1.05a1.151,1.151,0,0,0-1.19-1.12c-1.12,0-6.58,7.63-9.24,12.18C45.045-2.31,44.2-.63,44.2-.07A1.137,1.137,0,0,0,45.325.98a1.688,1.688,0,0,0,1.54-.84c7.35-8.61,16.38-15.75,20.86-15.75a.986.986,0,0,1,1.12.91c0,3.08-6.72,7.49-6.72,11.69,0,2.03,1.61,3.43,3.92,3.43C71.785.42,78.295-6.79,78.295-6.79Z" transform="translate(77.385 45.5)" fill="#f59c9c"/>
</svg>
