<svg xmlns="http://www.w3.org/2000/svg" width="120" height="45" viewBox="0 0 120 45">
  <g id="グループ_1673" data-name="グループ 1673" transform="translate(-742 -971)">
    <rect id="長方形_1435" data-name="長方形 1435" width="120" height="45" rx="8" transform="translate(742 971)" fill="#f0b7bf"/>
    <path id="パス_3824" data-name="パス 3824" d="M14.52-13.706a28.765,28.765,0,0,0,2.486-3.08c.77-.088.924-.2.924-.4,0-.264-.484-.506-2.332-1.1a11.184,11.184,0,0,1-.506,1.76,16.7,16.7,0,0,1-1.21,2.816H8.6a8.459,8.459,0,0,1-1.738-.176l.22.858A9.886,9.886,0,0,1,8.6-13.156h3.52v3.674H8.91a8.807,8.807,0,0,1-1.628-.154L7.5-8.8A8.389,8.389,0,0,1,8.91-8.932h3.212v3.916H7.832a11.356,11.356,0,0,1-1.848-.176l.22.836a11.025,11.025,0,0,1,1.628-.11h4.29c0,3.586-.11,5.17-.11,5.632,0,.418.176.616.7.616.748,0,1.1-.22,1.1-.77,0-.726-.066-2.794-.088-5.478h7.194c.22,0,.308-.066.308-.22,0-.132-.088-.286-.572-.682-.99-.792-1.188-.858-1.342-.858-.132,0-.286.088-1.188,1.21h-4.4V-8.932h5.654c.2,0,.286-.066.286-.22,0-.132-.088-.286-.506-.638-.88-.748-1.1-.814-1.232-.814s-.33.088-1.188,1.122H13.728v-3.674H20.2c.22,0,.286-.066.286-.2s-.088-.286-.506-.682c-.924-.77-1.1-.88-1.232-.88s-.308.11-1.232,1.21Zm-3.762-.528a.976.976,0,0,0,.946-1.078c0-1.1-1.034-2.09-2.926-2.794-.088-.022-.22.11-.154.176a5.01,5.01,0,0,1,1.386,2.684C10.142-14.52,10.34-14.234,10.758-14.234ZM3.586,1.562c.7,0,1.188-.55,1.188-1.408,0-1.122-.792-2.134-.792-3.212a4.547,4.547,0,0,1,.264-1.408C5.192-7,5.918-9.152,6.952-12.078c.044-.132-.242-.242-.286-.11a73.08,73.08,0,0,1-3.5,7.37.974.974,0,0,1-.9.638,7.468,7.468,0,0,1-1.078-.088c-.132-.022-.176.242-.044.286,1.452.44,1.738.792,1.738,2.112C2.882-1.1,2.75-.2,2.75.484S3.036,1.562,3.586,1.562ZM5.214-14.63c.4,0,.77-.352.77-.968,0-1.1-1.3-2.068-3.432-2.354-.088-.022-.176.132-.11.176a5.382,5.382,0,0,1,1.87,2.266C4.62-14.828,4.774-14.63,5.214-14.63ZM3.74-9.5a.879.879,0,0,0,.814-.99c0-1.056-1.32-2-3.388-2.288-.088-.022-.176.154-.11.2a5.092,5.092,0,0,1,1.826,2.178C3.168-9.746,3.366-9.5,3.74-9.5ZM33.462-5.9A10.816,10.816,0,0,0,37.51-.462a14.781,14.781,0,0,0,3.5,1.848,4.13,4.13,0,0,0,1.122.308c.22,0,.352-.132.462-.484A1.424,1.424,0,0,1,43.8.154c.088-.022.088-.242,0-.242A15.111,15.111,0,0,1,38.324-1.65a12.6,12.6,0,0,1-1.3-.77,17.093,17.093,0,0,0,2.816-1.452c.726.088,1.012-.022,1.012-.242,0-.242-.55-.638-1.826-1.342a6.152,6.152,0,0,1-.814,1.166,16.37,16.37,0,0,1-1.628,1.562A10.168,10.168,0,0,1,33.946-5.9h9.328c.22,0,.308-.066.308-.2s-.11-.308-.55-.66C42.02-7.59,41.844-7.7,41.712-7.7s-.308.11-1.276,1.254H34.254V-7.612c.55-.2.7-.352.7-.528,0-.242-.242-.418-2.354-.638.044.484.088,1.012.088,1.5v.836H25.608A7.894,7.894,0,0,1,23.892-6.6l.22.836a10.154,10.154,0,0,1,1.54-.132h5.566a21.6,21.6,0,0,1-7.7,4.444c-.154.044-.066.352.088.33a20.953,20.953,0,0,0,5.742-1.87v2.64c-.462.066-.924.088-1.386.132a15.7,15.7,0,0,1-1.87.044c.484,1.958.638,2.31.9,2.31.2,0,.308-.132.484-.7a37.071,37.071,0,0,0,8.03-2.53c.11-.066.044-.308-.088-.286a46.1,46.1,0,0,1-4.576.858V-3.872A17.115,17.115,0,0,0,33.352-5.9ZM37.2-9.922V-14.08H43.12c.22,0,.286-.066.286-.2,0-.154-.088-.308-.506-.638-.99-.792-1.166-.88-1.32-.88-.132,0-.286.11-1.166,1.166H37.2v-2.376c.572-.242.77-.4.77-.594,0-.242-.264-.418-2.4-.638a19.561,19.561,0,0,1,.088,2.42v1.188H32.384a6.744,6.744,0,0,1-1.54-.154l.22.836a8.084,8.084,0,0,1,1.342-.132h3.256v4.158h-2.9a6.7,6.7,0,0,1-1.562-.154l.242.836a7.669,7.669,0,0,1,1.342-.132h9.812c.22,0,.286-.066.286-.22,0-.132-.11-.286-.528-.616-.968-.748-1.122-.858-1.276-.858-.132,0-.286.11-1.144,1.144Zm-8.734-2.2a15.315,15.315,0,0,1-3.1,1.012,8.808,8.808,0,0,1-1.584.264c.814,2.09.924,2.156,1.144,2.156s.33-.2.4-.88a12.136,12.136,0,0,0,3.124-2c-.022,1.87-.066,2.794-.066,3.146,0,.418.154.572.638.572.726,0,1.012-.2,1.012-.726,0-.572-.066-2.486-.066-6.248v-2.178c.572-.242.682-.374.682-.572,0-.308-.286-.418-2.288-.638a34.433,34.433,0,0,1,.11,4.07ZM26.6-13.288a.916.916,0,0,0,.858-1.012c0-.924-.88-1.716-2.794-2.464-.11-.044-.264.11-.176.2A5.165,5.165,0,0,1,25.894-14.1C26.048-13.508,26.246-13.288,26.6-13.288Zm28.262.368a8.706,8.706,0,0,1,1.06-.04,5.793,5.793,0,0,1,3.72,1.3,5.047,5.047,0,0,1,1.68,3.82,5.65,5.65,0,0,1-1.8,4.14,11.117,11.117,0,0,1-5.44,2.54c-.26.06-.36.12-.36.28A.282.282,0,0,0,54-.64a11.936,11.936,0,0,0,6.66-2.24,5.655,5.655,0,0,0,2.16-4.68A5.71,5.71,0,0,0,60.6-12.1a7.356,7.356,0,0,0-4.64-1.54,8.548,8.548,0,0,0-6.4,2.62A7.277,7.277,0,0,0,47.68-6.3a4.393,4.393,0,0,0,.92,2.96,1.846,1.846,0,0,0,1.5.8,2.678,2.678,0,0,0,2.02-1.3,20.139,20.139,0,0,0,2.86-5.18,7.989,7.989,0,0,0,.52-2.34A2.338,2.338,0,0,0,54.86-12.92Zm-.54.06a1.24,1.24,0,0,1,.32.92,4.377,4.377,0,0,1-.28,1.58,21.252,21.252,0,0,1-2.86,5.2c-.58.78-.98,1.14-1.4,1.14a1.122,1.122,0,0,1-.94-.68,3.452,3.452,0,0,1-.44-1.86,6.234,6.234,0,0,1,1.74-4.32A7.057,7.057,0,0,1,54.32-12.86Zm26.26,6.7c.2-.7.36-1.28.54-1.96a1.239,1.239,0,0,1,.36-.66.6.6,0,0,0,.18-.46c0-.3-.3-.66-.76-1a3.615,3.615,0,0,0-1.5-.66,1.112,1.112,0,0,0-.46.08c-.1.04-.2.12-.2.18s.04.12.14.16a2.874,2.874,0,0,1,.74.42.865.865,0,0,1,.32.8,13.042,13.042,0,0,1-.56,2.68A18.652,18.652,0,0,0,74.32-7.6c.56-1.22,1.2-2.32,1.66-3.34.54-1.16.92-2,1.3-2.7.16-.28.3-.42.3-.68,0-.22-.22-.42-.44-.54a2.445,2.445,0,0,0-.98-.38.63.63,0,0,0-.46.28,1.577,1.577,0,0,1-.84.5,9.885,9.885,0,0,1-2.3.52.923.923,0,0,1-.78-.4,2.508,2.508,0,0,1-.32-.48c-.08-.14-.14-.22-.22-.22-.06,0-.12.06-.16.16a1.277,1.277,0,0,0-.1.48,2.712,2.712,0,0,0,.5,1.24,1.124,1.124,0,0,0,.82.58.945.945,0,0,0,.44-.14,3.836,3.836,0,0,1,.74-.34c.5-.2,1.14-.42,2.02-.7.22-.06.28.02.22.18a59.189,59.189,0,0,1-2.54,6.02,6.769,6.769,0,0,0-3.44,1,3.185,3.185,0,0,0-1.62,2.52c0,1.22.66,1.68,1.58,1.68a2.435,2.435,0,0,0,1.74-.72,14.2,14.2,0,0,0,2.52-3.7A13.6,13.6,0,0,1,79.04-5.5a12.888,12.888,0,0,1-1.92,3.36A11.651,11.651,0,0,1,74.02.44c-.18.1-.24.16-.24.28a.185.185,0,0,0,.2.18A1.075,1.075,0,0,0,74.4.8a10.843,10.843,0,0,0,3.34-2.14,11.371,11.371,0,0,0,2.42-3.6A15.653,15.653,0,0,1,82.6-3.32a1.452,1.452,0,0,0,.8.4.7.7,0,0,0,.7-.68,1.175,1.175,0,0,0-.54-.98A13.654,13.654,0,0,0,80.58-6.16ZM72.82-6.8A13.535,13.535,0,0,1,71.1-4.24a2.023,2.023,0,0,1-1.38.84A.668.668,0,0,1,69-4.14a2.266,2.266,0,0,1,1.06-1.8A6.078,6.078,0,0,1,72.82-6.8Z" transform="translate(759 1002)" fill="#3a3a3a"/>
  </g>
</svg>
