<svg id="グループ_1573" data-name="グループ 1573" xmlns="http://www.w3.org/2000/svg" width="980" height="448" viewBox="0 0 980 448">
  <defs>
    <style>
      .cls-1 {
        fill: #fff;
      }

      .cls-2 {
        font-size: 16px;
      }

      .cls-2, .cls-5 {
        font-family: YuMin-Medium, YuMincho;
        font-weight: 500;
        letter-spacing: 0.03em;
      }

      .cls-3 {
        fill: #575656;
      }

      .cls-4 {
        fill: none;
      }

      .cls-5 {
        font-size: 24px;
      }
    </style>
  </defs>
  <rect id="長方形_200" data-name="長方形 200" class="cls-1" width="978.025" height="444" transform="translate(1.97)"/>
  <text id="Milfeliceではご列席の出張ヘアメイク_出張着付けも承っております_2名様以上受付です_お申し込みの際に_お名前_人数_支度場所_メニュー内容をお知らせください_出張費は一人のスタッフにつき_1_100となります_出張スタッフの人数はご列席の方の人数やお仕度時間によって異なりますので_その都度お問い合わせください_Price_税込み表示_ヘアセット_5_500_メイク_3_850_ヘアメイクセット_8_800_留袖着付け_11_000_振袖着付け_1" data-name="Milfeliceではご列席の出張ヘアメイク、出張着付けも承っております（2名様以上受付です）
お申し込みの際に、お名前、人数、支度場所、メニュー内容をお知らせください。
※出張費は一人のスタッフにつき￥1,100となります。出張スタッフの人数はご列席の方の人数やお仕度時間によって異なりますので、その都度お問い合わせください。

Price（税込み表示）
・ヘアセット … ￥5,500
・メイク … ￥3,850
・ヘアメイクセット … ￥8,800
・留袖着付け … ￥11,000
・振袖着付け … ￥1" class="cls-2" transform="translate(40 104)"><tspan x="0" y="14">Milfeliceではご列席の出張ヘアメイク、出張着付けも承っております（2名様以上受付です）</tspan><tspan x="0" y="42.8">お申し込みの際に、お名前、人数、支度場所、メニュー内容をお知らせください。</tspan><tspan x="0" y="71.6">※出張費は一人のスタッフにつき￥1,100となります。出張スタッフの人数はご列席の方の人数やお仕度時間によって異な</tspan><tspan x="0" y="100.4">りますので、その都度お問い合わせください。</tspan><tspan x="0" y="129.2"></tspan><tspan x="0" y="158">Price（税込み表示）</tspan><tspan x="0" y="186.8">・ヘアセット … ￥5,500</tspan><tspan x="0" y="215.6">・メイク … ￥3,850</tspan><tspan x="0" y="244.4">・ヘアメイクセット … ￥8,800</tspan><tspan x="0" y="273.2">・留袖着付け … ￥11,000</tspan><tspan x="0" y="302">・振袖着付け … ￥13,200</tspan></text>
  <g id="グループ_849" data-name="グループ 849" transform="translate(0)">
    <g id="グループ_583" data-name="グループ 583" transform="translate(2.32 336.462)">
      <g id="グループ_578" data-name="グループ 578" transform="translate(822.96)">
        <g id="グループ_577" data-name="グループ 577">
          <path id="パス_2909" data-name="パス 2909" class="cls-3" d="M2974.539,1887.688v92.464H2836.594v-1.387h126.782c5.022,0,9.094-2.73,9.094-6.1v-84.98Z" transform="translate(-2820.824 -1871.18)"/>
          <g id="グループ_575" data-name="グループ 575" transform="translate(151.646)">
            <rect id="長方形_133" data-name="長方形 133" class="cls-3" width="2.069" height="11.816"/>
          </g>
          <g id="グループ_576" data-name="グループ 576" transform="translate(0 107.585)">
            <rect id="長方形_134" data-name="長方形 134" class="cls-3" width="10.223" height="1.387"/>
          </g>
        </g>
      </g>
      <g id="グループ_582" data-name="グループ 582" transform="translate(0)">
        <g id="グループ_581" data-name="グループ 581">
          <path id="パス_2910" data-name="パス 2910" class="cls-3" d="M611.051,1887.688v92.464H749v-1.387H622.215c-5.023,0-9.095-2.73-9.095-6.1v-84.98Z" transform="translate(-611.051 -1871.18)"/>
          <g id="グループ_579" data-name="グループ 579" transform="translate(0)">
            <rect id="長方形_135" data-name="長方形 135" class="cls-3" width="2.069" height="11.816"/>
          </g>
          <g id="グループ_580" data-name="グループ 580" transform="translate(143.492 107.585)">
            <rect id="長方形_136" data-name="長方形 136" class="cls-3" width="10.223" height="1.387"/>
          </g>
        </g>
      </g>
    </g>
    <g id="グループ_592" data-name="グループ 592" transform="translate(2.32)">
      <g id="グループ_587" data-name="グループ 587" transform="translate(822.96)">
        <g id="グループ_586" data-name="グループ 586">
          <path id="パス_2911" data-name="パス 2911" class="cls-3" d="M2974.539,622.494V530.03H2836.594v1.387h126.782c5.022,0,9.094,2.73,9.094,6.1v84.981Z" transform="translate(-2820.824 -530.03)"/>
          <g id="グループ_584" data-name="グループ 584" transform="translate(151.646 97.156)">
            <rect id="長方形_137" data-name="長方形 137" class="cls-3" width="2.069" height="11.816"/>
          </g>
          <g id="グループ_585" data-name="グループ 585" transform="translate(0 0)">
            <rect id="長方形_138" data-name="長方形 138" class="cls-3" width="10.223" height="1.387"/>
          </g>
        </g>
      </g>
      <g id="グループ_591" data-name="グループ 591" transform="translate(0)">
        <g id="グループ_590" data-name="グループ 590">
          <path id="パス_2912" data-name="パス 2912" class="cls-3" d="M611.051,622.494V530.03H749v1.387H622.215c-5.023,0-9.095,2.73-9.095,6.1v84.981Z" transform="translate(-611.051 -530.03)"/>
          <g id="グループ_588" data-name="グループ 588" transform="translate(0 97.156)">
            <rect id="長方形_139" data-name="長方形 139" class="cls-3" width="2.069" height="11.816"/>
          </g>
          <g id="グループ_589" data-name="グループ 589" transform="translate(143.492 0)">
            <rect id="長方形_140" data-name="長方形 140" class="cls-3" width="10.223" height="1.387"/>
          </g>
        </g>
      </g>
    </g>
    <g id="グループ_609" data-name="グループ 609" transform="translate(976.906 98.983)">
      <rect id="長方形_141" data-name="長方形 141" class="cls-3" width="2.089" height="139.14" transform="translate(0)"/>
    </g>
    <g id="グループ_610" data-name="グループ 610" transform="translate(0.231 180.708)">
      <rect id="長方形_142" data-name="長方形 142" class="cls-3" width="2.089" height="82.709" transform="translate(0 0)"/>
    </g>
    <g id="グループ_612" data-name="グループ 612" transform="translate(149.104 444.047)">
      <rect id="長方形_144" data-name="長方形 144" class="cls-3" width="680.869" height="1.387" transform="translate(0)"/>
    </g>
    <rect id="長方形_7" data-name="長方形 7" class="cls-4" width="978.675" height="448"/>
    <rect id="長方形_143" data-name="長方形 143" class="cls-3" width="794.685" height="1.387" transform="translate(134.265 0)"/>
  </g>
  <text id="ゲスト_列席者_ヘアメイクについて" data-name="ゲスト（列席者）ヘアメイクについて" class="cls-5" transform="translate(42 61)"><tspan x="0" y="0">ゲスト（列席者）ヘアメイクについて</tspan></text>
  <rect id="長方形_201" data-name="長方形 201" class="cls-4" width="978.061" height="77.07" transform="translate(1.939 1)"/>
</svg>
