<svg xmlns="http://www.w3.org/2000/svg" width="343.029" height="375" viewBox="0 0 343.029 375">
  <defs>
    <style>
      .cls-1 {
        fill: #fff;
      }

      .cls-2, .cls-7 {
        font-size: 12px;
      }

      .cls-2, .cls-5, .cls-7 {
        font-family: YuMin-Medium, YuMincho;
        font-weight: 500;
        letter-spacing: 0.03em;
      }

      .cls-3 {
        fill: #575656;
      }

      .cls-4 {
        fill: none;
      }

      .cls-5 {
        font-size: 16px;
      }

      .cls-6 {
        fill: #f8f4ff;
        stroke: #c7b9db;
      }

      .cls-7 {
        fill: #3a3a3a;
      }

      .cls-8 {
        stroke: none;
      }
    </style>
  </defs>
  <g id="グループ_1646" data-name="グループ 1646" transform="translate(-135.341)">
    <rect id="長方形_200" data-name="長方形 200" class="cls-1" width="342.337" height="375" transform="translate(136.032)"/>
    <text id="かつらご希望の方は_以下のオプション料金が発生します_" data-name="かつらご希望の方は、以下のオプション料金が発生します。" class="cls-2" transform="translate(165.583 91)"><tspan x="0" y="11">かつらご希望の方は、以下のオプション料金が発生</tspan><tspan x="0" y="32.6">します。</tspan></text>
    <g id="グループ_849" data-name="グループ 849" transform="translate(0)">
      <g id="グループ_583" data-name="グループ 583" transform="translate(135.342 263.462)">
        <g id="グループ_578" data-name="グループ 578" transform="translate(203.775)">
          <g id="グループ_577" data-name="グループ 577">
            <path id="パス_2909" data-name="パス 2909" class="cls-3" d="M2960.75,1887.688v92.464H2836.593v-1.387H2950.7c4.52,0,8.185-2.73,8.185-6.1v-84.98Z" transform="translate(-2822.401 -1871.18)"/>
            <g id="グループ_575" data-name="グループ 575" transform="translate(136.487)">
              <rect id="長方形_133" data-name="長方形 133" class="cls-3" width="1.862" height="11.816"/>
            </g>
            <g id="グループ_576" data-name="グループ 576" transform="translate(0 107.585)">
              <rect id="長方形_134" data-name="長方形 134" class="cls-3" width="9.201" height="1.387"/>
            </g>
          </g>
        </g>
        <g id="グループ_582" data-name="グループ 582" transform="translate(0)">
          <g id="グループ_581" data-name="グループ 581">
            <path id="パス_2910" data-name="パス 2910" class="cls-3" d="M611.051,1887.688v92.464H735.208v-1.387H621.1c-4.521,0-8.186-2.73-8.186-6.1v-84.98Z" transform="translate(-611.051 -1871.18)"/>
            <g id="グループ_579" data-name="グループ 579" transform="translate(0)">
              <rect id="長方形_135" data-name="長方形 135" class="cls-3" width="1.862" height="11.816"/>
            </g>
            <g id="グループ_580" data-name="グループ 580" transform="translate(129.149 107.585)">
              <rect id="長方形_136" data-name="長方形 136" class="cls-3" width="9.201" height="1.387"/>
            </g>
          </g>
        </g>
      </g>
      <g id="グループ_592" data-name="グループ 592" transform="translate(135.342)">
        <g id="グループ_587" data-name="グループ 587" transform="translate(203.775)">
          <g id="グループ_586" data-name="グループ 586">
            <path id="パス_2911" data-name="パス 2911" class="cls-3" d="M2960.75,622.494V530.03H2836.593v1.387H2950.7c4.52,0,8.185,2.73,8.185,6.1v84.981Z" transform="translate(-2822.401 -530.03)"/>
            <g id="グループ_584" data-name="グループ 584" transform="translate(136.487 97.156)">
              <rect id="長方形_137" data-name="長方形 137" class="cls-3" width="1.862" height="11.816"/>
            </g>
            <g id="グループ_585" data-name="グループ 585" transform="translate(0 0)">
              <rect id="長方形_138" data-name="長方形 138" class="cls-3" width="9.201" height="1.387"/>
            </g>
          </g>
        </g>
        <g id="グループ_591" data-name="グループ 591" transform="translate(0)">
          <g id="グループ_590" data-name="グループ 590">
            <path id="パス_2912" data-name="パス 2912" class="cls-3" d="M611.051,622.494V530.03H735.208v1.387H621.1c-4.521,0-8.186,2.73-8.186,6.1v84.981Z" transform="translate(-611.051 -530.03)"/>
            <g id="グループ_588" data-name="グループ 588" transform="translate(0 97.156)">
              <rect id="長方形_139" data-name="長方形 139" class="cls-3" width="1.862" height="11.816"/>
            </g>
            <g id="グループ_589" data-name="グループ 589" transform="translate(129.149 0)">
              <rect id="長方形_140" data-name="長方形 140" class="cls-3" width="9.201" height="1.387"/>
            </g>
          </g>
        </g>
      </g>
      <g id="グループ_609" data-name="グループ 609" transform="translate(475.586 75.588)">
        <rect id="長方形_141" data-name="長方形 141" class="cls-3" width="1.88" height="139.14" transform="translate(0)"/>
      </g>
      <g id="グループ_610" data-name="グループ 610" transform="translate(135.551 144.595)">
        <rect id="長方形_142" data-name="長方形 142" class="cls-3" width="1.88" height="82.709" transform="translate(0 0)"/>
      </g>
      <g id="グループ_612" data-name="グループ 612" transform="translate(135.342 371.047)">
        <rect id="長方形_144" data-name="長方形 144" class="cls-3" width="341.185" height="1.387"/>
      </g>
      <rect id="長方形_7" data-name="長方形 7" class="cls-4" width="341.836" height="375" transform="translate(135.342)"/>
      <rect id="長方形_143" data-name="長方形 143" class="cls-3" width="176.238" height="1.387" transform="translate(256.187 0)"/>
    </g>
    <text id="かつらオプションについて" class="cls-5" transform="translate(165.583 54)"><tspan x="0" y="0">かつらオプションについて</tspan></text>
    <rect id="長方形_201" data-name="長方形 201" class="cls-4" width="342.35" height="77.07" transform="translate(136.021 1)"/>
    <g id="グループ_1574" data-name="グループ 1574" transform="translate(12.82 198)">
      <g id="長方形_1505" data-name="長方形 1505" class="cls-6" transform="translate(152.764 63)">
        <rect class="cls-8" width="48" height="30" rx="6"/>
        <rect class="cls-4" x="0.5" y="0.5" width="47" height="29" rx="5.5"/>
      </g>
      <text id="角かくし_ちりめん無地_" data-name="角かくし（ちりめん無地）" class="cls-2" transform="translate(152.764 114)"><tspan x="0" y="0">角かくし（ちりめん無地）</tspan></text>
      <text id="_4_950" data-name="¥4,950" class="cls-2" transform="translate(432.764 114)"><tspan x="-36.768" y="0">¥4,950</tspan></text>
      <text id="綿帽子_ちりめん無地_" data-name="綿帽子（ちりめん無地）" class="cls-2" transform="translate(152.764 136)"><tspan x="0" y="0">綿帽子（ちりめん無地）</tspan></text>
      <text id="_14_850" data-name="¥14,850" class="cls-2" transform="translate(432.764 136)"><tspan x="-43.128" y="0">¥14,850</tspan></text>
      <g id="グループ_1648" data-name="グループ 1648" transform="translate(152.763 -53)">
        <g id="長方形_1504" data-name="長方形 1504" class="cls-6" transform="translate(0.001)">
          <rect class="cls-8" width="82" height="30" rx="6"/>
          <rect class="cls-4" x="0.5" y="0.5" width="81" height="29" rx="5.5"/>
        </g>
        <text id="高島田_かつら_" data-name="高島田（かつら）" class="cls-2" transform="translate(0.001 51)"><tspan x="0" y="0">高島田（かつら）</tspan></text>
        <text id="_27_500" data-name="¥27,500" class="cls-2" transform="translate(237.001 51)"><tspan x="0" y="0">¥27,500</tspan></text>
        <text id="べっ甲かんざし" class="cls-2" transform="translate(0.001 73)"><tspan x="0" y="0">べっ甲かんざし</tspan></text>
        <text id="_11_000" data-name="¥11,000" class="cls-2" transform="translate(237.001 73)"><tspan x="0" y="0">¥11,000</tspan></text>
        <text id="色かんざし" class="cls-2" transform="translate(0.001 95)"><tspan x="0" y="0">色かんざし</tspan></text>
        <text id="_16_500" data-name="¥16,500" class="cls-2" transform="translate(237.001 95)"><tspan x="0" y="0">¥16,500</tspan></text>
        <text id="レンタル" class="cls-2" transform="translate(64.001 19)"><tspan x="-49.08" y="0">レンタル</tspan></text>
      </g>
      <text id="販売" class="cls-7" transform="translate(189.764 83)"><tspan x="-24.36" y="0">販売</tspan></text>
    </g>
  </g>
</svg>
