<svg id="グループ_1798" data-name="グループ 1798" xmlns="http://www.w3.org/2000/svg" width="980" height="315.95" viewBox="0 0 980 315.95">
  <rect id="長方形_200" data-name="長方形 200" width="978.025" height="312" transform="translate(1.97)" fill="#fff"/>
  <path id="パス_3904" data-name="パス 3904" d="M1.552,6.3A9.156,9.156,0,0,1,2.48,6.1c.144-.032.912-.16,2.288-.368A26.414,26.414,0,0,1,3.008,10.8a15.344,15.344,0,0,1-1.664,2.9l1.088.64c.5-.9.832-1.536,1.04-1.92A30.186,30.186,0,0,0,5.888,5.632a9.187,9.187,0,0,1,1.152-.08c1.488,0,1.968.544,1.968,2.24a12.386,12.386,0,0,1-.672,4.448q-.312.768-.912.768a5.981,5.981,0,0,1-2.384-.736,3.1,3.1,0,0,1,.048.64,3.48,3.48,0,0,1-.032.56,6.02,6.02,0,0,0,2.416.624,1.671,1.671,0,0,0,1.568-.752c.656-.928,1.072-3.056,1.072-5.5a3.23,3.23,0,0,0-.784-2.576,3.058,3.058,0,0,0-2.3-.672,9.325,9.325,0,0,0-.944.048c.144-.768.256-1.36.336-1.824a9.836,9.836,0,0,1,.3-1.536L5.44,1.136v.208a19.556,19.556,0,0,1-.48,3.392c-1.3.208-2.96.4-3.536.416Zm9.44-2.112a13.1,13.1,0,0,1,3.264,5.744l1.024-.592A14.468,14.468,0,0,0,11.936,3.68Zm7.2,1.952a7.031,7.031,0,0,1,1.152-.384,25.414,25.414,0,0,1,6.528-1.136c2.176,0,3.5,1.088,3.5,2.88s-1.232,3.232-3.424,4.032a14.317,14.317,0,0,1-4.448.736,2.822,2.822,0,0,1,.5,1.184,13.818,13.818,0,0,0,5.3-1.216,5.241,5.241,0,0,0,3.328-4.72c0-2.448-1.856-4-4.784-4a21.375,21.375,0,0,0-4.64.592,21.451,21.451,0,0,1-3.328.672ZM38.048,2.4A17.82,17.82,0,0,0,40.5,3.408a24.679,24.679,0,0,0,3.12.912l.448-1.12A19.29,19.29,0,0,1,38.64,1.424ZM36.72,4.128a5.381,5.381,0,0,1-.112.848c-.224,1.344-.512,3.2-.672,4.416-.064.512-.08.656-.128.944l1.248.032a2.782,2.782,0,0,1,.64-.656,7.752,7.752,0,0,1,4.48-1.392c1.952,0,3.1.768,3.1,2.08,0,1.632-1.68,2.688-4.32,2.688a11.364,11.364,0,0,1-4.08-.8,3.7,3.7,0,0,1,.112.992,2.522,2.522,0,0,1-.016.3c.976.24.976.24,1.28.32a13.293,13.293,0,0,0,2.8.288,6.641,6.641,0,0,0,3.984-1.056,3.421,3.421,0,0,0,1.44-2.752c0-1.872-1.68-3.088-4.288-3.088a7.92,7.92,0,0,0-4.624,1.376,4.481,4.481,0,0,0-.5.48l-.032-.016a1.928,1.928,0,0,0,.064-.368c.048-.368.08-.48.464-2.8a13.391,13.391,0,0,1,.368-1.76Zm17.2,3.6a4.2,4.2,0,0,0-1.84,3.088A2.549,2.549,0,0,0,53.9,13.232a11.288,11.288,0,0,0,3.68.5,26.1,26.1,0,0,0,4.32-.368,4.972,4.972,0,0,1,.544-.08L62.3,11.968a15.178,15.178,0,0,1-4.8.608,10.189,10.189,0,0,1-2.928-.32c-.9-.3-1.36-.832-1.36-1.568,0-.752.48-1.488,1.52-2.352Zm-.96-4.1c.224.016.224.016.528.048a31.3,31.3,0,0,0,3.52.208,12.647,12.647,0,0,0,2.416-.208,24.883,24.883,0,0,0-2.832,1.7l.816.656A24.4,24.4,0,0,1,61.44,3.6l-.08-1.056a17.5,17.5,0,0,1-4.048.336A18.293,18.293,0,0,1,53.056,2.5ZM60.24,5.68a12.477,12.477,0,0,1,1.632,2.544l.8-.48a12.754,12.754,0,0,0-1.632-2.48Zm1.776-.928a13.419,13.419,0,0,1,1.632,2.512l.8-.448a12.336,12.336,0,0,0-1.664-2.5ZM70.9,8.928a15.369,15.369,0,0,0,1.632-2.08h6.7a10.123,10.123,0,0,1,1.776.1V5.84a11.569,11.569,0,0,1-1.776.1H73.1l.256-.448c.32-.608.352-.656.448-.832l-1.1-.272A5.238,5.238,0,0,1,72,5.936H68.656a12.017,12.017,0,0,1-1.824-.1v1.1a12.051,12.051,0,0,1,1.824-.1h2.752a15.191,15.191,0,0,1-4.816,4.368,3.005,3.005,0,0,1,.656.816,19.757,19.757,0,0,0,2.64-2.064v2.848a11.218,11.218,0,0,1-.1,1.616h1.152a9.606,9.606,0,0,1-.08-1.616V9.824h3.1v3.744a11.64,11.64,0,0,1-.1,1.664H75.04a8.437,8.437,0,0,1-.1-1.664V9.824h3.472v2.992c0,.384-.128.464-.672.464a6.3,6.3,0,0,1-1.392-.16,4.309,4.309,0,0,1,.208,1.024c.384.032.864.064,1.1.064,1.408,0,1.728-.24,1.728-1.232V10.1a9.407,9.407,0,0,1,.064-1.232,12.745,12.745,0,0,1-1.472.064h-3.04a6.792,6.792,0,0,1,.08-1.472H73.888a6.891,6.891,0,0,1,.08,1.472Zm8.016-4.352c-1.44-.736-2.784-1.408-3.456-1.712a23.4,23.4,0,0,0,2.72-1.6A3.219,3.219,0,0,1,78.64.992L77.52.416a11.616,11.616,0,0,1-3.2,1.952c-1.312-.56-2.592-1.04-4.176-1.584l-.864.64c1.184.368,2.752.928,3.872,1.408A21.6,21.6,0,0,1,67.824,4.08a4.226,4.226,0,0,1,.608.928,26.553,26.553,0,0,0,5.92-1.664,34.348,34.348,0,0,1,3.712,1.92ZM95.936,5.984a3.167,3.167,0,0,1-.368,1.232c-.112.144-.3.192-.7.192a9.251,9.251,0,0,1-1.584-.16,2.6,2.6,0,0,1,.256.96c.544.048.944.064,1.312.064a2.027,2.027,0,0,0,1.184-.208c.368-.224.592-.72.768-1.616a37.39,37.39,0,0,0,.432-4.336,7.259,7.259,0,0,1,.064-.96,13.289,13.289,0,0,1-1.584.064H92.9c-.656,0-1.2-.032-1.552-.064a4.052,4.052,0,0,1,.064.8,10.58,10.58,0,0,1-.5,3.424A5.434,5.434,0,0,1,89.216,8a2.459,2.459,0,0,1,.848.608A6.456,6.456,0,0,0,91.7,5.984Zm.24-1.9c-.048.528-.064.656-.128,1.152H91.936a7.69,7.69,0,0,0,.24-1.152Zm.048-.768H92.272c.048-.368.048-.592.08-1.232H96.3Zm-8.736-1.04v-.32a6.223,6.223,0,0,1,.1-1.28H86.416a7.958,7.958,0,0,1,.08,1.28v.32H84.784a8.318,8.318,0,0,1-1.408-.08V3.216a6.282,6.282,0,0,1,1.232-.08V6.208c0,.9.512,1.136,2.432,1.136A25.645,25.645,0,0,0,89.7,7.232l-.016-.976a13.847,13.847,0,0,1-2.4.176c-1.44,0-1.712-.08-1.712-.5v-2.8h3.408a8.458,8.458,0,0,1,1.392.08V2.192a8.11,8.11,0,0,1-1.392.08Zm2.272,7.5v1.456H86.9a8.917,8.917,0,0,1-1.7-.1V12.16a12.793,12.793,0,0,1,1.7-.08H89.76v1.68H85.072a12.144,12.144,0,0,1-1.744-.08v1.056a16.238,16.238,0,0,1,1.808-.1H95.6a16,16,0,0,1,1.84.1V13.68a12.239,12.239,0,0,1-1.776.08h-4.9V12.08h3.168a12.279,12.279,0,0,1,1.664.08V11.136a8.536,8.536,0,0,1-1.664.1H90.768V9.776H94.88a9.931,9.931,0,0,1,1.744.1V8.832a9.3,9.3,0,0,1-1.744.1H85.9a9.3,9.3,0,0,1-1.744-.1v1.04a9.194,9.194,0,0,1,1.744-.1Zm17.984-6.384a4.6,4.6,0,0,1,1.856.4,4.218,4.218,0,0,1,2.544,4.016,4.83,4.83,0,0,1-2.832,4.48,9.591,9.591,0,0,1-2.672.752,2.542,2.542,0,0,1,.56,1.072,12.378,12.378,0,0,0,2.432-.736,5.826,5.826,0,0,0,3.664-5.52,5.356,5.356,0,0,0-1.552-3.9,6.194,6.194,0,0,0-4.4-1.584A6.683,6.683,0,0,0,102.176,4.5a6.656,6.656,0,0,0-1.68,4.416c0,2.24,1.136,3.9,2.656,3.9,1.152,0,2.1-.96,3.024-3.072A23.984,23.984,0,0,0,107.744,3.392Zm-1.152.016a21.976,21.976,0,0,1-1.456,5.92c-.688,1.568-1.328,2.32-2,2.32-.864,0-1.536-1.184-1.536-2.72a5.533,5.533,0,0,1,2.608-4.768A5.053,5.053,0,0,1,106.592,3.408Zm16.1-.032h-4.56a10.768,10.768,0,0,1-1.776-.112v1.2a12.408,12.408,0,0,1,1.792-.1h3.36c-.128,3.36-.752,5.536-2.064,7.232a8.292,8.292,0,0,1-3.248,2.592,3.1,3.1,0,0,1,.784.9,9.572,9.572,0,0,0,1.744-1.168,10.207,10.207,0,0,0,1.984-2.208,10.75,10.75,0,0,0,1.52-4.1h5.024a30.681,30.681,0,0,1-.5,4.848c-.24,1.184-.4,1.376-1.088,1.376a12.951,12.951,0,0,1-2.416-.256,3.485,3.485,0,0,1,.256,1.136c.864.1,1.712.144,2.224.144,1.28,0,1.664-.336,2-1.712a33.478,33.478,0,0,0,.608-5.456c.032-.624.048-.8.08-1.12a10.18,10.18,0,0,1-1.648.08H122.4a22.181,22.181,0,0,0,.224-2.288h6.064a9.993,9.993,0,0,1,1.808.1v-1.2a11.24,11.24,0,0,1-1.84.112h-4.9v-1.2a7.792,7.792,0,0,1,.1-1.408h-1.28a8.808,8.808,0,0,1,.112,1.408Zm15.024,2.368h.064a.735.735,0,0,1,.16.016,2.382,2.382,0,0,1,.272.016,4.2,4.2,0,0,1,.512.032c.56.032,1.152.048,1.808.048.608,0,1.1-.016,1.824-.048.048,2.336.112,3.84.16,4.176a4.52,4.52,0,0,0-1.776-.32c-1.776,0-3.04.944-3.04,2.272,0,1.392,1.168,2.272,3.024,2.272a2.732,2.732,0,0,0,2.672-1.344,2.758,2.758,0,0,0,.192-1.088,2.3,2.3,0,0,0-.032-.416,1.125,1.125,0,0,1,.144.1,1.026,1.026,0,0,0,.16.1,8.646,8.646,0,0,1,2.272,1.664l.5-1.12c-.176-.112-.208-.144-.4-.272a11.582,11.582,0,0,0-2.672-1.568c-.128-2.128-.16-2.944-.176-4.528a15.3,15.3,0,0,0,1.7-.256c1.088-.224,1.088-.224,1.12-.224l-.048-1.088a10.905,10.905,0,0,1-2.768.592c-.016-.352-.016-.608-.016-.784a16.37,16.37,0,0,1,.112-2.512h-1.2a3.55,3.55,0,0,1,.048.656c0,1.216,0,1.216.016,2.72-.656.032-1.088.048-1.712.048a11.076,11.076,0,0,1-2.88-.256Zm4.816,5.216s.016.368.016.48a1.869,1.869,0,0,1-.3,1.248,2.205,2.205,0,0,1-1.632.56c-1.12,0-1.856-.512-1.856-1.3,0-.8.816-1.328,2.064-1.328A4.133,4.133,0,0,1,142.528,10.96ZM134.88,1.44a7.368,7.368,0,0,1-.176,1.008,27.11,27.11,0,0,0-.832,6.576,25.47,25.47,0,0,0,.448,4.752c.064.368.08.448.1.592l1.136-.112a1.742,1.742,0,0,1-.032-.32A13.817,13.817,0,0,1,136.9,9.392l-.784-.368a2.2,2.2,0,0,1-.128.32,14.2,14.2,0,0,0-.944,2.816l-.064-.016v-.3c-.016-.288-.016-.32-.016-.448-.032-.736-.064-1.68-.064-2.24a22.8,22.8,0,0,1,1.232-7.5Zm14.176,10.128a15.969,15.969,0,0,1,3.152,3.488l.9-.848a16.3,16.3,0,0,0-3.216-3.392Zm28.16-10.384a6.141,6.141,0,0,1,.048.832,17.486,17.486,0,0,1-.512,4.24,10.247,10.247,0,0,1-4.368,6.336,13.863,13.863,0,0,1-3.2,1.584,3.145,3.145,0,0,1,.688.96,12.783,12.783,0,0,0,5.856-4.272,11.115,11.115,0,0,0,1.344,1.92,11.832,11.832,0,0,0,2.464,2.224,3.93,3.93,0,0,1,.72-1.024,10.131,10.131,0,0,1-3.92-4.048,11.706,11.706,0,0,0,1.28-2.912,24.476,24.476,0,0,0,.72-4.224,12.706,12.706,0,0,1,.128-1.584Zm-9.744,10.272a14.7,14.7,0,0,1-1.76.528l.352,1.168a7.262,7.262,0,0,1,.944-.4A36.521,36.521,0,0,0,173.28,9.76l-.208-.992a19.824,19.824,0,0,1-2.448,1.344c-.688.336-1.216.576-2.1.928l-.08-8.112V2.736a10.327,10.327,0,0,1,.1-1.5h-1.28a9.305,9.305,0,0,1,.128,1.68Zm3.12-8.544a18.24,18.24,0,0,1,3.024,3.9l.96-.672a23.881,23.881,0,0,0-3.1-3.824Zm17.744-.256V13.168a11.766,11.766,0,0,1-.112,1.888h1.328a11.636,11.636,0,0,1-.112-1.888V5.632a17.869,17.869,0,0,1,1.664.88,23.972,23.972,0,0,1,3.392,2.24l.624-.992a34.524,34.524,0,0,0-5.68-3.28V2.656h5.024a15.707,15.707,0,0,1,1.856.1V1.568a15.146,15.146,0,0,1-1.856.1H184.1a14.886,14.886,0,0,1-1.872-.1V2.752a15.615,15.615,0,0,1,1.872-.1Zm18.288.736a4.6,4.6,0,0,1,1.856.4,4.218,4.218,0,0,1,2.544,4.016,4.83,4.83,0,0,1-2.832,4.48,9.591,9.591,0,0,1-2.672.752,2.542,2.542,0,0,1,.56,1.072,12.378,12.378,0,0,0,2.432-.736,5.826,5.826,0,0,0,3.664-5.52,5.356,5.356,0,0,0-1.552-3.9,6.194,6.194,0,0,0-4.4-1.584A6.683,6.683,0,0,0,201.056,4.5a6.656,6.656,0,0,0-1.68,4.416c0,2.24,1.136,3.9,2.656,3.9,1.152,0,2.1-.96,3.024-3.072A23.984,23.984,0,0,0,206.624,3.392Zm-1.152.016a21.976,21.976,0,0,1-1.456,5.92c-.688,1.568-1.328,2.32-2,2.32-.864,0-1.536-1.184-1.536-2.72a5.533,5.533,0,0,1,2.608-4.768A5.053,5.053,0,0,1,205.472,3.408Zm18.272,3.6v.1l.064,5.888v.352a9.457,9.457,0,0,1-.064,1.264h1.3a14.527,14.527,0,0,1-.08-1.632l-.112-7.792h2.384a13.091,13.091,0,0,1,1.328.048V4.064a8.086,8.086,0,0,1-1.6.1h-2.112l-.032-1.6V2.176a6.145,6.145,0,0,1,.064-.88H223.6a7.625,7.625,0,0,1,.08,1.3L223.7,4.16l-5.824.032a9.042,9.042,0,0,1-1.808-.112v1.2a12.572,12.572,0,0,1,1.776-.064l5.248-.032a15.424,15.424,0,0,1-2.3,2.912,18.163,18.163,0,0,1-5.424,3.824,2.579,2.579,0,0,1,.8.96,24.613,24.613,0,0,0,2.64-1.648A18.673,18.673,0,0,0,222.592,7.7a9.965,9.965,0,0,0,1.2-1.792c-.032.688-.048.928-.048,1.04Zm18.864-4.192h-7.872a11.343,11.343,0,0,1-1.808-.1V4a11.814,11.814,0,0,1,1.792-.1h8.144a12.966,12.966,0,0,1-2.8,5.7,12.848,12.848,0,0,1-5.856,3.632,3.166,3.166,0,0,1,.784,1.1,14.847,14.847,0,0,0,5.824-3.792,14.289,14.289,0,0,0,3.264-6.368l.032-.1a1.886,1.886,0,0,0,.56.08,1.816,1.816,0,1,0-1.808-1.808,1.7,1.7,0,0,0,.064.464Zm2.08-1.616a1.144,1.144,0,1,1-1.152,1.136A1.14,1.14,0,0,1,244.688,1.2Zm6.08,1.472A16.825,16.825,0,0,1,254.7,4.784l.656-1.072A23.659,23.659,0,0,0,251.392,1.7ZM249.5,6.5a17.765,17.765,0,0,1,4.08,2.192l.624-1.072a24.407,24.407,0,0,0-4.064-2.1Zm.544,7.664a3.755,3.755,0,0,1,.624-.176c.32-.064.608-.128.864-.176a18.276,18.276,0,0,0,4.048-1.376,12.542,12.542,0,0,0,6.16-6.9,4.826,4.826,0,0,1-.992-.848,11.914,11.914,0,0,1-1.92,3.584,10.538,10.538,0,0,1-4.8,3.568,13.837,13.837,0,0,1-4.3.992Zm24.608-.1v.8h1.1a5.049,5.049,0,0,1-.064-.992V6.64c0-.56,0-.816.016-1.232-.288.016-.576.032-1.088.032h-5.952a7.962,7.962,0,0,1-1.392-.1v1.1a7.238,7.238,0,0,1,1.392-.064h5.984V9.168H269.04a7.962,7.962,0,0,1-1.392-.1V10.16a7.044,7.044,0,0,1,1.376-.064h5.632V13.1h-6.144a8.219,8.219,0,0,1-1.392-.1v1.12a7.144,7.144,0,0,1,1.392-.064Zm8-10.512a17.667,17.667,0,0,1,3.808,3.136L287.3,5.7a20.842,20.842,0,0,0-3.856-3.008Zm.112,10.4a8.406,8.406,0,0,1,.96-.256,16.131,16.131,0,0,0,5.968-2.384,14.033,14.033,0,0,0,4.88-6.112,3.2,3.2,0,0,1-.976-.944,12.09,12.09,0,0,1-6.528,7.12,13.926,13.926,0,0,1-4.656,1.232Zm26.432-3.9-4.368,1.04a8.692,8.692,0,0,1-1.536.256l.208,1.136a11.066,11.066,0,0,1,1.488-.432l4.208-1.024V13.44a9.389,9.389,0,0,1-.1,1.76h1.216a12.422,12.422,0,0,1-.1-1.744V10.784l.368-.1a11.25,11.25,0,0,1,1.536-.272l-.192-1.12a10.006,10.006,0,0,1-1.472.448l-.24.048V2.432a11.486,11.486,0,0,1,.1-1.664H309.1a10.154,10.154,0,0,1,.1,1.68ZM300.32,7.12a12.914,12.914,0,0,1-.9,2.144,10.149,10.149,0,0,1-1.9,2.688,3.361,3.361,0,0,1,.608.9,12.153,12.153,0,0,0,2.464-4.576c-.048.848-.08,1.744-.08,2.48v2.72a14.123,14.123,0,0,1-.1,1.776h1.168a13.165,13.165,0,0,1-.1-1.76V10.5c0-.3-.048-1.728-.08-2.368a9.467,9.467,0,0,0,1.872,2.816,5.588,5.588,0,0,1,.56-.864,9.564,9.564,0,0,1-2.288-2.96h.88a8.456,8.456,0,0,1,1.2.064V6.176a7.667,7.667,0,0,1-1.184.064h-.96V2.448a10.659,10.659,0,0,1,.1-1.7h-1.168a11.321,11.321,0,0,1,.1,1.712V6.24h-1.264a7.244,7.244,0,0,1-1.392-.08V7.2a7.886,7.886,0,0,1,1.392-.08Zm-2.384-4.992a14.157,14.157,0,0,1,1.056,3.424l.848-.368a18.775,18.775,0,0,0-1.072-3.424Zm5.168-.416a11.941,11.941,0,0,1-1.168,3.472l.784.368a18.066,18.066,0,0,0,1.3-3.488Zm1.616.96a13.543,13.543,0,0,1,2.912,2.592l.656-.832a16.4,16.4,0,0,0-2.88-2.5Zm-.5,4a11.772,11.772,0,0,1,2.9,2.5l.672-.8a14.176,14.176,0,0,0-2.864-2.432Zm16.24-.4V8.448H316.32a10.5,10.5,0,0,1-1.568-.1v1.12a10.88,10.88,0,0,1,1.552-.1h4.16V13.6H316.1a14.768,14.768,0,0,1-1.824-.1v1.152a13.956,13.956,0,0,1,1.824-.112h10.08a11.77,11.77,0,0,1,1.76.112V13.5a13.409,13.409,0,0,1-1.744.1H321.5V9.376h4.464a10.807,10.807,0,0,1,1.568.1V8.352a10.211,10.211,0,0,1-1.568.1H321.5V6.272h1.952a9.173,9.173,0,0,1,1.472.08V5.36a17.138,17.138,0,0,0,3.12,1.632,4.958,4.958,0,0,1,.64-1.024,14.335,14.335,0,0,1-4.176-2.144,10.846,10.846,0,0,1-2.864-2.9h-1.232A13.1,13.1,0,0,1,313.664,6a3.447,3.447,0,0,1,.672.944,15.284,15.284,0,0,0,2.912-1.552v.96a9.643,9.643,0,0,1,1.488-.08Zm-1.744-.88a9.667,9.667,0,0,1-1.36-.064,13.338,13.338,0,0,0,3.68-3.5,14.508,14.508,0,0,0,3.824,3.5,10.308,10.308,0,0,1-1.408.064Zm-2.352,4.9a12.1,12.1,0,0,1,1.392,2.848l.928-.368a16.262,16.262,0,0,0-1.408-2.9Zm8.4-.384a10.806,10.806,0,0,1-1.6,3.024l.9.368a19.172,19.172,0,0,0,1.712-2.976Zm16.48-8.464A12.264,12.264,0,0,1,342.9,3.984l.8-.48a12.147,12.147,0,0,0-1.648-2.48Zm-10.3,4.928a20.828,20.828,0,0,1,3.216-.576,23.611,23.611,0,0,1-3.424,7.968l1.088.64a31.075,31.075,0,0,0,3.456-8.7,9.187,9.187,0,0,1,1.152-.08c1.488,0,1.968.544,1.968,2.24a12.385,12.385,0,0,1-.672,4.448q-.312.768-.912.768a5.981,5.981,0,0,1-2.384-.736,2.952,2.952,0,0,1,.048.624,3.574,3.574,0,0,1-.032.576,6.02,6.02,0,0,0,2.416.624,1.671,1.671,0,0,0,1.568-.752c.656-.928,1.072-3.056,1.072-5.5a3.23,3.23,0,0,0-.784-2.576,3.058,3.058,0,0,0-2.3-.672,9.324,9.324,0,0,0-.944.048c.128-.688.272-1.424.336-1.824a9.835,9.835,0,0,1,.3-1.536l-1.28-.144v.208a19.765,19.765,0,0,1-.48,3.392,32.823,32.823,0,0,1-3.536.416ZM343.072.592A11.588,11.588,0,0,1,344.7,3.1l.8-.464A12.85,12.85,0,0,0,343.856.16ZM340.384,4.24a13.512,13.512,0,0,1,3.264,5.744l1.024-.576a14.651,14.651,0,0,0-3.344-5.664ZM349.12,9.5a10.3,10.3,0,0,1-1.584-.1V10.5a11.046,11.046,0,0,1,1.584-.1h2.368a4.161,4.161,0,0,1-1.856,2.72,7.573,7.573,0,0,1-2.448,1.136,3.624,3.624,0,0,1,.752.912,8.606,8.606,0,0,0,1.6-.736,7.31,7.31,0,0,0,1.824-1.52A5.448,5.448,0,0,0,352.5,10.4h2.672v3.3c0,.976.448,1.2,2.432,1.2,1.728,0,2.432-.128,2.768-.512a4.1,4.1,0,0,0,.7-2.112,2.728,2.728,0,0,1-1.024-.464,3.936,3.936,0,0,1-.416,1.808c-.224.256-.672.336-1.92.336a5.357,5.357,0,0,1-1.232-.1c-.256-.08-.32-.176-.32-.432V10.4h2.848a11.13,11.13,0,0,1,1.6.1V9.408a10.385,10.385,0,0,1-1.6.1H356.16V7.2h.272a11.235,11.235,0,0,1,1.36.064V6.5A15.725,15.725,0,0,0,360.848,8.3a3.9,3.9,0,0,1,.624-.928,12.115,12.115,0,0,1-3.008-1.584,14.79,14.79,0,0,0,1.328-1.3l.768-.848-.88-.576a10.6,10.6,0,0,1-1.9,2.208c-.528-.448-.912-.8-1.36-1.248A15.522,15.522,0,0,0,358.064,2.3a2.555,2.555,0,0,1,.336-.368l-.88-.576a9.846,9.846,0,0,1-1.664,2.048,4.72,4.72,0,0,1-1.232-2.176A9.7,9.7,0,0,1,353.2,1.3h-3.04a6.741,6.741,0,0,1-1.152-.08V2.24a6.948,6.948,0,0,1,1.04-.08h3.024a10.465,10.465,0,0,1-2.016,2.5,21.9,21.9,0,0,0-2.368-2.064l-.752.624a14.119,14.119,0,0,1,2.416,2.1A11.877,11.877,0,0,1,346.7,7.488a3.1,3.1,0,0,1,.64.832,13.372,13.372,0,0,0,3.1-1.84v.784A10.407,10.407,0,0,1,351.76,7.2a16.638,16.638,0,0,1-.112,2.3Zm6.048-2.3V9.5h-2.512a17.775,17.775,0,0,0,.112-2.3Zm-3.28-.864a11.962,11.962,0,0,1-1.2-.048A14.491,14.491,0,0,0,354.08,2.3a12.17,12.17,0,0,0,3.44,3.984,10.386,10.386,0,0,1-1.136.048Zm18.352-1.3V8.48h-2.928a11.081,11.081,0,0,1-1.7-.1V9.5a11.825,11.825,0,0,1,1.7-.1h2.928V13.6h-4.752a12.354,12.354,0,0,1-1.872-.112v1.168a13.015,13.015,0,0,1,1.888-.112h10.288a12.929,12.929,0,0,1,1.872.112V13.488a12.3,12.3,0,0,1-1.888.112h-4.464V9.408h3.232a12.074,12.074,0,0,1,1.712.1V8.384a11.177,11.177,0,0,1-1.712.1h-3.232V5.04h3.952a15.625,15.625,0,0,1,1.808.1V4a15.138,15.138,0,0,1-1.824.1h-3.936V2.4a10.757,10.757,0,0,1,.112-1.7h-1.3a11.613,11.613,0,0,1,.112,1.7V4.1h-3.36c.336-.88.528-1.408.576-1.552a6.493,6.493,0,0,1,.32-.848l-1.2-.32a4.806,4.806,0,0,1-.352,1.5,13.106,13.106,0,0,1-2.864,4.912,3.134,3.134,0,0,1,.912.672,15.147,15.147,0,0,0,2.192-3.424Zm12.512-3.52a4.921,4.921,0,0,1,.064.848c0,.256,0,.56-.016,1.04-.128,5.04-.144,5.44-.144,6.512,0,1.68.224,2.528.88,3.28a3.794,3.794,0,0,0,3.008,1.12,5.6,5.6,0,0,0,4.512-2,9.733,9.733,0,0,0,1.776-3.632,4.526,4.526,0,0,1-1.152-.768,9.505,9.505,0,0,1-.784,2.512,4.6,4.6,0,0,1-4.288,2.784,3.02,3.02,0,0,1-2-.624,2.519,2.519,0,0,1-.752-1.92c-.016-.368-.032-.768-.032-.96,0-.72.048-2.9.112-4.816a24.667,24.667,0,0,1,.208-3.376Zm26.768,11.2a5.47,5.47,0,0,1-.544-.368,14,14,0,0,0-4.464-2.336c-.064-1.552-.064-1.552-.1-2.448,1.184-.08,2.448-.208,3.552-.384.56-.08.72-.1.928-.112l-.064-1.1a19.312,19.312,0,0,1-4.432.656c-.016-.848-.016-.848-.032-2.16a33.238,33.238,0,0,0,3.712-.384c.832-.112.832-.112,1.1-.128l-.08-1.088a22.555,22.555,0,0,1-4.736.656,17.862,17.862,0,0,1,.112-2.256h-1.232a12.531,12.531,0,0,1,.08,2.3c-.528,0-1.072.016-1.392.016a19.877,19.877,0,0,1-4.1-.32l-.016,1.088a1.308,1.308,0,0,1,.224-.016,1.942,1.942,0,0,1,.288.016c1.44.112,2.736.16,3.9.16.368,0,.624,0,1.088-.016l.032,2.192c-.448.016-1.008.016-1.424.016a19.636,19.636,0,0,1-3.664-.256L398.256,7.5h.128c.1,0,.224,0,.4.016.992.08,1.744.112,2.7.112.512,0,1.312-.016,1.888-.032.016.416.016.72.032.928.016.464.016.8.032.944a1.275,1.275,0,0,0,.016.176c0,.144,0,.144.016.192a7.116,7.116,0,0,0-1.44-.128,6.97,6.97,0,0,0-1.664.16c-1.408.32-2.24,1.152-2.24,2.208a2.092,2.092,0,0,0,.864,1.68,4.168,4.168,0,0,0,2.48.64,3.221,3.221,0,0,0,2.7-1.008,2.778,2.778,0,0,0,.4-1.744,4.6,4.6,0,0,0-.032-.576c.432.176.8.336,1.072.48a12.875,12.875,0,0,1,3.264,2.288Zm-6.032-1.3a2.1,2.1,0,0,1-.32,1.44,2.312,2.312,0,0,1-1.76.528c-1.392,0-2.192-.48-2.192-1.328s1.04-1.424,2.624-1.424a5.873,5.873,0,0,1,1.632.176Zm17.36-8.08c-1.088.032-2.336.064-3.872.128-2.576.1-2.576.1-3.04.1-.24,0-.352,0-.64-.016l.048,1.168c1.072-.176,4.3-.336,7.52-.4v.832c0,.192.016.352.016.416,0,.592,0,.656.016.88a2.456,2.456,0,0,0-1.856-.72,2.662,2.662,0,0,0-2.832,2.64,2.675,2.675,0,0,0,4.64,1.664,2.241,2.241,0,0,0,.432-.784,4.144,4.144,0,0,1-1.792,3.376,8.2,8.2,0,0,1-2.592,1.2,3.513,3.513,0,0,1,.7,1.008,10.177,10.177,0,0,0,2.528-1.3,5.15,5.15,0,0,0,2.144-4.176,4.584,4.584,0,0,0-.384-1.888V4.3c1.3-.032,1.472-.032,1.712-.032a28.437,28.437,0,0,1,3.056.08V3.216c-.528.064-1.76.1-4.784.112V3.152a13.247,13.247,0,0,1,.08-2h-1.2a5.394,5.394,0,0,1,.064.928ZM420.8,8.016A1.793,1.793,0,0,1,418.928,9.9,1.546,1.546,0,0,1,417.28,8.32a1.693,1.693,0,0,1,1.776-1.68,2.047,2.047,0,0,1,1.072.256A1.158,1.158,0,0,1,420.8,8.016Zm9.36,2.224a2.4,2.4,0,1,0,2.4,2.4A2.4,2.4,0,0,0,430.16,10.24Zm0,.912a1.488,1.488,0,1,1-1.488,1.488A1.5,1.5,0,0,1,430.16,11.152Z" transform="translate(40 104)"/>
  <g id="グループ_849" data-name="グループ 849" transform="translate(0)">
    <g id="グループ_583" data-name="グループ 583" transform="translate(2.32 204.412)">
      <g id="グループ_578" data-name="グループ 578" transform="translate(822.96)">
        <g id="グループ_577" data-name="グループ 577">
          <path id="パス_2909" data-name="パス 2909" d="M2974.539,1887.688v92.464H2836.594v-1.387h126.782c5.022,0,9.094-2.73,9.094-6.1v-84.98Z" transform="translate(-2820.824 -1871.18)" fill="#575656"/>
          <g id="グループ_575" data-name="グループ 575" transform="translate(151.646)">
            <rect id="長方形_133" data-name="長方形 133" width="2.069" height="11.816" fill="#575656"/>
          </g>
          <g id="グループ_576" data-name="グループ 576" transform="translate(0 107.585)">
            <rect id="長方形_134" data-name="長方形 134" width="10.223" height="1.387" fill="#575656"/>
          </g>
        </g>
      </g>
      <g id="グループ_582" data-name="グループ 582" transform="translate(0)">
        <g id="グループ_581" data-name="グループ 581">
          <path id="パス_2910" data-name="パス 2910" d="M611.051,1887.688v92.464H749v-1.387H622.215c-5.023,0-9.095-2.73-9.095-6.1v-84.98Z" transform="translate(-611.051 -1871.18)" fill="#575656"/>
          <g id="グループ_579" data-name="グループ 579" transform="translate(0)">
            <rect id="長方形_135" data-name="長方形 135" width="2.069" height="11.816" fill="#575656"/>
          </g>
          <g id="グループ_580" data-name="グループ 580" transform="translate(143.492 107.585)">
            <rect id="長方形_136" data-name="長方形 136" width="10.223" height="1.387" fill="#575656"/>
          </g>
        </g>
      </g>
    </g>
    <g id="グループ_592" data-name="グループ 592" transform="translate(2.32)">
      <g id="グループ_587" data-name="グループ 587" transform="translate(822.96)">
        <g id="グループ_586" data-name="グループ 586">
          <path id="パス_2911" data-name="パス 2911" d="M2974.539,622.494V530.03H2836.594v1.387h126.782c5.022,0,9.094,2.73,9.094,6.1v84.981Z" transform="translate(-2820.824 -530.03)" fill="#575656"/>
          <g id="グループ_584" data-name="グループ 584" transform="translate(151.646 97.156)">
            <rect id="長方形_137" data-name="長方形 137" width="2.069" height="11.816" fill="#575656"/>
          </g>
          <g id="グループ_585" data-name="グループ 585" transform="translate(0 0)">
            <rect id="長方形_138" data-name="長方形 138" width="10.223" height="1.387" fill="#575656"/>
          </g>
        </g>
      </g>
      <g id="グループ_591" data-name="グループ 591" transform="translate(0)">
        <g id="グループ_590" data-name="グループ 590">
          <path id="パス_2912" data-name="パス 2912" d="M611.051,622.494V530.03H749v1.387H622.215c-5.023,0-9.095,2.73-9.095,6.1v84.981Z" transform="translate(-611.051 -530.03)" fill="#575656"/>
          <g id="グループ_588" data-name="グループ 588" transform="translate(0 97.156)">
            <rect id="長方形_139" data-name="長方形 139" width="2.069" height="11.816" fill="#575656"/>
          </g>
          <g id="グループ_589" data-name="グループ 589" transform="translate(143.492 0)">
            <rect id="長方形_140" data-name="長方形 140" width="10.223" height="1.387" fill="#575656"/>
          </g>
        </g>
      </g>
    </g>
    <g id="グループ_609" data-name="グループ 609" transform="translate(976.906 56.664)">
      <rect id="長方形_141" data-name="長方形 141" width="2.089" height="139.14" transform="translate(0)" fill="#575656"/>
    </g>
    <g id="グループ_610" data-name="グループ 610" transform="translate(0.231 115.383)">
      <rect id="長方形_142" data-name="長方形 142" width="2.089" height="82.709" transform="translate(0 0)" fill="#575656"/>
    </g>
    <g id="グループ_612" data-name="グループ 612" transform="translate(149.104 311.997)">
      <rect id="長方形_144" data-name="長方形 144" width="680.869" height="1.387" transform="translate(0)" fill="#575656"/>
    </g>
    <rect id="長方形_7" data-name="長方形 7" width="978.675" height="315.95" fill="none"/>
    <rect id="長方形_143" data-name="長方形 143" width="794.685" height="1.387" transform="translate(134.265 0)" fill="#575656"/>
  </g>
  <path id="パス_3903" data-name="パス 3903" d="M2.328-11.544a13.734,13.734,0,0,1,1.392-.312c.216-.048,1.368-.24,3.432-.552A39.621,39.621,0,0,1,4.512-4.8a23.015,23.015,0,0,1-2.5,4.344L3.648.5C4.392-.84,4.9-1.8,5.208-2.376A45.279,45.279,0,0,0,8.832-12.552a13.78,13.78,0,0,1,1.728-.12c2.232,0,2.952.816,2.952,3.36A18.578,18.578,0,0,1,12.5-2.64q-.468,1.152-1.368,1.152a8.971,8.971,0,0,1-3.576-1.1,4.647,4.647,0,0,1,.072.96,5.22,5.22,0,0,1-.048.84,9.029,9.029,0,0,0,3.624.936A2.507,2.507,0,0,0,13.56-.984c.984-1.392,1.608-4.584,1.608-8.256,0-1.968-.336-3.072-1.176-3.864-.744-.72-1.752-1.008-3.456-1.008a13.987,13.987,0,0,0-1.416.072c.216-1.152.384-2.04.5-2.736a14.754,14.754,0,0,1,.456-2.3L8.16-19.3v.312A29.334,29.334,0,0,1,7.44-13.9c-1.944.312-4.44.6-5.3.624Zm14.16-3.168a19.646,19.646,0,0,1,4.9,8.616l1.536-.888a21.7,21.7,0,0,0-5.016-8.5Zm10.8,2.928a10.547,10.547,0,0,1,1.728-.576,38.122,38.122,0,0,1,9.792-1.7c3.264,0,5.256,1.632,5.256,4.32S42.216-4.9,38.928-3.7a21.475,21.475,0,0,1-6.672,1.1A4.233,4.233,0,0,1,33-.816,20.727,20.727,0,0,0,40.944-2.64c3.216-1.56,4.992-4.08,4.992-7.08,0-3.672-2.784-6-7.176-6a32.063,32.063,0,0,0-6.96.888c-4.272.96-4.272.96-4.992,1.008ZM57.072-17.4a26.73,26.73,0,0,0,3.672,1.512,37.017,37.017,0,0,0,4.68,1.368L66.1-16.2a28.935,28.935,0,0,1-8.136-2.664ZM55.08-14.808a8.072,8.072,0,0,1-.168,1.272c-.336,2.016-.768,4.8-1.008,6.624-.1.768-.12.984-.192,1.416l1.872.048a4.172,4.172,0,0,1,.96-.984,11.627,11.627,0,0,1,6.72-2.088c2.928,0,4.656,1.152,4.656,3.12,0,2.448-2.52,4.032-6.48,4.032a17.046,17.046,0,0,1-6.12-1.2,5.551,5.551,0,0,1,.168,1.488,3.783,3.783,0,0,1-.024.456c1.464.36,1.464.36,1.92.48a19.94,19.94,0,0,0,4.2.432A9.961,9.961,0,0,0,67.56-1.3a5.131,5.131,0,0,0,2.16-4.128c0-2.808-2.52-4.632-6.432-4.632a11.88,11.88,0,0,0-6.936,2.064,6.721,6.721,0,0,0-.744.72L55.56-7.3a2.892,2.892,0,0,0,.1-.552c.072-.552.12-.72.7-4.2a20.086,20.086,0,0,1,.552-2.64Zm33.336,4.32v.144l.1,8.832v.528a14.185,14.185,0,0,1-.1,1.9H90.36a21.793,21.793,0,0,1-.12-2.448l-.168-11.688h3.576a19.637,19.637,0,0,1,1.992.072V-14.9a12.129,12.129,0,0,1-2.4.144H90.072l-.048-2.4v-.576a9.218,9.218,0,0,1,.1-1.32H88.2a11.437,11.437,0,0,1,.12,1.944l.024,2.352-8.736.048A13.563,13.563,0,0,1,76.9-14.88v1.8a18.858,18.858,0,0,1,2.664-.1l7.872-.048a23.135,23.135,0,0,1-3.456,4.368A27.245,27.245,0,0,1,75.84-3.12a3.869,3.869,0,0,1,1.2,1.44A36.919,36.919,0,0,0,81-4.152a28.009,28.009,0,0,0,5.688-5.3,14.947,14.947,0,0,0,1.8-2.688c-.048,1.032-.072,1.392-.072,1.56Zm28.3-6.288H104.9a17.015,17.015,0,0,1-2.712-.144V-15a17.72,17.72,0,0,1,2.688-.144H117.1A19.449,19.449,0,0,1,112.9-6.6a19.272,19.272,0,0,1-8.784,5.448A4.749,4.749,0,0,1,105.288.5a22.271,22.271,0,0,0,8.736-5.688c2.184-2.28,3.72-5.28,4.9-9.552l.048-.144a2.829,2.829,0,0,0,.84.12,2.735,2.735,0,0,0,2.736-2.736,2.725,2.725,0,0,0-2.712-2.712,2.735,2.735,0,0,0-2.736,2.736,2.543,2.543,0,0,0,.1.7Zm3.12-2.424a1.711,1.711,0,0,1,1.7,1.7,1.716,1.716,0,0,1-1.7,1.728A1.721,1.721,0,0,1,118.1-17.5,1.716,1.716,0,0,1,119.832-19.2Zm9.12,2.208a25.238,25.238,0,0,1,5.9,3.168l.984-1.608a35.488,35.488,0,0,0-5.952-3.024Zm-1.9,5.736a26.647,26.647,0,0,1,6.12,3.288l.936-1.608a36.61,36.61,0,0,0-6.1-3.144Zm.816,11.5a5.633,5.633,0,0,1,.936-.264c.48-.1.912-.192,1.3-.264a27.414,27.414,0,0,0,6.072-2.064C140.4-4.44,143.328-7.7,145.416-12.7a7.237,7.237,0,0,1-1.488-1.272,17.871,17.871,0,0,1-2.88,5.376,15.807,15.807,0,0,1-7.2,5.352,20.755,20.755,0,0,1-6.456,1.488ZM164.784.1V1.3h1.656a7.571,7.571,0,0,1-.1-1.488V-11.04c0-.84,0-1.224.024-1.848-.432.024-.864.048-1.632.048h-8.928a11.944,11.944,0,0,1-2.088-.144v1.656a10.858,10.858,0,0,1,2.088-.1h8.976v4.176H156.36a11.943,11.943,0,0,1-2.088-.144V-5.76a10.566,10.566,0,0,1,2.064-.1h8.448v4.512h-9.216a12.329,12.329,0,0,1-2.088-.144V.192a10.717,10.717,0,0,1,2.088-.1Zm12-15.768a26.5,26.5,0,0,1,5.712,4.7l1.248-1.488a31.264,31.264,0,0,0-5.784-4.512Zm.168,15.6a12.609,12.609,0,0,1,1.44-.384,24.2,24.2,0,0,0,8.952-3.576,21.05,21.05,0,0,0,7.32-9.168,4.807,4.807,0,0,1-1.464-1.416,18.135,18.135,0,0,1-9.792,10.68,20.89,20.89,0,0,1-6.984,1.848ZM202.416-18.72a13.366,13.366,0,0,1-.336,1.92A39.7,39.7,0,0,0,201-7.3,34.4,34.4,0,0,0,201.624-.5c.072.456.1.576.144.96L203.5.312v-.36a20.921,20.921,0,0,1,1.944-6.6L204.288-7.2a22.3,22.3,0,0,0-1.56,4.68c-.1-1.272-.144-2.688-.144-4.56a35.479,35.479,0,0,1,.72-7.512,34.1,34.1,0,0,1,1.008-3.84Zm4.944,4.536a31.967,31.967,0,0,0,3.84.24,40.516,40.516,0,0,0,5.16-.312q1.584-.216,1.656-.216l-.12-1.7a25.753,25.753,0,0,1-6.432.648,16.3,16.3,0,0,1-4.08-.36Zm1.752,4.68c-1.488,1.7-2.088,3-2.088,4.464a3.392,3.392,0,0,0,.72,2.208c1.032,1.248,2.76,1.824,5.5,1.824a24.761,24.761,0,0,0,4.92-.48c.48-.072.528-.1.84-.12l-.24-1.848a15.8,15.8,0,0,1-5.52.84c-3.1,0-4.608-.864-4.608-2.64a5.576,5.576,0,0,1,1.8-3.528Zm15.936-2.28a10.547,10.547,0,0,1,1.728-.576,38.121,38.121,0,0,1,9.792-1.7c3.264,0,5.256,1.632,5.256,4.32S239.976-4.9,236.688-3.7a21.475,21.475,0,0,1-6.672,1.1,4.233,4.233,0,0,1,.744,1.776A20.727,20.727,0,0,0,238.7-2.64C241.92-4.2,243.7-6.72,243.7-9.72c0-3.672-2.784-6-7.176-6a32.063,32.063,0,0,0-6.96.888c-4.272.96-4.272.96-4.992,1.008Zm25.416-5.232a12.988,12.988,0,0,1,.072,1.416c.12,5.9.456,8.976,1.3,11.256C252.648-2.04,253.9-.7,255.24-.7c1.7,0,2.808-1.608,3.984-5.808a7.672,7.672,0,0,1-1.416-1.368,17.266,17.266,0,0,1-1.248,4.1c-.36.792-.768,1.2-1.2,1.2-.912,0-1.9-1.656-2.424-4.1a41.1,41.1,0,0,1-.624-7.464,17.4,17.4,0,0,1,.168-2.856Zm12.144,2.04A21.2,21.2,0,0,1,267.6-3.144l1.7-.7a22.98,22.98,0,0,0-1.8-6.408,20.832,20.832,0,0,0-3.432-5.472Zm10.824,1.032a70.493,70.493,0,0,1,8.28-.792,46.51,46.51,0,0,0,5.28-.528,15.709,15.709,0,0,0-2.28,1.272c-2.856,1.92-4.488,4.584-4.488,7.368a5.842,5.842,0,0,0,2.664,4.9A12.106,12.106,0,0,0,288.072.12c.384.072.48.1.744.144l.312-1.944h-.24a12.3,12.3,0,0,1-3.6-.768,4.706,4.706,0,0,1-3.36-4.44,7.336,7.336,0,0,1,2.952-5.544,12.187,12.187,0,0,1,4.608-2.424,11.131,11.131,0,0,1,2.688-.312l-.144-1.8a16.111,16.111,0,0,1-2.856.264c-3.1.144-10.776.576-13.632.792-.744.048-1.032.072-1.368.072h-.864Z" transform="translate(42 61)"/>
  <rect id="長方形_201" data-name="長方形 201" width="978.061" height="77.07" transform="translate(1.939 1)" fill="none"/>
  <g id="グループ_1574" data-name="グループ 1574" transform="translate(-190 -2538)">
    <g id="長方形_1504" data-name="長方形 1504" transform="translate(230 2698)" fill="#f8f4ff" stroke="#c7b9db" stroke-width="1">
      <rect width="90" height="30" rx="6" stroke="none"/>
      <rect x="0.5" y="0.5" width="89" height="29" rx="5.5" fill="none"/>
    </g>
    <g id="長方形_1505" data-name="長方形 1505" transform="translate(539 2698)" fill="#f8f4ff" stroke="#c7b9db" stroke-width="1">
      <rect width="53" height="30" rx="6" stroke="none"/>
      <rect x="0.5" y="0.5" width="52" height="29" rx="5.5" fill="none"/>
    </g>
    <path id="パス_3907" data-name="パス 3907" d="M8.262-13.518H2.952a12.619,12.619,0,0,1-1.818-.108v1.188a13.372,13.372,0,0,1,1.782-.09H15.03a13.372,13.372,0,0,1,1.782.09v-1.188a12.6,12.6,0,0,1-1.782.108H9.414v-.36a6.259,6.259,0,0,1,.108-1.206H8.154a6.59,6.59,0,0,1,.108,1.224ZM4.122-9.072a13.2,13.2,0,0,1-.054,1.4,14.9,14.9,0,0,1,1.62-.072H12.33a13.945,13.945,0,0,1,1.656.072,9.106,9.106,0,0,1-.054-1.4v-.972c0-.612.018-.864.054-1.386a12.264,12.264,0,0,1-1.53.072H5.778a14.366,14.366,0,0,1-1.71-.072c.036.378.054.792.054,1.368Zm1.1-1.35h7.614v1.764H5.22ZM1.728-.4A12.973,12.973,0,0,1,1.62,1.422H2.952A11.191,11.191,0,0,1,2.844-.414V-5.6h12.33V-.324c0,.36-.09.414-.738.414A13.808,13.808,0,0,1,12.4-.072a3.616,3.616,0,0,1,.234,1.116c1.152.054,1.26.054,1.674.054.954,0,1.26-.054,1.548-.252.306-.2.414-.5.414-1.116V-5.04a14.643,14.643,0,0,1,.072-1.584,13.9,13.9,0,0,1-1.746.072H3.438a16.576,16.576,0,0,1-1.782-.072A15.114,15.114,0,0,1,1.728-5ZM12.564-3.258a10.6,10.6,0,0,1,.054-1.224c-.468.036-.9.054-1.584.054H6.714c-.666,0-1.044-.018-1.458-.054A12.917,12.917,0,0,1,5.31-3.168v1.8A10.47,10.47,0,0,1,5.22.126H6.39v-.99h4.572c.63,0,1.188.018,1.656.054a11.023,11.023,0,0,1-.054-1.278Zm-6.192-.27H11.52v1.764H6.372Zm18.5,2.178H21.708v-.81a5.564,5.564,0,0,1,.054-1.008H20.52a5.041,5.041,0,0,1,.09,1.08l.018,1.134A8.942,8.942,0,0,1,20.52.468h1.188V-.36h7.47c.162,0,.5,0,.63.018.468.018.468.018.666.018a7.83,7.83,0,0,1-.036-.936v-.9a6.8,6.8,0,0,1,.072-1.08H29.3a5.767,5.767,0,0,1,.072,1.008v.882H25.992V-3.708h7.524a19.853,19.853,0,0,1-.54,3.2c-.144.468-.36.594-.954.594a11.427,11.427,0,0,1-1.764-.162,3.717,3.717,0,0,1,.27,1.134c.576.036.864.054,1.368.054,1.062,0,1.548-.18,1.89-.684a12.993,12.993,0,0,0,.846-4.14c.072-.558.108-.846.126-1.008a10.136,10.136,0,0,1-1.422.072H23.022v-1.3H33.516a16.466,16.466,0,0,1,1.728.09V-7a10.787,10.787,0,0,1-1.692.108H23.022V-8.1H30.96c.486,0,.864.018,1.4.054-.036-.378-.054-.756-.054-1.224v-2.988a6.57,6.57,0,0,1,.054-1.134,10.5,10.5,0,0,1-1.476.072h-4.41a17,17,0,0,0,.864-1.566l-1.188-.234a8.826,8.826,0,0,1-.864,1.8H23.274a10.093,10.093,0,0,1-1.44-.072c.036.432.072.864.072,1.4v6.7a13.481,13.481,0,0,1-.072,1.62c.5-.036.7-.036,1.494-.036h1.548Zm-1.854-9.828V-12.4h8.154v1.224Zm0,.882h8.154V-9H23.022ZM53.28,1.1A17.458,17.458,0,0,1,53.172-.99V-12.168a13.49,13.49,0,0,1,.09-1.8,18.331,18.331,0,0,1-2.052.09H40.986a18.465,18.465,0,0,1-2.07-.09c.054.576.09,1.134.09,1.8V-.99A17.889,17.889,0,0,1,38.9,1.1h1.26V0H52.02V1.1ZM40.158-12.834h5.166v5.166H40.158Zm6.3,0H52.02v5.166H46.458Zm-6.3,6.192h5.166v5.6H40.158Zm6.3,0H52.02v5.6H46.458Zm26.478,8.1A11.382,11.382,0,0,1,70.2-2.268a10.915,10.915,0,0,1-.972-4.572,10.915,10.915,0,0,1,.972-4.572,11.382,11.382,0,0,1,2.736-3.726h-1.6a12.116,12.116,0,0,0-2.5,3.87,11.288,11.288,0,0,0-.864,4.428,11.288,11.288,0,0,0,.864,4.428,12.116,12.116,0,0,0,2.5,3.87Zm2.97-10.116a10.3,10.3,0,0,1,1.044-.234c.162-.036,1.026-.18,2.574-.414A29.716,29.716,0,0,1,77.544-3.6,17.262,17.262,0,0,1,75.672-.342L76.9.378c.558-1.008.936-1.728,1.17-2.16a33.959,33.959,0,0,0,2.718-7.632,10.335,10.335,0,0,1,1.3-.09c1.674,0,2.214.612,2.214,2.52a13.934,13.934,0,0,1-.756,5q-.351.864-1.026.864a6.728,6.728,0,0,1-2.682-.828,3.485,3.485,0,0,1,.054.72,3.916,3.916,0,0,1-.036.63,6.772,6.772,0,0,0,2.718.7A1.88,1.88,0,0,0,84.33-.738c.738-1.044,1.206-3.438,1.206-6.192a3.633,3.633,0,0,0-.882-2.9,3.44,3.44,0,0,0-2.592-.756A10.49,10.49,0,0,0,81-10.53c.162-.864.288-1.53.378-2.052a11.065,11.065,0,0,1,.342-1.728l-1.44-.162v.234a22,22,0,0,1-.54,3.816c-1.458.234-3.33.45-3.978.468Zm10.62-2.376A14.734,14.734,0,0,1,90.2-4.572l1.152-.666a16.277,16.277,0,0,0-3.762-6.372Zm8.1,2.2a7.91,7.91,0,0,1,1.3-.432,28.591,28.591,0,0,1,7.344-1.278c2.448,0,3.942,1.224,3.942,3.24s-1.386,3.636-3.852,4.536a16.106,16.106,0,0,1-5,.828A3.175,3.175,0,0,1,98.91-.612a15.545,15.545,0,0,0,5.958-1.368c2.412-1.17,3.744-3.06,3.744-5.31,0-2.754-2.088-4.5-5.382-4.5a24.047,24.047,0,0,0-5.22.666,24.133,24.133,0,0,1-3.744.756Zm22.338-4.212a20.047,20.047,0,0,0,2.754,1.134,27.763,27.763,0,0,0,3.51,1.026l.5-1.26a21.7,21.7,0,0,1-6.1-2Zm-1.494,1.944a6.055,6.055,0,0,1-.126.954c-.252,1.512-.576,3.6-.756,4.968-.072.576-.09.738-.144,1.062l1.4.036a3.129,3.129,0,0,1,.72-.738,8.721,8.721,0,0,1,5.04-1.566c2.2,0,3.492.864,3.492,2.34,0,1.836-1.89,3.024-4.86,3.024a12.784,12.784,0,0,1-4.59-.9,4.163,4.163,0,0,1,.126,1.116,2.837,2.837,0,0,1-.018.342c1.1.27,1.1.27,1.44.36a14.955,14.955,0,0,0,3.15.324A7.471,7.471,0,0,0,124.83-.972a3.848,3.848,0,0,0,1.62-3.1c0-2.106-1.89-3.474-4.824-3.474a8.91,8.91,0,0,0-5.2,1.548,5.041,5.041,0,0,0-.558.54l-.036-.018a2.17,2.17,0,0,0,.072-.414c.054-.414.09-.54.522-3.15a15.065,15.065,0,0,1,.414-1.98Zm16.6,12.564a12.115,12.115,0,0,0,2.5-3.87,11.288,11.288,0,0,0,.864-4.428,11.288,11.288,0,0,0-.864-4.428,12.115,12.115,0,0,0-2.5-3.87h-1.6a11.2,11.2,0,0,1,2.736,3.726,10.915,10.915,0,0,1,.972,4.572,10.915,10.915,0,0,1-.972,4.572,11.2,11.2,0,0,1-2.736,3.726Z" transform="translate(230 2760)" fill="#3a3a3a"/>
    <path id="パス_3908" data-name="パス 3908" d="M1.688-12.349,4.9-6.416l3.226-5.933h1.96L7.752-8.437H9.29v1.2H7.066L5.933-5.326H9V-4.14H5.722V0H4.061V-4.14H.87V-5.326H3.85L2.725-7.242H.457v-1.2H2.039L-.272-12.349ZM11.113,0a7.34,7.34,0,0,1,.672-2.83,5.443,5.443,0,0,1,2.281-2.188l1.688-.976a7.945,7.945,0,0,0,1.591-1.125,2.311,2.311,0,0,0,.721-1.67,2.331,2.331,0,0,0-.659-1.745,2.4,2.4,0,0,0-1.758-.646,2.3,2.3,0,0,0-2.25,1.23,4.405,4.405,0,0,0-.369,1.828H11.421a5.649,5.649,0,0,1,.606-2.681,3.806,3.806,0,0,1,3.63-1.828,3.934,3.934,0,0,1,3.16,1.169,3.911,3.911,0,0,1,1,2.6,3.537,3.537,0,0,1-1.063,2.584,10.412,10.412,0,0,1-2.206,1.512l-1.2.668a7.8,7.8,0,0,0-1.354.905,3.3,3.3,0,0,0-1.107,1.7h6.873V0Zm19.4-12.375V-11A14.7,14.7,0,0,0,28.9-8.947,20.764,20.764,0,0,0,27.122-5.8a21.5,21.5,0,0,0-1.16,3q-.255.87-.659,2.8H23.554A21.539,21.539,0,0,1,26.19-7.172a22.7,22.7,0,0,1,2.531-3.612H21.761v-1.591ZM33.146,1.837A1.109,1.109,0,0,0,34,.984,2.413,2.413,0,0,0,34.131.22q0-.062,0-.11A.605.605,0,0,0,34.1,0h-.958V-1.916h1.881V-.141A3.846,3.846,0,0,1,34.605,1.7a1.922,1.922,0,0,1-1.459.976Zm6.27-5.045a2.193,2.193,0,0,0,1.257,1.872,3.033,3.033,0,0,0,1.3.264,2.442,2.442,0,0,0,2.083-.9,3.22,3.22,0,0,0,.677-1.986,2.6,2.6,0,0,0-.8-2.039A2.791,2.791,0,0,0,42-6.715a2.906,2.906,0,0,0-1.4.316,3,3,0,0,0-1,.879L38.23-5.6l.958-6.776h6.539v1.529H40.375l-.536,3.5a3.931,3.931,0,0,1,.835-.5,4.238,4.238,0,0,1,1.626-.29,4.16,4.16,0,0,1,2.936,1.116,3.692,3.692,0,0,1,1.2,2.83,4.856,4.856,0,0,1-1.1,3.146A4.266,4.266,0,0,1,41.816.316,4.483,4.483,0,0,1,39.1-.549a3.434,3.434,0,0,1-1.323-2.659Zm13.2-9.378a3.719,3.719,0,0,1,3.533,2.013,9,9,0,0,1,.844,4.263,10.265,10.265,0,0,1-.765,4.245A3.744,3.744,0,0,1,52.6.343a3.626,3.626,0,0,1-3.375-1.969,9.014,9.014,0,0,1-.923-4.412,10.9,10.9,0,0,1,.554-3.683A3.789,3.789,0,0,1,52.613-12.586ZM52.6-1.1a2.251,2.251,0,0,0,1.96-1.09,7.891,7.891,0,0,0,.729-4.061,10.032,10.032,0,0,0-.527-3.529,2.007,2.007,0,0,0-2.048-1.384,2.141,2.141,0,0,0-2.043,1.314,9.073,9.073,0,0,0-.646,3.872,9.507,9.507,0,0,0,.413,3.094A2.252,2.252,0,0,0,52.6-1.1ZM63.164-12.586A3.719,3.719,0,0,1,66.7-10.573a9,9,0,0,1,.844,4.263,10.265,10.265,0,0,1-.765,4.245A3.744,3.744,0,0,1,63.155.343,3.626,3.626,0,0,1,59.78-1.626a9.014,9.014,0,0,1-.923-4.412,10.9,10.9,0,0,1,.554-3.683A3.789,3.789,0,0,1,63.164-12.586ZM63.146-1.1a2.251,2.251,0,0,0,1.96-1.09,7.891,7.891,0,0,0,.729-4.061,10.032,10.032,0,0,0-.527-3.529,2.007,2.007,0,0,0-2.048-1.384,2.141,2.141,0,0,0-2.043,1.314,9.073,9.073,0,0,0-.646,3.872,9.507,9.507,0,0,0,.413,3.094A2.252,2.252,0,0,0,63.146-1.1Z" transform="translate(434 2760)" fill="#3a3a3a"/>
    <path id="パス_3911" data-name="パス 3911" d="M10.386-10.512a14.481,14.481,0,0,0,1.476-1.728,6.514,6.514,0,0,1,.7-.882l-.63-.612a10.43,10.43,0,0,1-1.674.09H7c.234-.324.27-.378.468-.666.162-.27.216-.324.378-.558l-1.314-.36a5.155,5.155,0,0,1-1.044,1.8A15.113,15.113,0,0,1,.954-9.468a2.912,2.912,0,0,1,.738.882A14.216,14.216,0,0,0,3.474-9.864c.036.45.036.72.036,1.332a24.284,24.284,0,0,1-.468,5.544A7.133,7.133,0,0,1,.954.486a3.827,3.827,0,0,1,1.08.72A9.03,9.03,0,0,0,4.32-3.312h9.972V-.576c0,.288-.09.45-.27.5a4.188,4.188,0,0,1-.576.054c-.576,0-1.566-.072-2.358-.162A3.444,3.444,0,0,1,11.394.954c.774.036,1.368.054,1.746.054,1.836,0,2.322-.288,2.322-1.4V-9.018a12.894,12.894,0,0,1,.072-1.566,10.055,10.055,0,0,1-1.458.072Zm-5.2,0c-.378,0-.54,0-.936-.018a16.049,16.049,0,0,0,1.98-2.124H10.8a14.069,14.069,0,0,1-1.728,2.142Zm-.72,6.174c.09-.828.126-1.3.162-2.178h4.14v2.178Zm9.828,0H9.864V-6.516h4.428Zm0-3.186H9.864v-2h4.428Zm-5.526-2v2h-4.1v-2Zm11.52.864a10.3,10.3,0,0,1,1.044-.234c.162-.036,1.026-.18,2.574-.414A29.715,29.715,0,0,1,21.924-3.6,17.261,17.261,0,0,1,20.052-.342l1.224.72c.558-1.008.936-1.728,1.17-2.16a33.959,33.959,0,0,0,2.718-7.632,10.335,10.335,0,0,1,1.3-.09c1.674,0,2.214.612,2.214,2.52a13.934,13.934,0,0,1-.756,5q-.351.864-1.026.864a6.728,6.728,0,0,1-2.682-.828,3.486,3.486,0,0,1,.054.72,3.915,3.915,0,0,1-.036.63,6.772,6.772,0,0,0,2.718.7A1.88,1.88,0,0,0,28.71-.738c.738-1.044,1.206-3.438,1.206-6.192a3.633,3.633,0,0,0-.882-2.9,3.44,3.44,0,0,0-2.592-.756,10.49,10.49,0,0,0-1.062.054c.162-.864.288-1.53.378-2.052A11.066,11.066,0,0,1,26.1-14.31l-1.44-.162v.234a22,22,0,0,1-.54,3.816c-1.458.234-3.33.45-3.978.468Zm10.62-2.376a14.734,14.734,0,0,1,3.672,6.462l1.152-.666a16.277,16.277,0,0,0-3.762-6.372Zm17.316-3.474a28.616,28.616,0,0,1-5.274,4.932,13.908,13.908,0,0,0-1.53,1.224A1.743,1.743,0,0,0,40.9-7.146c0,.612.288,1.008,1.3,1.8C44.82-3.294,45.54-2.7,46.746-1.584A16.992,16.992,0,0,1,49.068.882L50.2-.234a4.582,4.582,0,0,1-.5-.45A53.072,53.072,0,0,0,43.938-5.6c-1.458-1.134-1.6-1.26-1.6-1.584,0-.252.126-.4.792-.9a52.434,52.434,0,0,0,4.14-3.4c1.872-1.8,2.016-1.926,2.214-2.088ZM59.8-14.04a5.537,5.537,0,0,1,.072.954c0,.288,0,.63-.018,1.17-.144,5.67-.162,6.12-.162,7.326,0,1.89.252,2.844.99,3.69A4.269,4.269,0,0,0,64.062.36a6.3,6.3,0,0,0,5.076-2.25,10.95,10.95,0,0,0,2-4.086,5.092,5.092,0,0,1-1.3-.864,10.693,10.693,0,0,1-.882,2.826A5.169,5.169,0,0,1,64.134-.882a3.4,3.4,0,0,1-2.25-.7,2.833,2.833,0,0,1-.846-2.16C61.02-4.158,61-4.608,61-4.824c0-.81.054-3.258.126-5.418a27.752,27.752,0,0,1,.234-3.8Zm31.68,15.5A11.382,11.382,0,0,1,88.74-2.268a10.915,10.915,0,0,1-.972-4.572,10.915,10.915,0,0,1,.972-4.572,11.382,11.382,0,0,1,2.736-3.726h-1.6a12.116,12.116,0,0,0-2.5,3.87,11.288,11.288,0,0,0-.864,4.428,11.288,11.288,0,0,0,.864,4.428,12.116,12.116,0,0,0,2.5,3.87ZM94.842-10.4h.144c.108,0,.27,0,.5.018,1.044.072,1.836.108,2.988.126a27.138,27.138,0,0,1-2.412,5.868l1.3.522a3.851,3.851,0,0,1,1.512-1.152,9.8,9.8,0,0,1,4.176-.972c2.16,0,3.456.828,3.456,2.2,0,1.728-1.872,2.862-4.716,2.862a10.985,10.985,0,0,1-4.5-.9c.054.576.09.9.09.99v.108a1.989,1.989,0,0,1-.018.288,13.456,13.456,0,0,0,4.446.7c3.636,0,6.03-1.6,6.03-4.05,0-2.016-1.818-3.312-4.662-3.312A9.233,9.233,0,0,0,97.938-5.6l-.018-.036a24.325,24.325,0,0,0,1.8-4.626,60.155,60.155,0,0,0,6.678-.522c.378-.054.486-.054.792-.09l-.09-1.3a30.556,30.556,0,0,1-7.092.774c.18-.648.234-.864.486-1.908a9.125,9.125,0,0,1,.288-1.152l-1.44-.144a14.026,14.026,0,0,1-.576,3.222,16.456,16.456,0,0,1-3.888-.306Zm21.186-4.176a3.608,3.608,0,0,1-.054.576,45.5,45.5,0,0,0-.612,6.642v.414l.036,1.872.018.324v.2l1.3-.054c-.018-.27-.018-.36-.018-.432a9.394,9.394,0,0,1,.972-4.014c1.026-2.106,2.178-3.132,3.546-3.132,1.728,0,2.736,1.674,2.736,4.572,0,2.88-.99,4.77-3.1,5.976A9.511,9.511,0,0,1,117.2-.5a3.715,3.715,0,0,1,.72,1.224,13.625,13.625,0,0,0,3.2-1.062,7.426,7.426,0,0,0,4.158-7.074,7.394,7.394,0,0,0-1.08-4.374,3.388,3.388,0,0,0-2.88-1.6,4.293,4.293,0,0,0-3.6,2.322,8.032,8.032,0,0,0-1.1,2.682c-.09.378-.09.378-.126.522l-.072-.018c.054-.918.306-2.88.594-4.7a10.2,10.2,0,0,1,.414-1.854ZM133.776-13.3a4.2,4.2,0,0,1,.234.954c.162.9.378,1.962.5,2.538a6.924,6.924,0,0,0-1.8,1.836,6.463,6.463,0,0,0-1.044,3.438c0,2.124,1.026,3.528,2.592,3.528,1.044,0,2.052-.648,3.2-2.052a20.365,20.365,0,0,0,3.492-7.056c2.484.522,3.8,1.962,3.8,4.158a4.428,4.428,0,0,1-.792,2.556,5.857,5.857,0,0,1-2.7,1.962,8.157,8.157,0,0,1-2.682.666,2.975,2.975,0,0,1,.7,1.206c.774-.18.864-.2,1.134-.27a9.549,9.549,0,0,0,3.636-1.782,5.658,5.658,0,0,0,1.962-4.32c0-2.718-1.782-4.68-4.77-5.238.09-.342.126-.54.216-.846a14.208,14.208,0,0,1,.486-1.89L140.6-14.2a20.213,20.213,0,0,1-.558,2.9c-.252-.018-.468-.018-.594-.018a8.576,8.576,0,0,0-3.852.9,23.335,23.335,0,0,1-.486-3.132Zm1.044,4.7a24.883,24.883,0,0,0,1.692,4.842c-.81.99-1.584,1.53-2.214,1.53-.882,0-1.458-.936-1.458-2.358a5.366,5.366,0,0,1,.72-2.52A5.31,5.31,0,0,1,134.82-8.6Zm2.5,3.852a2.9,2.9,0,0,0-.144-.414,25.519,25.519,0,0,1-1.35-4.176,6.727,6.727,0,0,1,3.474-.918c.09,0,.252.018.45.018a20.554,20.554,0,0,1-2.2,5.094,2.945,2.945,0,0,0-.216.4Zm17.82-9.666c-.108.54-.5,1.674-2.466,6.876C150.084-.63,150.084-.63,149.85-.126l1.386.432a18.423,18.423,0,0,1,1.656-4.14C153.9-5.544,155.07-6.5,156.114-6.5a.963.963,0,0,1,1.026.666,3.884,3.884,0,0,1,.144,1.368v1.026a7.42,7.42,0,0,0,.162,1.944,2.532,2.532,0,0,0,2.628,1.62,4.191,4.191,0,0,0,3.582-1.962A9.723,9.723,0,0,0,164.934-5a5.138,5.138,0,0,1-1.188-.918,7.883,7.883,0,0,1-.684,2.556c-.666,1.512-1.6,2.25-2.88,2.25a1.677,1.677,0,0,1-1.368-.558,3.06,3.06,0,0,1-.288-1.71V-4.608a4.54,4.54,0,0,0-.306-2.034,2,2,0,0,0-1.8-1.062c-1.278,0-2.2.648-3.384,2.358l-.09-.036a2.708,2.708,0,0,1,.162-.324l.2-.4a30.509,30.509,0,0,0,1.3-2.97c1.764-4.518,1.764-4.518,2-4.95Zm15.48,5.526h-.936A11.229,11.229,0,0,1,167.94-9v1.242a12.24,12.24,0,0,1,1.746-.108h.936v3.258h-.486a11.229,11.229,0,0,1-1.746-.108v1.224a11.62,11.62,0,0,1,1.692-.108h11.736a11.628,11.628,0,0,1,1.728.108V-4.716a10.914,10.914,0,0,1-1.746.108h-.612V-7.866h.972a11.985,11.985,0,0,1,1.764.108V-9a11.326,11.326,0,0,1-1.764.108h-.972v-3.222c.774,0,1.332.036,2,.09V-13.23a16.167,16.167,0,0,1-2.268.108h-9.2c.378-.576.54-.828.954-1.566.126-.2.162-.27.27-.432l-1.26-.306a4.57,4.57,0,0,1-.36.954,11.22,11.22,0,0,1-3.492,4.014,2.7,2.7,0,0,1,.864.756,13.363,13.363,0,0,0,1.926-2Zm1.044-3.222h2.142v3.222h-2.142Zm0,4.248h2.142v3.258h-2.142ZM174.8-4.608V-7.866h2.124v3.258Zm0-4.284v-3.222h2.124v3.222Zm3.114,4.284V-7.866h2.232v3.258Zm0-4.284v-3.222h2.232v3.222Zm5.742,9.27a16.958,16.958,0,0,0-2.286-3.384l-.918.486a13.892,13.892,0,0,1,2.2,3.546Zm-5,.36a16.643,16.643,0,0,0-1.08-3.6l-.972.288a14.807,14.807,0,0,1,.936,3.618Zm-4.1.18a19.184,19.184,0,0,0-.54-3.708L173-2.628a19.2,19.2,0,0,1,.414,3.726Zm-5.526.216a11.141,11.141,0,0,0,2.3-3.636l-.972-.54A7.72,7.72,0,0,1,168.084.342Zm25.056-8.982,2.574-.864V-4.14a11.72,11.72,0,0,1-.108,1.746h1.332a11.8,11.8,0,0,1-.108-1.728V-9.09l2.988-1.026a36.278,36.278,0,0,1-.288,4.554c-.09.522-.18.612-.594.612a6.437,6.437,0,0,1-1.386-.162,4.191,4.191,0,0,1,.27,1.134c.414.036.63.054.792.054a2.461,2.461,0,0,0,1.3-.252c.468-.27.7-1.026.828-2.628.144-1.764.216-3.024.288-4.824a13.006,13.006,0,0,1-1.422.558l-2.772.918V-13.1a11.977,11.977,0,0,1,.108-1.692h-1.332a11.358,11.358,0,0,1,.108,1.674v3.33l-2.574.864v-2.52a12.785,12.785,0,0,1,.108-1.782h-1.35a13.072,13.072,0,0,1,.108,1.836v2.826l-.648.216a6.937,6.937,0,0,1-1.566.36l.324,1.224a9.922,9.922,0,0,1,1.494-.576l.4-.126V-.864c0,1.4.738,1.674,4.464,1.674,4.68,0,5-.216,5.22-3.546a3.3,3.3,0,0,1-1.152-.468,5.247,5.247,0,0,1-.378,2.43c-.288.414-1.044.522-3.582.522a13.085,13.085,0,0,1-2.9-.162c-.432-.108-.54-.252-.54-.684Zm-5.508-2.214H187.9a6.642,6.642,0,0,1-1.512-.108v1.224a6.832,6.832,0,0,1,1.512-.108h.666V-2.9a10.139,10.139,0,0,1-2.412.81l.306,1.242c.2-.09.468-.216.72-.306a34.746,34.746,0,0,0,4.644-2.2l-.108-1.1c-.936.522-1.26.684-2.034,1.044V-9.054h.486a11.227,11.227,0,0,1,1.458.072v-1.17a6.8,6.8,0,0,1-1.44.09h-.5v-2.682a15.03,15.03,0,0,1,.108-2.016H188.46a14.733,14.733,0,0,1,.108,2Zm17.658,11.52a12.115,12.115,0,0,0,2.5-3.87,11.288,11.288,0,0,0,.864-4.428,11.288,11.288,0,0,0-.864-4.428,12.115,12.115,0,0,0-2.5-3.87h-1.6a11.2,11.2,0,0,1,2.736,3.726,10.915,10.915,0,0,1,.972,4.572,10.915,10.915,0,0,1-.972,4.572,11.2,11.2,0,0,1-2.736,3.726Z" transform="translate(539 2760)" fill="#3a3a3a"/>
    <path id="パス_3912" data-name="パス 3912" d="M12.769-12.349l3.208,5.933L19.2-12.349h1.96L18.834-8.437h1.538v1.2H18.148L17.015-5.326h3.067V-4.14H16.8V0H15.142V-4.14h-3.19V-5.326h2.979L13.807-7.242H11.539v-1.2h1.582l-2.312-3.911ZM27.583-4.456v-5.7l-4.034,5.7ZM27.609,0V-3.076H22.09V-4.623l5.766-8h1.336v8.165h1.854v1.38H29.191V0Zm6.068,1.837A1.109,1.109,0,0,0,34.53.984,2.413,2.413,0,0,0,34.662.22q0-.062,0-.11A.605.605,0,0,0,34.636,0h-.958V-1.916h1.881V-.141A3.846,3.846,0,0,1,35.137,1.7a1.922,1.922,0,0,1-1.459.976Zm6.437-4.878A2,2,0,0,0,41.126-1.23a2.238,2.238,0,0,0,1.09.264,2.449,2.449,0,0,0,1.934-.945,7.774,7.774,0,0,0,1.134-3.836,2.932,2.932,0,0,1-1.305,1.173,4.151,4.151,0,0,1-1.674.338A3.748,3.748,0,0,1,39.425-5.37a4.1,4.1,0,0,1-1.059-2.918A4.672,4.672,0,0,1,39.412-11.3,3.723,3.723,0,0,1,42.5-12.6a3.794,3.794,0,0,1,3.8,2.479,8.737,8.737,0,0,1,.58,3.41,11.237,11.237,0,0,1-.694,4.1Q45.028.352,42.277.352a3.779,3.779,0,0,1-2.8-.967,3.306,3.306,0,0,1-.958-2.426Zm2.4-2.584a2.694,2.694,0,0,0,1.718-.62,2.625,2.625,0,0,0,.778-2.167,2.771,2.771,0,0,0-.7-2.07,2.444,2.444,0,0,0-1.78-.681,2.323,2.323,0,0,0-1.841.778,3.043,3.043,0,0,0-.681,2.079,2.981,2.981,0,0,0,.6,1.956A2.333,2.333,0,0,0,42.514-5.625ZM50.5-3.208a2.193,2.193,0,0,0,1.257,1.872,3.033,3.033,0,0,0,1.3.264,2.442,2.442,0,0,0,2.083-.9,3.22,3.22,0,0,0,.677-1.986,2.6,2.6,0,0,0-.8-2.039,2.791,2.791,0,0,0-1.929-.721,2.906,2.906,0,0,0-1.4.316,3,3,0,0,0-1,.879L49.312-5.6l.958-6.776h6.539v1.529H51.457l-.536,3.5a3.931,3.931,0,0,1,.835-.5,4.238,4.238,0,0,1,1.626-.29,4.16,4.16,0,0,1,2.936,1.116,3.692,3.692,0,0,1,1.2,2.83,4.856,4.856,0,0,1-1.1,3.146A4.266,4.266,0,0,1,52.9.316a4.483,4.483,0,0,1-2.72-.866,3.434,3.434,0,0,1-1.323-2.659Zm13.2-9.378a3.719,3.719,0,0,1,3.533,2.013,9,9,0,0,1,.844,4.263,10.265,10.265,0,0,1-.765,4.245A3.744,3.744,0,0,1,63.686.343a3.626,3.626,0,0,1-3.375-1.969,9.014,9.014,0,0,1-.923-4.412,10.9,10.9,0,0,1,.554-3.683A3.789,3.789,0,0,1,63.7-12.586ZM63.677-1.1a2.251,2.251,0,0,0,1.96-1.09,7.891,7.891,0,0,0,.729-4.061,10.032,10.032,0,0,0-.527-3.529,2.007,2.007,0,0,0-2.048-1.384,2.141,2.141,0,0,0-2.043,1.314A9.073,9.073,0,0,0,61.1-5.977a9.507,9.507,0,0,0,.413,3.094A2.252,2.252,0,0,0,63.677-1.1Z" transform="translate(816 2760)" fill="#3a3a3a"/>
    <path id="パス_3909" data-name="パス 3909" d="M1.926-4.482c.162-.2.2-.234.522-.594A47.387,47.387,0,0,0,5.6-8.91c.864-1.152,1.026-1.3,1.422-1.3.306,0,.594.216,1.08.774a55.171,55.171,0,0,0,7.866,7.758A3.226,3.226,0,0,1,16.4-1.3l.612-1.548c-.954-.27-4.95-3.888-7.146-6.48-.828-.954-1.134-1.3-1.314-1.458A2.221,2.221,0,0,0,7-11.592a2.217,2.217,0,0,0-1.44.684,7.717,7.717,0,0,0-.9,1.08A22.122,22.122,0,0,1,1.044-5.814Zm9.882-7.668a13.331,13.331,0,0,1,1.854,2.862l.9-.54a13.665,13.665,0,0,0-1.854-2.79Zm2.052-.972A13.135,13.135,0,0,1,15.7-10.278l.9-.522a15.162,15.162,0,0,0-1.854-2.808Zm7.956,7.128a7.943,7.943,0,0,1,1.926-.594,20.922,20.922,0,0,1,4.734-.72c2.178,0,3.33.882,3.33,2.52,0,1.6-1.242,2.97-3.294,3.636a12.273,12.273,0,0,1-3.546.558,1.369,1.369,0,0,1-.252-.018A3.942,3.942,0,0,1,25.182.63,17.049,17.049,0,0,0,28.89-.054c2.5-.792,4.122-2.628,4.122-4.644a3.937,3.937,0,0,0-.558-2.052c-.684-1.116-1.962-1.674-3.816-1.674a23.239,23.239,0,0,0-5.49.792,8.45,8.45,0,0,1-1.656.324ZM45.342-4.788V-.7a12.164,12.164,0,0,1-.126,2.034h1.44A10.068,10.068,0,0,1,46.53-.7V-4.788h5.13v1.1h1.26a11.19,11.19,0,0,1-.108-1.638V-12.51a11.32,11.32,0,0,1,.09-1.656,16.431,16.431,0,0,1-2.07.09H41.238a15.933,15.933,0,0,1-1.98-.09,11.708,11.708,0,0,1,.108,1.71v7.11a12,12,0,0,1-.108,1.656h1.26v-1.1Zm0-8.244v3.078H40.518v-3.078Zm1.188,0h5.13v3.078H46.53Zm-1.188,4.1v3.1H40.518v-3.1Zm1.188,0h5.13v3.1H46.53Zm10.836.27a10.3,10.3,0,0,1,1.044-.234c.162-.036,1.026-.18,2.574-.414A29.716,29.716,0,0,1,59-3.6,17.261,17.261,0,0,1,57.132-.342l1.224.72c.558-1.008.936-1.728,1.17-2.16a33.959,33.959,0,0,0,2.718-7.632,10.335,10.335,0,0,1,1.3-.09c1.674,0,2.214.612,2.214,2.52a13.934,13.934,0,0,1-.756,5q-.351.864-1.026.864a6.728,6.728,0,0,1-2.682-.828,3.486,3.486,0,0,1,.054.72,3.915,3.915,0,0,1-.036.63,6.772,6.772,0,0,0,2.718.7A1.88,1.88,0,0,0,65.79-.738C66.528-1.782,67-4.176,67-6.93a3.633,3.633,0,0,0-.882-2.9,3.44,3.44,0,0,0-2.592-.756,10.49,10.49,0,0,0-1.062.054c.162-.864.288-1.53.378-2.052a11.066,11.066,0,0,1,.342-1.728l-1.44-.162v.234a22,22,0,0,1-.54,3.816c-1.458.234-3.33.45-3.978.468Zm10.62-2.376a14.734,14.734,0,0,1,3.672,6.462l1.152-.666a16.277,16.277,0,0,0-3.762-6.372Zm13-3.384c-.108.54-.5,1.674-2.466,6.876C75.924-.63,75.924-.63,75.69-.126l1.386.432a18.424,18.424,0,0,1,1.656-4.14C79.74-5.544,80.91-6.5,81.954-6.5a.963.963,0,0,1,1.026.666,3.883,3.883,0,0,1,.144,1.368v1.026a7.42,7.42,0,0,0,.162,1.944A2.532,2.532,0,0,0,85.914.126,4.191,4.191,0,0,0,89.5-1.836,9.723,9.723,0,0,0,90.774-5a5.137,5.137,0,0,1-1.188-.918A7.883,7.883,0,0,1,88.9-3.366c-.666,1.512-1.6,2.25-2.88,2.25a1.677,1.677,0,0,1-1.368-.558,3.06,3.06,0,0,1-.288-1.71V-4.608a4.54,4.54,0,0,0-.306-2.034A2,2,0,0,0,82.26-7.7c-1.278,0-2.2.648-3.384,2.358l-.09-.036a2.708,2.708,0,0,1,.162-.324l.2-.4a30.511,30.511,0,0,0,1.3-2.97c1.764-4.518,1.764-4.518,2-4.95ZM95.256-9.4a6.224,6.224,0,0,1,.7-.054,51.1,51.1,0,0,0,6.408-.468l.09.18c.018.036.108.2.216.414a21.9,21.9,0,0,0,2.16,3.528,8.988,8.988,0,0,0-3.726-.648,7.651,7.651,0,0,0-3.492.666A3.364,3.364,0,0,0,95.58-2.844a2.9,2.9,0,0,0,.81,1.98c.828.864,2.484,1.35,4.68,1.35a15.3,15.3,0,0,0,5.292-.954l-.2-1.386A11.863,11.863,0,0,1,101.052-.72a6.1,6.1,0,0,1-3.51-.828,1.8,1.8,0,0,1-.684-1.4,2.044,2.044,0,0,1,.972-1.674,6.381,6.381,0,0,1,3.42-.756,9.754,9.754,0,0,1,3.15.468,3.4,3.4,0,0,1,1.242.756l1.206-.7a32.487,32.487,0,0,1-3.24-5.238h.126c.054-.018.18-.036.4-.09.324-.072.828-.162,1.548-.306a4.2,4.2,0,0,1,.45-.108,3.951,3.951,0,0,0,.4-.108,1.736,1.736,0,0,0,.216-.036l-.18-1.26a19.409,19.409,0,0,1-3.384.846,14.2,14.2,0,0,1-.648-1.6,5.863,5.863,0,0,1-.522-1.62l-1.422.216a11.342,11.342,0,0,1,.468,1.044c.306.756.594,1.458.882,2.124a42.014,42.014,0,0,1-5.364.378,10.409,10.409,0,0,1-1.386-.072Zm10.584-4.842a13.2,13.2,0,0,1,1.926,2.79l.9-.558a13.84,13.84,0,0,0-1.944-2.736Zm2.016-1.026a14.007,14.007,0,0,1,1.926,2.772l.9-.54a14.979,14.979,0,0,0-1.962-2.754Zm7.56,1.224a5.537,5.537,0,0,1,.072.954c0,.288,0,.63-.018,1.17-.144,5.67-.162,6.12-.162,7.326,0,1.89.252,2.844.99,3.69A4.269,4.269,0,0,0,119.682.36a6.3,6.3,0,0,0,5.076-2.25,10.95,10.95,0,0,0,2-4.086,5.092,5.092,0,0,1-1.3-.864,10.693,10.693,0,0,1-.882,2.826,5.169,5.169,0,0,1-4.824,3.132,3.4,3.4,0,0,1-2.25-.7,2.833,2.833,0,0,1-.846-2.16c-.018-.414-.036-.864-.036-1.08,0-.81.054-3.258.126-5.418a27.753,27.753,0,0,1,.234-3.8Z" transform="translate(230 2786)" fill="#3a3a3a"/>
    <path id="パス_3913" data-name="パス 3913" d="M1.688-12.349,4.9-6.416l3.226-5.933h1.96L7.752-8.437H9.29v1.2H7.066L5.933-5.326H9V-4.14H5.722V0H4.061V-4.14H.87V-5.326H3.85L2.725-7.242H.457v-1.2H2.039L-.272-12.349ZM12.273-8.912v-1.213a6.445,6.445,0,0,0,2.391-.558,2.751,2.751,0,0,0,1.011-1.85h1.248V0H15.235V-8.912Zm9.224,0v-1.213a6.445,6.445,0,0,0,2.391-.558,2.751,2.751,0,0,0,1.011-1.85h1.248V0H24.459V-8.912ZM31.819,1.837a1.109,1.109,0,0,0,.853-.853A2.413,2.413,0,0,0,32.8.22q0-.062,0-.11A.605.605,0,0,0,32.777,0h-.958V-1.916H33.7V-.141A3.846,3.846,0,0,1,33.278,1.7a1.922,1.922,0,0,1-1.459.976Zm8.916-14.423a3.719,3.719,0,0,1,3.533,2.013,9,9,0,0,1,.844,4.263,10.265,10.265,0,0,1-.765,4.245A3.744,3.744,0,0,1,40.726.343a3.626,3.626,0,0,1-3.375-1.969,9.014,9.014,0,0,1-.923-4.412,10.9,10.9,0,0,1,.554-3.683A3.789,3.789,0,0,1,40.735-12.586ZM40.718-1.1a2.251,2.251,0,0,0,1.96-1.09,7.891,7.891,0,0,0,.729-4.061,10.032,10.032,0,0,0-.527-3.529,2.007,2.007,0,0,0-2.048-1.384,2.141,2.141,0,0,0-2.043,1.314,9.073,9.073,0,0,0-.646,3.872,9.507,9.507,0,0,0,.413,3.094A2.252,2.252,0,0,0,40.718-1.1ZM51.286-12.586a3.719,3.719,0,0,1,3.533,2.013,9,9,0,0,1,.844,4.263A10.265,10.265,0,0,1,54.9-2.065,3.744,3.744,0,0,1,51.277.343,3.626,3.626,0,0,1,47.9-1.626a9.014,9.014,0,0,1-.923-4.412,10.9,10.9,0,0,1,.554-3.683A3.789,3.789,0,0,1,51.286-12.586ZM51.268-1.1a2.251,2.251,0,0,0,1.96-1.09,7.891,7.891,0,0,0,.729-4.061,10.032,10.032,0,0,0-.527-3.529,2.007,2.007,0,0,0-2.048-1.384,2.141,2.141,0,0,0-2.043,1.314,9.073,9.073,0,0,0-.646,3.872,9.507,9.507,0,0,0,.413,3.094A2.252,2.252,0,0,0,51.268-1.1ZM61.837-12.586a3.719,3.719,0,0,1,3.533,2.013,9,9,0,0,1,.844,4.263,10.265,10.265,0,0,1-.765,4.245A3.744,3.744,0,0,1,61.828.343a3.626,3.626,0,0,1-3.375-1.969,9.014,9.014,0,0,1-.923-4.412,10.9,10.9,0,0,1,.554-3.683A3.789,3.789,0,0,1,61.837-12.586ZM61.819-1.1a2.251,2.251,0,0,0,1.96-1.09,7.891,7.891,0,0,0,.729-4.061,10.032,10.032,0,0,0-.527-3.529,2.007,2.007,0,0,0-2.048-1.384A2.141,2.141,0,0,0,59.89-9.848a9.073,9.073,0,0,0-.646,3.872,9.507,9.507,0,0,0,.413,3.094A2.252,2.252,0,0,0,61.819-1.1Z" transform="translate(434 2786)" fill="#3a3a3a"/>
    <path id="パス_3915" data-name="パス 3915" d="M1.1-6.048A15.273,15.273,0,0,1,2.772-6.21c.486-.018.7-.036,1.242-.09V-.432a13.246,13.246,0,0,1-.108,1.8h1.26a12.178,12.178,0,0,1-.108-1.8V-6.39C5.9-6.5,5.9-6.5,6.732-6.606c.072.216.144.4.234.756l.9-.468A20.874,20.874,0,0,0,6.444-9.45l-.81.4a11.542,11.542,0,0,1,.774,1.566c-.954.126-1.476.18-2.79.27A52.926,52.926,0,0,0,6.7-11.754c.234-.378.342-.54.468-.72l-1.026-.558A21.177,21.177,0,0,1,4.23-9.648c-.648-.828-.648-.828-1.1-1.332.558-.828,1.1-1.692,1.458-2.358a7.483,7.483,0,0,1,.72-1.278L4.194-15.1a12.365,12.365,0,0,1-1.71,3.384c-.216-.234-.378-.4-.918-.936L.9-11.826A25.733,25.733,0,0,1,3.672-8.8c-.558.792-.558.792-1.206,1.638-.612.036-.72.036-.9.036a4.685,4.685,0,0,1-.648-.054ZM11.592-7.416v1.638H9.54A11.429,11.429,0,0,1,7.956-5.85a13.085,13.085,0,0,1,.072,1.566v2.862A13.248,13.248,0,0,1,7.938.414H9.162A18.435,18.435,0,0,1,9.09-1.458V-4.824h2.5v4.59a10.681,10.681,0,0,1-.108,1.6h1.3a9.87,9.87,0,0,1-.108-1.6v-4.59h3.006v3.816c0,.234-.108.306-.486.306A13.15,13.15,0,0,1,13.68-.81,2.68,2.68,0,0,1,13.95.306c.666.054.792.054.99.054,1.458,0,1.8-.216,1.8-1.206V-4.194a13.563,13.563,0,0,1,.072-1.656,11.042,11.042,0,0,1-1.62.072h-2.52V-7.416H14.4a14.224,14.224,0,0,1,1.692.072,13.809,13.809,0,0,1-.072-1.638v-2.844a14.367,14.367,0,0,1,.072-1.71,13.073,13.073,0,0,1-1.71.072H12.348c.252-.558.432-.954.63-1.494l-1.242-.216a6.192,6.192,0,0,1-.522,1.71H10.152a13.251,13.251,0,0,1-1.71-.072,14.816,14.816,0,0,1,.072,1.692V-9a14.14,14.14,0,0,1-.072,1.656,14.561,14.561,0,0,1,1.71-.072ZM9.54-12.546h5.436v1.6H9.54Zm0,2.538h5.436v1.692H9.54ZM2-5.166a14.455,14.455,0,0,1-.936,4.7l.99.486a18.719,18.719,0,0,0,.954-4.95ZM5.742-5A19.441,19.441,0,0,1,6.39-1.1l.972-.27a26.182,26.182,0,0,0-.738-3.888Zm16.272-5.76V-.5a11.026,11.026,0,0,1-.108,1.872h1.278A9.273,9.273,0,0,1,23.076-.5v-10.26H24.39v6.606c0,.126-.162.2-.414.2a2.346,2.346,0,0,1-.594-.09,2.9,2.9,0,0,1,.18,1.1c.324.018.468.036.648.036.918,0,1.188-.252,1.188-1.116v-6.12a12.669,12.669,0,0,1,.054-1.692,10.136,10.136,0,0,1-1.422.072h-.954v-1.512a9.052,9.052,0,0,1,.09-1.8H21.924a9.786,9.786,0,0,1,.09,1.8v1.512h-.882a9.268,9.268,0,0,1-1.386-.072,15.1,15.1,0,0,1,.072,1.728v5.634a18.3,18.3,0,0,1-.09,1.98H20.9a15.384,15.384,0,0,1-.072-1.944v-6.318ZM33.39-8.892A16.617,16.617,0,0,1,35.3-8.82a12.765,12.765,0,0,1-.072-1.548v-2.484A12.391,12.391,0,0,1,35.3-14.4c-.576.054-1.134.072-1.962.072h-5.22c-.828,0-1.386-.018-1.98-.072a11.774,11.774,0,0,1,.072,1.458v2.556a13.28,13.28,0,0,1-.072,1.566,17.811,17.811,0,0,1,1.926-.072Zm-6.138-4.5h6.93v1.314h-6.93Zm0,2.2h6.93V-9.81h-6.93ZM26.712-.288A10.106,10.106,0,0,1,26.6,1.26h1.17V.378H33.66V1.26h1.188A9.941,9.941,0,0,1,34.74-.288V-6.372a8.851,8.851,0,0,1,.072-1.368,13.239,13.239,0,0,1-1.638.072H28.26a13.29,13.29,0,0,1-1.62-.072,9.308,9.308,0,0,1,.072,1.368Zm1.062-6.444H33.66v1.368H27.774Zm0,2.25H33.66V-3.06H27.774Zm0,2.322H33.66V-.576H27.774ZM45.648-7.686H40.32a18.926,18.926,0,0,1-2.25-.108v1.332a19.78,19.78,0,0,1,2.214-.108h5.364V-.72c0,.432-.162.522-.864.522a17.328,17.328,0,0,1-2.592-.234A4.459,4.459,0,0,1,42.5.828c1.152.09,1.71.126,2.286.126,1.638,0,2.07-.306,2.07-1.512V-6.57h5.058a17.82,17.82,0,0,1,2.178.108V-7.794a16.829,16.829,0,0,1-2.178.108H46.854V-9.144a21.588,21.588,0,0,0,5-3.618c.252-.234.27-.252.648-.576l-.738-.828a8.363,8.363,0,0,1-1.4.072H41.832A13.251,13.251,0,0,1,40-14.2v1.3a12.619,12.619,0,0,1,1.818-.108h8.712a17.953,17.953,0,0,1-4.1,2.952h-.828a11.742,11.742,0,0,1,.054,1.188ZM72.936,1.458A11.382,11.382,0,0,1,70.2-2.268a10.915,10.915,0,0,1-.972-4.572,10.915,10.915,0,0,1,.972-4.572,11.382,11.382,0,0,1,2.736-3.726h-1.6a12.116,12.116,0,0,0-2.5,3.87,11.288,11.288,0,0,0-.864,4.428,11.288,11.288,0,0,0,.864,4.428,12.116,12.116,0,0,0,2.5,3.87ZM76.3-10.4h.144c.108,0,.27,0,.5.018,1.044.072,1.836.108,2.988.126a27.138,27.138,0,0,1-2.412,5.868l1.3.522a3.851,3.851,0,0,1,1.512-1.152,9.8,9.8,0,0,1,4.176-.972c2.16,0,3.456.828,3.456,2.2,0,1.728-1.872,2.862-4.716,2.862a10.985,10.985,0,0,1-4.5-.9c.054.576.09.9.09.99v.108a1.989,1.989,0,0,1-.018.288,13.456,13.456,0,0,0,4.446.7c3.636,0,6.03-1.6,6.03-4.05,0-2.016-1.818-3.312-4.662-3.312A9.233,9.233,0,0,0,79.4-5.6l-.018-.036a24.325,24.325,0,0,0,1.8-4.626,60.155,60.155,0,0,0,6.678-.522c.378-.054.486-.054.792-.09l-.09-1.3a30.556,30.556,0,0,1-7.092.774c.18-.648.234-.864.486-1.908a9.125,9.125,0,0,1,.288-1.152L80.8-14.6a14.026,14.026,0,0,1-.576,3.222,16.456,16.456,0,0,1-3.888-.306ZM97.488-14.58a3.608,3.608,0,0,1-.054.576,45.5,45.5,0,0,0-.612,6.642v.414l.036,1.872.018.324v.2l1.3-.054c-.018-.27-.018-.36-.018-.432a9.394,9.394,0,0,1,.972-4.014c1.026-2.106,2.178-3.132,3.546-3.132,1.728,0,2.736,1.674,2.736,4.572,0,2.88-.99,4.77-3.1,5.976A9.511,9.511,0,0,1,98.658-.5,3.715,3.715,0,0,1,99.378.72a13.625,13.625,0,0,0,3.2-1.062,7.426,7.426,0,0,0,4.158-7.074,7.394,7.394,0,0,0-1.08-4.374,3.388,3.388,0,0,0-2.88-1.6,4.293,4.293,0,0,0-3.6,2.322,8.032,8.032,0,0,0-1.1,2.682c-.09.378-.09.378-.126.522l-.072-.018c.054-.918.306-2.88.594-4.7a10.2,10.2,0,0,1,.414-1.854ZM115.236-13.3a4.2,4.2,0,0,1,.234.954c.162.9.378,1.962.5,2.538a6.925,6.925,0,0,0-1.8,1.836,6.463,6.463,0,0,0-1.044,3.438c0,2.124,1.026,3.528,2.592,3.528,1.044,0,2.052-.648,3.2-2.052a20.365,20.365,0,0,0,3.492-7.056c2.484.522,3.8,1.962,3.8,4.158a4.428,4.428,0,0,1-.792,2.556,5.857,5.857,0,0,1-2.7,1.962,8.157,8.157,0,0,1-2.682.666,2.975,2.975,0,0,1,.7,1.206c.774-.18.864-.2,1.134-.27a9.549,9.549,0,0,0,3.636-1.782,5.658,5.658,0,0,0,1.962-4.32c0-2.718-1.782-4.68-4.77-5.238.09-.342.126-.54.216-.846a14.209,14.209,0,0,1,.486-1.89l-1.35-.288a20.214,20.214,0,0,1-.558,2.9c-.252-.018-.468-.018-.594-.018a8.576,8.576,0,0,0-3.852.9,23.336,23.336,0,0,1-.486-3.132Zm1.044,4.7a24.882,24.882,0,0,0,1.692,4.842c-.81.99-1.584,1.53-2.214,1.53-.882,0-1.458-.936-1.458-2.358a5.366,5.366,0,0,1,.72-2.52A5.31,5.31,0,0,1,116.28-8.6Zm2.5,3.852a2.9,2.9,0,0,0-.144-.414,25.518,25.518,0,0,1-1.35-4.176,6.727,6.727,0,0,1,3.474-.918c.09,0,.252.018.45.018a20.554,20.554,0,0,1-2.2,5.094,2.947,2.947,0,0,0-.216.4Zm17.82-9.666c-.108.54-.5,1.674-2.466,6.876C131.544-.63,131.544-.63,131.31-.126L132.7.306a18.423,18.423,0,0,1,1.656-4.14c1.008-1.71,2.178-2.664,3.222-2.664a.963.963,0,0,1,1.026.666,3.884,3.884,0,0,1,.144,1.368v1.026a7.42,7.42,0,0,0,.162,1.944,2.532,2.532,0,0,0,2.628,1.62,4.191,4.191,0,0,0,3.582-1.962A9.723,9.723,0,0,0,146.394-5a5.138,5.138,0,0,1-1.188-.918,7.883,7.883,0,0,1-.684,2.556c-.666,1.512-1.6,2.25-2.88,2.25a1.677,1.677,0,0,1-1.368-.558,3.06,3.06,0,0,1-.288-1.71V-4.608a4.54,4.54,0,0,0-.306-2.034,2,2,0,0,0-1.8-1.062c-1.278,0-2.2.648-3.384,2.358l-.09-.036a2.708,2.708,0,0,1,.162-.324l.2-.4a30.509,30.509,0,0,0,1.3-2.97c1.764-4.518,1.764-4.518,2-4.95Zm15.48,5.526h-.936A11.229,11.229,0,0,1,149.4-9v1.242a12.24,12.24,0,0,1,1.746-.108h.936v3.258H151.6a11.229,11.229,0,0,1-1.746-.108v1.224a11.62,11.62,0,0,1,1.692-.108h11.736a11.628,11.628,0,0,1,1.728.108V-4.716a10.914,10.914,0,0,1-1.746.108h-.612V-7.866h.972a11.985,11.985,0,0,1,1.764.108V-9a11.326,11.326,0,0,1-1.764.108h-.972v-3.222c.774,0,1.332.036,2,.09V-13.23a16.167,16.167,0,0,1-2.268.108h-9.2c.378-.576.54-.828.954-1.566.126-.2.162-.27.27-.432l-1.26-.306a4.57,4.57,0,0,1-.36.954,11.22,11.22,0,0,1-3.492,4.014,2.7,2.7,0,0,1,.864.756,13.363,13.363,0,0,0,1.926-2Zm1.044-3.222h2.142v3.222h-2.142Zm0,4.248h2.142v3.258h-2.142Zm3.132,3.258V-7.866h2.124v3.258Zm0-4.284v-3.222h2.124v3.222Zm3.114,4.284V-7.866H161.6v3.258Zm0-4.284v-3.222H161.6v3.222Zm5.742,9.27a16.958,16.958,0,0,0-2.286-3.384l-.918.486a13.892,13.892,0,0,1,2.2,3.546Zm-5,.36a16.643,16.643,0,0,0-1.08-3.6l-.972.288a14.807,14.807,0,0,1,.936,3.618Zm-4.1.18a19.184,19.184,0,0,0-.54-3.708l-1.008.162a19.2,19.2,0,0,1,.414,3.726Zm-5.526.216a11.141,11.141,0,0,0,2.3-3.636l-.972-.54A7.72,7.72,0,0,1,149.544.342Zm25.056-8.982,2.574-.864V-4.14A11.72,11.72,0,0,1,178-2.394h1.332a11.8,11.8,0,0,1-.108-1.728V-9.09l2.988-1.026a36.278,36.278,0,0,1-.288,4.554c-.09.522-.18.612-.594.612a6.437,6.437,0,0,1-1.386-.162,4.191,4.191,0,0,1,.27,1.134c.414.036.63.054.792.054a2.461,2.461,0,0,0,1.3-.252c.468-.27.7-1.026.828-2.628.144-1.764.216-3.024.288-4.824A13.006,13.006,0,0,1,182-11.07l-2.772.918V-13.1a11.975,11.975,0,0,1,.108-1.692H178a11.358,11.358,0,0,1,.108,1.674v3.33l-2.574.864v-2.52a12.785,12.785,0,0,1,.108-1.782h-1.35a13.072,13.072,0,0,1,.108,1.836v2.826l-.648.216a6.937,6.937,0,0,1-1.566.36l.324,1.224a9.924,9.924,0,0,1,1.494-.576l.4-.126V-.864c0,1.4.738,1.674,4.464,1.674,4.68,0,5-.216,5.22-3.546a3.3,3.3,0,0,1-1.152-.468,5.247,5.247,0,0,1-.378,2.43c-.288.414-1.044.522-3.582.522a13.085,13.085,0,0,1-2.9-.162c-.432-.108-.54-.252-.54-.684Zm-5.508-2.214h-.666a6.642,6.642,0,0,1-1.512-.108v1.224a6.832,6.832,0,0,1,1.512-.108h.666V-2.9a10.139,10.139,0,0,1-2.412.81l.306,1.242c.2-.09.468-.216.72-.306a34.746,34.746,0,0,0,4.644-2.2l-.108-1.1c-.936.522-1.26.684-2.034,1.044V-9.054h.486a11.227,11.227,0,0,1,1.458.072v-1.17a6.8,6.8,0,0,1-1.44.09h-.5v-2.682a15.028,15.028,0,0,1,.108-2.016H169.92a14.733,14.733,0,0,1,.108,2Zm17.658,11.52a12.115,12.115,0,0,0,2.5-3.87,11.288,11.288,0,0,0,.864-4.428,11.288,11.288,0,0,0-.864-4.428,12.115,12.115,0,0,0-2.5-3.87h-1.6a11.2,11.2,0,0,1,2.736,3.726,10.915,10.915,0,0,1,.972,4.572,10.915,10.915,0,0,1-.972,4.572,11.2,11.2,0,0,1-2.736,3.726Z" transform="translate(539 2786)" fill="#3a3a3a"/>
    <path id="パス_3914" data-name="パス 3914" d="M1.688-12.349,4.9-6.416l3.226-5.933h1.96L7.752-8.437H9.29v1.2H7.066L5.933-5.326H9V-4.14H5.722V0H4.061V-4.14H.87V-5.326H3.85L2.725-7.242H.457v-1.2H2.039L-.272-12.349ZM12.273-8.912v-1.213a6.445,6.445,0,0,0,2.391-.558,2.751,2.751,0,0,0,1.011-1.85h1.248V0H15.235V-8.912ZM27.052-4.456v-5.7l-4.034,5.7ZM27.078,0V-3.076h-5.52V-4.623l5.766-8H28.66v8.165h1.854v1.38H28.66V0Zm6.068,1.837A1.109,1.109,0,0,0,34,.984,2.413,2.413,0,0,0,34.131.22q0-.062,0-.11A.605.605,0,0,0,34.1,0h-.958V-1.916h1.881V-.141A3.846,3.846,0,0,1,34.605,1.7a1.922,1.922,0,0,1-1.459.976Zm8.942-9.149A2.219,2.219,0,0,0,43.723-7.9a1.9,1.9,0,0,0,.589-1.393,1.836,1.836,0,0,0-.562-1.292,2.268,2.268,0,0,0-1.714-.589,2.078,2.078,0,0,0-1.652.589,2.042,2.042,0,0,0-.51,1.38,1.646,1.646,0,0,0,.659,1.389A2.5,2.5,0,0,0,42.089-7.312Zm.1,6.231a2.785,2.785,0,0,0,1.824-.593,2.154,2.154,0,0,0,.725-1.771A2.294,2.294,0,0,0,43.987-5.3a2.862,2.862,0,0,0-1.916-.633,2.657,2.657,0,0,0-1.85.646A2.286,2.286,0,0,0,39.5-3.5a2.436,2.436,0,0,0,.655,1.7A2.616,2.616,0,0,0,42.185-1.081Zm-2.25-5.625a3.146,3.146,0,0,1-1.028-.659,2.49,2.49,0,0,1-.694-1.828,3.284,3.284,0,0,1,1.02-2.417,3.931,3.931,0,0,1,2.892-1.011,4.014,4.014,0,0,1,2.839.954,2.95,2.95,0,0,1,1.028,2.228,2.913,2.913,0,0,1-.6,1.907,3.58,3.58,0,0,1-1.037.809,4.025,4.025,0,0,1,1.23.826,3.182,3.182,0,0,1,.835,2.285A3.9,3.9,0,0,1,45.306-.8,4.182,4.182,0,0,1,42.15.36a4.875,4.875,0,0,1-3.107-1,3.462,3.462,0,0,1-1.27-2.9,3.383,3.383,0,0,1,.545-1.929A3.4,3.4,0,0,1,39.935-6.706Zm10.032,3.5a2.193,2.193,0,0,0,1.257,1.872,3.033,3.033,0,0,0,1.3.264,2.442,2.442,0,0,0,2.083-.9,3.22,3.22,0,0,0,.677-1.986,2.6,2.6,0,0,0-.8-2.039,2.791,2.791,0,0,0-1.929-.721,2.906,2.906,0,0,0-1.4.316,3,3,0,0,0-1,.879L48.781-5.6l.958-6.776h6.539v1.529H50.926l-.536,3.5a3.931,3.931,0,0,1,.835-.5,4.238,4.238,0,0,1,1.626-.29,4.16,4.16,0,0,1,2.936,1.116,3.692,3.692,0,0,1,1.2,2.83,4.856,4.856,0,0,1-1.1,3.146A4.266,4.266,0,0,1,52.367.316a4.483,4.483,0,0,1-2.72-.866,3.434,3.434,0,0,1-1.323-2.659Zm13.2-9.378A3.719,3.719,0,0,1,66.7-10.573a9,9,0,0,1,.844,4.263,10.265,10.265,0,0,1-.765,4.245A3.744,3.744,0,0,1,63.155.343,3.626,3.626,0,0,1,59.78-1.626a9.014,9.014,0,0,1-.923-4.412,10.9,10.9,0,0,1,.554-3.683A3.789,3.789,0,0,1,63.164-12.586ZM63.146-1.1a2.251,2.251,0,0,0,1.96-1.09,7.891,7.891,0,0,0,.729-4.061,10.032,10.032,0,0,0-.527-3.529,2.007,2.007,0,0,0-2.048-1.384,2.141,2.141,0,0,0-2.043,1.314,9.073,9.073,0,0,0-.646,3.872,9.507,9.507,0,0,0,.413,3.094A2.252,2.252,0,0,0,63.146-1.1Z" transform="translate(817 2786)" fill="#3a3a3a"/>
    <path id="パス_3916" data-name="パス 3916" d="M10.152-10.152a21.227,21.227,0,0,0,1.584-1.89c.522-.684.648-.828.756-.954l-.756-.648a7.034,7.034,0,0,1-1.584.09H6.858c.36-.522.378-.558.54-.81a2.95,2.95,0,0,1,.27-.4L6.39-15.12a5.871,5.871,0,0,1-.846,1.62A15.393,15.393,0,0,1,.774-9.018a2.847,2.847,0,0,1,.756.864A19.443,19.443,0,0,0,3.186-9.4V-.972c0,.99.306,1.332,1.4,1.512a44.535,44.535,0,0,0,5.328.2A21.592,21.592,0,0,0,15.192.4c.918-.27,1.188-.9,1.386-3.276a4.215,4.215,0,0,1-1.206-.468,10.855,10.855,0,0,1-.2,1.98c-.162.648-.378.792-1.314.9-.612.072-2.574.126-4.176.126-2.2,0-3.726-.036-4.446-.126-.7-.072-.9-.252-.9-.828V-4.95h9.738a10.222,10.222,0,0,1,1.458.09,9.318,9.318,0,0,1-.072-1.26V-8.982a8.815,8.815,0,0,1,.072-1.26,10.382,10.382,0,0,1-1.458.09Zm-6.138,0a16.444,16.444,0,0,0,2.178-2.43h4.644A15.176,15.176,0,0,1,8.8-10.152Zm5.67,1.008h4.644v3.168H9.684ZM8.568-5.976H4.338V-9.144h4.23ZM20.286-8.658a10.3,10.3,0,0,1,1.044-.234c.162-.036,1.026-.18,2.574-.414A29.715,29.715,0,0,1,21.924-3.6,17.261,17.261,0,0,1,20.052-.342l1.224.72c.558-1.008.936-1.728,1.17-2.16a33.959,33.959,0,0,0,2.718-7.632,10.335,10.335,0,0,1,1.3-.09c1.674,0,2.214.612,2.214,2.52a13.934,13.934,0,0,1-.756,5q-.351.864-1.026.864a6.728,6.728,0,0,1-2.682-.828,3.486,3.486,0,0,1,.054.72,3.915,3.915,0,0,1-.036.63,6.772,6.772,0,0,0,2.718.7A1.88,1.88,0,0,0,28.71-.738c.738-1.044,1.206-3.438,1.206-6.192a3.633,3.633,0,0,0-.882-2.9,3.44,3.44,0,0,0-2.592-.756,10.49,10.49,0,0,0-1.062.054c.162-.864.288-1.53.378-2.052A11.066,11.066,0,0,1,26.1-14.31l-1.44-.162v.234a22,22,0,0,1-.54,3.816c-1.458.234-3.33.45-3.978.468Zm10.62-2.376a14.734,14.734,0,0,1,3.672,6.462l1.152-.666a16.277,16.277,0,0,0-3.762-6.372Zm13-3.384c-.108.54-.5,1.674-2.466,6.876C38.844-.63,38.844-.63,38.61-.126L40,.306a18.424,18.424,0,0,1,1.656-4.14C42.66-5.544,43.83-6.5,44.874-6.5a.963.963,0,0,1,1.026.666,3.883,3.883,0,0,1,.144,1.368v1.026a7.42,7.42,0,0,0,.162,1.944A2.532,2.532,0,0,0,48.834.126a4.191,4.191,0,0,0,3.582-1.962A9.723,9.723,0,0,0,53.694-5a5.138,5.138,0,0,1-1.188-.918,7.883,7.883,0,0,1-.684,2.556c-.666,1.512-1.6,2.25-2.88,2.25a1.677,1.677,0,0,1-1.368-.558,3.06,3.06,0,0,1-.288-1.71V-4.608a4.54,4.54,0,0,0-.306-2.034A2,2,0,0,0,45.18-7.7c-1.278,0-2.2.648-3.384,2.358l-.09-.036a2.707,2.707,0,0,1,.162-.324l.2-.4a30.512,30.512,0,0,0,1.3-2.97c1.764-4.518,1.764-4.518,2-4.95ZM58.176-9.4a6.224,6.224,0,0,1,.7-.054,51.1,51.1,0,0,0,6.408-.468l.09.18c.018.036.108.2.216.414A21.9,21.9,0,0,0,67.752-5.8a8.988,8.988,0,0,0-3.726-.648,7.651,7.651,0,0,0-3.492.666A3.364,3.364,0,0,0,58.5-2.844a2.9,2.9,0,0,0,.81,1.98C60.138,0,61.794.486,63.99.486a15.3,15.3,0,0,0,5.292-.954l-.2-1.386A11.863,11.863,0,0,1,63.972-.72a6.1,6.1,0,0,1-3.51-.828,1.8,1.8,0,0,1-.684-1.4,2.044,2.044,0,0,1,.972-1.674,6.381,6.381,0,0,1,3.42-.756,9.754,9.754,0,0,1,3.15.468,3.4,3.4,0,0,1,1.242.756l1.206-.7a32.487,32.487,0,0,1-3.24-5.238h.126c.054-.018.18-.036.4-.09.324-.072.828-.162,1.548-.306a4.2,4.2,0,0,1,.45-.108,3.952,3.952,0,0,0,.4-.108,1.736,1.736,0,0,0,.216-.036l-.18-1.26a19.409,19.409,0,0,1-3.384.846,14.2,14.2,0,0,1-.648-1.6,5.863,5.863,0,0,1-.522-1.62l-1.422.216a11.343,11.343,0,0,1,.468,1.044c.306.756.594,1.458.882,2.124a42.014,42.014,0,0,1-5.364.378,10.408,10.408,0,0,1-1.386-.072ZM68.76-14.238a13.2,13.2,0,0,1,1.926,2.79l.9-.558a13.84,13.84,0,0,0-1.944-2.736Zm2.016-1.026A14.007,14.007,0,0,1,72.7-12.492l.9-.54a14.979,14.979,0,0,0-1.962-2.754Zm7.56,1.224a5.537,5.537,0,0,1,.072.954c0,.288,0,.63-.018,1.17-.144,5.67-.162,6.12-.162,7.326,0,1.89.252,2.844.99,3.69A4.269,4.269,0,0,0,82.6.36a6.3,6.3,0,0,0,5.076-2.25,10.95,10.95,0,0,0,2-4.086,5.092,5.092,0,0,1-1.3-.864A10.693,10.693,0,0,1,87.5-4.014,5.169,5.169,0,0,1,82.674-.882a3.4,3.4,0,0,1-2.25-.7,2.833,2.833,0,0,1-.846-2.16c-.018-.414-.036-.864-.036-1.08,0-.81.054-3.258.126-5.418a27.753,27.753,0,0,1,.234-3.8Z" transform="translate(230 2812)" fill="#3a3a3a"/>
    <path id="パス_3910" data-name="パス 3910" d="M1.688-12.349,4.9-6.416l3.226-5.933h1.96L7.752-8.437H9.29v1.2H7.066L5.933-5.326H9V-4.14H5.722V0H4.061V-4.14H.87V-5.326H3.85L2.725-7.242H.457v-1.2H2.039L-.272-12.349ZM12.273-8.912v-1.213a6.445,6.445,0,0,0,2.391-.558,2.751,2.751,0,0,0,1.011-1.85h1.248V0H15.235V-8.912Zm14.093-3.727a3.477,3.477,0,0,1,2.94,1.094,3.691,3.691,0,0,1,.831,2.254H28.572a2.885,2.885,0,0,0-.448-1.169,2,2,0,0,0-1.731-.791,2.4,2.4,0,0,0-2.109,1.226,7.065,7.065,0,0,0-.87,3.511,3.44,3.44,0,0,1,1.371-1.2,3.954,3.954,0,0,1,1.688-.352,4.105,4.105,0,0,1,2.76,1.011,3.755,3.755,0,0,1,1.178,3.015A4.573,4.573,0,0,1,29.293-1,3.932,3.932,0,0,1,26.111.325a4.08,4.08,0,0,1-3.05-1.34q-1.283-1.34-1.283-4.513A12.146,12.146,0,0,1,22.35-9.51Q23.448-12.639,26.366-12.639ZM26.252-1.081A2.171,2.171,0,0,0,28.12-1.92a3.245,3.245,0,0,0,.62-1.982,3.388,3.388,0,0,0-.554-1.841,2.194,2.194,0,0,0-2.013-.875,2.624,2.624,0,0,0-1.789.677A2.574,2.574,0,0,0,23.615-3.9a2.974,2.974,0,0,0,.7,2.008A2.419,2.419,0,0,0,26.252-1.081Zm6.894,2.918A1.109,1.109,0,0,0,34,.984,2.413,2.413,0,0,0,34.131.22q0-.062,0-.11A.605.605,0,0,0,34.1,0h-.958V-1.916h1.881V-.141A3.846,3.846,0,0,1,34.605,1.7a1.922,1.922,0,0,1-1.459.976Zm6.27-5.045a2.193,2.193,0,0,0,1.257,1.872,3.033,3.033,0,0,0,1.3.264,2.442,2.442,0,0,0,2.083-.9,3.22,3.22,0,0,0,.677-1.986,2.6,2.6,0,0,0-.8-2.039A2.791,2.791,0,0,0,42-6.715a2.906,2.906,0,0,0-1.4.316,3,3,0,0,0-1,.879L38.23-5.6l.958-6.776h6.539v1.529H40.375l-.536,3.5a3.931,3.931,0,0,1,.835-.5,4.238,4.238,0,0,1,1.626-.29,4.16,4.16,0,0,1,2.936,1.116,3.692,3.692,0,0,1,1.2,2.83,4.856,4.856,0,0,1-1.1,3.146A4.266,4.266,0,0,1,41.816.316,4.483,4.483,0,0,1,39.1-.549a3.434,3.434,0,0,1-1.323-2.659Zm13.2-9.378a3.719,3.719,0,0,1,3.533,2.013,9,9,0,0,1,.844,4.263,10.265,10.265,0,0,1-.765,4.245A3.744,3.744,0,0,1,52.6.343a3.626,3.626,0,0,1-3.375-1.969,9.014,9.014,0,0,1-.923-4.412,10.9,10.9,0,0,1,.554-3.683A3.789,3.789,0,0,1,52.613-12.586ZM52.6-1.1a2.251,2.251,0,0,0,1.96-1.09,7.891,7.891,0,0,0,.729-4.061,10.032,10.032,0,0,0-.527-3.529,2.007,2.007,0,0,0-2.048-1.384,2.141,2.141,0,0,0-2.043,1.314,9.073,9.073,0,0,0-.646,3.872,9.507,9.507,0,0,0,.413,3.094A2.252,2.252,0,0,0,52.6-1.1ZM63.164-12.586A3.719,3.719,0,0,1,66.7-10.573a9,9,0,0,1,.844,4.263,10.265,10.265,0,0,1-.765,4.245A3.744,3.744,0,0,1,63.155.343,3.626,3.626,0,0,1,59.78-1.626a9.014,9.014,0,0,1-.923-4.412,10.9,10.9,0,0,1,.554-3.683A3.789,3.789,0,0,1,63.164-12.586ZM63.146-1.1a2.251,2.251,0,0,0,1.96-1.09,7.891,7.891,0,0,0,.729-4.061,10.032,10.032,0,0,0-.527-3.529,2.007,2.007,0,0,0-2.048-1.384,2.141,2.141,0,0,0-2.043,1.314,9.073,9.073,0,0,0-.646,3.872,9.507,9.507,0,0,0,.413,3.094A2.252,2.252,0,0,0,63.146-1.1Z" transform="translate(434 2812)" fill="#3a3a3a"/>
    <path id="パス_3905" data-name="パス 3905" d="M-67.356-13.824a9.3,9.3,0,0,1,.054.972v.666l-.036,10.314A3.454,3.454,0,0,1-67.464-.7l.72.9A4.522,4.522,0,0,1-65.7-.072c4.806-.936,7.452-2.61,9.918-6.282a4.584,4.584,0,0,1-.99-1.134,10.9,10.9,0,0,1-4.05,4.32,13.59,13.59,0,0,1-5.148,1.8l.054-10.854a11.089,11.089,0,0,1,.09-1.6Zm16.164,2.07a19.876,19.876,0,0,1,4.284,3.528l.936-1.116a23.448,23.448,0,0,0-4.338-3.384Zm.126,11.7a9.457,9.457,0,0,1,1.08-.288,18.148,18.148,0,0,0,6.714-2.682A15.787,15.787,0,0,0-37.782-9.9a3.605,3.605,0,0,1-1.1-1.062,13.6,13.6,0,0,1-7.344,8.01,15.667,15.667,0,0,1-5.238,1.386Zm23.238-14.814A9.831,9.831,0,0,1-28.89-12.4a15.663,15.663,0,0,1-4.59,5.13,3.3,3.3,0,0,1,1.044.864A17.878,17.878,0,0,0-28.152-11.2l6.3-.09a21.5,21.5,0,0,1-2.5,5.22,25.714,25.714,0,0,0-3.978-2.79l-.828.918a22.641,22.641,0,0,1,4.032,2.916,12.628,12.628,0,0,1-3.114,2.844A16.226,16.226,0,0,1-31.968-.216,3.2,3.2,0,0,1-31.086.9,20.076,20.076,0,0,0-25.4-2.808a20.482,20.482,0,0,0,4.7-7.74,4.039,4.039,0,0,1,.522-1.188l-.81-.81a3.118,3.118,0,0,1-1.044.18c-5.31.054-5.31.054-5.562.09a9.157,9.157,0,0,0,.558-.99,5.954,5.954,0,0,1,.63-1.188Zm14.67,1.152a8.007,8.007,0,0,1,.072,1.278c0,3.8-.252,6.156-.81,7.722a8.9,8.9,0,0,1-3.042,4.14A3.325,3.325,0,0,1-15.858.4,11,11,0,0,0-12.744-4.05c.684-1.818.828-3.15.972-8.028a8.967,8.967,0,0,1,.108-1.548Zm4.482-.126a7.222,7.222,0,0,1,.072,1.6L-8.712-1.71A3.033,3.033,0,0,1-8.838-.486l.72.828A3,3,0,0,1-7.7.144c.252-.09.252-.09.576-.216A11.865,11.865,0,0,0-4.554-1.386,10.227,10.227,0,0,0-.936-6.012,5.033,5.033,0,0,1-1.944-7.056a8.9,8.9,0,0,1-2.124,3.6A8.319,8.319,0,0,1-7.416-1.368l.108-10.872A6.979,6.979,0,0,1-7.2-13.824Z" transform="translate(312 2720)" fill="#3a3a3a"/>
    <path id="パス_3906" data-name="パス 3906" d="M-26.424-8.694a14.631,14.631,0,0,0,2.232,5.868A11.368,11.368,0,0,1-28.4.414a3.435,3.435,0,0,1,.846.954,14.823,14.823,0,0,0,4.032-3.294,13.118,13.118,0,0,0,3.672,3.15A4.746,4.746,0,0,1-19.08.162a10.993,10.993,0,0,1-3.726-2.988,17.827,17.827,0,0,0,2.682-5.6,6.538,6.538,0,0,1,.252-.684l-.612-.684a7.3,7.3,0,0,1-1.494.09h-5.184l.018-1.728v-1.512h6.012a10.906,10.906,0,0,1,1.728.09v-1.26A11.985,11.985,0,0,1-21.168-14h-5.256a16.532,16.532,0,0,1-1.908-.09c.054.612.072,1.206.072,2.25,0,7.416-.468,10.278-2.016,12.4a2.89,2.89,0,0,1,.918.774,11.01,11.01,0,0,0,1.674-4.284,38.512,38.512,0,0,0,.5-5.742Zm5.2,0a14.918,14.918,0,0,1-2.25,4.932A12.125,12.125,0,0,1-25.38-8.694ZM-31.284-3.132c.648,0,.972.018,1.494.054-.036-.378-.054-.828-.054-1.6v-8.046a10.512,10.512,0,0,1,.054-1.512,11.4,11.4,0,0,1-1.566.054H-33.3c-.72,0-1.188-.018-1.62-.054a12.113,12.113,0,0,1,.072,1.584v7.92c0,.684-.018,1.188-.054,1.656a8.48,8.48,0,0,1,1.422-.054Zm-2.5-10.08h2.9v2.34h-2.9Zm0,3.276h2.9v2.412h-2.9Zm0,3.348h2.9v2.5h-2.9Zm-.2,4.014A7.021,7.021,0,0,1-35.856.45a3.047,3.047,0,0,1,.9.738A8.718,8.718,0,0,0-33.03-2.106Zm1.782.4a16.458,16.458,0,0,0,1.26,2.5,4.473,4.473,0,0,1,.882-.648A10.779,10.779,0,0,1-31.3-2.592ZM-9.684-13h-4.95A13.128,13.128,0,0,1-16.65-13.1v1.224a15.491,15.491,0,0,1,2-.108h4.968v1.854H-13.59a11.278,11.278,0,0,1-1.89-.108v1.188a13.307,13.307,0,0,1,1.89-.09h9.18a12.826,12.826,0,0,1,1.908.09v-1.188a9.694,9.694,0,0,1-1.908.108H-8.568v-1.854H-3.15a14.6,14.6,0,0,1,1.944.108V-13.1A12.792,12.792,0,0,1-3.168-13h-5.4v-.342a9.268,9.268,0,0,1,.108-1.656H-9.792a8.448,8.448,0,0,1,.108,1.656Zm-5.688,8.73V-6.66H-2.628v2.394H-1.4a7.942,7.942,0,0,1-.072-1.242V-6.534A7.739,7.739,0,0,1-1.4-7.74a16.724,16.724,0,0,1-1.8.072H-14.8a16.791,16.791,0,0,1-1.782-.072,8.3,8.3,0,0,1,.072,1.224V-5.49a8.3,8.3,0,0,1-.072,1.224Zm3.636-1.584a5.231,5.231,0,0,1,.054.72A4.721,4.721,0,0,1-14.418-.7a8.254,8.254,0,0,1-2.43.828,3.735,3.735,0,0,1,.774,1.134A8.554,8.554,0,0,0-12.582-.5a5.493,5.493,0,0,0,1.89-3.078c.054-.324.2-1.242.216-1.494a4.134,4.134,0,0,1,.09-.738Zm4.842,1.422a7.023,7.023,0,0,1,.108-1.4h-1.35a6.7,6.7,0,0,1,.09,1.44v3.96c0,.63.144.9.576,1.062A8.062,8.062,0,0,0-4.986.864C-3.114.864-2.3.738-1.89.378c.432-.4.7-1.278.846-2.916a3.931,3.931,0,0,1-1.134-.45A5.129,5.129,0,0,1-2.646-.594c-.234.306-.738.378-2.412.378-1.638,0-1.836-.072-1.836-.612Z" transform="translate(584 2720)" fill="#3a3a3a"/>
  </g>
</svg>
