<svg id="グループ_870" data-name="グループ 870" xmlns="http://www.w3.org/2000/svg" width="980" height="304" viewBox="0 0 980 304">
  <defs>
    <style>
      .cls-1 {
        fill: #fff;
      }

      .cls-2 {
        font-size: 16px;
      }

      .cls-2, .cls-5 {
        font-family: YuMin-Medium, YuMincho;
        font-weight: 500;
        letter-spacing: 0.03em;
      }

      .cls-3 {
        fill: #575656;
      }

      .cls-4 {
        fill: none;
      }

      .cls-5 {
        font-size: 24px;
      }
    </style>
  </defs>
  <rect id="長方形_197" data-name="長方形 197" class="cls-1" width="977.716" height="304" transform="translate(1.969)"/>
  <text id="主に_関東圏ですが_ご依頼があれば全国出張も承っておりますので_お気軽に問い合わせ下さい_交通費_出張費含め_都内_埼玉_神奈川_一律2200円_その他の地域_2200円を超過する場合は実費分頂いております_" data-name="主に　関東圏ですが、ご依頼があれば全国出張も承っておりますので
お気軽に問い合わせ下さい。

交通費、出張費含め
■都内、埼玉、神奈川 ： 一律2200円
■その他の地域 ： 2200円を超過する場合は実費分頂いております。" class="cls-2" transform="translate(42 104)"><tspan x="0" y="14">主に　関東圏ですが、ご依頼があれば全国出張も承っておりますので</tspan><tspan x="0" y="42.8">お気軽に問い合わせ下さい。</tspan><tspan x="0" y="71.6"></tspan><tspan x="0" y="100.4">交通費、出張費含め</tspan><tspan x="0" y="129.2">■都内、埼玉、神奈川 ： 一律2200円</tspan><tspan x="0" y="158">■その他の地域 ： 2200円を超過する場合は実費分頂いております。</tspan></text>
  <g id="グループ_844" data-name="グループ 844" transform="translate(0)">
    <g id="グループ_583" data-name="グループ 583" transform="translate(2.32 204.858)">
      <g id="グループ_578" data-name="グループ 578" transform="translate(823.965)">
        <g id="グループ_577" data-name="グループ 577">
          <path id="パス_2909" data-name="パス 2909" class="cls-3" d="M2974.539,1887.688v82.5H2836.594v-1.237h126.782c5.022,0,9.094-2.436,9.094-5.44v-75.823Z" transform="translate(-2820.824 -1872.959)"/>
          <g id="グループ_575" data-name="グループ 575" transform="translate(151.646)">
            <rect id="長方形_133" data-name="長方形 133" class="cls-3" width="2.069" height="10.543"/>
          </g>
          <g id="グループ_576" data-name="グループ 576" transform="translate(0 95.991)">
            <rect id="長方形_134" data-name="長方形 134" class="cls-3" width="10.223" height="1.237"/>
          </g>
        </g>
      </g>
      <g id="グループ_582" data-name="グループ 582" transform="translate(0)">
        <g id="グループ_581" data-name="グループ 581">
          <path id="パス_2910" data-name="パス 2910" class="cls-3" d="M611.051,1887.688v82.5H749v-1.237H622.215c-5.023,0-9.095-2.436-9.095-5.44v-75.823Z" transform="translate(-611.051 -1872.959)"/>
          <g id="グループ_579" data-name="グループ 579" transform="translate(0)">
            <rect id="長方形_135" data-name="長方形 135" class="cls-3" width="2.069" height="10.543"/>
          </g>
          <g id="グループ_580" data-name="グループ 580" transform="translate(143.492 95.991)">
            <rect id="長方形_136" data-name="長方形 136" class="cls-3" width="10.223" height="1.237"/>
          </g>
        </g>
      </g>
    </g>
    <g id="グループ_592" data-name="グループ 592" transform="translate(2.32)">
      <g id="グループ_587" data-name="グループ 587" transform="translate(823.965)">
        <g id="グループ_586" data-name="グループ 586">
          <path id="パス_2911" data-name="パス 2911" class="cls-3" d="M2974.539,612.53v-82.5H2836.594v1.238h126.782c5.022,0,9.094,2.435,9.094,5.439V612.53Z" transform="translate(-2820.824 -530.03)"/>
          <g id="グループ_584" data-name="グループ 584" transform="translate(151.646 86.686)">
            <rect id="長方形_137" data-name="長方形 137" class="cls-3" width="2.069" height="10.543"/>
          </g>
          <g id="グループ_585" data-name="グループ 585" transform="translate(0 0)">
            <rect id="長方形_138" data-name="長方形 138" class="cls-3" width="10.223" height="1.237"/>
          </g>
        </g>
      </g>
      <g id="グループ_591" data-name="グループ 591" transform="translate(0)">
        <g id="グループ_590" data-name="グループ 590">
          <path id="パス_2912" data-name="パス 2912" class="cls-3" d="M611.051,612.53v-82.5H749v1.238H622.215c-5.023,0-9.095,2.435-9.095,5.439V612.53Z" transform="translate(-611.051 -530.03)"/>
          <g id="グループ_588" data-name="グループ 588" transform="translate(0 86.686)">
            <rect id="長方形_139" data-name="長方形 139" class="cls-3" width="2.069" height="10.543"/>
          </g>
          <g id="グループ_589" data-name="グループ 589" transform="translate(143.492 0)">
            <rect id="長方形_140" data-name="長方形 140" class="cls-3" width="10.223" height="1.237"/>
          </g>
        </g>
      </g>
    </g>
    <g id="グループ_609" data-name="グループ 609" transform="translate(977.911 57.744)">
      <rect id="長方形_141" data-name="長方形 141" class="cls-3" width="2.089" height="124.146" transform="translate(0)"/>
    </g>
    <g id="グループ_610" data-name="グループ 610" transform="translate(0.231 114.047)">
      <rect id="長方形_142" data-name="長方形 142" class="cls-3" width="2.089" height="73.795" transform="translate(0 0)"/>
    </g>
    <g id="グループ_612" data-name="グループ 612" transform="translate(149.606 300.85)">
      <rect id="長方形_144" data-name="長方形 144" class="cls-3" width="680.869" height="1.237" transform="translate(0)"/>
    </g>
    <rect id="長方形_7" data-name="長方形 7" class="cls-4" width="979.68" height="304"/>
    <rect id="長方形_143" data-name="長方形 143" class="cls-3" width="780.685" height="1.237" transform="translate(149.27 0)"/>
  </g>
  <g id="グループ_820" data-name="グループ 820" transform="translate(42 40)">
    <text id="出張範囲_交通費について" data-name="出張範囲・交通費について" class="cls-5" transform="translate(0 21)"><tspan x="0" y="0">出張範囲・交通費について</tspan></text>
  </g>
</svg>
