<svg xmlns="http://www.w3.org/2000/svg" width="343.029" height="304" viewBox="0 0 343.029 304">
  <g id="グループ_1800" data-name="グループ 1800" transform="translate(-179.81)">
    <rect id="長方形_197" data-name="長方形 197" width="340.229" height="301" transform="translate(182.498)" fill="#fff"/>
    <text id="主に_関東圏ですが_ご依頼があれば全国出張も承っておりますので_お気軽に問い合わせ下さい_交通費_出張費含め_都内_埼玉_神奈川_一律2200円_その他の地域_2200円を超過する場合は実費分頂いております_" data-name="主に　関東圏ですが、ご依頼があれば全国出張も承っておりますので
お気軽に問い合わせ下さい。

交通費、出張費含め
■都内、埼玉、神奈川 ： 一律2200円
■その他の地域 ： 2200円を超過する場合は実費分頂いております。" transform="translate(218.05 104)" font-size="12" font-family="HiraginoSans-W3, Hiragino Sans" letter-spacing="0.03em"><tspan x="0" y="11">主に　関東圏ですが、ご依頼があれば全国出張</tspan><tspan x="0" y="32.6">も承っておりますので</tspan><tspan y="32.6" font-family="Helvetica"></tspan><tspan x="0" y="54.2">お気軽に問い合わせ下さい。</tspan><tspan y="54.2" font-family="Helvetica"></tspan><tspan font-family="Helvetica"><tspan x="0" y="75.8"></tspan></tspan><tspan x="0" y="97.4">交通費、出張費含め</tspan><tspan y="97.4" font-family="Helvetica"></tspan><tspan font-family="LucidaGrande, Lucida Grande"><tspan x="0" y="119">■</tspan><tspan y="119" font-family="HiraginoSans-W3, Hiragino Sans">都内、埼玉、神奈川</tspan><tspan y="119" font-family="Helvetica"> </tspan><tspan y="119" font-family="HiraginoSans-W3, Hiragino Sans">：</tspan><tspan y="119" font-family="Helvetica"> </tspan><tspan y="119" font-family="HiraginoSans-W3, Hiragino Sans">一律</tspan><tspan y="119" font-family="Helvetica">2200</tspan><tspan y="119" font-family="HiraginoSans-W3, Hiragino Sans">円</tspan><tspan y="119" font-family="Helvetica"></tspan><tspan x="0" y="140.6">■</tspan><tspan y="140.6" font-family="HiraginoSans-W3, Hiragino Sans">その他の地域</tspan><tspan y="140.6" font-family="Helvetica"> </tspan><tspan y="140.6" font-family="HiraginoSans-W3, Hiragino Sans">：</tspan><tspan y="140.6" xml:space="preserve" font-family="Helvetica"> 2200</tspan><tspan y="140.6" font-family="HiraginoSans-W3, Hiragino Sans">円を超過する場合は実費</tspan><tspan x="0" y="162.2" font-family="HiraginoSans-W3, Hiragino Sans">分頂いております。</tspan></tspan></text>
    <g id="グループ_844" data-name="グループ 844" transform="translate(0)">
      <g id="グループ_583" data-name="グループ 583" transform="translate(181.898 204.858)">
        <g id="グループ_578" data-name="グループ 578" transform="translate(202.591)">
          <g id="グループ_577" data-name="グループ 577">
            <path id="パス_2909" data-name="パス 2909" d="M2960.75,1887.688v82.5H2836.593v-1.237H2950.7c4.52,0,8.185-2.436,8.185-5.44v-75.823Z" transform="translate(-2822.401 -1872.959)" fill="#575656"/>
            <g id="グループ_575" data-name="グループ 575" transform="translate(136.487)">
              <rect id="長方形_133" data-name="長方形 133" width="1.862" height="10.543" fill="#575656"/>
            </g>
            <g id="グループ_576" data-name="グループ 576" transform="translate(0 95.991)">
              <rect id="長方形_134" data-name="長方形 134" width="9.201" height="1.237" fill="#575656"/>
            </g>
          </g>
        </g>
        <g id="グループ_582" data-name="グループ 582" transform="translate(0)">
          <g id="グループ_581" data-name="グループ 581">
            <path id="パス_2910" data-name="パス 2910" d="M611.051,1887.688v82.5H735.208v-1.237H621.1c-4.521,0-8.186-2.436-8.186-5.44v-75.823Z" transform="translate(-611.051 -1872.959)" fill="#575656"/>
            <g id="グループ_579" data-name="グループ 579" transform="translate(0)">
              <rect id="長方形_135" data-name="長方形 135" width="1.862" height="10.543" fill="#575656"/>
            </g>
            <g id="グループ_580" data-name="グループ 580" transform="translate(129.149 95.991)">
              <rect id="長方形_136" data-name="長方形 136" width="9.201" height="1.237" fill="#575656"/>
            </g>
          </g>
        </g>
      </g>
      <g id="グループ_592" data-name="グループ 592" transform="translate(181.898)">
        <g id="グループ_587" data-name="グループ 587" transform="translate(202.591)">
          <g id="グループ_586" data-name="グループ 586">
            <path id="パス_2911" data-name="パス 2911" d="M2960.75,612.53v-82.5H2836.593v1.238H2950.7c4.52,0,8.185,2.435,8.185,5.439V612.53Z" transform="translate(-2822.401 -530.03)" fill="#575656"/>
            <g id="グループ_584" data-name="グループ 584" transform="translate(136.487 86.686)">
              <rect id="長方形_137" data-name="長方形 137" width="1.862" height="10.543" fill="#575656"/>
            </g>
            <g id="グループ_585" data-name="グループ 585" transform="translate(0 0)">
              <rect id="長方形_138" data-name="長方形 138" width="9.201" height="1.237" fill="#575656"/>
            </g>
          </g>
        </g>
        <g id="グループ_591" data-name="グループ 591" transform="translate(0)">
          <g id="グループ_590" data-name="グループ 590">
            <path id="パス_2912" data-name="パス 2912" d="M611.051,612.53v-82.5H735.208v1.238H621.1c-4.521,0-8.186,2.435-8.186,5.439V612.53Z" transform="translate(-611.051 -530.03)" fill="#575656"/>
            <g id="グループ_588" data-name="グループ 588" transform="translate(0 86.686)">
              <rect id="長方形_139" data-name="長方形 139" width="1.862" height="10.543" fill="#575656"/>
            </g>
            <g id="グループ_589" data-name="グループ 589" transform="translate(129.149 0)">
              <rect id="長方形_140" data-name="長方形 140" width="9.201" height="1.237" fill="#575656"/>
            </g>
          </g>
        </g>
      </g>
      <g id="グループ_609" data-name="グループ 609" transform="translate(520.958 57.744)">
        <rect id="長方形_141" data-name="長方形 141" width="1.88" height="124.146" transform="translate(0)" fill="#575656"/>
      </g>
      <g id="グループ_610" data-name="グループ 610" transform="translate(180.018 114.047)">
        <rect id="長方形_142" data-name="長方形 142" width="1.88" height="73.795" transform="translate(0 0)" fill="#575656"/>
      </g>
      <g id="グループ_612" data-name="グループ 612" transform="translate(183.562 300.85)">
        <rect id="長方形_144" data-name="長方形 144" width="335.434" height="1.237" transform="translate(0)" fill="#575656"/>
      </g>
      <rect id="長方形_7" data-name="長方形 7" width="342.74" height="304" transform="translate(179.81)" fill="none"/>
      <rect id="長方形_143" data-name="長方形 143" width="327.647" height="1.237" transform="translate(188 0)" fill="#575656"/>
    </g>
    <path id="パス_3919" data-name="パス 3919" d="M7.36-7.728h-3.9v-3.008A8.214,8.214,0,0,1,3.52-11.92H2.32a11.341,11.341,0,0,1,.08,1.232V-7.52c0,.272-.016.512-.032.816.336-.016.7-.032.992-.032h4V-.88H2.8V-3.84A8.041,8.041,0,0,1,2.88-5.2H1.664a8.884,8.884,0,0,1,.08,1.424v3.52a8.41,8.41,0,0,1-.1,1.344H2.8V.128H13.2v.96h1.152a8,8,0,0,1-.1-1.344V-3.872a8.884,8.884,0,0,1,.08-1.424H13.12A8.484,8.484,0,0,1,13.2-3.92V-.88H8.432V-6.736h4.3c.3,0,.672.016.992.032-.016-.272-.032-.5-.032-.816V-10.7a7.892,7.892,0,0,1,.08-1.216h-1.2a8.709,8.709,0,0,1,.064,1.168v3.024H8.432v-4.048a7.26,7.26,0,0,1,.112-1.456h-1.3a6.471,6.471,0,0,1,.112,1.456Zm22.7,2.752a8.928,8.928,0,0,1,1.568.1V-5.952a9.652,9.652,0,0,1-1.568.1H24.528V-7.264h4.4a10.722,10.722,0,0,1,1.52.1V-8.24a7.854,7.854,0,0,1-1.52.1h-4.4V-9.52h4.4a9.958,9.958,0,0,1,1.52.1V-10.5a9.531,9.531,0,0,1-1.52.1h-4.4v-1.344H29.28a10.723,10.723,0,0,1,1.616.08V-12.72a10.424,10.424,0,0,1-1.632.1H25.248a14.091,14.091,0,0,1-1.728-.08,11.631,11.631,0,0,1,.064,1.392v5.456a10.826,10.826,0,0,1-1.248-.064v1.008a8.8,8.8,0,0,1,1.184-.064V-.3a11.335,11.335,0,0,1-1.648.24l.24,1.04c.32-.1.416-.112.768-.192,1.776-.4,3.04-.752,4.528-1.232l-.032-.928a25.589,25.589,0,0,1-2.88.848V-4.976h1.36a9.688,9.688,0,0,0,1.9,3.44,12.046,12.046,0,0,0,3.552,2.7A4.561,4.561,0,0,1,31.9.192a9.481,9.481,0,0,1-3.3-2.176,22.874,22.874,0,0,0,2.208-1.984l-.784-.624a10.01,10.01,0,0,1-1.984,1.968A6.761,6.761,0,0,1,26.8-4.976ZM18.8-5.456a21.725,21.725,0,0,0,.336-2.624h1.84c.432,0,.816.016,1.136.048-.032-.416-.048-.784-.048-1.264v-2.112c0-.432.016-.768.048-1.12q-.5.048-1.056.048H19.184a9.507,9.507,0,0,1-1.488-.1v1.056a12.057,12.057,0,0,1,1.472-.064H21.1v2.608H19.712a10.855,10.855,0,0,1-1.52-.064,23.054,23.054,0,0,1-.528,4.512c.384-.032.592-.032,1.088-.032H20.96a14.639,14.639,0,0,1-.5,4.016c-.112.384-.32.5-.848.5a15.192,15.192,0,0,1-1.792-.16A4.116,4.116,0,0,1,18.032.848c.672.048,1.216.08,1.7.08.928,0,1.36-.272,1.6-.96a16.579,16.579,0,0,0,.624-4.816c.016-.3.016-.4.048-.656a10.119,10.119,0,0,1-1.152.048Zm18.656-5.856A12.637,12.637,0,0,1,38.24-9.84H37.2a5.068,5.068,0,0,1,.1,1.088H35.184a5.7,5.7,0,0,1-1.28-.1v.96a7.376,7.376,0,0,1,1.28-.08H37.3v.976H36.128a13.2,13.2,0,0,1-1.552-.064A11.126,11.126,0,0,1,34.64-5.6v1.76a10.612,10.612,0,0,1-.064,1.408A12.6,12.6,0,0,1,36.1-2.5h1.2v1.1H35.232a7.071,7.071,0,0,1-1.264-.08v.96c.416-.048.96-.08,1.264-.08H37.3v.16a9.919,9.919,0,0,1-.1,1.616h1.072a8.076,8.076,0,0,1-.1-1.616v-.16h1.712A7.531,7.531,0,0,1,41.3-.528v-.944a7.718,7.718,0,0,1-1.36.08h-1.76V-2.5h1.28a13.861,13.861,0,0,1,1.408.048,11.711,11.711,0,0,1-.048-1.376V-5.648c0-.688.016-.976.048-1.408a10.251,10.251,0,0,1-1.536.064H38.176v-.976h1.808a10.626,10.626,0,0,1,1.344.064v-.928a7.614,7.614,0,0,1-1.344.08H38.176a4.635,4.635,0,0,1,.08-1.04l.1.24.912-.336c-.4-.7-.528-.928-.864-1.424h1.056a12.624,12.624,0,0,1,1.456.064v-1.008a9.606,9.606,0,0,1-1.584.1h-2.72c.208-.384.24-.448.592-1.2l-1.024-.272a6.528,6.528,0,0,1-.848,1.9A8.248,8.248,0,0,1,33.744-9.92a2.831,2.831,0,0,1,.736.64,10.921,10.921,0,0,0,1.648-2.032ZM37.3-6.256V-5.12H35.488V-6.256Zm.88,0h1.792V-5.12H38.176ZM37.3-4.4v1.168H35.488V-4.4Zm.88,0h1.792v1.168H38.176Zm5.44-6.912a11,11,0,0,1,.992,1.92l.88-.336a13.222,13.222,0,0,0-.9-1.584h1.7a12.979,12.979,0,0,1,1.68.08v-1.024a9.541,9.541,0,0,1-1.7.1h-3.6c.24-.5.3-.656.528-1.168l-.992-.272a5.922,5.922,0,0,1-.656,1.7,7.7,7.7,0,0,1-1.44,1.92,3.678,3.678,0,0,1,.752.56,10.393,10.393,0,0,0,1.376-1.888ZM46.4-7.952c0,1.424-.048,2.656-.1,3.184-.08.72-.16.848-.592.848a9.721,9.721,0,0,1-1.376-.144,2.931,2.931,0,0,1,.176.96,9.976,9.976,0,0,0,1.248.08c.9,0,1.28-.288,1.424-1.072a29.936,29.936,0,0,0,.16-3.2,12.972,12.972,0,0,1,.064-1.584,11.283,11.283,0,0,1-1.456.064H43.424a10.191,10.191,0,0,1-1.392-.064,8.779,8.779,0,0,1,.08,1.5V-.3c0,1.056.4,1.248,2.576,1.248,2.08,0,2.672-.144,2.976-.7a5.321,5.321,0,0,0,.384-2.32,4.635,4.635,0,0,1-.976-.464,5.54,5.54,0,0,1-.24,2.176c-.192.352-.544.416-2.192.416-1.408,0-1.568-.064-1.568-.608V-7.952Zm8.592,3.408a3.152,3.152,0,0,1-.56,1.52A4.719,4.719,0,0,1,52.9-1.7a3.372,3.372,0,0,1,.752.688,4.586,4.586,0,0,0,2.288-3.536h2.8v1.9a8.527,8.527,0,0,1-.08,1.424h1.088a8.166,8.166,0,0,1-.08-1.44V-4.544h1.312a7.685,7.685,0,0,1,1.376.08V-5.472a7.155,7.155,0,0,1-1.376.08H59.664V-8.1h1.072a7.29,7.29,0,0,1,1.344.08V-9.024a7.08,7.08,0,0,1-1.344.08H59.664v-.912a6.364,6.364,0,0,1,.08-1.248H58.656a6.566,6.566,0,0,1,.08,1.248v.912H56.112v-.944a6.2,6.2,0,0,1,.08-1.216H55.1a10.892,10.892,0,0,1,.08,1.248v.912H54.128a6.977,6.977,0,0,1-1.344-.08v1.008a7.4,7.4,0,0,1,1.344-.08h1.056v.272c0,1.024-.016,1.6-.08,2.432H53.888a6.688,6.688,0,0,1-1.328-.08v1.008a7.1,7.1,0,0,1,1.328-.08ZM56.112-8.1h2.624v2.7h-2.72c.064-.976.1-1.552.1-2.352ZM64.08,1.232a12.687,12.687,0,0,1-.1-1.9V-10.7a16.988,16.988,0,0,1,.1-1.968,16.061,16.061,0,0,1-1.9.08H52.608a15.484,15.484,0,0,1-1.872-.08,17.786,17.786,0,0,1,.1,1.968V-.688a13.706,13.706,0,0,1-.1,1.92h1.12V.272h11.1v.96ZM51.856-11.68h11.1V-.64h-11.1ZM73.92-7.392A1.318,1.318,0,0,0,72.608-6.08,1.318,1.318,0,0,0,73.92-4.768,1.318,1.318,0,0,0,75.232-6.08,1.318,1.318,0,0,0,73.92-7.392Zm18.528.352a4.348,4.348,0,0,1-.544,1.2,10.424,10.424,0,0,1-1.5,2.048A15.171,15.171,0,0,1,88.752-6.08a6.451,6.451,0,0,1-.432-.944l-.976.5A12.831,12.831,0,0,0,89.7-3.088a10.5,10.5,0,0,1-2.32,1.7A16.022,16.022,0,0,1,83.44.16a2.962,2.962,0,0,1,.592.992A16.168,16.168,0,0,0,88.32-.768a13.326,13.326,0,0,0,2.08-1.6,11.844,11.844,0,0,0,2,1.536,17.22,17.22,0,0,0,4.592,1.984A2.85,2.85,0,0,1,97.568.1a16.2,16.2,0,0,1-4.416-1.728,13.258,13.258,0,0,1-2.016-1.456,18.223,18.223,0,0,0,2.352-3.424Zm-2.672-4.224H85.312a10.477,10.477,0,0,1-1.792-.112v1.152a11.959,11.959,0,0,1,1.792-.1H95.52a11.873,11.873,0,0,1,1.824.1v-1.152a10.441,10.441,0,0,1-1.808.112h-4.72v-.72a5.64,5.64,0,0,1,.112-1.344H89.664a6.8,6.8,0,0,1,.112,1.344ZM87.664-9.776A8.728,8.728,0,0,1,85.9-7.5a12.045,12.045,0,0,1-2.32,1.744,3.085,3.085,0,0,1,.784.8,15.324,15.324,0,0,0,2.112-1.7,12.338,12.338,0,0,0,2.1-2.608Zm4.384.528a13.667,13.667,0,0,0,2.048,2.3A14.6,14.6,0,0,0,96.624-5.12a4.065,4.065,0,0,1,.7-.912,11.347,11.347,0,0,1-2.592-1.68,8.772,8.772,0,0,1-1.856-2.08ZM105.9-9.792a12.587,12.587,0,0,1-1.728-.08,15.248,15.248,0,0,1,.064,1.808v5.056a10.7,10.7,0,0,1-.1,1.68h1.136a10.157,10.157,0,0,1-.1-1.68V-4.24h3.008v1.008a11.563,11.563,0,0,1-.1,1.728h1.1a11.417,11.417,0,0,1-.1-1.728V-4.24h3.344v1.552c0,.384-.08.448-.448.448a8.249,8.249,0,0,1-1.328-.112,3.427,3.427,0,0,1,.224.928c.48.032.752.032,1.12.032,1.12,0,1.376-.224,1.376-1.232V-7.9a19.463,19.463,0,0,1,.064-1.968,11.088,11.088,0,0,1-1.744.08h-2.08a18.108,18.108,0,0,0,3.184-2.128,3.794,3.794,0,0,1,.4-.3l-.4-.576a11.146,11.146,0,0,1-1.632.064H105.6a9.225,9.225,0,0,1-1.7-.1v1.008a10.747,10.747,0,0,1,1.6-.08h5.936a13.337,13.337,0,0,1-2.48,1.68,23.632,23.632,0,0,0-2.144-1.424l-.72.512a15.548,15.548,0,0,1,2.128,1.344Zm3.2.8h3.344v1.584H109.1Zm-.912,0v1.584h-3.008V-8.992ZM105.184-6.64h3.008v1.616h-3.008Zm7.264,1.616H109.1V-6.64h3.344ZM99.712-12.368a15.156,15.156,0,0,1,2.48,2.912l.816-.736a18.375,18.375,0,0,0-2.56-2.832ZM99.584-5.9a5.042,5.042,0,0,1,1.072-.08h.96v3.84A8.653,8.653,0,0,1,99.344-.272l.544,1.04c.224-.192.272-.24.448-.384.272-.256.336-.32.592-.544a11.551,11.551,0,0,0,1.088-1.168A4.326,4.326,0,0,0,103.552.1c1.024.528,1.968.64,5.136.64,1.488,0,3.424-.048,5.168-.112a6.243,6.243,0,0,1,.368-1.184,53.645,53.645,0,0,1-6.384.336c-2.224,0-3.264-.144-3.968-.56a2.705,2.705,0,0,1-1.3-1.376V-5.3a11.966,11.966,0,0,1,.08-1.68,6.855,6.855,0,0,1-1.2.08h-.736a5.615,5.615,0,0,1-1.136-.08Zm26.08-3.088v-.96h2.288c.608,0,1.056.016,1.52.048a4.091,4.091,0,0,1-.048-.9v-.544a6.2,6.2,0,0,1,.064-1.04,8.878,8.878,0,0,1-1.52.08h-2.3v-.16a4.329,4.329,0,0,1,.08-.944h-1.056a4.268,4.268,0,0,1,.08.928v.176h-2.544c.032-.576.048-.944.064-1.088h-1.04a5.69,5.69,0,0,1,.08,1.088h-2.816a9.637,9.637,0,0,1-1.584-.08v.928a11.315,11.315,0,0,1,1.584-.08H121.3a7.883,7.883,0,0,1-.08.864h-2.064c-.736,0-1.1-.016-1.456-.048a9,9,0,0,1-.9,2.512c.416-.032.816-.048,1.424-.048h2.048c-.832.912-1.92,1.392-4.192,1.872a2.334,2.334,0,0,1,.512.816,11.683,11.683,0,0,0,1.776-.608v3.552a13.048,13.048,0,0,1-.064,1.616,17.189,17.189,0,0,1,1.776-.064h6.8a17.338,17.338,0,0,1,1.792.064,13.485,13.485,0,0,1-.064-1.648V-5.232c0-.576.016-1.072.032-1.472.176.016.3.016.416.016a1.01,1.01,0,0,0,.816-.288,2.727,2.727,0,0,0,.368-1.3c.064-.4.064-.416.144-.768a11.556,11.556,0,0,1-1.536.048Zm1.328,2.064h-7.12a3.993,3.993,0,0,0,1.456-1.328h3.44v.16a3.529,3.529,0,0,1-.08.864h1.056a3.586,3.586,0,0,1-.08-.88v-.144h3.648c-.112.832-.144.864-.512.864a3.4,3.4,0,0,1-.992-.208,3.766,3.766,0,0,1,.16.672Zm-5.9-3.024a4.51,4.51,0,0,1-.32.96h-2.64c.112-.272.176-.432.352-.96Zm3.68,0v.96h-3.056a3.918,3.918,0,0,0,.288-.96Zm0-1.584v.864h-2.656c.032-.32.032-.336.08-.864Zm.9,0h2.816v.864h-2.816ZM119.328-6.16h8.3v.944h-8.3Zm0,1.68h8.3v.944h-8.3Zm0,1.68h8.3v.96h-8.3Zm1.664,1.872A12.006,12.006,0,0,1,116.384.5a2.978,2.978,0,0,1,.576.9,14.035,14.035,0,0,0,4.768-1.728Zm4.16.592A11.168,11.168,0,0,0,127.68.784a14.241,14.241,0,0,0,2.368.592,4.315,4.315,0,0,1,.608-.912,12.949,12.949,0,0,1-2.4-.432A9.049,9.049,0,0,1,125.9-.912Zm9.792-12.144a8.91,8.91,0,0,1-.224,1.28A26.469,26.469,0,0,0,134-4.864a22.932,22.932,0,0,0,.416,4.528c.048.3.064.384.1.64l1.152-.1v-.24a13.947,13.947,0,0,1,1.3-4.4l-.768-.368a14.865,14.865,0,0,0-1.04,3.12c-.064-.848-.1-1.792-.1-3.04a23.653,23.653,0,0,1,.48-5.008,22.739,22.739,0,0,1,.672-2.56Zm3.3,3.024a21.311,21.311,0,0,0,2.56.16,27.01,27.01,0,0,0,3.44-.208q1.056-.144,1.1-.144l-.08-1.136a17.168,17.168,0,0,1-4.288.432,10.867,10.867,0,0,1-2.72-.24Zm1.168,3.12a4.42,4.42,0,0,0-1.392,2.976,2.261,2.261,0,0,0,.48,1.472c.688.832,1.84,1.216,3.664,1.216a16.507,16.507,0,0,0,3.28-.32c.32-.048.352-.064.56-.08L145.84-2.3a10.53,10.53,0,0,1-3.68.56c-2.064,0-3.072-.576-3.072-1.76a3.717,3.717,0,0,1,1.2-2.352Zm10.624-1.52a7.031,7.031,0,0,1,1.152-.384,25.414,25.414,0,0,1,6.528-1.136c2.176,0,3.5,1.088,3.5,2.88s-1.232,3.232-3.424,4.032a14.317,14.317,0,0,1-4.448.736,2.822,2.822,0,0,1,.5,1.184,13.818,13.818,0,0,0,5.3-1.216,5.241,5.241,0,0,0,3.328-4.72c0-2.448-1.856-4-4.784-4a21.375,21.375,0,0,0-4.64.592,21.452,21.452,0,0,1-3.328.672Zm16.944-3.488a8.658,8.658,0,0,1,.048.944c.08,3.936.3,5.984.864,7.5.544,1.536,1.376,2.432,2.272,2.432,1.136,0,1.872-1.072,2.656-3.872a5.114,5.114,0,0,1-.944-.912,11.512,11.512,0,0,1-.832,2.736c-.24.528-.512.8-.8.8-.608,0-1.264-1.1-1.616-2.736a27.4,27.4,0,0,1-.416-4.976,11.6,11.6,0,0,1,.112-1.9Zm8.1,1.36A14.131,14.131,0,0,1,178.4-2.1l1.136-.464a15.32,15.32,0,0,0-1.2-4.272,13.888,13.888,0,0,0-2.288-3.648Zm7.216.688a47,47,0,0,1,5.52-.528,31.006,31.006,0,0,0,3.52-.352,10.474,10.474,0,0,0-1.52.848,6.066,6.066,0,0,0-2.992,4.912,3.894,3.894,0,0,0,1.776,3.264A8.071,8.071,0,0,0,192.048.08c.256.048.32.064.5.1l.208-1.3h-.16a8.2,8.2,0,0,1-2.4-.512,3.137,3.137,0,0,1-2.24-2.96,4.89,4.89,0,0,1,1.968-3.7A8.125,8.125,0,0,1,192.992-9.9a7.421,7.421,0,0,1,1.792-.208l-.1-1.2a10.741,10.741,0,0,1-1.9.176c-2.064.1-7.184.384-9.088.528-.5.032-.688.048-.912.048h-.576Z" transform="translate(218.05 58)"/>
  </g>
</svg>
