<svg id="グループ_873" data-name="グループ 873" xmlns="http://www.w3.org/2000/svg" width="980" height="315.95" viewBox="0 0 980 315.95">
  <defs>
    <style>
      .cls-1 {
        fill: #fff;
      }

      .cls-2 {
        font-size: 16px;
      }

      .cls-2, .cls-5, .cls-7, .cls-8 {
        font-family: YuMin-Medium, YuMincho;
        font-weight: 500;
        letter-spacing: 0.03em;
      }

      .cls-3 {
        fill: #575656;
      }

      .cls-4 {
        fill: none;
      }

      .cls-5 {
        font-size: 24px;
      }

      .cls-6 {
        fill: #f8f4ff;
        stroke: #c7b9db;
      }

      .cls-7, .cls-8 {
        font-size: 18px;
      }

      .cls-8 {
        fill: #3a3a3a;
      }

      .cls-9 {
        stroke: none;
      }
    </style>
  </defs>
  <rect id="長方形_200" data-name="長方形 200" class="cls-1" width="978.025" height="312" transform="translate(1.97)"/>
  <text id="かつらご希望の方は_以下のオプション料金が発生します_" data-name="かつらご希望の方は、以下のオプション料金が発生します。" class="cls-2" transform="translate(40 104)"><tspan x="0" y="14">かつらご希望の方は、以下のオプション料金が発生します。</tspan></text>
  <g id="グループ_849" data-name="グループ 849" transform="translate(0)">
    <g id="グループ_583" data-name="グループ 583" transform="translate(2.32 204.412)">
      <g id="グループ_578" data-name="グループ 578" transform="translate(822.96)">
        <g id="グループ_577" data-name="グループ 577">
          <path id="パス_2909" data-name="パス 2909" class="cls-3" d="M2974.539,1887.688v92.464H2836.594v-1.387h126.782c5.022,0,9.094-2.73,9.094-6.1v-84.98Z" transform="translate(-2820.824 -1871.18)"/>
          <g id="グループ_575" data-name="グループ 575" transform="translate(151.646)">
            <rect id="長方形_133" data-name="長方形 133" class="cls-3" width="2.069" height="11.816"/>
          </g>
          <g id="グループ_576" data-name="グループ 576" transform="translate(0 107.585)">
            <rect id="長方形_134" data-name="長方形 134" class="cls-3" width="10.223" height="1.387"/>
          </g>
        </g>
      </g>
      <g id="グループ_582" data-name="グループ 582" transform="translate(0)">
        <g id="グループ_581" data-name="グループ 581">
          <path id="パス_2910" data-name="パス 2910" class="cls-3" d="M611.051,1887.688v92.464H749v-1.387H622.215c-5.023,0-9.095-2.73-9.095-6.1v-84.98Z" transform="translate(-611.051 -1871.18)"/>
          <g id="グループ_579" data-name="グループ 579" transform="translate(0)">
            <rect id="長方形_135" data-name="長方形 135" class="cls-3" width="2.069" height="11.816"/>
          </g>
          <g id="グループ_580" data-name="グループ 580" transform="translate(143.492 107.585)">
            <rect id="長方形_136" data-name="長方形 136" class="cls-3" width="10.223" height="1.387"/>
          </g>
        </g>
      </g>
    </g>
    <g id="グループ_592" data-name="グループ 592" transform="translate(2.32)">
      <g id="グループ_587" data-name="グループ 587" transform="translate(822.96)">
        <g id="グループ_586" data-name="グループ 586">
          <path id="パス_2911" data-name="パス 2911" class="cls-3" d="M2974.539,622.494V530.03H2836.594v1.387h126.782c5.022,0,9.094,2.73,9.094,6.1v84.981Z" transform="translate(-2820.824 -530.03)"/>
          <g id="グループ_584" data-name="グループ 584" transform="translate(151.646 97.156)">
            <rect id="長方形_137" data-name="長方形 137" class="cls-3" width="2.069" height="11.816"/>
          </g>
          <g id="グループ_585" data-name="グループ 585" transform="translate(0 0)">
            <rect id="長方形_138" data-name="長方形 138" class="cls-3" width="10.223" height="1.387"/>
          </g>
        </g>
      </g>
      <g id="グループ_591" data-name="グループ 591" transform="translate(0)">
        <g id="グループ_590" data-name="グループ 590">
          <path id="パス_2912" data-name="パス 2912" class="cls-3" d="M611.051,622.494V530.03H749v1.387H622.215c-5.023,0-9.095,2.73-9.095,6.1v84.981Z" transform="translate(-611.051 -530.03)"/>
          <g id="グループ_588" data-name="グループ 588" transform="translate(0 97.156)">
            <rect id="長方形_139" data-name="長方形 139" class="cls-3" width="2.069" height="11.816"/>
          </g>
          <g id="グループ_589" data-name="グループ 589" transform="translate(143.492 0)">
            <rect id="長方形_140" data-name="長方形 140" class="cls-3" width="10.223" height="1.387"/>
          </g>
        </g>
      </g>
    </g>
    <g id="グループ_609" data-name="グループ 609" transform="translate(976.906 56.664)">
      <rect id="長方形_141" data-name="長方形 141" class="cls-3" width="2.089" height="139.14" transform="translate(0)"/>
    </g>
    <g id="グループ_610" data-name="グループ 610" transform="translate(0.231 115.383)">
      <rect id="長方形_142" data-name="長方形 142" class="cls-3" width="2.089" height="82.709" transform="translate(0 0)"/>
    </g>
    <g id="グループ_612" data-name="グループ 612" transform="translate(149.104 311.997)">
      <rect id="長方形_144" data-name="長方形 144" class="cls-3" width="680.869" height="1.387" transform="translate(0)"/>
    </g>
    <rect id="長方形_7" data-name="長方形 7" class="cls-4" width="978.675" height="315.95"/>
    <rect id="長方形_143" data-name="長方形 143" class="cls-3" width="794.685" height="1.387" transform="translate(134.265 0)"/>
  </g>
  <text id="かつらオプションについて" class="cls-5" transform="translate(42 61)"><tspan x="0" y="0">かつらオプションについて</tspan></text>
  <rect id="長方形_201" data-name="長方形 201" class="cls-4" width="978.061" height="77.07" transform="translate(1.939 1)"/>
  <g id="グループ_1574" data-name="グループ 1574" transform="translate(-190 -2538)">
    <g id="長方形_1504" data-name="長方形 1504" class="cls-6" transform="translate(230 2698)">
      <rect class="cls-9" width="90" height="30" rx="6"/>
      <rect class="cls-4" x="0.5" y="0.5" width="89" height="29" rx="5.5"/>
    </g>
    <g id="長方形_1505" data-name="長方形 1505" class="cls-6" transform="translate(539 2698)">
      <rect class="cls-9" width="53" height="30" rx="6"/>
      <rect class="cls-4" x="0.5" y="0.5" width="52" height="29" rx="5.5"/>
    </g>
    <text id="高島田_かつら_" data-name="高島田（かつら）" class="cls-2" transform="translate(230 2760)"><tspan x="0" y="0">高島田（かつら）</tspan></text>
    <text id="_27_500" data-name="¥27,500" class="cls-7" transform="translate(434 2760)"><tspan x="0" y="0">¥27,500</tspan></text>
    <text id="角かくし_ちりめん無地_" data-name="角かくし（ちりめん無地）" class="cls-2" transform="translate(539 2760)"><tspan x="0" y="0">角かくし（ちりめん無地）</tspan></text>
    <text id="_4_950" data-name="  ¥4,950" class="cls-7" transform="translate(816 2760)"><tspan x="0" y="0" xml:space="preserve">  ¥4,950</tspan></text>
    <text id="べっ甲かんざし" class="cls-2" transform="translate(230 2786)"><tspan x="0" y="0">べっ甲かんざし</tspan></text>
    <text id="_11_000" data-name="¥11,000" class="cls-7" transform="translate(434 2786)"><tspan x="0" y="0">¥11,000</tspan></text>
    <text id="綿帽子_ちりめん無地_" data-name="綿帽子（ちりめん無地）" class="cls-2" transform="translate(539 2786)"><tspan x="0" y="0">綿帽子（ちりめん無地）</tspan></text>
    <text id="_14_850" data-name="¥14,850" class="cls-7" transform="translate(817 2786)"><tspan x="0" y="0">¥14,850</tspan></text>
    <text id="色かんざし" class="cls-2" transform="translate(230 2812)"><tspan x="0" y="0">色かんざし</tspan></text>
    <text id="_16_500" data-name="¥16,500" class="cls-7" transform="translate(434 2812)"><tspan x="0" y="0">¥16,500</tspan></text>
    <text id="レンタル" class="cls-8" transform="translate(312 2720)"><tspan x="-73.62" y="0">レンタル</tspan></text>
    <text id="販売" class="cls-8" transform="translate(584 2720)"><tspan x="-36.54" y="0">販売</tspan></text>
  </g>
</svg>
