<svg xmlns="http://www.w3.org/2000/svg" width="343.028" height="375" viewBox="0 0 343.028 375">
  <g id="グループ_1801" data-name="グループ 1801" transform="translate(-135.342)">
    <rect id="長方形_200" data-name="長方形 200" width="342.337" height="375" transform="translate(136.032)" fill="#fff"/>
    <path id="パス_3921" data-name="パス 3921" d="M1.164,5.228a6.867,6.867,0,0,1,.7-.156c.108-.024.684-.12,1.716-.276a19.81,19.81,0,0,1-1.32,3.8,11.508,11.508,0,0,1-1.248,2.172l.816.48c.372-.672.624-1.152.78-1.44A22.639,22.639,0,0,0,4.416,4.724a6.89,6.89,0,0,1,.864-.06c1.116,0,1.476.408,1.476,1.68a9.289,9.289,0,0,1-.5,3.336q-.234.576-.684.576A4.486,4.486,0,0,1,3.78,9.7a2.324,2.324,0,0,1,.036.48,2.61,2.61,0,0,1-.024.42,4.515,4.515,0,0,0,1.812.468,1.253,1.253,0,0,0,1.176-.564,8.271,8.271,0,0,0,.8-4.128A2.422,2.422,0,0,0,7,4.448a2.293,2.293,0,0,0-1.728-.5,6.993,6.993,0,0,0-.708.036c.108-.576.192-1.02.252-1.368A7.377,7.377,0,0,1,5.04,1.46l-.96-.108v.156a14.667,14.667,0,0,1-.36,2.544c-.972.156-2.22.3-2.652.312Zm7.08-1.584a9.823,9.823,0,0,1,2.448,4.308l.768-.444A10.851,10.851,0,0,0,8.952,3.26Zm5.4,1.464a5.273,5.273,0,0,1,.864-.288,19.061,19.061,0,0,1,4.9-.852c1.632,0,2.628.816,2.628,2.16s-.924,2.424-2.568,3.024a10.738,10.738,0,0,1-3.336.552,2.116,2.116,0,0,1,.372.888,10.363,10.363,0,0,0,3.972-.912,3.931,3.931,0,0,0,2.5-3.54c0-1.836-1.392-3-3.588-3a16.031,16.031,0,0,0-3.48.444,16.088,16.088,0,0,1-2.5.5ZM28.536,2.3a13.365,13.365,0,0,0,1.836.756,18.509,18.509,0,0,0,2.34.684l.336-.84A14.467,14.467,0,0,1,28.98,1.568Zm-1,1.3a4.036,4.036,0,0,1-.084.636c-.168,1.008-.384,2.4-.5,3.312-.048.384-.06.492-.1.708l.936.024a2.086,2.086,0,0,1,.48-.492,5.814,5.814,0,0,1,3.36-1.044c1.464,0,2.328.576,2.328,1.56,0,1.224-1.26,2.016-3.24,2.016a8.523,8.523,0,0,1-3.06-.6,2.776,2.776,0,0,1,.084.744,1.892,1.892,0,0,1-.012.228c.732.18.732.18.96.24a9.97,9.97,0,0,0,2.1.216,4.981,4.981,0,0,0,2.988-.792,2.566,2.566,0,0,0,1.08-2.064c0-1.4-1.26-2.316-3.216-2.316A5.94,5.94,0,0,0,28.176,7a3.361,3.361,0,0,0-.372.36l-.024-.012a1.446,1.446,0,0,0,.048-.276c.036-.276.06-.36.348-2.1a10.043,10.043,0,0,1,.276-1.32Zm12.9,2.7a3.153,3.153,0,0,0-1.38,2.316,1.912,1.912,0,0,0,1.368,1.812,8.466,8.466,0,0,0,2.76.372,19.575,19.575,0,0,0,3.24-.276,3.729,3.729,0,0,1,.408-.06l-.108-.984a11.384,11.384,0,0,1-3.6.456,7.641,7.641,0,0,1-2.2-.24c-.672-.228-1.02-.624-1.02-1.176s.36-1.116,1.14-1.764Zm-.72-3.072c.168.012.168.012.4.036a23.474,23.474,0,0,0,2.64.156,9.485,9.485,0,0,0,1.812-.156,18.662,18.662,0,0,0-2.124,1.272l.612.492A18.3,18.3,0,0,1,46.08,3.2l-.06-.792a13.123,13.123,0,0,1-3.036.252,13.719,13.719,0,0,1-3.192-.288ZM45.18,4.76A9.358,9.358,0,0,1,46.4,6.668l.6-.36a9.565,9.565,0,0,0-1.224-1.86Zm1.332-.7a10.064,10.064,0,0,1,1.224,1.884l.6-.336A9.252,9.252,0,0,0,47.088,3.74ZM53.172,7.2A11.527,11.527,0,0,0,54.4,5.636h5.028a7.592,7.592,0,0,1,1.332.072V4.88a8.677,8.677,0,0,1-1.332.072h-4.6l.192-.336c.24-.456.264-.492.336-.624l-.828-.2A3.929,3.929,0,0,1,54,4.952H51.492a9.013,9.013,0,0,1-1.368-.072v.828a9.038,9.038,0,0,1,1.368-.072h2.064a11.393,11.393,0,0,1-3.612,3.276,2.254,2.254,0,0,1,.492.612,14.817,14.817,0,0,0,1.98-1.548v2.136a8.413,8.413,0,0,1-.072,1.212h.864a7.2,7.2,0,0,1-.06-1.212V7.868h2.328v2.808a8.73,8.73,0,0,1-.072,1.248h.876a6.328,6.328,0,0,1-.072-1.248V7.868h2.6v2.244c0,.288-.1.348-.5.348a4.728,4.728,0,0,1-1.044-.12,3.232,3.232,0,0,1,.156.768c.288.024.648.048.828.048,1.056,0,1.3-.18,1.3-.924V8.072a7.056,7.056,0,0,1,.048-.924,9.559,9.559,0,0,1-1.1.048h-2.28a5.094,5.094,0,0,1,.06-1.1h-.852a5.168,5.168,0,0,1,.06,1.1Zm6.012-3.264C58.1,3.38,57.1,2.876,56.592,2.648a17.55,17.55,0,0,0,2.04-1.2,2.414,2.414,0,0,1,.348-.2L58.14.812a8.712,8.712,0,0,1-2.4,1.464c-.984-.42-1.944-.78-3.132-1.188l-.648.48c.888.276,2.064.7,2.9,1.056a16.2,16.2,0,0,1-4,.936,3.17,3.17,0,0,1,.456.7,19.915,19.915,0,0,0,4.44-1.248,25.761,25.761,0,0,1,2.784,1.44ZM71.952,4.988a2.375,2.375,0,0,1-.276.924c-.084.108-.228.144-.528.144a6.939,6.939,0,0,1-1.188-.12,1.949,1.949,0,0,1,.192.72c.408.036.708.048.984.048a1.52,1.52,0,0,0,.888-.156c.276-.168.444-.54.576-1.212a28.041,28.041,0,0,0,.324-3.252,5.445,5.445,0,0,1,.048-.72,9.966,9.966,0,0,1-1.188.048H69.672c-.492,0-.9-.024-1.164-.048a3.039,3.039,0,0,1,.048.6,7.935,7.935,0,0,1-.372,2.568A4.076,4.076,0,0,1,66.912,6.5a1.844,1.844,0,0,1,.636.456,4.842,4.842,0,0,0,1.224-1.968Zm.18-1.428c-.036.4-.048.492-.1.864H68.952a5.767,5.767,0,0,0,.18-.864Zm.036-.576H69.2c.036-.276.036-.444.06-.924h2.964ZM65.616,2.2v-.24A4.667,4.667,0,0,1,65.688,1h-.876a5.969,5.969,0,0,1,.06.96V2.2H63.588a6.238,6.238,0,0,1-1.056-.06v.768a4.712,4.712,0,0,1,.924-.06v2.3c0,.672.384.852,1.824.852a19.234,19.234,0,0,0,1.992-.084l-.012-.732a10.386,10.386,0,0,1-1.8.132c-1.08,0-1.284-.06-1.284-.372v-2.1h2.556a6.343,6.343,0,0,1,1.044.06V2.144a6.083,6.083,0,0,1-1.044.06Zm1.7,5.628V8.924H65.172A6.688,6.688,0,0,1,63.9,8.852V9.62a9.6,9.6,0,0,1,1.272-.06H67.32v1.26H63.8a9.108,9.108,0,0,1-1.308-.06v.792a12.178,12.178,0,0,1,1.356-.072H71.7a12,12,0,0,1,1.38.072V10.76a9.18,9.18,0,0,1-1.332.06H68.076V9.56h2.376a9.209,9.209,0,0,1,1.248.06V8.852a6.4,6.4,0,0,1-1.248.072H68.076V7.832H71.16a7.449,7.449,0,0,1,1.308.072v-.78A6.972,6.972,0,0,1,71.16,7.2H64.428a6.972,6.972,0,0,1-1.308-.072V7.9a6.9,6.9,0,0,1,1.308-.072ZM80.808,3.044a3.453,3.453,0,0,1,1.392.3,3.163,3.163,0,0,1,1.908,3.012,3.622,3.622,0,0,1-2.124,3.36,7.193,7.193,0,0,1-2,.564,1.907,1.907,0,0,1,.42.8,9.283,9.283,0,0,0,1.824-.552,4.369,4.369,0,0,0,2.748-4.14,4.017,4.017,0,0,0-1.164-2.928,4.645,4.645,0,0,0-3.3-1.188,5.012,5.012,0,0,0-3.876,1.6,4.992,4.992,0,0,0-1.26,3.312c0,1.68.852,2.928,1.992,2.928.864,0,1.572-.72,2.268-2.3A17.988,17.988,0,0,0,80.808,3.044Zm-.864.012A16.482,16.482,0,0,1,78.852,7.5c-.516,1.176-1,1.74-1.5,1.74-.648,0-1.152-.888-1.152-2.04A4.15,4.15,0,0,1,78.156,3.62,3.79,3.79,0,0,1,79.944,3.056Zm12.072-.024H88.6a8.076,8.076,0,0,1-1.332-.084v.9a9.306,9.306,0,0,1,1.344-.072h2.52c-.1,2.52-.564,4.152-1.548,5.424a6.219,6.219,0,0,1-2.436,1.944,2.322,2.322,0,0,1,.588.672,7.179,7.179,0,0,0,1.308-.876,7.655,7.655,0,0,0,1.488-1.656,8.063,8.063,0,0,0,1.14-3.072h3.768a23.01,23.01,0,0,1-.372,3.636c-.18.888-.3,1.032-.816,1.032a9.713,9.713,0,0,1-1.812-.192,2.614,2.614,0,0,1,.192.852c.648.072,1.284.108,1.668.108.96,0,1.248-.252,1.5-1.284a25.109,25.109,0,0,0,.456-4.092c.024-.468.036-.6.06-.84a7.635,7.635,0,0,1-1.236.06H91.8a16.633,16.633,0,0,0,.168-1.716h4.548a7.5,7.5,0,0,1,1.356.072v-.9a8.43,8.43,0,0,1-1.38.084H92.82v-.9a5.844,5.844,0,0,1,.072-1.056h-.96a6.606,6.606,0,0,1,.084,1.056Zm11.268,1.776h.048a.551.551,0,0,1,.12.012,1.787,1.787,0,0,1,.2.012,3.147,3.147,0,0,1,.384.024c.42.024.864.036,1.356.036.456,0,.828-.012,1.368-.036.036,1.752.084,2.88.12,3.132a3.39,3.39,0,0,0-1.332-.24c-1.332,0-2.28.708-2.28,1.7,0,1.044.876,1.7,2.268,1.7a2.049,2.049,0,0,0,2-1.008,2.069,2.069,0,0,0,.144-.816,1.722,1.722,0,0,0-.024-.312.842.842,0,0,1,.108.072.77.77,0,0,0,.12.072,6.484,6.484,0,0,1,1.7,1.248l.372-.84c-.132-.084-.156-.108-.3-.2a8.686,8.686,0,0,0-2-1.176c-.1-1.6-.12-2.208-.132-3.4A11.472,11.472,0,0,0,108.8,4.6c.816-.168.816-.168.84-.168l-.036-.816a8.179,8.179,0,0,1-2.076.444c-.012-.264-.012-.456-.012-.588a12.278,12.278,0,0,1,.084-1.884h-.9a2.662,2.662,0,0,1,.036.492c0,.912,0,.912.012,2.04-.492.024-.816.036-1.284.036a8.307,8.307,0,0,1-2.16-.192ZM106.9,8.72s.012.276.012.36a1.4,1.4,0,0,1-.228.936,1.654,1.654,0,0,1-1.224.42c-.84,0-1.392-.384-1.392-.972s.612-1,1.548-1A3.1,3.1,0,0,1,106.9,8.72ZM101.16,1.58a5.528,5.528,0,0,1-.132.756,20.332,20.332,0,0,0-.624,4.932,19.1,19.1,0,0,0,.336,3.564c.048.276.06.336.072.444l.852-.084a1.308,1.308,0,0,1-.024-.24,10.362,10.362,0,0,1,1.032-3.408l-.588-.276a1.655,1.655,0,0,1-.1.24,10.652,10.652,0,0,0-.708,2.112l-.048-.012V9.38c-.012-.216-.012-.24-.012-.336-.024-.552-.048-1.26-.048-1.68a17.1,17.1,0,0,1,.924-5.628Zm10.632,7.6a11.977,11.977,0,0,1,2.364,2.616l.672-.636a12.227,12.227,0,0,0-2.412-2.544Zm21.12-7.788a4.605,4.605,0,0,1,.036.624,13.115,13.115,0,0,1-.384,3.18,7.685,7.685,0,0,1-3.276,4.752,10.4,10.4,0,0,1-2.4,1.188,2.358,2.358,0,0,1,.516.72,9.587,9.587,0,0,0,4.392-3.2,8.335,8.335,0,0,0,1.008,1.44,8.874,8.874,0,0,0,1.848,1.668,2.947,2.947,0,0,1,.54-.768,7.6,7.6,0,0,1-2.94-3.036,8.779,8.779,0,0,0,.96-2.184,18.357,18.357,0,0,0,.54-3.168,9.532,9.532,0,0,1,.1-1.188Zm-7.308,7.7a11.025,11.025,0,0,1-1.32.4l.264.876a5.448,5.448,0,0,1,.708-.3,27.391,27.391,0,0,0,4.7-2.244l-.156-.744a14.869,14.869,0,0,1-1.836,1.008c-.516.252-.912.432-1.572.7l-.06-6.084V2.552a7.747,7.747,0,0,1,.072-1.128h-.96a6.979,6.979,0,0,1,.1,1.26Zm2.34-6.408a13.681,13.681,0,0,1,2.268,2.928l.72-.5A17.911,17.911,0,0,0,128.6,2.24Zm13.308-.192v7.884a8.823,8.823,0,0,1-.084,1.416h1a8.727,8.727,0,0,1-.084-1.416V4.724a13.4,13.4,0,0,1,1.248.66,17.978,17.978,0,0,1,2.544,1.68l.468-.744a25.893,25.893,0,0,0-4.26-2.46V2.492h3.768a11.781,11.781,0,0,1,1.392.072V1.676a11.359,11.359,0,0,1-1.392.072h-7.776a11.165,11.165,0,0,1-1.4-.072v.888a11.712,11.712,0,0,1,1.4-.072Zm13.716.552a3.453,3.453,0,0,1,1.392.3,3.163,3.163,0,0,1,1.908,3.012,3.622,3.622,0,0,1-2.124,3.36,7.193,7.193,0,0,1-2,.564,1.907,1.907,0,0,1,.42.8,9.283,9.283,0,0,0,1.824-.552,4.369,4.369,0,0,0,2.748-4.14,4.017,4.017,0,0,0-1.164-2.928,4.645,4.645,0,0,0-3.3-1.188,5.012,5.012,0,0,0-3.876,1.6,4.992,4.992,0,0,0-1.26,3.312c0,1.68.852,2.928,1.992,2.928.864,0,1.572-.72,2.268-2.3A17.988,17.988,0,0,0,154.968,3.044Zm-.864.012a16.482,16.482,0,0,1-1.092,4.44c-.516,1.176-1,1.74-1.5,1.74-.648,0-1.152-.888-1.152-2.04a4.15,4.15,0,0,1,1.956-3.576A3.79,3.79,0,0,1,154.1,3.056Zm13.7,2.7v.072l.048,4.416v.264a7.094,7.094,0,0,1-.048.948h.972a10.893,10.893,0,0,1-.06-1.224l-.084-5.844h1.788a9.819,9.819,0,0,1,1,.036V3.548a6.064,6.064,0,0,1-1.2.072h-1.584l-.024-1.2V2.132a4.609,4.609,0,0,1,.048-.66h-.96a5.72,5.72,0,0,1,.06.972l.012,1.176-4.368.024a6.781,6.781,0,0,1-1.356-.084v.9a9.429,9.429,0,0,1,1.332-.048l3.936-.024a11.567,11.567,0,0,1-1.728,2.184A13.623,13.623,0,0,1,161.52,9.44a1.935,1.935,0,0,1,.6.72,18.459,18.459,0,0,0,1.98-1.236,14,14,0,0,0,2.844-2.652,7.474,7.474,0,0,0,.9-1.344c-.024.516-.036.7-.036.78Zm14.148-3.144h-5.9A8.507,8.507,0,0,1,174.7,2.54V3.5a8.86,8.86,0,0,1,1.344-.072h6.108a9.724,9.724,0,0,1-2.1,4.272,9.636,9.636,0,0,1-4.392,2.724,2.374,2.374,0,0,1,.588.828,11.136,11.136,0,0,0,4.368-2.844,10.717,10.717,0,0,0,2.448-4.776l.024-.072a1.414,1.414,0,0,0,.42.06,1.362,1.362,0,1,0-1.356-1.356,1.271,1.271,0,0,0,.048.348Zm1.56-1.212a.858.858,0,1,1-.864.852A.855.855,0,0,1,183.516,1.4Zm4.56,1.1a12.619,12.619,0,0,1,2.952,1.584l.492-.8a17.743,17.743,0,0,0-2.976-1.512Zm-.948,2.868a13.323,13.323,0,0,1,3.06,1.644l.468-.8a18.3,18.3,0,0,0-3.048-1.572Zm.408,5.748a2.816,2.816,0,0,1,.468-.132c.24-.048.456-.1.648-.132a13.707,13.707,0,0,0,3.036-1.032,9.406,9.406,0,0,0,4.62-5.172,3.618,3.618,0,0,1-.744-.636,8.936,8.936,0,0,1-1.44,2.688,7.9,7.9,0,0,1-3.6,2.676,10.377,10.377,0,0,1-3.228.744Zm18.456-.072v.6h.828a3.785,3.785,0,0,1-.048-.744V5.48c0-.42,0-.612.012-.924-.216.012-.432.024-.816.024H201.5a5.972,5.972,0,0,1-1.044-.072v.828a5.429,5.429,0,0,1,1.044-.048h4.488V7.376H201.78a5.972,5.972,0,0,1-1.044-.072V8.12a5.283,5.283,0,0,1,1.032-.048h4.224v2.256h-4.608a6.164,6.164,0,0,1-1.044-.072v.84a5.358,5.358,0,0,1,1.044-.048Zm6-7.884a13.251,13.251,0,0,1,2.856,2.352l.624-.744a15.632,15.632,0,0,0-2.892-2.256Zm.084,7.8a6.306,6.306,0,0,1,.72-.192,12.1,12.1,0,0,0,4.476-1.788,10.525,10.525,0,0,0,3.66-4.584,2.4,2.4,0,0,1-.732-.708,9.067,9.067,0,0,1-4.9,5.34,10.445,10.445,0,0,1-3.492.924ZM231.9,8.036l-3.276.78a6.52,6.52,0,0,1-1.152.192l.156.852a8.3,8.3,0,0,1,1.116-.324l3.156-.768V10.58a7.043,7.043,0,0,1-.072,1.32h.912a9.318,9.318,0,0,1-.072-1.308v-2l.276-.072a8.437,8.437,0,0,1,1.152-.2l-.144-.84a7.505,7.505,0,0,1-1.1.336l-.18.036V2.324a8.616,8.616,0,0,1,.072-1.248h-.912a7.619,7.619,0,0,1,.072,1.26Zm-6.66-2.2a9.685,9.685,0,0,1-.672,1.608,7.611,7.611,0,0,1-1.428,2.016,2.521,2.521,0,0,1,.456.672A9.115,9.115,0,0,0,225.444,6.7c-.036.636-.06,1.308-.06,1.86V10.6a10.591,10.591,0,0,1-.072,1.332h.876a9.876,9.876,0,0,1-.072-1.32V8.372c0-.228-.036-1.3-.06-1.776a7.1,7.1,0,0,0,1.4,2.112,4.192,4.192,0,0,1,.42-.648,7.173,7.173,0,0,1-1.716-2.22h.66a6.342,6.342,0,0,1,.9.048V5.132a5.751,5.751,0,0,1-.888.048h-.72V2.336a8,8,0,0,1,.072-1.272h-.876a8.49,8.49,0,0,1,.072,1.284V5.18h-.948a5.433,5.433,0,0,1-1.044-.06V5.9a5.914,5.914,0,0,1,1.044-.06ZM223.452,2.1a10.618,10.618,0,0,1,.792,2.568l.636-.276a14.08,14.08,0,0,0-.8-2.568Zm3.876-.312a8.956,8.956,0,0,1-.876,2.6l.588.276a13.55,13.55,0,0,0,.972-2.616Zm1.212.72a10.158,10.158,0,0,1,2.184,1.944l.492-.624a12.3,12.3,0,0,0-2.16-1.872Zm-.372,3a8.829,8.829,0,0,1,2.172,1.872l.5-.6A10.632,10.632,0,0,0,228.7,4.952Zm12.18-.3V6.836H237.24a7.877,7.877,0,0,1-1.176-.072V7.6a8.16,8.16,0,0,1,1.164-.072h3.12V10.7h-3.276a11.076,11.076,0,0,1-1.368-.072v.864a10.467,10.467,0,0,1,1.368-.084h7.56a8.827,8.827,0,0,1,1.32.084v-.864a10.057,10.057,0,0,1-1.308.072h-3.516V7.532h3.348a8.1,8.1,0,0,1,1.176.072v-.84a7.658,7.658,0,0,1-1.176.072h-3.348V5.2h1.464a6.88,6.88,0,0,1,1.1.06V4.52a12.854,12.854,0,0,0,2.34,1.224,3.719,3.719,0,0,1,.48-.768,10.751,10.751,0,0,1-3.132-1.608A8.134,8.134,0,0,1,241.236,1.2h-.924A9.825,9.825,0,0,1,235.248,5a2.585,2.585,0,0,1,.5.708,11.463,11.463,0,0,0,2.184-1.164v.72a7.232,7.232,0,0,1,1.116-.06Zm-1.308-.66a7.25,7.25,0,0,1-1.02-.048,10,10,0,0,0,2.76-2.628A10.881,10.881,0,0,0,243.648,4.5a7.731,7.731,0,0,1-1.056.048Zm-1.764,3.672a9.071,9.071,0,0,1,1.044,2.136l.7-.276A12.2,12.2,0,0,0,237.96,7.9Zm6.3-.288a8.1,8.1,0,0,1-1.2,2.268l.672.276a14.381,14.381,0,0,0,1.284-2.232Zm12.36-6.348a9.2,9.2,0,0,1,1.236,1.908l.6-.36a9.111,9.111,0,0,0-1.236-1.86Zm-7.728,3.7a15.622,15.622,0,0,1,2.412-.432,17.708,17.708,0,0,1-2.568,5.976l.816.48a23.306,23.306,0,0,0,2.592-6.528,6.89,6.89,0,0,1,.864-.06c1.116,0,1.476.408,1.476,1.68a9.289,9.289,0,0,1-.5,3.336q-.234.576-.684.576a4.486,4.486,0,0,1-1.788-.552,2.214,2.214,0,0,1,.036.468,2.681,2.681,0,0,1-.024.432,4.515,4.515,0,0,0,1.812.468,1.253,1.253,0,0,0,1.176-.564,8.271,8.271,0,0,0,.8-4.128A2.422,2.422,0,0,0,254.04,4.5a2.293,2.293,0,0,0-1.728-.5,6.993,6.993,0,0,0-.708.036c.1-.516.2-1.068.252-1.368a7.376,7.376,0,0,1,.228-1.152l-.96-.108v.156a14.821,14.821,0,0,1-.36,2.544,24.616,24.616,0,0,1-2.652.312ZM257.3.944a8.69,8.69,0,0,1,1.224,1.884l.6-.348A9.638,9.638,0,0,0,257.892.62ZM255.288,3.68a10.133,10.133,0,0,1,2.448,4.308l.768-.432A10.989,10.989,0,0,0,256,3.308Zm6.552,3.948a7.723,7.723,0,0,1-1.188-.072v.816A8.284,8.284,0,0,1,261.84,8.3h1.776a3.121,3.121,0,0,1-1.392,2.04,5.68,5.68,0,0,1-1.836.852,2.718,2.718,0,0,1,.564.684,6.455,6.455,0,0,0,1.2-.552,5.483,5.483,0,0,0,1.368-1.14,4.086,4.086,0,0,0,.852-1.884h2v2.472c0,.732.336.9,1.824.9,1.3,0,1.824-.1,2.076-.384A3.078,3.078,0,0,0,270.8,9.7a2.046,2.046,0,0,1-.768-.348,2.952,2.952,0,0,1-.312,1.356c-.168.192-.5.252-1.44.252a4.018,4.018,0,0,1-.924-.072c-.192-.06-.24-.132-.24-.324V8.3h2.136a8.347,8.347,0,0,1,1.2.072V7.556a7.789,7.789,0,0,1-1.2.072H267.12V5.9h.2a8.426,8.426,0,0,1,1.02.048V5.372a11.794,11.794,0,0,0,2.292,1.356,2.926,2.926,0,0,1,.468-.7,9.086,9.086,0,0,1-2.256-1.188,11.09,11.09,0,0,0,1-.972l.576-.636-.66-.432a7.949,7.949,0,0,1-1.428,1.656c-.4-.336-.684-.6-1.02-.936a11.643,11.643,0,0,0,1.236-1.3,1.917,1.917,0,0,1,.252-.276l-.66-.432a7.384,7.384,0,0,1-1.248,1.536,3.54,3.54,0,0,1-.924-1.632,7.273,7.273,0,0,1-1.068.048h-2.28a5.055,5.055,0,0,1-.864-.06V2.18a5.211,5.211,0,0,1,.78-.06H264.8a7.848,7.848,0,0,1-1.512,1.872,16.421,16.421,0,0,0-1.776-1.548l-.564.468a10.591,10.591,0,0,1,1.812,1.572,8.908,8.908,0,0,1-2.736,1.632,2.328,2.328,0,0,1,.48.624,10.029,10.029,0,0,0,2.328-1.38v.588a7.805,7.805,0,0,1,.984-.048,12.481,12.481,0,0,1-.084,1.728ZM266.376,5.9V7.628h-1.884a13.336,13.336,0,0,0,.084-1.728Zm-2.46-.648a8.971,8.971,0,0,1-.9-.036,10.868,10.868,0,0,0,2.544-2.988,9.127,9.127,0,0,0,2.58,2.988,7.789,7.789,0,0,1-.852.036ZM277.68,4.28V6.86h-2.2a8.311,8.311,0,0,1-1.272-.072v.84a8.868,8.868,0,0,1,1.272-.072h2.2V10.7h-3.564a9.266,9.266,0,0,1-1.4-.084v.876a9.762,9.762,0,0,1,1.416-.084h7.716a9.7,9.7,0,0,1,1.4.084v-.876a9.228,9.228,0,0,1-1.416.084h-3.348V7.556h2.424a9.055,9.055,0,0,1,1.284.072v-.84a8.382,8.382,0,0,1-1.284.072h-2.424V4.28h2.964a11.719,11.719,0,0,1,1.356.072V3.5a11.353,11.353,0,0,1-1.368.072h-2.952V2.3a8.069,8.069,0,0,1,.084-1.272H277.6A8.712,8.712,0,0,1,277.68,2.3V3.572h-2.52c.252-.66.4-1.056.432-1.164a4.874,4.874,0,0,1,.24-.636l-.9-.24a3.6,3.6,0,0,1-.264,1.128,9.83,9.83,0,0,1-2.148,3.684,2.351,2.351,0,0,1,.684.5,11.361,11.361,0,0,0,1.644-2.568ZM2.784,23.24a3.691,3.691,0,0,1,.048.636c0,.192,0,.42-.012.78-.1,3.78-.108,4.08-.108,4.884A3.343,3.343,0,0,0,3.372,32a2.846,2.846,0,0,0,2.256.84,4.2,4.2,0,0,0,3.384-1.5,7.3,7.3,0,0,0,1.332-2.724,3.394,3.394,0,0,1-.864-.576,7.129,7.129,0,0,1-.588,1.884,3.446,3.446,0,0,1-3.216,2.088,2.265,2.265,0,0,1-1.5-.468,1.889,1.889,0,0,1-.564-1.44c-.012-.276-.024-.576-.024-.72,0-.54.036-2.172.084-3.612a18.5,18.5,0,0,1,.156-2.532Zm20.076,8.4a4.1,4.1,0,0,1-.408-.276A10.5,10.5,0,0,0,19.1,29.612c-.048-1.164-.048-1.164-.072-1.836.888-.06,1.836-.156,2.664-.288.42-.06.54-.072.7-.084l-.048-.828a14.484,14.484,0,0,1-3.324.492c-.012-.636-.012-.636-.024-1.62a24.928,24.928,0,0,0,2.784-.288c.624-.084.624-.084.828-.1l-.06-.816A16.916,16.916,0,0,1,19,24.74a13.393,13.393,0,0,1,.084-1.692h-.924a9.4,9.4,0,0,1,.06,1.728c-.4,0-.8.012-1.044.012a14.908,14.908,0,0,1-3.072-.24l-.012.816a.98.98,0,0,1,.168-.012,1.456,1.456,0,0,1,.216.012c1.08.084,2.052.12,2.928.12.276,0,.468,0,.816-.012l.024,1.644c-.336.012-.756.012-1.068.012a14.728,14.728,0,0,1-2.748-.192l-.012.792h.1c.072,0,.168,0,.3.012.744.06,1.308.084,2.028.084.384,0,.984-.012,1.416-.024.012.312.012.54.024.7.012.348.012.6.024.708a.956.956,0,0,0,.012.132c0,.108,0,.108.012.144a5.337,5.337,0,0,0-1.08-.1A5.227,5.227,0,0,0,16,29.5c-1.056.24-1.68.864-1.68,1.656a1.569,1.569,0,0,0,.648,1.26,3.126,3.126,0,0,0,1.86.48,2.416,2.416,0,0,0,2.028-.756,2.084,2.084,0,0,0,.3-1.308,3.45,3.45,0,0,0-.024-.432c.324.132.6.252.8.36A9.656,9.656,0,0,1,22.38,32.48Zm-4.524-.972a1.572,1.572,0,0,1-.24,1.08,1.734,1.734,0,0,1-1.32.4c-1.044,0-1.644-.36-1.644-1s.78-1.068,1.968-1.068a4.405,4.405,0,0,1,1.224.132Zm13.02-6.06c-.816.024-1.752.048-2.9.1-1.932.072-1.932.072-2.28.072-.18,0-.264,0-.48-.012l.036.876c.8-.132,3.228-.252,5.64-.3v.624c0,.144.012.264.012.312,0,.444,0,.492.012.66A1.842,1.842,0,0,0,30,26.4a2,2,0,0,0-2.124,1.98,2.006,2.006,0,0,0,3.48,1.248,1.681,1.681,0,0,0,.324-.588,3.108,3.108,0,0,1-1.344,2.532,6.15,6.15,0,0,1-1.944.9,2.635,2.635,0,0,1,.528.756,7.633,7.633,0,0,0,1.9-.972,3.862,3.862,0,0,0,1.608-3.132,3.438,3.438,0,0,0-.288-1.416V25.328c.972-.024,1.1-.024,1.284-.024a21.328,21.328,0,0,1,2.292.06v-.852c-.4.048-1.32.072-3.588.084v-.132a9.934,9.934,0,0,1,.06-1.5h-.9a4.044,4.044,0,0,1,.048.7Zm-.036,3.5a1.345,1.345,0,0,1-1.4,1.416A1.16,1.16,0,0,1,28.68,28.34a1.27,1.27,0,0,1,1.332-1.26,1.535,1.535,0,0,1,.8.192A.869.869,0,0,1,31.32,28.112Zm7.02,1.668a1.8,1.8,0,1,0,1.8,1.8A1.8,1.8,0,0,0,38.34,29.78Zm0,.684a1.116,1.116,0,1,1-1.116,1.116A1.122,1.122,0,0,1,38.34,30.464Z" transform="translate(165.583 91)"/>
    <g id="グループ_849" data-name="グループ 849" transform="translate(0)">
      <g id="グループ_583" data-name="グループ 583" transform="translate(135.342 263.462)">
        <g id="グループ_578" data-name="グループ 578" transform="translate(203.775)">
          <g id="グループ_577" data-name="グループ 577">
            <path id="パス_2909" data-name="パス 2909" d="M2960.75,1887.688v92.464H2836.593v-1.387H2950.7c4.52,0,8.185-2.73,8.185-6.1v-84.98Z" transform="translate(-2822.401 -1871.18)" fill="#575656"/>
            <g id="グループ_575" data-name="グループ 575" transform="translate(136.487)">
              <rect id="長方形_133" data-name="長方形 133" width="1.862" height="11.816" fill="#575656"/>
            </g>
            <g id="グループ_576" data-name="グループ 576" transform="translate(0 107.585)">
              <rect id="長方形_134" data-name="長方形 134" width="9.201" height="1.387" fill="#575656"/>
            </g>
          </g>
        </g>
        <g id="グループ_582" data-name="グループ 582" transform="translate(0)">
          <g id="グループ_581" data-name="グループ 581">
            <path id="パス_2910" data-name="パス 2910" d="M611.051,1887.688v92.464H735.208v-1.387H621.1c-4.521,0-8.186-2.73-8.186-6.1v-84.98Z" transform="translate(-611.051 -1871.18)" fill="#575656"/>
            <g id="グループ_579" data-name="グループ 579" transform="translate(0)">
              <rect id="長方形_135" data-name="長方形 135" width="1.862" height="11.816" fill="#575656"/>
            </g>
            <g id="グループ_580" data-name="グループ 580" transform="translate(129.149 107.585)">
              <rect id="長方形_136" data-name="長方形 136" width="9.201" height="1.387" fill="#575656"/>
            </g>
          </g>
        </g>
      </g>
      <g id="グループ_592" data-name="グループ 592" transform="translate(135.342)">
        <g id="グループ_587" data-name="グループ 587" transform="translate(203.775)">
          <g id="グループ_586" data-name="グループ 586">
            <path id="パス_2911" data-name="パス 2911" d="M2960.75,622.494V530.03H2836.593v1.387H2950.7c4.52,0,8.185,2.73,8.185,6.1v84.981Z" transform="translate(-2822.401 -530.03)" fill="#575656"/>
            <g id="グループ_584" data-name="グループ 584" transform="translate(136.487 97.156)">
              <rect id="長方形_137" data-name="長方形 137" width="1.862" height="11.816" fill="#575656"/>
            </g>
            <g id="グループ_585" data-name="グループ 585" transform="translate(0 0)">
              <rect id="長方形_138" data-name="長方形 138" width="9.201" height="1.387" fill="#575656"/>
            </g>
          </g>
        </g>
        <g id="グループ_591" data-name="グループ 591" transform="translate(0)">
          <g id="グループ_590" data-name="グループ 590">
            <path id="パス_2912" data-name="パス 2912" d="M611.051,622.494V530.03H735.208v1.387H621.1c-4.521,0-8.186,2.73-8.186,6.1v84.981Z" transform="translate(-611.051 -530.03)" fill="#575656"/>
            <g id="グループ_588" data-name="グループ 588" transform="translate(0 97.156)">
              <rect id="長方形_139" data-name="長方形 139" width="1.862" height="11.816" fill="#575656"/>
            </g>
            <g id="グループ_589" data-name="グループ 589" transform="translate(129.149 0)">
              <rect id="長方形_140" data-name="長方形 140" width="9.201" height="1.387" fill="#575656"/>
            </g>
          </g>
        </g>
      </g>
      <g id="グループ_609" data-name="グループ 609" transform="translate(475.586 75.588)">
        <rect id="長方形_141" data-name="長方形 141" width="1.88" height="139.14" transform="translate(0)" fill="#575656"/>
      </g>
      <g id="グループ_610" data-name="グループ 610" transform="translate(135.551 144.595)">
        <rect id="長方形_142" data-name="長方形 142" width="1.88" height="82.709" transform="translate(0 0)" fill="#575656"/>
      </g>
      <g id="グループ_612" data-name="グループ 612" transform="translate(135.342 371.047)">
        <rect id="長方形_144" data-name="長方形 144" width="341.185" height="1.387" fill="#575656"/>
      </g>
      <rect id="長方形_7" data-name="長方形 7" width="341.836" height="375" transform="translate(135.342)" fill="none"/>
      <rect id="長方形_143" data-name="長方形 143" width="176.238" height="1.387" transform="translate(256.187 0)" fill="#575656"/>
    </g>
    <path id="パス_3920" data-name="パス 3920" d="M1.552-7.7A9.156,9.156,0,0,1,2.48-7.9c.144-.032.912-.16,2.288-.368A26.414,26.414,0,0,1,3.008-3.2,15.344,15.344,0,0,1,1.344-.3l1.088.64c.5-.9.832-1.536,1.04-1.92A30.186,30.186,0,0,0,5.888-8.368a9.187,9.187,0,0,1,1.152-.08c1.488,0,1.968.544,1.968,2.24A12.386,12.386,0,0,1,8.336-1.76q-.312.768-.912.768A5.981,5.981,0,0,1,5.04-1.728a3.1,3.1,0,0,1,.048.64,3.48,3.48,0,0,1-.032.56A6.02,6.02,0,0,0,7.472.1,1.671,1.671,0,0,0,9.04-.656c.656-.928,1.072-3.056,1.072-5.5a3.23,3.23,0,0,0-.784-2.576,3.058,3.058,0,0,0-2.3-.672,9.325,9.325,0,0,0-.944.048c.144-.768.256-1.36.336-1.824a9.836,9.836,0,0,1,.3-1.536l-1.28-.144v.208a19.556,19.556,0,0,1-.48,3.392c-1.3.208-2.96.4-3.536.416Zm9.44-2.112a13.1,13.1,0,0,1,3.264,5.744l1.024-.592a14.468,14.468,0,0,0-3.344-5.664Zm7.2,1.952a7.031,7.031,0,0,1,1.152-.384,25.414,25.414,0,0,1,6.528-1.136c2.176,0,3.5,1.088,3.5,2.88s-1.232,3.232-3.424,4.032a14.317,14.317,0,0,1-4.448.736A2.822,2.822,0,0,1,22-.544,13.818,13.818,0,0,0,27.3-1.76a5.241,5.241,0,0,0,3.328-4.72c0-2.448-1.856-4-4.784-4a21.375,21.375,0,0,0-4.64.592,21.451,21.451,0,0,1-3.328.672ZM38.048-11.6A17.82,17.82,0,0,0,40.5-10.592a24.679,24.679,0,0,0,3.12.912l.448-1.12a19.29,19.29,0,0,1-5.424-1.776ZM36.72-9.872a5.381,5.381,0,0,1-.112.848c-.224,1.344-.512,3.2-.672,4.416-.064.512-.08.656-.128.944l1.248.032a2.782,2.782,0,0,1,.64-.656,7.752,7.752,0,0,1,4.48-1.392c1.952,0,3.1.768,3.1,2.08,0,1.632-1.68,2.688-4.32,2.688a11.364,11.364,0,0,1-4.08-.8,3.7,3.7,0,0,1,.112.992,2.522,2.522,0,0,1-.016.3c.976.24.976.24,1.28.32a13.293,13.293,0,0,0,2.8.288A6.641,6.641,0,0,0,45.04-.864a3.421,3.421,0,0,0,1.44-2.752c0-1.872-1.68-3.088-4.288-3.088a7.92,7.92,0,0,0-4.624,1.376,4.481,4.481,0,0,0-.5.48l-.032-.016a1.928,1.928,0,0,0,.064-.368c.048-.368.08-.48.464-2.8a13.391,13.391,0,0,1,.368-1.76Zm22.224,2.88v.1l.064,5.888v.352A9.458,9.458,0,0,1,58.944.608h1.3a14.528,14.528,0,0,1-.08-1.632l-.112-7.792h2.384a13.091,13.091,0,0,1,1.328.048V-9.936a8.086,8.086,0,0,1-1.6.1H60.048l-.032-1.6v-.384a6.145,6.145,0,0,1,.064-.88H58.8a7.624,7.624,0,0,1,.08,1.3L58.9-9.84l-5.824.032a9.042,9.042,0,0,1-1.808-.112v1.2a12.572,12.572,0,0,1,1.776-.064l5.248-.032a15.423,15.423,0,0,1-2.3,2.912A18.163,18.163,0,0,1,50.56-2.08a2.579,2.579,0,0,1,.8.96A24.613,24.613,0,0,0,54-2.768,18.673,18.673,0,0,0,57.792-6.3a9.965,9.965,0,0,0,1.2-1.792c-.032.688-.048.928-.048,1.04Zm18.864-4.192H69.936a11.343,11.343,0,0,1-1.808-.1V-10a11.813,11.813,0,0,1,1.792-.1h8.144a12.966,12.966,0,0,1-2.8,5.7A12.848,12.848,0,0,1,69.408-.768a3.166,3.166,0,0,1,.784,1.1,14.848,14.848,0,0,0,5.824-3.792A14.289,14.289,0,0,0,79.28-9.824l.032-.1a1.886,1.886,0,0,0,.56.08A1.823,1.823,0,0,0,81.7-11.664a1.816,1.816,0,0,0-1.808-1.808,1.823,1.823,0,0,0-1.824,1.824,1.7,1.7,0,0,0,.064.464Zm2.08-1.616a1.14,1.14,0,0,1,1.136,1.136,1.144,1.144,0,0,1-1.136,1.152,1.147,1.147,0,0,1-1.152-1.152A1.144,1.144,0,0,1,79.888-12.8Zm6.08,1.472A16.825,16.825,0,0,1,89.9-9.216l.656-1.072A23.658,23.658,0,0,0,86.592-12.3ZM84.7-7.5a17.765,17.765,0,0,1,4.08,2.192l.624-1.072a24.407,24.407,0,0,0-4.064-2.1ZM85.248.16a3.755,3.755,0,0,1,.624-.176c.32-.064.608-.128.864-.176a18.276,18.276,0,0,0,4.048-1.376,12.542,12.542,0,0,0,6.16-6.9,4.824,4.824,0,0,1-.992-.848,11.914,11.914,0,0,1-1.92,3.584,10.538,10.538,0,0,1-4.8,3.568,13.837,13.837,0,0,1-4.3.992Zm24.608-.1v.8h1.1a5.046,5.046,0,0,1-.064-.992V-7.36c0-.56,0-.816.016-1.232-.288.016-.576.032-1.088.032h-5.952a7.962,7.962,0,0,1-1.392-.1v1.1a7.238,7.238,0,0,1,1.392-.064h5.984v2.784H104.24a7.962,7.962,0,0,1-1.392-.1V-3.84a7.044,7.044,0,0,1,1.376-.064h5.632V-.9h-6.144a8.219,8.219,0,0,1-1.392-.1V.128a7.144,7.144,0,0,1,1.392-.064Zm8-10.512a17.668,17.668,0,0,1,3.808,3.136L122.5-8.3a20.843,20.843,0,0,0-3.856-3.008Zm.112,10.4a8.407,8.407,0,0,1,.96-.256A16.131,16.131,0,0,0,124.9-2.688a14.033,14.033,0,0,0,4.88-6.112,3.2,3.2,0,0,1-.976-.944,12.09,12.09,0,0,1-6.528,7.12,13.926,13.926,0,0,1-4.656,1.232ZM134.944-12.48a8.91,8.91,0,0,1-.224,1.28A26.469,26.469,0,0,0,134-4.864a22.932,22.932,0,0,0,.416,4.528c.048.3.064.384.1.64l1.152-.1v-.24a13.947,13.947,0,0,1,1.3-4.4l-.768-.368a14.865,14.865,0,0,0-1.04,3.12c-.064-.848-.1-1.792-.1-3.04a23.653,23.653,0,0,1,.48-5.008,22.739,22.739,0,0,1,.672-2.56Zm3.3,3.024a21.311,21.311,0,0,0,2.56.16,27.01,27.01,0,0,0,3.44-.208q1.056-.144,1.1-.144l-.08-1.136a17.168,17.168,0,0,1-4.288.432,10.867,10.867,0,0,1-2.72-.24Zm1.168,3.12a4.42,4.42,0,0,0-1.392,2.976,2.261,2.261,0,0,0,.48,1.472c.688.832,1.84,1.216,3.664,1.216a16.507,16.507,0,0,0,3.28-.32c.32-.048.352-.064.56-.08L145.84-2.3a10.53,10.53,0,0,1-3.68.56c-2.064,0-3.072-.576-3.072-1.76a3.717,3.717,0,0,1,1.2-2.352Zm10.624-1.52a7.031,7.031,0,0,1,1.152-.384,25.414,25.414,0,0,1,6.528-1.136c2.176,0,3.5,1.088,3.5,2.88s-1.232,3.232-3.424,4.032a14.317,14.317,0,0,1-4.448.736,2.822,2.822,0,0,1,.5,1.184,13.818,13.818,0,0,0,5.3-1.216,5.241,5.241,0,0,0,3.328-4.72c0-2.448-1.856-4-4.784-4a21.375,21.375,0,0,0-4.64.592,21.452,21.452,0,0,1-3.328.672Zm16.944-3.488a8.658,8.658,0,0,1,.048.944c.08,3.936.3,5.984.864,7.5.544,1.536,1.376,2.432,2.272,2.432,1.136,0,1.872-1.072,2.656-3.872a5.114,5.114,0,0,1-.944-.912,11.512,11.512,0,0,1-.832,2.736c-.24.528-.512.8-.8.8-.608,0-1.264-1.1-1.616-2.736a27.4,27.4,0,0,1-.416-4.976,11.6,11.6,0,0,1,.112-1.9Zm8.1,1.36A14.131,14.131,0,0,1,178.4-2.1l1.136-.464a15.32,15.32,0,0,0-1.2-4.272,13.888,13.888,0,0,0-2.288-3.648Zm7.216.688a47,47,0,0,1,5.52-.528,31.006,31.006,0,0,0,3.52-.352,10.474,10.474,0,0,0-1.52.848,6.066,6.066,0,0,0-2.992,4.912,3.894,3.894,0,0,0,1.776,3.264A8.071,8.071,0,0,0,192.048.08c.256.048.32.064.5.1l.208-1.3h-.16a8.2,8.2,0,0,1-2.4-.512,3.137,3.137,0,0,1-2.24-2.96,4.89,4.89,0,0,1,1.968-3.7A8.125,8.125,0,0,1,192.992-9.9a7.421,7.421,0,0,1,1.792-.208l-.1-1.2a10.741,10.741,0,0,1-1.9.176c-2.064.1-7.184.384-9.088.528-.5.032-.688.048-.912.048h-.576Z" transform="translate(165.583 54)"/>
    <rect id="長方形_201" data-name="長方形 201" width="342.35" height="77.07" transform="translate(136.021 1)" fill="none"/>
    <g id="グループ_1574" data-name="グループ 1574" transform="translate(12.82 198)">
      <g id="長方形_1505" data-name="長方形 1505" transform="translate(152.764 63)" fill="#f8f4ff" stroke="#c7b9db" stroke-width="1">
        <rect width="48" height="30" rx="6" stroke="none"/>
        <rect x="0.5" y="0.5" width="47" height="29" rx="5.5" fill="none"/>
      </g>
      <path id="パス_3929" data-name="パス 3929" d="M6.924-7.008A9.654,9.654,0,0,0,7.908-8.16a4.343,4.343,0,0,1,.468-.588l-.42-.408A6.953,6.953,0,0,1,6.84-9.1H4.668c.156-.216.18-.252.312-.444.108-.18.144-.216.252-.372l-.876-.24a3.437,3.437,0,0,1-.7,1.2A10.075,10.075,0,0,1,.636-6.312a1.941,1.941,0,0,1,.492.588,9.477,9.477,0,0,0,1.188-.852c.024.3.024.48.024.888a16.19,16.19,0,0,1-.312,3.7A4.756,4.756,0,0,1,.636.324a2.551,2.551,0,0,1,.72.48A6.02,6.02,0,0,0,2.88-2.208H9.528V-.384c0,.192-.06.3-.18.336a2.792,2.792,0,0,1-.384.036C8.58-.012,7.92-.06,7.392-.12a2.3,2.3,0,0,1,.2.756c.516.024.912.036,1.164.036,1.224,0,1.548-.192,1.548-.936V-6.012a8.6,8.6,0,0,1,.048-1.044,6.7,6.7,0,0,1-.972.048Zm-3.468,0c-.252,0-.36,0-.624-.012a10.7,10.7,0,0,0,1.32-1.416H7.2A9.379,9.379,0,0,1,6.048-7.008Zm-.48,4.116c.06-.552.084-.864.108-1.452h2.76v1.452Zm6.552,0H6.576V-4.344H9.528Zm0-2.124H6.576V-6.348H9.528ZM5.844-6.348v1.332H3.108V-6.348Zm7.68.576a6.867,6.867,0,0,1,.7-.156c.108-.024.684-.12,1.716-.276a19.81,19.81,0,0,1-1.32,3.8A11.508,11.508,0,0,1,13.368-.228l.816.48c.372-.672.624-1.152.78-1.44a22.639,22.639,0,0,0,1.812-5.088,6.89,6.89,0,0,1,.864-.06c1.116,0,1.476.408,1.476,1.68a9.289,9.289,0,0,1-.5,3.336q-.234.576-.684.576A4.486,4.486,0,0,1,16.14-1.3a2.324,2.324,0,0,1,.036.48,2.61,2.61,0,0,1-.024.42,4.515,4.515,0,0,0,1.812.468A1.253,1.253,0,0,0,19.14-.492a8.271,8.271,0,0,0,.8-4.128,2.422,2.422,0,0,0-.588-1.932,2.293,2.293,0,0,0-1.728-.5,6.993,6.993,0,0,0-.708.036c.108-.576.192-1.02.252-1.368A7.377,7.377,0,0,1,17.4-9.54l-.96-.108v.156a14.667,14.667,0,0,1-.36,2.544c-.972.156-2.22.3-2.652.312ZM20.6-7.356a9.823,9.823,0,0,1,2.448,4.308l.768-.444A10.851,10.851,0,0,0,21.312-7.74ZM32.148-9.672a19.078,19.078,0,0,1-3.516,3.288,9.272,9.272,0,0,0-1.02.816,1.162,1.162,0,0,0-.348.8c0,.408.192.672.864,1.2C29.88-2.2,30.36-1.8,31.164-1.056A11.328,11.328,0,0,1,32.712.588l.756-.744a3.055,3.055,0,0,1-.336-.3,35.381,35.381,0,0,0-3.84-3.276c-.972-.756-1.068-.84-1.068-1.056,0-.168.084-.264.528-.6a34.956,34.956,0,0,0,2.76-2.268c1.248-1.2,1.344-1.284,1.476-1.392Zm7.716.312a3.691,3.691,0,0,1,.048.636c0,.192,0,.42-.012.78-.1,3.78-.108,4.08-.108,4.884a3.343,3.343,0,0,0,.66,2.46,2.846,2.846,0,0,0,2.256.84,4.2,4.2,0,0,0,3.384-1.5,7.3,7.3,0,0,0,1.332-2.724,3.394,3.394,0,0,1-.864-.576,7.129,7.129,0,0,1-.588,1.884A3.446,3.446,0,0,1,42.756-.588a2.265,2.265,0,0,1-1.5-.468,1.889,1.889,0,0,1-.564-1.44c-.012-.276-.024-.576-.024-.72,0-.54.036-2.172.084-3.612a18.5,18.5,0,0,1,.156-2.532ZM60.984.972A7.588,7.588,0,0,1,59.16-1.512a7.276,7.276,0,0,1-.648-3.048,7.276,7.276,0,0,1,.648-3.048,7.588,7.588,0,0,1,1.824-2.484H59.916a8.077,8.077,0,0,0-1.668,2.58,7.526,7.526,0,0,0-.576,2.952,7.526,7.526,0,0,0,.576,2.952A8.077,8.077,0,0,0,59.916.972Zm2.244-7.908h.1c.072,0,.18,0,.336.012.7.048,1.224.072,1.992.084a18.092,18.092,0,0,1-1.608,3.912l.864.348a2.567,2.567,0,0,1,1.008-.768A6.535,6.535,0,0,1,68.7-4c1.44,0,2.3.552,2.3,1.464C71-1.38,69.756-.624,67.86-.624a7.323,7.323,0,0,1-3-.6c.036.384.06.6.06.66v.072a1.326,1.326,0,0,1-.012.192,8.971,8.971,0,0,0,2.964.468c2.424,0,4.02-1.068,4.02-2.7,0-1.344-1.212-2.208-3.108-2.208a6.156,6.156,0,0,0-3.492,1.008l-.012-.024a16.217,16.217,0,0,0,1.2-3.084,40.1,40.1,0,0,0,4.452-.348c.252-.036.324-.036.528-.06l-.06-.864a20.371,20.371,0,0,1-4.728.516c.12-.432.156-.576.324-1.272a6.085,6.085,0,0,1,.192-.768l-.96-.1a9.351,9.351,0,0,1-.384,2.148,10.97,10.97,0,0,1-2.592-.2ZM77.352-9.72a2.4,2.4,0,0,1-.036.384,30.334,30.334,0,0,0-.408,4.428v.276l.024,1.248.012.216v.132l.864-.036c-.012-.18-.012-.24-.012-.288a6.263,6.263,0,0,1,.648-2.676c.684-1.4,1.452-2.088,2.364-2.088,1.152,0,1.824,1.116,1.824,3.048a4.132,4.132,0,0,1-2.064,3.984,6.341,6.341,0,0,1-2.436.756,2.477,2.477,0,0,1,.48.816,9.083,9.083,0,0,0,2.136-.708A4.951,4.951,0,0,0,83.52-4.944,4.929,4.929,0,0,0,82.8-7.86a2.259,2.259,0,0,0-1.92-1.068,2.862,2.862,0,0,0-2.4,1.548,5.355,5.355,0,0,0-.732,1.788c-.06.252-.06.252-.084.348l-.048-.012c.036-.612.2-1.92.4-3.132a6.8,6.8,0,0,1,.276-1.236Zm11.832.852a2.8,2.8,0,0,1,.156.636c.108.6.252,1.308.336,1.692a4.616,4.616,0,0,0-1.2,1.224,4.309,4.309,0,0,0-.7,2.292c0,1.416.684,2.352,1.728,2.352A2.93,2.93,0,0,0,91.644-2.04a13.577,13.577,0,0,0,2.328-4.7C95.628-6.4,96.5-5.436,96.5-3.972a2.952,2.952,0,0,1-.528,1.7,3.9,3.9,0,0,1-1.8,1.308,5.438,5.438,0,0,1-1.788.444,1.983,1.983,0,0,1,.468.8c.516-.12.576-.132.756-.18A6.366,6.366,0,0,0,96.036-1.08a3.772,3.772,0,0,0,1.308-2.88,3.5,3.5,0,0,0-3.18-3.492c.06-.228.084-.36.144-.564a9.473,9.473,0,0,1,.324-1.26l-.9-.192a13.477,13.477,0,0,1-.372,1.932c-.168-.012-.312-.012-.4-.012a5.718,5.718,0,0,0-2.568.6,15.558,15.558,0,0,1-.324-2.088Zm.7,3.132a16.588,16.588,0,0,0,1.128,3.228c-.54.66-1.056,1.02-1.476,1.02-.588,0-.972-.624-.972-1.572a3.578,3.578,0,0,1,.48-1.68A3.54,3.54,0,0,1,89.88-5.736Zm1.668,2.568a1.934,1.934,0,0,0-.1-.276,17.013,17.013,0,0,1-.9-2.784,4.485,4.485,0,0,1,2.316-.612c.06,0,.168.012.3.012a13.7,13.7,0,0,1-1.464,3.4,1.964,1.964,0,0,0-.144.264Zm11.88-6.444c-.072.36-.336,1.116-1.644,4.584C100.056-.42,100.056-.42,99.9-.084l.924.288a12.283,12.283,0,0,1,1.1-2.76c.672-1.14,1.452-1.776,2.148-1.776a.642.642,0,0,1,.684.444,2.589,2.589,0,0,1,.1.912v.684a4.947,4.947,0,0,0,.108,1.3,1.688,1.688,0,0,0,1.752,1.08A2.794,2.794,0,0,0,109.1-1.224a6.482,6.482,0,0,0,.852-2.112,3.425,3.425,0,0,1-.792-.612,5.255,5.255,0,0,1-.456,1.7,2.076,2.076,0,0,1-1.92,1.5,1.118,1.118,0,0,1-.912-.372,2.04,2.04,0,0,1-.192-1.14v-.816a3.027,3.027,0,0,0-.2-1.356,1.332,1.332,0,0,0-1.2-.708c-.852,0-1.464.432-2.256,1.572l-.06-.024a1.8,1.8,0,0,1,.108-.216l.132-.264a20.34,20.34,0,0,0,.864-1.98c1.176-3.012,1.176-3.012,1.332-3.3Zm10.32,3.684h-.624A7.486,7.486,0,0,1,111.96-6v.828a8.16,8.16,0,0,1,1.164-.072h.624v2.172h-.324a7.486,7.486,0,0,1-1.164-.072v.816a7.747,7.747,0,0,1,1.128-.072h7.824a7.752,7.752,0,0,1,1.152.072v-.816a7.276,7.276,0,0,1-1.164.072h-.408V-5.244h.648a7.99,7.99,0,0,1,1.176.072V-6a7.55,7.55,0,0,1-1.176.072h-.648V-8.076c.516,0,.888.024,1.332.06v-.8a10.778,10.778,0,0,1-1.512.072H114.48c.252-.384.36-.552.636-1.044.084-.132.108-.18.18-.288l-.84-.2a3.046,3.046,0,0,1-.24.636,7.48,7.48,0,0,1-2.328,2.676,1.8,1.8,0,0,1,.576.5A8.909,8.909,0,0,0,113.748-7.8Zm.7-2.148h1.428v2.148h-1.428Zm0,2.832h1.428v2.172h-1.428Zm2.088,2.172V-5.244h1.416v2.172Zm0-2.856V-8.076h1.416v2.148Zm2.076,2.856V-5.244H120.1v2.172Zm0-2.856V-8.076H120.1v2.148Zm3.828,6.18A11.3,11.3,0,0,0,120.912-2l-.612.324A9.262,9.262,0,0,1,121.764.684ZM119.1.492a11.1,11.1,0,0,0-.72-2.4l-.648.192A9.871,9.871,0,0,1,118.356.7Zm-2.736.12A12.789,12.789,0,0,0,116-1.86l-.672.108a12.8,12.8,0,0,1,.276,2.484ZM112.68.756a7.427,7.427,0,0,0,1.536-2.424l-.648-.36A5.147,5.147,0,0,1,112.056.228Zm16.7-5.988,1.716-.576V-2.76a7.813,7.813,0,0,1-.072,1.164h.888a7.865,7.865,0,0,1-.072-1.152V-6.06l1.992-.684a24.187,24.187,0,0,1-.192,3.036c-.06.348-.12.408-.4.408a4.291,4.291,0,0,1-.924-.108,2.794,2.794,0,0,1,.18.756c.276.024.42.036.528.036a1.641,1.641,0,0,0,.864-.168c.312-.18.468-.684.552-1.752.1-1.176.144-2.016.192-3.216a8.672,8.672,0,0,1-.948.372l-1.848.612V-8.736a7.983,7.983,0,0,1,.072-1.128h-.888a7.572,7.572,0,0,1,.072,1.116v2.22l-1.716.576v-1.68a8.524,8.524,0,0,1,.072-1.188h-.9a8.713,8.713,0,0,1,.072,1.224v1.884l-.432.144a4.624,4.624,0,0,1-1.044.24l.216.816a6.616,6.616,0,0,1,1-.384l.264-.084v4.4c0,.936.492,1.116,2.976,1.116,3.12,0,3.336-.144,3.48-2.364a2.2,2.2,0,0,1-.768-.312,3.5,3.5,0,0,1-.252,1.62c-.192.276-.7.348-2.388.348a8.723,8.723,0,0,1-1.932-.108c-.288-.072-.36-.168-.36-.456Zm-3.672-1.476h-.444a4.428,4.428,0,0,1-1.008-.072v.816a4.555,4.555,0,0,1,1.008-.072h.444v4.1a6.759,6.759,0,0,1-1.608.54l.2.828c.132-.06.312-.144.48-.2a23.164,23.164,0,0,0,3.1-1.464l-.072-.732c-.624.348-.84.456-1.356.7V-6.036h.324a7.485,7.485,0,0,1,.972.048v-.78a4.535,4.535,0,0,1-.96.06h-.336V-8.5a10.019,10.019,0,0,1,.072-1.344h-.888a9.823,9.823,0,0,1,.072,1.332ZM137.484.972a8.077,8.077,0,0,0,1.668-2.58,7.526,7.526,0,0,0,.576-2.952,7.526,7.526,0,0,0-.576-2.952,8.077,8.077,0,0,0-1.668-2.58h-1.068a7.467,7.467,0,0,1,1.824,2.484,7.276,7.276,0,0,1,.648,3.048,7.276,7.276,0,0,1-.648,3.048A7.467,7.467,0,0,1,136.416.972Z" transform="translate(152.764 114)" fill="#3a3a3a"/>
      <path id="パス_3931" data-name="パス 3931" d="M-37.378-8.232l2.139,3.955,2.15-3.955h1.307l-1.553,2.607h1.025v.8h-1.482l-.756,1.277H-32.5v.791h-2.186V0H-35.8V-2.76h-2.127v-.791h1.986l-.75-1.277H-38.2v-.8h1.055l-1.541-2.607ZM-27.5-2.971v-3.8l-2.689,3.8ZM-27.485,0V-2.051h-3.68V-3.082l3.844-5.332h.891v5.443h1.236v.92H-26.43V0Zm4.046,1.225a.739.739,0,0,0,.568-.568,1.609,1.609,0,0,0,.088-.51q0-.041,0-.073A.4.4,0,0,0-22.8,0h-.639V-1.277h1.254V-.094a2.564,2.564,0,0,1-.281,1.225,1.281,1.281,0,0,1-.973.65Zm4.292-3.252A1.333,1.333,0,0,0-18.474-.82a1.492,1.492,0,0,0,.727.176,1.633,1.633,0,0,0,1.289-.63A5.183,5.183,0,0,0-15.7-3.832a1.954,1.954,0,0,1-.87.782,2.767,2.767,0,0,1-1.116.226,2.5,2.5,0,0,1-1.919-.756,2.736,2.736,0,0,1-.706-1.945,3.114,3.114,0,0,1,.7-2.01A2.482,2.482,0,0,1-17.56-8.4,2.529,2.529,0,0,1-15.029-6.75a5.825,5.825,0,0,1,.387,2.273,7.491,7.491,0,0,1-.463,2.73,2.678,2.678,0,0,1-2.6,1.98A2.519,2.519,0,0,1-19.575-.41a2.2,2.2,0,0,1-.639-1.617Zm1.6-1.723A1.8,1.8,0,0,0-16.4-4.163a1.75,1.75,0,0,0,.519-1.444,1.848,1.848,0,0,0-.466-1.38,1.63,1.63,0,0,0-1.187-.454,1.549,1.549,0,0,0-1.228.519,2.028,2.028,0,0,0-.454,1.386,1.987,1.987,0,0,0,.4,1.3A1.555,1.555,0,0,0-17.548-3.75Zm5.323,1.611a1.462,1.462,0,0,0,.838,1.248,2.022,2.022,0,0,0,.867.176,1.628,1.628,0,0,0,1.389-.6A2.147,2.147,0,0,0-8.68-2.637,1.731,1.731,0,0,0-9.216-4a1.861,1.861,0,0,0-1.286-.48,1.937,1.937,0,0,0-.935.211,2,2,0,0,0-.665.586l-.914-.053.639-4.518h4.359v1.02h-3.568L-11.944-4.9a2.621,2.621,0,0,1,.557-.334A2.826,2.826,0,0,1-10.3-5.426a2.773,2.773,0,0,1,1.957.744,2.461,2.461,0,0,1,.8,1.887A3.237,3.237,0,0,1-8.279-.7a2.844,2.844,0,0,1-2.347.908,2.989,2.989,0,0,1-1.813-.577,2.289,2.289,0,0,1-.882-1.772Zm8.8-6.252A2.479,2.479,0,0,1-1.072-7.049,6,6,0,0,1-.51-4.207a6.843,6.843,0,0,1-.51,2.83A2.5,2.5,0,0,1-3.434.229a2.417,2.417,0,0,1-2.25-1.312A6.01,6.01,0,0,1-6.3-4.025,7.267,7.267,0,0,1-5.93-6.48,2.526,2.526,0,0,1-3.428-8.391ZM-3.439-.732a1.5,1.5,0,0,0,1.307-.727,5.26,5.26,0,0,0,.486-2.707A6.688,6.688,0,0,0-2-6.519a1.338,1.338,0,0,0-1.365-.923,1.427,1.427,0,0,0-1.362.876,6.049,6.049,0,0,0-.431,2.581,6.338,6.338,0,0,0,.275,2.063A1.5,1.5,0,0,0-3.439-.732Z" transform="translate(432.764 114)" fill="#3a3a3a"/>
      <path id="パス_3930" data-name="パス 3930" d="M.732-4.032A10.182,10.182,0,0,1,1.848-4.14c.324-.012.468-.024.828-.06V-.288A8.83,8.83,0,0,1,2.6.912h.84a8.119,8.119,0,0,1-.072-1.2V-4.26L4.488-4.4c.048.144.1.264.156.5l.6-.312A13.916,13.916,0,0,0,4.3-6.3l-.54.264a7.694,7.694,0,0,1,.516,1.044c-.636.084-.984.12-1.86.18A35.284,35.284,0,0,0,4.464-7.836c.156-.252.228-.36.312-.48l-.684-.372A14.118,14.118,0,0,1,2.82-6.432c-.432-.552-.432-.552-.732-.888.372-.552.732-1.128.972-1.572a4.988,4.988,0,0,1,.48-.852L2.8-10.068a8.243,8.243,0,0,1-1.14,2.256c-.144-.156-.252-.264-.612-.624L.6-7.884A17.155,17.155,0,0,1,2.448-5.868c-.372.528-.372.528-.8,1.092-.408.024-.48.024-.6.024a3.123,3.123,0,0,1-.432-.036Zm7-.912v1.092H6.36A7.619,7.619,0,0,1,5.3-3.9a8.723,8.723,0,0,1,.048,1.044V-.948A8.832,8.832,0,0,1,5.292.276h.816A12.29,12.29,0,0,1,6.06-.972V-3.216H7.728v3.06A7.121,7.121,0,0,1,7.656.912H8.52A6.58,6.58,0,0,1,8.448-.156v-3.06h2V-.672c0,.156-.072.2-.324.2A8.767,8.767,0,0,1,9.12-.54,1.786,1.786,0,0,1,9.3.2c.444.036.528.036.66.036.972,0,1.2-.144,1.2-.8V-2.8a9.042,9.042,0,0,1,.048-1.1,7.361,7.361,0,0,1-1.08.048H8.448V-4.944H9.6a9.483,9.483,0,0,1,1.128.048,9.206,9.206,0,0,1-.048-1.092v-1.9a9.578,9.578,0,0,1,.048-1.14,8.715,8.715,0,0,1-1.14.048H8.232c.168-.372.288-.636.42-1l-.828-.144a4.128,4.128,0,0,1-.348,1.14H6.768a8.834,8.834,0,0,1-1.14-.048A9.878,9.878,0,0,1,5.676-7.9V-6a9.427,9.427,0,0,1-.048,1.1,9.707,9.707,0,0,1,1.14-.048ZM6.36-8.364H9.984V-7.3H6.36Zm0,1.692H9.984v1.128H6.36ZM1.332-3.444A9.637,9.637,0,0,1,.708-.312l.66.324A12.48,12.48,0,0,0,2-3.288Zm2.5.108a12.96,12.96,0,0,1,.432,2.6l.648-.18A17.454,17.454,0,0,0,4.416-3.5Zm10.848-3.84v6.84A7.351,7.351,0,0,1,14.6.912h.852a6.182,6.182,0,0,1-.072-1.248v-6.84h.876v4.4c0,.084-.108.132-.276.132a1.564,1.564,0,0,1-.4-.06,1.933,1.933,0,0,1,.12.732c.216.012.312.024.432.024.612,0,.792-.168.792-.744v-4.08A8.447,8.447,0,0,1,16.968-7.9a6.757,6.757,0,0,1-.948.048h-.636V-8.856a6.034,6.034,0,0,1,.06-1.2h-.828a6.524,6.524,0,0,1,.06,1.2v1.008h-.588a6.179,6.179,0,0,1-.924-.048,10.067,10.067,0,0,1,.048,1.152v3.756a12.2,12.2,0,0,1-.06,1.32h.78a10.256,10.256,0,0,1-.048-1.3V-7.176ZM22.26-5.928a11.078,11.078,0,0,1,1.272.048,8.51,8.51,0,0,1-.048-1.032V-8.568A8.261,8.261,0,0,1,23.532-9.6c-.384.036-.756.048-1.308.048h-3.48c-.552,0-.924-.012-1.32-.048a7.849,7.849,0,0,1,.048.972v1.7a8.853,8.853,0,0,1-.048,1.044,11.874,11.874,0,0,1,1.284-.048Zm-4.092-3h4.62v.876h-4.62Zm0,1.464h4.62v.924h-4.62Zm-.36,7.272A6.738,6.738,0,0,1,17.736.84h.78V.252H22.44V.84h.792A6.627,6.627,0,0,1,23.16-.192V-4.248a5.9,5.9,0,0,1,.048-.912,8.826,8.826,0,0,1-1.092.048H18.84a8.86,8.86,0,0,1-1.08-.048,6.2,6.2,0,0,1,.048.912Zm.708-4.3H22.44v.912H18.516Zm0,1.5H22.44v.948H18.516Zm0,1.548H22.44V-.384H18.516ZM30.432-5.124H26.88a12.617,12.617,0,0,1-1.5-.072v.888a13.187,13.187,0,0,1,1.476-.072h3.576v3.9c0,.288-.108.348-.576.348a11.552,11.552,0,0,1-1.728-.156,2.973,2.973,0,0,1,.2.84c.768.06,1.14.084,1.524.084,1.092,0,1.38-.2,1.38-1.008V-4.38h3.372a11.88,11.88,0,0,1,1.452.072V-5.2a11.219,11.219,0,0,1-1.452.072H31.236V-6.1a14.392,14.392,0,0,0,3.336-2.412c.168-.156.18-.168.432-.384l-.492-.552a5.575,5.575,0,0,1-.936.048H27.888a8.834,8.834,0,0,1-1.224-.072V-8.6a8.413,8.413,0,0,1,1.212-.072h5.808a11.969,11.969,0,0,1-2.736,1.968H30.4a7.829,7.829,0,0,1,.036.792ZM48.624.972A7.588,7.588,0,0,1,46.8-1.512a7.276,7.276,0,0,1-.648-3.048A7.276,7.276,0,0,1,46.8-7.608a7.588,7.588,0,0,1,1.824-2.484H47.556a8.077,8.077,0,0,0-1.668,2.58,7.526,7.526,0,0,0-.576,2.952,7.526,7.526,0,0,0,.576,2.952A8.077,8.077,0,0,0,47.556.972Zm2.244-7.908h.1c.072,0,.18,0,.336.012.7.048,1.224.072,1.992.084a18.092,18.092,0,0,1-1.608,3.912l.864.348a2.567,2.567,0,0,1,1.008-.768A6.535,6.535,0,0,1,56.34-4c1.44,0,2.3.552,2.3,1.464C58.644-1.38,57.4-.624,55.5-.624a7.323,7.323,0,0,1-3-.6c.036.384.06.6.06.66v.072a1.326,1.326,0,0,1-.012.192,8.971,8.971,0,0,0,2.964.468c2.424,0,4.02-1.068,4.02-2.7,0-1.344-1.212-2.208-3.108-2.208a6.156,6.156,0,0,0-3.492,1.008l-.012-.024a16.217,16.217,0,0,0,1.2-3.084,40.1,40.1,0,0,0,4.452-.348c.252-.036.324-.036.528-.06l-.06-.864a20.371,20.371,0,0,1-4.728.516c.12-.432.156-.576.324-1.272a6.084,6.084,0,0,1,.192-.768l-.96-.1a9.351,9.351,0,0,1-.384,2.148,10.97,10.97,0,0,1-2.592-.2ZM64.992-9.72a2.406,2.406,0,0,1-.036.384,30.333,30.333,0,0,0-.408,4.428v.276l.024,1.248.012.216v.132l.864-.036c-.012-.18-.012-.24-.012-.288a6.263,6.263,0,0,1,.648-2.676c.684-1.4,1.452-2.088,2.364-2.088,1.152,0,1.824,1.116,1.824,3.048a4.132,4.132,0,0,1-2.064,3.984,6.341,6.341,0,0,1-2.436.756,2.477,2.477,0,0,1,.48.816,9.083,9.083,0,0,0,2.136-.708A4.951,4.951,0,0,0,71.16-4.944a4.929,4.929,0,0,0-.72-2.916,2.259,2.259,0,0,0-1.92-1.068,2.862,2.862,0,0,0-2.4,1.548,5.354,5.354,0,0,0-.732,1.788c-.06.252-.06.252-.084.348l-.048-.012c.036-.612.2-1.92.4-3.132a6.8,6.8,0,0,1,.276-1.236Zm11.832.852a2.8,2.8,0,0,1,.156.636c.108.6.252,1.308.336,1.692a4.616,4.616,0,0,0-1.2,1.224,4.309,4.309,0,0,0-.7,2.292c0,1.416.684,2.352,1.728,2.352A2.93,2.93,0,0,0,79.284-2.04a13.576,13.576,0,0,0,2.328-4.7c1.656.348,2.532,1.308,2.532,2.772a2.952,2.952,0,0,1-.528,1.7,3.9,3.9,0,0,1-1.8,1.308,5.438,5.438,0,0,1-1.788.444,1.983,1.983,0,0,1,.468.8c.516-.12.576-.132.756-.18A6.366,6.366,0,0,0,83.676-1.08a3.772,3.772,0,0,0,1.308-2.88A3.5,3.5,0,0,0,81.8-7.452c.06-.228.084-.36.144-.564a9.473,9.473,0,0,1,.324-1.26l-.9-.192A13.475,13.475,0,0,1,81-7.536c-.168-.012-.312-.012-.4-.012a5.718,5.718,0,0,0-2.568.6,15.558,15.558,0,0,1-.324-2.088Zm.7,3.132a16.588,16.588,0,0,0,1.128,3.228c-.54.66-1.056,1.02-1.476,1.02-.588,0-.972-.624-.972-1.572a3.578,3.578,0,0,1,.48-1.68A3.54,3.54,0,0,1,77.52-5.736Zm1.668,2.568a1.934,1.934,0,0,0-.1-.276,17.013,17.013,0,0,1-.9-2.784,4.485,4.485,0,0,1,2.316-.612c.06,0,.168.012.3.012a13.7,13.7,0,0,1-1.464,3.4,1.964,1.964,0,0,0-.144.264Zm11.88-6.444c-.072.36-.336,1.116-1.644,4.584C87.7-.42,87.7-.42,87.54-.084L88.464.2a12.283,12.283,0,0,1,1.1-2.76c.672-1.14,1.452-1.776,2.148-1.776a.642.642,0,0,1,.684.444,2.589,2.589,0,0,1,.1.912v.684A4.947,4.947,0,0,0,92.6-1,1.688,1.688,0,0,0,94.356.084a2.794,2.794,0,0,0,2.388-1.308A6.482,6.482,0,0,0,97.6-3.336a3.425,3.425,0,0,1-.792-.612,5.255,5.255,0,0,1-.456,1.7,2.076,2.076,0,0,1-1.92,1.5,1.118,1.118,0,0,1-.912-.372,2.04,2.04,0,0,1-.192-1.14v-.816a3.027,3.027,0,0,0-.2-1.356,1.332,1.332,0,0,0-1.2-.708c-.852,0-1.464.432-2.256,1.572l-.06-.024a1.8,1.8,0,0,1,.108-.216l.132-.264a20.34,20.34,0,0,0,.864-1.98c1.176-3.012,1.176-3.012,1.332-3.3Zm10.32,3.684h-.624A7.486,7.486,0,0,1,99.6-6v.828a8.16,8.16,0,0,1,1.164-.072h.624v2.172h-.324A7.486,7.486,0,0,1,99.9-3.144v.816a7.747,7.747,0,0,1,1.128-.072h7.824A7.752,7.752,0,0,1,110-2.328v-.816a7.276,7.276,0,0,1-1.164.072h-.408V-5.244h.648a7.99,7.99,0,0,1,1.176.072V-6a7.55,7.55,0,0,1-1.176.072h-.648V-8.076c.516,0,.888.024,1.332.06v-.8a10.778,10.778,0,0,1-1.512.072H102.12c.252-.384.36-.552.636-1.044.084-.132.108-.18.18-.288l-.84-.2a3.046,3.046,0,0,1-.24.636,7.48,7.48,0,0,1-2.328,2.676,1.8,1.8,0,0,1,.576.5A8.909,8.909,0,0,0,101.388-7.8Zm.7-2.148h1.428v2.148h-1.428Zm0,2.832h1.428v2.172h-1.428Zm2.088,2.172V-5.244h1.416v2.172Zm0-2.856V-8.076h1.416v2.148Zm2.076,2.856V-5.244h1.488v2.172Zm0-2.856V-8.076h1.488v2.148Zm3.828,6.18A11.3,11.3,0,0,0,108.552-2l-.612.324A9.262,9.262,0,0,1,109.4.684Zm-3.336.24a11.1,11.1,0,0,0-.72-2.4l-.648.192A9.871,9.871,0,0,1,106,.7ZM104,.612a12.789,12.789,0,0,0-.36-2.472l-.672.108a12.8,12.8,0,0,1,.276,2.484ZM100.32.756a7.427,7.427,0,0,0,1.536-2.424l-.648-.36A5.147,5.147,0,0,1,99.7.228Zm16.7-5.988,1.716-.576V-2.76a7.815,7.815,0,0,1-.072,1.164h.888a7.865,7.865,0,0,1-.072-1.152V-6.06l1.992-.684a24.187,24.187,0,0,1-.192,3.036c-.06.348-.12.408-.4.408a4.292,4.292,0,0,1-.924-.108,2.794,2.794,0,0,1,.18.756c.276.024.42.036.528.036a1.641,1.641,0,0,0,.864-.168c.312-.18.468-.684.552-1.752.1-1.176.144-2.016.192-3.216a8.672,8.672,0,0,1-.948.372l-1.848.612V-8.736a7.983,7.983,0,0,1,.072-1.128h-.888a7.573,7.573,0,0,1,.072,1.116v2.22l-1.716.576v-1.68A8.522,8.522,0,0,1,117.1-8.82h-.9a8.714,8.714,0,0,1,.072,1.224v1.884l-.432.144a4.624,4.624,0,0,1-1.044.24l.216.816a6.616,6.616,0,0,1,1-.384l.264-.084v4.4c0,.936.492,1.116,2.976,1.116,3.12,0,3.336-.144,3.48-2.364a2.2,2.2,0,0,1-.768-.312,3.5,3.5,0,0,1-.252,1.62c-.192.276-.7.348-2.388.348a8.723,8.723,0,0,1-1.932-.108c-.288-.072-.36-.168-.36-.456Zm-3.672-1.476h-.444A4.428,4.428,0,0,1,111.9-6.78v.816a4.555,4.555,0,0,1,1.008-.072h.444v4.1a6.759,6.759,0,0,1-1.608.54l.2.828c.132-.06.312-.144.48-.2a23.164,23.164,0,0,0,3.1-1.464l-.072-.732c-.624.348-.84.456-1.356.7V-6.036h.324a7.485,7.485,0,0,1,.972.048v-.78a4.535,4.535,0,0,1-.96.06H114.1V-8.5a10.019,10.019,0,0,1,.072-1.344h-.888a9.823,9.823,0,0,1,.072,1.332ZM125.124.972a8.077,8.077,0,0,0,1.668-2.58,7.526,7.526,0,0,0,.576-2.952,7.526,7.526,0,0,0-.576-2.952,8.077,8.077,0,0,0-1.668-2.58h-1.068a7.467,7.467,0,0,1,1.824,2.484,7.276,7.276,0,0,1,.648,3.048,7.276,7.276,0,0,1-.648,3.048A7.467,7.467,0,0,1,124.056.972Z" transform="translate(152.764 136)" fill="#3a3a3a"/>
      <path id="パス_3932" data-name="パス 3932" d="M-44.412-8.232l2.139,3.955,2.15-3.955h1.307l-1.553,2.607h1.025v.8h-1.482l-.756,1.277h2.045v.791h-2.186V0H-42.83V-2.76h-2.127v-.791h1.986l-.75-1.277h-1.512v-.8h1.055l-1.541-2.607Zm7.057,2.291V-6.75a4.3,4.3,0,0,0,1.594-.372,1.834,1.834,0,0,0,.674-1.233h.832V0H-35.38V-5.941ZM-27.5-2.971v-3.8l-2.689,3.8ZM-27.485,0V-2.051h-3.68V-3.082l3.844-5.332h.891v5.443h1.236v.92H-26.43V0Zm4.046,1.225a.739.739,0,0,0,.568-.568,1.609,1.609,0,0,0,.088-.51q0-.041,0-.073A.4.4,0,0,0-22.8,0h-.639V-1.277h1.254V-.094a2.564,2.564,0,0,1-.281,1.225,1.281,1.281,0,0,1-.973.65Zm5.962-6.1a1.479,1.479,0,0,0,1.09-.39A1.263,1.263,0,0,0-16-6.193a1.224,1.224,0,0,0-.375-.861,1.512,1.512,0,0,0-1.143-.393,1.385,1.385,0,0,0-1.1.393,1.361,1.361,0,0,0-.34.92,1.1,1.1,0,0,0,.439.926A1.665,1.665,0,0,0-17.478-4.875Zm.064,4.154a1.857,1.857,0,0,0,1.216-.4A1.436,1.436,0,0,0-15.714-2.3a1.53,1.53,0,0,0-.5-1.236,1.908,1.908,0,0,0-1.277-.422,1.771,1.771,0,0,0-1.233.431A1.524,1.524,0,0,0-19.2-2.332,1.624,1.624,0,0,0-18.764-1.2,1.744,1.744,0,0,0-17.413-.721Zm-1.5-3.75A2.1,2.1,0,0,1-19.6-4.91a1.66,1.66,0,0,1-.463-1.219,2.189,2.189,0,0,1,.68-1.611,2.621,2.621,0,0,1,1.928-.674,2.676,2.676,0,0,1,1.893.636,1.967,1.967,0,0,1,.686,1.485,1.942,1.942,0,0,1-.4,1.271,2.387,2.387,0,0,1-.691.539,2.683,2.683,0,0,1,.82.551,2.121,2.121,0,0,1,.557,1.523A2.6,2.6,0,0,1-15.333-.53a2.788,2.788,0,0,1-2.1.771,3.25,3.25,0,0,1-2.071-.665,2.308,2.308,0,0,1-.847-1.931,2.255,2.255,0,0,1,.363-1.286A2.269,2.269,0,0,1-18.913-4.471Zm6.688,2.332a1.462,1.462,0,0,0,.838,1.248,2.022,2.022,0,0,0,.867.176,1.628,1.628,0,0,0,1.389-.6A2.147,2.147,0,0,0-8.68-2.637,1.731,1.731,0,0,0-9.216-4a1.861,1.861,0,0,0-1.286-.48,1.937,1.937,0,0,0-.935.211,2,2,0,0,0-.665.586l-.914-.053.639-4.518h4.359v1.02h-3.568L-11.944-4.9a2.621,2.621,0,0,1,.557-.334A2.826,2.826,0,0,1-10.3-5.426a2.773,2.773,0,0,1,1.957.744,2.461,2.461,0,0,1,.8,1.887A3.237,3.237,0,0,1-8.279-.7a2.844,2.844,0,0,1-2.347.908,2.989,2.989,0,0,1-1.813-.577,2.289,2.289,0,0,1-.882-1.772Zm8.8-6.252A2.479,2.479,0,0,1-1.072-7.049,6,6,0,0,1-.51-4.207a6.843,6.843,0,0,1-.51,2.83A2.5,2.5,0,0,1-3.434.229a2.417,2.417,0,0,1-2.25-1.312A6.01,6.01,0,0,1-6.3-4.025,7.267,7.267,0,0,1-5.93-6.48,2.526,2.526,0,0,1-3.428-8.391ZM-3.439-.732a1.5,1.5,0,0,0,1.307-.727,5.26,5.26,0,0,0,.486-2.707A6.688,6.688,0,0,0-2-6.519a1.338,1.338,0,0,0-1.365-.923,1.427,1.427,0,0,0-1.362.876,6.049,6.049,0,0,0-.431,2.581,6.338,6.338,0,0,0,.275,2.063A1.5,1.5,0,0,0-3.439-.732Z" transform="translate(432.764 136)" fill="#3a3a3a"/>
      <g id="グループ_1648" data-name="グループ 1648" transform="translate(152.763 -53)">
        <g id="長方形_1504" data-name="長方形 1504" transform="translate(0.001)" fill="#f8f4ff" stroke="#c7b9db" stroke-width="1">
          <rect width="82" height="30" rx="6" stroke="none"/>
          <rect x="0.5" y="0.5" width="81" height="29" rx="5.5" fill="none"/>
        </g>
        <path id="パス_3923" data-name="パス 3923" d="M5.508-9.012H1.968A8.413,8.413,0,0,1,.756-9.084v.792a8.915,8.915,0,0,1,1.188-.06H10.02a8.915,8.915,0,0,1,1.188.06v-.792a8.4,8.4,0,0,1-1.188.072H6.276v-.24a4.173,4.173,0,0,1,.072-.8H5.436a4.394,4.394,0,0,1,.072.816ZM2.748-6.048a8.8,8.8,0,0,1-.036.936,9.932,9.932,0,0,1,1.08-.048H8.22a9.3,9.3,0,0,1,1.1.048,6.071,6.071,0,0,1-.036-.936V-6.7c0-.408.012-.576.036-.924a8.176,8.176,0,0,1-1.02.048H3.852a9.578,9.578,0,0,1-1.14-.048c.024.252.036.528.036.912Zm.732-.9H8.556v1.176H3.48ZM1.152-.264A8.649,8.649,0,0,1,1.08.948h.888A7.461,7.461,0,0,1,1.9-.276V-3.732h8.22V-.216c0,.24-.06.276-.492.276A9.205,9.205,0,0,1,8.268-.048,2.411,2.411,0,0,1,8.424.7c.768.036.84.036,1.116.036.636,0,.84-.036,1.032-.168s.276-.336.276-.744V-3.36A9.762,9.762,0,0,1,10.9-4.416a9.268,9.268,0,0,1-1.164.048H2.292A11.051,11.051,0,0,1,1.1-4.416a10.076,10.076,0,0,1,.048,1.08ZM8.376-2.172a7.069,7.069,0,0,1,.036-.816c-.312.024-.6.036-1.056.036H4.476c-.444,0-.7-.012-.972-.036a8.612,8.612,0,0,1,.036.876v1.2a6.98,6.98,0,0,1-.06,1h.78v-.66H7.308c.42,0,.792.012,1.1.036a7.349,7.349,0,0,1-.036-.852Zm-4.128-.18H7.68v1.176H4.248ZM16.584-.9H14.472v-.54a3.709,3.709,0,0,1,.036-.672H13.68a3.361,3.361,0,0,1,.06.72l.012.756a5.961,5.961,0,0,1-.072.948h.792V-.24h4.98c.108,0,.336,0,.42.012.312.012.312.012.444.012a5.22,5.22,0,0,1-.024-.624v-.6a4.532,4.532,0,0,1,.048-.72h-.8a3.845,3.845,0,0,1,.048.672V-.9H17.328V-2.472h5.016a13.235,13.235,0,0,1-.36,2.136c-.1.312-.24.4-.636.4a7.618,7.618,0,0,1-1.176-.108,2.478,2.478,0,0,1,.18.756c.384.024.576.036.912.036.708,0,1.032-.12,1.26-.456a8.662,8.662,0,0,0,.564-2.76c.048-.372.072-.564.084-.672a6.757,6.757,0,0,1-.948.048H15.348V-3.96h7A10.977,10.977,0,0,1,23.5-3.9v-.768a7.191,7.191,0,0,1-1.128.072h-7.02v-.8H20.64c.324,0,.576.012.936.036-.024-.252-.036-.5-.036-.816V-8.172a4.38,4.38,0,0,1,.036-.756,7,7,0,0,1-.984.048h-2.94a11.337,11.337,0,0,0,.576-1.044l-.792-.156a5.884,5.884,0,0,1-.576,1.2H15.516a6.729,6.729,0,0,1-.96-.048c.024.288.048.576.048.936v4.464a8.987,8.987,0,0,1-.048,1.08c.336-.024.468-.024,1-.024h1.032ZM15.348-7.452v-.816h5.436v.816Zm0,.588h5.436V-6H15.348ZM35.52.732A11.639,11.639,0,0,1,35.448-.66V-8.112a8.993,8.993,0,0,1,.06-1.2,12.221,12.221,0,0,1-1.368.06H27.324a12.31,12.31,0,0,1-1.38-.06c.036.384.06.756.06,1.2V-.66A11.926,11.926,0,0,1,25.932.732h.84V0H34.68V.732ZM26.772-8.556h3.444v3.444H26.772Zm4.2,0H34.68v3.444H30.972Zm-4.2,4.128h3.444V-.7H26.772Zm4.2,0H34.68V-.7H30.972ZM48.624.972A7.588,7.588,0,0,1,46.8-1.512a7.276,7.276,0,0,1-.648-3.048A7.276,7.276,0,0,1,46.8-7.608a7.588,7.588,0,0,1,1.824-2.484H47.556a8.077,8.077,0,0,0-1.668,2.58,7.526,7.526,0,0,0-.576,2.952,7.526,7.526,0,0,0,.576,2.952A8.077,8.077,0,0,0,47.556.972ZM50.6-5.772a6.867,6.867,0,0,1,.7-.156c.108-.024.684-.12,1.716-.276A19.81,19.81,0,0,1,51.7-2.4,11.508,11.508,0,0,1,50.448-.228l.816.48c.372-.672.624-1.152.78-1.44a22.639,22.639,0,0,0,1.812-5.088,6.89,6.89,0,0,1,.864-.06c1.116,0,1.476.408,1.476,1.68a9.289,9.289,0,0,1-.5,3.336q-.234.576-.684.576A4.486,4.486,0,0,1,53.22-1.3a2.324,2.324,0,0,1,.036.48,2.61,2.61,0,0,1-.024.42,4.515,4.515,0,0,0,1.812.468A1.253,1.253,0,0,0,56.22-.492a8.271,8.271,0,0,0,.8-4.128,2.422,2.422,0,0,0-.588-1.932,2.293,2.293,0,0,0-1.728-.5A6.993,6.993,0,0,0,54-7.02c.108-.576.192-1.02.252-1.368A7.377,7.377,0,0,1,54.48-9.54l-.96-.108v.156a14.667,14.667,0,0,1-.36,2.544c-.972.156-2.22.3-2.652.312Zm7.08-1.584a9.823,9.823,0,0,1,2.448,4.308l.768-.444A10.851,10.851,0,0,0,58.392-7.74Zm5.4,1.464a5.273,5.273,0,0,1,.864-.288,19.061,19.061,0,0,1,4.9-.852c1.632,0,2.628.816,2.628,2.16S70.548-2.448,68.9-1.848a10.738,10.738,0,0,1-3.336.552,2.116,2.116,0,0,1,.372.888,10.363,10.363,0,0,0,3.972-.912,3.931,3.931,0,0,0,2.5-3.54c0-1.836-1.392-3-3.588-3a16.031,16.031,0,0,0-3.48.444,16.088,16.088,0,0,1-2.5.5ZM77.976-8.7a13.365,13.365,0,0,0,1.836.756,18.509,18.509,0,0,0,2.34.684l.336-.84A14.467,14.467,0,0,1,78.42-9.432Zm-1,1.3a4.037,4.037,0,0,1-.084.636c-.168,1.008-.384,2.4-.5,3.312-.048.384-.06.492-.1.708l.936.024a2.086,2.086,0,0,1,.48-.492,5.814,5.814,0,0,1,3.36-1.044c1.464,0,2.328.576,2.328,1.56,0,1.224-1.26,2.016-3.24,2.016a8.523,8.523,0,0,1-3.06-.6,2.776,2.776,0,0,1,.084.744,1.892,1.892,0,0,1-.012.228c.732.18.732.18.96.24a9.97,9.97,0,0,0,2.1.216A4.981,4.981,0,0,0,83.22-.648,2.566,2.566,0,0,0,84.3-2.712c0-1.4-1.26-2.316-3.216-2.316A5.94,5.94,0,0,0,77.616-4a3.36,3.36,0,0,0-.372.36l-.024-.012a1.446,1.446,0,0,0,.048-.276c.036-.276.06-.36.348-2.1a10.043,10.043,0,0,1,.276-1.32ZM88.044.972a8.077,8.077,0,0,0,1.668-2.58,7.526,7.526,0,0,0,.576-2.952,7.526,7.526,0,0,0-.576-2.952,8.077,8.077,0,0,0-1.668-2.58H86.976A7.467,7.467,0,0,1,88.8-7.608a7.276,7.276,0,0,1,.648,3.048A7.276,7.276,0,0,1,88.8-1.512,7.467,7.467,0,0,1,86.976.972Z" transform="translate(0.001 51)" fill="#3a3a3a"/>
        <path id="パス_3927" data-name="パス 3927" d="M1.125-8.232,3.264-4.277l2.15-3.955H6.721L5.168-5.625H6.193v.8H4.711L3.955-3.551H6v.791H3.814V0H2.707V-2.76H.58v-.791H2.566l-.75-1.277H.3v-.8H1.359L-.182-8.232ZM7.409,0a4.894,4.894,0,0,1,.448-1.887A3.629,3.629,0,0,1,9.378-3.346L10.5-4a5.3,5.3,0,0,0,1.061-.75,1.541,1.541,0,0,0,.48-1.113A1.554,1.554,0,0,0,11.6-7.022a1.6,1.6,0,0,0-1.172-.431,1.531,1.531,0,0,0-1.5.82,2.937,2.937,0,0,0-.246,1.219H7.614a3.766,3.766,0,0,1,.4-1.787,2.537,2.537,0,0,1,2.42-1.219,2.623,2.623,0,0,1,2.106.779,2.607,2.607,0,0,1,.665,1.734A2.358,2.358,0,0,1,12.5-4.184,6.941,6.941,0,0,1,11.03-3.176l-.8.445a5.2,5.2,0,0,0-.9.6A2.2,2.2,0,0,0,8.587-1h4.582V0ZM20.343-8.25v.92a9.8,9.8,0,0,0-1.075,1.365,13.843,13.843,0,0,0-1.187,2.1,14.336,14.336,0,0,0-.773,2q-.17.58-.439,1.869H15.7A14.359,14.359,0,0,1,17.46-4.781a15.136,15.136,0,0,1,1.688-2.408H14.507V-8.25ZM22.1,1.225a.739.739,0,0,0,.568-.568,1.609,1.609,0,0,0,.088-.51q0-.041,0-.073A.4.4,0,0,0,22.736,0H22.1V-1.277h1.254V-.094a2.564,2.564,0,0,1-.281,1.225,1.281,1.281,0,0,1-.973.65Zm4.18-3.363a1.462,1.462,0,0,0,.838,1.248,2.022,2.022,0,0,0,.867.176,1.628,1.628,0,0,0,1.389-.6,2.147,2.147,0,0,0,.451-1.324A1.731,1.731,0,0,0,29.287-4,1.861,1.861,0,0,0,28-4.477a1.937,1.937,0,0,0-.935.211,2,2,0,0,0-.665.586l-.914-.053.639-4.518h4.359v1.02H26.917L26.559-4.9a2.621,2.621,0,0,1,.557-.334A2.826,2.826,0,0,1,28.2-5.426a2.773,2.773,0,0,1,1.957.744,2.461,2.461,0,0,1,.8,1.887,3.237,3.237,0,0,1-.735,2.1,2.844,2.844,0,0,1-2.347.908,2.989,2.989,0,0,1-1.813-.577,2.289,2.289,0,0,1-.882-1.772Zm8.8-6.252a2.479,2.479,0,0,1,2.355,1.342,6,6,0,0,1,.563,2.842,6.843,6.843,0,0,1-.51,2.83A2.5,2.5,0,0,1,35.07.229a2.417,2.417,0,0,1-2.25-1.312A6.01,6.01,0,0,1,32.2-4.025a7.267,7.267,0,0,1,.369-2.455A2.526,2.526,0,0,1,35.075-8.391ZM35.064-.732a1.5,1.5,0,0,0,1.307-.727,5.26,5.26,0,0,0,.486-2.707,6.688,6.688,0,0,0-.352-2.353,1.338,1.338,0,0,0-1.365-.923,1.427,1.427,0,0,0-1.362.876,6.049,6.049,0,0,0-.431,2.581,6.338,6.338,0,0,0,.275,2.063A1.5,1.5,0,0,0,35.064-.732Zm7.046-7.658a2.479,2.479,0,0,1,2.355,1.342,6,6,0,0,1,.563,2.842,6.843,6.843,0,0,1-.51,2.83A2.5,2.5,0,0,1,42.1.229a2.417,2.417,0,0,1-2.25-1.312,6.01,6.01,0,0,1-.615-2.941,7.267,7.267,0,0,1,.369-2.455A2.526,2.526,0,0,1,42.109-8.391ZM42.1-.732A1.5,1.5,0,0,0,43.4-1.459a5.26,5.26,0,0,0,.486-2.707,6.688,6.688,0,0,0-.352-2.353,1.338,1.338,0,0,0-1.365-.923,1.427,1.427,0,0,0-1.362.876,6.049,6.049,0,0,0-.431,2.581,6.338,6.338,0,0,0,.275,2.063A1.5,1.5,0,0,0,42.1-.732Z" transform="translate(237.001 51)" fill="#3a3a3a"/>
        <path id="パス_3924" data-name="パス 3924" d="M1.284-2.988c.108-.132.132-.156.348-.4a31.591,31.591,0,0,0,2.1-2.556c.576-.768.684-.864.948-.864.2,0,.4.144.72.516a36.78,36.78,0,0,0,5.244,5.172,2.15,2.15,0,0,1,.288.252L11.34-1.9c-.636-.18-3.3-2.592-4.764-4.32-.552-.636-.756-.864-.876-.972a1.481,1.481,0,0,0-1.032-.54,1.478,1.478,0,0,0-.96.456,5.145,5.145,0,0,0-.6.72A14.748,14.748,0,0,1,.7-3.876ZM7.872-8.1A8.887,8.887,0,0,1,9.108-6.192l.6-.36a9.11,9.11,0,0,0-1.236-1.86ZM9.24-8.748a8.756,8.756,0,0,1,1.224,1.9l.6-.348A10.108,10.108,0,0,0,9.828-9.072ZM14.544-4a5.3,5.3,0,0,1,1.284-.4,13.948,13.948,0,0,1,3.156-.48c1.452,0,2.22.588,2.22,1.68a2.736,2.736,0,0,1-2.2,2.424A8.182,8.182,0,0,1,16.644-.4a.912.912,0,0,1-.168-.012,2.628,2.628,0,0,1,.312.828A11.366,11.366,0,0,0,19.26-.036a3.507,3.507,0,0,0,2.748-3.1A2.625,2.625,0,0,0,21.636-4.5a2.745,2.745,0,0,0-2.544-1.116,15.493,15.493,0,0,0-3.66.528,5.634,5.634,0,0,1-1.1.216Zm15.684.8V-.468A8.109,8.109,0,0,1,30.144.888h.96A6.712,6.712,0,0,1,31.02-.468V-3.192h3.42v.732h.84a7.46,7.46,0,0,1-.072-1.092V-8.34a7.547,7.547,0,0,1,.06-1.1,10.954,10.954,0,0,1-1.38.06h-6.4a10.622,10.622,0,0,1-1.32-.06,7.805,7.805,0,0,1,.072,1.14v4.74a8,8,0,0,1-.072,1.1h.84v-.732Zm0-5.5v2.052H27.012V-8.688Zm.792,0h3.42v2.052H31.02Zm-.792,2.736v2.064H27.012V-5.952Zm.792,0h3.42v2.064H31.02Zm7.224.18a6.867,6.867,0,0,1,.7-.156c.108-.024.684-.12,1.716-.276a19.81,19.81,0,0,1-1.32,3.8A11.508,11.508,0,0,1,38.088-.228l.816.48c.372-.672.624-1.152.78-1.44A22.639,22.639,0,0,0,41.5-6.276a6.89,6.89,0,0,1,.864-.06c1.116,0,1.476.408,1.476,1.68a9.289,9.289,0,0,1-.5,3.336q-.234.576-.684.576A4.486,4.486,0,0,1,40.86-1.3a2.323,2.323,0,0,1,.036.48,2.61,2.61,0,0,1-.024.42,4.515,4.515,0,0,0,1.812.468A1.253,1.253,0,0,0,43.86-.492a8.271,8.271,0,0,0,.8-4.128,2.422,2.422,0,0,0-.588-1.932,2.293,2.293,0,0,0-1.728-.5,6.993,6.993,0,0,0-.708.036c.108-.576.192-1.02.252-1.368A7.377,7.377,0,0,1,42.12-9.54l-.96-.108v.156a14.667,14.667,0,0,1-.36,2.544c-.972.156-2.22.3-2.652.312Zm7.08-1.584a9.823,9.823,0,0,1,2.448,4.308l.768-.444A10.851,10.851,0,0,0,46.032-7.74Zm8.664-2.256c-.072.36-.336,1.116-1.644,4.584C50.616-.42,50.616-.42,50.46-.084L51.384.2a12.283,12.283,0,0,1,1.1-2.76c.672-1.14,1.452-1.776,2.148-1.776a.642.642,0,0,1,.684.444,2.589,2.589,0,0,1,.1.912v.684A4.947,4.947,0,0,0,55.524-1,1.688,1.688,0,0,0,57.276.084a2.794,2.794,0,0,0,2.388-1.308,6.482,6.482,0,0,0,.852-2.112,3.425,3.425,0,0,1-.792-.612,5.255,5.255,0,0,1-.456,1.7,2.076,2.076,0,0,1-1.92,1.5,1.118,1.118,0,0,1-.912-.372,2.04,2.04,0,0,1-.192-1.14v-.816a3.027,3.027,0,0,0-.2-1.356,1.332,1.332,0,0,0-1.2-.708c-.852,0-1.464.432-2.256,1.572l-.06-.024a1.805,1.805,0,0,1,.108-.216l.132-.264a20.342,20.342,0,0,0,.864-1.98C54.8-9.06,54.8-9.06,54.96-9.348ZM63.5-6.264a4.149,4.149,0,0,1,.468-.036,34.063,34.063,0,0,0,4.272-.312l.06.12c.012.024.072.132.144.276a14.6,14.6,0,0,0,1.44,2.352A5.992,5.992,0,0,0,67.4-4.3a5.1,5.1,0,0,0-2.328.444A2.243,2.243,0,0,0,63.72-1.9a1.935,1.935,0,0,0,.54,1.32,4.4,4.4,0,0,0,3.12.9,10.2,10.2,0,0,0,3.528-.636l-.132-.924a7.909,7.909,0,0,1-3.408.756,4.064,4.064,0,0,1-2.34-.552,1.2,1.2,0,0,1-.456-.936,1.363,1.363,0,0,1,.648-1.116,4.254,4.254,0,0,1,2.28-.5,6.5,6.5,0,0,1,2.1.312,2.265,2.265,0,0,1,.828.5l.8-.468a21.658,21.658,0,0,1-2.16-3.492h.084c.036-.012.12-.024.264-.06.216-.048.552-.108,1.032-.2a2.8,2.8,0,0,1,.3-.072,2.635,2.635,0,0,0,.264-.072,1.157,1.157,0,0,0,.144-.024L71.04-8a12.939,12.939,0,0,1-2.256.564,9.471,9.471,0,0,1-.432-1.068A3.909,3.909,0,0,1,68-9.588l-.948.144a7.56,7.56,0,0,1,.312.7c.2.5.4.972.588,1.416a28.009,28.009,0,0,1-3.576.252,6.939,6.939,0,0,1-.924-.048ZM70.56-9.492a8.8,8.8,0,0,1,1.284,1.86l.6-.372a9.227,9.227,0,0,0-1.3-1.824Zm1.344-.684a9.338,9.338,0,0,1,1.284,1.848l.6-.36a9.986,9.986,0,0,0-1.308-1.836Zm5.04.816a3.691,3.691,0,0,1,.048.636c0,.192,0,.42-.012.78-.1,3.78-.108,4.08-.108,4.884a3.343,3.343,0,0,0,.66,2.46,2.846,2.846,0,0,0,2.256.84,4.2,4.2,0,0,0,3.384-1.5A7.3,7.3,0,0,0,84.5-3.984a3.394,3.394,0,0,1-.864-.576,7.129,7.129,0,0,1-.588,1.884A3.446,3.446,0,0,1,79.836-.588a2.265,2.265,0,0,1-1.5-.468,1.889,1.889,0,0,1-.564-1.44c-.012-.276-.024-.576-.024-.72,0-.54.036-2.172.084-3.612a18.5,18.5,0,0,1,.156-2.532Z" transform="translate(0.001 73)" fill="#3a3a3a"/>
        <path id="パス_3926" data-name="パス 3926" d="M1.125-8.232,3.264-4.277l2.15-3.955H6.721L5.168-5.625H6.193v.8H4.711L3.955-3.551H6v.791H3.814V0H2.707V-2.76H.58v-.791H2.566l-.75-1.277H.3v-.8H1.359L-.182-8.232ZM8.182-5.941V-6.75a4.3,4.3,0,0,0,1.594-.372,1.834,1.834,0,0,0,.674-1.233h.832V0H10.157V-5.941Zm6.149,0V-6.75a4.3,4.3,0,0,0,1.594-.372A1.834,1.834,0,0,0,16.6-8.355h.832V0H16.306V-5.941Zm6.881,7.166a.739.739,0,0,0,.568-.568,1.609,1.609,0,0,0,.088-.51q0-.041,0-.073A.4.4,0,0,0,21.851,0h-.639V-1.277h1.254V-.094a2.564,2.564,0,0,1-.281,1.225,1.281,1.281,0,0,1-.973.65Zm5.944-9.615a2.479,2.479,0,0,1,2.355,1.342,6,6,0,0,1,.563,2.842,6.843,6.843,0,0,1-.51,2.83A2.5,2.5,0,0,1,27.151.229,2.417,2.417,0,0,1,24.9-1.084a6.01,6.01,0,0,1-.615-2.941,7.267,7.267,0,0,1,.369-2.455A2.526,2.526,0,0,1,27.157-8.391ZM27.145-.732a1.5,1.5,0,0,0,1.307-.727,5.26,5.26,0,0,0,.486-2.707,6.688,6.688,0,0,0-.352-2.353,1.338,1.338,0,0,0-1.365-.923,1.427,1.427,0,0,0-1.362.876,6.049,6.049,0,0,0-.431,2.581A6.338,6.338,0,0,0,25.7-1.922,1.5,1.5,0,0,0,27.145-.732Zm7.046-7.658a2.479,2.479,0,0,1,2.355,1.342,6,6,0,0,1,.563,2.842,6.843,6.843,0,0,1-.51,2.83A2.5,2.5,0,0,1,34.185.229a2.417,2.417,0,0,1-2.25-1.312,6.01,6.01,0,0,1-.615-2.941,7.267,7.267,0,0,1,.369-2.455A2.526,2.526,0,0,1,34.191-8.391ZM34.179-.732a1.5,1.5,0,0,0,1.307-.727,5.26,5.26,0,0,0,.486-2.707,6.688,6.688,0,0,0-.352-2.353,1.338,1.338,0,0,0-1.365-.923,1.427,1.427,0,0,0-1.362.876,6.049,6.049,0,0,0-.431,2.581,6.338,6.338,0,0,0,.275,2.063A1.5,1.5,0,0,0,34.179-.732Zm7.046-7.658A2.479,2.479,0,0,1,43.58-7.049a6,6,0,0,1,.563,2.842,6.843,6.843,0,0,1-.51,2.83A2.5,2.5,0,0,1,41.219.229a2.417,2.417,0,0,1-2.25-1.312,6.01,6.01,0,0,1-.615-2.941,7.267,7.267,0,0,1,.369-2.455A2.526,2.526,0,0,1,41.224-8.391ZM41.213-.732a1.5,1.5,0,0,0,1.307-.727,5.26,5.26,0,0,0,.486-2.707,6.688,6.688,0,0,0-.352-2.353,1.338,1.338,0,0,0-1.365-.923,1.427,1.427,0,0,0-1.362.876A6.049,6.049,0,0,0,39.5-3.984a6.338,6.338,0,0,0,.275,2.063A1.5,1.5,0,0,0,41.213-.732Z" transform="translate(237.001 73)" fill="#3a3a3a"/>
        <path id="パス_3925" data-name="パス 3925" d="M6.768-6.768a14.151,14.151,0,0,0,1.056-1.26c.348-.456.432-.552.5-.636l-.5-.432a4.689,4.689,0,0,1-1.056.06h-2.2c.24-.348.252-.372.36-.54a1.967,1.967,0,0,1,.18-.264l-.852-.24A3.914,3.914,0,0,1,3.7-9,10.262,10.262,0,0,1,.516-6.012a1.9,1.9,0,0,1,.5.576,12.962,12.962,0,0,0,1.1-.828V-.648c0,.66.2.888.936,1.008A29.69,29.69,0,0,0,6.612.492,14.4,14.4,0,0,0,10.128.264c.612-.18.792-.6.924-2.184a2.81,2.81,0,0,1-.8-.312,7.237,7.237,0,0,1-.132,1.32c-.108.432-.252.528-.876.6-.408.048-1.716.084-2.784.084-1.464,0-2.484-.024-2.964-.084s-.6-.168-.6-.552V-3.3H9.384a6.815,6.815,0,0,1,.972.06,6.212,6.212,0,0,1-.048-.84V-5.988a5.877,5.877,0,0,1,.048-.84,6.921,6.921,0,0,1-.972.06Zm-4.092,0a10.962,10.962,0,0,0,1.452-1.62h3.1a10.117,10.117,0,0,1-1.356,1.62Zm3.78.672h3.1v2.112h-3.1ZM5.712-3.984H2.892V-6.1h2.82Zm7.812-1.788a6.867,6.867,0,0,1,.7-.156c.108-.024.684-.12,1.716-.276a19.81,19.81,0,0,1-1.32,3.8A11.508,11.508,0,0,1,13.368-.228l.816.48c.372-.672.624-1.152.78-1.44a22.639,22.639,0,0,0,1.812-5.088,6.89,6.89,0,0,1,.864-.06c1.116,0,1.476.408,1.476,1.68a9.289,9.289,0,0,1-.5,3.336q-.234.576-.684.576A4.486,4.486,0,0,1,16.14-1.3a2.324,2.324,0,0,1,.036.48,2.61,2.61,0,0,1-.024.42,4.515,4.515,0,0,0,1.812.468A1.253,1.253,0,0,0,19.14-.492a8.271,8.271,0,0,0,.8-4.128,2.422,2.422,0,0,0-.588-1.932,2.293,2.293,0,0,0-1.728-.5,6.993,6.993,0,0,0-.708.036c.108-.576.192-1.02.252-1.368A7.377,7.377,0,0,1,17.4-9.54l-.96-.108v.156a14.667,14.667,0,0,1-.36,2.544c-.972.156-2.22.3-2.652.312ZM20.6-7.356a9.823,9.823,0,0,1,2.448,4.308l.768-.444A10.851,10.851,0,0,0,21.312-7.74Zm8.664-2.256c-.072.36-.336,1.116-1.644,4.584C25.9-.42,25.9-.42,25.74-.084L26.664.2a12.283,12.283,0,0,1,1.1-2.76c.672-1.14,1.452-1.776,2.148-1.776a.642.642,0,0,1,.684.444,2.589,2.589,0,0,1,.1.912v.684A4.947,4.947,0,0,0,30.8-1,1.688,1.688,0,0,0,32.556.084a2.794,2.794,0,0,0,2.388-1.308A6.482,6.482,0,0,0,35.8-3.336,3.425,3.425,0,0,1,35-3.948a5.255,5.255,0,0,1-.456,1.7,2.076,2.076,0,0,1-1.92,1.5,1.118,1.118,0,0,1-.912-.372,2.04,2.04,0,0,1-.192-1.14v-.816a3.027,3.027,0,0,0-.2-1.356,1.332,1.332,0,0,0-1.2-.708c-.852,0-1.464.432-2.256,1.572l-.06-.024a1.805,1.805,0,0,1,.108-.216l.132-.264a20.34,20.34,0,0,0,.864-1.98c1.176-3.012,1.176-3.012,1.332-3.3Zm9.516,3.348a4.149,4.149,0,0,1,.468-.036,34.063,34.063,0,0,0,4.272-.312l.06.12c.012.024.072.132.144.276a14.6,14.6,0,0,0,1.44,2.352A5.992,5.992,0,0,0,42.684-4.3a5.1,5.1,0,0,0-2.328.444A2.243,2.243,0,0,0,39-1.9a1.935,1.935,0,0,0,.54,1.32,4.4,4.4,0,0,0,3.12.9,10.2,10.2,0,0,0,3.528-.636l-.132-.924a7.909,7.909,0,0,1-3.408.756,4.064,4.064,0,0,1-2.34-.552,1.2,1.2,0,0,1-.456-.936A1.363,1.363,0,0,1,40.5-3.084a4.254,4.254,0,0,1,2.28-.5,6.5,6.5,0,0,1,2.1.312,2.265,2.265,0,0,1,.828.5l.8-.468a21.658,21.658,0,0,1-2.16-3.492h.084c.036-.012.12-.024.264-.06.216-.048.552-.108,1.032-.2a2.8,2.8,0,0,1,.3-.072A2.634,2.634,0,0,0,46.3-7.14a1.157,1.157,0,0,0,.144-.024L46.32-8a12.939,12.939,0,0,1-2.256.564,9.468,9.468,0,0,1-.432-1.068,3.909,3.909,0,0,1-.348-1.08l-.948.144a7.561,7.561,0,0,1,.312.7c.2.5.4.972.588,1.416a28.009,28.009,0,0,1-3.576.252,6.939,6.939,0,0,1-.924-.048ZM45.84-9.492a8.8,8.8,0,0,1,1.284,1.86l.6-.372a9.226,9.226,0,0,0-1.3-1.824Zm1.344-.684a9.338,9.338,0,0,1,1.284,1.848l.6-.36a9.986,9.986,0,0,0-1.308-1.836Zm5.04.816a3.691,3.691,0,0,1,.048.636c0,.192,0,.42-.012.78-.1,3.78-.108,4.08-.108,4.884a3.343,3.343,0,0,0,.66,2.46,2.846,2.846,0,0,0,2.256.84,4.2,4.2,0,0,0,3.384-1.5,7.3,7.3,0,0,0,1.332-2.724,3.394,3.394,0,0,1-.864-.576,7.129,7.129,0,0,1-.588,1.884A3.446,3.446,0,0,1,55.116-.588a2.265,2.265,0,0,1-1.5-.468,1.889,1.889,0,0,1-.564-1.44c-.012-.276-.024-.576-.024-.72,0-.54.036-2.172.084-3.612a18.5,18.5,0,0,1,.156-2.532Z" transform="translate(0.001 95)" fill="#3a3a3a"/>
        <path id="パス_3928" data-name="パス 3928" d="M1.125-8.232,3.264-4.277l2.15-3.955H6.721L5.168-5.625H6.193v.8H4.711L3.955-3.551H6v.791H3.814V0H2.707V-2.76H.58v-.791H2.566l-.75-1.277H.3v-.8H1.359L-.182-8.232ZM8.182-5.941V-6.75a4.3,4.3,0,0,0,1.594-.372,1.834,1.834,0,0,0,.674-1.233h.832V0H10.157V-5.941Zm9.4-2.484a2.318,2.318,0,0,1,1.96.729,2.46,2.46,0,0,1,.554,1.5H19.048a1.923,1.923,0,0,0-.3-.779A1.33,1.33,0,0,0,17.6-7.5a1.6,1.6,0,0,0-1.406.817,4.71,4.71,0,0,0-.58,2.341,2.293,2.293,0,0,1,.914-.8,2.636,2.636,0,0,1,1.125-.234,2.737,2.737,0,0,1,1.84.674,2.5,2.5,0,0,1,.785,2.01,3.049,3.049,0,0,1-.744,2.024,2.621,2.621,0,0,1-2.121.882,2.72,2.72,0,0,1-2.033-.894,4.284,4.284,0,0,1-.855-3.009A8.1,8.1,0,0,1,14.9-6.34,2.7,2.7,0,0,1,17.577-8.426ZM17.5-.721a1.447,1.447,0,0,0,1.245-.56A2.163,2.163,0,0,0,19.159-2.6a2.259,2.259,0,0,0-.369-1.228,1.463,1.463,0,0,0-1.342-.583,1.749,1.749,0,0,0-1.192.451A1.716,1.716,0,0,0,15.743-2.6a1.982,1.982,0,0,0,.466,1.339A1.613,1.613,0,0,0,17.5-.721Zm4.6,1.945a.739.739,0,0,0,.568-.568,1.609,1.609,0,0,0,.088-.51q0-.041,0-.073A.4.4,0,0,0,22.736,0H22.1V-1.277h1.254V-.094a2.564,2.564,0,0,1-.281,1.225,1.281,1.281,0,0,1-.973.65Zm4.18-3.363a1.462,1.462,0,0,0,.838,1.248,2.022,2.022,0,0,0,.867.176,1.628,1.628,0,0,0,1.389-.6,2.147,2.147,0,0,0,.451-1.324A1.731,1.731,0,0,0,29.287-4,1.861,1.861,0,0,0,28-4.477a1.937,1.937,0,0,0-.935.211,2,2,0,0,0-.665.586l-.914-.053.639-4.518h4.359v1.02H26.917L26.559-4.9a2.621,2.621,0,0,1,.557-.334A2.826,2.826,0,0,1,28.2-5.426a2.773,2.773,0,0,1,1.957.744,2.461,2.461,0,0,1,.8,1.887,3.237,3.237,0,0,1-.735,2.1,2.844,2.844,0,0,1-2.347.908,2.989,2.989,0,0,1-1.813-.577,2.289,2.289,0,0,1-.882-1.772Zm8.8-6.252a2.479,2.479,0,0,1,2.355,1.342,6,6,0,0,1,.563,2.842,6.843,6.843,0,0,1-.51,2.83A2.5,2.5,0,0,1,35.07.229a2.417,2.417,0,0,1-2.25-1.312A6.01,6.01,0,0,1,32.2-4.025a7.267,7.267,0,0,1,.369-2.455A2.526,2.526,0,0,1,35.075-8.391ZM35.064-.732a1.5,1.5,0,0,0,1.307-.727,5.26,5.26,0,0,0,.486-2.707,6.688,6.688,0,0,0-.352-2.353,1.338,1.338,0,0,0-1.365-.923,1.427,1.427,0,0,0-1.362.876,6.049,6.049,0,0,0-.431,2.581,6.338,6.338,0,0,0,.275,2.063A1.5,1.5,0,0,0,35.064-.732Zm7.046-7.658a2.479,2.479,0,0,1,2.355,1.342,6,6,0,0,1,.563,2.842,6.843,6.843,0,0,1-.51,2.83A2.5,2.5,0,0,1,42.1.229a2.417,2.417,0,0,1-2.25-1.312,6.01,6.01,0,0,1-.615-2.941,7.267,7.267,0,0,1,.369-2.455A2.526,2.526,0,0,1,42.109-8.391ZM42.1-.732A1.5,1.5,0,0,0,43.4-1.459a5.26,5.26,0,0,0,.486-2.707,6.688,6.688,0,0,0-.352-2.353,1.338,1.338,0,0,0-1.365-.923,1.427,1.427,0,0,0-1.362.876,6.049,6.049,0,0,0-.431,2.581,6.338,6.338,0,0,0,.275,2.063A1.5,1.5,0,0,0,42.1-.732Z" transform="translate(237.001 95)" fill="#3a3a3a"/>
        <path id="パス_3922" data-name="パス 3922" d="M-44.9-9.216a6.2,6.2,0,0,1,.036.648v.444l-.024,6.876a2.3,2.3,0,0,1-.084.78l.48.6a3.015,3.015,0,0,1,.7-.18c3.2-.624,4.968-1.74,6.612-4.188a3.056,3.056,0,0,1-.66-.756,7.264,7.264,0,0,1-2.7,2.88,9.06,9.06,0,0,1-3.432,1.2l.036-7.236a7.393,7.393,0,0,1,.06-1.068Zm10.776,1.38a13.251,13.251,0,0,1,2.856,2.352l.624-.744A15.632,15.632,0,0,0-33.54-8.484Zm.084,7.8a6.3,6.3,0,0,1,.72-.192,12.1,12.1,0,0,0,4.476-1.788A10.525,10.525,0,0,0-25.188-6.6a2.4,2.4,0,0,1-.732-.708,9.067,9.067,0,0,1-4.9,5.34,10.445,10.445,0,0,1-3.492.924Zm15.492-9.876a6.554,6.554,0,0,1-.708,1.644,10.442,10.442,0,0,1-3.06,3.42,2.2,2.2,0,0,1,.7.576,11.919,11.919,0,0,0,2.856-3.192l4.2-.06a14.333,14.333,0,0,1-1.668,3.48A17.143,17.143,0,0,0-18.888-5.9l-.552.612a15.094,15.094,0,0,1,2.688,1.944,8.419,8.419,0,0,1-2.076,1.9A10.818,10.818,0,0,1-21.312-.144,2.133,2.133,0,0,1-20.724.6a13.384,13.384,0,0,0,3.792-2.472A13.655,13.655,0,0,0-13.8-7.032a2.693,2.693,0,0,1,.348-.792l-.54-.54a2.079,2.079,0,0,1-.7.12c-3.54.036-3.54.036-3.708.06a6.1,6.1,0,0,0,.372-.66,3.969,3.969,0,0,1,.42-.792Zm9.78.768a5.338,5.338,0,0,1,.048.852,16.371,16.371,0,0,1-.54,5.148,5.936,5.936,0,0,1-2.028,2.76,2.217,2.217,0,0,1,.72.648A7.335,7.335,0,0,0-8.5-2.7c.456-1.212.552-2.1.648-5.352a5.978,5.978,0,0,1,.072-1.032Zm2.988-.084A4.815,4.815,0,0,1-5.736-8.16l-.072,7.02a2.022,2.022,0,0,1-.084.816l.48.552A2,2,0,0,1-5.136.1c.168-.06.168-.06.384-.144A7.91,7.91,0,0,0-3.036-.924,6.818,6.818,0,0,0-.624-4.008,3.355,3.355,0,0,1-1.3-4.7,5.934,5.934,0,0,1-2.712-2.3,5.546,5.546,0,0,1-4.944-.912l.072-7.248A4.652,4.652,0,0,1-4.8-9.216Z" transform="translate(64.001 19)" fill="#3a3a3a"/>
      </g>
      <path id="パス_3933" data-name="パス 3933" d="M-17.616-5.8a9.754,9.754,0,0,0,1.488,3.912A7.579,7.579,0,0,1-18.936.276a2.29,2.29,0,0,1,.564.636,9.882,9.882,0,0,0,2.688-2.2,8.746,8.746,0,0,0,2.448,2.1A3.164,3.164,0,0,1-12.72.108,7.329,7.329,0,0,1-15.2-1.884a11.884,11.884,0,0,0,1.788-3.732,4.359,4.359,0,0,1,.168-.456l-.408-.456a4.868,4.868,0,0,1-1,.06h-3.456L-18.1-7.62V-8.628h4.008a7.271,7.271,0,0,1,1.152.06v-.84a7.99,7.99,0,0,1-1.176.072h-3.5a11.021,11.021,0,0,1-1.272-.06c.036.408.048.8.048,1.5,0,4.944-.312,6.852-1.344,8.268a1.927,1.927,0,0,1,.612.516,7.34,7.34,0,0,0,1.116-2.856A25.674,25.674,0,0,0-18.12-5.8Zm3.468,0a9.945,9.945,0,0,1-1.5,3.288A8.083,8.083,0,0,1-16.92-5.8Zm-6.708,3.708c.432,0,.648.012,1,.036C-19.884-2.3-19.9-2.6-19.9-3.12V-8.484a7.008,7.008,0,0,1,.036-1.008,7.6,7.6,0,0,1-1.044.036h-1.3c-.48,0-.792-.012-1.08-.036a8.076,8.076,0,0,1,.048,1.056v5.28c0,.456-.012.792-.036,1.1a5.653,5.653,0,0,1,.948-.036Zm-1.668-6.72h1.932v1.56h-1.932Zm0,2.184h1.932v1.608h-1.932Zm0,2.232h1.932v1.668h-1.932Zm-.132,2.676A4.681,4.681,0,0,1-23.9.3a2.031,2.031,0,0,1,.6.492A5.812,5.812,0,0,0-22.02-1.4Zm1.188.264a10.972,10.972,0,0,0,.84,1.668,2.982,2.982,0,0,1,.588-.432,7.186,7.186,0,0,1-.828-1.512ZM-6.456-8.664h-3.3A8.752,8.752,0,0,1-11.1-8.736v.816a10.328,10.328,0,0,1,1.332-.072h3.312v1.236h-2.6a7.519,7.519,0,0,1-1.26-.072v.792A8.871,8.871,0,0,1-9.06-6.1h6.12a8.551,8.551,0,0,1,1.272.06v-.792a6.462,6.462,0,0,1-1.272.072H-5.712V-7.992H-2.1A9.732,9.732,0,0,1-.8-7.92v-.816a8.528,8.528,0,0,1-1.308.072h-3.6v-.228A6.178,6.178,0,0,1-5.64-10h-.888a5.632,5.632,0,0,1,.072,1.1Zm-3.792,5.82v-1.6h8.5v1.6h.816a5.294,5.294,0,0,1-.048-.828v-.684a5.159,5.159,0,0,1,.048-.8,11.149,11.149,0,0,1-1.2.048H-9.864a11.194,11.194,0,0,1-1.188-.048A5.53,5.53,0,0,1-11-4.344v.684a5.53,5.53,0,0,1-.048.816ZM-7.824-3.9a3.487,3.487,0,0,1,.036.48A3.147,3.147,0,0,1-9.612-.468a5.5,5.5,0,0,1-1.62.552,2.49,2.49,0,0,1,.516.756A5.7,5.7,0,0,0-8.388-.336a3.662,3.662,0,0,0,1.26-2.052c.036-.216.132-.828.144-1a2.756,2.756,0,0,1,.06-.492Zm3.228.948a4.682,4.682,0,0,1,.072-.936h-.9a4.465,4.465,0,0,1,.06.96v2.64c0,.42.1.6.384.708A5.375,5.375,0,0,0-3.324.576C-2.076.576-1.536.492-1.26.252A3.132,3.132,0,0,0-.7-1.692a2.621,2.621,0,0,1-.756-.3A3.419,3.419,0,0,1-1.764-.4c-.156.2-.492.252-1.608.252C-4.464-.144-4.6-.192-4.6-.552Z" transform="translate(189.764 83)" fill="#3a3a3a"/>
    </g>
  </g>
</svg>
