<svg xmlns="http://www.w3.org/2000/svg" width="611.565" height="101.955" viewBox="0 0 611.565 101.955">
  <g id="グループ_1682" data-name="グループ 1682" transform="translate(-69.195 -620.509)">
    <path id="パス_3787" data-name="パス 3787" d="M-266.65-16.077c-3.933,0-8.763-4-8.763-10.557,0-8.9,7.728-16.146,21.321-16.146,6.9,0,13.524,2.622,19.389,6.072-6.348,7.314-19.8,25.392-19.8,42.021,0,7.314,3.726,12.213,10.833,12.213,13.179,0,26.082-22.908,26.082-22.908a26.914,26.914,0,0,0-.276,4c0,5.106,1.38,13.869,10.971,13.869,12.213,0,27.669-25.668,27.669-43.539,0-9.591-4.761-13.524-5.175-13.524a.456.456,0,0,0-.483.414,26.625,26.625,0,0,1,3.036,13.11c0,17.94-14.352,41.4-25.323,41.4-6.969,0-8.349-6.831-8.349-12.627a43.754,43.754,0,0,1,.759-7.935s6.693-13.455,6.693-16.905a1.159,1.159,0,0,0-1.173-1.311c-2.553,0-8.142,18.7-8.142,18.7S-231.6,15.18-243.535,15.18c-5.8,0-8.487-3.657-8.487-10.005,0-15.594,12.972-33.672,18.7-41.055.621.414,1.173.828,1.794,1.173a1.914,1.914,0,0,0,.9.414.81.81,0,0,0,.621-.69c0-.207-.207-.414-.414-.552l-2-1.449c1.1-1.38,1.794-2.208,1.794-2.277a.8.8,0,0,0-.9-.759,10.886,10.886,0,0,0-2.208,2.208c-6.21-4.071-13.248-6.969-20.907-6.969-14.007,0-23.184,7.8-23.184,18.009,0,7.521,5.727,11.8,10.833,11.8.621,0,1.1-.276,1.1-.621C-265.891-15.8-266.029-16.077-266.65-16.077Zm117.093,9.384a1.541,1.541,0,0,0,.345-.69.816.816,0,0,0-.759-.759c-.345,0-.69.414-.69.414s-5.382,6.21-10.281,6.21c-1.242,0-1.587-.483-1.587-1.311,0-3.174,6.486-7.521,6.486-11.109a2.647,2.647,0,0,0-2.76-2.9c-3.795,0-15.387,9.246-20.631,14.7a52.543,52.543,0,0,1,3.1-5.589c8.763-6.831,24.84-19.251,24.84-25.254a3.377,3.377,0,0,0-3.657-3.381c-7.038,0-15.249,11.661-21.873,24.357-2.76,5.313-6,12.144-6,12.834A1.209,1.209,0,0,0-181.849,2c1.035,0,1.311-.483,2-1.242,5.658-6.072,17.664-15.456,20.7-15.456.207,0,.69.069.69.759,0,2.691-6.486,6.831-6.486,11.178,0,2,1.449,3.174,3.519,3.174C-155.974.414-149.557-6.693-149.557-6.693Zm-5.451-27.738c1.035,0,1.449.552,1.449,1.242,0,5.037-14.421,16.629-21.528,22.218C-168.257-24.15-160.114-34.431-155.008-34.431ZM-133.48-.414c2.553,0,5.727-2.07,9.591-6.279a1.541,1.541,0,0,0,.345-.69.886.886,0,0,0-.828-.759c-.276,0-.621.414-.621.414-3.588,4-6.141,5.52-8.142,5.52-1.518,0-2.76-1.035-2.76-3.519,0-2.346,1.38-4,1.38-4.485a1.187,1.187,0,0,0-1.1-1.1c-.759,0-1.932,2-3.795,4.209-2.277,2.76-6.9,7.038-9.8,7.038-.966,0-1.449-.621-1.449-1.587,0-5.451,8.418-14.214,15.732-14.214,2.07,0,2.415,1.38,2.415,2,0,.69-.207.966-.207,1.449a.544.544,0,0,0,.552.552c.483,0,1.449-.966,1.449-2.346,0-1.725-1.38-3.519-4.83-3.519-7.59,0-17.457,9.315-17.457,16.077a3.333,3.333,0,0,0,3.588,3.588c3.519,0,8.625-4.692,11.316-7.8C-138.1-2.76-136.171-.414-133.48-.414Zm10.557-19.665c1.035,0,2.346.138,3.726.276-3.588,5.313-6.762,11.454-6.762,16.353A3.711,3.711,0,0,0-122.026.414c5.658,0,12.075-7.107,12.075-7.107a1.541,1.541,0,0,0,.345-.69.886.886,0,0,0-.828-.759c-.276,0-.621.414-.621.414s-5.52,6.141-10.35,6.141a1.839,1.839,0,0,1-2-2c0-5.037,3.105-10.971,6.555-15.87,2.76.345,5.589.759,7.383.759.621,0,1.449-.69,1.449-1.173,0-.276-.138-.552-.966-.552a49.806,49.806,0,0,1-6.624-.759c3.174-4.209,6.21-7.59,7.107-8.625.552-.69.759-.828.759-1.173a1.312,1.312,0,0,0-1.173-1.242c-.276,0-.621.207-1.035.69a126.4,126.4,0,0,0-8.073,10,38.451,38.451,0,0,0-4.554-.345c-2.829,0-4.071,1.1-4.071,1.794a.7.7,0,0,0,.759.69C-125.407-19.389-124.993-20.079-122.923-20.079ZM-94.978-7.59c9.453-7.245,24.771-19.941,24.771-26.082,0-1.794-1.38-3.174-3.588-3.174-7.107,0-14.9,12.075-21.528,24.84-2.76,5.244-6.555,13.662-6.555,14.352a.987.987,0,0,0,.966.966c.759,0,1.035-.828,3.1-3.45A27.4,27.4,0,0,1-90.631-5.8C-88.354-3.933-87.25.414-82.42.414c4.623,0,9.384-4.9,11.454-7.107a1.541,1.541,0,0,0,.345-.69.879.879,0,0,0-.759-.759c-.345,0-.69.414-.69.414-1.863,2.07-5.451,6.21-10.281,6.21-3.174,0-4.14-3.519-6.486-5.313,5.865-3.381,12.075-6.279,12.075-8.97,0-.414-.552-1.311-1.035-1.311a.793.793,0,0,0-.621.414c-2.484,5.106-13.731,7.866-18.7,13.179C-97.117-3.519-96.427-4.9-94.978-7.59Zm21.39-27.324a1.269,1.269,0,0,1,1.38,1.242c0,5.175-13.662,16.974-21.735,23.184C-87.112-22.908-79.108-34.914-73.588-34.914ZM-57.3-6.693a1.541,1.541,0,0,0,.345-.69.886.886,0,0,0-.828-.759c-.276,0-.621.414-.621.414S-64.273-1.1-68.9-1.1a2.083,2.083,0,0,1-2.277-2.208c0-3.864,4.968-10.143,6.624-12.144a1.768,1.768,0,0,0,.414-.828.987.987,0,0,0-1.1-1.035c-1.173,0-8.28,9.315-8.28,14.007a3.84,3.84,0,0,0,4.14,4C-64.066.69-57.3-6.693-57.3-6.693Zm-1.587-20.148c-1.173,0-2.277,1.725-2.277,2.9A1.254,1.254,0,0,0-59.857-22.7c1.1,0,2.277-1.725,2.277-2.967A1.2,1.2,0,0,0-58.891-26.841ZM-29.152-6.693a1.541,1.541,0,0,0,.345-.69.886.886,0,0,0-.828-.759c-.276,0-.621.414-.621.414s-5.037,6.141-10.35,6.141c-1.242,0-1.863-.552-1.863-1.587,0-3.174,6.486-7.521,6.486-11.316a3.039,3.039,0,0,0-3.174-2.967c-4.83,0-13.455,6.693-19.044,12.765a71.529,71.529,0,0,1,7.314-9.936c.483-.552.69-.828.69-1.035a1.134,1.134,0,0,0-1.173-1.1c-1.1,0-6.486,7.521-9.108,12.006-1.449,2.484-2.277,4.14-2.277,4.692a1.12,1.12,0,0,0,1.1,1.035A1.664,1.664,0,0,0-60.133.138c7.245-8.487,16.146-15.525,20.562-15.525a.972.972,0,0,1,1.1.9c0,3.036-6.624,7.383-6.624,11.523,0,2,1.587,3.381,3.864,3.381C-35.569.414-29.152-6.693-29.152-6.693Zm14.973,1.656a12.754,12.754,0,0,1,.069-1.587C-5-15.387,4.52-28.152,4.52-32.775a3.06,3.06,0,0,0-3.174-3.243c-5.52,0-11.73,10.626-15.18,19.941a4.939,4.939,0,0,0-3.657-1.311c-5.727,0-14.352,8.073-14.352,14.766a4.368,4.368,0,0,0,4.485,4.554c2.553,0,6.555-2.622,10.9-6.417.138,3.45,2.277,4.9,4.9,4.9C-6.382.414.035-6.693.035-6.693a1.541,1.541,0,0,0,.345-.69.886.886,0,0,0-.828-.759c-.276,0-.621.414-.621.414s-5.313,6.141-10.35,6.141C-12.868-1.587-14.179-2.346-14.179-5.037ZM-27.22-.069a2.209,2.209,0,0,1-2.346-2.346c0-5.589,7.521-13.179,12.351-13.179a3.028,3.028,0,0,1,2.76,1.311,51.816,51.816,0,0,0-1.863,7.314C-20.665-2.9-24.736-.069-27.22-.069ZM1.208-34.017a1.153,1.153,0,0,1,1.311,1.1c0,4.14-7.935,15.111-15.939,23.184C-11.143-18.906-3.829-34.017,1.208-34.017ZM26.254-3.726h-.069c2.76-2.829,4.83-6.693,4.83-10.419,0-3.795-2.07-6.693-6.348-6.693-5.037,0-9.384,4.14-9.453,8.694a12.617,12.617,0,0,0-3.45,7.935,5.07,5.07,0,0,0,5.382,5.244,12.272,12.272,0,0,0,7.245-3.1A6.694,6.694,0,0,0,25.564-2c3.8,0,6.555-.966,10.074-4.692a1.541,1.541,0,0,0,.345-.69.879.879,0,0,0-.759-.759c-.345,0-.69.414-.69.414C31.982-4.9,29.29-3.726,26.254-3.726Zm-9.039-7.728a11.8,11.8,0,0,1,7.8-4.554c.483-.069.966-.207.966-.759,0-.414-.414-.621-1.311-.621a11.671,11.671,0,0,0-6.831,2.76,8.068,8.068,0,0,1,7.038-4.14c2.346,0,3.864,2,3.864,4.554,0,3.588-2.346,7.521-5.244,10.074A8.5,8.5,0,0,1,17.215-11.454Zm0,10.419A2.682,2.682,0,0,1,14.248-4,11.528,11.528,0,0,1,15.7-9.177a11.55,11.55,0,0,0,6.141,6.348A8.171,8.171,0,0,1,17.215-1.035ZM36.329-11.8c-1.173,2.277-2.208,4.623-3.243,7.107a.622.622,0,0,0-.345-.069,2.006,2.006,0,0,0-1.725,1.932c0,.552.276.828.828,1.1A59.112,59.112,0,0,0,27.7,18.906c0,5.589,2.139,7.8,4.761,7.8,4.554,0,7.8-10.833,7.8-17.8,0-7.107-2.277-9.177-2.277-9.177,4.692,0,8.28-3.588,10.9-6.417a1.541,1.541,0,0,0,.345-.69.886.886,0,0,0-.828-.759c-.276,0-.621.414-.621.414C45.506-5.244,42.4-2,38.4-2a5.66,5.66,0,0,1-3.588-1.38l1.863-4.14C45.782-13.938,62.066-26.5,62.066-32.982a3.416,3.416,0,0,0-3.657-3.381C51.578-36.363,42.884-24.495,36.329-11.8ZM34.121-1.1c1.725.414,4.14,2.346,4.14,9.867,0,6.072-2.9,16.146-5.8,16.146-1.38,0-2.691-1.587-2.691-5.865A56.286,56.286,0,0,1,33.983-1.1ZM58.547-34.431A1.334,1.334,0,0,1,60-33.189c0,5.106-14.628,17.043-21.39,21.942C45.3-23.874,53.234-34.431,58.547-34.431Zm32.5,27.738a1.541,1.541,0,0,0,.345-.69.816.816,0,0,0-.759-.759c-.345,0-.69.414-.69.414s-5.382,6.21-10.281,6.21c-1.242,0-1.587-.483-1.587-1.311,0-3.174,6.486-7.521,6.486-11.109a2.647,2.647,0,0,0-2.76-2.9c-3.8,0-15.387,9.246-20.631,14.7a52.541,52.541,0,0,1,3.105-5.589c8.763-6.831,24.84-19.251,24.84-25.254a3.377,3.377,0,0,0-3.657-3.381c-7.038,0-15.249,11.661-21.873,24.357-2.76,5.313-6,12.144-6,12.834A1.209,1.209,0,0,0,58.754,2c1.035,0,1.311-.483,2-1.242C66.413-5.313,78.419-14.7,81.455-14.7c.207,0,.69.069.69.759,0,2.691-6.486,6.831-6.486,11.178,0,2,1.449,3.174,3.519,3.174C84.629.414,91.046-6.693,91.046-6.693ZM85.595-34.431c1.035,0,1.449.552,1.449,1.242,0,5.037-14.421,16.629-21.528,22.218C72.347-24.15,80.489-34.431,85.595-34.431ZM107.122-.414c2.553,0,5.727-2.07,9.591-6.279a1.541,1.541,0,0,0,.345-.69.886.886,0,0,0-.828-.759c-.276,0-.621.414-.621.414-3.588,4-6.141,5.52-8.142,5.52-1.518,0-2.76-1.035-2.76-3.519,0-2.346,1.38-4,1.38-4.485a1.187,1.187,0,0,0-1.1-1.1c-.759,0-1.932,2-3.795,4.209-2.277,2.76-6.9,7.038-9.8,7.038-.966,0-1.449-.621-1.449-1.587,0-5.451,8.418-14.214,15.732-14.214,2.07,0,2.415,1.38,2.415,2,0,.69-.207.966-.207,1.449a.544.544,0,0,0,.552.552c.483,0,1.449-.966,1.449-2.346,0-1.725-1.38-3.519-4.83-3.519-7.59,0-17.457,9.315-17.457,16.077a3.333,3.333,0,0,0,3.588,3.588c3.519,0,8.625-4.692,11.316-7.8C102.5-2.76,104.431-.414,107.122-.414Zm23.253-6.279a1.541,1.541,0,0,0,.345-.69.886.886,0,0,0-.828-.759c-.276,0-.621.414-.621.414S123.406-1.1,118.784-1.1a2.083,2.083,0,0,1-2.277-2.208c0-3.864,4.968-10.143,6.624-12.144a1.768,1.768,0,0,0,.414-.828.987.987,0,0,0-1.1-1.035c-1.173,0-8.28,9.315-8.28,14.007a3.84,3.84,0,0,0,4.14,4C123.613.69,130.376-6.693,130.376-6.693Zm-1.587-20.148c-1.173,0-2.277,1.725-2.277,2.9a1.254,1.254,0,0,0,1.311,1.242c1.1,0,2.277-1.725,2.277-2.967A1.2,1.2,0,0,0,128.788-26.841Zm9.936,9.108c0-1.035,2.967-3.519,2.967-4.554a1.838,1.838,0,0,0-1.518-1.449c-1.725,0-2.9,4.416-3.726,6.072a68.967,68.967,0,0,1-7.176,9.936,1.541,1.541,0,0,0-.345.69.813.813,0,0,0,.759.69,1.2,1.2,0,0,0,.69-.345c2.553-2.9,5.451-6.624,6.486-8.073.414-.552.621-.759.9-.759.414,0,1.242.552,2.691,1.587.483.345.828.621.828.966,0,2.415-5.589,6.555-5.589,10.833a3.446,3.446,0,0,0,3.726,3.45c3.657,0,8.487-3.795,12.351-8a1.541,1.541,0,0,0,.345-.69.879.879,0,0,0-.759-.759c-.345,0-.69.414-.69.414-3.588,4-7.59,7.245-10.833,7.245a1.654,1.654,0,0,1-1.863-1.794c0-4,6-8.28,6-11.247,0-.69-.483-1.1-1.242-1.449C141.347-15.732,138.725-17.319,138.725-17.733ZM160.6-3.312c0-4.554-2.346-6.486-2.346-9.591,0-2.622,2.967-4.9,2.967-5.658a1.6,1.6,0,0,0-1.38-1.38c-.828,0-2,1.725-3.174,3.864a47.891,47.891,0,0,1-5.934,8.349,1.541,1.541,0,0,0-.345.69.813.813,0,0,0,.759.69,1.2,1.2,0,0,0,.69-.345,41.635,41.635,0,0,0,4.209-5.451c.138,2.967,2.415,5.106,2.415,8.763a6.077,6.077,0,0,1-.138,1.173,33.865,33.865,0,0,1-5.865.345c-2.139,0-3.657.828-3.657,2.76,0,1.449,1.656,3.036,4.278,3.036a7.577,7.577,0,0,0,7.107-4.968,17.3,17.3,0,0,0,9.522-5.658,1.541,1.541,0,0,0,.345-.69.886.886,0,0,0-.828-.759c-.276,0-.621.414-.621.414a15.576,15.576,0,0,1-8.073,5.106A2.127,2.127,0,0,0,160.6-3.312Zm-7.452,5.52c-1.656,0-2.346-.69-2.346-1.449,0-1.38,2.967-.828,6.969-1.311A5.4,5.4,0,0,1,153.145,2.208Zm17.526-22.287c1.035,0,2.346.138,3.726.276-3.588,5.313-6.762,11.454-6.762,16.353A3.711,3.711,0,0,0,171.568.414c5.658,0,12.075-7.107,12.075-7.107a1.541,1.541,0,0,0,.345-.69.886.886,0,0,0-.828-.759c-.276,0-.621.414-.621.414s-5.52,6.141-10.35,6.141a1.839,1.839,0,0,1-2-2c0-5.037,3.1-10.971,6.555-15.87,2.76.345,5.589.759,7.383.759.621,0,1.449-.69,1.449-1.173,0-.276-.138-.552-.966-.552a49.807,49.807,0,0,1-6.624-.759c3.174-4.209,6.21-7.59,7.107-8.625.552-.69.759-.828.759-1.173a1.312,1.312,0,0,0-1.173-1.242c-.276,0-.621.207-1.035.69a126.4,126.4,0,0,0-8.073,10,38.451,38.451,0,0,0-4.554-.345c-2.829,0-4.071,1.1-4.071,1.794a.7.7,0,0,0,.759.69C168.188-19.389,168.6-20.079,170.672-20.079ZM209.1-6.693a1.541,1.541,0,0,0,.345-.69.886.886,0,0,0-.828-.759c-.276,0-.621.414-.621.414-2.691,3.105-6.555,5.8-10.9,8.28.552-1.587,1.035-3.174,1.449-4.554a43.212,43.212,0,0,1,4.209-9.384,2.676,2.676,0,0,0,.414-.966,1.06,1.06,0,0,0-1.035-1.035c-.552,0-.759.345-1.1.966a42.974,42.974,0,0,1-4.83,7.452c-4.14,4.761-7.935,7.245-11.178,7.245a1.927,1.927,0,0,1-2.139-2.139c0-4,5.589-11.523,7.866-14.352.345-.414.483-.621.483-.759a1.378,1.378,0,0,0-1.173-1.173c-1.311,0-9.8,11.385-9.8,16.284a4.021,4.021,0,0,0,4.347,4.209c3.45,0,7.728-2.829,11.592-6.693-.552,1.932-1.242,4.209-2.07,6.555C181.16,9.315,165.7,15.249,165.7,24.909c0,3.8,2.967,6.555,7.314,6.555,11.868,0,19.113-16.215,23.253-28.428C201.239.138,205.862-2.967,209.1-6.693ZM172.811,29.394c-3.1,0-4.968-1.932-4.968-4.554,0-7.866,13.248-13.317,25.461-20.079C189.3,15.939,182.678,29.394,172.811,29.394Zm52.3-36.087a1.541,1.541,0,0,0,.345-.69.886.886,0,0,0-.828-.759c-.276,0-.621.414-.621.414-.9,1.035-6.348,7.107-11.04,7.107-2.277,0-3.45-1.173-3.45-3.381a6.28,6.28,0,0,1,.621-3.174c8.694-8,21.8-21.459,21.8-26.634a2.771,2.771,0,0,0-2.967-2.9c-6.486,0-21.6,21.183-21.6,32.706a5,5,0,0,0,5.244,5.382C217.592,1.38,224.147-5.589,225.113-6.693Zm3.933-28.221a.811.811,0,0,1,.9.828c0,4.761-11.937,17.319-19.458,24.15C214.142-21.045,224.975-34.914,229.046-34.914ZM245.468-6.693a1.541,1.541,0,0,0,.345-.69.816.816,0,0,0-.759-.759c-.345,0-.69.414-.69.414s-6.348,7.8-14.628,7.8c-2.553,0-4.347-1.518-4.347-3.933a3.821,3.821,0,0,1,.138-1.242C231.254-6.555,240.5-10.35,240.5-14.49c0-1.725-1.449-2.967-3.588-2.967-5.313,0-13.938,6.969-13.938,13.386,0,3.933,3.036,6.141,6.762,6.141C237.74,2.07,245.468-6.693,245.468-6.693Zm-8.28-8.832c1.035,0,1.242.621,1.242.828,0,2.9-7.038,6.21-12.282,7.59C228.149-11.385,233.393-15.525,237.188-15.525ZM248.021-1.242c0,1.1.621,1.794,1.518,1.794,1.173,0,2.415-1.656,2.415-3.105,0-1.173-.69-1.794-1.449-1.794C249.193-4.347,248.021-2.691,248.021-1.242Zm15.8-31.257c-1.242,2.9-6,8.97-10.488,8.97-1.311,0-3.312-.9-3.312-4.14,0-7.866,10.695-15.456,18.354-15.456,4.9,0,7.383,2.76,7.383,6.624,0,14.145-23.943,18.561-23.943,28.428,0,1.863,1.449,3.312,2.484,3.312.276,0,.69-.207.69-.552,0-.207-.276-.483-.483-.621-.414-.345-.69-.828-.69-2,0-8.97,23.874-13.593,23.874-28.5,0-5.037-3.45-8.418-9.315-8.418-8.763,0-20.355,8.487-20.355,17.112,0,4.071,2.76,5.934,5.313,5.934,5.382,0,11.868-7.8,11.868-11.04,0-.345-.069-.69-.483-.69S264.029-32.982,263.822-32.5Z" transform="translate(403.069 691)" fill="#f59c9c"/>
    <g id="グループ_904" data-name="グループ 904" transform="matrix(0.985, -0.174, 0.174, 0.985, -609.788, -780.554)">
      <line id="線_5" data-name="線 5" x2="11.201" y2="10.434" transform="translate(428.5 1517.5)" fill="none" stroke="#f59c9c" stroke-linecap="round" stroke-width="2"/>
      <line id="線_7" data-name="線 7" y1="6.619" x2="14.931" transform="translate(419.569 1553.5)" fill="none" stroke="#f59c9c" stroke-linecap="round" stroke-width="2"/>
      <line id="線_9" data-name="線 9" x1="4.571" y2="15.654" transform="translate(464.5 1506.846)" fill="none" stroke="#f59c9c" stroke-linecap="round" stroke-width="2"/>
      <line id="線_6" data-name="線 6" x2="15" y2="2" transform="translate(419.5 1538.5)" fill="none" stroke="#f59c9c" stroke-linecap="round" stroke-width="2"/>
      <line id="線_8" data-name="線 8" x2="3.642" y2="14.663" transform="translate(448.5 1507.5)" fill="none" stroke="#f59c9c" stroke-linecap="round" stroke-width="2"/>
    </g>
  </g>
</svg>
