<svg xmlns="http://www.w3.org/2000/svg" xmlns:xlink="http://www.w3.org/1999/xlink" width="397" height="256" viewBox="0 0 397 256">
  <defs>
    <filter id="予約受付中" x="135.384" y="0" width="140" height="41" filterUnits="userSpaceOnUse">
      <feOffset dx="6" dy="3" input="SourceAlpha"/>
      <feGaussianBlur stdDeviation="3" result="blur"/>
      <feFlood flood-color="#fff" flood-opacity="0.161"/>
      <feComposite operator="in" in2="blur"/>
      <feComposite in="SourceGraphic"/>
    </filter>
  </defs>
  <g id="グループ_1544" data-name="グループ 1544" transform="translate(-583.303 -2242.188)">
    <g id="グループ_1517" data-name="グループ 1517" transform="translate(583.303 2270.359)">
      <g id="グループ_802" data-name="グループ 802" transform="translate(0 0)">
        <g id="グループ_799" data-name="グループ 799">
          <g id="グループ_796" data-name="グループ 796">
            <path id="パス_3692" data-name="パス 3692" d="M481.018,463.317c-1.688-1.543-16.849-14.825-41.466-13.1-5.417.375-12.208,1.428-21.507,6.376-3.492,1.861-6.621,3.8-9.386,5.512-6.105,3.794-10.918,6.783-16.222,6.984-7.8.288-13.2-4.859-13.15-12.516.043-7.036,5.466-10.639,9.128-10.862a9.008,9.008,0,0,1,8.67,6.181,15.492,15.492,0,0,1,.706,3.391,12.154,12.154,0,0,0-.2-3.569,7.15,7.15,0,0,0-1.193-2.913,8.688,8.688,0,0,0-4.584-3.528,10.1,10.1,0,0,0-3.388-.5c-3.938.2-9.82,4.084-9.928,11.8a12.822,12.822,0,0,0,13.99,13.485c7.83-.344,19.419-6.82,24.993-9.93l1.737-.959.832-.459c6.087-3.309,11.839-6.436,19.645-7.263,22.791-2.417,39.384,11.146,41.2,12.7l4.849,3.848-3.407-3.489Z" transform="translate(-289.474 -441.475)" fill="#454444"/>
            <g id="グループ_795" data-name="グループ 795">
              <path id="パス_3693" data-name="パス 3693" d="M372.538,444.119a7.717,7.717,0,0,0-10.563,3.445c-2.287,4.439.118,7.56,2.567,8.757,1.514.74,3.07.937,4.555-.563-1.426.7-2.573.418-4.1-.323-1.889-.922-3.159-3.489-1.317-7.038,1.954-3.768,5.47-4.831,8.394-3.4,3.51,1.718,7.256,6.555,3.908,13.013a13.3,13.3,0,0,1-6.257,6.025,9.477,9.477,0,0,1-1.627,1.32,14.318,14.318,0,0,0,8.447-7.068A10.5,10.5,0,0,0,372.538,444.119Z" transform="translate(-307.424 -443.245)" fill="#454444"/>
              <path id="パス_3694" data-name="パス 3694" d="M426.375,449.633c-11.565-1.846-22.177,2.924-33.389,9.341-11.232,6.415-22.842,13.769-37.863,11.371-8.911-1.411-12.1-3.112-17.814-6.685-1.008-.565-2.191-1.35-2.686-1.543,4.032,4.225,10.66,7.659,20.5,9.224,18.291,2.907,29.321-3.541,40.539-9.943s19.145-12.871,30.7-11.022c10.094,1.6,17.784,11.165,19.533,21.662.209-.738-.227-1.777-.126-2.571C444.7,458.87,436.224,451.2,426.375,449.633Z" transform="translate(-334.623 -437.415)" fill="#454444"/>
            </g>
          </g>
          <g id="グループ_798" data-name="グループ 798" transform="translate(200.731)">
            <path id="パス_3695" data-name="パス 3695" d="M531.368,444.773a10.117,10.117,0,0,0-3.388.5,8.67,8.67,0,0,0-4.585,3.528,7.058,7.058,0,0,0-1.189,2.913,12.365,12.365,0,0,0-.2,3.569,15.484,15.484,0,0,1,.712-3.391,9,9,0,0,1,8.67-6.181c3.658.223,9.086,3.826,9.126,10.862.057,7.657-5.354,12.8-13.152,12.516-5.3-.2-10.114-3.19-16.218-6.984-2.768-1.712-5.9-3.651-9.386-5.512-9.3-4.947-16.092-6-21.505-6.376-24.614-1.729-39.772,11.553-41.46,13.1l-1.313,1.186-3.411,3.489,4.847-3.848c1.812-1.552,18.4-15.115,41.188-12.7,7.805.827,13.556,3.954,19.64,7.263l.836.459,1.735.959c5.574,3.11,17.163,9.586,24.993,9.93a13.313,13.313,0,0,0,10.926-4.426,13.454,13.454,0,0,0,3.066-9.059C541.188,448.857,535.308,444.977,531.368,444.773Z" transform="translate(-434.066 -441.475)" fill="#454444"/>
            <g id="グループ_797" data-name="グループ 797" transform="translate(84.927)">
              <path id="パス_3696" data-name="パス 3696" d="M501.388,444.119a10.509,10.509,0,0,0-4,14.172,14.308,14.308,0,0,0,8.445,7.068,9.16,9.16,0,0,1-1.625-1.32,13.317,13.317,0,0,1-6.26-6.025c-3.352-6.458.4-11.3,3.91-13.013,2.924-1.433,6.438-.37,8.394,3.4,1.84,3.549.57,6.116-1.321,7.038-1.522.74-2.67,1.026-4.094.323,1.485,1.5,3.035,1.3,4.553.563,2.445-1.2,4.853-4.318,2.569-8.757A7.724,7.724,0,0,0,501.388,444.119Z" transform="translate(-455.165 -443.245)" fill="#454444"/>
              <path id="パス_3697" data-name="パス 3697" d="M566.762,470.344c-15.023,2.4-26.634-4.956-37.861-11.371s-21.836-11.187-33.4-9.341c-9.853,1.563-18.332,9.237-19.395,19.833.1.794-.339,1.833-.126,2.571,1.743-10.5,9.437-20.06,19.535-21.662,11.555-1.848,19.484,4.612,30.711,11.022s22.25,12.849,40.535,9.943c9.843-1.565,16.467-5,20.5-9.224-.5.193-1.678.978-2.687,1.543C578.857,467.232,575.676,468.933,566.762,470.344Z" transform="translate(-475.923 -437.415)" fill="#454444"/>
            </g>
          </g>
        </g>
        <g id="グループ_801" data-name="グループ 801" transform="translate(188.159 7.536)">
          <path id="パス_3698" data-name="パス 3698" d="M433.441,446.958a2.308,2.308,0,0,0-1.26,1.281,8.283,8.283,0,0,0-.367,3.958c.319,2.664,1.327,5.216,1.907,7.819.018-.074.03-.158.057-.247a54.727,54.727,0,0,0,1.84-7.573,8.149,8.149,0,0,0-.363-3.958C434.908,447.423,434.149,446.722,433.441,446.958Z" transform="translate(-423.378 -446.912)" fill="#454444"/>
          <g id="グループ_800" data-name="グループ 800" transform="translate(0 3.617)">
            <path id="パス_3699" data-name="パス 3699" d="M441.152,448.765a1.7,1.7,0,0,0-1.436-.048,5.984,5.984,0,0,0-2.4,2.063,63.029,63.029,0,0,0-3.23,5.722c.055-.03.114-.069.172-.1a40.839,40.839,0,0,0,5.261-3.227,6.405,6.405,0,0,0,1.976-2.526C441.74,449.96,441.7,449.077,441.152,448.765Z" transform="translate(-420.959 -448.583)" fill="#454444"/>
            <path id="パス_3700" data-name="パス 3700" d="M429.535,448.717a1.708,1.708,0,0,0-1.439.048c-.54.312-.584,1.195-.339,1.883a6.375,6.375,0,0,0,1.98,2.526A40.412,40.412,0,0,0,435,456.4c.059.032.116.071.172.1a63.542,63.542,0,0,0-3.228-5.722A6,6,0,0,0,429.535,448.717Z" transform="translate(-427.615 -448.583)" fill="#454444"/>
          </g>
        </g>
      </g>
      <g id="グループ_809" data-name="グループ 809" transform="translate(0 193.186)">
        <g id="グループ_808" data-name="グループ 808">
          <g id="グループ_805" data-name="グループ 805" transform="translate(200.741)">
            <path id="パス_3701" data-name="パス 3701" d="M438.8,553.395c1.688,1.543,16.844,14.823,41.454,13.094,5.417-.372,12.208-1.428,21.507-6.376,3.492-1.859,6.621-3.8,9.388-5.512,6.1-3.792,10.914-6.781,16.222-6.982,7.8-.288,13.2,4.859,13.148,12.516-.041,7.036-5.464,10.639-9.126,10.862a9.013,9.013,0,0,1-8.672-6.183,15.446,15.446,0,0,1-.706-3.389,12.131,12.131,0,0,0,.2,3.567,7.089,7.089,0,0,0,1.193,2.915,8.7,8.7,0,0,0,4.581,3.528,10.1,10.1,0,0,0,3.388.5c3.938-.206,9.82-4.086,9.928-11.8a12.82,12.82,0,0,0-13.992-13.485c-7.828.344-19.417,6.82-24.991,9.927l-1.735.961-.836.459c-6.087,3.309-11.837,6.434-19.64,7.263-22.785,2.415-39.374-11.146-41.184-12.7l-4.851-3.848,3.409,3.489Z" transform="translate(-434.071 -540.592)" fill="#454444"/>
            <g id="グループ_804" data-name="グループ 804" transform="translate(84.926)">
              <path id="パス_3702" data-name="パス 3702" d="M501.392,570.872a7.718,7.718,0,0,0,10.565-3.446c2.285-4.437-.12-7.56-2.571-8.754-1.512-.74-3.068-.937-4.551.561,1.422-.7,2.573-.415,4.1.325,1.889.922,3.159,3.489,1.317,7.038-1.956,3.768-5.468,4.831-8.392,3.4-3.512-1.718-7.258-6.555-3.906-13.016a13.285,13.285,0,0,1,6.253-6.025,9.635,9.635,0,0,1,1.627-1.318,14.313,14.313,0,0,0-8.447,7.066A10.508,10.508,0,0,0,501.392,570.872Z" transform="translate(-455.175 -537.104)" fill="#454444"/>
              <path id="パス_3703" data-name="パス 3703" d="M495.508,565.744c11.563,1.846,22.177-2.924,33.387-9.343,11.233-6.415,22.842-13.767,37.861-11.371,8.915,1.413,12.1,3.114,17.818,6.688,1.008.565,2.19,1.348,2.687,1.541-4.034-4.222-10.662-7.657-20.5-9.224-18.289-2.9-29.321,3.541-40.539,9.945S507.077,566.85,495.518,565c-10.094-1.6-17.786-11.165-19.533-21.662-.209.738.225,1.775.126,2.571C477.178,556.507,485.659,564.182,495.508,565.744Z" transform="translate(-475.928 -543.318)" fill="#454444"/>
            </g>
          </g>
          <g id="グループ_807" data-name="グループ 807">
            <path id="パス_3704" data-name="パス 3704" d="M388.434,571.938a10.117,10.117,0,0,0,3.39-.5,8.71,8.71,0,0,0,4.587-3.528,7.025,7.025,0,0,0,1.187-2.915,12.277,12.277,0,0,0,.2-3.567,15.442,15.442,0,0,1-.712,3.389,9,9,0,0,1-8.67,6.183c-3.658-.223-9.086-3.826-9.126-10.862-.057-7.657,5.354-12.8,13.152-12.516,5.3.2,10.112,3.19,16.22,6.982,2.766,1.712,5.9,3.653,9.386,5.512,9.3,4.947,16.09,6,21.505,6.376,24.62,1.729,39.784-11.55,41.472-13.094l1.313-1.186,3.409-3.489-4.845,3.848c-1.812,1.552-18.409,15.113-41.2,12.7-7.8-.829-13.556-3.954-19.638-7.263l-.836-.459-1.737-.961c-5.574-3.108-17.163-9.583-24.993-9.927a12.823,12.823,0,0,0-13.992,13.485C378.615,567.852,384.5,571.732,388.434,571.938Z" transform="translate(-289.47 -540.592)" fill="#454444"/>
            <g id="グループ_806" data-name="グループ 806">
              <path id="パス_3705" data-name="パス 3705" d="M372.542,570.872a10.507,10.507,0,0,0,4-14.172,14.291,14.291,0,0,0-8.445-7.066,9.163,9.163,0,0,1,1.625,1.318,13.34,13.34,0,0,1,6.261,6.025c3.35,6.46-.4,11.3-3.91,13.016-2.924,1.433-6.44.37-8.4-3.4-1.84-3.549-.57-6.116,1.323-7.038,1.522-.74,2.668-1.026,4.092-.325-1.483-1.5-3.035-1.3-4.555-.561-2.443,1.195-4.851,4.318-2.567,8.754A7.721,7.721,0,0,0,372.542,570.872Z" transform="translate(-307.424 -537.104)" fill="#454444"/>
              <path id="パス_3706" data-name="パス 3706" d="M355.124,545.03c15.023-2.4,26.634,4.956,37.861,11.371s21.836,11.189,33.4,9.343c9.855-1.562,18.332-9.237,19.4-19.833-.1-.8.339-1.833.126-2.571-1.745,10.5-9.439,20.06-19.535,21.662-11.557,1.848-19.484-4.614-30.713-11.022s-22.25-12.849-40.535-9.945c-9.843,1.567-16.469,5-20.5,9.224.493-.193,1.678-.976,2.686-1.541C343.031,548.144,346.211,546.444,355.124,545.03Z" transform="translate(-334.623 -543.318)" fill="#454444"/>
            </g>
          </g>
        </g>
      </g>
      <text id="ヘア小物相談会" transform="translate(196.697 115.301)" fill="#3a3a3a" font-size="43" font-family="YuMin-Medium, YuMincho" font-weight="500" letter-spacing="0.03em"><tspan x="-154.37" y="0">ヘア小物相談会</tspan></text>
      <text id="Hair_Accessory_Counseling" data-name="Hair Accessory Counseling" transform="translate(196.697 153.109)" fill="#3a3a3a" font-size="24" font-family="YuMin-Medium, YuMincho" font-weight="500" letter-spacing="0.03em"><tspan x="-149.892" y="0">Hair Accessory Counseling</tspan></text>
    </g>
    <path id="パス_3755" data-name="パス 3755" d="M-2713.1,2253.289l-10.874-8.824Z" transform="translate(3428.534 15.67)" fill="none" stroke="#575656" stroke-linecap="round" stroke-linejoin="round" stroke-width="1"/>
    <path id="パス_3756" data-name="パス 3756" d="M-2723.976,2253.289l10.874-8.824Z" transform="translate(3573.174 15.67)" fill="none" stroke="#575656" stroke-linecap="round" stroke-linejoin="round" stroke-width="1"/>
    <g transform="matrix(1, 0, 0, 1, 583.3, 2242.19)" filter="url(#予約受付中)">
      <text id="予約受付中-2" data-name="予約受付中" transform="translate(138.38 6)" fill="#3a3a3a" font-size="20" font-family="YuGo-Medium, YuGothic" font-weight="500" letter-spacing="0.05em"><tspan x="8.889" y="18">予約受付中</tspan></text>
    </g>
  </g>
</svg>
