<svg xmlns="http://www.w3.org/2000/svg" width="459.658" height="90.259" viewBox="0 0 459.658 90.259">
  <g id="グループ_1681" data-name="グループ 1681" transform="translate(-479.126 -1938.562)">
    <path id="パス_3788" data-name="パス 3788" d="M-157.28-11.52c0-.576-1.92-2.752-5.184-2.752a14.628,14.628,0,0,0-1.6.128c2.88-7.168,6.08-14.016,11.008-18.5,2.56-.768,5.184-1.92,5.184-3.392a1.247,1.247,0,0,0-1.408-1.28c-.96,0-2.816,1.216-4.224,2.56-9.024,0-19.84-8.128-31.36-8.128-8.64,0-16.7,4.1-16.7,12.672,0,6.272,5.312,9.728,11.136,9.728.96,0,1.216-.256,1.216-.576s-.192-.576-.96-.576c-4.992,0-9.152-3.328-9.152-8.576,0-7.3,7.04-10.5,14.528-10.5,10.176,0,23.1,7.872,29.248,7.872-5.12,4.864-8.384,11.968-11.2,19.2a15.17,15.17,0,0,1-2.688.32c-2.112,0-3.456-.832-3.712-1.856-.128-.512-.32-.7-.7-.7-.512,0-1.088.7-1.088,1.344,0,1.792,1.984,3.328,5.184,3.328a13.065,13.065,0,0,0,2.176-.192c-4.736,12.48-8.576,24.64-18.816,24.64-4.864,0-7.04-3.2-7.04-6.4,0-4.672,4.224-7.1,4.224-7.488,0-.192-.192-.512-.384-.512-.576,0-6.144,3.008-6.144,8.448,0,4.224,3.2,7.936,9.344,7.936,11.968,0,16.32-13.7,21.5-27.136a8.922,8.922,0,0,1,2.048-.32c3.968,0,4.544,1.344,4.992,1.344A.589.589,0,0,0-157.28-11.52ZM-139.744-.384c2.368,0,5.312-1.92,8.9-5.824a1.429,1.429,0,0,0,.32-.64.822.822,0,0,0-.768-.7c-.256,0-.576.384-.576.384-3.328,3.712-5.7,5.12-7.552,5.12-1.408,0-2.56-.96-2.56-3.264,0-2.176,1.28-3.712,1.28-4.16a1.1,1.1,0,0,0-1.024-1.024c-.7,0-1.792,1.856-3.52,3.9-2.112,2.56-6.4,6.528-9.088,6.528-.9,0-1.344-.576-1.344-1.472,0-5.056,7.808-13.184,14.592-13.184,1.92,0,2.24,1.28,2.24,1.856,0,.64-.192.9-.192,1.344a.5.5,0,0,0,.512.512c.448,0,1.344-.9,1.344-2.176,0-1.6-1.28-3.264-4.48-3.264-7.04,0-16.192,8.64-16.192,14.912a3.091,3.091,0,0,0,3.328,3.328c3.264,0,8-4.352,10.5-7.232C-144.032-2.56-142.24-.384-139.744-.384Zm25.152-16c0-2.176-1.536-3.392-2.048-3.392a.435.435,0,0,0-.448.448,12.5,12.5,0,0,1,.32,2.368c0,3.584-2.368,7.424-5.184,10.432h-.064a2.107,2.107,0,0,0-1.856,1.792v.128c-2.5,2.24-4.928,3.712-6.144,3.712A1.187,1.187,0,0,1-131.36-2.24c0-3.52,4.8-10.048,6.336-12.032a1.409,1.409,0,0,0,.384-.768,1.108,1.108,0,0,0-1.088-1.024c-1.088,0-7.936,9.6-7.936,14.016A3.3,3.3,0,0,0-130.4,1.088c1.792,0,4.672-1.472,7.424-3.776a6.42,6.42,0,0,0,4.48,1.536c3.008,0,6.208-1.536,9.408-5.056a1.429,1.429,0,0,0,.32-.64.815.815,0,0,0-.7-.7c-.32,0-.64.384-.64.384-2.88,3.328-5.568,4.416-8.064,4.416-1.6,0-2.624-.7-2.88-1.664C-117.536-7.808-114.592-12.352-114.592-16.384Zm28.992,2.5c.32-.448.448-.512.64-.512a7.39,7.39,0,0,1,2.56,1.472c.448.32.768.576.768.9,0,2.24-5.184,6.08-5.184,10.048a3.2,3.2,0,0,0,3.456,3.2c3.392,0,7.872-3.52,11.456-7.424a1.429,1.429,0,0,0,.32-.64.815.815,0,0,0-.7-.7c-.32,0-.64.384-.64.384-3.328,3.712-7.04,6.72-10.048,6.72A1.534,1.534,0,0,1-84.7-2.112c0-3.712,5.568-7.68,5.568-10.432,0-.64-.448-1.024-1.152-1.344-1.28-.7-3.712-2.176-3.712-2.56,0-.96,2.752-3.264,2.752-4.224a1.7,1.7,0,0,0-1.408-1.344c-1.6,0-2.688,4.1-3.456,5.632-3.008,6.208-6.336,10.816-10.5,11.776a13.844,13.844,0,0,0,3.456-8.512c0-3.52-1.92-6.208-5.888-6.208-4.672,0-8.7,3.84-8.768,8.064a11.7,11.7,0,0,0-3.2,7.36A4.7,4.7,0,0,0-106.016.96c2.432,0,5.312-1.536,7.744-3.84C-92.512-3.008-88.672-8.448-85.6-13.888Zm-20.352,3.264a10.942,10.942,0,0,1,7.232-4.224c.448-.064.9-.192.9-.7,0-.384-.384-.576-1.216-.576a10.825,10.825,0,0,0-6.336,2.56,7.484,7.484,0,0,1,6.528-3.84c2.176,0,3.584,1.856,3.584,4.224,0,3.072-1.856,6.336-4.224,8.7C-102.88-4.8-105.7-6.72-105.952-10.624Zm0,9.664A2.487,2.487,0,0,1-108.7-3.712a9.748,9.748,0,0,1,1.344-4.8A9.062,9.062,0,0,0-100.9-3.2,8.573,8.573,0,0,1-105.952-.96Zm46.72-5.248a1.429,1.429,0,0,0,.32-.64.822.822,0,0,0-.768-.7c-.256,0-.576.384-.576.384s-5.44,6.144-9.728,6.144A1.932,1.932,0,0,1-72.1-3.072c0-3.584,4.608-9.408,6.144-11.264a1.64,1.64,0,0,0,.384-.768.916.916,0,0,0-1.024-.96c-1.088,0-7.68,8.64-7.68,12.992A3.561,3.561,0,0,0-70.432.64C-65.5.64-59.232-6.208-59.232-6.208ZM-60.7-24.9c-1.088,0-2.112,1.6-2.112,2.688A1.163,1.163,0,0,0-61.6-21.056c1.024,0,2.112-1.6,2.112-2.752A1.113,1.113,0,0,0-60.7-24.9Zm2.368,6.272c.96,0,2.176.128,3.456.256C-58.208-13.44-61.152-7.744-61.152-3.2A3.442,3.442,0,0,0-57.5.384c5.248,0,11.2-6.592,11.2-6.592a1.429,1.429,0,0,0,.32-.64.822.822,0,0,0-.768-.7c-.256,0-.576.384-.576.384s-5.12,5.7-9.6,5.7a1.705,1.705,0,0,1-1.856-1.856c0-4.672,2.88-10.176,6.08-14.72,2.56.32,5.184.7,6.848.7.576,0,1.344-.64,1.344-1.088,0-.256-.128-.512-.9-.512a46.2,46.2,0,0,1-6.144-.7c2.944-3.9,5.76-7.04,6.592-8,.512-.64.7-.768.7-1.088a1.217,1.217,0,0,0-1.088-1.152c-.256,0-.576.192-.96.64a117.24,117.24,0,0,0-7.488,9.28,35.665,35.665,0,0,0-4.224-.32c-2.624,0-3.776,1.024-3.776,1.664a.653.653,0,0,0,.7.64A6.908,6.908,0,0,1-58.336-18.624ZM-27.424-6.208a1.429,1.429,0,0,0,.32-.64.756.756,0,0,0-.7-.7c-.32,0-.64.384-.64.384S-34.336.064-42.016.064c-2.368,0-4.032-1.408-4.032-3.648a3.544,3.544,0,0,1,.128-1.152c5.312-1.344,13.888-4.864,13.888-8.7,0-1.6-1.344-2.752-3.328-2.752-4.928,0-12.928,6.464-12.928,12.416,0,3.648,2.816,5.7,6.272,5.7C-34.592,1.92-27.424-6.208-27.424-6.208ZM-35.1-14.4c.96,0,1.152.576,1.152.768,0,2.688-6.528,5.76-11.392,7.04C-43.488-10.56-38.624-14.4-35.1-14.4Zm21.12,3.456c-1.088,2.112-2.048,4.288-3.008,6.592a.577.577,0,0,0-.32-.064,1.861,1.861,0,0,0-1.6,1.792c0,.512.256.768.768,1.024a54.829,54.829,0,0,0-3.84,19.136c0,5.184,1.984,7.232,4.416,7.232,4.224,0,7.232-10.048,7.232-16.512,0-6.592-2.112-8.512-2.112-8.512,4.352,0,7.68-3.328,10.112-5.952a1.429,1.429,0,0,0,.32-.64.822.822,0,0,0-.768-.7c-.256,0-.576.384-.576.384-2.112,2.3-4.992,5.312-8.7,5.312a5.25,5.25,0,0,1-3.328-1.28l1.728-3.84c8.448-5.952,23.552-17.6,23.552-23.616A3.168,3.168,0,0,0,6.5-33.728C.16-33.728-7.9-22.72-13.984-10.944Zm-2.048,9.92c1.6.384,3.84,2.176,3.84,9.152,0,5.632-2.688,14.976-5.376,14.976-1.28,0-2.5-1.472-2.5-5.44a52.207,52.207,0,0,1,3.9-18.688ZM6.624-31.936a1.237,1.237,0,0,1,1.344,1.152c0,4.736-13.568,15.808-19.84,20.352C-5.664-22.144,1.7-31.936,6.624-31.936ZM12.512-6.208a1.429,1.429,0,0,0,.32-.64.822.822,0,0,0-.768-.7c-.256,0-.576.384-.576.384C10.656-6.208,5.6-.576,1.248-.576c-2.112,0-3.2-1.088-3.2-3.136a5.825,5.825,0,0,1,.576-2.944c8.064-7.424,20.224-19.9,20.224-24.7A2.57,2.57,0,0,0,16.1-34.048C10.08-34.048-3.936-14.4-3.936-3.712A4.637,4.637,0,0,0,.928,1.28C5.536,1.28,11.616-5.184,12.512-6.208ZM16.16-32.384a.752.752,0,0,1,.832.768c0,4.416-11.072,16.064-18.048,22.4C2.336-19.52,12.384-32.384,16.16-32.384ZM24.032-3.456h-.064c2.56-2.624,4.48-6.208,4.48-9.664,0-3.52-1.92-6.208-5.888-6.208-4.672,0-8.7,3.84-8.768,8.064a11.7,11.7,0,0,0-3.2,7.36A4.7,4.7,0,0,0,15.584.96,11.383,11.383,0,0,0,22.3-1.92a6.209,6.209,0,0,0,1.088.064c3.52,0,6.08-.9,9.344-4.352a1.429,1.429,0,0,0,.32-.64.815.815,0,0,0-.7-.7c-.32,0-.64.384-.64.384A9.927,9.927,0,0,1,24.032-3.456Zm-8.384-7.168a10.942,10.942,0,0,1,7.232-4.224c.448-.064.9-.192.9-.7,0-.384-.384-.576-1.216-.576a10.825,10.825,0,0,0-6.336,2.56,7.484,7.484,0,0,1,6.528-3.84c2.176,0,3.584,1.856,3.584,4.224,0,3.328-2.176,6.976-4.864,9.344A7.882,7.882,0,0,1,15.648-10.624Zm0,9.664A2.487,2.487,0,0,1,12.9-3.712a10.693,10.693,0,0,1,1.344-4.8,10.713,10.713,0,0,0,5.7,5.888A7.579,7.579,0,0,1,15.648-.96ZM44.192-5.568A4.427,4.427,0,0,0,48.8-.64a7.891,7.891,0,0,0,4.672-1.92,6.457,6.457,0,0,0,4.352,1.408c3.008,0,6.208-1.536,9.408-5.056a1.429,1.429,0,0,0,.32-.64.815.815,0,0,0-.7-.7c-.32,0-.64.384-.64.384-2.88,3.328-5.568,4.416-8.064,4.416a2.775,2.775,0,0,1-2.816-1.536,12.741,12.741,0,0,0,3.264-7.936c0-2.176-1.6-3.456-2.112-3.456a.547.547,0,0,0-.512.512,6.336,6.336,0,0,1,.512,2.432A11.53,11.53,0,0,1,54.5-6.528H54.3a2.107,2.107,0,0,0-1.856,1.792,1.772,1.772,0,0,0,.064.576,5.481,5.481,0,0,1-3.392,1.6c-1.536,0-2.624-.832-2.624-2.816,0-3.072,2.816-5.888,2.816-6.464a1.14,1.14,0,0,0-1.088-1.216c-.576,0-1.984,2.432-5.312,6.272-3.2,3.648-6.656,6.4-8.64,6.4-1.024,0-1.664-.448-1.664-2.048,0-5.312,6.4-12.16,8.7-13.7A.7.7,0,0,0,41.7-16.7a1.032,1.032,0,0,0-.96-1.024c-2.176,0-10.56,9.408-10.56,15.552a3.635,3.635,0,0,0,3.9,3.648C36.384,1.472,40.8-1.728,44.192-5.568Zm41.6-.64a1.429,1.429,0,0,0,.32-.64.756.756,0,0,0-.7-.7c-.32,0-.64.384-.64.384S78.88.064,71.2.064c-2.368,0-4.032-1.408-4.032-3.648A3.544,3.544,0,0,1,67.3-4.736C72.608-6.08,81.184-9.6,81.184-13.44c0-1.6-1.344-2.752-3.328-2.752-4.928,0-12.928,6.464-12.928,12.416,0,3.648,2.816,5.7,6.272,5.7C78.624,1.92,85.792-6.208,85.792-6.208ZM78.112-14.4c.96,0,1.152.576,1.152.768,0,2.688-6.528,5.76-11.392,7.04C69.728-10.56,74.592-14.4,78.112-14.4Zm15.424-2.048c0-.96,2.752-3.264,2.752-4.224a1.7,1.7,0,0,0-1.408-1.344c-1.6,0-2.688,4.1-3.456,5.632a63.969,63.969,0,0,1-6.656,9.216,1.429,1.429,0,0,0-.32.64.754.754,0,0,0,.7.64,1.117,1.117,0,0,0,.64-.32C88.16-8.9,90.848-12.352,91.808-13.7c.384-.512.576-.7.832-.7a7.375,7.375,0,0,1,2.5,1.472c.448.32.768.576.768.9,0,2.24-5.184,6.08-5.184,10.048a3.2,3.2,0,0,0,3.456,3.2c3.392,0,7.872-3.52,11.456-7.424a1.429,1.429,0,0,0,.32-.64.815.815,0,0,0-.7-.7c-.32,0-.64.384-.64.384-3.328,3.712-7.04,6.72-10.048,6.72a1.534,1.534,0,0,1-1.728-1.664c0-3.712,5.568-7.68,5.568-10.432,0-.64-.448-1.024-1.152-1.344C95.968-14.592,93.536-16.064,93.536-16.448ZM131.1-6.208a1.429,1.429,0,0,0,.32-.64.822.822,0,0,0-.768-.7c-.256,0-.576.384-.576.384s-5.44,6.144-9.728,6.144a1.932,1.932,0,0,1-2.112-2.048c0-3.584,4.608-9.408,6.144-11.264a1.64,1.64,0,0,0,.384-.768.916.916,0,0,0-1.024-.96c-1.088,0-7.68,8.64-7.68,12.992A3.561,3.561,0,0,0,119.9.64C124.832.64,131.1-6.208,131.1-6.208ZM129.632-24.9c-1.088,0-2.112,1.6-2.112,2.688a1.163,1.163,0,0,0,1.216,1.152c1.024,0,2.112-1.6,2.112-2.752A1.113,1.113,0,0,0,129.632-24.9ZM132-18.624c.96,0,2.176.128,3.456.256-3.328,4.928-6.272,10.624-6.272,15.168A3.442,3.442,0,0,0,132.832.384c5.248,0,11.2-6.592,11.2-6.592a1.429,1.429,0,0,0,.32-.64.822.822,0,0,0-.768-.7c-.256,0-.576.384-.576.384s-5.12,5.7-9.6,5.7a1.705,1.705,0,0,1-1.856-1.856c0-4.672,2.88-10.176,6.08-14.72,2.56.32,5.184.7,6.848.7.576,0,1.344-.64,1.344-1.088,0-.256-.128-.512-.9-.512a46.2,46.2,0,0,1-6.144-.7c2.944-3.9,5.76-7.04,6.592-8,.512-.64.7-.768.7-1.088a1.217,1.217,0,0,0-1.088-1.152c-.256,0-.576.192-.96.64a117.241,117.241,0,0,0-7.488,9.28,35.665,35.665,0,0,0-4.224-.32c-2.624,0-3.776,1.024-3.776,1.664a.653.653,0,0,0,.7.64A6.908,6.908,0,0,1,132-18.624ZM162.912-6.208a1.429,1.429,0,0,0,.32-.64.756.756,0,0,0-.7-.7c-.32,0-.64.384-.64.384S156,.064,148.32.064c-2.368,0-4.032-1.408-4.032-3.648a3.544,3.544,0,0,1,.128-1.152C149.728-6.08,158.3-9.6,158.3-13.44c0-1.6-1.344-2.752-3.328-2.752-4.928,0-12.928,6.464-12.928,12.416,0,3.648,2.816,5.7,6.272,5.7C155.744,1.92,162.912-6.208,162.912-6.208Zm-7.68-8.192c.96,0,1.152.576,1.152.768,0,2.688-6.528,5.76-11.392,7.04C146.848-10.56,151.712-14.4,155.232-14.4Zm47.232,8.192a1.429,1.429,0,0,0,.32-.64.815.815,0,0,0-.7-.7c-.32,0-.64.384-.64.384S196.512-1.28,191.9-1.28c-1.216,0-1.792-.64-1.792-1.536,0-2.56,2.624-5.7,2.624-8a2.613,2.613,0,0,0-2.624-2.5c-3.776,0-9.984,5.7-11.968,7.552,1.088-1.856,5.44-5.952,5.44-8.448a2.98,2.98,0,0,0-3.008-2.88c-4.8,0-13.824,7.552-19.008,13.44,4.928-7.552,6.528-8.768,8.768-11.136.384-.384.64-.64.64-.9a1.007,1.007,0,0,0-1.024-1.088c-.7,0-6.144,6.016-8.832,10.5-2.048,3.392-3.072,4.992-3.072,5.7A1.233,1.233,0,0,0,159.136.576c.9,0,1.088-.384,1.792-1.216,5.248-6.208,15.3-14.592,19.328-14.592q1.152,0,1.152.96c0,2.24-7.36,9.664-7.36,11.712a.959.959,0,0,0,.96,1.024c.768,0,1.28-.576,2.176-1.408,3.328-3.072,9.6-8.512,12.416-8.512.64,0,.96.384.96.768,0,2.3-2.688,4.864-2.688,8A3.282,3.282,0,0,0,191.328.384C196.576.384,202.464-6.208,202.464-6.208Z" transform="translate(736 2004.054)" fill="#f59c9c"/>
    <path id="パス_3790" data-name="パス 3790" d="M0,0,11.2,10.434" transform="matrix(0.985, -0.174, 0.174, 0.985, 485.645, 1957.537)" fill="none" stroke="#f59c9c" stroke-linecap="round" stroke-width="2"/>
    <path id="パス_3791" data-name="パス 3791" d="M0,6.619,14.931,0" transform="matrix(0.985, -0.174, 0.174, 0.985, 483.101, 1994.541)" fill="none" stroke="#f59c9c" stroke-linecap="round" stroke-width="2"/>
    <path id="パス_3792" data-name="パス 3792" d="M4.571,0,0,15.654" transform="matrix(0.985, -0.174, 0.174, 0.985, 519.247, 1940.793)" fill="none" stroke="#f59c9c" stroke-linecap="round" stroke-width="2"/>
    <path id="パス_3793" data-name="パス 3793" d="M0,0,15,2" transform="matrix(0.985, -0.174, 0.174, 0.985, 480.428, 1979.781)" fill="none" stroke="#f59c9c" stroke-linecap="round" stroke-width="2"/>
    <path id="パス_3794" data-name="パス 3794" d="M0,0,3.642,14.663" transform="matrix(0.985, -0.174, 0.174, 0.985, 503.604, 1944.216)" fill="none" stroke="#f59c9c" stroke-linecap="round" stroke-width="2"/>
  </g>
</svg>
